<svg width="377" height="664" viewBox="0 0 377 664" fill="none" xmlns="http://www.w3.org/2000/svg">
<rect width="377" height="664" rx="16" fill="white"/>
<rect x="40.5" y="124.5" width="296" height="499" rx="4.5" stroke="#9747FF" stroke-dasharray="10 5"/>
<rect x="60.5" y="144.5" width="258" height="39" rx="7.5" fill="#9EF8FD"/>
<rect x="60.5" y="144.5" width="258" height="39" rx="7.5" stroke="#6DE9FA"/>
<path d="M75 164.5L78 167.5L85 160.5" stroke="#076AAD" stroke-width="1.5" stroke-linecap="round" stroke-linejoin="round"/>
<path d="M80 174C85.5228 174 90 169.523 90 164C90 158.477 85.5228 154 80 154C74.4772 154 70 158.477 70 164C70 169.523 74.4772 174 80 174Z" stroke="#076AAD" stroke-width="1.5" stroke-linecap="round" stroke-linejoin="round"/>
<path d="M102.818 158.364V170H101.409V158.364H102.818ZM106.803 164.75V170H105.462V161.273H106.757V162.636H106.871C107.075 162.193 107.386 161.837 107.803 161.568C108.219 161.295 108.757 161.159 109.416 161.159C110.007 161.159 110.524 161.28 110.967 161.523C111.411 161.761 111.755 162.125 112.001 162.614C112.248 163.098 112.371 163.712 112.371 164.455V170H111.03V164.545C111.03 163.86 110.852 163.326 110.496 162.943C110.14 162.557 109.651 162.364 109.03 162.364C108.602 162.364 108.219 162.456 107.882 162.642C107.549 162.828 107.286 163.098 107.092 163.455C106.899 163.811 106.803 164.242 106.803 164.75ZM118.707 161.273V162.409H114.003V161.273H118.707ZM115.412 170V160.068C115.412 159.568 115.529 159.152 115.764 158.818C115.999 158.485 116.304 158.235 116.679 158.068C117.054 157.902 117.45 157.818 117.866 157.818C118.196 157.818 118.465 157.845 118.673 157.898C118.882 157.951 119.037 158 119.139 158.045L118.753 159.205C118.685 159.182 118.59 159.153 118.469 159.119C118.351 159.085 118.196 159.068 118.003 159.068C117.56 159.068 117.24 159.18 117.043 159.403C116.849 159.627 116.753 159.955 116.753 160.386V170H115.412ZM123.773 170.182C122.985 170.182 122.294 169.994 121.699 169.619C121.108 169.244 120.646 168.72 120.312 168.045C119.983 167.371 119.818 166.583 119.818 165.682C119.818 164.773 119.983 163.979 120.312 163.301C120.646 162.623 121.108 162.097 121.699 161.722C122.294 161.347 122.985 161.159 123.773 161.159C124.561 161.159 125.25 161.347 125.841 161.722C126.436 162.097 126.898 162.623 127.227 163.301C127.561 163.979 127.727 164.773 127.727 165.682C127.727 166.583 127.561 167.371 127.227 168.045C126.898 168.72 126.436 169.244 125.841 169.619C125.25 169.994 124.561 170.182 123.773 170.182ZM123.773 168.977C124.371 168.977 124.864 168.824 125.25 168.517C125.636 168.21 125.922 167.807 126.108 167.307C126.294 166.807 126.386 166.265 126.386 165.682C126.386 165.098 126.294 164.555 126.108 164.051C125.922 163.547 125.636 163.14 125.25 162.83C124.864 162.519 124.371 162.364 123.773 162.364C123.174 162.364 122.682 162.519 122.295 162.83C121.909 163.14 121.623 163.547 121.438 164.051C121.252 164.555 121.159 165.098 121.159 165.682C121.159 166.265 121.252 166.807 121.438 167.307C121.623 167.807 121.909 168.21 122.295 168.517C122.682 168.824 123.174 168.977 123.773 168.977ZM129.774 170V161.273H131.07V162.591H131.161C131.32 162.159 131.607 161.809 132.024 161.54C132.441 161.271 132.911 161.136 133.433 161.136C133.532 161.136 133.655 161.138 133.803 161.142C133.95 161.146 134.062 161.152 134.138 161.159V162.523C134.092 162.511 133.988 162.494 133.825 162.472C133.666 162.445 133.498 162.432 133.32 162.432C132.895 162.432 132.517 162.521 132.183 162.699C131.854 162.873 131.592 163.116 131.399 163.426C131.21 163.733 131.115 164.083 131.115 164.477V170H129.774ZM135.727 170V161.273H137.023V162.636H137.136C137.318 162.17 137.612 161.809 138.017 161.551C138.422 161.29 138.909 161.159 139.477 161.159C140.053 161.159 140.532 161.29 140.915 161.551C141.301 161.809 141.602 162.17 141.818 162.636H141.909C142.133 162.186 142.468 161.828 142.915 161.562C143.362 161.294 143.898 161.159 144.523 161.159C145.303 161.159 145.941 161.403 146.438 161.892C146.934 162.377 147.182 163.133 147.182 164.159V170H145.841V164.159C145.841 163.515 145.665 163.055 145.312 162.778C144.96 162.502 144.545 162.364 144.068 162.364C143.455 162.364 142.979 162.549 142.642 162.92C142.305 163.288 142.136 163.754 142.136 164.318V170H140.773V164.023C140.773 163.527 140.612 163.127 140.29 162.824C139.968 162.517 139.553 162.364 139.045 162.364C138.697 162.364 138.371 162.456 138.068 162.642C137.769 162.828 137.527 163.085 137.341 163.415C137.159 163.741 137.068 164.117 137.068 164.545V170H135.727ZM152.202 170.205C151.649 170.205 151.147 170.1 150.696 169.892C150.245 169.68 149.887 169.375 149.622 168.977C149.357 168.576 149.224 168.091 149.224 167.523C149.224 167.023 149.323 166.617 149.52 166.307C149.717 165.992 149.98 165.746 150.31 165.568C150.639 165.39 151.003 165.258 151.401 165.17C151.802 165.08 152.205 165.008 152.611 164.955C153.141 164.886 153.571 164.835 153.901 164.801C154.234 164.763 154.476 164.701 154.628 164.614C154.783 164.527 154.861 164.375 154.861 164.159V164.114C154.861 163.553 154.707 163.117 154.401 162.807C154.098 162.496 153.637 162.341 153.02 162.341C152.38 162.341 151.878 162.481 151.514 162.761C151.151 163.042 150.895 163.341 150.747 163.659L149.474 163.205C149.702 162.674 150.005 162.261 150.384 161.966C150.766 161.667 151.183 161.458 151.634 161.341C152.088 161.22 152.535 161.159 152.974 161.159C153.255 161.159 153.577 161.193 153.94 161.261C154.308 161.326 154.662 161.46 155.003 161.665C155.348 161.869 155.634 162.178 155.861 162.591C156.088 163.004 156.202 163.557 156.202 164.25V170H154.861V168.818H154.793C154.702 169.008 154.55 169.21 154.338 169.426C154.126 169.642 153.844 169.826 153.491 169.977C153.139 170.129 152.709 170.205 152.202 170.205ZM152.406 169C152.937 169 153.384 168.896 153.747 168.688C154.115 168.479 154.391 168.21 154.577 167.881C154.766 167.551 154.861 167.205 154.861 166.841V165.614C154.804 165.682 154.679 165.744 154.486 165.801C154.296 165.854 154.077 165.902 153.827 165.943C153.58 165.981 153.34 166.015 153.105 166.045C152.874 166.072 152.687 166.095 152.543 166.114C152.194 166.159 151.868 166.233 151.565 166.335C151.266 166.434 151.024 166.583 150.838 166.784C150.656 166.981 150.565 167.25 150.565 167.591C150.565 168.057 150.738 168.409 151.082 168.648C151.431 168.883 151.872 169 152.406 169ZM162.445 161.273V162.409H157.922V161.273H162.445ZM159.24 159.182H160.581V167.5C160.581 167.879 160.636 168.163 160.746 168.352C160.859 168.538 161.003 168.663 161.178 168.727C161.356 168.788 161.543 168.818 161.74 168.818C161.888 168.818 162.009 168.811 162.104 168.795C162.198 168.777 162.274 168.761 162.331 168.75L162.604 169.955C162.513 169.989 162.386 170.023 162.223 170.057C162.06 170.095 161.854 170.114 161.604 170.114C161.225 170.114 160.854 170.032 160.49 169.869C160.13 169.706 159.831 169.458 159.592 169.125C159.357 168.792 159.24 168.371 159.24 167.864V159.182ZM164.462 170V161.273H165.803V170H164.462ZM165.143 159.818C164.882 159.818 164.657 159.729 164.467 159.551C164.282 159.373 164.189 159.159 164.189 158.909C164.189 158.659 164.282 158.445 164.467 158.267C164.657 158.089 164.882 158 165.143 158C165.405 158 165.628 158.089 165.814 158.267C166.003 158.445 166.098 158.659 166.098 158.909C166.098 159.159 166.003 159.373 165.814 159.551C165.628 159.729 165.405 159.818 165.143 159.818ZM171.804 170.182C171.016 170.182 170.325 169.994 169.73 169.619C169.139 169.244 168.677 168.72 168.344 168.045C168.014 167.371 167.849 166.583 167.849 165.682C167.849 164.773 168.014 163.979 168.344 163.301C168.677 162.623 169.139 162.097 169.73 161.722C170.325 161.347 171.016 161.159 171.804 161.159C172.592 161.159 173.281 161.347 173.872 161.722C174.467 162.097 174.929 162.623 175.259 163.301C175.592 163.979 175.759 164.773 175.759 165.682C175.759 166.583 175.592 167.371 175.259 168.045C174.929 168.72 174.467 169.244 173.872 169.619C173.281 169.994 172.592 170.182 171.804 170.182ZM171.804 168.977C172.402 168.977 172.895 168.824 173.281 168.517C173.668 168.21 173.954 167.807 174.139 167.307C174.325 166.807 174.418 166.265 174.418 165.682C174.418 165.098 174.325 164.555 174.139 164.051C173.954 163.547 173.668 163.14 173.281 162.83C172.895 162.519 172.402 162.364 171.804 162.364C171.205 162.364 170.713 162.519 170.327 162.83C169.94 163.14 169.654 163.547 169.469 164.051C169.283 164.555 169.19 165.098 169.19 165.682C169.19 166.265 169.283 166.807 169.469 167.307C169.654 167.807 169.94 168.21 170.327 168.517C170.713 168.824 171.205 168.977 171.804 168.977ZM179.146 164.75V170H177.805V161.273H179.101V162.636H179.214C179.419 162.193 179.73 161.837 180.146 161.568C180.563 161.295 181.101 161.159 181.76 161.159C182.351 161.159 182.868 161.28 183.311 161.523C183.754 161.761 184.099 162.125 184.345 162.614C184.591 163.098 184.714 163.712 184.714 164.455V170H183.374V164.545C183.374 163.86 183.196 163.326 182.839 162.943C182.483 162.557 181.995 162.364 181.374 162.364C180.946 162.364 180.563 162.456 180.226 162.642C179.893 162.828 179.629 163.098 179.436 163.455C179.243 163.811 179.146 164.242 179.146 164.75ZM194.233 170.205C193.68 170.205 193.178 170.1 192.727 169.892C192.277 169.68 191.919 169.375 191.653 168.977C191.388 168.576 191.256 168.091 191.256 167.523C191.256 167.023 191.354 166.617 191.551 166.307C191.748 165.992 192.011 165.746 192.341 165.568C192.67 165.39 193.034 165.258 193.432 165.17C193.833 165.08 194.237 165.008 194.642 164.955C195.172 164.886 195.602 164.835 195.932 164.801C196.265 164.763 196.508 164.701 196.659 164.614C196.814 164.527 196.892 164.375 196.892 164.159V164.114C196.892 163.553 196.739 163.117 196.432 162.807C196.129 162.496 195.669 162.341 195.051 162.341C194.411 162.341 193.909 162.481 193.545 162.761C193.182 163.042 192.926 163.341 192.778 163.659L191.506 163.205C191.733 162.674 192.036 162.261 192.415 161.966C192.797 161.667 193.214 161.458 193.665 161.341C194.119 161.22 194.566 161.159 195.006 161.159C195.286 161.159 195.608 161.193 195.972 161.261C196.339 161.326 196.693 161.46 197.034 161.665C197.379 161.869 197.665 162.178 197.892 162.591C198.119 163.004 198.233 163.557 198.233 164.25V170H196.892V168.818H196.824C196.733 169.008 196.581 169.21 196.369 169.426C196.157 169.642 195.875 169.826 195.523 169.977C195.17 170.129 194.741 170.205 194.233 170.205ZM194.438 169C194.968 169 195.415 168.896 195.778 168.688C196.146 168.479 196.422 168.21 196.608 167.881C196.797 167.551 196.892 167.205 196.892 166.841V165.614C196.835 165.682 196.71 165.744 196.517 165.801C196.328 165.854 196.108 165.902 195.858 165.943C195.612 165.981 195.371 166.015 195.136 166.045C194.905 166.072 194.718 166.095 194.574 166.114C194.225 166.159 193.9 166.233 193.597 166.335C193.297 166.434 193.055 166.583 192.869 166.784C192.688 166.981 192.597 167.25 192.597 167.591C192.597 168.057 192.769 168.409 193.114 168.648C193.462 168.883 193.903 169 194.438 169ZM202.021 158.364V170H200.68V158.364H202.021ZM208.136 170.182C207.295 170.182 206.57 169.996 205.96 169.625C205.354 169.25 204.886 168.727 204.557 168.057C204.231 167.383 204.068 166.598 204.068 165.705C204.068 164.811 204.231 164.023 204.557 163.341C204.886 162.655 205.345 162.121 205.932 161.739C206.523 161.352 207.212 161.159 208 161.159C208.455 161.159 208.903 161.235 209.347 161.386C209.79 161.538 210.193 161.784 210.557 162.125C210.92 162.462 211.21 162.909 211.426 163.466C211.642 164.023 211.75 164.708 211.75 165.523V166.091H205.023V164.932H210.386C210.386 164.439 210.288 164 210.091 163.614C209.898 163.227 209.621 162.922 209.261 162.699C208.905 162.475 208.485 162.364 208 162.364C207.466 162.364 207.004 162.496 206.614 162.761C206.227 163.023 205.93 163.364 205.722 163.784C205.513 164.205 205.409 164.655 205.409 165.136V165.909C205.409 166.568 205.523 167.127 205.75 167.585C205.981 168.04 206.301 168.386 206.71 168.625C207.119 168.86 207.595 168.977 208.136 168.977C208.489 168.977 208.807 168.928 209.091 168.83C209.379 168.727 209.627 168.576 209.835 168.375C210.044 168.17 210.205 167.917 210.318 167.614L211.614 167.977C211.477 168.417 211.248 168.803 210.926 169.136C210.604 169.466 210.206 169.723 209.733 169.909C209.259 170.091 208.727 170.182 208.136 170.182ZM213.79 170V161.273H215.085V162.591H215.176C215.335 162.159 215.623 161.809 216.04 161.54C216.456 161.271 216.926 161.136 217.449 161.136C217.547 161.136 217.67 161.138 217.818 161.142C217.966 161.146 218.078 161.152 218.153 161.159V162.523C218.108 162.511 218.004 162.494 217.841 162.472C217.682 162.445 217.513 162.432 217.335 162.432C216.911 162.432 216.532 162.521 216.199 162.699C215.869 162.873 215.608 163.116 215.415 163.426C215.225 163.733 215.131 164.083 215.131 164.477V170H213.79ZM224.085 161.273V162.409H219.562V161.273H224.085ZM220.881 159.182H222.222V167.5C222.222 167.879 222.277 168.163 222.386 168.352C222.5 168.538 222.644 168.663 222.818 168.727C222.996 168.788 223.184 168.818 223.381 168.818C223.528 168.818 223.65 168.811 223.744 168.795C223.839 168.777 223.915 168.761 223.972 168.75L224.244 169.955C224.153 169.989 224.027 170.023 223.864 170.057C223.701 170.095 223.494 170.114 223.244 170.114C222.866 170.114 222.494 170.032 222.131 169.869C221.771 169.706 221.472 169.458 221.233 169.125C220.998 168.792 220.881 168.371 220.881 167.864V159.182Z" fill="#076AAD"/>
<path d="M293.757 169.243L299 164M304.243 158.757L299 164M299 164L293.757 158.757M299 164L304.243 169.243" stroke="#076AAD" stroke-width="1.5" stroke-linecap="round" stroke-linejoin="round"/>
<rect x="60.5" y="204.5" width="258" height="39" rx="7.5" fill="#E2F9AF"/>
<rect x="60.5" y="204.5" width="258" height="39" rx="7.5" stroke="#C8EF84"/>
<path d="M75 224.5L78 227.5L85 220.5" stroke="#51921A" stroke-width="1.5" stroke-linecap="round" stroke-linejoin="round"/>
<path d="M80 234C85.5228 234 90 229.523 90 224C90 218.477 85.5228 214 80 214C74.4772 214 70 218.477 70 224C70 229.523 74.4772 234 80 234Z" stroke="#51921A" stroke-width="1.5" stroke-linecap="round" stroke-linejoin="round"/>
<path d="M107.773 221.273C107.705 220.697 107.428 220.25 106.943 219.932C106.458 219.614 105.864 219.455 105.159 219.455C104.644 219.455 104.193 219.538 103.807 219.705C103.424 219.871 103.125 220.1 102.909 220.392C102.697 220.684 102.591 221.015 102.591 221.386C102.591 221.697 102.665 221.964 102.812 222.188C102.964 222.407 103.157 222.591 103.392 222.739C103.627 222.883 103.873 223.002 104.131 223.097C104.388 223.187 104.625 223.261 104.841 223.318L106.023 223.636C106.326 223.716 106.663 223.826 107.034 223.966C107.409 224.106 107.767 224.297 108.108 224.54C108.453 224.778 108.737 225.085 108.96 225.46C109.184 225.835 109.295 226.295 109.295 226.841C109.295 227.47 109.131 228.038 108.801 228.545C108.475 229.053 107.998 229.456 107.369 229.756C106.744 230.055 105.985 230.205 105.091 230.205C104.258 230.205 103.536 230.07 102.926 229.801C102.32 229.532 101.843 229.157 101.494 228.676C101.15 228.195 100.955 227.636 100.909 227H102.364C102.402 227.439 102.549 227.803 102.807 228.091C103.068 228.375 103.398 228.587 103.795 228.727C104.197 228.864 104.629 228.932 105.091 228.932C105.629 228.932 106.112 228.845 106.54 228.67C106.968 228.492 107.307 228.246 107.557 227.932C107.807 227.614 107.932 227.242 107.932 226.818C107.932 226.432 107.824 226.117 107.608 225.875C107.392 225.633 107.108 225.436 106.756 225.284C106.403 225.133 106.023 225 105.614 224.886L104.182 224.477C103.273 224.216 102.553 223.843 102.023 223.358C101.492 222.873 101.227 222.239 101.227 221.455C101.227 220.803 101.403 220.235 101.756 219.75C102.112 219.261 102.589 218.883 103.188 218.614C103.79 218.341 104.462 218.205 105.205 218.205C105.955 218.205 106.621 218.339 107.205 218.608C107.788 218.873 108.25 219.237 108.591 219.699C108.936 220.161 109.117 220.686 109.136 221.273H107.773ZM116.93 226.432V221.273H118.271V230H116.93V228.523H116.839C116.635 228.966 116.317 229.343 115.885 229.653C115.453 229.96 114.908 230.114 114.249 230.114C113.703 230.114 113.218 229.994 112.794 229.756C112.37 229.513 112.036 229.15 111.794 228.665C111.552 228.176 111.43 227.561 111.43 226.818V221.273H112.771V226.727C112.771 227.364 112.949 227.871 113.305 228.25C113.665 228.629 114.124 228.818 114.68 228.818C115.014 228.818 115.353 228.733 115.697 228.562C116.046 228.392 116.338 228.131 116.572 227.778C116.811 227.426 116.93 226.977 116.93 226.432ZM124.273 230.182C123.455 230.182 122.75 229.989 122.159 229.602C121.568 229.216 121.114 228.684 120.795 228.006C120.477 227.328 120.318 226.553 120.318 225.682C120.318 224.795 120.481 224.013 120.807 223.335C121.136 222.653 121.595 222.121 122.182 221.739C122.773 221.352 123.462 221.159 124.25 221.159C124.864 221.159 125.417 221.273 125.909 221.5C126.402 221.727 126.805 222.045 127.119 222.455C127.434 222.864 127.629 223.341 127.705 223.886H126.364C126.261 223.489 126.034 223.136 125.682 222.83C125.333 222.519 124.864 222.364 124.273 222.364C123.75 222.364 123.292 222.5 122.898 222.773C122.508 223.042 122.203 223.422 121.983 223.915C121.767 224.403 121.659 224.977 121.659 225.636C121.659 226.311 121.765 226.898 121.977 227.398C122.193 227.898 122.496 228.286 122.886 228.562C123.28 228.839 123.742 228.977 124.273 228.977C124.621 228.977 124.938 228.917 125.222 228.795C125.506 228.674 125.746 228.5 125.943 228.273C126.14 228.045 126.28 227.773 126.364 227.455H127.705C127.629 227.97 127.441 228.434 127.142 228.847C126.847 229.256 126.455 229.581 125.966 229.824C125.481 230.062 124.917 230.182 124.273 230.182ZM133.21 230.182C132.392 230.182 131.688 229.989 131.097 229.602C130.506 229.216 130.051 228.684 129.733 228.006C129.415 227.328 129.256 226.553 129.256 225.682C129.256 224.795 129.419 224.013 129.744 223.335C130.074 222.653 130.532 222.121 131.119 221.739C131.71 221.352 132.4 221.159 133.188 221.159C133.801 221.159 134.354 221.273 134.847 221.5C135.339 221.727 135.742 222.045 136.057 222.455C136.371 222.864 136.566 223.341 136.642 223.886H135.301C135.199 223.489 134.972 223.136 134.619 222.83C134.271 222.519 133.801 222.364 133.21 222.364C132.688 222.364 132.229 222.5 131.835 222.773C131.445 223.042 131.14 223.422 130.92 223.915C130.705 224.403 130.597 224.977 130.597 225.636C130.597 226.311 130.703 226.898 130.915 227.398C131.131 227.898 131.434 228.286 131.824 228.562C132.218 228.839 132.68 228.977 133.21 228.977C133.559 228.977 133.875 228.917 134.159 228.795C134.443 228.674 134.684 228.5 134.881 228.273C135.078 228.045 135.218 227.773 135.301 227.455H136.642C136.566 227.97 136.379 228.434 136.08 228.847C135.784 229.256 135.392 229.581 134.903 229.824C134.419 230.062 133.854 230.182 133.21 230.182ZM142.261 230.182C141.42 230.182 140.695 229.996 140.085 229.625C139.479 229.25 139.011 228.727 138.682 228.057C138.356 227.383 138.193 226.598 138.193 225.705C138.193 224.811 138.356 224.023 138.682 223.341C139.011 222.655 139.47 222.121 140.057 221.739C140.648 221.352 141.337 221.159 142.125 221.159C142.58 221.159 143.028 221.235 143.472 221.386C143.915 221.538 144.318 221.784 144.682 222.125C145.045 222.462 145.335 222.909 145.551 223.466C145.767 224.023 145.875 224.708 145.875 225.523V226.091H139.148V224.932H144.511C144.511 224.439 144.413 224 144.216 223.614C144.023 223.227 143.746 222.922 143.386 222.699C143.03 222.475 142.61 222.364 142.125 222.364C141.591 222.364 141.129 222.496 140.739 222.761C140.352 223.023 140.055 223.364 139.847 223.784C139.638 224.205 139.534 224.655 139.534 225.136V225.909C139.534 226.568 139.648 227.127 139.875 227.585C140.106 228.04 140.426 228.386 140.835 228.625C141.244 228.86 141.72 228.977 142.261 228.977C142.614 228.977 142.932 228.928 143.216 228.83C143.504 228.727 143.752 228.576 143.96 228.375C144.169 228.17 144.33 227.917 144.443 227.614L145.739 227.977C145.602 228.417 145.373 228.803 145.051 229.136C144.729 229.466 144.331 229.723 143.858 229.909C143.384 230.091 142.852 230.182 142.261 230.182ZM154.097 223.227L152.892 223.568C152.816 223.367 152.705 223.172 152.557 222.983C152.413 222.79 152.216 222.631 151.966 222.506C151.716 222.381 151.396 222.318 151.006 222.318C150.472 222.318 150.027 222.441 149.67 222.688C149.318 222.93 149.142 223.239 149.142 223.614C149.142 223.947 149.263 224.21 149.506 224.403C149.748 224.597 150.127 224.758 150.642 224.886L151.938 225.205C152.718 225.394 153.299 225.684 153.682 226.074C154.064 226.46 154.256 226.958 154.256 227.568C154.256 228.068 154.112 228.515 153.824 228.909C153.54 229.303 153.142 229.614 152.631 229.841C152.119 230.068 151.525 230.182 150.847 230.182C149.956 230.182 149.22 229.989 148.636 229.602C148.053 229.216 147.684 228.652 147.528 227.909L148.801 227.591C148.922 228.061 149.152 228.413 149.489 228.648C149.83 228.883 150.275 229 150.824 229C151.449 229 151.945 228.867 152.312 228.602C152.684 228.333 152.869 228.011 152.869 227.636C152.869 227.333 152.763 227.08 152.551 226.875C152.339 226.667 152.013 226.511 151.574 226.409L150.119 226.068C149.32 225.879 148.733 225.585 148.358 225.188C147.987 224.786 147.801 224.284 147.801 223.682C147.801 223.189 147.939 222.754 148.216 222.375C148.496 221.996 148.877 221.699 149.358 221.483C149.843 221.267 150.392 221.159 151.006 221.159C151.869 221.159 152.547 221.348 153.04 221.727C153.536 222.106 153.888 222.606 154.097 223.227ZM162.456 223.227L161.251 223.568C161.176 223.367 161.064 223.172 160.916 222.983C160.772 222.79 160.575 222.631 160.325 222.506C160.075 222.381 159.755 222.318 159.365 222.318C158.831 222.318 158.386 222.441 158.03 222.688C157.678 222.93 157.501 223.239 157.501 223.614C157.501 223.947 157.623 224.21 157.865 224.403C158.107 224.597 158.486 224.758 159.001 224.886L160.297 225.205C161.077 225.394 161.659 225.684 162.041 226.074C162.424 226.46 162.615 226.958 162.615 227.568C162.615 228.068 162.471 228.515 162.183 228.909C161.899 229.303 161.501 229.614 160.99 229.841C160.479 230.068 159.884 230.182 159.206 230.182C158.316 230.182 157.579 229.989 156.996 229.602C156.412 229.216 156.043 228.652 155.888 227.909L157.161 227.591C157.282 228.061 157.511 228.413 157.848 228.648C158.189 228.883 158.634 229 159.183 229C159.808 229 160.304 228.867 160.672 228.602C161.043 228.333 161.229 228.011 161.229 227.636C161.229 227.333 161.123 227.08 160.911 226.875C160.698 226.667 160.373 226.511 159.933 226.409L158.479 226.068C157.679 225.879 157.092 225.585 156.717 225.188C156.346 224.786 156.161 224.284 156.161 223.682C156.161 223.189 156.299 222.754 156.575 222.375C156.856 221.996 157.236 221.699 157.717 221.483C158.202 221.267 158.751 221.159 159.365 221.159C160.229 221.159 160.907 221.348 161.399 221.727C161.895 222.106 162.248 222.606 162.456 223.227ZM171.702 230.205C171.149 230.205 170.647 230.1 170.196 229.892C169.745 229.68 169.387 229.375 169.122 228.977C168.857 228.576 168.724 228.091 168.724 227.523C168.724 227.023 168.823 226.617 169.02 226.307C169.217 225.992 169.48 225.746 169.81 225.568C170.139 225.39 170.503 225.258 170.901 225.17C171.302 225.08 171.705 225.008 172.111 224.955C172.641 224.886 173.071 224.835 173.401 224.801C173.734 224.763 173.976 224.701 174.128 224.614C174.283 224.527 174.361 224.375 174.361 224.159V224.114C174.361 223.553 174.207 223.117 173.901 222.807C173.598 222.496 173.137 222.341 172.52 222.341C171.88 222.341 171.378 222.481 171.014 222.761C170.651 223.042 170.395 223.341 170.247 223.659L168.974 223.205C169.202 222.674 169.505 222.261 169.884 221.966C170.266 221.667 170.683 221.458 171.134 221.341C171.588 221.22 172.035 221.159 172.474 221.159C172.755 221.159 173.077 221.193 173.44 221.261C173.808 221.326 174.162 221.46 174.503 221.665C174.848 221.869 175.134 222.178 175.361 222.591C175.588 223.004 175.702 223.557 175.702 224.25V230H174.361V228.818H174.293C174.202 229.008 174.05 229.21 173.838 229.426C173.626 229.642 173.344 229.826 172.991 229.977C172.639 230.129 172.209 230.205 171.702 230.205ZM171.906 229C172.437 229 172.884 228.896 173.247 228.688C173.615 228.479 173.891 228.21 174.077 227.881C174.266 227.551 174.361 227.205 174.361 226.841V225.614C174.304 225.682 174.179 225.744 173.986 225.801C173.796 225.854 173.577 225.902 173.327 225.943C173.08 225.981 172.84 226.015 172.605 226.045C172.374 226.072 172.187 226.095 172.043 226.114C171.694 226.159 171.368 226.233 171.065 226.335C170.766 226.434 170.524 226.583 170.338 226.784C170.156 226.981 170.065 227.25 170.065 227.591C170.065 228.057 170.238 228.409 170.582 228.648C170.931 228.883 171.372 229 171.906 229ZM179.49 218.364V230H178.149V218.364H179.49ZM185.605 230.182C184.764 230.182 184.039 229.996 183.429 229.625C182.823 229.25 182.355 228.727 182.026 228.057C181.7 227.383 181.537 226.598 181.537 225.705C181.537 224.811 181.7 224.023 182.026 223.341C182.355 222.655 182.813 222.121 183.401 221.739C183.991 221.352 184.681 221.159 185.469 221.159C185.923 221.159 186.372 221.235 186.815 221.386C187.259 221.538 187.662 221.784 188.026 222.125C188.389 222.462 188.679 222.909 188.895 223.466C189.111 224.023 189.219 224.708 189.219 225.523V226.091H182.491V224.932H187.855C187.855 224.439 187.757 224 187.56 223.614C187.366 223.227 187.09 222.922 186.73 222.699C186.374 222.475 185.954 222.364 185.469 222.364C184.935 222.364 184.473 222.496 184.082 222.761C183.696 223.023 183.399 223.364 183.19 223.784C182.982 224.205 182.878 224.655 182.878 225.136V225.909C182.878 226.568 182.991 227.127 183.219 227.585C183.45 228.04 183.77 228.386 184.179 228.625C184.588 228.86 185.063 228.977 185.605 228.977C185.957 228.977 186.276 228.928 186.56 228.83C186.848 228.727 187.096 228.576 187.304 228.375C187.512 228.17 187.673 227.917 187.787 227.614L189.082 227.977C188.946 228.417 188.717 228.803 188.395 229.136C188.073 229.466 187.675 229.723 187.202 229.909C186.728 230.091 186.196 230.182 185.605 230.182ZM191.259 230V221.273H192.554V222.591H192.645C192.804 222.159 193.092 221.809 193.509 221.54C193.925 221.271 194.395 221.136 194.918 221.136C195.016 221.136 195.139 221.138 195.287 221.142C195.435 221.146 195.546 221.152 195.622 221.159V222.523C195.577 222.511 195.473 222.494 195.31 222.472C195.151 222.445 194.982 222.432 194.804 222.432C194.38 222.432 194.001 222.521 193.668 222.699C193.338 222.873 193.077 223.116 192.884 223.426C192.694 223.733 192.599 224.083 192.599 224.477V230H191.259ZM201.554 221.273V222.409H197.031V221.273H201.554ZM198.349 219.182H199.69V227.5C199.69 227.879 199.745 228.163 199.855 228.352C199.969 228.538 200.113 228.663 200.287 228.727C200.465 228.788 200.652 228.818 200.849 228.818C200.997 228.818 201.118 228.811 201.213 228.795C201.308 228.777 201.384 228.761 201.44 228.75L201.713 229.955C201.622 229.989 201.495 230.023 201.332 230.057C201.17 230.095 200.963 230.114 200.713 230.114C200.334 230.114 199.963 230.032 199.599 229.869C199.24 229.706 198.94 229.458 198.702 229.125C198.467 228.792 198.349 228.371 198.349 227.864V219.182Z" fill="#51921A"/>
<path d="M293.757 229.243L299 224M304.243 218.757L299 224M299 224L293.757 218.757M299 224L304.243 229.243" stroke="#51921A" stroke-width="1.5" stroke-linecap="round" stroke-linejoin="round"/>
<rect x="60.5" y="264.5" width="258" height="39" rx="7.5" fill="#FFEE99"/>
<rect x="60.5" y="264.5" width="258" height="39" rx="7.5" stroke="#FFE266"/>
<path d="M75 284.5L78 287.5L85 280.5" stroke="#B78300" stroke-width="1.5" stroke-linecap="round" stroke-linejoin="round"/>
<path d="M80 294C85.5228 294 90 289.523 90 284C90 278.477 85.5228 274 80 274C74.4772 274 70 278.477 70 284C70 289.523 74.4772 294 80 294Z" stroke="#B78300" stroke-width="1.5" stroke-linecap="round" stroke-linejoin="round"/>
<path d="M103.523 290L100.341 278.364H101.773L104.205 287.841H104.318L106.795 278.364H108.386L110.864 287.841H110.977L113.409 278.364H114.841L111.659 290H110.205L107.636 280.727H107.545L104.977 290H103.523ZM118.17 290.205C117.617 290.205 117.116 290.1 116.665 289.892C116.214 289.68 115.856 289.375 115.591 288.977C115.326 288.576 115.193 288.091 115.193 287.523C115.193 287.023 115.292 286.617 115.489 286.307C115.686 285.992 115.949 285.746 116.278 285.568C116.608 285.39 116.972 285.258 117.369 285.17C117.771 285.08 118.174 285.008 118.58 284.955C119.11 284.886 119.54 284.835 119.869 284.801C120.203 284.763 120.445 284.701 120.597 284.614C120.752 284.527 120.83 284.375 120.83 284.159V284.114C120.83 283.553 120.676 283.117 120.369 282.807C120.066 282.496 119.606 282.341 118.989 282.341C118.348 282.341 117.847 282.481 117.483 282.761C117.119 283.042 116.864 283.341 116.716 283.659L115.443 283.205C115.67 282.674 115.973 282.261 116.352 281.966C116.735 281.667 117.152 281.458 117.602 281.341C118.057 281.22 118.504 281.159 118.943 281.159C119.223 281.159 119.545 281.193 119.909 281.261C120.277 281.326 120.631 281.46 120.972 281.665C121.316 281.869 121.602 282.178 121.83 282.591C122.057 283.004 122.17 283.557 122.17 284.25V290H120.83V288.818H120.761C120.67 289.008 120.519 289.21 120.307 289.426C120.095 289.642 119.813 289.826 119.46 289.977C119.108 290.129 118.678 290.205 118.17 290.205ZM118.375 289C118.905 289 119.352 288.896 119.716 288.688C120.083 288.479 120.36 288.21 120.545 287.881C120.735 287.551 120.83 287.205 120.83 286.841V285.614C120.773 285.682 120.648 285.744 120.455 285.801C120.265 285.854 120.045 285.902 119.795 285.943C119.549 285.981 119.309 286.015 119.074 286.045C118.843 286.072 118.655 286.095 118.511 286.114C118.163 286.159 117.837 286.233 117.534 286.335C117.235 286.434 116.992 286.583 116.807 286.784C116.625 286.981 116.534 287.25 116.534 287.591C116.534 288.057 116.706 288.409 117.051 288.648C117.4 288.883 117.841 289 118.375 289ZM124.618 290V281.273H125.913V282.591H126.004C126.163 282.159 126.451 281.809 126.868 281.54C127.285 281.271 127.754 281.136 128.277 281.136C128.375 281.136 128.499 281.138 128.646 281.142C128.794 281.146 128.906 281.152 128.982 281.159V282.523C128.936 282.511 128.832 282.494 128.669 282.472C128.51 282.445 128.341 282.432 128.163 282.432C127.739 282.432 127.36 282.521 127.027 282.699C126.697 282.873 126.436 283.116 126.243 283.426C126.054 283.733 125.959 284.083 125.959 284.477V290H124.618ZM131.912 284.75V290H130.571V281.273H131.866V282.636H131.98C132.185 282.193 132.495 281.837 132.912 281.568C133.329 281.295 133.866 281.159 134.526 281.159C135.116 281.159 135.634 281.28 136.077 281.523C136.52 281.761 136.865 282.125 137.111 282.614C137.357 283.098 137.48 283.712 137.48 284.455V290H136.139V284.545C136.139 283.86 135.961 283.326 135.605 282.943C135.249 282.557 134.76 282.364 134.139 282.364C133.711 282.364 133.329 282.456 132.991 282.642C132.658 282.828 132.395 283.098 132.202 283.455C132.009 283.811 131.912 284.242 131.912 284.75ZM139.93 290V281.273H141.271V290H139.93ZM140.612 279.818C140.351 279.818 140.125 279.729 139.936 279.551C139.75 279.373 139.658 279.159 139.658 278.909C139.658 278.659 139.75 278.445 139.936 278.267C140.125 278.089 140.351 278 140.612 278C140.874 278 141.097 278.089 141.283 278.267C141.472 278.445 141.567 278.659 141.567 278.909C141.567 279.159 141.472 279.373 141.283 279.551C141.097 279.729 140.874 279.818 140.612 279.818ZM145.068 284.75V290H143.727V281.273H145.023V282.636H145.136C145.341 282.193 145.652 281.837 146.068 281.568C146.485 281.295 147.023 281.159 147.682 281.159C148.273 281.159 148.79 281.28 149.233 281.523C149.676 281.761 150.021 282.125 150.267 282.614C150.513 283.098 150.636 283.712 150.636 284.455V290H149.295V284.545C149.295 283.86 149.117 283.326 148.761 282.943C148.405 282.557 147.917 282.364 147.295 282.364C146.867 282.364 146.485 282.456 146.148 282.642C145.814 282.828 145.551 283.098 145.358 283.455C145.165 283.811 145.068 284.242 145.068 284.75ZM156.609 293.455C155.962 293.455 155.405 293.371 154.939 293.205C154.473 293.042 154.085 292.826 153.774 292.557C153.467 292.292 153.223 292.008 153.041 291.705L154.109 290.955C154.231 291.114 154.384 291.295 154.57 291.5C154.755 291.708 155.009 291.888 155.331 292.04C155.657 292.195 156.083 292.273 156.609 292.273C157.314 292.273 157.895 292.102 158.354 291.761C158.812 291.42 159.041 290.886 159.041 290.159V288.386H158.928C158.829 288.545 158.689 288.742 158.507 288.977C158.329 289.208 158.071 289.415 157.734 289.597C157.401 289.775 156.95 289.864 156.382 289.864C155.678 289.864 155.045 289.697 154.484 289.364C153.928 289.03 153.486 288.545 153.161 287.909C152.839 287.273 152.678 286.5 152.678 285.591C152.678 284.697 152.835 283.919 153.149 283.256C153.464 282.589 153.901 282.074 154.462 281.71C155.022 281.343 155.67 281.159 156.405 281.159C156.973 281.159 157.424 281.254 157.757 281.443C158.094 281.629 158.352 281.841 158.53 282.08C158.712 282.314 158.852 282.508 158.95 282.659H159.087V281.273H160.382V290.25C160.382 291 160.212 291.61 159.871 292.08C159.534 292.553 159.079 292.9 158.507 293.119C157.939 293.343 157.306 293.455 156.609 293.455ZM156.564 288.659C157.102 288.659 157.556 288.536 157.928 288.29C158.299 288.044 158.581 287.689 158.774 287.227C158.967 286.765 159.064 286.212 159.064 285.568C159.064 284.939 158.969 284.384 158.78 283.903C158.59 283.422 158.31 283.045 157.939 282.773C157.568 282.5 157.109 282.364 156.564 282.364C155.996 282.364 155.522 282.508 155.143 282.795C154.768 283.083 154.486 283.47 154.297 283.955C154.111 284.439 154.018 284.977 154.018 285.568C154.018 286.174 154.113 286.71 154.303 287.176C154.496 287.638 154.78 288.002 155.155 288.267C155.534 288.528 156.003 288.659 156.564 288.659ZM169.905 290.205C169.352 290.205 168.85 290.1 168.399 289.892C167.948 289.68 167.59 289.375 167.325 288.977C167.06 288.576 166.928 288.091 166.928 287.523C166.928 287.023 167.026 286.617 167.223 286.307C167.42 285.992 167.683 285.746 168.013 285.568C168.342 285.39 168.706 285.258 169.104 285.17C169.505 285.08 169.909 285.008 170.314 284.955C170.844 284.886 171.274 284.835 171.604 284.801C171.937 284.763 172.179 284.701 172.331 284.614C172.486 284.527 172.564 284.375 172.564 284.159V284.114C172.564 283.553 172.411 283.117 172.104 282.807C171.801 282.496 171.34 282.341 170.723 282.341C170.083 282.341 169.581 282.481 169.217 282.761C168.854 283.042 168.598 283.341 168.45 283.659L167.178 283.205C167.405 282.674 167.708 282.261 168.087 281.966C168.469 281.667 168.886 281.458 169.337 281.341C169.791 281.22 170.238 281.159 170.678 281.159C170.958 281.159 171.28 281.193 171.643 281.261C172.011 281.326 172.365 281.46 172.706 281.665C173.051 281.869 173.337 282.178 173.564 282.591C173.791 283.004 173.905 283.557 173.905 284.25V290H172.564V288.818H172.496C172.405 289.008 172.253 289.21 172.041 289.426C171.829 289.642 171.547 289.826 171.195 289.977C170.842 290.129 170.412 290.205 169.905 290.205ZM170.109 289C170.64 289 171.087 288.896 171.45 288.688C171.818 288.479 172.094 288.21 172.28 287.881C172.469 287.551 172.564 287.205 172.564 286.841V285.614C172.507 285.682 172.382 285.744 172.189 285.801C172 285.854 171.78 285.902 171.53 285.943C171.284 285.981 171.043 286.015 170.808 286.045C170.577 286.072 170.39 286.095 170.246 286.114C169.897 286.159 169.571 286.233 169.268 286.335C168.969 286.434 168.727 286.583 168.541 286.784C168.359 286.981 168.268 287.25 168.268 287.591C168.268 288.057 168.441 288.409 168.786 288.648C169.134 288.883 169.575 289 170.109 289ZM177.693 278.364V290H176.352V278.364H177.693ZM183.808 290.182C182.967 290.182 182.242 289.996 181.632 289.625C181.026 289.25 180.558 288.727 180.229 288.057C179.903 287.383 179.74 286.598 179.74 285.705C179.74 284.811 179.903 284.023 180.229 283.341C180.558 282.655 181.017 282.121 181.604 281.739C182.195 281.352 182.884 281.159 183.672 281.159C184.126 281.159 184.575 281.235 185.018 281.386C185.462 281.538 185.865 281.784 186.229 282.125C186.592 282.462 186.882 282.909 187.098 283.466C187.314 284.023 187.422 284.708 187.422 285.523V286.091H180.695V284.932H186.058C186.058 284.439 185.96 284 185.763 283.614C185.57 283.227 185.293 282.922 184.933 282.699C184.577 282.475 184.157 282.364 183.672 282.364C183.138 282.364 182.676 282.496 182.286 282.761C181.899 283.023 181.602 283.364 181.393 283.784C181.185 284.205 181.081 284.655 181.081 285.136V285.909C181.081 286.568 181.195 287.127 181.422 287.585C181.653 288.04 181.973 288.386 182.382 288.625C182.791 288.86 183.267 288.977 183.808 288.977C184.161 288.977 184.479 288.928 184.763 288.83C185.051 288.727 185.299 288.576 185.507 288.375C185.715 288.17 185.876 287.917 185.99 287.614L187.286 287.977C187.149 288.417 186.92 288.803 186.598 289.136C186.276 289.466 185.878 289.723 185.405 289.909C184.931 290.091 184.399 290.182 183.808 290.182ZM189.462 290V281.273H190.757V282.591H190.848C191.007 282.159 191.295 281.809 191.712 281.54C192.128 281.271 192.598 281.136 193.121 281.136C193.219 281.136 193.342 281.138 193.49 281.142C193.638 281.146 193.75 281.152 193.825 281.159V282.523C193.78 282.511 193.676 282.494 193.513 282.472C193.354 282.445 193.185 282.432 193.007 282.432C192.583 282.432 192.204 282.521 191.871 282.699C191.541 282.873 191.28 283.116 191.087 283.426C190.897 283.733 190.803 284.083 190.803 284.477V290H189.462ZM199.757 281.273V282.409H195.234V281.273H199.757ZM196.553 279.182H197.893V287.5C197.893 287.879 197.948 288.163 198.058 288.352C198.172 288.538 198.316 288.663 198.49 288.727C198.668 288.788 198.856 288.818 199.053 288.818C199.2 288.818 199.321 288.811 199.416 288.795C199.511 288.777 199.587 288.761 199.643 288.75L199.916 289.955C199.825 289.989 199.698 290.023 199.536 290.057C199.373 290.095 199.166 290.114 198.916 290.114C198.537 290.114 198.166 290.032 197.803 289.869C197.443 289.706 197.143 289.458 196.905 289.125C196.67 288.792 196.553 288.371 196.553 287.864V279.182Z" fill="#B78300"/>
<path d="M293.757 289.243L299 284M304.243 278.757L299 284M299 284L293.757 278.757M299 284L304.243 289.243" stroke="#B78300" stroke-width="1.5" stroke-linecap="round" stroke-linejoin="round"/>
<rect x="60.5" y="324.5" width="258" height="39" rx="7.5" fill="#FFBA99"/>
<rect x="60.5" y="324.5" width="258" height="39" rx="7.5" stroke="#FF8B66"/>
<path d="M75 344.5L78 347.5L85 340.5" stroke="#B7000E" stroke-width="1.5" stroke-linecap="round" stroke-linejoin="round"/>
<path d="M80 354C85.5228 354 90 349.523 90 344C90 338.477 85.5228 334 80 334C74.4772 334 70 338.477 70 344C70 349.523 74.4772 354 80 354Z" stroke="#B7000E" stroke-width="1.5" stroke-linecap="round" stroke-linejoin="round"/>
<path d="M101.409 350V338.364H108.432V339.614H102.818V343.545H108.068V344.795H102.818V348.75H108.523V350H101.409ZM110.79 350V341.273H112.085V342.591H112.176C112.335 342.159 112.623 341.809 113.04 341.54C113.456 341.271 113.926 341.136 114.449 341.136C114.547 341.136 114.67 341.138 114.818 341.142C114.966 341.146 115.078 341.152 115.153 341.159V342.523C115.108 342.511 115.004 342.494 114.841 342.472C114.682 342.445 114.513 342.432 114.335 342.432C113.911 342.432 113.532 342.521 113.199 342.699C112.869 342.873 112.608 343.116 112.415 343.426C112.225 343.733 112.131 344.083 112.131 344.477V350H110.79ZM116.743 350V341.273H118.038V342.591H118.129C118.288 342.159 118.576 341.809 118.993 341.54C119.41 341.271 119.879 341.136 120.402 341.136C120.5 341.136 120.624 341.138 120.771 341.142C120.919 341.146 121.031 341.152 121.107 341.159V342.523C121.061 342.511 120.957 342.494 120.794 342.472C120.635 342.445 120.466 342.432 120.288 342.432C119.864 342.432 119.485 342.521 119.152 342.699C118.822 342.873 118.561 343.116 118.368 343.426C118.179 343.733 118.084 344.083 118.084 344.477V350H116.743ZM125.976 350.182C125.188 350.182 124.497 349.994 123.902 349.619C123.311 349.244 122.849 348.72 122.516 348.045C122.186 347.371 122.021 346.583 122.021 345.682C122.021 344.773 122.186 343.979 122.516 343.301C122.849 342.623 123.311 342.097 123.902 341.722C124.497 341.347 125.188 341.159 125.976 341.159C126.764 341.159 127.453 341.347 128.044 341.722C128.639 342.097 129.101 342.623 129.43 343.301C129.764 343.979 129.93 344.773 129.93 345.682C129.93 346.583 129.764 347.371 129.43 348.045C129.101 348.72 128.639 349.244 128.044 349.619C127.453 349.994 126.764 350.182 125.976 350.182ZM125.976 348.977C126.574 348.977 127.067 348.824 127.453 348.517C127.839 348.21 128.125 347.807 128.311 347.307C128.497 346.807 128.589 346.265 128.589 345.682C128.589 345.098 128.497 344.555 128.311 344.051C128.125 343.547 127.839 343.14 127.453 342.83C127.067 342.519 126.574 342.364 125.976 342.364C125.377 342.364 124.885 342.519 124.499 342.83C124.112 343.14 123.826 343.547 123.641 344.051C123.455 344.555 123.362 345.098 123.362 345.682C123.362 346.265 123.455 346.807 123.641 347.307C123.826 347.807 124.112 348.21 124.499 348.517C124.885 348.824 125.377 348.977 125.976 348.977ZM131.977 350V341.273H133.273V342.591H133.364C133.523 342.159 133.811 341.809 134.227 341.54C134.644 341.271 135.114 341.136 135.636 341.136C135.735 341.136 135.858 341.138 136.006 341.142C136.153 341.146 136.265 341.152 136.341 341.159V342.523C136.295 342.511 136.191 342.494 136.028 342.472C135.869 342.445 135.701 342.432 135.523 342.432C135.098 342.432 134.72 342.521 134.386 342.699C134.057 342.873 133.795 343.116 133.602 343.426C133.413 343.733 133.318 344.083 133.318 344.477V350H131.977ZM144.999 350.205C144.446 350.205 143.944 350.1 143.493 349.892C143.042 349.68 142.684 349.375 142.419 348.977C142.154 348.576 142.021 348.091 142.021 347.523C142.021 347.023 142.12 346.617 142.317 346.307C142.514 345.992 142.777 345.746 143.107 345.568C143.436 345.39 143.8 345.258 144.197 345.17C144.599 345.08 145.002 345.008 145.408 344.955C145.938 344.886 146.368 344.835 146.697 344.801C147.031 344.763 147.273 344.701 147.425 344.614C147.58 344.527 147.658 344.375 147.658 344.159V344.114C147.658 343.553 147.504 343.117 147.197 342.807C146.894 342.496 146.434 342.341 145.817 342.341C145.177 342.341 144.675 342.481 144.311 342.761C143.947 343.042 143.692 343.341 143.544 343.659L142.271 343.205C142.499 342.674 142.802 342.261 143.18 341.966C143.563 341.667 143.98 341.458 144.43 341.341C144.885 341.22 145.332 341.159 145.771 341.159C146.052 341.159 146.374 341.193 146.737 341.261C147.105 341.326 147.459 341.46 147.8 341.665C148.144 341.869 148.43 342.178 148.658 342.591C148.885 343.004 148.999 343.557 148.999 344.25V350H147.658V348.818H147.589C147.499 349.008 147.347 349.21 147.135 349.426C146.923 349.642 146.641 349.826 146.288 349.977C145.936 350.129 145.506 350.205 144.999 350.205ZM145.203 349C145.733 349 146.18 348.896 146.544 348.688C146.911 348.479 147.188 348.21 147.374 347.881C147.563 347.551 147.658 347.205 147.658 346.841V345.614C147.601 345.682 147.476 345.744 147.283 345.801C147.093 345.854 146.874 345.902 146.624 345.943C146.377 345.981 146.137 346.015 145.902 346.045C145.671 346.072 145.483 346.095 145.339 346.114C144.991 346.159 144.665 346.233 144.362 346.335C144.063 346.434 143.821 346.583 143.635 346.784C143.453 346.981 143.362 347.25 143.362 347.591C143.362 348.057 143.535 348.409 143.879 348.648C144.228 348.883 144.669 349 145.203 349ZM152.787 338.364V350H151.446V338.364H152.787ZM158.902 350.182C158.061 350.182 157.336 349.996 156.726 349.625C156.12 349.25 155.652 348.727 155.322 348.057C154.997 347.383 154.834 346.598 154.834 345.705C154.834 344.811 154.997 344.023 155.322 343.341C155.652 342.655 156.11 342.121 156.697 341.739C157.288 341.352 157.978 341.159 158.766 341.159C159.22 341.159 159.669 341.235 160.112 341.386C160.555 341.538 160.959 341.784 161.322 342.125C161.686 342.462 161.976 342.909 162.192 343.466C162.408 344.023 162.516 344.708 162.516 345.523V346.091H155.788V344.932H161.152C161.152 344.439 161.054 344 160.857 343.614C160.663 343.227 160.387 342.922 160.027 342.699C159.671 342.475 159.25 342.364 158.766 342.364C158.232 342.364 157.769 342.496 157.379 342.761C156.993 343.023 156.696 343.364 156.487 343.784C156.279 344.205 156.175 344.655 156.175 345.136V345.909C156.175 346.568 156.288 347.127 156.516 347.585C156.747 348.04 157.067 348.386 157.476 348.625C157.885 348.86 158.36 348.977 158.902 348.977C159.254 348.977 159.572 348.928 159.857 348.83C160.144 348.727 160.393 348.576 160.601 348.375C160.809 348.17 160.97 347.917 161.084 347.614L162.379 347.977C162.243 348.417 162.014 348.803 161.692 349.136C161.37 349.466 160.972 349.723 160.499 349.909C160.025 350.091 159.493 350.182 158.902 350.182ZM164.555 350V341.273H165.851V342.591H165.942C166.101 342.159 166.389 341.809 166.805 341.54C167.222 341.271 167.692 341.136 168.214 341.136C168.313 341.136 168.436 341.138 168.584 341.142C168.732 341.146 168.843 341.152 168.919 341.159V342.523C168.874 342.511 168.769 342.494 168.607 342.472C168.447 342.445 168.279 342.432 168.101 342.432C167.677 342.432 167.298 342.521 166.964 342.699C166.635 342.873 166.374 343.116 166.18 343.426C165.991 343.733 165.896 344.083 165.896 344.477V350H164.555ZM174.851 341.273V342.409H170.328V341.273H174.851ZM171.646 339.182H172.987V347.5C172.987 347.879 173.042 348.163 173.152 348.352C173.266 348.538 173.41 348.663 173.584 348.727C173.762 348.788 173.949 348.818 174.146 348.818C174.294 348.818 174.415 348.811 174.51 348.795C174.605 348.777 174.68 348.761 174.737 348.75L175.01 349.955C174.919 349.989 174.792 350.023 174.629 350.057C174.466 350.095 174.26 350.114 174.01 350.114C173.631 350.114 173.26 350.032 172.896 349.869C172.536 349.706 172.237 349.458 171.999 349.125C171.764 348.792 171.646 348.371 171.646 347.864V339.182Z" fill="#B7000E"/>
<path d="M293.757 349.243L299 344M304.243 338.757L299 344M299 344L293.757 338.757M299 344L304.243 349.243" stroke="#B7000E" stroke-width="1.5" stroke-linecap="round" stroke-linejoin="round"/>
<rect x="60.5" y="384.5" width="258" height="39" rx="7.5" fill="#545778"/>
<rect x="60.5" y="384.5" width="258" height="39" rx="7.5" stroke="#393E64"/>
<path d="M75 404.5L78 407.5L85 400.5" stroke="#E2E4F3" stroke-width="1.5" stroke-linecap="round" stroke-linejoin="round"/>
<path d="M80 414C85.5228 414 90 409.523 90 404C90 398.477 85.5228 394 80 394C74.4772 394 70 398.477 70 404C70 409.523 74.4772 414 80 414Z" stroke="#E2E4F3" stroke-width="1.5" stroke-linecap="round" stroke-linejoin="round"/>
<path d="M105 410H101.409V398.364H105.159C106.288 398.364 107.254 398.597 108.057 399.062C108.86 399.525 109.475 400.189 109.903 401.057C110.331 401.92 110.545 402.955 110.545 404.159C110.545 405.371 110.33 406.415 109.898 407.29C109.466 408.161 108.837 408.831 108.011 409.301C107.186 409.767 106.182 410 105 410ZM102.818 408.75H104.909C105.871 408.75 106.669 408.564 107.301 408.193C107.934 407.822 108.405 407.294 108.716 406.608C109.027 405.922 109.182 405.106 109.182 404.159C109.182 403.22 109.028 402.411 108.722 401.733C108.415 401.051 107.956 400.528 107.347 400.165C106.737 399.797 105.977 399.614 105.068 399.614H102.818V408.75ZM115.295 410.205C114.742 410.205 114.241 410.1 113.79 409.892C113.339 409.68 112.981 409.375 112.716 408.977C112.451 408.576 112.318 408.091 112.318 407.523C112.318 407.023 112.417 406.617 112.614 406.307C112.811 405.992 113.074 405.746 113.403 405.568C113.733 405.39 114.097 405.258 114.494 405.17C114.896 405.08 115.299 405.008 115.705 404.955C116.235 404.886 116.665 404.835 116.994 404.801C117.328 404.763 117.57 404.701 117.722 404.614C117.877 404.527 117.955 404.375 117.955 404.159V404.114C117.955 403.553 117.801 403.117 117.494 402.807C117.191 402.496 116.731 402.341 116.114 402.341C115.473 402.341 114.972 402.481 114.608 402.761C114.244 403.042 113.989 403.341 113.841 403.659L112.568 403.205C112.795 402.674 113.098 402.261 113.477 401.966C113.86 401.667 114.277 401.458 114.727 401.341C115.182 401.22 115.629 401.159 116.068 401.159C116.348 401.159 116.67 401.193 117.034 401.261C117.402 401.326 117.756 401.46 118.097 401.665C118.441 401.869 118.727 402.178 118.955 402.591C119.182 403.004 119.295 403.557 119.295 404.25V410H117.955V408.818H117.886C117.795 409.008 117.644 409.21 117.432 409.426C117.22 409.642 116.938 409.826 116.585 409.977C116.233 410.129 115.803 410.205 115.295 410.205ZM115.5 409C116.03 409 116.477 408.896 116.841 408.688C117.208 408.479 117.485 408.21 117.67 407.881C117.86 407.551 117.955 407.205 117.955 406.841V405.614C117.898 405.682 117.773 405.744 117.58 405.801C117.39 405.854 117.17 405.902 116.92 405.943C116.674 405.981 116.434 406.015 116.199 406.045C115.968 406.072 115.78 406.095 115.636 406.114C115.288 406.159 114.962 406.233 114.659 406.335C114.36 406.434 114.117 406.583 113.932 406.784C113.75 406.981 113.659 407.25 113.659 407.591C113.659 408.057 113.831 408.409 114.176 408.648C114.525 408.883 114.966 409 115.5 409ZM121.743 410V401.273H123.038V402.591H123.129C123.288 402.159 123.576 401.809 123.993 401.54C124.41 401.271 124.879 401.136 125.402 401.136C125.5 401.136 125.624 401.138 125.771 401.142C125.919 401.146 126.031 401.152 126.107 401.159V402.523C126.061 402.511 125.957 402.494 125.794 402.472C125.635 402.445 125.466 402.432 125.288 402.432C124.864 402.432 124.485 402.521 124.152 402.699C123.822 402.873 123.561 403.116 123.368 403.426C123.179 403.733 123.084 404.083 123.084 404.477V410H121.743ZM128.946 406.818L128.923 405.159H129.196L133.014 401.273H134.673L130.605 405.386H130.491L128.946 406.818ZM127.696 410V398.364H129.037V410H127.696ZM133.241 410L129.832 405.682L130.787 404.75L134.946 410H133.241ZM143.467 410.205C142.914 410.205 142.412 410.1 141.962 409.892C141.511 409.68 141.153 409.375 140.888 408.977C140.623 408.576 140.49 408.091 140.49 407.523C140.49 407.023 140.589 406.617 140.786 406.307C140.982 405.992 141.246 405.746 141.575 405.568C141.905 405.39 142.268 405.258 142.666 405.17C143.068 405.08 143.471 405.008 143.876 404.955C144.407 404.886 144.837 404.835 145.166 404.801C145.5 404.763 145.742 404.701 145.893 404.614C146.049 404.527 146.126 404.375 146.126 404.159V404.114C146.126 403.553 145.973 403.117 145.666 402.807C145.363 402.496 144.903 402.341 144.286 402.341C143.645 402.341 143.143 402.481 142.78 402.761C142.416 403.042 142.161 403.341 142.013 403.659L140.74 403.205C140.967 402.674 141.27 402.261 141.649 401.966C142.032 401.667 142.448 401.458 142.899 401.341C143.354 401.22 143.801 401.159 144.24 401.159C144.52 401.159 144.842 401.193 145.206 401.261C145.573 401.326 145.928 401.46 146.268 401.665C146.613 401.869 146.899 402.178 147.126 402.591C147.354 403.004 147.467 403.557 147.467 404.25V410H146.126V408.818H146.058C145.967 409.008 145.816 409.21 145.604 409.426C145.392 409.642 145.109 409.826 144.757 409.977C144.405 410.129 143.975 410.205 143.467 410.205ZM143.672 409C144.202 409 144.649 408.896 145.013 408.688C145.38 408.479 145.657 408.21 145.842 407.881C146.032 407.551 146.126 407.205 146.126 406.841V405.614C146.07 405.682 145.945 405.744 145.751 405.801C145.562 405.854 145.342 405.902 145.092 405.943C144.846 405.981 144.606 406.015 144.371 406.045C144.14 406.072 143.952 406.095 143.808 406.114C143.46 406.159 143.134 406.233 142.831 406.335C142.532 406.434 142.289 406.583 142.104 406.784C141.922 406.981 141.831 407.25 141.831 407.591C141.831 408.057 142.003 408.409 142.348 408.648C142.696 408.883 143.138 409 143.672 409ZM151.256 398.364V410H149.915V398.364H151.256ZM157.371 410.182C156.53 410.182 155.804 409.996 155.195 409.625C154.589 409.25 154.121 408.727 153.791 408.057C153.465 407.383 153.303 406.598 153.303 405.705C153.303 404.811 153.465 404.023 153.791 403.341C154.121 402.655 154.579 402.121 155.166 401.739C155.757 401.352 156.446 401.159 157.234 401.159C157.689 401.159 158.138 401.235 158.581 401.386C159.024 401.538 159.428 401.784 159.791 402.125C160.155 402.462 160.445 402.909 160.661 403.466C160.876 404.023 160.984 404.708 160.984 405.523V406.091H154.257V404.932H159.621C159.621 404.439 159.522 404 159.325 403.614C159.132 403.227 158.856 402.922 158.496 402.699C158.14 402.475 157.719 402.364 157.234 402.364C156.7 402.364 156.238 402.496 155.848 402.761C155.462 403.023 155.164 403.364 154.956 403.784C154.748 404.205 154.643 404.655 154.643 405.136V405.909C154.643 406.568 154.757 407.127 154.984 407.585C155.215 408.04 155.536 408.386 155.945 408.625C156.354 408.86 156.829 408.977 157.371 408.977C157.723 408.977 158.041 408.928 158.325 408.83C158.613 408.727 158.861 408.576 159.07 408.375C159.278 408.17 159.439 407.917 159.553 407.614L160.848 407.977C160.712 408.417 160.482 408.803 160.161 409.136C159.839 409.466 159.441 409.723 158.967 409.909C158.494 410.091 157.962 410.182 157.371 410.182ZM163.024 410V401.273H164.32V402.591H164.411C164.57 402.159 164.857 401.809 165.274 401.54C165.691 401.271 166.161 401.136 166.683 401.136C166.782 401.136 166.905 401.138 167.053 401.142C167.2 401.146 167.312 401.152 167.388 401.159V402.523C167.342 402.511 167.238 402.494 167.075 402.472C166.916 402.445 166.748 402.432 166.57 402.432C166.145 402.432 165.767 402.521 165.433 402.699C165.104 402.873 164.842 403.116 164.649 403.426C164.46 403.733 164.365 404.083 164.365 404.477V410H163.024ZM173.32 401.273V402.409H168.797V401.273H173.32ZM170.115 399.182H171.456V407.5C171.456 407.879 171.511 408.163 171.621 408.352C171.734 408.538 171.878 408.663 172.053 408.727C172.231 408.788 172.418 408.818 172.615 408.818C172.763 408.818 172.884 408.811 172.979 408.795C173.073 408.777 173.149 408.761 173.206 408.75L173.479 409.955C173.388 409.989 173.261 410.023 173.098 410.057C172.935 410.095 172.729 410.114 172.479 410.114C172.1 410.114 171.729 410.032 171.365 409.869C171.005 409.706 170.706 409.458 170.467 409.125C170.232 408.792 170.115 408.371 170.115 407.864V399.182Z" fill="#E2E4F3"/>
<path d="M293.757 409.243L299 404M304.243 398.757L299 404M299 404L293.757 398.757M299 404L304.243 409.243" stroke="#E2E4F3" stroke-width="1.5" stroke-linecap="round" stroke-linejoin="round"/>
<rect x="60.5" y="444.5" width="258" height="39" rx="7.5" fill="#F0F1F9"/>
<rect x="60.5" y="444.5" width="258" height="39" rx="7.5" stroke="#C4C8DC"/>
<path d="M75 464.5L78 467.5L85 460.5" stroke="#393E64" stroke-width="1.5" stroke-linecap="round" stroke-linejoin="round"/>
<path d="M80 474C85.5228 474 90 469.523 90 464C90 458.477 85.5228 454 80 454C74.4772 454 70 458.477 70 464C70 469.523 74.4772 474 80 474Z" stroke="#393E64" stroke-width="1.5" stroke-linecap="round" stroke-linejoin="round"/>
<path d="M101.409 470V458.364H102.818V468.75H108.227V470H101.409ZM110.227 470V461.273H111.568V470H110.227ZM110.909 459.818C110.648 459.818 110.422 459.729 110.233 459.551C110.047 459.373 109.955 459.159 109.955 458.909C109.955 458.659 110.047 458.445 110.233 458.267C110.422 458.089 110.648 458 110.909 458C111.17 458 111.394 458.089 111.58 458.267C111.769 458.445 111.864 458.659 111.864 458.909C111.864 459.159 111.769 459.373 111.58 459.551C111.394 459.729 111.17 459.818 110.909 459.818ZM117.547 473.455C116.899 473.455 116.342 473.371 115.876 473.205C115.411 473.042 115.022 472.826 114.712 472.557C114.405 472.292 114.161 472.008 113.979 471.705L115.047 470.955C115.168 471.114 115.321 471.295 115.507 471.5C115.693 471.708 115.946 471.888 116.268 472.04C116.594 472.195 117.02 472.273 117.547 472.273C118.251 472.273 118.833 472.102 119.291 471.761C119.75 471.42 119.979 470.886 119.979 470.159V468.386H119.865C119.767 468.545 119.626 468.742 119.445 468.977C119.267 469.208 119.009 469.415 118.672 469.597C118.339 469.775 117.888 469.864 117.32 469.864C116.615 469.864 115.982 469.697 115.422 469.364C114.865 469.03 114.424 468.545 114.098 467.909C113.776 467.273 113.615 466.5 113.615 465.591C113.615 464.697 113.772 463.919 114.087 463.256C114.401 462.589 114.839 462.074 115.399 461.71C115.96 461.343 116.607 461.159 117.342 461.159C117.911 461.159 118.361 461.254 118.695 461.443C119.032 461.629 119.289 461.841 119.467 462.08C119.649 462.314 119.789 462.508 119.888 462.659H120.024V461.273H121.32V470.25C121.32 471 121.149 471.61 120.808 472.08C120.471 472.553 120.017 472.9 119.445 473.119C118.876 473.343 118.244 473.455 117.547 473.455ZM117.501 468.659C118.039 468.659 118.494 468.536 118.865 468.29C119.236 468.044 119.518 467.689 119.712 467.227C119.905 466.765 120.001 466.212 120.001 465.568C120.001 464.939 119.907 464.384 119.717 463.903C119.528 463.422 119.248 463.045 118.876 462.773C118.505 462.5 118.047 462.364 117.501 462.364C116.933 462.364 116.46 462.508 116.081 462.795C115.706 463.083 115.424 463.47 115.234 463.955C115.049 464.439 114.956 464.977 114.956 465.568C114.956 466.174 115.051 466.71 115.24 467.176C115.433 467.638 115.717 468.002 116.092 468.267C116.471 468.528 116.941 468.659 117.501 468.659ZM125.115 464.75V470H123.774V458.364H125.115V462.636H125.229C125.433 462.186 125.74 461.828 126.149 461.562C126.562 461.294 127.111 461.159 127.797 461.159C128.392 461.159 128.912 461.278 129.359 461.517C129.806 461.752 130.153 462.114 130.399 462.602C130.649 463.087 130.774 463.705 130.774 464.455V470H129.433V464.545C129.433 463.852 129.253 463.316 128.893 462.938C128.537 462.555 128.043 462.364 127.411 462.364C126.971 462.364 126.577 462.456 126.229 462.642C125.884 462.828 125.611 463.098 125.411 463.455C125.214 463.811 125.115 464.242 125.115 464.75ZM137.023 461.273V462.409H132.5V461.273H137.023ZM133.818 459.182H135.159V467.5C135.159 467.879 135.214 468.163 135.324 468.352C135.438 468.538 135.581 468.663 135.756 468.727C135.934 468.788 136.121 468.818 136.318 468.818C136.466 468.818 136.587 468.811 136.682 468.795C136.777 468.777 136.852 468.761 136.909 468.75L137.182 469.955C137.091 469.989 136.964 470.023 136.801 470.057C136.638 470.095 136.432 470.114 136.182 470.114C135.803 470.114 135.432 470.032 135.068 469.869C134.708 469.706 134.409 469.458 134.17 469.125C133.936 468.792 133.818 468.371 133.818 467.864V459.182ZM146.108 470.205C145.555 470.205 145.053 470.1 144.602 469.892C144.152 469.68 143.794 469.375 143.528 468.977C143.263 468.576 143.131 468.091 143.131 467.523C143.131 467.023 143.229 466.617 143.426 466.307C143.623 465.992 143.886 465.746 144.216 465.568C144.545 465.39 144.909 465.258 145.307 465.17C145.708 465.08 146.112 465.008 146.517 464.955C147.047 464.886 147.477 464.835 147.807 464.801C148.14 464.763 148.383 464.701 148.534 464.614C148.689 464.527 148.767 464.375 148.767 464.159V464.114C148.767 463.553 148.614 463.117 148.307 462.807C148.004 462.496 147.544 462.341 146.926 462.341C146.286 462.341 145.784 462.481 145.42 462.761C145.057 463.042 144.801 463.341 144.653 463.659L143.381 463.205C143.608 462.674 143.911 462.261 144.29 461.966C144.672 461.667 145.089 461.458 145.54 461.341C145.994 461.22 146.441 461.159 146.881 461.159C147.161 461.159 147.483 461.193 147.847 461.261C148.214 461.326 148.568 461.46 148.909 461.665C149.254 461.869 149.54 462.178 149.767 462.591C149.994 463.004 150.108 463.557 150.108 464.25V470H148.767V468.818H148.699C148.608 469.008 148.456 469.21 148.244 469.426C148.032 469.642 147.75 469.826 147.398 469.977C147.045 470.129 146.616 470.205 146.108 470.205ZM146.312 469C146.843 469 147.29 468.896 147.653 468.688C148.021 468.479 148.297 468.21 148.483 467.881C148.672 467.551 148.767 467.205 148.767 466.841V465.614C148.71 465.682 148.585 465.744 148.392 465.801C148.203 465.854 147.983 465.902 147.733 465.943C147.487 465.981 147.246 466.015 147.011 466.045C146.78 466.072 146.593 466.095 146.449 466.114C146.1 466.159 145.775 466.233 145.472 466.335C145.172 466.434 144.93 466.583 144.744 466.784C144.563 466.981 144.472 467.25 144.472 467.591C144.472 468.057 144.644 468.409 144.989 468.648C145.337 468.883 145.778 469 146.312 469ZM153.896 458.364V470H152.555V458.364H153.896ZM160.011 470.182C159.17 470.182 158.445 469.996 157.835 469.625C157.229 469.25 156.761 468.727 156.432 468.057C156.106 467.383 155.943 466.598 155.943 465.705C155.943 464.811 156.106 464.023 156.432 463.341C156.761 462.655 157.22 462.121 157.807 461.739C158.398 461.352 159.087 461.159 159.875 461.159C160.33 461.159 160.778 461.235 161.222 461.386C161.665 461.538 162.068 461.784 162.432 462.125C162.795 462.462 163.085 462.909 163.301 463.466C163.517 464.023 163.625 464.708 163.625 465.523V466.091H156.898V464.932H162.261C162.261 464.439 162.163 464 161.966 463.614C161.773 463.227 161.496 462.922 161.136 462.699C160.78 462.475 160.36 462.364 159.875 462.364C159.341 462.364 158.879 462.496 158.489 462.761C158.102 463.023 157.805 463.364 157.597 463.784C157.388 464.205 157.284 464.655 157.284 465.136V465.909C157.284 466.568 157.398 467.127 157.625 467.585C157.856 468.04 158.176 468.386 158.585 468.625C158.994 468.86 159.47 468.977 160.011 468.977C160.364 468.977 160.682 468.928 160.966 468.83C161.254 468.727 161.502 468.576 161.71 468.375C161.919 468.17 162.08 467.917 162.193 467.614L163.489 467.977C163.352 468.417 163.123 468.803 162.801 469.136C162.479 469.466 162.081 469.723 161.608 469.909C161.134 470.091 160.602 470.182 160.011 470.182ZM165.665 470V461.273H166.96V462.591H167.051C167.21 462.159 167.498 461.809 167.915 461.54C168.331 461.271 168.801 461.136 169.324 461.136C169.422 461.136 169.545 461.138 169.693 461.142C169.841 461.146 169.953 461.152 170.028 461.159V462.523C169.983 462.511 169.879 462.494 169.716 462.472C169.557 462.445 169.388 462.432 169.21 462.432C168.786 462.432 168.407 462.521 168.074 462.699C167.744 462.873 167.483 463.116 167.29 463.426C167.1 463.733 167.006 464.083 167.006 464.477V470H165.665ZM175.96 461.273V462.409H171.438V461.273H175.96ZM172.756 459.182H174.097V467.5C174.097 467.879 174.152 468.163 174.261 468.352C174.375 468.538 174.519 468.663 174.693 468.727C174.871 468.788 175.059 468.818 175.256 468.818C175.403 468.818 175.525 468.811 175.619 468.795C175.714 468.777 175.79 468.761 175.847 468.75L176.119 469.955C176.028 469.989 175.902 470.023 175.739 470.057C175.576 470.095 175.369 470.114 175.119 470.114C174.741 470.114 174.369 470.032 174.006 469.869C173.646 469.706 173.347 469.458 173.108 469.125C172.873 468.792 172.756 468.371 172.756 467.864V459.182Z" fill="#393E64"/>
<path d="M293.757 469.243L299 464M304.243 458.757L299 464M299 464L293.757 458.757M299 464L304.243 469.243" stroke="#393E64" stroke-width="1.5" stroke-linecap="round" stroke-linejoin="round"/>
<rect x="60.5" y="504.5" width="258" height="39" rx="7.5" fill="#9ED0FD"/>
<rect x="60.5" y="504.5" width="258" height="39" rx="7.5" stroke="#6DB1FA"/>
<path d="M75 524.5L78 527.5L85 520.5" stroke="#073CAD" stroke-width="1.5" stroke-linecap="round" stroke-linejoin="round"/>
<path d="M80 534C85.5228 534 90 529.523 90 524C90 518.477 85.5228 514 80 514C74.4772 514 70 518.477 70 524C70 529.523 74.4772 534 80 534Z" stroke="#073CAD" stroke-width="1.5" stroke-linecap="round" stroke-linejoin="round"/>
<path d="M101.409 530V518.364H105.341C106.254 518.364 107 518.528 107.58 518.858C108.163 519.184 108.595 519.625 108.875 520.182C109.155 520.739 109.295 521.36 109.295 522.045C109.295 522.731 109.155 523.354 108.875 523.915C108.598 524.475 108.17 524.922 107.591 525.256C107.011 525.585 106.269 525.75 105.364 525.75H102.545V524.5H105.318C105.943 524.5 106.445 524.392 106.824 524.176C107.203 523.96 107.477 523.669 107.648 523.301C107.822 522.93 107.909 522.511 107.909 522.045C107.909 521.58 107.822 521.163 107.648 520.795C107.477 520.428 107.201 520.14 106.818 519.932C106.436 519.72 105.928 519.614 105.295 519.614H102.818V530H101.409ZM111.384 530V521.273H112.679V522.591H112.77C112.929 522.159 113.217 521.809 113.634 521.54C114.05 521.271 114.52 521.136 115.043 521.136C115.141 521.136 115.264 521.138 115.412 521.142C115.56 521.146 115.671 521.152 115.747 521.159V522.523C115.702 522.511 115.598 522.494 115.435 522.472C115.276 522.445 115.107 522.432 114.929 522.432C114.505 522.432 114.126 522.521 113.793 522.699C113.463 522.873 113.202 523.116 113.009 523.426C112.819 523.733 112.724 524.083 112.724 524.477V530H111.384ZM117.337 530V521.273H118.678V530H117.337ZM118.018 519.818C117.757 519.818 117.532 519.729 117.342 519.551C117.157 519.373 117.064 519.159 117.064 518.909C117.064 518.659 117.157 518.445 117.342 518.267C117.532 518.089 117.757 518 118.018 518C118.28 518 118.503 518.089 118.689 518.267C118.878 518.445 118.973 518.659 118.973 518.909C118.973 519.159 118.878 519.373 118.689 519.551C118.503 519.729 118.28 519.818 118.018 519.818ZM121.134 530V521.273H122.429V522.636H122.543C122.724 522.17 123.018 521.809 123.423 521.551C123.829 521.29 124.315 521.159 124.884 521.159C125.459 521.159 125.938 521.29 126.321 521.551C126.707 521.809 127.009 522.17 127.224 522.636H127.315C127.539 522.186 127.874 521.828 128.321 521.562C128.768 521.294 129.304 521.159 129.929 521.159C130.709 521.159 131.348 521.403 131.844 521.892C132.34 522.377 132.588 523.133 132.588 524.159V530H131.247V524.159C131.247 523.515 131.071 523.055 130.719 522.778C130.366 522.502 129.952 522.364 129.474 522.364C128.861 522.364 128.385 522.549 128.048 522.92C127.711 523.288 127.543 523.754 127.543 524.318V530H126.179V524.023C126.179 523.527 126.018 523.127 125.696 522.824C125.374 522.517 124.959 522.364 124.452 522.364C124.103 522.364 123.777 522.456 123.474 522.642C123.175 522.828 122.933 523.085 122.747 523.415C122.565 523.741 122.474 524.117 122.474 524.545V530H121.134ZM137.608 530.205C137.055 530.205 136.553 530.1 136.102 529.892C135.652 529.68 135.294 529.375 135.028 528.977C134.763 528.576 134.631 528.091 134.631 527.523C134.631 527.023 134.729 526.617 134.926 526.307C135.123 525.992 135.386 525.746 135.716 525.568C136.045 525.39 136.409 525.258 136.807 525.17C137.208 525.08 137.612 525.008 138.017 524.955C138.547 524.886 138.977 524.835 139.307 524.801C139.64 524.763 139.883 524.701 140.034 524.614C140.189 524.527 140.267 524.375 140.267 524.159V524.114C140.267 523.553 140.114 523.117 139.807 522.807C139.504 522.496 139.044 522.341 138.426 522.341C137.786 522.341 137.284 522.481 136.92 522.761C136.557 523.042 136.301 523.341 136.153 523.659L134.881 523.205C135.108 522.674 135.411 522.261 135.79 521.966C136.172 521.667 136.589 521.458 137.04 521.341C137.494 521.22 137.941 521.159 138.381 521.159C138.661 521.159 138.983 521.193 139.347 521.261C139.714 521.326 140.068 521.46 140.409 521.665C140.754 521.869 141.04 522.178 141.267 522.591C141.494 523.004 141.608 523.557 141.608 524.25V530H140.267V528.818H140.199C140.108 529.008 139.956 529.21 139.744 529.426C139.532 529.642 139.25 529.826 138.898 529.977C138.545 530.129 138.116 530.205 137.608 530.205ZM137.812 529C138.343 529 138.79 528.896 139.153 528.688C139.521 528.479 139.797 528.21 139.983 527.881C140.172 527.551 140.267 527.205 140.267 526.841V525.614C140.21 525.682 140.085 525.744 139.892 525.801C139.703 525.854 139.483 525.902 139.233 525.943C138.987 525.981 138.746 526.015 138.511 526.045C138.28 526.072 138.093 526.095 137.949 526.114C137.6 526.159 137.275 526.233 136.972 526.335C136.672 526.434 136.43 526.583 136.244 526.784C136.063 526.981 135.972 527.25 135.972 527.591C135.972 528.057 136.144 528.409 136.489 528.648C136.837 528.883 137.278 529 137.812 529ZM144.055 530V521.273H145.351V522.591H145.442C145.601 522.159 145.889 521.809 146.305 521.54C146.722 521.271 147.192 521.136 147.714 521.136C147.813 521.136 147.936 521.138 148.084 521.142C148.232 521.146 148.343 521.152 148.419 521.159V522.523C148.374 522.511 148.269 522.494 148.107 522.472C147.947 522.445 147.779 522.432 147.601 522.432C147.177 522.432 146.798 522.521 146.464 522.699C146.135 522.873 145.874 523.116 145.68 523.426C145.491 523.733 145.396 524.083 145.396 524.477V530H144.055ZM151.138 533.273C150.911 533.273 150.708 533.254 150.53 533.216C150.352 533.182 150.229 533.148 150.161 533.114L150.501 531.932C150.827 532.015 151.115 532.045 151.365 532.023C151.615 532 151.837 531.888 152.03 531.688C152.227 531.491 152.407 531.17 152.57 530.727L152.82 530.045L149.592 521.273H151.047L153.456 528.227H153.547L155.956 521.273H157.411L153.706 531.273C153.539 531.723 153.333 532.097 153.087 532.392C152.84 532.691 152.554 532.913 152.229 533.057C151.907 533.201 151.543 533.273 151.138 533.273ZM166.249 530.205C165.696 530.205 165.194 530.1 164.743 529.892C164.292 529.68 163.934 529.375 163.669 528.977C163.404 528.576 163.271 528.091 163.271 527.523C163.271 527.023 163.37 526.617 163.567 526.307C163.764 525.992 164.027 525.746 164.357 525.568C164.686 525.39 165.05 525.258 165.447 525.17C165.849 525.08 166.252 525.008 166.658 524.955C167.188 524.886 167.618 524.835 167.947 524.801C168.281 524.763 168.523 524.701 168.675 524.614C168.83 524.527 168.908 524.375 168.908 524.159V524.114C168.908 523.553 168.754 523.117 168.447 522.807C168.144 522.496 167.684 522.341 167.067 522.341C166.427 522.341 165.925 522.481 165.561 522.761C165.197 523.042 164.942 523.341 164.794 523.659L163.521 523.205C163.749 522.674 164.052 522.261 164.43 521.966C164.813 521.667 165.23 521.458 165.68 521.341C166.135 521.22 166.582 521.159 167.021 521.159C167.302 521.159 167.624 521.193 167.987 521.261C168.355 521.326 168.709 521.46 169.05 521.665C169.394 521.869 169.68 522.178 169.908 522.591C170.135 523.004 170.249 523.557 170.249 524.25V530H168.908V528.818H168.839C168.749 529.008 168.597 529.21 168.385 529.426C168.173 529.642 167.891 529.826 167.538 529.977C167.186 530.129 166.756 530.205 166.249 530.205ZM166.453 529C166.983 529 167.43 528.896 167.794 528.688C168.161 528.479 168.438 528.21 168.624 527.881C168.813 527.551 168.908 527.205 168.908 526.841V525.614C168.851 525.682 168.726 525.744 168.533 525.801C168.343 525.854 168.124 525.902 167.874 525.943C167.627 525.981 167.387 526.015 167.152 526.045C166.921 526.072 166.733 526.095 166.589 526.114C166.241 526.159 165.915 526.233 165.612 526.335C165.313 526.434 165.071 526.583 164.885 526.784C164.703 526.981 164.612 527.25 164.612 527.591C164.612 528.057 164.785 528.409 165.129 528.648C165.478 528.883 165.919 529 166.453 529ZM174.037 518.364V530H172.696V518.364H174.037ZM180.152 530.182C179.311 530.182 178.586 529.996 177.976 529.625C177.37 529.25 176.902 528.727 176.572 528.057C176.247 527.383 176.084 526.598 176.084 525.705C176.084 524.811 176.247 524.023 176.572 523.341C176.902 522.655 177.36 522.121 177.947 521.739C178.538 521.352 179.228 521.159 180.016 521.159C180.47 521.159 180.919 521.235 181.362 521.386C181.805 521.538 182.209 521.784 182.572 522.125C182.936 522.462 183.226 522.909 183.442 523.466C183.658 524.023 183.766 524.708 183.766 525.523V526.091H177.038V524.932H182.402C182.402 524.439 182.304 524 182.107 523.614C181.913 523.227 181.637 522.922 181.277 522.699C180.921 522.475 180.5 522.364 180.016 522.364C179.482 522.364 179.019 522.496 178.629 522.761C178.243 523.023 177.946 523.364 177.737 523.784C177.529 524.205 177.425 524.655 177.425 525.136V525.909C177.425 526.568 177.538 527.127 177.766 527.585C177.997 528.04 178.317 528.386 178.726 528.625C179.135 528.86 179.61 528.977 180.152 528.977C180.504 528.977 180.822 528.928 181.107 528.83C181.394 528.727 181.643 528.576 181.851 528.375C182.059 528.17 182.22 527.917 182.334 527.614L183.629 527.977C183.493 528.417 183.264 528.803 182.942 529.136C182.62 529.466 182.222 529.723 181.749 529.909C181.275 530.091 180.743 530.182 180.152 530.182ZM185.805 530V521.273H187.101V522.591H187.192C187.351 522.159 187.639 521.809 188.055 521.54C188.472 521.271 188.942 521.136 189.464 521.136C189.563 521.136 189.686 521.138 189.834 521.142C189.982 521.146 190.093 521.152 190.169 521.159V522.523C190.124 522.511 190.019 522.494 189.857 522.472C189.697 522.445 189.529 522.432 189.351 522.432C188.927 522.432 188.548 522.521 188.214 522.699C187.885 522.873 187.624 523.116 187.43 523.426C187.241 523.733 187.146 524.083 187.146 524.477V530H185.805ZM196.101 521.273V522.409H191.578V521.273H196.101ZM192.896 519.182H194.237V527.5C194.237 527.879 194.292 528.163 194.402 528.352C194.516 528.538 194.66 528.663 194.834 528.727C195.012 528.788 195.199 528.818 195.396 528.818C195.544 528.818 195.665 528.811 195.76 528.795C195.855 528.777 195.93 528.761 195.987 528.75L196.26 529.955C196.169 529.989 196.042 530.023 195.879 530.057C195.716 530.095 195.51 530.114 195.26 530.114C194.881 530.114 194.51 530.032 194.146 529.869C193.786 529.706 193.487 529.458 193.249 529.125C193.014 528.792 192.896 528.371 192.896 527.864V519.182Z" fill="#073CAD"/>
<path d="M293.757 529.243L299 524M304.243 518.757L299 524M299 524L293.757 518.757M299 524L304.243 529.243" stroke="#073CAD" stroke-width="1.5" stroke-linecap="round" stroke-linejoin="round"/>
<rect x="60.5" y="564.5" width="258" height="39" rx="7.5" fill="#E2E4F3"/>
<rect x="60.5" y="564.5" width="258" height="39" rx="7.5" stroke="#C4C8DC"/>
<path d="M75 584.5L78 587.5L85 580.5" stroke="#393E64" stroke-width="1.5" stroke-linecap="round" stroke-linejoin="round"/>
<path d="M80 594C85.5228 594 90 589.523 90 584C90 578.477 85.5228 574 80 574C74.4772 574 70 578.477 70 584C70 589.523 74.4772 594 80 594Z" stroke="#393E64" stroke-width="1.5" stroke-linecap="round" stroke-linejoin="round"/>
<path d="M107.773 581.273C107.705 580.697 107.428 580.25 106.943 579.932C106.458 579.614 105.864 579.455 105.159 579.455C104.644 579.455 104.193 579.538 103.807 579.705C103.424 579.871 103.125 580.1 102.909 580.392C102.697 580.684 102.591 581.015 102.591 581.386C102.591 581.697 102.665 581.964 102.812 582.188C102.964 582.407 103.157 582.591 103.392 582.739C103.627 582.883 103.873 583.002 104.131 583.097C104.388 583.187 104.625 583.261 104.841 583.318L106.023 583.636C106.326 583.716 106.663 583.826 107.034 583.966C107.409 584.106 107.767 584.297 108.108 584.54C108.453 584.778 108.737 585.085 108.96 585.46C109.184 585.835 109.295 586.295 109.295 586.841C109.295 587.47 109.131 588.038 108.801 588.545C108.475 589.053 107.998 589.456 107.369 589.756C106.744 590.055 105.985 590.205 105.091 590.205C104.258 590.205 103.536 590.07 102.926 589.801C102.32 589.532 101.843 589.157 101.494 588.676C101.15 588.195 100.955 587.636 100.909 587H102.364C102.402 587.439 102.549 587.803 102.807 588.091C103.068 588.375 103.398 588.587 103.795 588.727C104.197 588.864 104.629 588.932 105.091 588.932C105.629 588.932 106.112 588.845 106.54 588.67C106.968 588.492 107.307 588.246 107.557 587.932C107.807 587.614 107.932 587.242 107.932 586.818C107.932 586.432 107.824 586.117 107.608 585.875C107.392 585.633 107.108 585.436 106.756 585.284C106.403 585.133 106.023 585 105.614 584.886L104.182 584.477C103.273 584.216 102.553 583.843 102.023 583.358C101.492 582.873 101.227 582.239 101.227 581.455C101.227 580.803 101.403 580.235 101.756 579.75C102.112 579.261 102.589 578.883 103.188 578.614C103.79 578.341 104.462 578.205 105.205 578.205C105.955 578.205 106.621 578.339 107.205 578.608C107.788 578.873 108.25 579.237 108.591 579.699C108.936 580.161 109.117 580.686 109.136 581.273H107.773ZM115.089 590.182C114.249 590.182 113.523 589.996 112.913 589.625C112.307 589.25 111.839 588.727 111.51 588.057C111.184 587.383 111.021 586.598 111.021 585.705C111.021 584.811 111.184 584.023 111.51 583.341C111.839 582.655 112.298 582.121 112.885 581.739C113.476 581.352 114.165 581.159 114.953 581.159C115.408 581.159 115.857 581.235 116.3 581.386C116.743 581.538 117.146 581.784 117.51 582.125C117.874 582.462 118.163 582.909 118.379 583.466C118.595 584.023 118.703 584.708 118.703 585.523V586.091H111.976V584.932H117.339C117.339 584.439 117.241 584 117.044 583.614C116.851 583.227 116.574 582.922 116.214 582.699C115.858 582.475 115.438 582.364 114.953 582.364C114.419 582.364 113.957 582.496 113.567 582.761C113.18 583.023 112.883 583.364 112.675 583.784C112.466 584.205 112.362 584.655 112.362 585.136V585.909C112.362 586.568 112.476 587.127 112.703 587.585C112.934 588.04 113.254 588.386 113.663 588.625C114.072 588.86 114.548 588.977 115.089 588.977C115.442 588.977 115.76 588.928 116.044 588.83C116.332 588.727 116.58 588.576 116.788 588.375C116.997 588.17 117.158 587.917 117.271 587.614L118.567 587.977C118.43 588.417 118.201 588.803 117.879 589.136C117.557 589.466 117.16 589.723 116.686 589.909C116.213 590.091 115.68 590.182 115.089 590.182ZM124.288 590.182C123.47 590.182 122.766 589.989 122.175 589.602C121.584 589.216 121.129 588.684 120.811 588.006C120.493 587.328 120.334 586.553 120.334 585.682C120.334 584.795 120.497 584.013 120.822 583.335C121.152 582.653 121.61 582.121 122.197 581.739C122.788 581.352 123.478 581.159 124.266 581.159C124.879 581.159 125.432 581.273 125.925 581.5C126.417 581.727 126.821 582.045 127.135 582.455C127.449 582.864 127.644 583.341 127.72 583.886H126.379C126.277 583.489 126.05 583.136 125.697 582.83C125.349 582.519 124.879 582.364 124.288 582.364C123.766 582.364 123.307 582.5 122.913 582.773C122.523 583.042 122.218 583.422 121.999 583.915C121.783 584.403 121.675 584.977 121.675 585.636C121.675 586.311 121.781 586.898 121.993 587.398C122.209 587.898 122.512 588.286 122.902 588.562C123.296 588.839 123.758 588.977 124.288 588.977C124.637 588.977 124.953 588.917 125.237 588.795C125.521 588.674 125.762 588.5 125.959 588.273C126.156 588.045 126.296 587.773 126.379 587.455H127.72C127.644 587.97 127.457 588.434 127.158 588.847C126.862 589.256 126.47 589.581 125.982 589.824C125.497 590.062 124.932 590.182 124.288 590.182ZM133.226 590.182C132.438 590.182 131.747 589.994 131.152 589.619C130.561 589.244 130.099 588.72 129.766 588.045C129.436 587.371 129.271 586.583 129.271 585.682C129.271 584.773 129.436 583.979 129.766 583.301C130.099 582.623 130.561 582.097 131.152 581.722C131.747 581.347 132.438 581.159 133.226 581.159C134.014 581.159 134.703 581.347 135.294 581.722C135.889 582.097 136.351 582.623 136.68 583.301C137.014 583.979 137.18 584.773 137.18 585.682C137.18 586.583 137.014 587.371 136.68 588.045C136.351 588.72 135.889 589.244 135.294 589.619C134.703 589.994 134.014 590.182 133.226 590.182ZM133.226 588.977C133.824 588.977 134.317 588.824 134.703 588.517C135.089 588.21 135.375 587.807 135.561 587.307C135.747 586.807 135.839 586.265 135.839 585.682C135.839 585.098 135.747 584.555 135.561 584.051C135.375 583.547 135.089 583.14 134.703 582.83C134.317 582.519 133.824 582.364 133.226 582.364C132.627 582.364 132.135 582.519 131.749 582.83C131.362 583.14 131.076 583.547 130.891 584.051C130.705 584.555 130.612 585.098 130.612 585.682C130.612 586.265 130.705 586.807 130.891 587.307C131.076 587.807 131.362 588.21 131.749 588.517C132.135 588.824 132.627 588.977 133.226 588.977ZM140.568 584.75V590H139.227V581.273H140.523V582.636H140.636C140.841 582.193 141.152 581.837 141.568 581.568C141.985 581.295 142.523 581.159 143.182 581.159C143.773 581.159 144.29 581.28 144.733 581.523C145.176 581.761 145.521 582.125 145.767 582.614C146.013 583.098 146.136 583.712 146.136 584.455V590H144.795V584.545C144.795 583.86 144.617 583.326 144.261 582.943C143.905 582.557 143.417 582.364 142.795 582.364C142.367 582.364 141.985 582.456 141.648 582.642C141.314 582.828 141.051 583.098 140.858 583.455C140.665 583.811 140.568 584.242 140.568 584.75ZM151.882 590.182C151.155 590.182 150.513 589.998 149.956 589.631C149.399 589.259 148.964 588.737 148.649 588.062C148.335 587.384 148.178 586.583 148.178 585.659C148.178 584.742 148.335 583.947 148.649 583.273C148.964 582.598 149.401 582.078 149.962 581.71C150.522 581.343 151.17 581.159 151.905 581.159C152.473 581.159 152.922 581.254 153.251 581.443C153.585 581.629 153.839 581.841 154.013 582.08C154.191 582.314 154.329 582.508 154.428 582.659H154.541V578.364H155.882V590H154.587V588.659H154.428C154.329 588.818 154.189 589.019 154.007 589.261C153.825 589.5 153.566 589.714 153.229 589.903C152.892 590.089 152.443 590.182 151.882 590.182ZM152.064 588.977C152.602 588.977 153.056 588.837 153.428 588.557C153.799 588.273 154.081 587.881 154.274 587.381C154.467 586.877 154.564 586.295 154.564 585.636C154.564 584.985 154.469 584.415 154.28 583.926C154.09 583.434 153.81 583.051 153.439 582.778C153.068 582.502 152.609 582.364 152.064 582.364C151.496 582.364 151.022 582.509 150.643 582.801C150.268 583.089 149.986 583.481 149.797 583.977C149.611 584.47 149.518 585.023 149.518 585.636C149.518 586.258 149.613 586.822 149.803 587.33C149.996 587.833 150.28 588.235 150.655 588.534C151.034 588.83 151.503 588.977 152.064 588.977ZM161.092 590.205C160.539 590.205 160.037 590.1 159.587 589.892C159.136 589.68 158.778 589.375 158.513 588.977C158.248 588.576 158.115 588.091 158.115 587.523C158.115 587.023 158.214 586.617 158.411 586.307C158.607 585.992 158.871 585.746 159.2 585.568C159.53 585.39 159.893 585.258 160.291 585.17C160.693 585.08 161.096 585.008 161.501 584.955C162.032 584.886 162.462 584.835 162.791 584.801C163.125 584.763 163.367 584.701 163.518 584.614C163.674 584.527 163.751 584.375 163.751 584.159V584.114C163.751 583.553 163.598 583.117 163.291 582.807C162.988 582.496 162.528 582.341 161.911 582.341C161.27 582.341 160.768 582.481 160.405 582.761C160.041 583.042 159.786 583.341 159.638 583.659L158.365 583.205C158.592 582.674 158.895 582.261 159.274 581.966C159.657 581.667 160.073 581.458 160.524 581.341C160.979 581.22 161.426 581.159 161.865 581.159C162.145 581.159 162.467 581.193 162.831 581.261C163.198 581.326 163.553 581.46 163.893 581.665C164.238 581.869 164.524 582.178 164.751 582.591C164.979 583.004 165.092 583.557 165.092 584.25V590H163.751V588.818H163.683C163.592 589.008 163.441 589.21 163.229 589.426C163.017 589.642 162.734 589.826 162.382 589.977C162.03 590.129 161.6 590.205 161.092 590.205ZM161.297 589C161.827 589 162.274 588.896 162.638 588.688C163.005 588.479 163.282 588.21 163.467 587.881C163.657 587.551 163.751 587.205 163.751 586.841V585.614C163.695 585.682 163.57 585.744 163.376 585.801C163.187 585.854 162.967 585.902 162.717 585.943C162.471 585.981 162.231 586.015 161.996 586.045C161.765 586.072 161.577 586.095 161.433 586.114C161.085 586.159 160.759 586.233 160.456 586.335C160.157 586.434 159.914 586.583 159.729 586.784C159.547 586.981 159.456 587.25 159.456 587.591C159.456 588.057 159.628 588.409 159.973 588.648C160.321 588.883 160.763 589 161.297 589ZM167.54 590V581.273H168.835V582.591H168.926C169.085 582.159 169.373 581.809 169.79 581.54C170.206 581.271 170.676 581.136 171.199 581.136C171.297 581.136 171.42 581.138 171.568 581.142C171.716 581.146 171.828 581.152 171.903 581.159V582.523C171.858 582.511 171.754 582.494 171.591 582.472C171.432 582.445 171.263 582.432 171.085 582.432C170.661 582.432 170.282 582.521 169.949 582.699C169.619 582.873 169.358 583.116 169.165 583.426C168.975 583.733 168.881 584.083 168.881 584.477V590H167.54ZM174.622 593.273C174.395 593.273 174.192 593.254 174.014 593.216C173.836 593.182 173.713 593.148 173.645 593.114L173.986 591.932C174.312 592.015 174.599 592.045 174.849 592.023C175.099 592 175.321 591.888 175.514 591.688C175.711 591.491 175.891 591.17 176.054 590.727L176.304 590.045L173.077 581.273H174.531L176.94 588.227H177.031L179.44 581.273H180.895L177.19 591.273C177.024 591.723 176.817 592.097 176.571 592.392C176.325 592.691 176.039 592.913 175.713 593.057C175.391 593.201 175.027 593.273 174.622 593.273ZM189.733 590.205C189.18 590.205 188.678 590.1 188.227 589.892C187.777 589.68 187.419 589.375 187.153 588.977C186.888 588.576 186.756 588.091 186.756 587.523C186.756 587.023 186.854 586.617 187.051 586.307C187.248 585.992 187.511 585.746 187.841 585.568C188.17 585.39 188.534 585.258 188.932 585.17C189.333 585.08 189.737 585.008 190.142 584.955C190.672 584.886 191.102 584.835 191.432 584.801C191.765 584.763 192.008 584.701 192.159 584.614C192.314 584.527 192.392 584.375 192.392 584.159V584.114C192.392 583.553 192.239 583.117 191.932 582.807C191.629 582.496 191.169 582.341 190.551 582.341C189.911 582.341 189.409 582.481 189.045 582.761C188.682 583.042 188.426 583.341 188.278 583.659L187.006 583.205C187.233 582.674 187.536 582.261 187.915 581.966C188.297 581.667 188.714 581.458 189.165 581.341C189.619 581.22 190.066 581.159 190.506 581.159C190.786 581.159 191.108 581.193 191.472 581.261C191.839 581.326 192.193 581.46 192.534 581.665C192.879 581.869 193.165 582.178 193.392 582.591C193.619 583.004 193.733 583.557 193.733 584.25V590H192.392V588.818H192.324C192.233 589.008 192.081 589.21 191.869 589.426C191.657 589.642 191.375 589.826 191.023 589.977C190.67 590.129 190.241 590.205 189.733 590.205ZM189.938 589C190.468 589 190.915 588.896 191.278 588.688C191.646 588.479 191.922 588.21 192.108 587.881C192.297 587.551 192.392 587.205 192.392 586.841V585.614C192.335 585.682 192.21 585.744 192.017 585.801C191.828 585.854 191.608 585.902 191.358 585.943C191.112 585.981 190.871 586.015 190.636 586.045C190.405 586.072 190.218 586.095 190.074 586.114C189.725 586.159 189.4 586.233 189.097 586.335C188.797 586.434 188.555 586.583 188.369 586.784C188.188 586.981 188.097 587.25 188.097 587.591C188.097 588.057 188.269 588.409 188.614 588.648C188.962 588.883 189.403 589 189.938 589ZM197.521 578.364V590H196.18V578.364H197.521ZM203.636 590.182C202.795 590.182 202.07 589.996 201.46 589.625C200.854 589.25 200.386 588.727 200.057 588.057C199.731 587.383 199.568 586.598 199.568 585.705C199.568 584.811 199.731 584.023 200.057 583.341C200.386 582.655 200.845 582.121 201.432 581.739C202.023 581.352 202.712 581.159 203.5 581.159C203.955 581.159 204.403 581.235 204.847 581.386C205.29 581.538 205.693 581.784 206.057 582.125C206.42 582.462 206.71 582.909 206.926 583.466C207.142 584.023 207.25 584.708 207.25 585.523V586.091H200.523V584.932H205.886C205.886 584.439 205.788 584 205.591 583.614C205.398 583.227 205.121 582.922 204.761 582.699C204.405 582.475 203.985 582.364 203.5 582.364C202.966 582.364 202.504 582.496 202.114 582.761C201.727 583.023 201.43 583.364 201.222 583.784C201.013 584.205 200.909 584.655 200.909 585.136V585.909C200.909 586.568 201.023 587.127 201.25 587.585C201.481 588.04 201.801 588.386 202.21 588.625C202.619 588.86 203.095 588.977 203.636 588.977C203.989 588.977 204.307 588.928 204.591 588.83C204.879 588.727 205.127 588.576 205.335 588.375C205.544 588.17 205.705 587.917 205.818 587.614L207.114 587.977C206.977 588.417 206.748 588.803 206.426 589.136C206.104 589.466 205.706 589.723 205.233 589.909C204.759 590.091 204.227 590.182 203.636 590.182ZM209.29 590V581.273H210.585V582.591H210.676C210.835 582.159 211.123 581.809 211.54 581.54C211.956 581.271 212.426 581.136 212.949 581.136C213.047 581.136 213.17 581.138 213.318 581.142C213.466 581.146 213.578 581.152 213.653 581.159V582.523C213.608 582.511 213.504 582.494 213.341 582.472C213.182 582.445 213.013 582.432 212.835 582.432C212.411 582.432 212.032 582.521 211.699 582.699C211.369 582.873 211.108 583.116 210.915 583.426C210.725 583.733 210.631 584.083 210.631 584.477V590H209.29ZM219.585 581.273V582.409H215.062V581.273H219.585ZM216.381 579.182H217.722V587.5C217.722 587.879 217.777 588.163 217.886 588.352C218 588.538 218.144 588.663 218.318 588.727C218.496 588.788 218.684 588.818 218.881 588.818C219.028 588.818 219.15 588.811 219.244 588.795C219.339 588.777 219.415 588.761 219.472 588.75L219.744 589.955C219.653 589.989 219.527 590.023 219.364 590.057C219.201 590.095 218.994 590.114 218.744 590.114C218.366 590.114 217.994 590.032 217.631 589.869C217.271 589.706 216.972 589.458 216.733 589.125C216.498 588.792 216.381 588.371 216.381 587.864V579.182Z" fill="#393E64"/>
<path d="M293.757 589.243L299 584M304.243 578.757L299 584M299 584L293.757 578.757M299 584L304.243 589.243" stroke="#393E64" stroke-width="1.5" stroke-linecap="round" stroke-linejoin="round"/>
<path d="M43.9062 77H41.1222L51.7045 47.9091H54.5455L65.1278 77H62.3438L53.2244 51.3608H53.0256L43.9062 77ZM45.9091 65.8494H60.3409V68.2358H45.9091V65.8494ZM72.1165 47.9091V77H69.5881V47.9091H72.1165ZM87.6278 77.4545C85.5919 77.4545 83.8305 76.9811 82.3438 76.0341C80.857 75.0777 79.7064 73.7566 78.892 72.071C78.0871 70.3759 77.6847 68.4252 77.6847 66.2188C77.6847 64.0218 78.0871 62.071 78.892 60.3665C79.7064 58.6525 80.8286 57.3125 82.2585 56.3466C83.6979 55.3712 85.3598 54.8835 87.2443 54.8835C88.428 54.8835 89.5691 55.1013 90.6676 55.5369C91.7661 55.9631 92.7509 56.6212 93.6222 57.5114C94.5028 58.392 95.1989 59.5047 95.7102 60.8494C96.2216 62.1847 96.4773 63.7661 96.4773 65.5938V66.8438H79.4318V64.6136H93.892C93.892 63.2121 93.608 61.9527 93.0398 60.8352C92.4811 59.7083 91.6998 58.8182 90.696 58.1648C89.7017 57.5114 88.5511 57.1847 87.2443 57.1847C85.8617 57.1847 84.6449 57.554 83.5938 58.2926C82.5426 59.0312 81.7188 60.0066 81.1222 61.2188C80.535 62.4309 80.2367 63.7566 80.2273 65.196V66.5312C80.2273 68.2642 80.5256 69.7794 81.1222 71.0767C81.7282 72.3646 82.5852 73.3636 83.6932 74.0739C84.8011 74.7841 86.1127 75.1392 87.6278 75.1392C88.66 75.1392 89.5644 74.9782 90.3409 74.6562C91.1269 74.3343 91.785 73.9034 92.3153 73.3636C92.8551 72.8144 93.2623 72.2131 93.5369 71.5597L95.9375 72.3409C95.6061 73.2595 95.0616 74.107 94.304 74.8835C93.5559 75.66 92.6184 76.285 91.4915 76.7585C90.3741 77.2225 89.0862 77.4545 87.6278 77.4545ZM102.049 77V55.1818H104.506V58.5341H104.691C105.127 57.4356 105.884 56.5502 106.964 55.8778C108.053 55.196 109.284 54.8551 110.657 54.8551C110.865 54.8551 111.097 54.8598 111.353 54.8693C111.609 54.8788 111.822 54.8883 111.992 54.8977V57.4688C111.879 57.4498 111.68 57.4214 111.396 57.3835C111.112 57.3456 110.804 57.3267 110.472 57.3267C109.336 57.3267 108.323 57.5682 107.433 58.0511C106.552 58.5246 105.856 59.1828 105.344 60.0256C104.833 60.8684 104.577 61.8295 104.577 62.9091V77H102.049ZM126.268 55.1818V57.3835H115.856V55.1818H126.268ZM119.109 49.9545H121.651V71.304C121.651 72.2131 121.808 72.928 122.12 73.4489C122.433 73.9602 122.84 74.3248 123.342 74.5426C123.844 74.7509 124.379 74.8551 124.947 74.8551C125.278 74.8551 125.562 74.8362 125.799 74.7983C126.036 74.7509 126.244 74.7036 126.424 74.6562L126.964 76.9432C126.718 77.0379 126.415 77.1231 126.055 77.1989C125.695 77.2841 125.25 77.3267 124.719 77.3267C123.791 77.3267 122.897 77.1231 122.035 76.7159C121.183 76.3087 120.482 75.7027 119.933 74.8977C119.383 74.0928 119.109 73.0938 119.109 71.9006V49.9545ZM146.278 59.9688L143.963 60.6222C143.736 59.9687 143.414 59.3769 142.997 58.8466C142.58 58.3163 142.036 57.8949 141.364 57.5824C140.701 57.2699 139.877 57.1136 138.892 57.1136C137.415 57.1136 136.203 57.464 135.256 58.1648C134.309 58.8655 133.835 59.7699 133.835 60.8778C133.835 61.8153 134.157 62.5777 134.801 63.1648C135.455 63.7424 136.458 64.2017 137.812 64.5426L141.108 65.3523C142.936 65.7973 144.304 66.5028 145.213 67.4688C146.132 68.4347 146.591 69.6468 146.591 71.1051C146.591 72.3362 146.25 73.4299 145.568 74.3864C144.886 75.3428 143.935 76.0956 142.713 76.6449C141.501 77.1847 140.095 77.4545 138.494 77.4545C136.364 77.4545 134.607 76.9763 133.224 76.0199C131.842 75.054 130.956 73.6619 130.568 71.8438L132.997 71.2472C133.31 72.5445 133.92 73.5246 134.83 74.1875C135.748 74.8504 136.955 75.1818 138.452 75.1818C140.128 75.1818 141.468 74.8078 142.472 74.0597C143.475 73.3021 143.977 72.3551 143.977 71.2188C143.977 70.3381 143.684 69.5994 143.097 69.0028C142.509 68.3968 141.619 67.9517 140.426 67.6676L136.861 66.8153C134.967 66.3608 133.565 65.6411 132.656 64.6562C131.747 63.6714 131.293 62.4498 131.293 60.9915C131.293 59.7888 131.619 58.733 132.273 57.8239C132.926 56.9053 133.826 56.1856 134.972 55.6648C136.117 55.1439 137.424 54.8835 138.892 54.8835C140.89 54.8835 142.486 55.3381 143.679 56.2472C144.882 57.1468 145.748 58.3873 146.278 59.9688Z" fill="#C4C8DC"/>
</svg>
