<svg width="562" height="1071" viewBox="0 0 562 1071" fill="none" xmlns="http://www.w3.org/2000/svg">
<rect width="562" height="1071" rx="16" fill="white"/>
<rect x="157.5" y="124.5" width="247" height="410" rx="4.5" stroke="#9747FF" stroke-dasharray="10 5"/>
<rect width="124" height="56" transform="translate(219 144)" fill="#F9F9FA"/>
<path d="M236.011 178V166.364H238.472V171.165H243.466V166.364H245.92V178H243.466V173.193H238.472V178H236.011ZM251.881 178.17C250.983 178.17 250.21 177.989 249.562 177.625C248.919 177.258 248.422 176.739 248.074 176.068C247.725 175.394 247.551 174.597 247.551 173.676C247.551 172.778 247.725 171.991 248.074 171.312C248.422 170.634 248.913 170.106 249.545 169.727C250.182 169.348 250.928 169.159 251.784 169.159C252.36 169.159 252.896 169.252 253.392 169.438C253.892 169.619 254.328 169.894 254.699 170.261C255.074 170.629 255.366 171.091 255.574 171.648C255.782 172.201 255.886 172.848 255.886 173.591V174.256H248.517V172.756H253.608C253.608 172.407 253.532 172.098 253.381 171.83C253.229 171.561 253.019 171.35 252.75 171.199C252.485 171.044 252.176 170.966 251.824 170.966C251.456 170.966 251.131 171.051 250.847 171.222C250.566 171.388 250.347 171.614 250.188 171.898C250.028 172.178 249.947 172.491 249.943 172.835V174.261C249.943 174.693 250.023 175.066 250.182 175.381C250.345 175.695 250.574 175.938 250.869 176.108C251.165 176.278 251.515 176.364 251.92 176.364C252.189 176.364 252.436 176.326 252.659 176.25C252.883 176.174 253.074 176.061 253.233 175.909C253.392 175.758 253.513 175.572 253.597 175.352L255.835 175.5C255.722 176.038 255.489 176.508 255.136 176.909C254.788 177.307 254.337 177.617 253.784 177.841C253.235 178.061 252.6 178.17 251.881 178.17ZM259.955 178.165C259.398 178.165 258.902 178.068 258.466 177.875C258.03 177.678 257.686 177.388 257.432 177.006C257.182 176.619 257.057 176.138 257.057 175.562C257.057 175.078 257.146 174.67 257.324 174.341C257.502 174.011 257.744 173.746 258.051 173.545C258.358 173.345 258.706 173.193 259.097 173.091C259.491 172.989 259.903 172.917 260.335 172.875C260.843 172.822 261.252 172.773 261.562 172.727C261.873 172.678 262.098 172.606 262.239 172.511C262.379 172.417 262.449 172.277 262.449 172.091V172.057C262.449 171.697 262.335 171.419 262.108 171.222C261.884 171.025 261.566 170.926 261.153 170.926C260.718 170.926 260.371 171.023 260.114 171.216C259.856 171.405 259.686 171.644 259.602 171.932L257.364 171.75C257.477 171.22 257.701 170.761 258.034 170.375C258.367 169.985 258.797 169.686 259.324 169.477C259.854 169.265 260.468 169.159 261.165 169.159C261.65 169.159 262.114 169.216 262.557 169.33C263.004 169.443 263.4 169.619 263.744 169.858C264.093 170.097 264.367 170.403 264.568 170.778C264.769 171.15 264.869 171.595 264.869 172.114V178H262.574V176.79H262.506C262.366 177.062 262.178 177.303 261.943 177.511C261.708 177.716 261.426 177.877 261.097 177.994C260.767 178.108 260.386 178.165 259.955 178.165ZM260.648 176.494C261.004 176.494 261.318 176.424 261.591 176.284C261.864 176.14 262.078 175.947 262.233 175.705C262.388 175.462 262.466 175.187 262.466 174.881V173.955C262.39 174.004 262.286 174.049 262.153 174.091C262.025 174.129 261.879 174.165 261.716 174.199C261.553 174.229 261.39 174.258 261.227 174.284C261.064 174.307 260.917 174.328 260.784 174.347C260.5 174.388 260.252 174.455 260.04 174.545C259.828 174.636 259.663 174.759 259.545 174.915C259.428 175.066 259.369 175.256 259.369 175.483C259.369 175.812 259.489 176.064 259.727 176.239C259.97 176.409 260.277 176.494 260.648 176.494ZM269.963 178.142C269.3 178.142 268.7 177.972 268.162 177.631C267.628 177.286 267.204 176.78 266.889 176.114C266.579 175.443 266.423 174.621 266.423 173.648C266.423 172.648 266.584 171.816 266.906 171.153C267.228 170.487 267.656 169.989 268.19 169.659C268.728 169.326 269.317 169.159 269.957 169.159C270.446 169.159 270.853 169.242 271.179 169.409C271.509 169.572 271.774 169.777 271.974 170.023C272.179 170.265 272.334 170.504 272.44 170.739H272.514V166.364H274.929V178H272.543V176.602H272.44C272.327 176.845 272.166 177.085 271.957 177.324C271.753 177.559 271.486 177.754 271.156 177.909C270.83 178.064 270.433 178.142 269.963 178.142ZM270.73 176.216C271.12 176.216 271.45 176.11 271.719 175.898C271.991 175.682 272.2 175.381 272.344 174.994C272.491 174.608 272.565 174.155 272.565 173.636C272.565 173.117 272.493 172.667 272.349 172.284C272.205 171.902 271.997 171.606 271.724 171.398C271.452 171.189 271.12 171.085 270.73 171.085C270.332 171.085 269.997 171.193 269.724 171.409C269.452 171.625 269.245 171.924 269.105 172.307C268.965 172.689 268.895 173.133 268.895 173.636C268.895 174.144 268.965 174.593 269.105 174.983C269.249 175.369 269.455 175.672 269.724 175.892C269.997 176.108 270.332 176.216 270.73 176.216ZM280.896 178.17C279.999 178.17 279.226 177.989 278.578 177.625C277.934 177.258 277.438 176.739 277.089 176.068C276.741 175.394 276.567 174.597 276.567 173.676C276.567 172.778 276.741 171.991 277.089 171.312C277.438 170.634 277.929 170.106 278.561 169.727C279.197 169.348 279.944 169.159 280.8 169.159C281.375 169.159 281.911 169.252 282.408 169.438C282.908 169.619 283.343 169.894 283.714 170.261C284.089 170.629 284.381 171.091 284.589 171.648C284.798 172.201 284.902 172.848 284.902 173.591V174.256H277.533V172.756H282.624C282.624 172.407 282.548 172.098 282.396 171.83C282.245 171.561 282.035 171.35 281.766 171.199C281.5 171.044 281.192 170.966 280.839 170.966C280.472 170.966 280.146 171.051 279.862 171.222C279.582 171.388 279.362 171.614 279.203 171.898C279.044 172.178 278.963 172.491 278.959 172.835V174.261C278.959 174.693 279.038 175.066 279.197 175.381C279.36 175.695 279.589 175.938 279.885 176.108C280.18 176.278 280.531 176.364 280.936 176.364C281.205 176.364 281.451 176.326 281.675 176.25C281.898 176.174 282.089 176.061 282.249 175.909C282.408 175.758 282.529 175.572 282.612 175.352L284.851 175.5C284.737 176.038 284.504 176.508 284.152 176.909C283.804 177.307 283.353 177.617 282.8 177.841C282.25 178.061 281.616 178.17 280.896 178.17ZM286.482 178V169.273H288.828V170.795H288.919C289.078 170.254 289.345 169.845 289.72 169.568C290.095 169.288 290.527 169.148 291.016 169.148C291.137 169.148 291.268 169.155 291.408 169.17C291.548 169.186 291.671 169.206 291.777 169.233V171.381C291.663 171.347 291.506 171.316 291.305 171.29C291.105 171.263 290.921 171.25 290.754 171.25C290.398 171.25 290.08 171.328 289.8 171.483C289.523 171.634 289.304 171.847 289.141 172.119C288.982 172.392 288.902 172.706 288.902 173.062V178H286.482ZM301.374 169.273V171.091H296.118V169.273H301.374ZM297.311 167.182H299.732V175.318C299.732 175.542 299.766 175.716 299.834 175.841C299.902 175.962 299.997 176.047 300.118 176.097C300.243 176.146 300.387 176.17 300.55 176.17C300.663 176.17 300.777 176.161 300.891 176.142C301.004 176.119 301.091 176.102 301.152 176.091L301.533 177.892C301.411 177.93 301.241 177.973 301.021 178.023C300.802 178.076 300.535 178.108 300.22 178.119C299.637 178.142 299.125 178.064 298.686 177.886C298.25 177.708 297.911 177.432 297.669 177.057C297.427 176.682 297.307 176.208 297.311 175.636V167.182ZM306.834 178.17C305.936 178.17 305.163 177.989 304.516 177.625C303.872 177.258 303.375 176.739 303.027 176.068C302.679 175.394 302.504 174.597 302.504 173.676C302.504 172.778 302.679 171.991 303.027 171.312C303.375 170.634 303.866 170.106 304.499 169.727C305.135 169.348 305.881 169.159 306.737 169.159C307.313 169.159 307.849 169.252 308.345 169.438C308.845 169.619 309.281 169.894 309.652 170.261C310.027 170.629 310.319 171.091 310.527 171.648C310.735 172.201 310.839 172.848 310.839 173.591V174.256H303.47V172.756H308.561C308.561 172.407 308.485 172.098 308.334 171.83C308.182 171.561 307.972 171.35 307.703 171.199C307.438 171.044 307.129 170.966 306.777 170.966C306.41 170.966 306.084 171.051 305.8 171.222C305.519 171.388 305.3 171.614 305.141 171.898C304.982 172.178 304.9 172.491 304.896 172.835V174.261C304.896 174.693 304.976 175.066 305.135 175.381C305.298 175.695 305.527 175.938 305.822 176.108C306.118 176.278 306.468 176.364 306.874 176.364C307.143 176.364 307.389 176.326 307.612 176.25C307.836 176.174 308.027 176.061 308.186 175.909C308.345 175.758 308.466 175.572 308.55 175.352L310.788 175.5C310.675 176.038 310.442 176.508 310.089 176.909C309.741 177.307 309.29 177.617 308.737 177.841C308.188 178.061 307.554 178.17 306.834 178.17ZM314.286 169.273L315.888 172.324L317.53 169.273H320.013L317.484 173.636L320.081 178H317.609L315.888 174.983L314.195 178H311.695L314.286 173.636L311.786 169.273H314.286ZM326.092 169.273V171.091H320.837V169.273H326.092ZM322.03 167.182H324.45V175.318C324.45 175.542 324.484 175.716 324.553 175.841C324.621 175.962 324.715 176.047 324.837 176.097C324.962 176.146 325.106 176.17 325.268 176.17C325.382 176.17 325.496 176.161 325.609 176.142C325.723 176.119 325.81 176.102 325.871 176.091L326.251 177.892C326.13 177.93 325.96 177.973 325.74 178.023C325.52 178.076 325.253 178.108 324.939 178.119C324.356 178.142 323.844 178.064 323.405 177.886C322.969 177.708 322.63 177.432 322.388 177.057C322.145 176.682 322.026 176.208 322.03 175.636V167.182Z" fill="#151A30"/>
<rect width="124" height="56" transform="translate(219 225)" fill="#F9F9FA"/>
<rect width="52" height="56" transform="translate(255 319)" fill="#F9F9FA"/>
<rect x="271" y="337" width="20" height="20" rx="4" fill="#73768C"/>
<rect x="273" y="339" width="16" height="16" rx="2" fill="white"/>
<rect width="164" height="56" transform="translate(199 391)" fill="#F9F9FA"/>
<path d="M216.011 425V413.364H218.472V418.165H223.466V413.364H225.92V425H223.466V420.193H218.472V425H216.011ZM231.881 425.17C230.983 425.17 230.21 424.989 229.562 424.625C228.919 424.258 228.422 423.739 228.074 423.068C227.725 422.394 227.551 421.597 227.551 420.676C227.551 419.778 227.725 418.991 228.074 418.312C228.422 417.634 228.913 417.106 229.545 416.727C230.182 416.348 230.928 416.159 231.784 416.159C232.36 416.159 232.896 416.252 233.392 416.438C233.892 416.619 234.328 416.894 234.699 417.261C235.074 417.629 235.366 418.091 235.574 418.648C235.782 419.201 235.886 419.848 235.886 420.591V421.256H228.517V419.756H233.608C233.608 419.407 233.532 419.098 233.381 418.83C233.229 418.561 233.019 418.35 232.75 418.199C232.485 418.044 232.176 417.966 231.824 417.966C231.456 417.966 231.131 418.051 230.847 418.222C230.566 418.388 230.347 418.614 230.188 418.898C230.028 419.178 229.947 419.491 229.943 419.835V421.261C229.943 421.693 230.023 422.066 230.182 422.381C230.345 422.695 230.574 422.938 230.869 423.108C231.165 423.278 231.515 423.364 231.92 423.364C232.189 423.364 232.436 423.326 232.659 423.25C232.883 423.174 233.074 423.061 233.233 422.909C233.392 422.758 233.513 422.572 233.597 422.352L235.835 422.5C235.722 423.038 235.489 423.508 235.136 423.909C234.788 424.307 234.337 424.617 233.784 424.841C233.235 425.061 232.6 425.17 231.881 425.17ZM239.955 425.165C239.398 425.165 238.902 425.068 238.466 424.875C238.03 424.678 237.686 424.388 237.432 424.006C237.182 423.619 237.057 423.138 237.057 422.562C237.057 422.078 237.146 421.67 237.324 421.341C237.502 421.011 237.744 420.746 238.051 420.545C238.358 420.345 238.706 420.193 239.097 420.091C239.491 419.989 239.903 419.917 240.335 419.875C240.843 419.822 241.252 419.773 241.562 419.727C241.873 419.678 242.098 419.606 242.239 419.511C242.379 419.417 242.449 419.277 242.449 419.091V419.057C242.449 418.697 242.335 418.419 242.108 418.222C241.884 418.025 241.566 417.926 241.153 417.926C240.718 417.926 240.371 418.023 240.114 418.216C239.856 418.405 239.686 418.644 239.602 418.932L237.364 418.75C237.477 418.22 237.701 417.761 238.034 417.375C238.367 416.985 238.797 416.686 239.324 416.477C239.854 416.265 240.468 416.159 241.165 416.159C241.65 416.159 242.114 416.216 242.557 416.33C243.004 416.443 243.4 416.619 243.744 416.858C244.093 417.097 244.367 417.403 244.568 417.778C244.769 418.15 244.869 418.595 244.869 419.114V425H242.574V423.79H242.506C242.366 424.062 242.178 424.303 241.943 424.511C241.708 424.716 241.426 424.877 241.097 424.994C240.767 425.108 240.386 425.165 239.955 425.165ZM240.648 423.494C241.004 423.494 241.318 423.424 241.591 423.284C241.864 423.14 242.078 422.947 242.233 422.705C242.388 422.462 242.466 422.187 242.466 421.881V420.955C242.39 421.004 242.286 421.049 242.153 421.091C242.025 421.129 241.879 421.165 241.716 421.199C241.553 421.229 241.39 421.258 241.227 421.284C241.064 421.307 240.917 421.328 240.784 421.347C240.5 421.388 240.252 421.455 240.04 421.545C239.828 421.636 239.663 421.759 239.545 421.915C239.428 422.066 239.369 422.256 239.369 422.483C239.369 422.812 239.489 423.064 239.727 423.239C239.97 423.409 240.277 423.494 240.648 423.494ZM249.963 425.142C249.3 425.142 248.7 424.972 248.162 424.631C247.628 424.286 247.204 423.78 246.889 423.114C246.579 422.443 246.423 421.621 246.423 420.648C246.423 419.648 246.584 418.816 246.906 418.153C247.228 417.487 247.656 416.989 248.19 416.659C248.728 416.326 249.317 416.159 249.957 416.159C250.446 416.159 250.853 416.242 251.179 416.409C251.509 416.572 251.774 416.777 251.974 417.023C252.179 417.265 252.334 417.504 252.44 417.739H252.514V413.364H254.929V425H252.543V423.602H252.44C252.327 423.845 252.166 424.085 251.957 424.324C251.753 424.559 251.486 424.754 251.156 424.909C250.83 425.064 250.433 425.142 249.963 425.142ZM250.73 423.216C251.12 423.216 251.45 423.11 251.719 422.898C251.991 422.682 252.2 422.381 252.344 421.994C252.491 421.608 252.565 421.155 252.565 420.636C252.565 420.117 252.493 419.667 252.349 419.284C252.205 418.902 251.997 418.606 251.724 418.398C251.452 418.189 251.12 418.085 250.73 418.085C250.332 418.085 249.997 418.193 249.724 418.409C249.452 418.625 249.245 418.924 249.105 419.307C248.965 419.689 248.895 420.133 248.895 420.636C248.895 421.144 248.965 421.593 249.105 421.983C249.249 422.369 249.455 422.672 249.724 422.892C249.997 423.108 250.332 423.216 250.73 423.216ZM260.896 425.17C259.999 425.17 259.226 424.989 258.578 424.625C257.934 424.258 257.438 423.739 257.089 423.068C256.741 422.394 256.567 421.597 256.567 420.676C256.567 419.778 256.741 418.991 257.089 418.312C257.438 417.634 257.929 417.106 258.561 416.727C259.197 416.348 259.944 416.159 260.8 416.159C261.375 416.159 261.911 416.252 262.408 416.438C262.908 416.619 263.343 416.894 263.714 417.261C264.089 417.629 264.381 418.091 264.589 418.648C264.798 419.201 264.902 419.848 264.902 420.591V421.256H257.533V419.756H262.624C262.624 419.407 262.548 419.098 262.396 418.83C262.245 418.561 262.035 418.35 261.766 418.199C261.5 418.044 261.192 417.966 260.839 417.966C260.472 417.966 260.146 418.051 259.862 418.222C259.582 418.388 259.362 418.614 259.203 418.898C259.044 419.178 258.963 419.491 258.959 419.835V421.261C258.959 421.693 259.038 422.066 259.197 422.381C259.36 422.695 259.589 422.938 259.885 423.108C260.18 423.278 260.531 423.364 260.936 423.364C261.205 423.364 261.451 423.326 261.675 423.25C261.898 423.174 262.089 423.061 262.249 422.909C262.408 422.758 262.529 422.572 262.612 422.352L264.851 422.5C264.737 423.038 264.504 423.508 264.152 423.909C263.804 424.307 263.353 424.617 262.8 424.841C262.25 425.061 261.616 425.17 260.896 425.17ZM266.482 425V416.273H268.828V417.795H268.919C269.078 417.254 269.345 416.845 269.72 416.568C270.095 416.288 270.527 416.148 271.016 416.148C271.137 416.148 271.268 416.155 271.408 416.17C271.548 416.186 271.671 416.206 271.777 416.233V418.381C271.663 418.347 271.506 418.316 271.305 418.29C271.105 418.263 270.921 418.25 270.754 418.25C270.398 418.25 270.08 418.328 269.8 418.483C269.523 418.634 269.304 418.847 269.141 419.119C268.982 419.392 268.902 419.706 268.902 420.062V425H266.482ZM281.374 416.273V418.091H276.118V416.273H281.374ZM277.311 414.182H279.732V422.318C279.732 422.542 279.766 422.716 279.834 422.841C279.902 422.962 279.997 423.047 280.118 423.097C280.243 423.146 280.387 423.17 280.55 423.17C280.663 423.17 280.777 423.161 280.891 423.142C281.004 423.119 281.091 423.102 281.152 423.091L281.533 424.892C281.411 424.93 281.241 424.973 281.021 425.023C280.802 425.076 280.535 425.108 280.22 425.119C279.637 425.142 279.125 425.064 278.686 424.886C278.25 424.708 277.911 424.432 277.669 424.057C277.427 423.682 277.307 423.208 277.311 422.636V414.182ZM286.834 425.17C285.936 425.17 285.163 424.989 284.516 424.625C283.872 424.258 283.375 423.739 283.027 423.068C282.679 422.394 282.504 421.597 282.504 420.676C282.504 419.778 282.679 418.991 283.027 418.312C283.375 417.634 283.866 417.106 284.499 416.727C285.135 416.348 285.881 416.159 286.737 416.159C287.313 416.159 287.849 416.252 288.345 416.438C288.845 416.619 289.281 416.894 289.652 417.261C290.027 417.629 290.319 418.091 290.527 418.648C290.735 419.201 290.839 419.848 290.839 420.591V421.256H283.47V419.756H288.561C288.561 419.407 288.485 419.098 288.334 418.83C288.182 418.561 287.972 418.35 287.703 418.199C287.438 418.044 287.129 417.966 286.777 417.966C286.41 417.966 286.084 418.051 285.8 418.222C285.519 418.388 285.3 418.614 285.141 418.898C284.982 419.178 284.9 419.491 284.896 419.835V421.261C284.896 421.693 284.976 422.066 285.135 422.381C285.298 422.695 285.527 422.938 285.822 423.108C286.118 423.278 286.468 423.364 286.874 423.364C287.143 423.364 287.389 423.326 287.612 423.25C287.836 423.174 288.027 423.061 288.186 422.909C288.345 422.758 288.466 422.572 288.55 422.352L290.788 422.5C290.675 423.038 290.442 423.508 290.089 423.909C289.741 424.307 289.29 424.617 288.737 424.841C288.188 425.061 287.554 425.17 286.834 425.17ZM294.286 416.273L295.888 419.324L297.53 416.273H300.013L297.484 420.636L300.081 425H297.609L295.888 421.983L294.195 425H291.695L294.286 420.636L291.786 416.273H294.286ZM306.092 416.273V418.091H300.837V416.273H306.092ZM302.03 414.182H304.45V422.318C304.45 422.542 304.484 422.716 304.553 422.841C304.621 422.962 304.715 423.047 304.837 423.097C304.962 423.146 305.106 423.17 305.268 423.17C305.382 423.17 305.496 423.161 305.609 423.142C305.723 423.119 305.81 423.102 305.871 423.091L306.251 424.892C306.13 424.93 305.96 424.973 305.74 425.023C305.52 425.076 305.253 425.108 304.939 425.119C304.356 425.142 303.844 425.064 303.405 424.886C302.969 424.708 302.63 424.432 302.388 424.057C302.145 423.682 302.026 423.208 302.03 422.636V414.182Z" fill="#151A30"/>
<path d="M338.5 422.5L342 426" stroke="#151A30" stroke-width="1.5" stroke-linecap="round" stroke-linejoin="round"/>
<path d="M328 418C328 421.314 330.686 424 334 424C335.66 424 337.162 423.326 338.248 422.237C339.331 421.152 340 419.654 340 418C340 414.686 337.314 412 334 412C330.686 412 328 414.686 328 418Z" stroke="#151A30" stroke-width="1.5" stroke-linecap="round" stroke-linejoin="round"/>
<rect width="164" height="56" transform="translate(199 463)" fill="#F9F9FA"/>
<path d="M216.011 497V485.364H218.472V490.165H223.466V485.364H225.92V497H223.466V492.193H218.472V497H216.011ZM231.881 497.17C230.983 497.17 230.21 496.989 229.562 496.625C228.919 496.258 228.422 495.739 228.074 495.068C227.725 494.394 227.551 493.597 227.551 492.676C227.551 491.778 227.725 490.991 228.074 490.312C228.422 489.634 228.913 489.106 229.545 488.727C230.182 488.348 230.928 488.159 231.784 488.159C232.36 488.159 232.896 488.252 233.392 488.438C233.892 488.619 234.328 488.894 234.699 489.261C235.074 489.629 235.366 490.091 235.574 490.648C235.782 491.201 235.886 491.848 235.886 492.591V493.256H228.517V491.756H233.608C233.608 491.407 233.532 491.098 233.381 490.83C233.229 490.561 233.019 490.35 232.75 490.199C232.485 490.044 232.176 489.966 231.824 489.966C231.456 489.966 231.131 490.051 230.847 490.222C230.566 490.388 230.347 490.614 230.188 490.898C230.028 491.178 229.947 491.491 229.943 491.835V493.261C229.943 493.693 230.023 494.066 230.182 494.381C230.345 494.695 230.574 494.938 230.869 495.108C231.165 495.278 231.515 495.364 231.92 495.364C232.189 495.364 232.436 495.326 232.659 495.25C232.883 495.174 233.074 495.061 233.233 494.909C233.392 494.758 233.513 494.572 233.597 494.352L235.835 494.5C235.722 495.038 235.489 495.508 235.136 495.909C234.788 496.307 234.337 496.617 233.784 496.841C233.235 497.061 232.6 497.17 231.881 497.17ZM239.955 497.165C239.398 497.165 238.902 497.068 238.466 496.875C238.03 496.678 237.686 496.388 237.432 496.006C237.182 495.619 237.057 495.138 237.057 494.562C237.057 494.078 237.146 493.67 237.324 493.341C237.502 493.011 237.744 492.746 238.051 492.545C238.358 492.345 238.706 492.193 239.097 492.091C239.491 491.989 239.903 491.917 240.335 491.875C240.843 491.822 241.252 491.773 241.562 491.727C241.873 491.678 242.098 491.606 242.239 491.511C242.379 491.417 242.449 491.277 242.449 491.091V491.057C242.449 490.697 242.335 490.419 242.108 490.222C241.884 490.025 241.566 489.926 241.153 489.926C240.718 489.926 240.371 490.023 240.114 490.216C239.856 490.405 239.686 490.644 239.602 490.932L237.364 490.75C237.477 490.22 237.701 489.761 238.034 489.375C238.367 488.985 238.797 488.686 239.324 488.477C239.854 488.265 240.468 488.159 241.165 488.159C241.65 488.159 242.114 488.216 242.557 488.33C243.004 488.443 243.4 488.619 243.744 488.858C244.093 489.097 244.367 489.403 244.568 489.778C244.769 490.15 244.869 490.595 244.869 491.114V497H242.574V495.79H242.506C242.366 496.062 242.178 496.303 241.943 496.511C241.708 496.716 241.426 496.877 241.097 496.994C240.767 497.108 240.386 497.165 239.955 497.165ZM240.648 495.494C241.004 495.494 241.318 495.424 241.591 495.284C241.864 495.14 242.078 494.947 242.233 494.705C242.388 494.462 242.466 494.187 242.466 493.881V492.955C242.39 493.004 242.286 493.049 242.153 493.091C242.025 493.129 241.879 493.165 241.716 493.199C241.553 493.229 241.39 493.258 241.227 493.284C241.064 493.307 240.917 493.328 240.784 493.347C240.5 493.388 240.252 493.455 240.04 493.545C239.828 493.636 239.663 493.759 239.545 493.915C239.428 494.066 239.369 494.256 239.369 494.483C239.369 494.812 239.489 495.064 239.727 495.239C239.97 495.409 240.277 495.494 240.648 495.494ZM249.963 497.142C249.3 497.142 248.7 496.972 248.162 496.631C247.628 496.286 247.204 495.78 246.889 495.114C246.579 494.443 246.423 493.621 246.423 492.648C246.423 491.648 246.584 490.816 246.906 490.153C247.228 489.487 247.656 488.989 248.19 488.659C248.728 488.326 249.317 488.159 249.957 488.159C250.446 488.159 250.853 488.242 251.179 488.409C251.509 488.572 251.774 488.777 251.974 489.023C252.179 489.265 252.334 489.504 252.44 489.739H252.514V485.364H254.929V497H252.543V495.602H252.44C252.327 495.845 252.166 496.085 251.957 496.324C251.753 496.559 251.486 496.754 251.156 496.909C250.83 497.064 250.433 497.142 249.963 497.142ZM250.73 495.216C251.12 495.216 251.45 495.11 251.719 494.898C251.991 494.682 252.2 494.381 252.344 493.994C252.491 493.608 252.565 493.155 252.565 492.636C252.565 492.117 252.493 491.667 252.349 491.284C252.205 490.902 251.997 490.606 251.724 490.398C251.452 490.189 251.12 490.085 250.73 490.085C250.332 490.085 249.997 490.193 249.724 490.409C249.452 490.625 249.245 490.924 249.105 491.307C248.965 491.689 248.895 492.133 248.895 492.636C248.895 493.144 248.965 493.593 249.105 493.983C249.249 494.369 249.455 494.672 249.724 494.892C249.997 495.108 250.332 495.216 250.73 495.216ZM260.896 497.17C259.999 497.17 259.226 496.989 258.578 496.625C257.934 496.258 257.438 495.739 257.089 495.068C256.741 494.394 256.567 493.597 256.567 492.676C256.567 491.778 256.741 490.991 257.089 490.312C257.438 489.634 257.929 489.106 258.561 488.727C259.197 488.348 259.944 488.159 260.8 488.159C261.375 488.159 261.911 488.252 262.408 488.438C262.908 488.619 263.343 488.894 263.714 489.261C264.089 489.629 264.381 490.091 264.589 490.648C264.798 491.201 264.902 491.848 264.902 492.591V493.256H257.533V491.756H262.624C262.624 491.407 262.548 491.098 262.396 490.83C262.245 490.561 262.035 490.35 261.766 490.199C261.5 490.044 261.192 489.966 260.839 489.966C260.472 489.966 260.146 490.051 259.862 490.222C259.582 490.388 259.362 490.614 259.203 490.898C259.044 491.178 258.963 491.491 258.959 491.835V493.261C258.959 493.693 259.038 494.066 259.197 494.381C259.36 494.695 259.589 494.938 259.885 495.108C260.18 495.278 260.531 495.364 260.936 495.364C261.205 495.364 261.451 495.326 261.675 495.25C261.898 495.174 262.089 495.061 262.249 494.909C262.408 494.758 262.529 494.572 262.612 494.352L264.851 494.5C264.737 495.038 264.504 495.508 264.152 495.909C263.804 496.307 263.353 496.617 262.8 496.841C262.25 497.061 261.616 497.17 260.896 497.17ZM266.482 497V488.273H268.828V489.795H268.919C269.078 489.254 269.345 488.845 269.72 488.568C270.095 488.288 270.527 488.148 271.016 488.148C271.137 488.148 271.268 488.155 271.408 488.17C271.548 488.186 271.671 488.206 271.777 488.233V490.381C271.663 490.347 271.506 490.316 271.305 490.29C271.105 490.263 270.921 490.25 270.754 490.25C270.398 490.25 270.08 490.328 269.8 490.483C269.523 490.634 269.304 490.847 269.141 491.119C268.982 491.392 268.902 491.706 268.902 492.062V497H266.482ZM281.374 488.273V490.091H276.118V488.273H281.374ZM277.311 486.182H279.732V494.318C279.732 494.542 279.766 494.716 279.834 494.841C279.902 494.962 279.997 495.047 280.118 495.097C280.243 495.146 280.387 495.17 280.55 495.17C280.663 495.17 280.777 495.161 280.891 495.142C281.004 495.119 281.091 495.102 281.152 495.091L281.533 496.892C281.411 496.93 281.241 496.973 281.021 497.023C280.802 497.076 280.535 497.108 280.22 497.119C279.637 497.142 279.125 497.064 278.686 496.886C278.25 496.708 277.911 496.432 277.669 496.057C277.427 495.682 277.307 495.208 277.311 494.636V486.182ZM286.834 497.17C285.936 497.17 285.163 496.989 284.516 496.625C283.872 496.258 283.375 495.739 283.027 495.068C282.679 494.394 282.504 493.597 282.504 492.676C282.504 491.778 282.679 490.991 283.027 490.312C283.375 489.634 283.866 489.106 284.499 488.727C285.135 488.348 285.881 488.159 286.737 488.159C287.313 488.159 287.849 488.252 288.345 488.438C288.845 488.619 289.281 488.894 289.652 489.261C290.027 489.629 290.319 490.091 290.527 490.648C290.735 491.201 290.839 491.848 290.839 492.591V493.256H283.47V491.756H288.561C288.561 491.407 288.485 491.098 288.334 490.83C288.182 490.561 287.972 490.35 287.703 490.199C287.438 490.044 287.129 489.966 286.777 489.966C286.41 489.966 286.084 490.051 285.8 490.222C285.519 490.388 285.3 490.614 285.141 490.898C284.982 491.178 284.9 491.491 284.896 491.835V493.261C284.896 493.693 284.976 494.066 285.135 494.381C285.298 494.695 285.527 494.938 285.822 495.108C286.118 495.278 286.468 495.364 286.874 495.364C287.143 495.364 287.389 495.326 287.612 495.25C287.836 495.174 288.027 495.061 288.186 494.909C288.345 494.758 288.466 494.572 288.55 494.352L290.788 494.5C290.675 495.038 290.442 495.508 290.089 495.909C289.741 496.307 289.29 496.617 288.737 496.841C288.188 497.061 287.554 497.17 286.834 497.17ZM294.286 488.273L295.888 491.324L297.53 488.273H300.013L297.484 492.636L300.081 497H297.609L295.888 493.983L294.195 497H291.695L294.286 492.636L291.786 488.273H294.286ZM306.092 488.273V490.091H300.837V488.273H306.092ZM302.03 486.182H304.45V494.318C304.45 494.542 304.484 494.716 304.553 494.841C304.621 494.962 304.715 495.047 304.837 495.097C304.962 495.146 305.106 495.17 305.268 495.17C305.382 495.17 305.496 495.161 305.609 495.142C305.723 495.119 305.81 495.102 305.871 495.091L306.251 496.892C306.13 496.93 305.96 496.973 305.74 497.023C305.52 497.076 305.253 497.108 304.939 497.119C304.356 497.142 303.844 497.064 303.405 496.886C302.969 496.708 302.63 496.432 302.388 496.057C302.145 495.682 302.026 495.208 302.03 494.636V486.182Z" fill="#151A30"/>
<path d="M329 488L335 494L341 488" stroke="#151A30" stroke-width="1.5" stroke-linecap="round" stroke-linejoin="round"/>
<rect x="228.5" y="575.5" width="104" height="245" rx="4.5" stroke="#9747FF" stroke-dasharray="10 5"/>
<rect width="65" height="57" transform="translate(248 595)" fill="white"/>
<path d="M264.773 618.614V617.364H273.5V618.614H269.841V629H268.432V618.614H264.773ZM277.886 629.182C277.045 629.182 276.32 628.996 275.71 628.625C275.104 628.25 274.636 627.727 274.307 627.057C273.981 626.383 273.818 625.598 273.818 624.705C273.818 623.811 273.981 623.023 274.307 622.341C274.636 621.655 275.095 621.121 275.682 620.739C276.273 620.352 276.962 620.159 277.75 620.159C278.205 620.159 278.653 620.235 279.097 620.386C279.54 620.538 279.943 620.784 280.307 621.125C280.67 621.462 280.96 621.909 281.176 622.466C281.392 623.023 281.5 623.708 281.5 624.523V625.091H274.773V623.932H280.136C280.136 623.439 280.038 623 279.841 622.614C279.648 622.227 279.371 621.922 279.011 621.699C278.655 621.475 278.235 621.364 277.75 621.364C277.216 621.364 276.754 621.496 276.364 621.761C275.977 622.023 275.68 622.364 275.472 622.784C275.263 623.205 275.159 623.655 275.159 624.136V624.909C275.159 625.568 275.273 626.127 275.5 626.585C275.731 627.04 276.051 627.386 276.46 627.625C276.869 627.86 277.345 627.977 277.886 627.977C278.239 627.977 278.557 627.928 278.841 627.83C279.129 627.727 279.377 627.576 279.585 627.375C279.794 627.17 279.955 626.917 280.068 626.614L281.364 626.977C281.227 627.417 280.998 627.803 280.676 628.136C280.354 628.466 279.956 628.723 279.483 628.909C279.009 629.091 278.477 629.182 277.886 629.182ZM284.305 620.273L286.396 623.841L288.487 620.273H290.033L287.214 624.636L290.033 629H288.487L286.396 625.614L284.305 629H282.76L285.533 624.636L282.76 620.273H284.305ZM295.741 620.273V621.409H291.219V620.273H295.741ZM292.537 618.182H293.878V626.5C293.878 626.879 293.933 627.163 294.043 627.352C294.156 627.538 294.3 627.663 294.474 627.727C294.652 627.788 294.84 627.818 295.037 627.818C295.185 627.818 295.306 627.811 295.401 627.795C295.495 627.777 295.571 627.761 295.628 627.75L295.901 628.955C295.81 628.989 295.683 629.023 295.52 629.057C295.357 629.095 295.151 629.114 294.901 629.114C294.522 629.114 294.151 629.032 293.787 628.869C293.427 628.706 293.128 628.458 292.889 628.125C292.654 627.792 292.537 627.371 292.537 626.864V618.182Z" fill="#73768C"/>
<rect x="248" y="651" width="65" height="1" fill="#E3E4E8"/>
<rect width="56" height="57" transform="translate(252 665)" fill="white"/>
<path d="M275 693.5L278 696.5L285 689.5" stroke="#87CB34" stroke-width="1.5" stroke-linecap="round" stroke-linejoin="round"/>
<path d="M280 703C285.523 703 290 698.523 290 693C290 687.477 285.523 683 280 683C274.477 683 270 687.477 270 693C270 698.523 274.477 703 280 703Z" stroke="#87CB34" stroke-width="1.5" stroke-linecap="round" stroke-linejoin="round"/>
<rect x="252" y="721" width="56" height="1" fill="#E3E4E8"/>
<rect width="52" height="57" transform="translate(254 748)" fill="white"/>
<rect x="270" y="766" width="20" height="20" rx="4" fill="#73768C"/>
<rect x="272" y="768" width="16" height="16" rx="2" fill="white"/>
<rect x="254" y="804" width="52" height="1" fill="#E3E4E8"/>
<rect width="52" height="56" transform="translate(40 861)" fill="#F9F9FA"/>
<rect x="56" y="879" width="20" height="20" rx="4" fill="#73768C"/>
<rect x="58" y="881" width="16" height="16" rx="2" fill="white"/>
<rect width="52" height="57" transform="translate(40 917)" fill="white"/>
<rect x="56" y="935" width="20" height="20" rx="4" fill="#73768C"/>
<rect x="58" y="937" width="16" height="16" rx="2" fill="white"/>
<rect x="40" y="973" width="52" height="1" fill="#E3E4E8"/>
<rect width="52" height="57" transform="translate(40 974)" fill="white"/>
<rect x="56" y="992" width="20" height="20" rx="4" fill="#73768C"/>
<rect x="58" y="994" width="16" height="16" rx="2" fill="white"/>
<rect x="40" y="1030" width="52" height="1" fill="#E3E4E8"/>
<rect width="115" height="56" transform="translate(92 861)" fill="#F9F9FA"/>
<path d="M119.278 887.438H116.79C116.744 887.116 116.652 886.83 116.511 886.58C116.371 886.326 116.191 886.11 115.972 885.932C115.752 885.754 115.498 885.617 115.21 885.523C114.926 885.428 114.617 885.381 114.284 885.381C113.682 885.381 113.157 885.53 112.71 885.83C112.263 886.125 111.917 886.557 111.67 887.125C111.424 887.689 111.301 888.375 111.301 889.182C111.301 890.011 111.424 890.708 111.67 891.273C111.92 891.837 112.269 892.263 112.716 892.551C113.163 892.839 113.68 892.983 114.267 892.983C114.597 892.983 114.902 892.939 115.182 892.852C115.466 892.765 115.718 892.638 115.938 892.472C116.157 892.301 116.339 892.095 116.483 891.852C116.631 891.61 116.733 891.333 116.79 891.023L119.278 891.034C119.214 891.568 119.053 892.083 118.795 892.58C118.542 893.072 118.199 893.513 117.767 893.903C117.339 894.29 116.828 894.597 116.233 894.824C115.642 895.047 114.973 895.159 114.227 895.159C113.189 895.159 112.261 894.924 111.443 894.455C110.629 893.985 109.985 893.305 109.511 892.415C109.042 891.525 108.807 890.447 108.807 889.182C108.807 887.913 109.045 886.833 109.523 885.943C110 885.053 110.648 884.375 111.466 883.909C112.284 883.439 113.205 883.205 114.227 883.205C114.902 883.205 115.527 883.299 116.102 883.489C116.682 883.678 117.195 883.955 117.642 884.318C118.089 884.678 118.453 885.119 118.733 885.642C119.017 886.165 119.199 886.763 119.278 887.438ZM124.94 895.17C124.058 895.17 123.295 894.983 122.651 894.608C122.01 894.229 121.516 893.703 121.168 893.028C120.819 892.35 120.645 891.564 120.645 890.67C120.645 889.769 120.819 888.981 121.168 888.307C121.516 887.629 122.01 887.102 122.651 886.727C123.295 886.348 124.058 886.159 124.94 886.159C125.823 886.159 126.584 886.348 127.224 886.727C127.868 887.102 128.365 887.629 128.713 888.307C129.062 888.981 129.236 889.769 129.236 890.67C129.236 891.564 129.062 892.35 128.713 893.028C128.365 893.703 127.868 894.229 127.224 894.608C126.584 894.983 125.823 895.17 124.94 895.17ZM124.952 893.295C125.353 893.295 125.688 893.182 125.957 892.955C126.226 892.723 126.429 892.409 126.565 892.011C126.705 891.614 126.776 891.161 126.776 890.653C126.776 890.146 126.705 889.693 126.565 889.295C126.429 888.898 126.226 888.583 125.957 888.352C125.688 888.121 125.353 888.006 124.952 888.006C124.546 888.006 124.205 888.121 123.929 888.352C123.656 888.583 123.45 888.898 123.31 889.295C123.173 889.693 123.105 890.146 123.105 890.653C123.105 891.161 123.173 891.614 123.31 892.011C123.45 892.409 123.656 892.723 123.929 892.955C124.205 893.182 124.546 893.295 124.952 893.295ZM133.23 883.364V895H130.81V883.364H133.23ZM140.766 891.284V886.273H143.186V895H140.862V893.415H140.771C140.574 893.926 140.247 894.337 139.788 894.648C139.334 894.958 138.779 895.114 138.124 895.114C137.54 895.114 137.027 894.981 136.584 894.716C136.141 894.451 135.794 894.074 135.544 893.585C135.298 893.097 135.173 892.511 135.169 891.83V886.273H137.589V891.398C137.593 891.913 137.732 892.32 138.004 892.619C138.277 892.919 138.643 893.068 139.101 893.068C139.393 893.068 139.665 893.002 139.919 892.869C140.173 892.733 140.377 892.532 140.533 892.267C140.692 892.002 140.769 891.674 140.766 891.284ZM145.122 895V886.273H147.429V887.812H147.531C147.713 887.301 148.016 886.898 148.44 886.602C148.865 886.307 149.372 886.159 149.963 886.159C150.562 886.159 151.071 886.309 151.491 886.608C151.912 886.903 152.192 887.305 152.332 887.812H152.423C152.601 887.312 152.923 886.913 153.389 886.614C153.859 886.311 154.414 886.159 155.054 886.159C155.868 886.159 156.529 886.419 157.037 886.938C157.548 887.453 157.804 888.184 157.804 889.131V895H155.389V889.608C155.389 889.123 155.26 888.759 155.003 888.517C154.745 888.275 154.423 888.153 154.037 888.153C153.598 888.153 153.255 888.294 153.009 888.574C152.762 888.85 152.639 889.216 152.639 889.67V895H150.293V889.557C150.293 889.129 150.17 888.788 149.923 888.534C149.681 888.28 149.361 888.153 148.963 888.153C148.694 888.153 148.452 888.222 148.236 888.358C148.024 888.491 147.855 888.678 147.73 888.92C147.605 889.159 147.543 889.439 147.543 889.761V895H145.122ZM162.136 889.955V895H159.716V886.273H162.023V887.812H162.125C162.318 887.305 162.642 886.903 163.097 886.608C163.551 886.309 164.102 886.159 164.75 886.159C165.356 886.159 165.884 886.292 166.335 886.557C166.786 886.822 167.136 887.201 167.386 887.693C167.636 888.182 167.761 888.765 167.761 889.443V895H165.341V889.875C165.345 889.341 165.208 888.924 164.932 888.625C164.655 888.322 164.275 888.17 163.79 888.17C163.464 888.17 163.176 888.241 162.926 888.381C162.68 888.521 162.487 888.725 162.347 888.994C162.21 889.259 162.14 889.58 162.136 889.955ZM177.781 895L179.69 883.364H181.509L179.599 895H177.781ZM172.571 892.114L172.872 890.295H181.963L181.662 892.114H172.571ZM173.69 895L175.599 883.364H177.418L175.509 895H173.69ZM173.236 888.068L173.543 886.25H182.634L182.327 888.068H173.236ZM188.803 883.364V895H186.342V885.699H186.274L183.609 887.369V885.188L186.49 883.364H188.803Z" fill="#151A30"/>
<rect width="115" height="57" transform="translate(92 917)" fill="white"/>
<path d="M118.773 943H117.364C117.28 942.595 117.134 942.239 116.926 941.932C116.722 941.625 116.472 941.367 116.176 941.159C115.884 940.947 115.561 940.788 115.205 940.682C114.848 940.576 114.477 940.523 114.091 940.523C113.386 940.523 112.748 940.701 112.176 941.057C111.608 941.413 111.155 941.938 110.818 942.631C110.485 943.324 110.318 944.174 110.318 945.182C110.318 946.189 110.485 947.04 110.818 947.733C111.155 948.426 111.608 948.951 112.176 949.307C112.748 949.663 113.386 949.841 114.091 949.841C114.477 949.841 114.848 949.788 115.205 949.682C115.561 949.576 115.884 949.419 116.176 949.21C116.472 948.998 116.722 948.739 116.926 948.432C117.134 948.121 117.28 947.765 117.364 947.364H118.773C118.667 947.958 118.473 948.491 118.193 948.96C117.913 949.43 117.564 949.83 117.148 950.159C116.731 950.485 116.263 950.733 115.744 950.903C115.229 951.074 114.678 951.159 114.091 951.159C113.098 951.159 112.216 950.917 111.443 950.432C110.67 949.947 110.063 949.258 109.619 948.364C109.176 947.47 108.955 946.409 108.955 945.182C108.955 943.955 109.176 942.894 109.619 942C110.063 941.106 110.67 940.417 111.443 939.932C112.216 939.447 113.098 939.205 114.091 939.205C114.678 939.205 115.229 939.29 115.744 939.46C116.263 939.631 116.731 939.881 117.148 940.21C117.564 940.536 117.913 940.934 118.193 941.403C118.473 941.869 118.667 942.402 118.773 943ZM124.527 951.182C123.686 951.182 122.961 950.996 122.351 950.625C121.745 950.25 121.277 949.727 120.947 949.057C120.622 948.383 120.459 947.598 120.459 946.705C120.459 945.811 120.622 945.023 120.947 944.341C121.277 943.655 121.735 943.121 122.322 942.739C122.913 942.352 123.603 942.159 124.391 942.159C124.845 942.159 125.294 942.235 125.737 942.386C126.18 942.538 126.584 942.784 126.947 943.125C127.311 943.462 127.601 943.909 127.817 944.466C128.033 945.023 128.141 945.708 128.141 946.523V947.091H121.413V945.932H126.777C126.777 945.439 126.679 945 126.482 944.614C126.288 944.227 126.012 943.922 125.652 943.699C125.296 943.475 124.875 943.364 124.391 943.364C123.857 943.364 123.394 943.496 123.004 943.761C122.618 944.023 122.321 944.364 122.112 944.784C121.904 945.205 121.8 945.655 121.8 946.136V946.909C121.8 947.568 121.913 948.127 122.141 948.585C122.372 949.04 122.692 949.386 123.101 949.625C123.51 949.86 123.985 949.977 124.527 949.977C124.879 949.977 125.197 949.928 125.482 949.83C125.769 949.727 126.018 949.576 126.226 949.375C126.434 949.17 126.595 948.917 126.709 948.614L128.004 948.977C127.868 949.417 127.639 949.803 127.317 950.136C126.995 950.466 126.597 950.723 126.124 950.909C125.65 951.091 125.118 951.182 124.527 951.182ZM131.521 939.364V951H130.18V939.364H131.521ZM135.318 939.364V951H133.977V939.364H135.318ZM146.07 942.273V943.409H141.547V942.273H146.07ZM142.865 940.182H144.206V948.5C144.206 948.879 144.261 949.163 144.371 949.352C144.484 949.538 144.628 949.663 144.803 949.727C144.981 949.788 145.168 949.818 145.365 949.818C145.513 949.818 145.634 949.811 145.729 949.795C145.823 949.777 145.899 949.761 145.956 949.75L146.229 950.955C146.138 950.989 146.011 951.023 145.848 951.057C145.685 951.095 145.479 951.114 145.229 951.114C144.85 951.114 144.479 951.032 144.115 950.869C143.755 950.706 143.456 950.458 143.217 950.125C142.982 949.792 142.865 949.371 142.865 948.864V940.182ZM151.652 951.182C150.811 951.182 150.086 950.996 149.476 950.625C148.87 950.25 148.402 949.727 148.072 949.057C147.747 948.383 147.584 947.598 147.584 946.705C147.584 945.811 147.747 945.023 148.072 944.341C148.402 943.655 148.86 943.121 149.447 942.739C150.038 942.352 150.728 942.159 151.516 942.159C151.97 942.159 152.419 942.235 152.862 942.386C153.305 942.538 153.709 942.784 154.072 943.125C154.436 943.462 154.726 943.909 154.942 944.466C155.158 945.023 155.266 945.708 155.266 946.523V947.091H148.538V945.932H153.902C153.902 945.439 153.804 945 153.607 944.614C153.413 944.227 153.137 943.922 152.777 943.699C152.421 943.475 152 943.364 151.516 943.364C150.982 943.364 150.519 943.496 150.129 943.761C149.743 944.023 149.446 944.364 149.237 944.784C149.029 945.205 148.925 945.655 148.925 946.136V946.909C148.925 947.568 149.038 948.127 149.266 948.585C149.497 949.04 149.817 949.386 150.226 949.625C150.635 949.86 151.11 949.977 151.652 949.977C152.004 949.977 152.322 949.928 152.607 949.83C152.894 949.727 153.143 949.576 153.351 949.375C153.559 949.17 153.72 948.917 153.834 948.614L155.129 948.977C154.993 949.417 154.764 949.803 154.442 950.136C154.12 950.466 153.722 950.723 153.249 950.909C152.775 951.091 152.243 951.182 151.652 951.182ZM158.071 942.273L160.162 945.841L162.253 942.273H163.798L160.98 946.636L163.798 951H162.253L160.162 947.614L158.071 951H156.526L159.298 946.636L156.526 942.273H158.071ZM169.507 942.273V943.409H164.984V942.273H169.507ZM166.303 940.182H167.643V948.5C167.643 948.879 167.698 949.163 167.808 949.352C167.922 949.538 168.066 949.663 168.24 949.727C168.418 949.788 168.606 949.818 168.803 949.818C168.95 949.818 169.071 949.811 169.166 949.795C169.261 949.777 169.337 949.761 169.393 949.75L169.666 950.955C169.575 950.989 169.448 951.023 169.286 951.057C169.123 951.095 168.916 951.114 168.666 951.114C168.287 951.114 167.916 951.032 167.553 950.869C167.193 950.706 166.893 950.458 166.655 950.125C166.42 949.792 166.303 949.371 166.303 948.864V940.182Z" fill="#73768C"/>
<rect x="92" y="973" width="115" height="1" fill="#E3E4E8"/>
<rect width="115" height="57" transform="translate(92 974)" fill="white"/>
<path d="M118.773 1000H117.364C117.28 999.595 117.134 999.239 116.926 998.932C116.722 998.625 116.472 998.367 116.176 998.159C115.884 997.947 115.561 997.788 115.205 997.682C114.848 997.576 114.477 997.523 114.091 997.523C113.386 997.523 112.748 997.701 112.176 998.057C111.608 998.413 111.155 998.938 110.818 999.631C110.485 1000.32 110.318 1001.17 110.318 1002.18C110.318 1003.19 110.485 1004.04 110.818 1004.73C111.155 1005.43 111.608 1005.95 112.176 1006.31C112.748 1006.66 113.386 1006.84 114.091 1006.84C114.477 1006.84 114.848 1006.79 115.205 1006.68C115.561 1006.58 115.884 1006.42 116.176 1006.21C116.472 1006 116.722 1005.74 116.926 1005.43C117.134 1005.12 117.28 1004.77 117.364 1004.36H118.773C118.667 1004.96 118.473 1005.49 118.193 1005.96C117.913 1006.43 117.564 1006.83 117.148 1007.16C116.731 1007.48 116.263 1007.73 115.744 1007.9C115.229 1008.07 114.678 1008.16 114.091 1008.16C113.098 1008.16 112.216 1007.92 111.443 1007.43C110.67 1006.95 110.063 1006.26 109.619 1005.36C109.176 1004.47 108.955 1003.41 108.955 1002.18C108.955 1000.95 109.176 999.894 109.619 999C110.063 998.106 110.67 997.417 111.443 996.932C112.216 996.447 113.098 996.205 114.091 996.205C114.678 996.205 115.229 996.29 115.744 996.46C116.263 996.631 116.731 996.881 117.148 997.21C117.564 997.536 117.913 997.934 118.193 998.403C118.473 998.869 118.667 999.402 118.773 1000ZM124.527 1008.18C123.686 1008.18 122.961 1008 122.351 1007.62C121.745 1007.25 121.277 1006.73 120.947 1006.06C120.622 1005.38 120.459 1004.6 120.459 1003.7C120.459 1002.81 120.622 1002.02 120.947 1001.34C121.277 1000.66 121.735 1000.12 122.322 999.739C122.913 999.352 123.603 999.159 124.391 999.159C124.845 999.159 125.294 999.235 125.737 999.386C126.18 999.538 126.584 999.784 126.947 1000.12C127.311 1000.46 127.601 1000.91 127.817 1001.47C128.033 1002.02 128.141 1002.71 128.141 1003.52V1004.09H121.413V1002.93H126.777C126.777 1002.44 126.679 1002 126.482 1001.61C126.288 1001.23 126.012 1000.92 125.652 1000.7C125.296 1000.48 124.875 1000.36 124.391 1000.36C123.857 1000.36 123.394 1000.5 123.004 1000.76C122.618 1001.02 122.321 1001.36 122.112 1001.78C121.904 1002.2 121.8 1002.66 121.8 1003.14V1003.91C121.8 1004.57 121.913 1005.13 122.141 1005.59C122.372 1006.04 122.692 1006.39 123.101 1006.62C123.51 1006.86 123.985 1006.98 124.527 1006.98C124.879 1006.98 125.197 1006.93 125.482 1006.83C125.769 1006.73 126.018 1006.58 126.226 1006.38C126.434 1006.17 126.595 1005.92 126.709 1005.61L128.004 1005.98C127.868 1006.42 127.639 1006.8 127.317 1007.14C126.995 1007.47 126.597 1007.72 126.124 1007.91C125.65 1008.09 125.118 1008.18 124.527 1008.18ZM131.521 996.364V1008H130.18V996.364H131.521ZM135.318 996.364V1008H133.977V996.364H135.318ZM146.07 999.273V1000.41H141.547V999.273H146.07ZM142.865 997.182H144.206V1005.5C144.206 1005.88 144.261 1006.16 144.371 1006.35C144.484 1006.54 144.628 1006.66 144.803 1006.73C144.981 1006.79 145.168 1006.82 145.365 1006.82C145.513 1006.82 145.634 1006.81 145.729 1006.8C145.823 1006.78 145.899 1006.76 145.956 1006.75L146.229 1007.95C146.138 1007.99 146.011 1008.02 145.848 1008.06C145.685 1008.09 145.479 1008.11 145.229 1008.11C144.85 1008.11 144.479 1008.03 144.115 1007.87C143.755 1007.71 143.456 1007.46 143.217 1007.12C142.982 1006.79 142.865 1006.37 142.865 1005.86V997.182ZM151.652 1008.18C150.811 1008.18 150.086 1008 149.476 1007.62C148.87 1007.25 148.402 1006.73 148.072 1006.06C147.747 1005.38 147.584 1004.6 147.584 1003.7C147.584 1002.81 147.747 1002.02 148.072 1001.34C148.402 1000.66 148.86 1000.12 149.447 999.739C150.038 999.352 150.728 999.159 151.516 999.159C151.97 999.159 152.419 999.235 152.862 999.386C153.305 999.538 153.709 999.784 154.072 1000.12C154.436 1000.46 154.726 1000.91 154.942 1001.47C155.158 1002.02 155.266 1002.71 155.266 1003.52V1004.09H148.538V1002.93H153.902C153.902 1002.44 153.804 1002 153.607 1001.61C153.413 1001.23 153.137 1000.92 152.777 1000.7C152.421 1000.48 152 1000.36 151.516 1000.36C150.982 1000.36 150.519 1000.5 150.129 1000.76C149.743 1001.02 149.446 1001.36 149.237 1001.78C149.029 1002.2 148.925 1002.66 148.925 1003.14V1003.91C148.925 1004.57 149.038 1005.13 149.266 1005.59C149.497 1006.04 149.817 1006.39 150.226 1006.62C150.635 1006.86 151.11 1006.98 151.652 1006.98C152.004 1006.98 152.322 1006.93 152.607 1006.83C152.894 1006.73 153.143 1006.58 153.351 1006.38C153.559 1006.17 153.72 1005.92 153.834 1005.61L155.129 1005.98C154.993 1006.42 154.764 1006.8 154.442 1007.14C154.12 1007.47 153.722 1007.72 153.249 1007.91C152.775 1008.09 152.243 1008.18 151.652 1008.18ZM158.071 999.273L160.162 1002.84L162.253 999.273H163.798L160.98 1003.64L163.798 1008H162.253L160.162 1004.61L158.071 1008H156.526L159.298 1003.64L156.526 999.273H158.071ZM169.507 999.273V1000.41H164.984V999.273H169.507ZM166.303 997.182H167.643V1005.5C167.643 1005.88 167.698 1006.16 167.808 1006.35C167.922 1006.54 168.066 1006.66 168.24 1006.73C168.418 1006.79 168.606 1006.82 168.803 1006.82C168.95 1006.82 169.071 1006.81 169.166 1006.8C169.261 1006.78 169.337 1006.76 169.393 1006.75L169.666 1007.95C169.575 1007.99 169.448 1008.02 169.286 1008.06C169.123 1008.09 168.916 1008.11 168.666 1008.11C168.287 1008.11 167.916 1008.03 167.553 1007.87C167.193 1007.71 166.893 1007.46 166.655 1007.12C166.42 1006.79 166.303 1006.37 166.303 1005.86V997.182Z" fill="#73768C"/>
<rect x="92" y="1030" width="115" height="1" fill="#E3E4E8"/>
<rect width="157" height="56" transform="translate(207 861)" fill="#F9F9FA"/>
<path d="M234.278 887.438H231.79C231.744 887.116 231.652 886.83 231.511 886.58C231.371 886.326 231.191 886.11 230.972 885.932C230.752 885.754 230.498 885.617 230.21 885.523C229.926 885.428 229.617 885.381 229.284 885.381C228.682 885.381 228.157 885.53 227.71 885.83C227.263 886.125 226.917 886.557 226.67 887.125C226.424 887.689 226.301 888.375 226.301 889.182C226.301 890.011 226.424 890.708 226.67 891.273C226.92 891.837 227.269 892.263 227.716 892.551C228.163 892.839 228.68 892.983 229.267 892.983C229.597 892.983 229.902 892.939 230.182 892.852C230.466 892.765 230.718 892.638 230.938 892.472C231.157 892.301 231.339 892.095 231.483 891.852C231.631 891.61 231.733 891.333 231.79 891.023L234.278 891.034C234.214 891.568 234.053 892.083 233.795 892.58C233.542 893.072 233.199 893.513 232.767 893.903C232.339 894.29 231.828 894.597 231.233 894.824C230.642 895.047 229.973 895.159 229.227 895.159C228.189 895.159 227.261 894.924 226.443 894.455C225.629 893.985 224.985 893.305 224.511 892.415C224.042 891.525 223.807 890.447 223.807 889.182C223.807 887.913 224.045 886.833 224.523 885.943C225 885.053 225.648 884.375 226.466 883.909C227.284 883.439 228.205 883.205 229.227 883.205C229.902 883.205 230.527 883.299 231.102 883.489C231.682 883.678 232.195 883.955 232.642 884.318C233.089 884.678 233.453 885.119 233.733 885.642C234.017 886.165 234.199 886.763 234.278 887.438ZM239.94 895.17C239.058 895.17 238.295 894.983 237.651 894.608C237.01 894.229 236.516 893.703 236.168 893.028C235.819 892.35 235.645 891.564 235.645 890.67C235.645 889.769 235.819 888.981 236.168 888.307C236.516 887.629 237.01 887.102 237.651 886.727C238.295 886.348 239.058 886.159 239.94 886.159C240.823 886.159 241.584 886.348 242.224 886.727C242.868 887.102 243.365 887.629 243.713 888.307C244.062 888.981 244.236 889.769 244.236 890.67C244.236 891.564 244.062 892.35 243.713 893.028C243.365 893.703 242.868 894.229 242.224 894.608C241.584 894.983 240.823 895.17 239.94 895.17ZM239.952 893.295C240.353 893.295 240.688 893.182 240.957 892.955C241.226 892.723 241.429 892.409 241.565 892.011C241.705 891.614 241.776 891.161 241.776 890.653C241.776 890.146 241.705 889.693 241.565 889.295C241.429 888.898 241.226 888.583 240.957 888.352C240.688 888.121 240.353 888.006 239.952 888.006C239.546 888.006 239.205 888.121 238.929 888.352C238.656 888.583 238.45 888.898 238.31 889.295C238.173 889.693 238.105 890.146 238.105 890.653C238.105 891.161 238.173 891.614 238.31 892.011C238.45 892.409 238.656 892.723 238.929 892.955C239.205 893.182 239.546 893.295 239.952 893.295ZM248.23 883.364V895H245.81V883.364H248.23ZM255.766 891.284V886.273H258.186V895H255.862V893.415H255.771C255.574 893.926 255.247 894.337 254.788 894.648C254.334 894.958 253.779 895.114 253.124 895.114C252.54 895.114 252.027 894.981 251.584 894.716C251.141 894.451 250.794 894.074 250.544 893.585C250.298 893.097 250.173 892.511 250.169 891.83V886.273H252.589V891.398C252.593 891.913 252.732 892.32 253.004 892.619C253.277 892.919 253.643 893.068 254.101 893.068C254.393 893.068 254.665 893.002 254.919 892.869C255.173 892.733 255.377 892.532 255.533 892.267C255.692 892.002 255.769 891.674 255.766 891.284ZM260.122 895V886.273H262.429V887.812H262.531C262.713 887.301 263.016 886.898 263.44 886.602C263.865 886.307 264.372 886.159 264.963 886.159C265.562 886.159 266.071 886.309 266.491 886.608C266.912 886.903 267.192 887.305 267.332 887.812H267.423C267.601 887.312 267.923 886.913 268.389 886.614C268.859 886.311 269.414 886.159 270.054 886.159C270.868 886.159 271.529 886.419 272.037 886.938C272.548 887.453 272.804 888.184 272.804 889.131V895H270.389V889.608C270.389 889.123 270.26 888.759 270.003 888.517C269.745 888.275 269.423 888.153 269.037 888.153C268.598 888.153 268.255 888.294 268.009 888.574C267.762 888.85 267.639 889.216 267.639 889.67V895H265.293V889.557C265.293 889.129 265.17 888.788 264.923 888.534C264.681 888.28 264.361 888.153 263.963 888.153C263.694 888.153 263.452 888.222 263.236 888.358C263.024 888.491 262.855 888.678 262.73 888.92C262.605 889.159 262.543 889.439 262.543 889.761V895H260.122ZM277.136 889.955V895H274.716V886.273H277.023V887.812H277.125C277.318 887.305 277.642 886.903 278.097 886.608C278.551 886.309 279.102 886.159 279.75 886.159C280.356 886.159 280.884 886.292 281.335 886.557C281.786 886.822 282.136 887.201 282.386 887.693C282.636 888.182 282.761 888.765 282.761 889.443V895H280.341V889.875C280.345 889.341 280.208 888.924 279.932 888.625C279.655 888.322 279.275 888.17 278.79 888.17C278.464 888.17 278.176 888.241 277.926 888.381C277.68 888.521 277.487 888.725 277.347 888.994C277.21 889.259 277.14 889.58 277.136 889.955ZM292.781 895L294.69 883.364H296.509L294.599 895H292.781ZM287.571 892.114L287.872 890.295H296.963L296.662 892.114H287.571ZM288.69 895L290.599 883.364H292.418L290.509 895H288.69ZM288.236 888.068L288.543 886.25H297.634L297.327 888.068H288.236ZM298.74 895V893.227L302.882 889.392C303.234 889.051 303.53 888.744 303.768 888.472C304.011 888.199 304.195 887.932 304.32 887.67C304.445 887.405 304.507 887.119 304.507 886.812C304.507 886.472 304.429 886.178 304.274 885.932C304.119 885.682 303.907 885.491 303.638 885.358C303.369 885.222 303.064 885.153 302.723 885.153C302.367 885.153 302.056 885.225 301.791 885.369C301.526 885.513 301.321 885.72 301.178 885.989C301.034 886.258 300.962 886.578 300.962 886.949H298.626C298.626 886.187 298.799 885.527 299.143 884.966C299.488 884.405 299.971 883.972 300.592 883.665C301.214 883.358 301.929 883.205 302.74 883.205C303.573 883.205 304.299 883.352 304.916 883.648C305.537 883.939 306.02 884.345 306.365 884.864C306.71 885.383 306.882 885.977 306.882 886.648C306.882 887.087 306.795 887.521 306.621 887.949C306.45 888.377 306.145 888.852 305.706 889.375C305.267 889.894 304.647 890.517 303.848 891.244L302.149 892.909V892.989H307.036V895H298.74Z" fill="#151A30"/>
<path d="M339.5 892.5L343 896" stroke="#151A30" stroke-width="1.5" stroke-linecap="round" stroke-linejoin="round"/>
<path d="M329 888C329 891.314 331.686 894 335 894C336.66 894 338.162 893.326 339.248 892.237C340.331 891.152 341 889.654 341 888C341 884.686 338.314 882 335 882C331.686 882 329 884.686 329 888Z" stroke="#151A30" stroke-width="1.5" stroke-linecap="round" stroke-linejoin="round"/>
<rect width="157" height="57" transform="translate(207 917)" fill="white"/>
<path d="M233.773 943H232.364C232.28 942.595 232.134 942.239 231.926 941.932C231.722 941.625 231.472 941.367 231.176 941.159C230.884 940.947 230.561 940.788 230.205 940.682C229.848 940.576 229.477 940.523 229.091 940.523C228.386 940.523 227.748 940.701 227.176 941.057C226.608 941.413 226.155 941.938 225.818 942.631C225.485 943.324 225.318 944.174 225.318 945.182C225.318 946.189 225.485 947.04 225.818 947.733C226.155 948.426 226.608 948.951 227.176 949.307C227.748 949.663 228.386 949.841 229.091 949.841C229.477 949.841 229.848 949.788 230.205 949.682C230.561 949.576 230.884 949.419 231.176 949.21C231.472 948.998 231.722 948.739 231.926 948.432C232.134 948.121 232.28 947.765 232.364 947.364H233.773C233.667 947.958 233.473 948.491 233.193 948.96C232.913 949.43 232.564 949.83 232.148 950.159C231.731 950.485 231.263 950.733 230.744 950.903C230.229 951.074 229.678 951.159 229.091 951.159C228.098 951.159 227.216 950.917 226.443 950.432C225.67 949.947 225.063 949.258 224.619 948.364C224.176 947.47 223.955 946.409 223.955 945.182C223.955 943.955 224.176 942.894 224.619 942C225.063 941.106 225.67 940.417 226.443 939.932C227.216 939.447 228.098 939.205 229.091 939.205C229.678 939.205 230.229 939.29 230.744 939.46C231.263 939.631 231.731 939.881 232.148 940.21C232.564 940.536 232.913 940.934 233.193 941.403C233.473 941.869 233.667 942.402 233.773 943ZM239.527 951.182C238.686 951.182 237.961 950.996 237.351 950.625C236.745 950.25 236.277 949.727 235.947 949.057C235.622 948.383 235.459 947.598 235.459 946.705C235.459 945.811 235.622 945.023 235.947 944.341C236.277 943.655 236.735 943.121 237.322 942.739C237.913 942.352 238.603 942.159 239.391 942.159C239.845 942.159 240.294 942.235 240.737 942.386C241.18 942.538 241.584 942.784 241.947 943.125C242.311 943.462 242.601 943.909 242.817 944.466C243.033 945.023 243.141 945.708 243.141 946.523V947.091H236.413V945.932H241.777C241.777 945.439 241.679 945 241.482 944.614C241.288 944.227 241.012 943.922 240.652 943.699C240.296 943.475 239.875 943.364 239.391 943.364C238.857 943.364 238.394 943.496 238.004 943.761C237.618 944.023 237.321 944.364 237.112 944.784C236.904 945.205 236.8 945.655 236.8 946.136V946.909C236.8 947.568 236.913 948.127 237.141 948.585C237.372 949.04 237.692 949.386 238.101 949.625C238.51 949.86 238.985 949.977 239.527 949.977C239.879 949.977 240.197 949.928 240.482 949.83C240.769 949.727 241.018 949.576 241.226 949.375C241.434 949.17 241.595 948.917 241.709 948.614L243.004 948.977C242.868 949.417 242.639 949.803 242.317 950.136C241.995 950.466 241.597 950.723 241.124 950.909C240.65 951.091 240.118 951.182 239.527 951.182ZM246.521 939.364V951H245.18V939.364H246.521ZM250.318 939.364V951H248.977V939.364H250.318ZM261.07 942.273V943.409H256.547V942.273H261.07ZM257.865 940.182H259.206V948.5C259.206 948.879 259.261 949.163 259.371 949.352C259.484 949.538 259.628 949.663 259.803 949.727C259.981 949.788 260.168 949.818 260.365 949.818C260.513 949.818 260.634 949.811 260.729 949.795C260.823 949.777 260.899 949.761 260.956 949.75L261.229 950.955C261.138 950.989 261.011 951.023 260.848 951.057C260.685 951.095 260.479 951.114 260.229 951.114C259.85 951.114 259.479 951.032 259.115 950.869C258.755 950.706 258.456 950.458 258.217 950.125C257.982 949.792 257.865 949.371 257.865 948.864V940.182ZM266.652 951.182C265.811 951.182 265.086 950.996 264.476 950.625C263.87 950.25 263.402 949.727 263.072 949.057C262.747 948.383 262.584 947.598 262.584 946.705C262.584 945.811 262.747 945.023 263.072 944.341C263.402 943.655 263.86 943.121 264.447 942.739C265.038 942.352 265.728 942.159 266.516 942.159C266.97 942.159 267.419 942.235 267.862 942.386C268.305 942.538 268.709 942.784 269.072 943.125C269.436 943.462 269.726 943.909 269.942 944.466C270.158 945.023 270.266 945.708 270.266 946.523V947.091H263.538V945.932H268.902C268.902 945.439 268.804 945 268.607 944.614C268.413 944.227 268.137 943.922 267.777 943.699C267.421 943.475 267 943.364 266.516 943.364C265.982 943.364 265.519 943.496 265.129 943.761C264.743 944.023 264.446 944.364 264.237 944.784C264.029 945.205 263.925 945.655 263.925 946.136V946.909C263.925 947.568 264.038 948.127 264.266 948.585C264.497 949.04 264.817 949.386 265.226 949.625C265.635 949.86 266.11 949.977 266.652 949.977C267.004 949.977 267.322 949.928 267.607 949.83C267.894 949.727 268.143 949.576 268.351 949.375C268.559 949.17 268.72 948.917 268.834 948.614L270.129 948.977C269.993 949.417 269.764 949.803 269.442 950.136C269.12 950.466 268.722 950.723 268.249 950.909C267.775 951.091 267.243 951.182 266.652 951.182ZM273.071 942.273L275.162 945.841L277.253 942.273H278.798L275.98 946.636L278.798 951H277.253L275.162 947.614L273.071 951H271.526L274.298 946.636L271.526 942.273H273.071ZM284.507 942.273V943.409H279.984V942.273H284.507ZM281.303 940.182H282.643V948.5C282.643 948.879 282.698 949.163 282.808 949.352C282.922 949.538 283.066 949.663 283.24 949.727C283.418 949.788 283.606 949.818 283.803 949.818C283.95 949.818 284.071 949.811 284.166 949.795C284.261 949.777 284.337 949.761 284.393 949.75L284.666 950.955C284.575 950.989 284.448 951.023 284.286 951.057C284.123 951.095 283.916 951.114 283.666 951.114C283.287 951.114 282.916 951.032 282.553 950.869C282.193 950.706 281.893 950.458 281.655 950.125C281.42 949.792 281.303 949.371 281.303 948.864V940.182Z" fill="#73768C"/>
<rect x="207" y="973" width="157" height="1" fill="#E3E4E8"/>
<rect width="157" height="57" transform="translate(207 974)" fill="white"/>
<path d="M233.773 1000H232.364C232.28 999.595 232.134 999.239 231.926 998.932C231.722 998.625 231.472 998.367 231.176 998.159C230.884 997.947 230.561 997.788 230.205 997.682C229.848 997.576 229.477 997.523 229.091 997.523C228.386 997.523 227.748 997.701 227.176 998.057C226.608 998.413 226.155 998.938 225.818 999.631C225.485 1000.32 225.318 1001.17 225.318 1002.18C225.318 1003.19 225.485 1004.04 225.818 1004.73C226.155 1005.43 226.608 1005.95 227.176 1006.31C227.748 1006.66 228.386 1006.84 229.091 1006.84C229.477 1006.84 229.848 1006.79 230.205 1006.68C230.561 1006.58 230.884 1006.42 231.176 1006.21C231.472 1006 231.722 1005.74 231.926 1005.43C232.134 1005.12 232.28 1004.77 232.364 1004.36H233.773C233.667 1004.96 233.473 1005.49 233.193 1005.96C232.913 1006.43 232.564 1006.83 232.148 1007.16C231.731 1007.48 231.263 1007.73 230.744 1007.9C230.229 1008.07 229.678 1008.16 229.091 1008.16C228.098 1008.16 227.216 1007.92 226.443 1007.43C225.67 1006.95 225.063 1006.26 224.619 1005.36C224.176 1004.47 223.955 1003.41 223.955 1002.18C223.955 1000.95 224.176 999.894 224.619 999C225.063 998.106 225.67 997.417 226.443 996.932C227.216 996.447 228.098 996.205 229.091 996.205C229.678 996.205 230.229 996.29 230.744 996.46C231.263 996.631 231.731 996.881 232.148 997.21C232.564 997.536 232.913 997.934 233.193 998.403C233.473 998.869 233.667 999.402 233.773 1000ZM239.527 1008.18C238.686 1008.18 237.961 1008 237.351 1007.62C236.745 1007.25 236.277 1006.73 235.947 1006.06C235.622 1005.38 235.459 1004.6 235.459 1003.7C235.459 1002.81 235.622 1002.02 235.947 1001.34C236.277 1000.66 236.735 1000.12 237.322 999.739C237.913 999.352 238.603 999.159 239.391 999.159C239.845 999.159 240.294 999.235 240.737 999.386C241.18 999.538 241.584 999.784 241.947 1000.12C242.311 1000.46 242.601 1000.91 242.817 1001.47C243.033 1002.02 243.141 1002.71 243.141 1003.52V1004.09H236.413V1002.93H241.777C241.777 1002.44 241.679 1002 241.482 1001.61C241.288 1001.23 241.012 1000.92 240.652 1000.7C240.296 1000.48 239.875 1000.36 239.391 1000.36C238.857 1000.36 238.394 1000.5 238.004 1000.76C237.618 1001.02 237.321 1001.36 237.112 1001.78C236.904 1002.2 236.8 1002.66 236.8 1003.14V1003.91C236.8 1004.57 236.913 1005.13 237.141 1005.59C237.372 1006.04 237.692 1006.39 238.101 1006.62C238.51 1006.86 238.985 1006.98 239.527 1006.98C239.879 1006.98 240.197 1006.93 240.482 1006.83C240.769 1006.73 241.018 1006.58 241.226 1006.38C241.434 1006.17 241.595 1005.92 241.709 1005.61L243.004 1005.98C242.868 1006.42 242.639 1006.8 242.317 1007.14C241.995 1007.47 241.597 1007.72 241.124 1007.91C240.65 1008.09 240.118 1008.18 239.527 1008.18ZM246.521 996.364V1008H245.18V996.364H246.521ZM250.318 996.364V1008H248.977V996.364H250.318ZM261.07 999.273V1000.41H256.547V999.273H261.07ZM257.865 997.182H259.206V1005.5C259.206 1005.88 259.261 1006.16 259.371 1006.35C259.484 1006.54 259.628 1006.66 259.803 1006.73C259.981 1006.79 260.168 1006.82 260.365 1006.82C260.513 1006.82 260.634 1006.81 260.729 1006.8C260.823 1006.78 260.899 1006.76 260.956 1006.75L261.229 1007.95C261.138 1007.99 261.011 1008.02 260.848 1008.06C260.685 1008.09 260.479 1008.11 260.229 1008.11C259.85 1008.11 259.479 1008.03 259.115 1007.87C258.755 1007.71 258.456 1007.46 258.217 1007.12C257.982 1006.79 257.865 1006.37 257.865 1005.86V997.182ZM266.652 1008.18C265.811 1008.18 265.086 1008 264.476 1007.62C263.87 1007.25 263.402 1006.73 263.072 1006.06C262.747 1005.38 262.584 1004.6 262.584 1003.7C262.584 1002.81 262.747 1002.02 263.072 1001.34C263.402 1000.66 263.86 1000.12 264.447 999.739C265.038 999.352 265.728 999.159 266.516 999.159C266.97 999.159 267.419 999.235 267.862 999.386C268.305 999.538 268.709 999.784 269.072 1000.12C269.436 1000.46 269.726 1000.91 269.942 1001.47C270.158 1002.02 270.266 1002.71 270.266 1003.52V1004.09H263.538V1002.93H268.902C268.902 1002.44 268.804 1002 268.607 1001.61C268.413 1001.23 268.137 1000.92 267.777 1000.7C267.421 1000.48 267 1000.36 266.516 1000.36C265.982 1000.36 265.519 1000.5 265.129 1000.76C264.743 1001.02 264.446 1001.36 264.237 1001.78C264.029 1002.2 263.925 1002.66 263.925 1003.14V1003.91C263.925 1004.57 264.038 1005.13 264.266 1005.59C264.497 1006.04 264.817 1006.39 265.226 1006.62C265.635 1006.86 266.11 1006.98 266.652 1006.98C267.004 1006.98 267.322 1006.93 267.607 1006.83C267.894 1006.73 268.143 1006.58 268.351 1006.38C268.559 1006.17 268.72 1005.92 268.834 1005.61L270.129 1005.98C269.993 1006.42 269.764 1006.8 269.442 1007.14C269.12 1007.47 268.722 1007.72 268.249 1007.91C267.775 1008.09 267.243 1008.18 266.652 1008.18ZM273.071 999.273L275.162 1002.84L277.253 999.273H278.798L275.98 1003.64L278.798 1008H277.253L275.162 1004.61L273.071 1008H271.526L274.298 1003.64L271.526 999.273H273.071ZM284.507 999.273V1000.41H279.984V999.273H284.507ZM281.303 997.182H282.643V1005.5C282.643 1005.88 282.698 1006.16 282.808 1006.35C282.922 1006.54 283.066 1006.66 283.24 1006.73C283.418 1006.79 283.606 1006.82 283.803 1006.82C283.95 1006.82 284.071 1006.81 284.166 1006.8C284.261 1006.78 284.337 1006.76 284.393 1006.75L284.666 1007.95C284.575 1007.99 284.448 1008.02 284.286 1008.06C284.123 1008.09 283.916 1008.11 283.666 1008.11C283.287 1008.11 282.916 1008.03 282.553 1007.87C282.193 1007.71 281.893 1007.46 281.655 1007.12C281.42 1006.79 281.303 1006.37 281.303 1005.86V997.182Z" fill="#73768C"/>
<rect x="207" y="1030" width="157" height="1" fill="#E3E4E8"/>
<rect width="158" height="56" transform="translate(364 861)" fill="#F9F9FA"/>
<path d="M391.278 887.438H388.79C388.744 887.116 388.652 886.83 388.511 886.58C388.371 886.326 388.191 886.11 387.972 885.932C387.752 885.754 387.498 885.617 387.21 885.523C386.926 885.428 386.617 885.381 386.284 885.381C385.682 885.381 385.157 885.53 384.71 885.83C384.263 886.125 383.917 886.557 383.67 887.125C383.424 887.689 383.301 888.375 383.301 889.182C383.301 890.011 383.424 890.708 383.67 891.273C383.92 891.837 384.269 892.263 384.716 892.551C385.163 892.839 385.68 892.983 386.267 892.983C386.597 892.983 386.902 892.939 387.182 892.852C387.466 892.765 387.718 892.638 387.938 892.472C388.157 892.301 388.339 892.095 388.483 891.852C388.631 891.61 388.733 891.333 388.79 891.023L391.278 891.034C391.214 891.568 391.053 892.083 390.795 892.58C390.542 893.072 390.199 893.513 389.767 893.903C389.339 894.29 388.828 894.597 388.233 894.824C387.642 895.047 386.973 895.159 386.227 895.159C385.189 895.159 384.261 894.924 383.443 894.455C382.629 893.985 381.985 893.305 381.511 892.415C381.042 891.525 380.807 890.447 380.807 889.182C380.807 887.913 381.045 886.833 381.523 885.943C382 885.053 382.648 884.375 383.466 883.909C384.284 883.439 385.205 883.205 386.227 883.205C386.902 883.205 387.527 883.299 388.102 883.489C388.682 883.678 389.195 883.955 389.642 884.318C390.089 884.678 390.453 885.119 390.733 885.642C391.017 886.165 391.199 886.763 391.278 887.438ZM396.94 895.17C396.058 895.17 395.295 894.983 394.651 894.608C394.01 894.229 393.516 893.703 393.168 893.028C392.819 892.35 392.645 891.564 392.645 890.67C392.645 889.769 392.819 888.981 393.168 888.307C393.516 887.629 394.01 887.102 394.651 886.727C395.295 886.348 396.058 886.159 396.94 886.159C397.823 886.159 398.584 886.348 399.224 886.727C399.868 887.102 400.365 887.629 400.713 888.307C401.062 888.981 401.236 889.769 401.236 890.67C401.236 891.564 401.062 892.35 400.713 893.028C400.365 893.703 399.868 894.229 399.224 894.608C398.584 894.983 397.823 895.17 396.94 895.17ZM396.952 893.295C397.353 893.295 397.688 893.182 397.957 892.955C398.226 892.723 398.429 892.409 398.565 892.011C398.705 891.614 398.776 891.161 398.776 890.653C398.776 890.146 398.705 889.693 398.565 889.295C398.429 888.898 398.226 888.583 397.957 888.352C397.688 888.121 397.353 888.006 396.952 888.006C396.546 888.006 396.205 888.121 395.929 888.352C395.656 888.583 395.45 888.898 395.31 889.295C395.173 889.693 395.105 890.146 395.105 890.653C395.105 891.161 395.173 891.614 395.31 892.011C395.45 892.409 395.656 892.723 395.929 892.955C396.205 893.182 396.546 893.295 396.952 893.295ZM405.23 883.364V895H402.81V883.364H405.23ZM412.766 891.284V886.273H415.186V895H412.862V893.415H412.771C412.574 893.926 412.247 894.337 411.788 894.648C411.334 894.958 410.779 895.114 410.124 895.114C409.54 895.114 409.027 894.981 408.584 894.716C408.141 894.451 407.794 894.074 407.544 893.585C407.298 893.097 407.173 892.511 407.169 891.83V886.273H409.589V891.398C409.593 891.913 409.732 892.32 410.004 892.619C410.277 892.919 410.643 893.068 411.101 893.068C411.393 893.068 411.665 893.002 411.919 892.869C412.173 892.733 412.377 892.532 412.533 892.267C412.692 892.002 412.769 891.674 412.766 891.284ZM417.122 895V886.273H419.429V887.812H419.531C419.713 887.301 420.016 886.898 420.44 886.602C420.865 886.307 421.372 886.159 421.963 886.159C422.562 886.159 423.071 886.309 423.491 886.608C423.912 886.903 424.192 887.305 424.332 887.812H424.423C424.601 887.312 424.923 886.913 425.389 886.614C425.859 886.311 426.414 886.159 427.054 886.159C427.868 886.159 428.529 886.419 429.037 886.938C429.548 887.453 429.804 888.184 429.804 889.131V895H427.389V889.608C427.389 889.123 427.26 888.759 427.003 888.517C426.745 888.275 426.423 888.153 426.037 888.153C425.598 888.153 425.255 888.294 425.009 888.574C424.762 888.85 424.639 889.216 424.639 889.67V895H422.293V889.557C422.293 889.129 422.17 888.788 421.923 888.534C421.681 888.28 421.361 888.153 420.963 888.153C420.694 888.153 420.452 888.222 420.236 888.358C420.024 888.491 419.855 888.678 419.73 888.92C419.605 889.159 419.543 889.439 419.543 889.761V895H417.122ZM434.136 889.955V895H431.716V886.273H434.023V887.812H434.125C434.318 887.305 434.642 886.903 435.097 886.608C435.551 886.309 436.102 886.159 436.75 886.159C437.356 886.159 437.884 886.292 438.335 886.557C438.786 886.822 439.136 887.201 439.386 887.693C439.636 888.182 439.761 888.765 439.761 889.443V895H437.341V889.875C437.345 889.341 437.208 888.924 436.932 888.625C436.655 888.322 436.275 888.17 435.79 888.17C435.464 888.17 435.176 888.241 434.926 888.381C434.68 888.521 434.487 888.725 434.347 888.994C434.21 889.259 434.14 889.58 434.136 889.955ZM449.781 895L451.69 883.364H453.509L451.599 895H449.781ZM444.571 892.114L444.872 890.295H453.963L453.662 892.114H444.571ZM445.69 895L447.599 883.364H449.418L447.509 895H445.69ZM445.236 888.068L445.543 886.25H454.634L454.327 888.068H445.236ZM460.041 895.159C459.193 895.159 458.437 895.013 457.774 894.722C457.115 894.426 456.594 894.021 456.212 893.506C455.833 892.987 455.638 892.388 455.626 891.71H458.104C458.119 891.994 458.212 892.244 458.382 892.46C458.556 892.672 458.787 892.837 459.075 892.955C459.363 893.072 459.687 893.131 460.047 893.131C460.422 893.131 460.753 893.064 461.041 892.932C461.329 892.799 461.554 892.616 461.717 892.381C461.88 892.146 461.962 891.875 461.962 891.568C461.962 891.258 461.875 890.983 461.7 890.744C461.53 890.502 461.284 890.312 460.962 890.176C460.643 890.04 460.265 889.972 459.825 889.972H458.74V888.165H459.825C460.196 888.165 460.524 888.1 460.808 887.972C461.096 887.843 461.32 887.665 461.479 887.438C461.638 887.206 461.717 886.938 461.717 886.631C461.717 886.339 461.647 886.083 461.507 885.864C461.371 885.64 461.178 885.466 460.928 885.341C460.681 885.216 460.393 885.153 460.064 885.153C459.731 885.153 459.426 885.214 459.149 885.335C458.873 885.453 458.651 885.621 458.484 885.841C458.318 886.061 458.229 886.318 458.217 886.614H455.859C455.871 885.943 456.062 885.352 456.433 884.841C456.804 884.33 457.304 883.93 457.933 883.642C458.566 883.35 459.28 883.205 460.075 883.205C460.878 883.205 461.581 883.35 462.183 883.642C462.786 883.934 463.253 884.328 463.587 884.824C463.924 885.316 464.09 885.869 464.087 886.483C464.09 887.134 463.888 887.678 463.479 888.114C463.073 888.549 462.545 888.826 461.893 888.943V889.034C462.75 889.144 463.401 889.441 463.848 889.926C464.299 890.407 464.522 891.009 464.518 891.733C464.522 892.396 464.331 892.985 463.945 893.5C463.562 894.015 463.034 894.42 462.359 894.716C461.685 895.011 460.912 895.159 460.041 895.159Z" fill="#151A30"/>
<path d="M488 886L494 892L500 886" stroke="#151A30" stroke-width="1.5" stroke-linecap="round" stroke-linejoin="round"/>
<rect width="158" height="57" transform="translate(364 917)" fill="white"/>
<path d="M438 945.5L441 948.5L448 941.5" stroke="#87CB34" stroke-width="1.5" stroke-linecap="round" stroke-linejoin="round"/>
<path d="M443 955C448.523 955 453 950.523 453 945C453 939.477 448.523 935 443 935C437.477 935 433 939.477 433 945C433 950.523 437.477 955 443 955Z" stroke="#87CB34" stroke-width="1.5" stroke-linecap="round" stroke-linejoin="round"/>
<rect x="364" y="973" width="158" height="1" fill="#E3E4E8"/>
<rect width="158" height="57" transform="translate(364 974)" fill="white"/>
<path d="M438 1002.5L441 1005.5L448 998.5" stroke="#87CB34" stroke-width="1.5" stroke-linecap="round" stroke-linejoin="round"/>
<path d="M443 1012C448.523 1012 453 1007.52 453 1002C453 996.477 448.523 992 443 992C437.477 992 433 996.477 433 1002C433 1007.52 437.477 1012 443 1012Z" stroke="#87CB34" stroke-width="1.5" stroke-linecap="round" stroke-linejoin="round"/>
<rect x="364" y="1030" width="158" height="1" fill="#E3E4E8"/>
<path d="M52.4215 77H43.8988V47.9091H52.9329C55.7075 47.9091 58.0797 48.4867 60.0494 49.642C62.0285 50.7973 63.5437 52.4545 64.5948 54.6136C65.646 56.7727 66.1715 59.3627 66.1715 62.3835C66.1715 65.4328 65.6317 68.0511 64.5522 70.2386C63.4821 72.4167 61.9196 74.0881 59.8647 75.2528C57.8192 76.4176 55.3382 77 52.4215 77ZM46.555 74.6136H52.2653C54.7653 74.6136 56.8581 74.1212 58.5437 73.1364C60.2293 72.1515 61.4935 70.7453 62.3363 68.9176C63.1791 67.09 63.6005 64.9119 63.6005 62.3835C63.591 59.8741 63.1744 57.715 62.3505 55.9062C61.5361 54.0975 60.324 52.7102 58.7141 51.7443C57.1138 50.7784 55.1346 50.2955 52.7766 50.2955H46.555V74.6136ZM78.1779 77.4972C76.8616 77.4972 75.659 77.2415 74.57 76.7301C73.4809 76.2093 72.6145 75.4612 71.9705 74.4858C71.3266 73.5009 71.0046 72.3078 71.0046 70.9062C71.0046 69.8267 71.2082 68.9176 71.6154 68.179C72.0226 67.4403 72.6003 66.8343 73.3484 66.3608C74.0965 65.8873 74.9819 65.5133 76.0046 65.2386C77.0273 64.964 78.1542 64.7509 79.3853 64.5994C80.6069 64.4479 81.6391 64.3153 82.4819 64.2017C83.3342 64.0881 83.9828 63.9081 84.4279 63.6619C84.873 63.4157 85.0955 63.018 85.0955 62.4688V61.9574C85.0955 60.4706 84.6505 59.3011 83.7603 58.4489C82.8796 57.5871 81.6107 57.1562 79.9535 57.1562C78.3815 57.1562 77.0984 57.5019 76.104 58.1932C75.1192 58.8845 74.4279 59.6989 74.0302 60.6364L71.6296 59.7699C72.122 58.5767 72.8039 57.625 73.6751 56.9148C74.5463 56.1951 75.5217 55.679 76.6012 55.3665C77.6808 55.0445 78.7745 54.8835 79.8825 54.8835C80.7158 54.8835 81.5823 54.9924 82.4819 55.2102C83.391 55.428 84.2338 55.8068 85.0103 56.3466C85.7868 56.8769 86.4165 57.6203 86.8995 58.5767C87.3825 59.5237 87.6239 60.7263 87.6239 62.1847V77H85.0955V73.5483H84.9393C84.6362 74.1922 84.1864 74.8172 83.5898 75.4233C82.9933 76.0294 82.2451 76.5265 81.3455 76.9148C80.4459 77.303 79.39 77.4972 78.1779 77.4972ZM78.5188 75.1818C79.8635 75.1818 81.0283 74.8835 82.0131 74.2869C82.998 73.6903 83.7556 72.8996 84.2859 71.9148C84.8256 70.9205 85.0955 69.8267 85.0955 68.6335V65.4801C84.9061 65.66 84.5889 65.821 84.1438 65.9631C83.7082 66.1051 83.2016 66.233 82.6239 66.3466C82.0558 66.4508 81.4876 66.5407 80.9194 66.6165C80.3512 66.6922 79.8398 66.7585 79.3853 66.8153C78.1542 66.9669 77.1031 67.2036 76.2319 67.5256C75.3607 67.8475 74.6931 68.2926 74.229 68.8608C73.765 69.4195 73.533 70.1392 73.533 71.0199C73.533 72.3456 74.0065 73.3731 74.9535 74.1023C75.9004 74.822 77.0889 75.1818 78.5188 75.1818ZM102.944 55.1818V57.3835H92.5316V55.1818H102.944ZM95.7844 49.9545H98.3271V71.304C98.3271 72.2131 98.4833 72.928 98.7958 73.4489C99.1083 73.9602 99.5155 74.3248 100.017 74.5426C100.519 74.7509 101.054 74.8551 101.623 74.8551C101.954 74.8551 102.238 74.8362 102.475 74.7983C102.712 74.7509 102.92 74.7036 103.1 74.6562L103.64 76.9432C103.393 77.0379 103.09 77.1231 102.73 77.1989C102.371 77.2841 101.926 77.3267 101.395 77.3267C100.467 77.3267 99.5723 77.1231 98.7106 76.7159C97.8583 76.3087 97.1576 75.7027 96.6083 74.8977C96.0591 74.0928 95.7844 73.0938 95.7844 71.9006V49.9545ZM114.779 77.4972C113.463 77.4972 112.261 77.2415 111.172 76.7301C110.083 76.2093 109.216 75.4612 108.572 74.4858C107.928 73.5009 107.606 72.3078 107.606 70.9062C107.606 69.8267 107.81 68.9176 108.217 68.179C108.624 67.4403 109.202 66.8343 109.95 66.3608C110.698 65.8873 111.583 65.5133 112.606 65.2386C113.629 64.964 114.756 64.7509 115.987 64.5994C117.208 64.4479 118.241 64.3153 119.083 64.2017C119.936 64.0881 120.584 63.9081 121.029 63.6619C121.475 63.4157 121.697 63.018 121.697 62.4688V61.9574C121.697 60.4706 121.252 59.3011 120.362 58.4489C119.481 57.5871 118.212 57.1562 116.555 57.1562C114.983 57.1562 113.7 57.5019 112.706 58.1932C111.721 58.8845 111.029 59.6989 110.632 60.6364L108.231 59.7699C108.724 58.5767 109.405 57.625 110.277 56.9148C111.148 56.1951 112.123 55.679 113.203 55.3665C114.282 55.0445 115.376 54.8835 116.484 54.8835C117.317 54.8835 118.184 54.9924 119.083 55.2102C119.993 55.428 120.835 55.8068 121.612 56.3466C122.388 56.8769 123.018 57.6203 123.501 58.5767C123.984 59.5237 124.225 60.7263 124.225 62.1847V77H121.697V73.5483H121.541C121.238 74.1922 120.788 74.8172 120.191 75.4233C119.595 76.0294 118.847 76.5265 117.947 76.9148C117.047 77.303 115.992 77.4972 114.779 77.4972ZM115.12 75.1818C116.465 75.1818 117.63 74.8835 118.615 74.2869C119.6 73.6903 120.357 72.8996 120.887 71.9148C121.427 70.9205 121.697 69.8267 121.697 68.6335V65.4801C121.508 65.66 121.19 65.821 120.745 65.9631C120.31 66.1051 119.803 66.233 119.225 66.3466C118.657 66.4508 118.089 66.5407 117.521 66.6165C116.953 66.6922 116.441 66.7585 115.987 66.8153C114.756 66.9669 113.705 67.2036 112.833 67.5256C111.962 67.8475 111.295 68.2926 110.831 68.8608C110.367 69.4195 110.135 70.1392 110.135 71.0199C110.135 72.3456 110.608 73.3731 111.555 74.1023C112.502 74.822 113.69 75.1818 115.12 75.1818ZM150.795 55.1818V57.3835H140.383V55.1818H150.795ZM143.636 49.9545H146.179V71.304C146.179 72.2131 146.335 72.928 146.647 73.4489C146.96 73.9602 147.367 74.3248 147.869 74.5426C148.371 74.7509 148.906 74.8551 149.474 74.8551C149.806 74.8551 150.09 74.8362 150.326 74.7983C150.563 74.7509 150.771 74.7036 150.951 74.6562L151.491 76.9432C151.245 77.0379 150.942 77.1231 150.582 77.1989C150.222 77.2841 149.777 77.3267 149.247 77.3267C148.319 77.3267 147.424 77.1231 146.562 76.7159C145.71 76.3087 145.009 75.7027 144.46 74.8977C143.911 74.0928 143.636 73.0938 143.636 71.9006V49.9545ZM162.631 77.4972C161.315 77.4972 160.112 77.2415 159.023 76.7301C157.934 76.2093 157.068 75.4612 156.424 74.4858C155.78 73.5009 155.458 72.3078 155.458 70.9062C155.458 69.8267 155.661 68.9176 156.069 68.179C156.476 67.4403 157.053 66.8343 157.801 66.3608C158.55 65.8873 159.435 65.5133 160.458 65.2386C161.48 64.964 162.607 64.7509 163.838 64.5994C165.06 64.4479 166.092 64.3153 166.935 64.2017C167.787 64.0881 168.436 63.9081 168.881 63.6619C169.326 63.4157 169.549 63.018 169.549 62.4688V61.9574C169.549 60.4706 169.104 59.3011 168.213 58.4489C167.333 57.5871 166.064 57.1562 164.407 57.1562C162.835 57.1562 161.551 57.5019 160.557 58.1932C159.572 58.8845 158.881 59.6989 158.483 60.6364L156.083 59.7699C156.575 58.5767 157.257 57.625 158.128 56.9148C158.999 56.1951 159.975 55.679 161.054 55.3665C162.134 55.0445 163.228 54.8835 164.336 54.8835C165.169 54.8835 166.035 54.9924 166.935 55.2102C167.844 55.428 168.687 55.8068 169.463 56.3466C170.24 56.8769 170.87 57.6203 171.353 58.5767C171.836 59.5237 172.077 60.7263 172.077 62.1847V77H169.549V73.5483H169.392C169.089 74.1922 168.64 74.8172 168.043 75.4233C167.446 76.0294 166.698 76.5265 165.799 76.9148C164.899 77.303 163.843 77.4972 162.631 77.4972ZM162.972 75.1818C164.317 75.1818 165.481 74.8835 166.466 74.2869C167.451 73.6903 168.209 72.8996 168.739 71.9148C169.279 70.9205 169.549 69.8267 169.549 68.6335V65.4801C169.359 65.66 169.042 65.821 168.597 65.9631C168.161 66.1051 167.655 66.233 167.077 66.3466C166.509 66.4508 165.941 66.5407 165.373 66.6165C164.804 66.6922 164.293 66.7585 163.838 66.8153C162.607 66.9669 161.556 67.2036 160.685 67.5256C159.814 67.8475 159.146 68.2926 158.682 68.8608C158.218 69.4195 157.986 70.1392 157.986 71.0199C157.986 72.3456 158.46 73.3731 159.407 74.1023C160.354 74.822 161.542 75.1818 162.972 75.1818ZM179.328 77V47.9091H181.871V59.3438H182.098C182.382 58.6903 182.79 58.018 183.32 57.3267C183.86 56.6354 184.565 56.0578 185.436 55.5938C186.317 55.1203 187.425 54.8835 188.76 54.8835C190.55 54.8835 192.122 55.357 193.476 56.304C194.83 57.2415 195.886 58.5578 196.644 60.2528C197.401 61.9384 197.78 63.9034 197.78 66.1477C197.78 68.4015 197.401 70.3759 196.644 72.071C195.896 73.7661 194.845 75.0871 193.49 76.0341C192.146 76.9811 190.583 77.4545 188.803 77.4545C187.477 77.4545 186.369 77.2178 185.479 76.7443C184.598 76.2708 183.888 75.6884 183.348 74.9972C182.809 74.2964 182.392 73.6146 182.098 72.9517H181.786V77H179.328ZM181.828 66.1051C181.828 67.8665 182.089 69.429 182.61 70.7926C183.14 72.1468 183.898 73.2121 184.882 73.9886C185.877 74.7557 187.079 75.1392 188.49 75.1392C189.939 75.1392 191.166 74.7415 192.169 73.946C193.173 73.1411 193.935 72.0568 194.456 70.6932C194.977 69.3295 195.238 67.8002 195.238 66.1051C195.238 64.429 194.977 62.9186 194.456 61.5739C193.945 60.2292 193.187 59.1638 192.184 58.3778C191.18 57.5824 189.949 57.1847 188.49 57.1847C187.07 57.1847 185.863 57.5682 184.868 58.3352C183.883 59.0928 183.131 60.1439 182.61 61.4886C182.089 62.8239 181.828 64.3627 181.828 66.1051ZM205.863 47.9091V77H203.334V47.9091H205.863ZM221.374 77.4545C219.338 77.4545 217.577 76.9811 216.09 76.0341C214.603 75.0777 213.453 73.7566 212.638 72.071C211.833 70.3759 211.431 68.4252 211.431 66.2188C211.431 64.0218 211.833 62.071 212.638 60.3665C213.453 58.6525 214.575 57.3125 216.005 56.3466C217.444 55.3712 219.106 54.8835 220.99 54.8835C222.174 54.8835 223.315 55.1013 224.414 55.5369C225.512 55.9631 226.497 56.6212 227.368 57.5114C228.249 58.392 228.945 59.5047 229.456 60.8494C229.968 62.1847 230.223 63.7661 230.223 65.5938V66.8438H213.178V64.6136H227.638C227.638 63.2121 227.354 61.9527 226.786 60.8352C226.227 59.7083 225.446 58.8182 224.442 58.1648C223.448 57.5114 222.297 57.1847 220.99 57.1847C219.608 57.1847 218.391 57.554 217.34 58.2926C216.289 59.0312 215.465 60.0066 214.868 61.2188C214.281 62.4309 213.983 63.7566 213.973 65.196V66.5312C213.973 68.2642 214.272 69.7794 214.868 71.0767C215.474 72.3646 216.331 73.3636 217.439 74.0739C218.547 74.7841 219.859 75.1392 221.374 75.1392C222.406 75.1392 223.31 74.9782 224.087 74.6562C224.873 74.3343 225.531 73.9034 226.061 73.3636C226.601 72.8144 227.008 72.2131 227.283 71.5597L229.684 72.3409C229.352 73.2595 228.808 74.107 228.05 74.8835C227.302 75.66 226.364 76.285 225.238 76.7585C224.12 77.2225 222.832 77.4545 221.374 77.4545ZM250.454 59.9688L248.139 60.6222C247.912 59.9687 247.59 59.3769 247.173 58.8466C246.756 58.3163 246.212 57.8949 245.539 57.5824C244.877 57.2699 244.053 57.1136 243.068 57.1136C241.591 57.1136 240.378 57.464 239.431 58.1648C238.484 58.8655 238.011 59.7699 238.011 60.8778C238.011 61.8153 238.333 62.5777 238.977 63.1648C239.63 63.7424 240.634 64.2017 241.988 64.5426L245.284 65.3523C247.111 65.7973 248.48 66.5028 249.389 67.4688C250.307 68.4347 250.767 69.6468 250.767 71.1051C250.767 72.3362 250.426 73.4299 249.744 74.3864C249.062 75.3428 248.11 76.0956 246.889 76.6449C245.677 77.1847 244.27 77.4545 242.67 77.4545C240.539 77.4545 238.783 76.9763 237.4 76.0199C236.018 75.054 235.132 73.6619 234.744 71.8438L237.173 71.2472C237.485 72.5445 238.096 73.5246 239.005 74.1875C239.924 74.8504 241.131 75.1818 242.627 75.1818C244.304 75.1818 245.644 74.8078 246.647 74.0597C247.651 73.3021 248.153 72.3551 248.153 71.2188C248.153 70.3381 247.859 69.5994 247.272 69.0028C246.685 68.3968 245.795 67.9517 244.602 67.6676L241.037 66.8153C239.143 66.3608 237.741 65.6411 236.832 64.6562C235.923 63.6714 235.468 62.4498 235.468 60.9915C235.468 59.7888 235.795 58.733 236.449 57.8239C237.102 56.9053 238.002 56.1856 239.147 55.6648C240.293 55.1439 241.6 54.8835 243.068 54.8835C245.066 54.8835 246.662 55.3381 247.855 56.2472C249.057 57.1468 249.924 58.3873 250.454 59.9688Z" fill="#C4C8DC"/>
</svg>
