<svg width="480" height="332" viewBox="0 0 480 332" fill="none" xmlns="http://www.w3.org/2000/svg">
<rect width="480" height="332" rx="16" fill="white"/>
<g filter="url(#filter0_d_8_1610)">
<path d="M40 132C40 127.582 43.5817 124 48 124H432C436.418 124 440 127.582 440 132V172H40V132Z" fill="white"/>
<path d="M57.0511 145.648V144.455H67.598V145.648H62.9886V159H61.6605V145.648H57.0511ZM70.3395 159V148.091H71.6108V159H70.3395ZM70.9858 146.216C70.7254 146.216 70.5028 146.128 70.3182 145.953C70.1335 145.773 70.0412 145.558 70.0412 145.307C70.0412 145.056 70.1335 144.843 70.3182 144.668C70.5028 144.488 70.7254 144.398 70.9858 144.398C71.2462 144.398 71.4688 144.488 71.6534 144.668C71.8381 144.843 71.9304 145.056 71.9304 145.307C71.9304 145.558 71.8381 145.773 71.6534 145.953C71.4688 146.128 71.2462 146.216 70.9858 146.216ZM79.2511 148.091V149.192H74.0451V148.091H79.2511ZM75.6715 145.477H76.9428V156.152C76.9428 156.607 77.021 156.964 77.1772 157.224C77.3335 157.48 77.5371 157.662 77.788 157.771C78.0389 157.875 78.3065 157.928 78.5906 157.928C78.7563 157.928 78.8983 157.918 79.0167 157.899C79.1351 157.875 79.2392 157.852 79.3292 157.828L79.5991 158.972C79.476 159.019 79.3245 159.062 79.1445 159.099C78.9646 159.142 78.7421 159.163 78.4769 159.163C78.0129 159.163 77.5655 159.062 77.1346 158.858C76.7085 158.654 76.3581 158.351 76.0835 157.949C75.8088 157.546 75.6715 157.047 75.6715 156.45V145.477ZM83.6207 144.455V159H82.3565V144.455H83.6207ZM91.3764 159.227C90.3584 159.227 89.4777 158.991 88.7344 158.517C87.991 158.039 87.4157 157.378 87.0085 156.536C86.6061 155.688 86.4048 154.713 86.4048 153.609C86.4048 152.511 86.6061 151.536 87.0085 150.683C87.4157 149.826 87.9768 149.156 88.6918 148.673C89.4115 148.186 90.2424 147.942 91.1847 147.942C91.7765 147.942 92.3471 148.051 92.8963 148.268C93.4455 148.482 93.938 148.811 94.3736 149.256C94.8139 149.696 95.1619 150.252 95.4176 150.925C95.6733 151.592 95.8011 152.383 95.8011 153.297V153.922H87.2784V152.807H94.5085C94.5085 152.106 94.3665 151.476 94.0824 150.918C93.803 150.354 93.4124 149.909 92.9105 149.582C92.4134 149.256 91.8381 149.092 91.1847 149.092C90.4934 149.092 89.8849 149.277 89.3594 149.646C88.8338 150.016 88.4219 150.503 88.1236 151.109C87.83 151.715 87.6809 152.378 87.6761 153.098V153.766C87.6761 154.632 87.8253 155.39 88.1236 156.038C88.4266 156.682 88.8551 157.182 89.4091 157.537C89.9631 157.892 90.6188 158.07 91.3764 158.07C91.8925 158.07 92.3447 157.989 92.733 157.828C93.1259 157.667 93.455 157.452 93.7202 157.182C93.9901 156.907 94.1937 156.607 94.331 156.28L95.5312 156.67C95.3655 157.13 95.0933 157.554 94.7145 157.942C94.3404 158.33 93.8717 158.643 93.3082 158.879C92.7495 159.111 92.1056 159.227 91.3764 159.227ZM108.452 159.227C107.51 159.227 106.676 158.988 105.952 158.51C105.232 158.032 104.669 157.371 104.262 156.528C103.855 155.681 103.651 154.703 103.651 153.595C103.651 152.478 103.855 151.495 104.262 150.648C104.669 149.795 105.232 149.133 105.952 148.659C106.676 148.181 107.51 147.942 108.452 147.942C109.394 147.942 110.225 148.181 110.945 148.659C111.665 149.137 112.228 149.8 112.635 150.648C113.047 151.495 113.253 152.478 113.253 153.595C113.253 154.703 113.05 155.681 112.642 156.528C112.235 157.371 111.669 158.032 110.945 158.51C110.225 158.988 109.394 159.227 108.452 159.227ZM108.452 158.07C109.21 158.07 109.851 157.866 110.377 157.459C110.902 157.052 111.3 156.509 111.57 155.832C111.845 155.155 111.982 154.41 111.982 153.595C111.982 152.781 111.845 152.033 111.57 151.351C111.3 150.669 110.902 150.122 110.377 149.71C109.851 149.298 109.21 149.092 108.452 149.092C107.699 149.092 107.058 149.298 106.527 149.71C106.002 150.122 105.602 150.669 105.327 151.351C105.057 152.033 104.922 152.781 104.922 153.595C104.922 154.41 105.057 155.155 105.327 155.832C105.602 156.509 106.002 157.052 106.527 157.459C107.053 157.866 107.694 158.07 108.452 158.07ZM120.517 148.091V149.192H115.155V148.091H120.517ZM116.831 159V146.493C116.831 145.906 116.966 145.411 117.236 145.009C117.51 144.606 117.868 144.301 118.308 144.092C118.749 143.884 119.215 143.78 119.707 143.78C120.039 143.78 120.313 143.808 120.531 143.865C120.754 143.917 120.929 143.969 121.057 144.021L120.688 145.129C120.593 145.101 120.477 145.068 120.339 145.03C120.202 144.992 120.029 144.973 119.821 144.973C119.272 144.973 118.848 145.127 118.55 145.435C118.251 145.742 118.102 146.183 118.102 146.756L118.095 159H116.831ZM132.593 159.227C131.698 159.227 130.914 158.991 130.242 158.517C129.569 158.044 129.044 157.383 128.665 156.536C128.291 155.688 128.104 154.701 128.104 153.574C128.104 152.452 128.291 151.469 128.665 150.626C129.044 149.779 129.572 149.121 130.249 148.652C130.926 148.179 131.714 147.942 132.614 147.942C133.277 147.942 133.828 148.06 134.269 148.297C134.709 148.529 135.062 148.818 135.327 149.163C135.592 149.509 135.798 149.845 135.945 150.172H136.059V144.455H137.33V159H136.094V156.976H135.945C135.798 157.307 135.59 157.648 135.32 157.999C135.05 158.344 134.693 158.635 134.248 158.872C133.807 159.109 133.256 159.227 132.593 159.227ZM132.742 158.07C133.447 158.07 134.049 157.878 134.546 157.494C135.043 157.106 135.422 156.573 135.682 155.896C135.947 155.214 136.08 154.433 136.08 153.553C136.08 152.681 135.95 151.912 135.689 151.244C135.429 150.572 135.05 150.046 134.553 149.668C134.056 149.284 133.452 149.092 132.742 149.092C132.013 149.092 131.397 149.291 130.895 149.689C130.398 150.082 130.019 150.615 129.759 151.287C129.503 151.959 129.375 152.714 129.375 153.553C129.375 154.4 129.506 155.165 129.766 155.847C130.026 156.528 130.405 157.071 130.902 157.473C131.404 157.871 132.017 158.07 132.742 158.07ZM140.945 159V148.091H142.216V159H140.945ZM141.591 146.216C141.331 146.216 141.108 146.128 140.924 145.953C140.739 145.773 140.647 145.558 140.647 145.307C140.647 145.056 140.739 144.843 140.924 144.668C141.108 144.488 141.331 144.398 141.591 144.398C141.852 144.398 142.074 144.488 142.259 144.668C142.444 144.843 142.536 145.056 142.536 145.307C142.536 145.558 142.444 145.773 142.259 145.953C142.074 146.128 141.852 146.216 141.591 146.216ZM148.607 159.249C147.948 159.249 147.347 159.121 146.803 158.865C146.258 158.605 145.825 158.231 145.503 157.743C145.181 157.25 145.02 156.654 145.02 155.953C145.02 155.413 145.122 154.959 145.325 154.589C145.529 154.22 145.818 153.917 146.192 153.68C146.566 153.444 147.009 153.257 147.52 153.119C148.031 152.982 148.595 152.875 149.21 152.8C149.821 152.724 150.337 152.658 150.759 152.601C151.185 152.544 151.509 152.454 151.732 152.331C151.954 152.208 152.065 152.009 152.065 151.734V151.479C152.065 150.735 151.843 150.151 151.398 149.724C150.957 149.294 150.323 149.078 149.494 149.078C148.708 149.078 148.067 149.251 147.57 149.597C147.077 149.942 146.732 150.349 146.533 150.818L145.332 150.385C145.579 149.788 145.92 149.312 146.355 148.957C146.791 148.598 147.278 148.339 147.818 148.183C148.358 148.022 148.905 147.942 149.459 147.942C149.875 147.942 150.309 147.996 150.759 148.105C151.213 148.214 151.634 148.403 152.023 148.673C152.411 148.938 152.726 149.31 152.967 149.788C153.209 150.262 153.33 150.863 153.33 151.592V159H152.065V157.274H151.987C151.836 157.596 151.611 157.909 151.312 158.212C151.014 158.515 150.64 158.763 150.19 158.957C149.741 159.152 149.213 159.249 148.607 159.249ZM148.777 158.091C149.449 158.091 150.032 157.942 150.524 157.643C151.017 157.345 151.395 156.95 151.661 156.457C151.93 155.96 152.065 155.413 152.065 154.817V153.24C151.971 153.33 151.812 153.411 151.589 153.482C151.372 153.553 151.118 153.616 150.83 153.673C150.545 153.725 150.261 153.77 149.977 153.808C149.693 153.846 149.438 153.879 149.21 153.908C148.595 153.983 148.069 154.102 147.634 154.263C147.198 154.424 146.864 154.646 146.632 154.93C146.4 155.21 146.284 155.57 146.284 156.01C146.284 156.673 146.521 157.187 146.994 157.551C147.468 157.911 148.062 158.091 148.777 158.091ZM157.957 144.455V159H156.692V144.455H157.957ZM165.542 159.227C164.6 159.227 163.766 158.988 163.042 158.51C162.322 158.032 161.759 157.371 161.352 156.528C160.944 155.681 160.741 154.703 160.741 153.595C160.741 152.478 160.944 151.495 161.352 150.648C161.759 149.795 162.322 149.133 163.042 148.659C163.766 148.181 164.6 147.942 165.542 147.942C166.484 147.942 167.315 148.181 168.035 148.659C168.754 149.137 169.318 149.8 169.725 150.648C170.137 151.495 170.343 152.478 170.343 153.595C170.343 154.703 170.139 155.681 169.732 156.528C169.325 157.371 168.759 158.032 168.035 158.51C167.315 158.988 166.484 159.227 165.542 159.227ZM165.542 158.07C166.299 158.07 166.941 157.866 167.467 157.459C167.992 157.052 168.39 156.509 168.66 155.832C168.934 155.155 169.072 154.41 169.072 153.595C169.072 152.781 168.934 152.033 168.66 151.351C168.39 150.669 167.992 150.122 167.467 149.71C166.941 149.298 166.299 149.092 165.542 149.092C164.789 149.092 164.147 149.298 163.617 149.71C163.092 150.122 162.692 150.669 162.417 151.351C162.147 152.033 162.012 152.781 162.012 153.595C162.012 154.41 162.147 155.155 162.417 155.832C162.692 156.509 163.092 157.052 163.617 157.459C164.143 157.866 164.784 158.07 165.542 158.07ZM177.28 163.318C176.537 163.318 175.886 163.221 175.327 163.027C174.768 162.838 174.297 162.577 173.914 162.246C173.53 161.914 173.232 161.543 173.019 161.131L174.056 160.449C174.212 160.723 174.42 160.993 174.681 161.259C174.946 161.524 175.289 161.744 175.711 161.919C176.137 162.094 176.66 162.182 177.28 162.182C178.246 162.182 179.025 161.94 179.617 161.457C180.213 160.974 180.512 160.224 180.512 159.206V156.749H180.398C180.251 157.08 180.041 157.411 179.766 157.743C179.491 158.07 179.132 158.342 178.686 158.56C178.246 158.777 177.699 158.886 177.046 158.886C176.175 158.886 175.4 158.671 174.723 158.24C174.051 157.809 173.521 157.194 173.132 156.393C172.749 155.589 172.557 154.63 172.557 153.517C172.557 152.414 172.744 151.443 173.118 150.605C173.497 149.767 174.025 149.114 174.702 148.645C175.379 148.176 176.167 147.942 177.067 147.942C177.735 147.942 178.289 148.06 178.729 148.297C179.169 148.529 179.522 148.818 179.787 149.163C180.057 149.509 180.268 149.845 180.419 150.172H180.547V148.091H181.783V159.284C181.783 160.207 181.587 160.967 181.194 161.564C180.801 162.161 180.266 162.601 179.588 162.885C178.911 163.174 178.142 163.318 177.28 163.318ZM177.195 157.729C177.896 157.729 178.495 157.561 178.992 157.224C179.489 156.884 179.87 156.396 180.135 155.761C180.4 155.127 180.533 154.372 180.533 153.496C180.533 152.643 180.403 151.888 180.142 151.23C179.882 150.567 179.503 150.046 179.006 149.668C178.514 149.284 177.91 149.092 177.195 149.092C176.466 149.092 175.85 149.289 175.348 149.682C174.846 150.075 174.468 150.605 174.212 151.273C173.956 151.936 173.828 152.677 173.828 153.496C173.828 154.329 173.959 155.065 174.219 155.705C174.48 156.339 174.861 156.836 175.363 157.196C175.864 157.551 176.475 157.729 177.195 157.729Z" fill="#151A30"/>
<rect width="400" height="56" transform="translate(40 172)" fill="white"/>
<path d="M57.4091 196V184.364H61.4773C62.2879 184.364 62.9564 184.504 63.483 184.784C64.0095 185.061 64.4015 185.434 64.6591 185.903C64.9167 186.369 65.0455 186.886 65.0455 187.455C65.0455 187.955 64.9564 188.367 64.7784 188.693C64.6042 189.019 64.3731 189.277 64.0852 189.466C63.8011 189.655 63.4924 189.795 63.1591 189.886V190C63.5152 190.023 63.8731 190.148 64.233 190.375C64.5928 190.602 64.8939 190.928 65.1364 191.352C65.3788 191.777 65.5 192.295 65.5 192.909C65.5 193.492 65.3674 194.017 65.1023 194.483C64.8371 194.949 64.4186 195.318 63.8466 195.591C63.2746 195.864 62.5303 196 61.6136 196H57.4091ZM58.8182 194.75H61.6136C62.5341 194.75 63.1875 194.572 63.5739 194.216C63.964 193.856 64.1591 193.42 64.1591 192.909C64.1591 192.515 64.0587 192.152 63.858 191.818C63.6572 191.481 63.3712 191.212 63 191.011C62.6288 190.807 62.1894 190.705 61.6818 190.705H58.8182V194.75ZM58.8182 189.477H61.4318C61.8561 189.477 62.2386 189.394 62.5795 189.227C62.9242 189.061 63.197 188.826 63.3977 188.523C63.6023 188.22 63.7045 187.864 63.7045 187.455C63.7045 186.943 63.5265 186.509 63.1705 186.153C62.8144 185.794 62.25 185.614 61.4773 185.614H58.8182V189.477ZM71.179 196.182C70.3911 196.182 69.6998 195.994 69.1051 195.619C68.5142 195.244 68.0521 194.72 67.7188 194.045C67.3892 193.371 67.2244 192.583 67.2244 191.682C67.2244 190.773 67.3892 189.979 67.7188 189.301C68.0521 188.623 68.5142 188.097 69.1051 187.722C69.6998 187.347 70.3911 187.159 71.179 187.159C71.9669 187.159 72.6563 187.347 73.2472 187.722C73.8419 188.097 74.304 188.623 74.6335 189.301C74.9669 189.979 75.1335 190.773 75.1335 191.682C75.1335 192.583 74.9669 193.371 74.6335 194.045C74.304 194.72 73.8419 195.244 73.2472 195.619C72.6563 195.994 71.9669 196.182 71.179 196.182ZM71.179 194.977C71.7775 194.977 72.2699 194.824 72.6562 194.517C73.0426 194.21 73.3286 193.807 73.5142 193.307C73.6998 192.807 73.7926 192.265 73.7926 191.682C73.7926 191.098 73.6998 190.555 73.5142 190.051C73.3286 189.547 73.0426 189.14 72.6562 188.83C72.2699 188.519 71.7775 188.364 71.179 188.364C70.5805 188.364 70.0881 188.519 69.7017 188.83C69.3153 189.14 69.0294 189.547 68.8438 190.051C68.6581 190.555 68.5653 191.098 68.5653 191.682C68.5653 192.265 68.6581 192.807 68.8438 193.307C69.0294 193.807 69.3153 194.21 69.7017 194.517C70.0881 194.824 70.5805 194.977 71.179 194.977ZM80.4759 196.182C79.7486 196.182 79.1065 195.998 78.5497 195.631C77.9929 195.259 77.5573 194.737 77.2429 194.062C76.9285 193.384 76.7713 192.583 76.7713 191.659C76.7713 190.742 76.9285 189.947 77.2429 189.273C77.5573 188.598 77.9948 188.078 78.5554 187.71C79.116 187.343 79.7637 187.159 80.4986 187.159C81.0668 187.159 81.5156 187.254 81.8452 187.443C82.1785 187.629 82.4323 187.841 82.6065 188.08C82.7846 188.314 82.9228 188.508 83.0213 188.659H83.1349V184.364H84.4759V196H83.1804V194.659H83.0213C82.9228 194.818 82.7827 195.019 82.6009 195.261C82.419 195.5 82.1596 195.714 81.8224 195.903C81.4853 196.089 81.0365 196.182 80.4759 196.182ZM80.6577 194.977C81.1955 194.977 81.6501 194.837 82.0213 194.557C82.3925 194.273 82.6747 193.881 82.8679 193.381C83.0611 192.877 83.1577 192.295 83.1577 191.636C83.1577 190.985 83.063 190.415 82.8736 189.926C82.6842 189.434 82.4039 189.051 82.0327 188.778C81.6615 188.502 81.2031 188.364 80.6577 188.364C80.0895 188.364 79.616 188.509 79.2372 188.801C78.8622 189.089 78.58 189.481 78.3906 189.977C78.205 190.47 78.1122 191.023 78.1122 191.636C78.1122 192.258 78.2069 192.822 78.3963 193.33C78.5895 193.833 78.8736 194.235 79.2486 194.534C79.6274 194.83 80.0971 194.977 80.6577 194.977ZM87.9815 199.273C87.7543 199.273 87.5516 199.254 87.3736 199.216C87.1955 199.182 87.0724 199.148 87.0043 199.114L87.3452 197.932C87.6709 198.015 87.9588 198.045 88.2088 198.023C88.4588 198 88.6804 197.888 88.8736 197.688C89.0705 197.491 89.2505 197.17 89.4134 196.727L89.6634 196.045L86.4361 187.273H87.8906L90.2997 194.227H90.3906L92.7997 187.273H94.2543L90.5497 197.273C90.383 197.723 90.1766 198.097 89.9304 198.392C89.6842 198.691 89.3982 198.913 89.0724 199.057C88.7505 199.201 88.3868 199.273 87.9815 199.273ZM104.32 187.273V188.409H99.7969V187.273H104.32ZM101.115 185.182H102.456V193.5C102.456 193.879 102.511 194.163 102.621 194.352C102.734 194.538 102.878 194.663 103.053 194.727C103.231 194.788 103.418 194.818 103.615 194.818C103.763 194.818 103.884 194.811 103.979 194.795C104.073 194.777 104.149 194.761 104.206 194.75L104.479 195.955C104.388 195.989 104.261 196.023 104.098 196.057C103.935 196.095 103.729 196.114 103.479 196.114C103.1 196.114 102.729 196.032 102.365 195.869C102.005 195.706 101.706 195.458 101.467 195.125C101.232 194.792 101.115 194.371 101.115 193.864V185.182ZM109.902 196.182C109.061 196.182 108.336 195.996 107.726 195.625C107.12 195.25 106.652 194.727 106.322 194.057C105.997 193.383 105.834 192.598 105.834 191.705C105.834 190.811 105.997 190.023 106.322 189.341C106.652 188.655 107.11 188.121 107.697 187.739C108.288 187.352 108.978 187.159 109.766 187.159C110.22 187.159 110.669 187.235 111.112 187.386C111.555 187.538 111.959 187.784 112.322 188.125C112.686 188.462 112.976 188.909 113.192 189.466C113.408 190.023 113.516 190.708 113.516 191.523V192.091H106.788V190.932H112.152C112.152 190.439 112.054 190 111.857 189.614C111.663 189.227 111.387 188.922 111.027 188.699C110.671 188.475 110.25 188.364 109.766 188.364C109.232 188.364 108.769 188.496 108.379 188.761C107.993 189.023 107.696 189.364 107.487 189.784C107.279 190.205 107.175 190.655 107.175 191.136V191.909C107.175 192.568 107.288 193.127 107.516 193.585C107.747 194.04 108.067 194.386 108.476 194.625C108.885 194.86 109.36 194.977 109.902 194.977C110.254 194.977 110.572 194.928 110.857 194.83C111.144 194.727 111.393 194.576 111.601 194.375C111.809 194.17 111.97 193.917 112.084 193.614L113.379 193.977C113.243 194.417 113.014 194.803 112.692 195.136C112.37 195.466 111.972 195.723 111.499 195.909C111.025 196.091 110.493 196.182 109.902 196.182ZM116.321 187.273L118.412 190.841L120.503 187.273H122.048L119.23 191.636L122.048 196H120.503L118.412 192.614L116.321 196H114.776L117.548 191.636L114.776 187.273H116.321ZM127.757 187.273V188.409H123.234V187.273H127.757ZM124.553 185.182H125.893V193.5C125.893 193.879 125.948 194.163 126.058 194.352C126.172 194.538 126.316 194.663 126.49 194.727C126.668 194.788 126.856 194.818 127.053 194.818C127.2 194.818 127.321 194.811 127.416 194.795C127.511 194.777 127.587 194.761 127.643 194.75L127.916 195.955C127.825 195.989 127.698 196.023 127.536 196.057C127.373 196.095 127.166 196.114 126.916 196.114C126.537 196.114 126.166 196.032 125.803 195.869C125.443 195.706 125.143 195.458 124.905 195.125C124.67 194.792 124.553 194.371 124.553 193.864V185.182ZM138.07 187.273V188.409H133.547V187.273H138.07ZM134.865 185.182H136.206V193.5C136.206 193.879 136.261 194.163 136.371 194.352C136.484 194.538 136.628 194.663 136.803 194.727C136.981 194.788 137.168 194.818 137.365 194.818C137.513 194.818 137.634 194.811 137.729 194.795C137.823 194.777 137.899 194.761 137.956 194.75L138.229 195.955C138.138 195.989 138.011 196.023 137.848 196.057C137.685 196.095 137.479 196.114 137.229 196.114C136.85 196.114 136.479 196.032 136.115 195.869C135.755 195.706 135.456 195.458 135.217 195.125C134.982 194.792 134.865 194.371 134.865 193.864V185.182ZM143.538 196.182C142.75 196.182 142.059 195.994 141.464 195.619C140.874 195.244 140.411 194.72 140.078 194.045C139.749 193.371 139.584 192.583 139.584 191.682C139.584 190.773 139.749 189.979 140.078 189.301C140.411 188.623 140.874 188.097 141.464 187.722C142.059 187.347 142.75 187.159 143.538 187.159C144.326 187.159 145.016 187.347 145.607 187.722C146.201 188.097 146.663 188.623 146.993 189.301C147.326 189.979 147.493 190.773 147.493 191.682C147.493 192.583 147.326 193.371 146.993 194.045C146.663 194.72 146.201 195.244 145.607 195.619C145.016 195.994 144.326 196.182 143.538 196.182ZM143.538 194.977C144.137 194.977 144.629 194.824 145.016 194.517C145.402 194.21 145.688 193.807 145.874 193.307C146.059 192.807 146.152 192.265 146.152 191.682C146.152 191.098 146.059 190.555 145.874 190.051C145.688 189.547 145.402 189.14 145.016 188.83C144.629 188.519 144.137 188.364 143.538 188.364C142.94 188.364 142.447 188.519 142.061 188.83C141.675 189.14 141.389 189.547 141.203 190.051C141.018 190.555 140.925 191.098 140.925 191.682C140.925 192.265 141.018 192.807 141.203 193.307C141.389 193.807 141.675 194.21 142.061 194.517C142.447 194.824 142.94 194.977 143.538 194.977ZM154.04 196V187.273H155.381V196H154.04ZM154.722 185.818C154.46 185.818 154.235 185.729 154.045 185.551C153.86 185.373 153.767 185.159 153.767 184.909C153.767 184.659 153.86 184.445 154.045 184.267C154.235 184.089 154.46 184 154.722 184C154.983 184 155.206 184.089 155.392 184.267C155.581 184.445 155.676 184.659 155.676 184.909C155.676 185.159 155.581 185.373 155.392 185.551C155.206 185.729 154.983 185.818 154.722 185.818ZM159.178 190.75V196H157.837V187.273H159.132V188.636H159.246C159.45 188.193 159.761 187.837 160.178 187.568C160.594 187.295 161.132 187.159 161.791 187.159C162.382 187.159 162.899 187.28 163.342 187.523C163.786 187.761 164.13 188.125 164.376 188.614C164.623 189.098 164.746 189.712 164.746 190.455V196H163.405V190.545C163.405 189.86 163.227 189.326 162.871 188.943C162.515 188.557 162.026 188.364 161.405 188.364C160.977 188.364 160.594 188.456 160.257 188.642C159.924 188.828 159.661 189.098 159.467 189.455C159.274 189.811 159.178 190.242 159.178 190.75ZM171.082 187.273V188.409H166.378V187.273H171.082ZM167.787 196V186.068C167.787 185.568 167.904 185.152 168.139 184.818C168.374 184.485 168.679 184.235 169.054 184.068C169.429 183.902 169.825 183.818 170.241 183.818C170.571 183.818 170.84 183.845 171.048 183.898C171.257 183.951 171.412 184 171.514 184.045L171.128 185.205C171.06 185.182 170.965 185.153 170.844 185.119C170.726 185.085 170.571 185.068 170.378 185.068C169.935 185.068 169.615 185.18 169.418 185.403C169.224 185.627 169.128 185.955 169.128 186.386V196H167.787ZM176.148 196.182C175.36 196.182 174.669 195.994 174.074 195.619C173.483 195.244 173.021 194.72 172.688 194.045C172.358 193.371 172.193 192.583 172.193 191.682C172.193 190.773 172.358 189.979 172.688 189.301C173.021 188.623 173.483 188.097 174.074 187.722C174.669 187.347 175.36 187.159 176.148 187.159C176.936 187.159 177.625 187.347 178.216 187.722C178.811 188.097 179.273 188.623 179.602 189.301C179.936 189.979 180.102 190.773 180.102 191.682C180.102 192.583 179.936 193.371 179.602 194.045C179.273 194.72 178.811 195.244 178.216 195.619C177.625 195.994 176.936 196.182 176.148 196.182ZM176.148 194.977C176.746 194.977 177.239 194.824 177.625 194.517C178.011 194.21 178.297 193.807 178.483 193.307C178.669 192.807 178.761 192.265 178.761 191.682C178.761 191.098 178.669 190.555 178.483 190.051C178.297 189.547 178.011 189.14 177.625 188.83C177.239 188.519 176.746 188.364 176.148 188.364C175.549 188.364 175.057 188.519 174.67 188.83C174.284 189.14 173.998 189.547 173.812 190.051C173.627 190.555 173.534 191.098 173.534 191.682C173.534 192.265 173.627 192.807 173.812 193.307C173.998 193.807 174.284 194.21 174.67 194.517C175.057 194.824 175.549 194.977 176.148 194.977ZM182.149 196V187.273H183.445V188.591H183.536C183.695 188.159 183.982 187.809 184.399 187.54C184.816 187.271 185.286 187.136 185.808 187.136C185.907 187.136 186.03 187.138 186.178 187.142C186.325 187.146 186.437 187.152 186.513 187.159V188.523C186.467 188.511 186.363 188.494 186.2 188.472C186.041 188.445 185.873 188.432 185.695 188.432C185.27 188.432 184.892 188.521 184.558 188.699C184.229 188.873 183.967 189.116 183.774 189.426C183.585 189.733 183.49 190.083 183.49 190.477V196H182.149ZM188.102 196V187.273H189.398V188.636H189.511C189.693 188.17 189.987 187.809 190.392 187.551C190.797 187.29 191.284 187.159 191.852 187.159C192.428 187.159 192.907 187.29 193.29 187.551C193.676 187.809 193.977 188.17 194.193 188.636H194.284C194.508 188.186 194.843 187.828 195.29 187.562C195.737 187.294 196.273 187.159 196.898 187.159C197.678 187.159 198.316 187.403 198.812 187.892C199.309 188.377 199.557 189.133 199.557 190.159V196H198.216V190.159C198.216 189.515 198.04 189.055 197.688 188.778C197.335 188.502 196.92 188.364 196.443 188.364C195.83 188.364 195.354 188.549 195.017 188.92C194.68 189.288 194.511 189.754 194.511 190.318V196H193.148V190.023C193.148 189.527 192.987 189.127 192.665 188.824C192.343 188.517 191.928 188.364 191.42 188.364C191.072 188.364 190.746 188.456 190.443 188.642C190.144 188.828 189.902 189.085 189.716 189.415C189.534 189.741 189.443 190.117 189.443 190.545V196H188.102ZM210.304 187.273V188.409H205.781V187.273H210.304ZM207.099 185.182H208.44V193.5C208.44 193.879 208.495 194.163 208.605 194.352C208.719 194.538 208.863 194.663 209.037 194.727C209.215 194.788 209.402 194.818 209.599 194.818C209.747 194.818 209.868 194.811 209.963 194.795C210.058 194.777 210.134 194.761 210.19 194.75L210.463 195.955C210.372 195.989 210.245 196.023 210.082 196.057C209.92 196.095 209.713 196.114 209.463 196.114C209.084 196.114 208.713 196.032 208.349 195.869C207.99 195.706 207.69 195.458 207.452 195.125C207.217 194.792 207.099 194.371 207.099 193.864V185.182ZM213.849 190.75V196H212.509V184.364H213.849V188.636H213.963C214.168 188.186 214.474 187.828 214.884 187.562C215.296 187.294 215.846 187.159 216.531 187.159C217.126 187.159 217.647 187.278 218.094 187.517C218.541 187.752 218.887 188.114 219.134 188.602C219.384 189.087 219.509 189.705 219.509 190.455V196H218.168V190.545C218.168 189.852 217.988 189.316 217.628 188.938C217.272 188.555 216.777 188.364 216.145 188.364C215.705 188.364 215.312 188.456 214.963 188.642C214.618 188.828 214.346 189.098 214.145 189.455C213.948 189.811 213.849 190.242 213.849 190.75ZM225.621 196.182C224.78 196.182 224.054 195.996 223.445 195.625C222.839 195.25 222.371 194.727 222.041 194.057C221.715 193.383 221.553 192.598 221.553 191.705C221.553 190.811 221.715 190.023 222.041 189.341C222.371 188.655 222.829 188.121 223.416 187.739C224.007 187.352 224.696 187.159 225.484 187.159C225.939 187.159 226.388 187.235 226.831 187.386C227.274 187.538 227.678 187.784 228.041 188.125C228.405 188.462 228.695 188.909 228.911 189.466C229.126 190.023 229.234 190.708 229.234 191.523V192.091H222.507V190.932H227.871C227.871 190.439 227.772 190 227.575 189.614C227.382 189.227 227.106 188.922 226.746 188.699C226.39 188.475 225.969 188.364 225.484 188.364C224.95 188.364 224.488 188.496 224.098 188.761C223.712 189.023 223.414 189.364 223.206 189.784C222.998 190.205 222.893 190.655 222.893 191.136V191.909C222.893 192.568 223.007 193.127 223.234 193.585C223.465 194.04 223.786 194.386 224.195 194.625C224.604 194.86 225.079 194.977 225.621 194.977C225.973 194.977 226.291 194.928 226.575 194.83C226.863 194.727 227.111 194.576 227.32 194.375C227.528 194.17 227.689 193.917 227.803 193.614L229.098 193.977C228.962 194.417 228.732 194.803 228.411 195.136C228.089 195.466 227.691 195.723 227.217 195.909C226.744 196.091 226.212 196.182 225.621 196.182ZM241.274 192.432V187.273H242.615V196H241.274V194.523H241.183C240.979 194.966 240.661 195.343 240.229 195.653C239.797 195.96 239.251 196.114 238.592 196.114C238.047 196.114 237.562 195.994 237.138 195.756C236.714 195.513 236.38 195.15 236.138 194.665C235.895 194.176 235.774 193.561 235.774 192.818V187.273H237.115V192.727C237.115 193.364 237.293 193.871 237.649 194.25C238.009 194.629 238.467 194.818 239.024 194.818C239.357 194.818 239.696 194.733 240.041 194.562C240.39 194.392 240.681 194.131 240.916 193.778C241.155 193.426 241.274 192.977 241.274 192.432ZM251.253 189.227L250.048 189.568C249.973 189.367 249.861 189.172 249.713 188.983C249.569 188.79 249.372 188.631 249.122 188.506C248.872 188.381 248.552 188.318 248.162 188.318C247.628 188.318 247.183 188.441 246.827 188.688C246.474 188.93 246.298 189.239 246.298 189.614C246.298 189.947 246.42 190.21 246.662 190.403C246.904 190.597 247.283 190.758 247.798 190.886L249.094 191.205C249.874 191.394 250.455 191.684 250.838 192.074C251.221 192.46 251.412 192.958 251.412 193.568C251.412 194.068 251.268 194.515 250.98 194.909C250.696 195.303 250.298 195.614 249.787 195.841C249.276 196.068 248.681 196.182 248.003 196.182C247.113 196.182 246.376 195.989 245.793 195.602C245.209 195.216 244.84 194.652 244.685 193.909L245.957 193.591C246.079 194.061 246.308 194.413 246.645 194.648C246.986 194.883 247.431 195 247.98 195C248.605 195 249.101 194.867 249.469 194.602C249.84 194.333 250.026 194.011 250.026 193.636C250.026 193.333 249.92 193.08 249.707 192.875C249.495 192.667 249.17 192.511 248.73 192.409L247.276 192.068C246.476 191.879 245.889 191.585 245.514 191.188C245.143 190.786 244.957 190.284 244.957 189.682C244.957 189.189 245.096 188.754 245.372 188.375C245.652 187.996 246.033 187.699 246.514 187.483C246.999 187.267 247.548 187.159 248.162 187.159C249.026 187.159 249.704 187.348 250.196 187.727C250.692 188.106 251.045 188.606 251.253 189.227ZM257.089 196.182C256.249 196.182 255.523 195.996 254.913 195.625C254.307 195.25 253.839 194.727 253.51 194.057C253.184 193.383 253.021 192.598 253.021 191.705C253.021 190.811 253.184 190.023 253.51 189.341C253.839 188.655 254.298 188.121 254.885 187.739C255.476 187.352 256.165 187.159 256.953 187.159C257.408 187.159 257.857 187.235 258.3 187.386C258.743 187.538 259.146 187.784 259.51 188.125C259.874 188.462 260.163 188.909 260.379 189.466C260.595 190.023 260.703 190.708 260.703 191.523V192.091H253.976V190.932H259.339C259.339 190.439 259.241 190 259.044 189.614C258.851 189.227 258.574 188.922 258.214 188.699C257.858 188.475 257.438 188.364 256.953 188.364C256.419 188.364 255.957 188.496 255.567 188.761C255.18 189.023 254.883 189.364 254.675 189.784C254.466 190.205 254.362 190.655 254.362 191.136V191.909C254.362 192.568 254.476 193.127 254.703 193.585C254.934 194.04 255.254 194.386 255.663 194.625C256.072 194.86 256.548 194.977 257.089 194.977C257.442 194.977 257.76 194.928 258.044 194.83C258.332 194.727 258.58 194.576 258.788 194.375C258.997 194.17 259.158 193.917 259.271 193.614L260.567 193.977C260.43 194.417 260.201 194.803 259.879 195.136C259.557 195.466 259.16 195.723 258.686 195.909C258.213 196.091 257.68 196.182 257.089 196.182ZM262.743 196V187.273H264.038V188.591H264.129C264.288 188.159 264.576 187.809 264.993 187.54C265.41 187.271 265.879 187.136 266.402 187.136C266.5 187.136 266.624 187.138 266.771 187.142C266.919 187.146 267.031 187.152 267.107 187.159V188.523C267.061 188.511 266.957 188.494 266.794 188.472C266.635 188.445 266.466 188.432 266.288 188.432C265.864 188.432 265.485 188.521 265.152 188.699C264.822 188.873 264.561 189.116 264.368 189.426C264.179 189.733 264.084 190.083 264.084 190.477V196H262.743ZM275.764 196.205C275.211 196.205 274.709 196.1 274.259 195.892C273.808 195.68 273.45 195.375 273.185 194.977C272.92 194.576 272.787 194.091 272.787 193.523C272.787 193.023 272.885 192.617 273.082 192.307C273.279 191.992 273.543 191.746 273.872 191.568C274.202 191.39 274.565 191.258 274.963 191.17C275.365 191.08 275.768 191.008 276.173 190.955C276.704 190.886 277.134 190.835 277.463 190.801C277.796 190.763 278.039 190.701 278.19 190.614C278.346 190.527 278.423 190.375 278.423 190.159V190.114C278.423 189.553 278.27 189.117 277.963 188.807C277.66 188.496 277.2 188.341 276.582 188.341C275.942 188.341 275.44 188.481 275.077 188.761C274.713 189.042 274.457 189.341 274.31 189.659L273.037 189.205C273.264 188.674 273.567 188.261 273.946 187.966C274.329 187.667 274.745 187.458 275.196 187.341C275.651 187.22 276.098 187.159 276.537 187.159C276.817 187.159 277.139 187.193 277.503 187.261C277.87 187.326 278.224 187.46 278.565 187.665C278.91 187.869 279.196 188.178 279.423 188.591C279.651 189.004 279.764 189.557 279.764 190.25V196H278.423V194.818H278.355C278.264 195.008 278.113 195.21 277.901 195.426C277.688 195.642 277.406 195.826 277.054 195.977C276.702 196.129 276.272 196.205 275.764 196.205ZM275.969 195C276.499 195 276.946 194.896 277.31 194.688C277.677 194.479 277.954 194.21 278.139 193.881C278.329 193.551 278.423 193.205 278.423 192.841V191.614C278.366 191.682 278.241 191.744 278.048 191.801C277.859 191.854 277.639 191.902 277.389 191.943C277.143 191.981 276.902 192.015 276.668 192.045C276.437 192.072 276.249 192.095 276.105 192.114C275.757 192.159 275.431 192.233 275.128 192.335C274.829 192.434 274.586 192.583 274.401 192.784C274.219 192.981 274.128 193.25 274.128 193.591C274.128 194.057 274.3 194.409 274.645 194.648C274.993 194.883 275.435 195 275.969 195ZM282.393 196V184.364H283.734V188.659H283.848C283.946 188.508 284.083 188.314 284.257 188.08C284.435 187.841 284.689 187.629 285.018 187.443C285.352 187.254 285.803 187.159 286.371 187.159C287.106 187.159 287.753 187.343 288.314 187.71C288.875 188.078 289.312 188.598 289.626 189.273C289.941 189.947 290.098 190.742 290.098 191.659C290.098 192.583 289.941 193.384 289.626 194.062C289.312 194.737 288.876 195.259 288.32 195.631C287.763 195.998 287.121 196.182 286.393 196.182C285.833 196.182 285.384 196.089 285.047 195.903C284.71 195.714 284.45 195.5 284.268 195.261C284.087 195.019 283.946 194.818 283.848 194.659H283.689V196H282.393ZM283.712 191.636C283.712 192.295 283.808 192.877 284.001 193.381C284.195 193.881 284.477 194.273 284.848 194.557C285.219 194.837 285.674 194.977 286.212 194.977C286.772 194.977 287.24 194.83 287.615 194.534C287.994 194.235 288.278 193.833 288.467 193.33C288.661 192.822 288.757 192.258 288.757 191.636C288.757 191.023 288.662 190.47 288.473 189.977C288.287 189.481 288.005 189.089 287.626 188.801C287.251 188.509 286.78 188.364 286.212 188.364C285.666 188.364 285.208 188.502 284.837 188.778C284.465 189.051 284.185 189.434 283.996 189.926C283.806 190.415 283.712 190.985 283.712 191.636ZM295.695 196.182C294.907 196.182 294.215 195.994 293.621 195.619C293.03 195.244 292.568 194.72 292.234 194.045C291.905 193.371 291.74 192.583 291.74 191.682C291.74 190.773 291.905 189.979 292.234 189.301C292.568 188.623 293.03 188.097 293.621 187.722C294.215 187.347 294.907 187.159 295.695 187.159C296.482 187.159 297.172 187.347 297.763 187.722C298.357 188.097 298.82 188.623 299.149 189.301C299.482 189.979 299.649 190.773 299.649 191.682C299.649 192.583 299.482 193.371 299.149 194.045C298.82 194.72 298.357 195.244 297.763 195.619C297.172 195.994 296.482 196.182 295.695 196.182ZM295.695 194.977C296.293 194.977 296.786 194.824 297.172 194.517C297.558 194.21 297.844 193.807 298.03 193.307C298.215 192.807 298.308 192.265 298.308 191.682C298.308 191.098 298.215 190.555 298.03 190.051C297.844 189.547 297.558 189.14 297.172 188.83C296.786 188.519 296.293 188.364 295.695 188.364C295.096 188.364 294.604 188.519 294.217 188.83C293.831 189.14 293.545 189.547 293.359 190.051C293.174 190.555 293.081 191.098 293.081 191.682C293.081 192.265 293.174 192.807 293.359 193.307C293.545 193.807 293.831 194.21 294.217 194.517C294.604 194.824 295.096 194.977 295.695 194.977ZM307.196 192.432V187.273H308.537V196H307.196V194.523H307.105C306.901 194.966 306.582 195.343 306.151 195.653C305.719 195.96 305.173 196.114 304.514 196.114C303.969 196.114 303.484 195.994 303.06 195.756C302.635 195.513 302.302 195.15 302.06 194.665C301.817 194.176 301.696 193.561 301.696 192.818V187.273H303.037V192.727C303.037 193.364 303.215 193.871 303.571 194.25C303.931 194.629 304.389 194.818 304.946 194.818C305.279 194.818 305.618 194.733 305.963 194.562C306.312 194.392 306.603 194.131 306.838 193.778C307.077 193.426 307.196 192.977 307.196 192.432ZM314.788 187.273V188.409H310.266V187.273H314.788ZM311.584 185.182H312.925V193.5C312.925 193.879 312.98 194.163 313.089 194.352C313.203 194.538 313.347 194.663 313.521 194.727C313.699 194.788 313.887 194.818 314.084 194.818C314.232 194.818 314.353 194.811 314.447 194.795C314.542 194.777 314.618 194.761 314.675 194.75L314.947 195.955C314.857 195.989 314.73 196.023 314.567 196.057C314.404 196.095 314.197 196.114 313.947 196.114C313.569 196.114 313.197 196.032 312.834 195.869C312.474 195.706 312.175 195.458 311.936 195.125C311.701 194.792 311.584 194.371 311.584 193.864V185.182ZM59.7955 216.205C59.2424 216.205 58.7405 216.1 58.2898 215.892C57.839 215.68 57.4811 215.375 57.2159 214.977C56.9508 214.576 56.8182 214.091 56.8182 213.523C56.8182 213.023 56.9167 212.617 57.1136 212.307C57.3106 211.992 57.5739 211.746 57.9034 211.568C58.233 211.39 58.5966 211.258 58.9943 211.17C59.3958 211.08 59.7992 211.008 60.2045 210.955C60.7348 210.886 61.1648 210.835 61.4943 210.801C61.8277 210.763 62.0701 210.701 62.2216 210.614C62.3769 210.527 62.4545 210.375 62.4545 210.159V210.114C62.4545 209.553 62.3011 209.117 61.9943 208.807C61.6913 208.496 61.2311 208.341 60.6136 208.341C59.9735 208.341 59.4716 208.481 59.108 208.761C58.7443 209.042 58.4886 209.341 58.3409 209.659L57.0682 209.205C57.2955 208.674 57.5985 208.261 57.9773 207.966C58.3598 207.667 58.7765 207.458 59.2273 207.341C59.6818 207.22 60.1288 207.159 60.5682 207.159C60.8485 207.159 61.1705 207.193 61.5341 207.261C61.9015 207.326 62.2557 207.46 62.5966 207.665C62.9413 207.869 63.2273 208.178 63.4545 208.591C63.6818 209.004 63.7955 209.557 63.7955 210.25V216H62.4545V214.818H62.3864C62.2955 215.008 62.1439 215.21 61.9318 215.426C61.7197 215.642 61.4375 215.826 61.0852 215.977C60.733 216.129 60.303 216.205 59.7955 216.205ZM60 215C60.5303 215 60.9773 214.896 61.3409 214.688C61.7083 214.479 61.9848 214.21 62.1705 213.881C62.3598 213.551 62.4545 213.205 62.4545 212.841V211.614C62.3977 211.682 62.2727 211.744 62.0795 211.801C61.8902 211.854 61.6705 211.902 61.4205 211.943C61.1742 211.981 60.9337 212.015 60.6989 212.045C60.4678 212.072 60.2803 212.095 60.1364 212.114C59.7879 212.159 59.4621 212.233 59.1591 212.335C58.8598 212.434 58.6174 212.583 58.4318 212.784C58.25 212.981 58.1591 213.25 58.1591 213.591C58.1591 214.057 58.3314 214.409 58.6761 214.648C59.0246 214.883 59.4659 215 60 215ZM67.5838 210.75V216H66.2429V207.273H67.5384V208.636H67.652C67.8565 208.193 68.1671 207.837 68.5838 207.568C69.0005 207.295 69.5384 207.159 70.1974 207.159C70.7884 207.159 71.3054 207.28 71.7486 207.523C72.1918 207.761 72.5365 208.125 72.7827 208.614C73.0289 209.098 73.152 209.712 73.152 210.455V216H71.8111V210.545C71.8111 209.86 71.633 209.326 71.277 208.943C70.9209 208.557 70.4323 208.364 69.8111 208.364C69.383 208.364 69.0005 208.456 68.6634 208.642C68.33 208.828 68.0668 209.098 67.8736 209.455C67.6804 209.811 67.5838 210.242 67.5838 210.75ZM82.6705 216.205C82.1174 216.205 81.6155 216.1 81.1648 215.892C80.714 215.68 80.3561 215.375 80.0909 214.977C79.8258 214.576 79.6932 214.091 79.6932 213.523C79.6932 213.023 79.7917 212.617 79.9886 212.307C80.1856 211.992 80.4489 211.746 80.7784 211.568C81.108 211.39 81.4716 211.258 81.8693 211.17C82.2708 211.08 82.6742 211.008 83.0795 210.955C83.6098 210.886 84.0398 210.835 84.3693 210.801C84.7027 210.763 84.9451 210.701 85.0966 210.614C85.2519 210.527 85.3295 210.375 85.3295 210.159V210.114C85.3295 209.553 85.1761 209.117 84.8693 208.807C84.5663 208.496 84.1061 208.341 83.4886 208.341C82.8485 208.341 82.3466 208.481 81.983 208.761C81.6193 209.042 81.3636 209.341 81.2159 209.659L79.9432 209.205C80.1705 208.674 80.4735 208.261 80.8523 207.966C81.2348 207.667 81.6515 207.458 82.1023 207.341C82.5568 207.22 83.0038 207.159 83.4432 207.159C83.7235 207.159 84.0455 207.193 84.4091 207.261C84.7765 207.326 85.1307 207.46 85.4716 207.665C85.8163 207.869 86.1023 208.178 86.3295 208.591C86.5568 209.004 86.6705 209.557 86.6705 210.25V216H85.3295V214.818H85.2614C85.1705 215.008 85.0189 215.21 84.8068 215.426C84.5947 215.642 84.3125 215.826 83.9602 215.977C83.608 216.129 83.178 216.205 82.6705 216.205ZM82.875 215C83.4053 215 83.8523 214.896 84.2159 214.688C84.5833 214.479 84.8598 214.21 85.0455 213.881C85.2348 213.551 85.3295 213.205 85.3295 212.841V211.614C85.2727 211.682 85.1477 211.744 84.9545 211.801C84.7652 211.854 84.5455 211.902 84.2955 211.943C84.0492 211.981 83.8087 212.015 83.5739 212.045C83.3428 212.072 83.1553 212.095 83.0114 212.114C82.6629 212.159 82.3371 212.233 82.0341 212.335C81.7348 212.434 81.4924 212.583 81.3068 212.784C81.125 212.981 81.0341 213.25 81.0341 213.591C81.0341 214.057 81.2064 214.409 81.5511 214.648C81.8996 214.883 82.3409 215 82.875 215ZM92.6634 216.182C91.8452 216.182 91.1406 215.989 90.5497 215.602C89.9588 215.216 89.5043 214.684 89.1861 214.006C88.8679 213.328 88.7088 212.553 88.7088 211.682C88.7088 210.795 88.8717 210.013 89.1974 209.335C89.527 208.653 89.9853 208.121 90.5724 207.739C91.1634 207.352 91.8527 207.159 92.6406 207.159C93.2543 207.159 93.8073 207.273 94.2997 207.5C94.7921 207.727 95.1955 208.045 95.5099 208.455C95.8243 208.864 96.0194 209.341 96.0952 209.886H94.7543C94.652 209.489 94.4247 209.136 94.0724 208.83C93.724 208.519 93.2543 208.364 92.6634 208.364C92.1406 208.364 91.6823 208.5 91.2884 208.773C90.8982 209.042 90.5933 209.422 90.3736 209.915C90.1577 210.403 90.0497 210.977 90.0497 211.636C90.0497 212.311 90.1558 212.898 90.3679 213.398C90.5838 213.898 90.8868 214.286 91.277 214.562C91.6709 214.839 92.133 214.977 92.6634 214.977C93.0118 214.977 93.3281 214.917 93.6122 214.795C93.8963 214.674 94.1368 214.5 94.3338 214.273C94.5308 214.045 94.6709 213.773 94.7543 213.455H96.0952C96.0194 213.97 95.8319 214.434 95.5327 214.847C95.2372 215.256 94.8452 215.581 94.3565 215.824C93.8717 216.062 93.3073 216.182 92.6634 216.182ZM101.851 207.273V208.409H97.3281V207.273H101.851ZM98.6463 205.182H99.9872V213.5C99.9872 213.879 100.042 214.163 100.152 214.352C100.266 214.538 100.41 214.663 100.584 214.727C100.762 214.788 100.949 214.818 101.146 214.818C101.294 214.818 101.415 214.811 101.51 214.795C101.605 214.777 101.68 214.761 101.737 214.75L102.01 215.955C101.919 215.989 101.792 216.023 101.629 216.057C101.466 216.095 101.26 216.114 101.01 216.114C100.631 216.114 100.26 216.032 99.8963 215.869C99.5365 215.706 99.2372 215.458 98.9986 215.125C98.7637 214.792 98.6463 214.371 98.6463 213.864V205.182ZM103.868 216V207.273H105.209V216H103.868ZM104.55 205.818C104.288 205.818 104.063 205.729 103.874 205.551C103.688 205.373 103.595 205.159 103.595 204.909C103.595 204.659 103.688 204.445 103.874 204.267C104.063 204.089 104.288 204 104.55 204C104.811 204 105.035 204.089 105.22 204.267C105.41 204.445 105.504 204.659 105.504 204.909C105.504 205.159 105.41 205.373 105.22 205.551C105.035 205.729 104.811 205.818 104.55 205.818ZM111.21 216.182C110.422 216.182 109.731 215.994 109.136 215.619C108.545 215.244 108.083 214.72 107.75 214.045C107.42 213.371 107.256 212.583 107.256 211.682C107.256 210.773 107.42 209.979 107.75 209.301C108.083 208.623 108.545 208.097 109.136 207.722C109.731 207.347 110.422 207.159 111.21 207.159C111.998 207.159 112.688 207.347 113.278 207.722C113.873 208.097 114.335 208.623 114.665 209.301C114.998 209.979 115.165 210.773 115.165 211.682C115.165 212.583 114.998 213.371 114.665 214.045C114.335 214.72 113.873 215.244 113.278 215.619C112.688 215.994 111.998 216.182 111.21 216.182ZM111.21 214.977C111.809 214.977 112.301 214.824 112.688 214.517C113.074 214.21 113.36 213.807 113.545 213.307C113.731 212.807 113.824 212.265 113.824 211.682C113.824 211.098 113.731 210.555 113.545 210.051C113.36 209.547 113.074 209.14 112.688 208.83C112.301 208.519 111.809 208.364 111.21 208.364C110.612 208.364 110.119 208.519 109.733 208.83C109.347 209.14 109.061 209.547 108.875 210.051C108.689 210.555 108.597 211.098 108.597 211.682C108.597 212.265 108.689 212.807 108.875 213.307C109.061 213.807 109.347 214.21 109.733 214.517C110.119 214.824 110.612 214.977 111.21 214.977ZM118.553 210.75V216H117.212V207.273H118.507V208.636H118.621C118.825 208.193 119.136 207.837 119.553 207.568C119.969 207.295 120.507 207.159 121.166 207.159C121.757 207.159 122.274 207.28 122.717 207.523C123.161 207.761 123.505 208.125 123.751 208.614C123.998 209.098 124.121 209.712 124.121 210.455V216H122.78V210.545C122.78 209.86 122.602 209.326 122.246 208.943C121.89 208.557 121.401 208.364 120.78 208.364C120.352 208.364 119.969 208.456 119.632 208.642C119.299 208.828 119.036 209.098 118.842 209.455C118.649 209.811 118.553 210.242 118.553 210.75ZM131.071 216V207.273H132.412V216H131.071ZM131.753 205.818C131.491 205.818 131.266 205.729 131.077 205.551C130.891 205.373 130.798 205.159 130.798 204.909C130.798 204.659 130.891 204.445 131.077 204.267C131.266 204.089 131.491 204 131.753 204C132.014 204 132.238 204.089 132.423 204.267C132.613 204.445 132.707 204.659 132.707 204.909C132.707 205.159 132.613 205.373 132.423 205.551C132.238 205.729 132.014 205.818 131.753 205.818ZM136.209 210.75V216H134.868V207.273H136.163V208.636H136.277C136.482 208.193 136.792 207.837 137.209 207.568C137.625 207.295 138.163 207.159 138.822 207.159C139.413 207.159 139.93 207.28 140.374 207.523C140.817 207.761 141.161 208.125 141.408 208.614C141.654 209.098 141.777 209.712 141.777 210.455V216H140.436V210.545C140.436 209.86 140.258 209.326 139.902 208.943C139.546 208.557 139.057 208.364 138.436 208.364C138.008 208.364 137.625 208.456 137.288 208.642C136.955 208.828 136.692 209.098 136.499 209.455C136.305 209.811 136.209 210.242 136.209 210.75ZM148.727 219.273V207.273H150.023V208.659H150.182C150.28 208.508 150.417 208.314 150.591 208.08C150.769 207.841 151.023 207.629 151.352 207.443C151.686 207.254 152.136 207.159 152.705 207.159C153.439 207.159 154.087 207.343 154.648 207.71C155.208 208.078 155.646 208.598 155.96 209.273C156.275 209.947 156.432 210.742 156.432 211.659C156.432 212.583 156.275 213.384 155.96 214.062C155.646 214.737 155.21 215.259 154.653 215.631C154.097 215.998 153.455 216.182 152.727 216.182C152.167 216.182 151.718 216.089 151.381 215.903C151.044 215.714 150.784 215.5 150.602 215.261C150.42 215.019 150.28 214.818 150.182 214.659H150.068V219.273H148.727ZM150.045 211.636C150.045 212.295 150.142 212.877 150.335 213.381C150.528 213.881 150.811 214.273 151.182 214.557C151.553 214.837 152.008 214.977 152.545 214.977C153.106 214.977 153.574 214.83 153.949 214.534C154.328 214.235 154.612 213.833 154.801 213.33C154.994 212.822 155.091 212.258 155.091 211.636C155.091 211.023 154.996 210.47 154.807 209.977C154.621 209.481 154.339 209.089 153.96 208.801C153.585 208.509 153.114 208.364 152.545 208.364C152 208.364 151.542 208.502 151.17 208.778C150.799 209.051 150.519 209.434 150.33 209.926C150.14 210.415 150.045 210.985 150.045 211.636ZM158.477 216V207.273H159.773V208.591H159.864C160.023 208.159 160.311 207.809 160.727 207.54C161.144 207.271 161.614 207.136 162.136 207.136C162.235 207.136 162.358 207.138 162.506 207.142C162.653 207.146 162.765 207.152 162.841 207.159V208.523C162.795 208.511 162.691 208.494 162.528 208.472C162.369 208.445 162.201 208.432 162.023 208.432C161.598 208.432 161.22 208.521 160.886 208.699C160.557 208.873 160.295 209.116 160.102 209.426C159.913 209.733 159.818 210.083 159.818 210.477V216H158.477ZM167.71 216.182C166.922 216.182 166.231 215.994 165.636 215.619C165.045 215.244 164.583 214.72 164.25 214.045C163.92 213.371 163.756 212.583 163.756 211.682C163.756 210.773 163.92 209.979 164.25 209.301C164.583 208.623 165.045 208.097 165.636 207.722C166.231 207.347 166.922 207.159 167.71 207.159C168.498 207.159 169.188 207.347 169.778 207.722C170.373 208.097 170.835 208.623 171.165 209.301C171.498 209.979 171.665 210.773 171.665 211.682C171.665 212.583 171.498 213.371 171.165 214.045C170.835 214.72 170.373 215.244 169.778 215.619C169.188 215.994 168.498 216.182 167.71 216.182ZM167.71 214.977C168.309 214.977 168.801 214.824 169.188 214.517C169.574 214.21 169.86 213.807 170.045 213.307C170.231 212.807 170.324 212.265 170.324 211.682C170.324 211.098 170.231 210.555 170.045 210.051C169.86 209.547 169.574 209.14 169.188 208.83C168.801 208.519 168.309 208.364 167.71 208.364C167.112 208.364 166.619 208.519 166.233 208.83C165.847 209.14 165.561 209.547 165.375 210.051C165.189 210.555 165.097 211.098 165.097 211.682C165.097 212.265 165.189 212.807 165.375 213.307C165.561 213.807 165.847 214.21 166.233 214.517C166.619 214.824 167.112 214.977 167.71 214.977ZM177.234 219.455C176.587 219.455 176.03 219.371 175.564 219.205C175.098 219.042 174.71 218.826 174.399 218.557C174.092 218.292 173.848 218.008 173.666 217.705L174.734 216.955C174.856 217.114 175.009 217.295 175.195 217.5C175.38 217.708 175.634 217.888 175.956 218.04C176.282 218.195 176.708 218.273 177.234 218.273C177.939 218.273 178.52 218.102 178.979 217.761C179.437 217.42 179.666 216.886 179.666 216.159V214.386H179.553C179.454 214.545 179.314 214.742 179.132 214.977C178.954 215.208 178.696 215.415 178.359 215.597C178.026 215.775 177.575 215.864 177.007 215.864C176.303 215.864 175.67 215.697 175.109 215.364C174.553 215.03 174.111 214.545 173.786 213.909C173.464 213.273 173.303 212.5 173.303 211.591C173.303 210.697 173.46 209.919 173.774 209.256C174.089 208.589 174.526 208.074 175.087 207.71C175.647 207.343 176.295 207.159 177.03 207.159C177.598 207.159 178.049 207.254 178.382 207.443C178.719 207.629 178.977 207.841 179.155 208.08C179.337 208.314 179.477 208.508 179.575 208.659H179.712V207.273H181.007V216.25C181.007 217 180.837 217.61 180.496 218.08C180.159 218.553 179.704 218.9 179.132 219.119C178.564 219.343 177.931 219.455 177.234 219.455ZM177.189 214.659C177.727 214.659 178.181 214.536 178.553 214.29C178.924 214.044 179.206 213.689 179.399 213.227C179.592 212.765 179.689 212.212 179.689 211.568C179.689 210.939 179.594 210.384 179.405 209.903C179.215 209.422 178.935 209.045 178.564 208.773C178.193 208.5 177.734 208.364 177.189 208.364C176.621 208.364 176.147 208.508 175.768 208.795C175.393 209.083 175.111 209.47 174.922 209.955C174.736 210.439 174.643 210.977 174.643 211.568C174.643 212.174 174.738 212.71 174.928 213.176C175.121 213.638 175.405 214.002 175.78 214.267C176.159 214.528 176.628 214.659 177.189 214.659ZM183.462 216V207.273H184.757V208.591H184.848C185.007 208.159 185.295 207.809 185.712 207.54C186.128 207.271 186.598 207.136 187.121 207.136C187.219 207.136 187.342 207.138 187.49 207.142C187.638 207.146 187.75 207.152 187.825 207.159V208.523C187.78 208.511 187.676 208.494 187.513 208.472C187.354 208.445 187.185 208.432 187.007 208.432C186.583 208.432 186.204 208.521 185.871 208.699C185.541 208.873 185.28 209.116 185.087 209.426C184.897 209.733 184.803 210.083 184.803 210.477V216H183.462ZM192.808 216.182C191.967 216.182 191.242 215.996 190.632 215.625C190.026 215.25 189.558 214.727 189.229 214.057C188.903 213.383 188.74 212.598 188.74 211.705C188.74 210.811 188.903 210.023 189.229 209.341C189.558 208.655 190.017 208.121 190.604 207.739C191.195 207.352 191.884 207.159 192.672 207.159C193.126 207.159 193.575 207.235 194.018 207.386C194.462 207.538 194.865 207.784 195.229 208.125C195.592 208.462 195.882 208.909 196.098 209.466C196.314 210.023 196.422 210.708 196.422 211.523V212.091H189.695V210.932H195.058C195.058 210.439 194.96 210 194.763 209.614C194.57 209.227 194.293 208.922 193.933 208.699C193.577 208.475 193.157 208.364 192.672 208.364C192.138 208.364 191.676 208.496 191.286 208.761C190.899 209.023 190.602 209.364 190.393 209.784C190.185 210.205 190.081 210.655 190.081 211.136V211.909C190.081 212.568 190.195 213.127 190.422 213.585C190.653 214.04 190.973 214.386 191.382 214.625C191.791 214.86 192.267 214.977 192.808 214.977C193.161 214.977 193.479 214.928 193.763 214.83C194.051 214.727 194.299 214.576 194.507 214.375C194.715 214.17 194.876 213.917 194.99 213.614L196.286 213.977C196.149 214.417 195.92 214.803 195.598 215.136C195.276 215.466 194.878 215.723 194.405 215.909C193.931 216.091 193.399 216.182 192.808 216.182ZM204.643 209.227L203.439 209.568C203.363 209.367 203.251 209.172 203.104 208.983C202.96 208.79 202.763 208.631 202.513 208.506C202.263 208.381 201.943 208.318 201.553 208.318C201.018 208.318 200.573 208.441 200.217 208.688C199.865 208.93 199.689 209.239 199.689 209.614C199.689 209.947 199.81 210.21 200.053 210.403C200.295 210.597 200.674 210.758 201.189 210.886L202.484 211.205C203.265 211.394 203.846 211.684 204.229 212.074C204.611 212.46 204.803 212.958 204.803 213.568C204.803 214.068 204.659 214.515 204.371 214.909C204.087 215.303 203.689 215.614 203.178 215.841C202.666 216.068 202.071 216.182 201.393 216.182C200.503 216.182 199.767 215.989 199.183 215.602C198.6 215.216 198.231 214.652 198.075 213.909L199.348 213.591C199.469 214.061 199.698 214.413 200.036 214.648C200.376 214.883 200.821 215 201.371 215C201.996 215 202.492 214.867 202.859 214.602C203.231 214.333 203.416 214.011 203.416 213.636C203.416 213.333 203.31 213.08 203.098 212.875C202.886 212.667 202.56 212.511 202.121 212.409L200.666 212.068C199.867 211.879 199.28 211.585 198.905 211.188C198.534 210.786 198.348 210.284 198.348 209.682C198.348 209.189 198.486 208.754 198.763 208.375C199.043 207.996 199.424 207.699 199.905 207.483C200.39 207.267 200.939 207.159 201.553 207.159C202.416 207.159 203.094 207.348 203.587 207.727C204.083 208.106 204.435 208.606 204.643 209.227ZM213.003 209.227L211.798 209.568C211.723 209.367 211.611 209.172 211.463 208.983C211.319 208.79 211.122 208.631 210.872 208.506C210.622 208.381 210.302 208.318 209.912 208.318C209.378 208.318 208.933 208.441 208.577 208.688C208.224 208.93 208.048 209.239 208.048 209.614C208.048 209.947 208.17 210.21 208.412 210.403C208.654 210.597 209.033 210.758 209.548 210.886L210.844 211.205C211.624 211.394 212.205 211.684 212.588 212.074C212.971 212.46 213.162 212.958 213.162 213.568C213.162 214.068 213.018 214.515 212.73 214.909C212.446 215.303 212.048 215.614 211.537 215.841C211.026 216.068 210.431 216.182 209.753 216.182C208.863 216.182 208.126 215.989 207.543 215.602C206.959 215.216 206.59 214.652 206.435 213.909L207.707 213.591C207.829 214.061 208.058 214.413 208.395 214.648C208.736 214.883 209.181 215 209.73 215C210.355 215 210.851 214.867 211.219 214.602C211.59 214.333 211.776 214.011 211.776 213.636C211.776 213.333 211.67 213.08 211.457 212.875C211.245 212.667 210.92 212.511 210.48 212.409L209.026 212.068C208.226 211.879 207.639 211.585 207.264 211.188C206.893 210.786 206.707 210.284 206.707 209.682C206.707 209.189 206.846 208.754 207.122 208.375C207.402 207.996 207.783 207.699 208.264 207.483C208.749 207.267 209.298 207.159 209.912 207.159C210.776 207.159 211.454 207.348 211.946 207.727C212.442 208.106 212.795 208.606 213.003 209.227ZM216.158 216.091C215.877 216.091 215.637 215.991 215.436 215.79C215.235 215.589 215.135 215.348 215.135 215.068C215.135 214.788 215.235 214.547 215.436 214.347C215.637 214.146 215.877 214.045 216.158 214.045C216.438 214.045 216.679 214.146 216.879 214.347C217.08 214.547 217.18 214.788 217.18 215.068C217.18 215.254 217.133 215.424 217.038 215.58C216.947 215.735 216.824 215.86 216.669 215.955C216.518 216.045 216.347 216.091 216.158 216.091Z" fill="#151A30"/>
<path d="M40 228H440V284C440 288.418 436.418 292 432 292H48C43.5817 292 40 288.418 40 284V228Z" fill="white"/>
<rect x="250" y="244" width="85" height="32" rx="8" fill="#73768C"/>
<path d="M262.959 264V255.273H266.155C266.774 255.273 267.287 255.375 267.693 255.58C268.099 255.781 268.403 256.055 268.605 256.402C268.807 256.746 268.908 257.134 268.908 257.565C268.908 257.929 268.841 258.236 268.707 258.486C268.574 258.733 268.395 258.932 268.17 259.082C267.949 259.23 267.705 259.338 267.438 259.406V259.491C267.727 259.506 268.01 259.599 268.286 259.773C268.564 259.943 268.794 260.186 268.976 260.501C269.158 260.817 269.249 261.2 269.249 261.652C269.249 262.098 269.143 262.499 268.933 262.854C268.726 263.206 268.405 263.486 267.97 263.693C267.536 263.898 266.98 264 266.304 264H262.959ZM264.276 262.871H266.176C266.807 262.871 267.259 262.749 267.531 262.504C267.804 262.26 267.94 261.955 267.94 261.588C267.94 261.312 267.871 261.06 267.732 260.83C267.592 260.599 267.393 260.416 267.135 260.28C266.879 260.143 266.575 260.075 266.223 260.075H264.276V262.871ZM264.276 259.048H266.04C266.335 259.048 266.601 258.991 266.837 258.878C267.075 258.764 267.264 258.605 267.403 258.401C267.545 258.193 267.616 257.949 267.616 257.668C267.616 257.307 267.49 257.004 267.237 256.76C266.984 256.516 266.597 256.393 266.074 256.393H264.276V259.048ZM276.423 255.273H277.744V261.013C277.744 261.624 277.6 262.165 277.313 262.636C277.026 263.105 276.623 263.474 276.103 263.744C275.583 264.011 274.974 264.145 274.275 264.145C273.579 264.145 272.971 264.011 272.451 263.744C271.931 263.474 271.528 263.105 271.241 262.636C270.954 262.165 270.81 261.624 270.81 261.013V255.273H272.127V260.906C272.127 261.301 272.214 261.652 272.387 261.959C272.563 262.266 272.812 262.507 273.133 262.683C273.454 262.857 273.835 262.943 274.275 262.943C274.718 262.943 275.1 262.857 275.421 262.683C275.745 262.507 275.992 262.266 276.163 261.959C276.336 261.652 276.423 261.301 276.423 260.906V255.273ZM279.228 256.406V255.273H285.982V256.406H283.259V264H281.946V256.406H279.228ZM287.044 256.406V255.273H293.798V256.406H291.075V264H289.763V256.406H287.044ZM302.497 259.636C302.497 260.568 302.326 261.369 301.985 262.04C301.645 262.707 301.177 263.222 300.583 263.582C299.993 263.94 299.321 264.119 298.568 264.119C297.812 264.119 297.137 263.94 296.544 263.582C295.953 263.222 295.487 262.706 295.146 262.036C294.805 261.365 294.635 260.565 294.635 259.636C294.635 258.705 294.805 257.905 295.146 257.237C295.487 256.567 295.953 256.053 296.544 255.695C297.137 255.334 297.812 255.153 298.568 255.153C299.321 255.153 299.993 255.334 300.583 255.695C301.177 256.053 301.645 256.567 301.985 257.237C302.326 257.905 302.497 258.705 302.497 259.636ZM301.193 259.636C301.193 258.926 301.078 258.328 300.848 257.842C300.62 257.354 300.308 256.984 299.91 256.734C299.515 256.482 299.068 256.355 298.568 256.355C298.065 256.355 297.616 256.482 297.221 256.734C296.826 256.984 296.514 257.354 296.284 257.842C296.056 258.328 295.943 258.926 295.943 259.636C295.943 260.347 296.056 260.946 296.284 261.435C296.514 261.92 296.826 262.29 297.221 262.543C297.616 262.793 298.065 262.918 298.568 262.918C299.068 262.918 299.515 262.793 299.91 262.543C300.308 262.29 300.62 261.92 300.848 261.435C301.078 260.946 301.193 260.347 301.193 259.636ZM311.183 255.273V264H309.972L305.536 257.599H305.455V264H304.138V255.273H305.357L309.798 261.682H309.879V255.273H311.183ZM316.16 264V263.045L319.113 259.986C319.428 259.653 319.688 259.362 319.893 259.112C320.1 258.859 320.255 258.619 320.357 258.392C320.46 258.165 320.511 257.923 320.511 257.668C320.511 257.378 320.442 257.128 320.306 256.918C320.17 256.705 319.984 256.541 319.748 256.428C319.512 256.311 319.246 256.253 318.951 256.253C318.638 256.253 318.366 256.317 318.133 256.445C317.9 256.572 317.721 256.753 317.596 256.986C317.471 257.219 317.408 257.491 317.408 257.804H316.151C316.151 257.273 316.273 256.808 316.518 256.411C316.762 256.013 317.097 255.705 317.523 255.486C317.95 255.264 318.434 255.153 318.977 255.153C319.525 255.153 320.008 255.263 320.425 255.482C320.846 255.697 321.174 255.993 321.41 256.368C321.646 256.74 321.763 257.161 321.763 257.629C321.763 257.953 321.702 258.27 321.58 258.58C321.461 258.889 321.252 259.234 320.954 259.615C320.656 259.993 320.241 260.452 319.71 260.991L317.975 262.807V262.871H321.904V264H316.16Z" fill="white"/>
<rect x="341" y="244" width="83" height="32" rx="8" fill="#0E69F1"/>
<path d="M353.959 264V255.273H357.155C357.774 255.273 358.287 255.375 358.693 255.58C359.099 255.781 359.403 256.055 359.605 256.402C359.807 256.746 359.908 257.134 359.908 257.565C359.908 257.929 359.841 258.236 359.707 258.486C359.574 258.733 359.395 258.932 359.17 259.082C358.949 259.23 358.705 259.338 358.438 259.406V259.491C358.727 259.506 359.01 259.599 359.286 259.773C359.564 259.943 359.794 260.186 359.976 260.501C360.158 260.817 360.249 261.2 360.249 261.652C360.249 262.098 360.143 262.499 359.933 262.854C359.726 263.206 359.405 263.486 358.97 263.693C358.536 263.898 357.98 264 357.304 264H353.959ZM355.276 262.871H357.176C357.807 262.871 358.259 262.749 358.531 262.504C358.804 262.26 358.94 261.955 358.94 261.588C358.94 261.312 358.871 261.06 358.732 260.83C358.592 260.599 358.393 260.416 358.135 260.28C357.879 260.143 357.575 260.075 357.223 260.075H355.276V262.871ZM355.276 259.048H357.04C357.335 259.048 357.601 258.991 357.837 258.878C358.075 258.764 358.264 258.605 358.403 258.401C358.545 258.193 358.616 257.949 358.616 257.668C358.616 257.307 358.49 257.004 358.237 256.76C357.984 256.516 357.597 256.393 357.074 256.393H355.276V259.048ZM367.423 255.273H368.744V261.013C368.744 261.624 368.6 262.165 368.313 262.636C368.026 263.105 367.623 263.474 367.103 263.744C366.583 264.011 365.974 264.145 365.275 264.145C364.579 264.145 363.971 264.011 363.451 263.744C362.931 263.474 362.528 263.105 362.241 262.636C361.954 262.165 361.81 261.624 361.81 261.013V255.273H363.127V260.906C363.127 261.301 363.214 261.652 363.387 261.959C363.563 262.266 363.812 262.507 364.133 262.683C364.454 262.857 364.835 262.943 365.275 262.943C365.718 262.943 366.1 262.857 366.421 262.683C366.745 262.507 366.992 262.266 367.163 261.959C367.336 261.652 367.423 261.301 367.423 260.906V255.273ZM370.228 256.406V255.273H376.982V256.406H374.259V264H372.946V256.406H370.228ZM378.044 256.406V255.273H384.798V256.406H382.075V264H380.763V256.406H378.044ZM393.497 259.636C393.497 260.568 393.326 261.369 392.985 262.04C392.645 262.707 392.177 263.222 391.583 263.582C390.993 263.94 390.321 264.119 389.568 264.119C388.812 264.119 388.137 263.94 387.544 263.582C386.953 263.222 386.487 262.706 386.146 262.036C385.805 261.365 385.635 260.565 385.635 259.636C385.635 258.705 385.805 257.905 386.146 257.237C386.487 256.567 386.953 256.053 387.544 255.695C388.137 255.334 388.812 255.153 389.568 255.153C390.321 255.153 390.993 255.334 391.583 255.695C392.177 256.053 392.645 256.567 392.985 257.237C393.326 257.905 393.497 258.705 393.497 259.636ZM392.193 259.636C392.193 258.926 392.078 258.328 391.848 257.842C391.62 257.354 391.308 256.984 390.91 256.734C390.515 256.482 390.068 256.355 389.568 256.355C389.065 256.355 388.616 256.482 388.221 256.734C387.826 256.984 387.514 257.354 387.284 257.842C387.056 258.328 386.943 258.926 386.943 259.636C386.943 260.347 387.056 260.946 387.284 261.435C387.514 261.92 387.826 262.29 388.221 262.543C388.616 262.793 389.065 262.918 389.568 262.918C390.068 262.918 390.515 262.793 390.91 262.543C391.308 262.29 391.62 261.92 391.848 261.435C392.078 260.946 392.193 260.347 392.193 259.636ZM402.183 255.273V264H400.972L396.536 257.599H396.455V264H395.138V255.273H396.357L400.798 261.682H400.879V255.273H402.183ZM410.471 255.273V264H409.15V256.594H409.099L407.011 257.957V256.696L409.188 255.273H410.471Z" fill="white"/>
</g>
<path d="M52.8317 77H44.3089V47.9091H53.343C56.1177 47.9091 58.4898 48.4867 60.4595 49.642C62.4387 50.7973 63.9538 52.4545 65.005 54.6136C66.0561 56.7727 66.5817 59.3627 66.5817 62.3835C66.5817 65.4328 66.0419 68.0511 64.9624 70.2386C63.8923 72.4167 62.3298 74.0881 60.2749 75.2528C58.2294 76.4176 55.7483 77 52.8317 77ZM46.9652 74.6136H52.6754C55.1754 74.6136 57.2682 74.1212 58.9538 73.1364C60.6394 72.1515 61.9036 70.7453 62.7464 68.9176C63.5893 67.09 64.0107 64.9119 64.0107 62.3835C64.0012 59.8741 63.5845 57.715 62.7607 55.9062C61.9463 54.0975 60.7341 52.7102 59.1243 51.7443C57.5239 50.7784 55.5447 50.2955 53.1868 50.2955H46.9652V74.6136ZM72.5227 77V55.1818H75.0653V77H72.5227ZM73.8153 51.4318C73.2945 51.4318 72.8494 51.2566 72.4801 50.9062C72.1108 50.5464 71.9261 50.1155 71.9261 49.6136C71.9261 49.1117 72.1108 48.6856 72.4801 48.3352C72.8494 47.9754 73.2945 47.7955 73.8153 47.7955C74.3362 47.7955 74.7813 47.9754 75.1506 48.3352C75.5199 48.6856 75.7045 49.1117 75.7045 49.6136C75.7045 50.1155 75.5199 50.5464 75.1506 50.9062C74.7813 51.2566 74.3362 51.4318 73.8153 51.4318ZM87.8459 77.4972C86.5296 77.4972 85.3269 77.2415 84.2379 76.7301C83.1489 76.2093 82.2824 75.4612 81.6385 74.4858C80.9946 73.5009 80.6726 72.3078 80.6726 70.9062C80.6726 69.8267 80.8762 68.9176 81.2834 68.179C81.6906 67.4403 82.2682 66.8343 83.0163 66.3608C83.7644 65.8873 84.6499 65.5133 85.6726 65.2386C86.6953 64.964 87.8222 64.7509 89.0533 64.5994C90.2749 64.4479 91.3071 64.3153 92.1499 64.2017C93.0021 64.0881 93.6508 63.9081 94.0959 63.6619C94.541 63.4157 94.7635 63.018 94.7635 62.4688V61.9574C94.7635 60.4706 94.3184 59.3011 93.4283 58.4489C92.5476 57.5871 91.2786 57.1562 89.6214 57.1562C88.0495 57.1562 86.7663 57.5019 85.772 58.1932C84.7872 58.8845 84.0959 59.6989 83.6982 60.6364L81.2976 59.7699C81.79 58.5767 82.4718 57.625 83.343 56.9148C84.2143 56.1951 85.1896 55.679 86.2692 55.3665C87.3487 55.0445 88.4425 54.8835 89.5504 54.8835C90.3838 54.8835 91.2502 54.9924 92.1499 55.2102C93.0589 55.428 93.9018 55.8068 94.6783 56.3466C95.4548 56.8769 96.0845 57.6203 96.5675 58.5767C97.0504 59.5237 97.2919 60.7263 97.2919 62.1847V77H94.7635V73.5483H94.6072C94.3042 74.1922 93.8544 74.8172 93.2578 75.4233C92.6612 76.0294 91.9131 76.5265 91.0135 76.9148C90.1139 77.303 89.058 77.4972 87.8459 77.4972ZM88.1868 75.1818C89.5315 75.1818 90.6963 74.8835 91.6811 74.2869C92.666 73.6903 93.4235 72.8996 93.9538 71.9148C94.4936 70.9205 94.7635 69.8267 94.7635 68.6335V65.4801C94.5741 65.66 94.2569 65.821 93.8118 65.9631C93.3762 66.1051 92.8696 66.233 92.2919 66.3466C91.7237 66.4508 91.1555 66.5407 90.5874 66.6165C90.0192 66.6922 89.5078 66.7585 89.0533 66.8153C87.8222 66.9669 86.7711 67.2036 85.8999 67.5256C85.0286 67.8475 84.361 68.2926 83.897 68.8608C83.433 69.4195 83.201 70.1392 83.201 71.0199C83.201 72.3456 83.6745 73.3731 84.6214 74.1023C85.5684 74.822 86.7569 75.1818 88.1868 75.1818ZM106.546 47.9091V77H104.018V47.9091H106.546ZM121.717 77.4545C119.832 77.4545 118.165 76.9763 116.717 76.0199C115.277 75.0634 114.15 73.7424 113.336 72.0568C112.522 70.3617 112.114 68.4062 112.114 66.1903C112.114 63.9555 112.522 61.9905 113.336 60.2955C114.15 58.5909 115.277 57.2652 116.717 56.3182C118.165 55.3617 119.832 54.8835 121.717 54.8835C123.601 54.8835 125.263 55.3617 126.702 56.3182C128.142 57.2746 129.269 58.6004 130.083 60.2955C130.907 61.9905 131.319 63.9555 131.319 66.1903C131.319 68.4062 130.912 70.3617 130.097 72.0568C129.283 73.7424 128.151 75.0634 126.702 76.0199C125.263 76.9763 123.601 77.4545 121.717 77.4545ZM121.717 75.1392C123.232 75.1392 124.515 74.732 125.566 73.9176C126.617 73.1032 127.413 72.0189 127.952 70.6648C128.502 69.3106 128.776 67.8191 128.776 66.1903C128.776 64.5616 128.502 63.0653 127.952 61.7017C127.413 60.3381 126.617 59.2443 125.566 58.4205C124.515 57.5966 123.232 57.1847 121.717 57.1847C120.211 57.1847 118.928 57.5966 117.867 58.4205C116.816 59.2443 116.016 60.3381 115.467 61.7017C114.927 63.0653 114.657 64.5616 114.657 66.1903C114.657 67.8191 114.927 69.3106 115.467 70.6648C116.016 72.0189 116.816 73.1032 117.867 73.9176C118.918 74.732 120.201 75.1392 121.717 75.1392ZM145.193 85.6364C143.706 85.6364 142.404 85.4422 141.287 85.054C140.17 84.6752 139.227 84.1544 138.46 83.4915C137.693 82.8286 137.097 82.0852 136.67 81.2614L138.744 79.8977C139.057 80.447 139.473 80.9867 139.994 81.517C140.525 82.0473 141.211 82.4877 142.054 82.8381C142.906 83.1884 143.953 83.3636 145.193 83.3636C147.125 83.3636 148.683 82.8807 149.866 81.9148C151.06 80.9489 151.656 79.4479 151.656 77.4119V72.4972H151.429C151.135 73.16 150.714 73.8229 150.165 74.4858C149.616 75.1392 148.896 75.6837 148.006 76.1193C147.125 76.5549 146.031 76.7727 144.724 76.7727C142.982 76.7727 141.434 76.3419 140.08 75.4801C138.735 74.6184 137.674 73.3873 136.898 71.7869C136.131 70.1771 135.747 68.2595 135.747 66.0341C135.747 63.8277 136.121 61.8864 136.869 60.2102C137.627 58.5341 138.683 57.2273 140.037 56.2898C141.391 55.3523 142.968 54.8835 144.767 54.8835C146.102 54.8835 147.21 55.1203 148.091 55.5938C148.972 56.0578 149.677 56.6354 150.207 57.3267C150.747 58.018 151.169 58.6903 151.472 59.3438H151.727V55.1818H154.199V77.5682C154.199 79.4148 153.806 80.9347 153.02 82.1278C152.234 83.321 151.164 84.2017 149.81 84.7699C148.455 85.3475 146.917 85.6364 145.193 85.6364ZM145.023 74.4574C146.424 74.4574 147.622 74.1212 148.616 73.4489C149.611 72.767 150.373 71.7917 150.903 70.5227C151.434 69.2538 151.699 67.7434 151.699 65.9915C151.699 64.2869 151.438 62.7765 150.918 61.4602C150.397 60.1345 149.639 59.0928 148.645 58.3352C147.66 57.5682 146.453 57.1847 145.023 57.1847C143.564 57.1847 142.333 57.5777 141.33 58.3636C140.326 59.1496 139.568 60.2102 139.057 61.5455C138.545 62.8712 138.29 64.3532 138.29 65.9915C138.29 67.6581 138.55 69.1307 139.071 70.4091C139.592 71.678 140.354 72.6723 141.358 73.392C142.362 74.1023 143.583 74.4574 145.023 74.4574Z" fill="#C4C8DC"/>
<defs>
<filter id="filter0_d_8_1610" x="34" y="122" width="412" height="180" filterUnits="userSpaceOnUse" color-interpolation-filters="sRGB">
<feFlood flood-opacity="0" result="BackgroundImageFix"/>
<feColorMatrix in="SourceAlpha" type="matrix" values="0 0 0 0 0 0 0 0 0 0 0 0 0 0 0 0 0 0 127 0" result="hardAlpha"/>
<feOffset dy="4"/>
<feGaussianBlur stdDeviation="3"/>
<feComposite in2="hardAlpha" operator="out"/>
<feColorMatrix type="matrix" values="0 0 0 0 0 0 0 0 0 0 0 0 0 0 0 0 0 0 0.1 0"/>
<feBlend mode="normal" in2="BackgroundImageFix" result="effect1_dropShadow_8_1610"/>
<feBlend mode="normal" in="SourceGraphic" in2="effect1_dropShadow_8_1610" result="shape"/>
</filter>
</defs>
</svg>
