<svg width="685" height="652" viewBox="0 0 685 652" fill="none" xmlns="http://www.w3.org/2000/svg">
<rect width="685" height="652" rx="16" fill="white"/>
<g filter="url(#filter0_d_134_633)">
<g clip-path="url(#clip0_134_633)">
<rect width="160" height="40" transform="translate(263 124)" fill="white"/>
<path d="M284.415 148H283.307L286.511 139.273H287.602L290.807 148H289.699L287.091 140.653H287.023L284.415 148ZM284.824 144.591H289.29V145.528H284.824V144.591ZM294.689 148.136C294.075 148.136 293.547 147.991 293.104 147.702C292.661 147.412 292.32 147.013 292.081 146.504C291.842 145.996 291.723 145.415 291.723 144.761C291.723 144.097 291.845 143.51 292.089 143.001C292.337 142.49 292.68 142.091 293.121 141.804C293.564 141.514 294.081 141.369 294.672 141.369C295.132 141.369 295.547 141.455 295.916 141.625C296.286 141.795 296.588 142.034 296.824 142.341C297.06 142.648 297.206 143.006 297.263 143.415H296.257C296.18 143.116 296.01 142.852 295.746 142.622C295.484 142.389 295.132 142.273 294.689 142.273C294.297 142.273 293.953 142.375 293.658 142.58C293.365 142.781 293.136 143.067 292.972 143.436C292.81 143.803 292.729 144.233 292.729 144.727C292.729 145.233 292.808 145.673 292.967 146.048C293.129 146.423 293.357 146.714 293.649 146.922C293.945 147.129 294.291 147.233 294.689 147.233C294.95 147.233 295.188 147.188 295.401 147.097C295.614 147.006 295.794 146.875 295.942 146.705C296.089 146.534 296.195 146.33 296.257 146.091H297.263C297.206 146.477 297.065 146.825 296.841 147.135C296.619 147.442 296.325 147.686 295.959 147.868C295.595 148.047 295.172 148.136 294.689 148.136ZM301.58 141.455V142.307H298.188V141.455H301.58ZM299.176 139.886H300.182V146.125C300.182 146.409 300.223 146.622 300.305 146.764C300.391 146.903 300.499 146.997 300.629 147.045C300.763 147.091 300.903 147.114 301.051 147.114C301.162 147.114 301.253 147.108 301.324 147.097C301.395 147.082 301.452 147.071 301.494 147.062L301.699 147.966C301.631 147.991 301.536 148.017 301.413 148.043C301.291 148.071 301.136 148.085 300.949 148.085C300.665 148.085 300.386 148.024 300.114 147.902C299.844 147.78 299.619 147.594 299.44 147.344C299.264 147.094 299.176 146.778 299.176 146.398V139.886ZM303.092 148V141.455H304.098V148H303.092ZM303.604 140.364C303.408 140.364 303.239 140.297 303.097 140.163C302.957 140.03 302.888 139.869 302.888 139.682C302.888 139.494 302.957 139.334 303.097 139.2C303.239 139.067 303.408 139 303.604 139C303.8 139 303.967 139.067 304.107 139.2C304.249 139.334 304.32 139.494 304.32 139.682C304.32 139.869 304.249 140.03 304.107 140.163C303.967 140.297 303.8 140.364 303.604 140.364ZM308.599 148.136C308.008 148.136 307.49 147.996 307.044 147.714C306.6 147.433 306.254 147.04 306.004 146.534C305.757 146.028 305.633 145.437 305.633 144.761C305.633 144.08 305.757 143.484 306.004 142.976C306.254 142.467 306.6 142.072 307.044 141.791C307.49 141.51 308.008 141.369 308.599 141.369C309.19 141.369 309.707 141.51 310.15 141.791C310.596 142.072 310.943 142.467 311.19 142.976C311.44 143.484 311.565 144.08 311.565 144.761C311.565 145.437 311.44 146.028 311.19 146.534C310.943 147.04 310.596 147.433 310.15 147.714C309.707 147.996 309.19 148.136 308.599 148.136ZM308.599 147.233C309.048 147.233 309.417 147.118 309.707 146.888C309.997 146.658 310.211 146.355 310.35 145.98C310.49 145.605 310.559 145.199 310.559 144.761C310.559 144.324 310.49 143.916 310.35 143.538C310.211 143.161 309.997 142.855 309.707 142.622C309.417 142.389 309.048 142.273 308.599 142.273C308.15 142.273 307.781 142.389 307.491 142.622C307.201 142.855 306.987 143.161 306.848 143.538C306.708 143.916 306.639 144.324 306.639 144.761C306.639 145.199 306.708 145.605 306.848 145.98C306.987 146.355 307.201 146.658 307.491 146.888C307.781 147.118 308.15 147.233 308.599 147.233ZM314.106 144.062V148H313.1V141.455H314.072V142.477H314.157C314.31 142.145 314.543 141.878 314.856 141.676C315.168 141.472 315.572 141.369 316.066 141.369C316.509 141.369 316.897 141.46 317.229 141.642C317.562 141.821 317.82 142.094 318.005 142.46C318.19 142.824 318.282 143.284 318.282 143.841V148H317.276V143.909C317.276 143.395 317.143 142.994 316.876 142.707C316.609 142.418 316.242 142.273 315.776 142.273C315.455 142.273 315.168 142.342 314.915 142.482C314.665 142.621 314.468 142.824 314.323 143.091C314.178 143.358 314.106 143.682 314.106 144.062ZM326.546 139.273V148H325.489V140.381H325.438L323.307 141.795V140.722L325.489 139.273H326.546Z" fill="#151A30"/>
<rect width="160" height="40" transform="translate(263 164)" fill="white"/>
<path d="M284.415 188H283.307L286.511 179.273H287.602L290.807 188H289.699L287.091 180.653H287.023L284.415 188ZM284.824 184.591H289.29V185.528H284.824V184.591ZM294.689 188.136C294.075 188.136 293.547 187.991 293.104 187.702C292.661 187.412 292.32 187.013 292.081 186.504C291.842 185.996 291.723 185.415 291.723 184.761C291.723 184.097 291.845 183.51 292.089 183.001C292.337 182.49 292.68 182.091 293.121 181.804C293.564 181.514 294.081 181.369 294.672 181.369C295.132 181.369 295.547 181.455 295.916 181.625C296.286 181.795 296.588 182.034 296.824 182.341C297.06 182.648 297.206 183.006 297.263 183.415H296.257C296.18 183.116 296.01 182.852 295.746 182.622C295.484 182.389 295.132 182.273 294.689 182.273C294.297 182.273 293.953 182.375 293.658 182.58C293.365 182.781 293.136 183.067 292.972 183.436C292.81 183.803 292.729 184.233 292.729 184.727C292.729 185.233 292.808 185.673 292.967 186.048C293.129 186.423 293.357 186.714 293.649 186.922C293.945 187.129 294.291 187.233 294.689 187.233C294.95 187.233 295.188 187.188 295.401 187.097C295.614 187.006 295.794 186.875 295.942 186.705C296.089 186.534 296.195 186.33 296.257 186.091H297.263C297.206 186.477 297.065 186.825 296.841 187.135C296.619 187.442 296.325 187.686 295.959 187.868C295.595 188.047 295.172 188.136 294.689 188.136ZM301.58 181.455V182.307H298.188V181.455H301.58ZM299.176 179.886H300.182V186.125C300.182 186.409 300.223 186.622 300.305 186.764C300.391 186.903 300.499 186.997 300.629 187.045C300.763 187.091 300.903 187.114 301.051 187.114C301.162 187.114 301.253 187.108 301.324 187.097C301.395 187.082 301.452 187.071 301.494 187.062L301.699 187.966C301.631 187.991 301.536 188.017 301.413 188.043C301.291 188.071 301.136 188.085 300.949 188.085C300.665 188.085 300.386 188.024 300.114 187.902C299.844 187.78 299.619 187.594 299.44 187.344C299.264 187.094 299.176 186.778 299.176 186.398V179.886ZM303.092 188V181.455H304.098V188H303.092ZM303.604 180.364C303.408 180.364 303.239 180.297 303.097 180.163C302.957 180.03 302.888 179.869 302.888 179.682C302.888 179.494 302.957 179.334 303.097 179.2C303.239 179.067 303.408 179 303.604 179C303.8 179 303.967 179.067 304.107 179.2C304.249 179.334 304.32 179.494 304.32 179.682C304.32 179.869 304.249 180.03 304.107 180.163C303.967 180.297 303.8 180.364 303.604 180.364ZM308.599 188.136C308.008 188.136 307.49 187.996 307.044 187.714C306.6 187.433 306.254 187.04 306.004 186.534C305.757 186.028 305.633 185.437 305.633 184.761C305.633 184.08 305.757 183.484 306.004 182.976C306.254 182.467 306.6 182.072 307.044 181.791C307.49 181.51 308.008 181.369 308.599 181.369C309.19 181.369 309.707 181.51 310.15 181.791C310.596 182.072 310.943 182.467 311.19 182.976C311.44 183.484 311.565 184.08 311.565 184.761C311.565 185.437 311.44 186.028 311.19 186.534C310.943 187.04 310.596 187.433 310.15 187.714C309.707 187.996 309.19 188.136 308.599 188.136ZM308.599 187.233C309.048 187.233 309.417 187.118 309.707 186.888C309.997 186.658 310.211 186.355 310.35 185.98C310.49 185.605 310.559 185.199 310.559 184.761C310.559 184.324 310.49 183.916 310.35 183.538C310.211 183.161 309.997 182.855 309.707 182.622C309.417 182.389 309.048 182.273 308.599 182.273C308.15 182.273 307.781 182.389 307.491 182.622C307.201 182.855 306.987 183.161 306.848 183.538C306.708 183.916 306.639 184.324 306.639 184.761C306.639 185.199 306.708 185.605 306.848 185.98C306.987 186.355 307.201 186.658 307.491 186.888C307.781 187.118 308.15 187.233 308.599 187.233ZM314.106 184.062V188H313.1V181.455H314.072V182.477H314.157C314.31 182.145 314.543 181.878 314.856 181.676C315.168 181.472 315.572 181.369 316.066 181.369C316.509 181.369 316.897 181.46 317.229 181.642C317.562 181.821 317.82 182.094 318.005 182.46C318.19 182.824 318.282 183.284 318.282 183.841V188H317.276V183.909C317.276 183.395 317.143 182.994 316.876 182.707C316.609 182.418 316.242 182.273 315.776 182.273C315.455 182.273 315.168 182.342 314.915 182.482C314.665 182.621 314.468 182.824 314.323 183.091C314.178 183.358 314.106 183.682 314.106 184.062ZM323.478 188V187.233L326.358 184.08C326.696 183.71 326.975 183.389 327.194 183.116C327.412 182.841 327.574 182.582 327.679 182.341C327.787 182.097 327.841 181.841 327.841 181.574C327.841 181.267 327.767 181.001 327.62 180.777C327.475 180.553 327.276 180.379 327.023 180.257C326.77 180.135 326.486 180.074 326.171 180.074C325.836 180.074 325.543 180.143 325.293 180.283C325.046 180.419 324.854 180.611 324.718 180.858C324.584 181.105 324.517 181.395 324.517 181.727H323.512C323.512 181.216 323.63 180.767 323.865 180.381C324.101 179.994 324.422 179.693 324.828 179.477C325.238 179.261 325.696 179.153 326.205 179.153C326.716 179.153 327.169 179.261 327.564 179.477C327.959 179.693 328.269 179.984 328.493 180.351C328.718 180.717 328.83 181.125 328.83 181.574C328.83 181.895 328.772 182.209 328.655 182.516C328.542 182.82 328.343 183.159 328.059 183.534C327.777 183.906 327.387 184.361 326.887 184.898L324.926 186.994V187.062H328.983V188H323.478Z" fill="#151A30"/>
<rect width="160" height="40" transform="translate(263 204)" fill="white"/>
<path d="M284.057 228V219.273H287.006C287.69 219.273 288.25 219.396 288.685 219.643C289.122 219.888 289.446 220.219 289.656 220.636C289.866 221.054 289.972 221.52 289.972 222.034C289.972 222.548 289.866 223.016 289.656 223.436C289.449 223.857 289.128 224.192 288.693 224.442C288.259 224.689 287.702 224.812 287.023 224.812H284.909V223.875H286.989C287.457 223.875 287.834 223.794 288.118 223.632C288.402 223.47 288.608 223.251 288.736 222.976C288.866 222.697 288.932 222.384 288.932 222.034C288.932 221.685 288.866 221.372 288.736 221.097C288.608 220.821 288.401 220.605 288.114 220.449C287.827 220.29 287.446 220.21 286.972 220.21H285.114V228H284.057ZM293.464 228.153C293.049 228.153 292.673 228.075 292.335 227.919C291.996 227.76 291.728 227.531 291.529 227.233C291.33 226.932 291.231 226.568 291.231 226.142C291.231 225.767 291.305 225.463 291.452 225.23C291.6 224.994 291.798 224.81 292.045 224.676C292.292 224.543 292.565 224.443 292.863 224.378C293.164 224.31 293.467 224.256 293.771 224.216C294.168 224.165 294.491 224.126 294.738 224.101C294.988 224.072 295.17 224.026 295.283 223.96C295.4 223.895 295.458 223.781 295.458 223.619V223.585C295.458 223.165 295.343 222.838 295.113 222.605C294.886 222.372 294.54 222.256 294.077 222.256C293.597 222.256 293.221 222.361 292.948 222.571C292.675 222.781 292.484 223.006 292.373 223.244L291.418 222.903C291.589 222.506 291.816 222.196 292.1 221.974C292.387 221.75 292.7 221.594 293.038 221.506C293.379 221.415 293.714 221.369 294.043 221.369C294.254 221.369 294.495 221.395 294.768 221.446C295.043 221.494 295.309 221.595 295.565 221.749C295.823 221.902 296.038 222.134 296.208 222.443C296.379 222.753 296.464 223.168 296.464 223.688V228H295.458V227.114H295.407C295.339 227.256 295.225 227.408 295.066 227.57C294.907 227.732 294.695 227.869 294.431 227.983C294.167 228.097 293.844 228.153 293.464 228.153ZM293.617 227.25C294.015 227.25 294.35 227.172 294.623 227.016C294.898 226.859 295.106 226.658 295.245 226.411C295.387 226.163 295.458 225.903 295.458 225.631V224.71C295.415 224.761 295.322 224.808 295.177 224.851C295.035 224.891 294.87 224.926 294.683 224.957C294.498 224.986 294.317 225.011 294.141 225.034C293.968 225.054 293.827 225.071 293.719 225.085C293.458 225.119 293.214 225.175 292.987 225.251C292.762 225.325 292.58 225.437 292.441 225.588C292.305 225.736 292.237 225.937 292.237 226.193C292.237 226.543 292.366 226.807 292.624 226.986C292.886 227.162 293.217 227.25 293.617 227.25ZM298.299 228V221.455H299.271V222.443H299.339C299.458 222.119 299.674 221.857 299.987 221.655C300.299 221.453 300.652 221.352 301.044 221.352C301.118 221.352 301.21 221.354 301.321 221.357C301.431 221.359 301.515 221.364 301.572 221.369V222.392C301.538 222.384 301.46 222.371 301.338 222.354C301.218 222.334 301.092 222.324 300.958 222.324C300.64 222.324 300.356 222.391 300.106 222.524C299.859 222.655 299.663 222.837 299.518 223.07C299.376 223.3 299.305 223.562 299.305 223.858V228H298.299ZM305.309 228.136C304.679 228.136 304.135 227.997 303.677 227.719C303.223 227.438 302.872 227.045 302.625 226.543C302.38 226.037 302.258 225.449 302.258 224.778C302.258 224.108 302.38 223.517 302.625 223.006C302.872 222.491 303.216 222.091 303.656 221.804C304.099 221.514 304.616 221.369 305.207 221.369C305.548 221.369 305.885 221.426 306.217 221.54C306.549 221.653 306.852 221.838 307.125 222.094C307.397 222.347 307.615 222.682 307.777 223.099C307.939 223.517 308.02 224.031 308.02 224.642V225.068H302.974V224.199H306.997C306.997 223.83 306.923 223.5 306.775 223.21C306.63 222.92 306.423 222.692 306.153 222.524C305.886 222.357 305.571 222.273 305.207 222.273C304.806 222.273 304.46 222.372 304.167 222.571C303.877 222.767 303.654 223.023 303.498 223.338C303.342 223.653 303.264 223.991 303.264 224.352V224.932C303.264 225.426 303.349 225.845 303.52 226.189C303.693 226.53 303.933 226.79 304.24 226.969C304.547 227.145 304.903 227.233 305.309 227.233C305.574 227.233 305.812 227.196 306.025 227.122C306.241 227.045 306.427 226.932 306.583 226.781C306.74 226.628 306.86 226.437 306.946 226.21L307.917 226.483C307.815 226.812 307.643 227.102 307.402 227.352C307.16 227.599 306.862 227.793 306.507 227.932C306.152 228.068 305.752 228.136 305.309 228.136ZM310.555 224.062V228H309.549V221.455H310.521V222.477H310.606C310.76 222.145 310.993 221.878 311.305 221.676C311.618 221.472 312.021 221.369 312.515 221.369C312.958 221.369 313.346 221.46 313.679 221.642C314.011 221.821 314.27 222.094 314.454 222.46C314.639 222.824 314.731 223.284 314.731 223.841V228H313.725V223.909C313.725 223.395 313.592 222.994 313.325 222.707C313.058 222.418 312.691 222.273 312.225 222.273C311.904 222.273 311.618 222.342 311.365 222.482C311.115 222.621 310.917 222.824 310.772 223.091C310.627 223.358 310.555 223.682 310.555 224.062ZM319.415 221.455V222.307H316.023V221.455H319.415ZM317.012 219.886H318.018V226.125C318.018 226.409 318.059 226.622 318.141 226.764C318.227 226.903 318.335 226.997 318.465 227.045C318.599 227.091 318.739 227.114 318.887 227.114C318.998 227.114 319.089 227.108 319.16 227.097C319.231 227.082 319.288 227.071 319.33 227.062L319.535 227.966C319.467 227.991 319.371 228.017 319.249 228.043C319.127 228.071 318.972 228.085 318.785 228.085C318.501 228.085 318.222 228.024 317.95 227.902C317.68 227.78 317.455 227.594 317.276 227.344C317.1 227.094 317.012 226.778 317.012 226.398V219.886Z" fill="#151A30"/>
<path d="M393 220L397 224L393 228" stroke="#151A30" stroke-width="1.5" stroke-linecap="round" stroke-linejoin="round"/>
<rect width="160" height="40" transform="translate(263 244)" fill="white"/>
<path d="M284.415 268H283.307L286.511 259.273H287.602L290.807 268H289.699L287.091 260.653H287.023L284.415 268ZM284.824 264.591H289.29V265.528H284.824V264.591ZM294.689 268.136C294.075 268.136 293.547 267.991 293.104 267.702C292.661 267.412 292.32 267.013 292.081 266.504C291.842 265.996 291.723 265.415 291.723 264.761C291.723 264.097 291.845 263.51 292.089 263.001C292.337 262.49 292.68 262.091 293.121 261.804C293.564 261.514 294.081 261.369 294.672 261.369C295.132 261.369 295.547 261.455 295.916 261.625C296.286 261.795 296.588 262.034 296.824 262.341C297.06 262.648 297.206 263.006 297.263 263.415H296.257C296.18 263.116 296.01 262.852 295.746 262.622C295.484 262.389 295.132 262.273 294.689 262.273C294.297 262.273 293.953 262.375 293.658 262.58C293.365 262.781 293.136 263.067 292.972 263.436C292.81 263.803 292.729 264.233 292.729 264.727C292.729 265.233 292.808 265.673 292.967 266.048C293.129 266.423 293.357 266.714 293.649 266.922C293.945 267.129 294.291 267.233 294.689 267.233C294.95 267.233 295.188 267.188 295.401 267.097C295.614 267.006 295.794 266.875 295.942 266.705C296.089 266.534 296.195 266.33 296.257 266.091H297.263C297.206 266.477 297.065 266.825 296.841 267.135C296.619 267.442 296.325 267.686 295.959 267.868C295.595 268.047 295.172 268.136 294.689 268.136ZM301.58 261.455V262.307H298.188V261.455H301.58ZM299.176 259.886H300.182V266.125C300.182 266.409 300.223 266.622 300.305 266.764C300.391 266.903 300.499 266.997 300.629 267.045C300.763 267.091 300.903 267.114 301.051 267.114C301.162 267.114 301.253 267.108 301.324 267.097C301.395 267.082 301.452 267.071 301.494 267.062L301.699 267.966C301.631 267.991 301.536 268.017 301.413 268.043C301.291 268.071 301.136 268.085 300.949 268.085C300.665 268.085 300.386 268.024 300.114 267.902C299.844 267.78 299.619 267.594 299.44 267.344C299.264 267.094 299.176 266.778 299.176 266.398V259.886ZM303.092 268V261.455H304.098V268H303.092ZM303.604 260.364C303.408 260.364 303.239 260.297 303.097 260.163C302.957 260.03 302.888 259.869 302.888 259.682C302.888 259.494 302.957 259.334 303.097 259.2C303.239 259.067 303.408 259 303.604 259C303.8 259 303.967 259.067 304.107 259.2C304.249 259.334 304.32 259.494 304.32 259.682C304.32 259.869 304.249 260.03 304.107 260.163C303.967 260.297 303.8 260.364 303.604 260.364ZM308.599 268.136C308.008 268.136 307.49 267.996 307.044 267.714C306.6 267.433 306.254 267.04 306.004 266.534C305.757 266.028 305.633 265.437 305.633 264.761C305.633 264.08 305.757 263.484 306.004 262.976C306.254 262.467 306.6 262.072 307.044 261.791C307.49 261.51 308.008 261.369 308.599 261.369C309.19 261.369 309.707 261.51 310.15 261.791C310.596 262.072 310.943 262.467 311.19 262.976C311.44 263.484 311.565 264.08 311.565 264.761C311.565 265.437 311.44 266.028 311.19 266.534C310.943 267.04 310.596 267.433 310.15 267.714C309.707 267.996 309.19 268.136 308.599 268.136ZM308.599 267.233C309.048 267.233 309.417 267.118 309.707 266.888C309.997 266.658 310.211 266.355 310.35 265.98C310.49 265.605 310.559 265.199 310.559 264.761C310.559 264.324 310.49 263.916 310.35 263.538C310.211 263.161 309.997 262.855 309.707 262.622C309.417 262.389 309.048 262.273 308.599 262.273C308.15 262.273 307.781 262.389 307.491 262.622C307.201 262.855 306.987 263.161 306.848 263.538C306.708 263.916 306.639 264.324 306.639 264.761C306.639 265.199 306.708 265.605 306.848 265.98C306.987 266.355 307.201 266.658 307.491 266.888C307.781 267.118 308.15 267.233 308.599 267.233ZM314.106 264.062V268H313.1V261.455H314.072V262.477H314.157C314.31 262.145 314.543 261.878 314.856 261.676C315.168 261.472 315.572 261.369 316.066 261.369C316.509 261.369 316.897 261.46 317.229 261.642C317.562 261.821 317.82 262.094 318.005 262.46C318.19 262.824 318.282 263.284 318.282 263.841V268H317.276V263.909C317.276 263.395 317.143 262.994 316.876 262.707C316.609 262.418 316.242 262.273 315.776 262.273C315.455 262.273 315.168 262.342 314.915 262.482C314.665 262.621 314.468 262.824 314.323 263.091C314.178 263.358 314.106 263.682 314.106 264.062Z" fill="#151A30"/>
<rect x="263" y="284" width="160" height="1" fill="#E3E4E8"/>
<rect width="160" height="40" transform="translate(263 285)" fill="white"/>
<path d="M291.42 304.636C291.42 305.557 291.254 306.352 290.922 307.023C290.589 307.693 290.134 308.21 289.554 308.574C288.974 308.938 288.313 309.119 287.568 309.119C286.824 309.119 286.162 308.938 285.582 308.574C285.003 308.21 284.547 307.693 284.214 307.023C283.882 306.352 283.716 305.557 283.716 304.636C283.716 303.716 283.882 302.92 284.214 302.25C284.547 301.58 285.003 301.062 285.582 300.699C286.162 300.335 286.824 300.153 287.568 300.153C288.313 300.153 288.974 300.335 289.554 300.699C290.134 301.062 290.589 301.58 290.922 302.25C291.254 302.92 291.42 303.716 291.42 304.636ZM290.398 304.636C290.398 303.881 290.271 303.243 290.018 302.723C289.768 302.203 289.429 301.81 289 301.543C288.574 301.276 288.097 301.142 287.568 301.142C287.04 301.142 286.561 301.276 286.132 301.543C285.706 301.81 285.366 302.203 285.114 302.723C284.864 303.243 284.739 303.881 284.739 304.636C284.739 305.392 284.864 306.03 285.114 306.55C285.366 307.07 285.706 307.463 286.132 307.73C286.561 307.997 287.04 308.131 287.568 308.131C288.097 308.131 288.574 307.997 289 307.73C289.429 307.463 289.768 307.07 290.018 306.55C290.271 306.03 290.398 305.392 290.398 304.636ZM293.061 311.455V302.455H294.033V303.494H294.152C294.226 303.381 294.328 303.236 294.459 303.06C294.592 302.881 294.783 302.722 295.03 302.582C295.28 302.44 295.618 302.369 296.044 302.369C296.595 302.369 297.081 302.507 297.501 302.783C297.922 303.058 298.25 303.449 298.486 303.955C298.722 304.46 298.839 305.057 298.839 305.744C298.839 306.438 298.722 307.038 298.486 307.547C298.25 308.053 297.923 308.445 297.506 308.723C297.088 308.999 296.607 309.136 296.061 309.136C295.641 309.136 295.304 309.067 295.051 308.928C294.798 308.786 294.604 308.625 294.467 308.446C294.331 308.264 294.226 308.114 294.152 307.994H294.067V311.455H293.061ZM294.05 305.727C294.05 306.222 294.122 306.658 294.267 307.036C294.412 307.411 294.624 307.705 294.902 307.918C295.18 308.128 295.521 308.233 295.925 308.233C296.345 308.233 296.696 308.122 296.977 307.901C297.261 307.676 297.474 307.375 297.616 306.997C297.761 306.616 297.834 306.193 297.834 305.727C297.834 305.267 297.763 304.852 297.621 304.483C297.482 304.111 297.27 303.817 296.986 303.601C296.705 303.382 296.351 303.273 295.925 303.273C295.516 303.273 295.172 303.376 294.893 303.584C294.615 303.788 294.405 304.075 294.263 304.445C294.121 304.811 294.05 305.239 294.05 305.727ZM303.22 302.455V303.307H299.828V302.455H303.22ZM300.817 300.886H301.822V307.125C301.822 307.409 301.864 307.622 301.946 307.764C302.031 307.903 302.139 307.997 302.27 308.045C302.403 308.091 302.544 308.114 302.692 308.114C302.803 308.114 302.893 308.108 302.964 308.097C303.036 308.082 303.092 308.071 303.135 308.062L303.339 308.966C303.271 308.991 303.176 309.017 303.054 309.043C302.932 309.071 302.777 309.085 302.589 309.085C302.305 309.085 302.027 309.024 301.754 308.902C301.484 308.78 301.26 308.594 301.081 308.344C300.905 308.094 300.817 307.778 300.817 307.398V300.886ZM304.733 309V302.455H305.739V309H304.733ZM305.244 301.364C305.048 301.364 304.879 301.297 304.737 301.163C304.598 301.03 304.528 300.869 304.528 300.682C304.528 300.494 304.598 300.334 304.737 300.2C304.879 300.067 305.048 300 305.244 300C305.44 300 305.608 300.067 305.747 300.2C305.889 300.334 305.96 300.494 305.96 300.682C305.96 300.869 305.889 301.03 305.747 301.163C305.608 301.297 305.44 301.364 305.244 301.364ZM310.24 309.136C309.649 309.136 309.13 308.996 308.684 308.714C308.241 308.433 307.895 308.04 307.645 307.534C307.397 307.028 307.274 306.437 307.274 305.761C307.274 305.08 307.397 304.484 307.645 303.976C307.895 303.467 308.241 303.072 308.684 302.791C309.13 302.51 309.649 302.369 310.24 302.369C310.831 302.369 311.348 302.51 311.791 302.791C312.237 303.072 312.583 303.467 312.831 303.976C313.081 304.484 313.206 305.08 313.206 305.761C313.206 306.437 313.081 307.028 312.831 307.534C312.583 308.04 312.237 308.433 311.791 308.714C311.348 308.996 310.831 309.136 310.24 309.136ZM310.24 308.233C310.689 308.233 311.058 308.118 311.348 307.888C311.637 307.658 311.852 307.355 311.991 306.98C312.13 306.605 312.2 306.199 312.2 305.761C312.2 305.324 312.13 304.916 311.991 304.538C311.852 304.161 311.637 303.855 311.348 303.622C311.058 303.389 310.689 303.273 310.24 303.273C309.791 303.273 309.422 303.389 309.132 303.622C308.842 303.855 308.627 304.161 308.488 304.538C308.349 304.916 308.279 305.324 308.279 305.761C308.279 306.199 308.349 306.605 308.488 306.98C308.627 307.355 308.842 307.658 309.132 307.888C309.422 308.118 309.791 308.233 310.24 308.233ZM315.746 305.062V309H314.741V302.455H315.712V303.477H315.798C315.951 303.145 316.184 302.878 316.496 302.676C316.809 302.472 317.212 302.369 317.707 302.369C318.15 302.369 318.538 302.46 318.87 302.642C319.202 302.821 319.461 303.094 319.646 303.46C319.83 303.824 319.923 304.284 319.923 304.841V309H318.917V304.909C318.917 304.395 318.783 303.994 318.516 303.707C318.249 303.418 317.883 303.273 317.417 303.273C317.096 303.273 316.809 303.342 316.556 303.482C316.306 303.621 316.109 303.824 315.964 304.091C315.819 304.358 315.746 304.682 315.746 305.062Z" fill="#151A30"/>
</g>
</g>
<rect x="40.5" y="365.5" width="604" height="246" rx="4.5" stroke="#9747FF" stroke-dasharray="10 5"/>
<rect width="160" height="40" transform="translate(75 385)" fill="white"/>
<path d="M96.4148 409H95.3068L98.5114 400.273H99.6023L102.807 409H101.699L99.0909 401.653H99.0227L96.4148 409ZM96.8239 405.591H101.29V406.528H96.8239V405.591ZM106.689 409.136C106.075 409.136 105.547 408.991 105.104 408.702C104.661 408.412 104.32 408.013 104.081 407.504C103.842 406.996 103.723 406.415 103.723 405.761C103.723 405.097 103.845 404.51 104.089 404.001C104.337 403.49 104.68 403.091 105.121 402.804C105.564 402.514 106.081 402.369 106.672 402.369C107.132 402.369 107.547 402.455 107.916 402.625C108.286 402.795 108.588 403.034 108.824 403.341C109.06 403.648 109.206 404.006 109.263 404.415H108.257C108.18 404.116 108.01 403.852 107.746 403.622C107.484 403.389 107.132 403.273 106.689 403.273C106.297 403.273 105.953 403.375 105.658 403.58C105.365 403.781 105.136 404.067 104.972 404.436C104.81 404.803 104.729 405.233 104.729 405.727C104.729 406.233 104.808 406.673 104.967 407.048C105.129 407.423 105.357 407.714 105.649 407.922C105.945 408.129 106.291 408.233 106.689 408.233C106.95 408.233 107.188 408.188 107.401 408.097C107.614 408.006 107.794 407.875 107.942 407.705C108.089 407.534 108.195 407.33 108.257 407.091H109.263C109.206 407.477 109.065 407.825 108.841 408.135C108.619 408.442 108.325 408.686 107.959 408.868C107.595 409.047 107.172 409.136 106.689 409.136ZM113.58 402.455V403.307H110.188V402.455H113.58ZM111.176 400.886H112.182V407.125C112.182 407.409 112.223 407.622 112.305 407.764C112.391 407.903 112.499 407.997 112.629 408.045C112.763 408.091 112.903 408.114 113.051 408.114C113.162 408.114 113.253 408.108 113.324 408.097C113.395 408.082 113.452 408.071 113.494 408.062L113.699 408.966C113.631 408.991 113.536 409.017 113.413 409.043C113.291 409.071 113.136 409.085 112.949 409.085C112.665 409.085 112.386 409.024 112.114 408.902C111.844 408.78 111.619 408.594 111.44 408.344C111.264 408.094 111.176 407.778 111.176 407.398V400.886ZM115.092 409V402.455H116.098V409H115.092ZM115.604 401.364C115.408 401.364 115.239 401.297 115.097 401.163C114.957 401.03 114.888 400.869 114.888 400.682C114.888 400.494 114.957 400.334 115.097 400.2C115.239 400.067 115.408 400 115.604 400C115.8 400 115.967 400.067 116.107 400.2C116.249 400.334 116.32 400.494 116.32 400.682C116.32 400.869 116.249 401.03 116.107 401.163C115.967 401.297 115.8 401.364 115.604 401.364ZM120.599 409.136C120.008 409.136 119.49 408.996 119.044 408.714C118.6 408.433 118.254 408.04 118.004 407.534C117.757 407.028 117.633 406.437 117.633 405.761C117.633 405.08 117.757 404.484 118.004 403.976C118.254 403.467 118.6 403.072 119.044 402.791C119.49 402.51 120.008 402.369 120.599 402.369C121.19 402.369 121.707 402.51 122.15 402.791C122.596 403.072 122.943 403.467 123.19 403.976C123.44 404.484 123.565 405.08 123.565 405.761C123.565 406.437 123.44 407.028 123.19 407.534C122.943 408.04 122.596 408.433 122.15 408.714C121.707 408.996 121.19 409.136 120.599 409.136ZM120.599 408.233C121.048 408.233 121.417 408.118 121.707 407.888C121.997 407.658 122.211 407.355 122.35 406.98C122.49 406.605 122.559 406.199 122.559 405.761C122.559 405.324 122.49 404.916 122.35 404.538C122.211 404.161 121.997 403.855 121.707 403.622C121.417 403.389 121.048 403.273 120.599 403.273C120.15 403.273 119.781 403.389 119.491 403.622C119.201 403.855 118.987 404.161 118.848 404.538C118.708 404.916 118.639 405.324 118.639 405.761C118.639 406.199 118.708 406.605 118.848 406.98C118.987 407.355 119.201 407.658 119.491 407.888C119.781 408.118 120.15 408.233 120.599 408.233ZM126.106 405.062V409H125.1V402.455H126.072V403.477H126.157C126.31 403.145 126.543 402.878 126.856 402.676C127.168 402.472 127.572 402.369 128.066 402.369C128.509 402.369 128.897 402.46 129.229 402.642C129.562 402.821 129.82 403.094 130.005 403.46C130.19 403.824 130.282 404.284 130.282 404.841V409H129.276V404.909C129.276 404.395 129.143 403.994 128.876 403.707C128.609 403.418 128.242 403.273 127.776 403.273C127.455 403.273 127.168 403.342 126.915 403.482C126.665 403.621 126.468 403.824 126.323 404.091C126.178 404.358 126.106 404.682 126.106 405.062Z" fill="#151A30"/>
<path d="M205 401L209 405L205 409" stroke="#151A30" stroke-width="1.5" stroke-linecap="round" stroke-linejoin="round"/>
<rect width="160" height="40" transform="translate(460 385)" fill="white"/>
<path d="M483.333 405.667L486 408.333L492.667 401.667" stroke="#0E69F1" stroke-width="1.5" stroke-linecap="round" stroke-linejoin="round"/>
<path d="M505.415 409H504.307L507.511 400.273H508.602L511.807 409H510.699L508.091 401.653H508.023L505.415 409ZM505.824 405.591H510.29V406.528H505.824V405.591ZM515.689 409.136C515.075 409.136 514.547 408.991 514.104 408.702C513.661 408.412 513.32 408.013 513.081 407.504C512.842 406.996 512.723 406.415 512.723 405.761C512.723 405.097 512.845 404.51 513.089 404.001C513.337 403.49 513.68 403.091 514.121 402.804C514.564 402.514 515.081 402.369 515.672 402.369C516.132 402.369 516.547 402.455 516.916 402.625C517.286 402.795 517.588 403.034 517.824 403.341C518.06 403.648 518.206 404.006 518.263 404.415H517.257C517.18 404.116 517.01 403.852 516.746 403.622C516.484 403.389 516.132 403.273 515.689 403.273C515.297 403.273 514.953 403.375 514.658 403.58C514.365 403.781 514.136 404.067 513.972 404.436C513.81 404.803 513.729 405.233 513.729 405.727C513.729 406.233 513.808 406.673 513.967 407.048C514.129 407.423 514.357 407.714 514.649 407.922C514.945 408.129 515.291 408.233 515.689 408.233C515.95 408.233 516.188 408.188 516.401 408.097C516.614 408.006 516.794 407.875 516.942 407.705C517.089 407.534 517.195 407.33 517.257 407.091H518.263C518.206 407.477 518.065 407.825 517.841 408.135C517.619 408.442 517.325 408.686 516.959 408.868C516.595 409.047 516.172 409.136 515.689 409.136ZM522.58 402.455V403.307H519.188V402.455H522.58ZM520.176 400.886H521.182V407.125C521.182 407.409 521.223 407.622 521.305 407.764C521.391 407.903 521.499 407.997 521.629 408.045C521.763 408.091 521.903 408.114 522.051 408.114C522.162 408.114 522.253 408.108 522.324 408.097C522.395 408.082 522.452 408.071 522.494 408.062L522.699 408.966C522.631 408.991 522.536 409.017 522.413 409.043C522.291 409.071 522.136 409.085 521.949 409.085C521.665 409.085 521.386 409.024 521.114 408.902C520.844 408.78 520.619 408.594 520.44 408.344C520.264 408.094 520.176 407.778 520.176 407.398V400.886ZM524.092 409V402.455H525.098V409H524.092ZM524.604 401.364C524.408 401.364 524.239 401.297 524.097 401.163C523.957 401.03 523.888 400.869 523.888 400.682C523.888 400.494 523.957 400.334 524.097 400.2C524.239 400.067 524.408 400 524.604 400C524.8 400 524.967 400.067 525.107 400.2C525.249 400.334 525.32 400.494 525.32 400.682C525.32 400.869 525.249 401.03 525.107 401.163C524.967 401.297 524.8 401.364 524.604 401.364ZM529.599 409.136C529.008 409.136 528.49 408.996 528.044 408.714C527.6 408.433 527.254 408.04 527.004 407.534C526.757 407.028 526.633 406.437 526.633 405.761C526.633 405.08 526.757 404.484 527.004 403.976C527.254 403.467 527.6 403.072 528.044 402.791C528.49 402.51 529.008 402.369 529.599 402.369C530.19 402.369 530.707 402.51 531.15 402.791C531.596 403.072 531.943 403.467 532.19 403.976C532.44 404.484 532.565 405.08 532.565 405.761C532.565 406.437 532.44 407.028 532.19 407.534C531.943 408.04 531.596 408.433 531.15 408.714C530.707 408.996 530.19 409.136 529.599 409.136ZM529.599 408.233C530.048 408.233 530.417 408.118 530.707 407.888C530.997 407.658 531.211 407.355 531.35 406.98C531.49 406.605 531.559 406.199 531.559 405.761C531.559 405.324 531.49 404.916 531.35 404.538C531.211 404.161 530.997 403.855 530.707 403.622C530.417 403.389 530.048 403.273 529.599 403.273C529.15 403.273 528.781 403.389 528.491 403.622C528.201 403.855 527.987 404.161 527.848 404.538C527.708 404.916 527.639 405.324 527.639 405.761C527.639 406.199 527.708 406.605 527.848 406.98C527.987 407.355 528.201 407.658 528.491 407.888C528.781 408.118 529.15 408.233 529.599 408.233ZM535.106 405.062V409H534.1V402.455H535.072V403.477H535.157C535.31 403.145 535.543 402.878 535.856 402.676C536.168 402.472 536.572 402.369 537.066 402.369C537.509 402.369 537.897 402.46 538.229 402.642C538.562 402.821 538.82 403.094 539.005 403.46C539.19 403.824 539.282 404.284 539.282 404.841V409H538.276V404.909C538.276 404.395 538.143 403.994 537.876 403.707C537.609 403.418 537.242 403.273 536.776 403.273C536.455 403.273 536.168 403.342 535.915 403.482C535.665 403.621 535.468 403.824 535.323 404.091C535.178 404.358 535.106 404.682 535.106 405.062Z" fill="#151A30"/>
<rect width="160" height="40" transform="translate(75 457)" fill="#F9F9F9"/>
<path d="M96.4148 481H95.3068L98.5114 472.273H99.6023L102.807 481H101.699L99.0909 473.653H99.0227L96.4148 481ZM96.8239 477.591H101.29V478.528H96.8239V477.591ZM106.689 481.136C106.075 481.136 105.547 480.991 105.104 480.702C104.661 480.412 104.32 480.013 104.081 479.504C103.842 478.996 103.723 478.415 103.723 477.761C103.723 477.097 103.845 476.51 104.089 476.001C104.337 475.49 104.68 475.091 105.121 474.804C105.564 474.514 106.081 474.369 106.672 474.369C107.132 474.369 107.547 474.455 107.916 474.625C108.286 474.795 108.588 475.034 108.824 475.341C109.06 475.648 109.206 476.006 109.263 476.415H108.257C108.18 476.116 108.01 475.852 107.746 475.622C107.484 475.389 107.132 475.273 106.689 475.273C106.297 475.273 105.953 475.375 105.658 475.58C105.365 475.781 105.136 476.067 104.972 476.436C104.81 476.803 104.729 477.233 104.729 477.727C104.729 478.233 104.808 478.673 104.967 479.048C105.129 479.423 105.357 479.714 105.649 479.922C105.945 480.129 106.291 480.233 106.689 480.233C106.95 480.233 107.188 480.188 107.401 480.097C107.614 480.006 107.794 479.875 107.942 479.705C108.089 479.534 108.195 479.33 108.257 479.091H109.263C109.206 479.477 109.065 479.825 108.841 480.135C108.619 480.442 108.325 480.686 107.959 480.868C107.595 481.047 107.172 481.136 106.689 481.136ZM113.58 474.455V475.307H110.188V474.455H113.58ZM111.176 472.886H112.182V479.125C112.182 479.409 112.223 479.622 112.305 479.764C112.391 479.903 112.499 479.997 112.629 480.045C112.763 480.091 112.903 480.114 113.051 480.114C113.162 480.114 113.253 480.108 113.324 480.097C113.395 480.082 113.452 480.071 113.494 480.062L113.699 480.966C113.631 480.991 113.536 481.017 113.413 481.043C113.291 481.071 113.136 481.085 112.949 481.085C112.665 481.085 112.386 481.024 112.114 480.902C111.844 480.78 111.619 480.594 111.44 480.344C111.264 480.094 111.176 479.778 111.176 479.398V472.886ZM115.092 481V474.455H116.098V481H115.092ZM115.604 473.364C115.408 473.364 115.239 473.297 115.097 473.163C114.957 473.03 114.888 472.869 114.888 472.682C114.888 472.494 114.957 472.334 115.097 472.2C115.239 472.067 115.408 472 115.604 472C115.8 472 115.967 472.067 116.107 472.2C116.249 472.334 116.32 472.494 116.32 472.682C116.32 472.869 116.249 473.03 116.107 473.163C115.967 473.297 115.8 473.364 115.604 473.364ZM120.599 481.136C120.008 481.136 119.49 480.996 119.044 480.714C118.6 480.433 118.254 480.04 118.004 479.534C117.757 479.028 117.633 478.437 117.633 477.761C117.633 477.08 117.757 476.484 118.004 475.976C118.254 475.467 118.6 475.072 119.044 474.791C119.49 474.51 120.008 474.369 120.599 474.369C121.19 474.369 121.707 474.51 122.15 474.791C122.596 475.072 122.943 475.467 123.19 475.976C123.44 476.484 123.565 477.08 123.565 477.761C123.565 478.437 123.44 479.028 123.19 479.534C122.943 480.04 122.596 480.433 122.15 480.714C121.707 480.996 121.19 481.136 120.599 481.136ZM120.599 480.233C121.048 480.233 121.417 480.118 121.707 479.888C121.997 479.658 122.211 479.355 122.35 478.98C122.49 478.605 122.559 478.199 122.559 477.761C122.559 477.324 122.49 476.916 122.35 476.538C122.211 476.161 121.997 475.855 121.707 475.622C121.417 475.389 121.048 475.273 120.599 475.273C120.15 475.273 119.781 475.389 119.491 475.622C119.201 475.855 118.987 476.161 118.848 476.538C118.708 476.916 118.639 477.324 118.639 477.761C118.639 478.199 118.708 478.605 118.848 478.98C118.987 479.355 119.201 479.658 119.491 479.888C119.781 480.118 120.15 480.233 120.599 480.233ZM126.106 477.062V481H125.1V474.455H126.072V475.477H126.157C126.31 475.145 126.543 474.878 126.856 474.676C127.168 474.472 127.572 474.369 128.066 474.369C128.509 474.369 128.897 474.46 129.229 474.642C129.562 474.821 129.82 475.094 130.005 475.46C130.19 475.824 130.282 476.284 130.282 476.841V481H129.276V476.909C129.276 476.395 129.143 475.994 128.876 475.707C128.609 475.418 128.242 475.273 127.776 475.273C127.455 475.273 127.168 475.342 126.915 475.482C126.665 475.621 126.468 475.824 126.323 476.091C126.178 476.358 126.106 476.682 126.106 477.062Z" fill="#273058"/>
<path d="M205 473L209 477L205 481" stroke="#273058" stroke-width="1.5" stroke-linecap="round" stroke-linejoin="round"/>
<rect width="160" height="40" transform="translate(460 457)" fill="#F9F9F9"/>
<path d="M483.333 477.667L486 480.333L492.667 473.667" stroke="#0E69F1" stroke-width="1.5" stroke-linecap="round" stroke-linejoin="round"/>
<path d="M505.415 481H504.307L507.511 472.273H508.602L511.807 481H510.699L508.091 473.653H508.023L505.415 481ZM505.824 477.591H510.29V478.528H505.824V477.591ZM515.689 481.136C515.075 481.136 514.547 480.991 514.104 480.702C513.661 480.412 513.32 480.013 513.081 479.504C512.842 478.996 512.723 478.415 512.723 477.761C512.723 477.097 512.845 476.51 513.089 476.001C513.337 475.49 513.68 475.091 514.121 474.804C514.564 474.514 515.081 474.369 515.672 474.369C516.132 474.369 516.547 474.455 516.916 474.625C517.286 474.795 517.588 475.034 517.824 475.341C518.06 475.648 518.206 476.006 518.263 476.415H517.257C517.18 476.116 517.01 475.852 516.746 475.622C516.484 475.389 516.132 475.273 515.689 475.273C515.297 475.273 514.953 475.375 514.658 475.58C514.365 475.781 514.136 476.067 513.972 476.436C513.81 476.803 513.729 477.233 513.729 477.727C513.729 478.233 513.808 478.673 513.967 479.048C514.129 479.423 514.357 479.714 514.649 479.922C514.945 480.129 515.291 480.233 515.689 480.233C515.95 480.233 516.188 480.188 516.401 480.097C516.614 480.006 516.794 479.875 516.942 479.705C517.089 479.534 517.195 479.33 517.257 479.091H518.263C518.206 479.477 518.065 479.825 517.841 480.135C517.619 480.442 517.325 480.686 516.959 480.868C516.595 481.047 516.172 481.136 515.689 481.136ZM522.58 474.455V475.307H519.188V474.455H522.58ZM520.176 472.886H521.182V479.125C521.182 479.409 521.223 479.622 521.305 479.764C521.391 479.903 521.499 479.997 521.629 480.045C521.763 480.091 521.903 480.114 522.051 480.114C522.162 480.114 522.253 480.108 522.324 480.097C522.395 480.082 522.452 480.071 522.494 480.062L522.699 480.966C522.631 480.991 522.536 481.017 522.413 481.043C522.291 481.071 522.136 481.085 521.949 481.085C521.665 481.085 521.386 481.024 521.114 480.902C520.844 480.78 520.619 480.594 520.44 480.344C520.264 480.094 520.176 479.778 520.176 479.398V472.886ZM524.092 481V474.455H525.098V481H524.092ZM524.604 473.364C524.408 473.364 524.239 473.297 524.097 473.163C523.957 473.03 523.888 472.869 523.888 472.682C523.888 472.494 523.957 472.334 524.097 472.2C524.239 472.067 524.408 472 524.604 472C524.8 472 524.967 472.067 525.107 472.2C525.249 472.334 525.32 472.494 525.32 472.682C525.32 472.869 525.249 473.03 525.107 473.163C524.967 473.297 524.8 473.364 524.604 473.364ZM529.599 481.136C529.008 481.136 528.49 480.996 528.044 480.714C527.6 480.433 527.254 480.04 527.004 479.534C526.757 479.028 526.633 478.437 526.633 477.761C526.633 477.08 526.757 476.484 527.004 475.976C527.254 475.467 527.6 475.072 528.044 474.791C528.49 474.51 529.008 474.369 529.599 474.369C530.19 474.369 530.707 474.51 531.15 474.791C531.596 475.072 531.943 475.467 532.19 475.976C532.44 476.484 532.565 477.08 532.565 477.761C532.565 478.437 532.44 479.028 532.19 479.534C531.943 480.04 531.596 480.433 531.15 480.714C530.707 480.996 530.19 481.136 529.599 481.136ZM529.599 480.233C530.048 480.233 530.417 480.118 530.707 479.888C530.997 479.658 531.211 479.355 531.35 478.98C531.49 478.605 531.559 478.199 531.559 477.761C531.559 477.324 531.49 476.916 531.35 476.538C531.211 476.161 530.997 475.855 530.707 475.622C530.417 475.389 530.048 475.273 529.599 475.273C529.15 475.273 528.781 475.389 528.491 475.622C528.201 475.855 527.987 476.161 527.848 476.538C527.708 476.916 527.639 477.324 527.639 477.761C527.639 478.199 527.708 478.605 527.848 478.98C527.987 479.355 528.201 479.658 528.491 479.888C528.781 480.118 529.15 480.233 529.599 480.233ZM535.106 477.062V481H534.1V474.455H535.072V475.477H535.157C535.31 475.145 535.543 474.878 535.856 474.676C536.168 474.472 536.572 474.369 537.066 474.369C537.509 474.369 537.897 474.46 538.229 474.642C538.562 474.821 538.82 475.094 539.005 475.46C539.19 475.824 539.282 476.284 539.282 476.841V481H538.276V476.909C538.276 476.395 538.143 475.994 537.876 475.707C537.609 475.418 537.242 475.273 536.776 475.273C536.455 475.273 536.168 475.342 535.915 475.482C535.665 475.621 535.468 475.824 535.323 476.091C535.178 476.358 535.106 476.682 535.106 477.062Z" fill="#273058"/>
<rect width="160" height="40" transform="translate(75 529)" fill="#E9E9E9"/>
<path d="M96.4148 553H95.3068L98.5114 544.273H99.6023L102.807 553H101.699L99.0909 545.653H99.0227L96.4148 553ZM96.8239 549.591H101.29V550.528H96.8239V549.591ZM106.689 553.136C106.075 553.136 105.547 552.991 105.104 552.702C104.661 552.412 104.32 552.013 104.081 551.504C103.842 550.996 103.723 550.415 103.723 549.761C103.723 549.097 103.845 548.51 104.089 548.001C104.337 547.49 104.68 547.091 105.121 546.804C105.564 546.514 106.081 546.369 106.672 546.369C107.132 546.369 107.547 546.455 107.916 546.625C108.286 546.795 108.588 547.034 108.824 547.341C109.06 547.648 109.206 548.006 109.263 548.415H108.257C108.18 548.116 108.01 547.852 107.746 547.622C107.484 547.389 107.132 547.273 106.689 547.273C106.297 547.273 105.953 547.375 105.658 547.58C105.365 547.781 105.136 548.067 104.972 548.436C104.81 548.803 104.729 549.233 104.729 549.727C104.729 550.233 104.808 550.673 104.967 551.048C105.129 551.423 105.357 551.714 105.649 551.922C105.945 552.129 106.291 552.233 106.689 552.233C106.95 552.233 107.188 552.188 107.401 552.097C107.614 552.006 107.794 551.875 107.942 551.705C108.089 551.534 108.195 551.33 108.257 551.091H109.263C109.206 551.477 109.065 551.825 108.841 552.135C108.619 552.442 108.325 552.686 107.959 552.868C107.595 553.047 107.172 553.136 106.689 553.136ZM113.58 546.455V547.307H110.188V546.455H113.58ZM111.176 544.886H112.182V551.125C112.182 551.409 112.223 551.622 112.305 551.764C112.391 551.903 112.499 551.997 112.629 552.045C112.763 552.091 112.903 552.114 113.051 552.114C113.162 552.114 113.253 552.108 113.324 552.097C113.395 552.082 113.452 552.071 113.494 552.062L113.699 552.966C113.631 552.991 113.536 553.017 113.413 553.043C113.291 553.071 113.136 553.085 112.949 553.085C112.665 553.085 112.386 553.024 112.114 552.902C111.844 552.78 111.619 552.594 111.44 552.344C111.264 552.094 111.176 551.778 111.176 551.398V544.886ZM115.092 553V546.455H116.098V553H115.092ZM115.604 545.364C115.408 545.364 115.239 545.297 115.097 545.163C114.957 545.03 114.888 544.869 114.888 544.682C114.888 544.494 114.957 544.334 115.097 544.2C115.239 544.067 115.408 544 115.604 544C115.8 544 115.967 544.067 116.107 544.2C116.249 544.334 116.32 544.494 116.32 544.682C116.32 544.869 116.249 545.03 116.107 545.163C115.967 545.297 115.8 545.364 115.604 545.364ZM120.599 553.136C120.008 553.136 119.49 552.996 119.044 552.714C118.6 552.433 118.254 552.04 118.004 551.534C117.757 551.028 117.633 550.437 117.633 549.761C117.633 549.08 117.757 548.484 118.004 547.976C118.254 547.467 118.6 547.072 119.044 546.791C119.49 546.51 120.008 546.369 120.599 546.369C121.19 546.369 121.707 546.51 122.15 546.791C122.596 547.072 122.943 547.467 123.19 547.976C123.44 548.484 123.565 549.08 123.565 549.761C123.565 550.437 123.44 551.028 123.19 551.534C122.943 552.04 122.596 552.433 122.15 552.714C121.707 552.996 121.19 553.136 120.599 553.136ZM120.599 552.233C121.048 552.233 121.417 552.118 121.707 551.888C121.997 551.658 122.211 551.355 122.35 550.98C122.49 550.605 122.559 550.199 122.559 549.761C122.559 549.324 122.49 548.916 122.35 548.538C122.211 548.161 121.997 547.855 121.707 547.622C121.417 547.389 121.048 547.273 120.599 547.273C120.15 547.273 119.781 547.389 119.491 547.622C119.201 547.855 118.987 548.161 118.848 548.538C118.708 548.916 118.639 549.324 118.639 549.761C118.639 550.199 118.708 550.605 118.848 550.98C118.987 551.355 119.201 551.658 119.491 551.888C119.781 552.118 120.15 552.233 120.599 552.233ZM126.106 549.062V553H125.1V546.455H126.072V547.477H126.157C126.31 547.145 126.543 546.878 126.856 546.676C127.168 546.472 127.572 546.369 128.066 546.369C128.509 546.369 128.897 546.46 129.229 546.642C129.562 546.821 129.82 547.094 130.005 547.46C130.19 547.824 130.282 548.284 130.282 548.841V553H129.276V548.909C129.276 548.395 129.143 547.994 128.876 547.707C128.609 547.418 128.242 547.273 127.776 547.273C127.455 547.273 127.168 547.342 126.915 547.482C126.665 547.621 126.468 547.824 126.323 548.091C126.178 548.358 126.106 548.682 126.106 549.062Z" fill="#141B3D"/>
<path d="M203 547L207 551L211 547" stroke="#141B3D" stroke-width="1.5" stroke-linecap="round" stroke-linejoin="round"/>
<rect width="160" height="40" transform="translate(460 529)" fill="#E9E9E9"/>
<path d="M483.333 549.667L486 552.333L492.667 545.667" stroke="#0A51CF" stroke-width="1.5" stroke-linecap="round" stroke-linejoin="round"/>
<path d="M505.415 553H504.307L507.511 544.273H508.602L511.807 553H510.699L508.091 545.653H508.023L505.415 553ZM505.824 549.591H510.29V550.528H505.824V549.591ZM515.689 553.136C515.075 553.136 514.547 552.991 514.104 552.702C513.661 552.412 513.32 552.013 513.081 551.504C512.842 550.996 512.723 550.415 512.723 549.761C512.723 549.097 512.845 548.51 513.089 548.001C513.337 547.49 513.68 547.091 514.121 546.804C514.564 546.514 515.081 546.369 515.672 546.369C516.132 546.369 516.547 546.455 516.916 546.625C517.286 546.795 517.588 547.034 517.824 547.341C518.06 547.648 518.206 548.006 518.263 548.415H517.257C517.18 548.116 517.01 547.852 516.746 547.622C516.484 547.389 516.132 547.273 515.689 547.273C515.297 547.273 514.953 547.375 514.658 547.58C514.365 547.781 514.136 548.067 513.972 548.436C513.81 548.803 513.729 549.233 513.729 549.727C513.729 550.233 513.808 550.673 513.967 551.048C514.129 551.423 514.357 551.714 514.649 551.922C514.945 552.129 515.291 552.233 515.689 552.233C515.95 552.233 516.188 552.188 516.401 552.097C516.614 552.006 516.794 551.875 516.942 551.705C517.089 551.534 517.195 551.33 517.257 551.091H518.263C518.206 551.477 518.065 551.825 517.841 552.135C517.619 552.442 517.325 552.686 516.959 552.868C516.595 553.047 516.172 553.136 515.689 553.136ZM522.58 546.455V547.307H519.188V546.455H522.58ZM520.176 544.886H521.182V551.125C521.182 551.409 521.223 551.622 521.305 551.764C521.391 551.903 521.499 551.997 521.629 552.045C521.763 552.091 521.903 552.114 522.051 552.114C522.162 552.114 522.253 552.108 522.324 552.097C522.395 552.082 522.452 552.071 522.494 552.062L522.699 552.966C522.631 552.991 522.536 553.017 522.413 553.043C522.291 553.071 522.136 553.085 521.949 553.085C521.665 553.085 521.386 553.024 521.114 552.902C520.844 552.78 520.619 552.594 520.44 552.344C520.264 552.094 520.176 551.778 520.176 551.398V544.886ZM524.092 553V546.455H525.098V553H524.092ZM524.604 545.364C524.408 545.364 524.239 545.297 524.097 545.163C523.957 545.03 523.888 544.869 523.888 544.682C523.888 544.494 523.957 544.334 524.097 544.2C524.239 544.067 524.408 544 524.604 544C524.8 544 524.967 544.067 525.107 544.2C525.249 544.334 525.32 544.494 525.32 544.682C525.32 544.869 525.249 545.03 525.107 545.163C524.967 545.297 524.8 545.364 524.604 545.364ZM529.599 553.136C529.008 553.136 528.49 552.996 528.044 552.714C527.6 552.433 527.254 552.04 527.004 551.534C526.757 551.028 526.633 550.437 526.633 549.761C526.633 549.08 526.757 548.484 527.004 547.976C527.254 547.467 527.6 547.072 528.044 546.791C528.49 546.51 529.008 546.369 529.599 546.369C530.19 546.369 530.707 546.51 531.15 546.791C531.596 547.072 531.943 547.467 532.19 547.976C532.44 548.484 532.565 549.08 532.565 549.761C532.565 550.437 532.44 551.028 532.19 551.534C531.943 552.04 531.596 552.433 531.15 552.714C530.707 552.996 530.19 553.136 529.599 553.136ZM529.599 552.233C530.048 552.233 530.417 552.118 530.707 551.888C530.997 551.658 531.211 551.355 531.35 550.98C531.49 550.605 531.559 550.199 531.559 549.761C531.559 549.324 531.49 548.916 531.35 548.538C531.211 548.161 530.997 547.855 530.707 547.622C530.417 547.389 530.048 547.273 529.599 547.273C529.15 547.273 528.781 547.389 528.491 547.622C528.201 547.855 527.987 548.161 527.848 548.538C527.708 548.916 527.639 549.324 527.639 549.761C527.639 550.199 527.708 550.605 527.848 550.98C527.987 551.355 528.201 551.658 528.491 551.888C528.781 552.118 529.15 552.233 529.599 552.233ZM535.106 549.062V553H534.1V546.455H535.072V547.477H535.157C535.31 547.145 535.543 546.878 535.856 546.676C536.168 546.472 536.572 546.369 537.066 546.369C537.509 546.369 537.897 546.46 538.229 546.642C538.562 546.821 538.82 547.094 539.005 547.46C539.19 547.824 539.282 548.284 539.282 548.841V553H538.276V548.909C538.276 548.395 538.143 547.994 537.876 547.707C537.609 547.418 537.242 547.273 536.776 547.273C536.455 547.273 536.168 547.342 535.915 547.482C535.665 547.621 535.468 547.824 535.323 548.091C535.178 548.358 535.106 548.682 535.106 549.062Z" fill="#141B3D"/>
<rect width="160" height="40" transform="translate(263 385)" fill="white"/>
<path d="M284.415 409H283.307L286.511 400.273H287.602L290.807 409H289.699L287.091 401.653H287.023L284.415 409ZM284.824 405.591H289.29V406.528H284.824V405.591ZM294.689 409.136C294.075 409.136 293.547 408.991 293.104 408.702C292.661 408.412 292.32 408.013 292.081 407.504C291.842 406.996 291.723 406.415 291.723 405.761C291.723 405.097 291.845 404.51 292.089 404.001C292.337 403.49 292.68 403.091 293.121 402.804C293.564 402.514 294.081 402.369 294.672 402.369C295.132 402.369 295.547 402.455 295.916 402.625C296.286 402.795 296.588 403.034 296.824 403.341C297.06 403.648 297.206 404.006 297.263 404.415H296.257C296.18 404.116 296.01 403.852 295.746 403.622C295.484 403.389 295.132 403.273 294.689 403.273C294.297 403.273 293.953 403.375 293.658 403.58C293.365 403.781 293.136 404.067 292.972 404.436C292.81 404.803 292.729 405.233 292.729 405.727C292.729 406.233 292.808 406.673 292.967 407.048C293.129 407.423 293.357 407.714 293.649 407.922C293.945 408.129 294.291 408.233 294.689 408.233C294.95 408.233 295.188 408.188 295.401 408.097C295.614 408.006 295.794 407.875 295.942 407.705C296.089 407.534 296.195 407.33 296.257 407.091H297.263C297.206 407.477 297.065 407.825 296.841 408.135C296.619 408.442 296.325 408.686 295.959 408.868C295.595 409.047 295.172 409.136 294.689 409.136ZM301.58 402.455V403.307H298.188V402.455H301.58ZM299.176 400.886H300.182V407.125C300.182 407.409 300.223 407.622 300.305 407.764C300.391 407.903 300.499 407.997 300.629 408.045C300.763 408.091 300.903 408.114 301.051 408.114C301.162 408.114 301.253 408.108 301.324 408.097C301.395 408.082 301.452 408.071 301.494 408.062L301.699 408.966C301.631 408.991 301.536 409.017 301.413 409.043C301.291 409.071 301.136 409.085 300.949 409.085C300.665 409.085 300.386 409.024 300.114 408.902C299.844 408.78 299.619 408.594 299.44 408.344C299.264 408.094 299.176 407.778 299.176 407.398V400.886ZM303.092 409V402.455H304.098V409H303.092ZM303.604 401.364C303.408 401.364 303.239 401.297 303.097 401.163C302.957 401.03 302.888 400.869 302.888 400.682C302.888 400.494 302.957 400.334 303.097 400.2C303.239 400.067 303.408 400 303.604 400C303.8 400 303.967 400.067 304.107 400.2C304.249 400.334 304.32 400.494 304.32 400.682C304.32 400.869 304.249 401.03 304.107 401.163C303.967 401.297 303.8 401.364 303.604 401.364ZM308.599 409.136C308.008 409.136 307.49 408.996 307.044 408.714C306.6 408.433 306.254 408.04 306.004 407.534C305.757 407.028 305.633 406.437 305.633 405.761C305.633 405.08 305.757 404.484 306.004 403.976C306.254 403.467 306.6 403.072 307.044 402.791C307.49 402.51 308.008 402.369 308.599 402.369C309.19 402.369 309.707 402.51 310.15 402.791C310.596 403.072 310.943 403.467 311.19 403.976C311.44 404.484 311.565 405.08 311.565 405.761C311.565 406.437 311.44 407.028 311.19 407.534C310.943 408.04 310.596 408.433 310.15 408.714C309.707 408.996 309.19 409.136 308.599 409.136ZM308.599 408.233C309.048 408.233 309.417 408.118 309.707 407.888C309.997 407.658 310.211 407.355 310.35 406.98C310.49 406.605 310.559 406.199 310.559 405.761C310.559 405.324 310.49 404.916 310.35 404.538C310.211 404.161 309.997 403.855 309.707 403.622C309.417 403.389 309.048 403.273 308.599 403.273C308.15 403.273 307.781 403.389 307.491 403.622C307.201 403.855 306.987 404.161 306.848 404.538C306.708 404.916 306.639 405.324 306.639 405.761C306.639 406.199 306.708 406.605 306.848 406.98C306.987 407.355 307.201 407.658 307.491 407.888C307.781 408.118 308.15 408.233 308.599 408.233ZM314.106 405.062V409H313.1V402.455H314.072V403.477H314.157C314.31 403.145 314.543 402.878 314.856 402.676C315.168 402.472 315.572 402.369 316.066 402.369C316.509 402.369 316.897 402.46 317.229 402.642C317.562 402.821 317.82 403.094 318.005 403.46C318.19 403.824 318.282 404.284 318.282 404.841V409H317.276V404.909C317.276 404.395 317.143 403.994 316.876 403.707C316.609 403.418 316.242 403.273 315.776 403.273C315.455 403.273 315.168 403.342 314.915 403.482C314.665 403.621 314.468 403.824 314.323 404.091C314.178 404.358 314.106 404.682 314.106 405.062Z" fill="#151A30"/>
<rect width="160" height="40" transform="translate(263 457)" fill="#F9F9F9"/>
<path d="M284.415 481H283.307L286.511 472.273H287.602L290.807 481H289.699L287.091 473.653H287.023L284.415 481ZM284.824 477.591H289.29V478.528H284.824V477.591ZM294.689 481.136C294.075 481.136 293.547 480.991 293.104 480.702C292.661 480.412 292.32 480.013 292.081 479.504C291.842 478.996 291.723 478.415 291.723 477.761C291.723 477.097 291.845 476.51 292.089 476.001C292.337 475.49 292.68 475.091 293.121 474.804C293.564 474.514 294.081 474.369 294.672 474.369C295.132 474.369 295.547 474.455 295.916 474.625C296.286 474.795 296.588 475.034 296.824 475.341C297.06 475.648 297.206 476.006 297.263 476.415H296.257C296.18 476.116 296.01 475.852 295.746 475.622C295.484 475.389 295.132 475.273 294.689 475.273C294.297 475.273 293.953 475.375 293.658 475.58C293.365 475.781 293.136 476.067 292.972 476.436C292.81 476.803 292.729 477.233 292.729 477.727C292.729 478.233 292.808 478.673 292.967 479.048C293.129 479.423 293.357 479.714 293.649 479.922C293.945 480.129 294.291 480.233 294.689 480.233C294.95 480.233 295.188 480.188 295.401 480.097C295.614 480.006 295.794 479.875 295.942 479.705C296.089 479.534 296.195 479.33 296.257 479.091H297.263C297.206 479.477 297.065 479.825 296.841 480.135C296.619 480.442 296.325 480.686 295.959 480.868C295.595 481.047 295.172 481.136 294.689 481.136ZM301.58 474.455V475.307H298.188V474.455H301.58ZM299.176 472.886H300.182V479.125C300.182 479.409 300.223 479.622 300.305 479.764C300.391 479.903 300.499 479.997 300.629 480.045C300.763 480.091 300.903 480.114 301.051 480.114C301.162 480.114 301.253 480.108 301.324 480.097C301.395 480.082 301.452 480.071 301.494 480.062L301.699 480.966C301.631 480.991 301.536 481.017 301.413 481.043C301.291 481.071 301.136 481.085 300.949 481.085C300.665 481.085 300.386 481.024 300.114 480.902C299.844 480.78 299.619 480.594 299.44 480.344C299.264 480.094 299.176 479.778 299.176 479.398V472.886ZM303.092 481V474.455H304.098V481H303.092ZM303.604 473.364C303.408 473.364 303.239 473.297 303.097 473.163C302.957 473.03 302.888 472.869 302.888 472.682C302.888 472.494 302.957 472.334 303.097 472.2C303.239 472.067 303.408 472 303.604 472C303.8 472 303.967 472.067 304.107 472.2C304.249 472.334 304.32 472.494 304.32 472.682C304.32 472.869 304.249 473.03 304.107 473.163C303.967 473.297 303.8 473.364 303.604 473.364ZM308.599 481.136C308.008 481.136 307.49 480.996 307.044 480.714C306.6 480.433 306.254 480.04 306.004 479.534C305.757 479.028 305.633 478.437 305.633 477.761C305.633 477.08 305.757 476.484 306.004 475.976C306.254 475.467 306.6 475.072 307.044 474.791C307.49 474.51 308.008 474.369 308.599 474.369C309.19 474.369 309.707 474.51 310.15 474.791C310.596 475.072 310.943 475.467 311.19 475.976C311.44 476.484 311.565 477.08 311.565 477.761C311.565 478.437 311.44 479.028 311.19 479.534C310.943 480.04 310.596 480.433 310.15 480.714C309.707 480.996 309.19 481.136 308.599 481.136ZM308.599 480.233C309.048 480.233 309.417 480.118 309.707 479.888C309.997 479.658 310.211 479.355 310.35 478.98C310.49 478.605 310.559 478.199 310.559 477.761C310.559 477.324 310.49 476.916 310.35 476.538C310.211 476.161 309.997 475.855 309.707 475.622C309.417 475.389 309.048 475.273 308.599 475.273C308.15 475.273 307.781 475.389 307.491 475.622C307.201 475.855 306.987 476.161 306.848 476.538C306.708 476.916 306.639 477.324 306.639 477.761C306.639 478.199 306.708 478.605 306.848 478.98C306.987 479.355 307.201 479.658 307.491 479.888C307.781 480.118 308.15 480.233 308.599 480.233ZM314.106 477.062V481H313.1V474.455H314.072V475.477H314.157C314.31 475.145 314.543 474.878 314.856 474.676C315.168 474.472 315.572 474.369 316.066 474.369C316.509 474.369 316.897 474.46 317.229 474.642C317.562 474.821 317.82 475.094 318.005 475.46C318.19 475.824 318.282 476.284 318.282 476.841V481H317.276V476.909C317.276 476.395 317.143 475.994 316.876 475.707C316.609 475.418 316.242 475.273 315.776 475.273C315.455 475.273 315.168 475.342 314.915 475.482C314.665 475.621 314.468 475.824 314.323 476.091C314.178 476.358 314.106 476.682 314.106 477.062Z" fill="#273058"/>
<rect width="160" height="40" transform="translate(263 529)" fill="#E9E9E9"/>
<path d="M284.415 553H283.307L286.511 544.273H287.602L290.807 553H289.699L287.091 545.653H287.023L284.415 553ZM284.824 549.591H289.29V550.528H284.824V549.591ZM294.689 553.136C294.075 553.136 293.547 552.991 293.104 552.702C292.661 552.412 292.32 552.013 292.081 551.504C291.842 550.996 291.723 550.415 291.723 549.761C291.723 549.097 291.845 548.51 292.089 548.001C292.337 547.49 292.68 547.091 293.121 546.804C293.564 546.514 294.081 546.369 294.672 546.369C295.132 546.369 295.547 546.455 295.916 546.625C296.286 546.795 296.588 547.034 296.824 547.341C297.06 547.648 297.206 548.006 297.263 548.415H296.257C296.18 548.116 296.01 547.852 295.746 547.622C295.484 547.389 295.132 547.273 294.689 547.273C294.297 547.273 293.953 547.375 293.658 547.58C293.365 547.781 293.136 548.067 292.972 548.436C292.81 548.803 292.729 549.233 292.729 549.727C292.729 550.233 292.808 550.673 292.967 551.048C293.129 551.423 293.357 551.714 293.649 551.922C293.945 552.129 294.291 552.233 294.689 552.233C294.95 552.233 295.188 552.188 295.401 552.097C295.614 552.006 295.794 551.875 295.942 551.705C296.089 551.534 296.195 551.33 296.257 551.091H297.263C297.206 551.477 297.065 551.825 296.841 552.135C296.619 552.442 296.325 552.686 295.959 552.868C295.595 553.047 295.172 553.136 294.689 553.136ZM301.58 546.455V547.307H298.188V546.455H301.58ZM299.176 544.886H300.182V551.125C300.182 551.409 300.223 551.622 300.305 551.764C300.391 551.903 300.499 551.997 300.629 552.045C300.763 552.091 300.903 552.114 301.051 552.114C301.162 552.114 301.253 552.108 301.324 552.097C301.395 552.082 301.452 552.071 301.494 552.062L301.699 552.966C301.631 552.991 301.536 553.017 301.413 553.043C301.291 553.071 301.136 553.085 300.949 553.085C300.665 553.085 300.386 553.024 300.114 552.902C299.844 552.78 299.619 552.594 299.44 552.344C299.264 552.094 299.176 551.778 299.176 551.398V544.886ZM303.092 553V546.455H304.098V553H303.092ZM303.604 545.364C303.408 545.364 303.239 545.297 303.097 545.163C302.957 545.03 302.888 544.869 302.888 544.682C302.888 544.494 302.957 544.334 303.097 544.2C303.239 544.067 303.408 544 303.604 544C303.8 544 303.967 544.067 304.107 544.2C304.249 544.334 304.32 544.494 304.32 544.682C304.32 544.869 304.249 545.03 304.107 545.163C303.967 545.297 303.8 545.364 303.604 545.364ZM308.599 553.136C308.008 553.136 307.49 552.996 307.044 552.714C306.6 552.433 306.254 552.04 306.004 551.534C305.757 551.028 305.633 550.437 305.633 549.761C305.633 549.08 305.757 548.484 306.004 547.976C306.254 547.467 306.6 547.072 307.044 546.791C307.49 546.51 308.008 546.369 308.599 546.369C309.19 546.369 309.707 546.51 310.15 546.791C310.596 547.072 310.943 547.467 311.19 547.976C311.44 548.484 311.565 549.08 311.565 549.761C311.565 550.437 311.44 551.028 311.19 551.534C310.943 552.04 310.596 552.433 310.15 552.714C309.707 552.996 309.19 553.136 308.599 553.136ZM308.599 552.233C309.048 552.233 309.417 552.118 309.707 551.888C309.997 551.658 310.211 551.355 310.35 550.98C310.49 550.605 310.559 550.199 310.559 549.761C310.559 549.324 310.49 548.916 310.35 548.538C310.211 548.161 309.997 547.855 309.707 547.622C309.417 547.389 309.048 547.273 308.599 547.273C308.15 547.273 307.781 547.389 307.491 547.622C307.201 547.855 306.987 548.161 306.848 548.538C306.708 548.916 306.639 549.324 306.639 549.761C306.639 550.199 306.708 550.605 306.848 550.98C306.987 551.355 307.201 551.658 307.491 551.888C307.781 552.118 308.15 552.233 308.599 552.233ZM314.106 549.062V553H313.1V546.455H314.072V547.477H314.157C314.31 547.145 314.543 546.878 314.856 546.676C315.168 546.472 315.572 546.369 316.066 546.369C316.509 546.369 316.897 546.46 317.229 546.642C317.562 546.821 317.82 547.094 318.005 547.46C318.19 547.824 318.282 548.284 318.282 548.841V553H317.276V548.909C317.276 548.395 317.143 547.994 316.876 547.707C316.609 547.418 316.242 547.273 315.776 547.273C315.455 547.273 315.168 547.342 314.915 547.482C314.665 547.621 314.468 547.824 314.323 548.091C314.178 548.358 314.106 548.682 314.106 549.062Z" fill="#141B3D"/>
<path d="M47.5387 77H39.016V47.9091H48.0501C50.8247 47.9091 53.1969 48.4867 55.1665 49.642C57.1457 50.7973 58.6609 52.4545 59.712 54.6136C60.7631 56.7727 61.2887 59.3627 61.2887 62.3835C61.2887 65.4328 60.7489 68.0511 59.6694 70.2386C58.5993 72.4167 57.0368 74.0881 54.9819 75.2528C52.9364 76.4176 50.4554 77 47.5387 77ZM41.6722 74.6136H47.3825C49.8825 74.6136 51.9753 74.1212 53.6609 73.1364C55.3465 72.1515 56.6107 70.7453 57.4535 68.9176C58.2963 67.09 58.7177 64.9119 58.7177 62.3835C58.7082 59.8741 58.2915 57.715 57.4677 55.9062C56.6533 54.0975 55.4412 52.7102 53.8313 51.7443C52.2309 50.7784 50.2518 50.2955 47.8938 50.2955H41.6722V74.6136ZM67.2013 77V55.1818H69.6587V58.5341H69.8434C70.279 57.4356 71.0366 56.5502 72.1161 55.8778C73.2051 55.196 74.4362 54.8551 75.8093 54.8551C76.0176 54.8551 76.2496 54.8598 76.5053 54.8693C76.761 54.8788 76.9741 54.8883 77.1445 54.8977V57.4688C77.0309 57.4498 76.832 57.4214 76.5479 57.3835C76.2638 57.3456 75.9561 57.3267 75.6246 57.3267C74.4883 57.3267 73.475 57.5682 72.5849 58.0511C71.7042 58.5246 71.0082 59.1828 70.4968 60.0256C69.9854 60.8684 69.7298 61.8295 69.7298 62.9091V77H67.2013ZM89.2752 77.4545C87.3907 77.4545 85.7241 76.9763 84.2752 76.0199C82.8358 75.0634 81.7089 73.7424 80.8945 72.0568C80.0801 70.3617 79.6729 68.4062 79.6729 66.1903C79.6729 63.9555 80.0801 61.9905 80.8945 60.2955C81.7089 58.5909 82.8358 57.2652 84.2752 56.3182C85.7241 55.3617 87.3907 54.8835 89.2752 54.8835C91.1597 54.8835 92.8216 55.3617 94.261 56.3182C95.7004 57.2746 96.8273 58.6004 97.6417 60.2955C98.4656 61.9905 98.8775 63.9555 98.8775 66.1903C98.8775 68.4062 98.4703 70.3617 97.6559 72.0568C96.8415 73.7424 95.7099 75.0634 94.261 76.0199C92.8216 76.9763 91.1597 77.4545 89.2752 77.4545ZM89.2752 75.1392C90.7904 75.1392 92.0735 74.732 93.1246 73.9176C94.1758 73.1032 94.9712 72.0189 95.511 70.6648C96.0603 69.3106 96.3349 67.8191 96.3349 66.1903C96.3349 64.5616 96.0603 63.0653 95.511 61.7017C94.9712 60.3381 94.1758 59.2443 93.1246 58.4205C92.0735 57.5966 90.7904 57.1847 89.2752 57.1847C87.7695 57.1847 86.4864 57.5966 85.4258 58.4205C84.3746 59.2443 83.5745 60.3381 83.0252 61.7017C82.4854 63.0653 82.2156 64.5616 82.2156 66.1903C82.2156 67.8191 82.4854 69.3106 83.0252 70.6648C83.5745 72.0189 84.3746 73.1032 85.4258 73.9176C86.4769 74.732 87.7601 75.1392 89.2752 75.1392ZM104.428 85.1818V55.1818H106.885V59.3438H107.184C107.487 58.6903 107.903 58.0227 108.434 57.3409C108.964 56.6496 109.665 56.0672 110.536 55.5938C111.417 55.1203 112.525 54.8835 113.86 54.8835C115.659 54.8835 117.231 55.357 118.576 56.304C119.93 57.2415 120.981 58.5578 121.729 60.2528C122.487 61.9384 122.865 63.9034 122.865 66.1477C122.865 68.4015 122.487 70.3759 121.729 72.071C120.981 73.7661 119.93 75.0871 118.576 76.0341C117.231 76.9811 115.668 77.4545 113.888 77.4545C112.572 77.4545 111.469 77.2178 110.578 76.7443C109.698 76.2708 108.983 75.6884 108.434 74.9972C107.894 74.2964 107.477 73.6146 107.184 72.9517H106.956V85.1818H104.428ZM106.928 66.1051C106.928 67.8665 107.188 69.429 107.709 70.7926C108.239 72.1468 108.997 73.2121 109.982 73.9886C110.976 74.7557 112.179 75.1392 113.59 75.1392C115.039 75.1392 116.26 74.7415 117.255 73.946C118.258 73.1411 119.021 72.0568 119.542 70.6932C120.072 69.3295 120.337 67.8002 120.337 66.1051C120.337 64.429 120.077 62.9186 119.556 61.5739C119.044 60.2292 118.287 59.1638 117.283 58.3778C116.279 57.5824 115.048 57.1847 113.59 57.1847C112.169 57.1847 110.962 57.5682 109.968 58.3352C108.973 59.0928 108.216 60.1439 107.695 61.4886C107.184 62.8239 106.928 64.3627 106.928 66.1051ZM136.267 77.4545C134.478 77.4545 132.91 76.9811 131.566 76.0341C130.221 75.0871 129.17 73.7661 128.412 72.071C127.664 70.3759 127.29 68.4015 127.29 66.1477C127.29 63.9034 127.664 61.9384 128.412 60.2528C129.17 58.5578 130.226 57.2415 131.58 56.304C132.934 55.357 134.511 54.8835 136.31 54.8835C137.636 54.8835 138.739 55.1203 139.62 55.5938C140.5 56.0578 141.206 56.6354 141.736 57.3267C142.266 58.018 142.678 58.6903 142.972 59.3438H143.199V47.9091H145.742V77H143.27V72.9517H142.972C142.678 73.6146 142.262 74.2964 141.722 74.9972C141.182 75.6884 140.467 76.2708 139.577 76.7443C138.696 77.2178 137.593 77.4545 136.267 77.4545ZM136.566 75.1392C137.977 75.1392 139.179 74.7557 140.174 73.9886C141.168 73.2121 141.926 72.1468 142.446 70.7926C142.977 69.429 143.242 67.8665 143.242 66.1051C143.242 64.3627 142.981 62.8239 142.461 61.4886C141.94 60.1439 141.182 59.0928 140.188 58.3352C139.194 57.5682 137.986 57.1847 136.566 57.1847C135.107 57.1847 133.876 57.5824 132.873 58.3778C131.878 59.1638 131.121 60.2292 130.6 61.5739C130.088 62.9186 129.833 64.429 129.833 66.1051C129.833 67.8002 130.093 69.3295 130.614 70.6932C131.135 72.0568 131.892 73.1411 132.887 73.946C133.891 74.7415 135.117 75.1392 136.566 75.1392ZM161.424 77.4545C159.539 77.4545 157.873 76.9763 156.424 76.0199C154.984 75.0634 153.857 73.7424 153.043 72.0568C152.229 70.3617 151.821 68.4062 151.821 66.1903C151.821 63.9555 152.229 61.9905 153.043 60.2955C153.857 58.5909 154.984 57.2652 156.424 56.3182C157.873 55.3617 159.539 54.8835 161.424 54.8835C163.308 54.8835 164.97 55.3617 166.409 56.3182C167.849 57.2746 168.976 58.6004 169.79 60.2955C170.614 61.9905 171.026 63.9555 171.026 66.1903C171.026 68.4062 170.619 70.3617 169.804 72.0568C168.99 73.7424 167.858 75.0634 166.409 76.0199C164.97 76.9763 163.308 77.4545 161.424 77.4545ZM161.424 75.1392C162.939 75.1392 164.222 74.732 165.273 73.9176C166.324 73.1032 167.12 72.0189 167.659 70.6648C168.209 69.3106 168.483 67.8191 168.483 66.1903C168.483 64.5616 168.209 63.0653 167.659 61.7017C167.12 60.3381 166.324 59.2443 165.273 58.4205C164.222 57.5966 162.939 57.1847 161.424 57.1847C159.918 57.1847 158.635 57.5966 157.574 58.4205C156.523 59.2443 155.723 60.3381 155.174 61.7017C154.634 63.0653 154.364 64.5616 154.364 66.1903C154.364 67.8191 154.634 69.3106 155.174 70.6648C155.723 72.0189 156.523 73.1032 157.574 73.9176C158.625 74.732 159.908 75.1392 161.424 75.1392ZM180.678 77L174.087 55.1818H176.757L181.928 73.179H182.113L187.269 55.1818H189.953L195.067 73.1364H195.266L200.436 55.1818H203.107L196.516 77H193.902L188.732 59.1165H188.462L183.292 77H180.678ZM210.55 63.3636V77H208.022V55.1818H210.479V58.6051H210.706C211.218 57.4877 212.013 56.5928 213.093 55.9205C214.182 55.2386 215.526 54.8977 217.127 54.8977C218.595 54.8977 219.882 55.2055 220.99 55.821C222.108 56.4271 222.974 57.322 223.59 58.5057C224.215 59.6894 224.527 61.143 224.527 62.8665V77H221.999V63.0227C221.999 61.233 221.497 59.8172 220.493 58.7756C219.499 57.7339 218.164 57.2131 216.488 57.2131C215.342 57.2131 214.324 57.4593 213.434 57.9517C212.543 58.4441 211.838 59.1544 211.317 60.0824C210.806 61.0009 210.55 62.0947 210.55 63.3636Z" fill="#C4C8DC"/>
<defs>
<filter id="filter0_d_134_633" x="257" y="122" width="172" height="213" filterUnits="userSpaceOnUse" color-interpolation-filters="sRGB">
<feFlood flood-opacity="0" result="BackgroundImageFix"/>
<feColorMatrix in="SourceAlpha" type="matrix" values="0 0 0 0 0 0 0 0 0 0 0 0 0 0 0 0 0 0 127 0" result="hardAlpha"/>
<feOffset dy="4"/>
<feGaussianBlur stdDeviation="3"/>
<feComposite in2="hardAlpha" operator="out"/>
<feColorMatrix type="matrix" values="0 0 0 0 0 0 0 0 0 0 0 0 0 0 0 0 0 0 0.1 0"/>
<feBlend mode="normal" in2="BackgroundImageFix" result="effect1_dropShadow_134_633"/>
<feBlend mode="normal" in="SourceGraphic" in2="effect1_dropShadow_134_633" result="shape"/>
</filter>
<clipPath id="clip0_134_633">
<path d="M263 124H423V317C423 321.418 419.418 325 415 325H271C266.582 325 263 321.418 263 317V124Z" fill="white"/>
</clipPath>
</defs>
</svg>
