<svg width="1080" height="2364" viewBox="0 0 1080 2364" fill="none" xmlns="http://www.w3.org/2000/svg">
<rect width="1080" height="2364" rx="16" fill="white"/>
<rect x="40.5" y="124.5" width="999" height="2199" rx="4.5" stroke="#9747FF" stroke-dasharray="10 5"/>
<g filter="url(#filter0_d_676_484)">
<path d="M60 1512C60 1507.58 63.5817 1504 68 1504H1012C1016.42 1504 1020 1507.58 1020 1512V1552H60V1512Z" fill="white"/>
<path d="M77.0511 1525.65V1524.45H87.598V1525.65H82.9886V1539H81.6605V1525.65H77.0511ZM90.3395 1539V1528.09H91.6108V1539H90.3395ZM90.9858 1526.22C90.7254 1526.22 90.5028 1526.13 90.3182 1525.95C90.1335 1525.77 90.0412 1525.56 90.0412 1525.31C90.0412 1525.06 90.1335 1524.84 90.3182 1524.67C90.5028 1524.49 90.7254 1524.4 90.9858 1524.4C91.2462 1524.4 91.4688 1524.49 91.6534 1524.67C91.8381 1524.84 91.9304 1525.06 91.9304 1525.31C91.9304 1525.56 91.8381 1525.77 91.6534 1525.95C91.4688 1526.13 91.2462 1526.22 90.9858 1526.22ZM99.2511 1528.09V1529.19H94.0451V1528.09H99.2511ZM95.6715 1525.48H96.9428V1536.15C96.9428 1536.61 97.021 1536.96 97.1772 1537.22C97.3335 1537.48 97.5371 1537.66 97.788 1537.77C98.0389 1537.88 98.3065 1537.93 98.5906 1537.93C98.7563 1537.93 98.8983 1537.92 99.0167 1537.9C99.1351 1537.88 99.2392 1537.85 99.3292 1537.83L99.5991 1538.97C99.476 1539.02 99.3245 1539.06 99.1445 1539.1C98.9646 1539.14 98.7421 1539.16 98.4769 1539.16C98.0129 1539.16 97.5655 1539.06 97.1346 1538.86C96.7085 1538.65 96.3581 1538.35 96.0835 1537.95C95.8088 1537.55 95.6715 1537.05 95.6715 1536.45V1525.48ZM103.621 1524.45V1539H102.357V1524.45H103.621ZM111.376 1539.23C110.358 1539.23 109.478 1538.99 108.734 1538.52C107.991 1538.04 107.416 1537.38 107.009 1536.54C106.606 1535.69 106.405 1534.71 106.405 1533.61C106.405 1532.51 106.606 1531.54 107.009 1530.68C107.416 1529.83 107.977 1529.16 108.692 1528.67C109.411 1528.19 110.242 1527.94 111.185 1527.94C111.777 1527.94 112.347 1528.05 112.896 1528.27C113.446 1528.48 113.938 1528.81 114.374 1529.26C114.814 1529.7 115.162 1530.25 115.418 1530.92C115.673 1531.59 115.801 1532.38 115.801 1533.3V1533.92H107.278V1532.81H114.509C114.509 1532.11 114.366 1531.48 114.082 1530.92C113.803 1530.35 113.412 1529.91 112.911 1529.58C112.413 1529.26 111.838 1529.09 111.185 1529.09C110.493 1529.09 109.885 1529.28 109.359 1529.65C108.834 1530.02 108.422 1530.5 108.124 1531.11C107.83 1531.72 107.681 1532.38 107.676 1533.1V1533.77C107.676 1534.63 107.825 1535.39 108.124 1536.04C108.427 1536.68 108.855 1537.18 109.409 1537.54C109.963 1537.89 110.619 1538.07 111.376 1538.07C111.893 1538.07 112.345 1537.99 112.733 1537.83C113.126 1537.67 113.455 1537.45 113.72 1537.18C113.99 1536.91 114.194 1536.61 114.331 1536.28L115.531 1536.67C115.366 1537.13 115.093 1537.55 114.714 1537.94C114.34 1538.33 113.872 1538.64 113.308 1538.88C112.75 1539.11 112.106 1539.23 111.376 1539.23ZM128.452 1539.23C127.51 1539.23 126.676 1538.99 125.952 1538.51C125.232 1538.03 124.669 1537.37 124.262 1536.53C123.855 1535.68 123.651 1534.7 123.651 1533.6C123.651 1532.48 123.855 1531.5 124.262 1530.65C124.669 1529.8 125.232 1529.13 125.952 1528.66C126.676 1528.18 127.51 1527.94 128.452 1527.94C129.394 1527.94 130.225 1528.18 130.945 1528.66C131.665 1529.14 132.228 1529.8 132.635 1530.65C133.047 1531.5 133.253 1532.48 133.253 1533.6C133.253 1534.7 133.05 1535.68 132.642 1536.53C132.235 1537.37 131.669 1538.03 130.945 1538.51C130.225 1538.99 129.394 1539.23 128.452 1539.23ZM128.452 1538.07C129.21 1538.07 129.851 1537.87 130.377 1537.46C130.902 1537.05 131.3 1536.51 131.57 1535.83C131.845 1535.16 131.982 1534.41 131.982 1533.6C131.982 1532.78 131.845 1532.03 131.57 1531.35C131.3 1530.67 130.902 1530.12 130.377 1529.71C129.851 1529.3 129.21 1529.09 128.452 1529.09C127.699 1529.09 127.058 1529.3 126.527 1529.71C126.002 1530.12 125.602 1530.67 125.327 1531.35C125.057 1532.03 124.922 1532.78 124.922 1533.6C124.922 1534.41 125.057 1535.16 125.327 1535.83C125.602 1536.51 126.002 1537.05 126.527 1537.46C127.053 1537.87 127.694 1538.07 128.452 1538.07ZM140.517 1528.09V1529.19H135.155V1528.09H140.517ZM136.831 1539V1526.49C136.831 1525.91 136.966 1525.41 137.236 1525.01C137.51 1524.61 137.868 1524.3 138.308 1524.09C138.749 1523.88 139.215 1523.78 139.707 1523.78C140.039 1523.78 140.313 1523.81 140.531 1523.87C140.754 1523.92 140.929 1523.97 141.057 1524.02L140.688 1525.13C140.593 1525.1 140.477 1525.07 140.339 1525.03C140.202 1524.99 140.029 1524.97 139.821 1524.97C139.272 1524.97 138.848 1525.13 138.55 1525.43C138.251 1525.74 138.102 1526.18 138.102 1526.76L138.095 1539H136.831ZM149.929 1524.45V1539H148.665V1524.45H149.929ZM156.321 1539.25C155.663 1539.25 155.062 1539.12 154.517 1538.87C153.973 1538.6 153.54 1538.23 153.218 1537.74C152.896 1537.25 152.735 1536.65 152.735 1535.95C152.735 1535.41 152.837 1534.96 153.04 1534.59C153.244 1534.22 153.533 1533.92 153.907 1533.68C154.281 1533.44 154.723 1533.26 155.235 1533.12C155.746 1532.98 156.31 1532.88 156.925 1532.8C157.536 1532.72 158.052 1532.66 158.473 1532.6C158.9 1532.54 159.224 1532.45 159.446 1532.33C159.669 1532.21 159.78 1532.01 159.78 1531.73V1531.48C159.78 1530.74 159.558 1530.15 159.113 1529.72C158.672 1529.29 158.038 1529.08 157.209 1529.08C156.423 1529.08 155.782 1529.25 155.284 1529.6C154.792 1529.94 154.446 1530.35 154.248 1530.82L153.047 1530.38C153.293 1529.79 153.634 1529.31 154.07 1528.96C154.506 1528.6 154.993 1528.34 155.533 1528.18C156.073 1528.02 156.62 1527.94 157.174 1527.94C157.59 1527.94 158.024 1528 158.473 1528.11C158.928 1528.21 159.349 1528.4 159.738 1528.67C160.126 1528.94 160.441 1529.31 160.682 1529.79C160.924 1530.26 161.044 1530.86 161.044 1531.59V1539H159.78V1537.27H159.702C159.551 1537.6 159.326 1537.91 159.027 1538.21C158.729 1538.51 158.355 1538.76 157.905 1538.96C157.455 1539.15 156.927 1539.25 156.321 1539.25ZM156.492 1538.09C157.164 1538.09 157.747 1537.94 158.239 1537.64C158.731 1537.35 159.11 1536.95 159.375 1536.46C159.645 1535.96 159.78 1535.41 159.78 1534.82V1533.24C159.685 1533.33 159.527 1533.41 159.304 1533.48C159.087 1533.55 158.833 1533.62 158.544 1533.67C158.26 1533.73 157.976 1533.77 157.692 1533.81C157.408 1533.85 157.152 1533.88 156.925 1533.91C156.31 1533.98 155.784 1534.1 155.348 1534.26C154.913 1534.42 154.579 1534.65 154.347 1534.93C154.115 1535.21 153.999 1535.57 153.999 1536.01C153.999 1536.67 154.236 1537.19 154.709 1537.55C155.183 1537.91 155.777 1538.09 156.492 1538.09ZM164.407 1539V1528.09H165.636V1529.77H165.728C165.946 1529.22 166.325 1528.78 166.865 1528.44C167.409 1528.1 168.025 1527.93 168.711 1527.93C168.815 1527.93 168.931 1527.93 169.059 1527.93C169.187 1527.94 169.294 1527.94 169.379 1527.95V1529.23C169.322 1529.22 169.223 1529.21 169.081 1529.19C168.939 1529.17 168.785 1529.16 168.619 1529.16C168.051 1529.16 167.544 1529.28 167.099 1529.53C166.659 1529.76 166.311 1530.09 166.055 1530.51C165.799 1530.93 165.672 1531.41 165.672 1531.95V1539H164.407ZM175.366 1543.32C174.623 1543.32 173.972 1543.22 173.413 1543.03C172.854 1542.84 172.383 1542.58 172 1542.25C171.616 1541.91 171.318 1541.54 171.105 1541.13L172.142 1540.45C172.298 1540.72 172.506 1540.99 172.767 1541.26C173.032 1541.52 173.375 1541.74 173.797 1541.92C174.223 1542.09 174.746 1542.18 175.366 1542.18C176.332 1542.18 177.111 1541.94 177.703 1541.46C178.299 1540.97 178.598 1540.22 178.598 1539.21V1536.75H178.484C178.337 1537.08 178.127 1537.41 177.852 1537.74C177.577 1538.07 177.217 1538.34 176.772 1538.56C176.332 1538.78 175.785 1538.89 175.132 1538.89C174.261 1538.89 173.486 1538.67 172.809 1538.24C172.137 1537.81 171.607 1537.19 171.218 1536.39C170.835 1535.59 170.643 1534.63 170.643 1533.52C170.643 1532.41 170.83 1531.44 171.204 1530.61C171.583 1529.77 172.111 1529.11 172.788 1528.64C173.465 1528.18 174.253 1527.94 175.153 1527.94C175.821 1527.94 176.375 1528.06 176.815 1528.3C177.255 1528.53 177.608 1528.82 177.873 1529.16C178.143 1529.51 178.354 1529.85 178.505 1530.17H178.633V1528.09H179.869V1539.28C179.869 1540.21 179.672 1540.97 179.279 1541.56C178.886 1542.16 178.351 1542.6 177.674 1542.88C176.997 1543.17 176.228 1543.32 175.366 1543.32ZM175.281 1537.73C175.982 1537.73 176.581 1537.56 177.078 1537.22C177.575 1536.88 177.956 1536.4 178.221 1535.76C178.486 1535.13 178.619 1534.37 178.619 1533.5C178.619 1532.64 178.489 1531.89 178.228 1531.23C177.968 1530.57 177.589 1530.05 177.092 1529.67C176.6 1529.28 175.996 1529.09 175.281 1529.09C174.552 1529.09 173.936 1529.29 173.434 1529.68C172.932 1530.07 172.554 1530.61 172.298 1531.27C172.042 1531.94 171.914 1532.68 171.914 1533.5C171.914 1534.33 172.045 1535.07 172.305 1535.7C172.565 1536.34 172.947 1536.84 173.449 1537.2C173.95 1537.55 174.561 1537.73 175.281 1537.73ZM187.626 1539.23C186.608 1539.23 185.728 1538.99 184.984 1538.52C184.241 1538.04 183.666 1537.38 183.259 1536.54C182.856 1535.69 182.655 1534.71 182.655 1533.61C182.655 1532.51 182.856 1531.54 183.259 1530.68C183.666 1529.83 184.227 1529.16 184.942 1528.67C185.661 1528.19 186.492 1527.94 187.435 1527.94C188.027 1527.94 188.597 1528.05 189.146 1528.27C189.696 1528.48 190.188 1528.81 190.624 1529.26C191.064 1529.7 191.412 1530.25 191.668 1530.92C191.923 1531.59 192.051 1532.38 192.051 1533.3V1533.92H183.528V1532.81H190.759C190.759 1532.11 190.616 1531.48 190.332 1530.92C190.053 1530.35 189.662 1529.91 189.161 1529.58C188.663 1529.26 188.088 1529.09 187.435 1529.09C186.743 1529.09 186.135 1529.28 185.609 1529.65C185.084 1530.02 184.672 1530.5 184.374 1531.11C184.08 1531.72 183.931 1532.38 183.926 1533.1V1533.77C183.926 1534.63 184.075 1535.39 184.374 1536.04C184.677 1536.68 185.105 1537.18 185.659 1537.54C186.213 1537.89 186.869 1538.07 187.626 1538.07C188.143 1538.07 188.595 1537.99 188.983 1537.83C189.376 1537.67 189.705 1537.45 189.97 1537.18C190.24 1536.91 190.444 1536.61 190.581 1536.28L191.781 1536.67C191.616 1537.13 191.343 1537.55 190.964 1537.94C190.59 1538.33 190.122 1538.64 189.558 1538.88C189 1539.11 188.356 1539.23 187.626 1539.23ZM200.462 1539V1528.09H201.691V1529.77H201.804C202.022 1529.2 202.384 1528.76 202.891 1528.44C203.402 1528.11 204.016 1527.95 204.73 1527.95C205.483 1527.95 206.101 1528.13 206.584 1528.48C207.072 1528.83 207.436 1529.31 207.678 1529.93H207.77C208.016 1529.32 208.417 1528.84 208.971 1528.49C209.529 1528.13 210.206 1527.95 211.002 1527.95C212.015 1527.95 212.815 1528.27 213.402 1528.91C213.989 1529.54 214.283 1530.47 214.283 1531.69V1539H213.019V1531.69C213.019 1530.83 212.799 1530.18 212.358 1529.75C211.918 1529.32 211.338 1529.11 210.618 1529.11C209.785 1529.11 209.143 1529.36 208.694 1529.87C208.244 1530.38 208.019 1531.03 208.019 1531.82V1539H206.726V1531.58C206.726 1530.84 206.52 1530.24 206.108 1529.79C205.696 1529.33 205.116 1529.11 204.368 1529.11C203.866 1529.11 203.414 1529.23 203.012 1529.48C202.614 1529.72 202.299 1530.07 202.067 1530.51C201.84 1530.94 201.726 1531.44 201.726 1532.01V1539H200.462ZM221.87 1539.23C220.928 1539.23 220.094 1538.99 219.37 1538.51C218.65 1538.03 218.087 1537.37 217.68 1536.53C217.272 1535.68 217.069 1534.7 217.069 1533.6C217.069 1532.48 217.272 1531.5 217.68 1530.65C218.087 1529.8 218.65 1529.13 219.37 1528.66C220.094 1528.18 220.928 1527.94 221.87 1527.94C222.812 1527.94 223.643 1528.18 224.363 1528.66C225.083 1529.14 225.646 1529.8 226.053 1530.65C226.465 1531.5 226.671 1532.48 226.671 1533.6C226.671 1534.7 226.468 1535.68 226.06 1536.53C225.653 1537.37 225.087 1538.03 224.363 1538.51C223.643 1538.99 222.812 1539.23 221.87 1539.23ZM221.87 1538.07C222.628 1538.07 223.269 1537.87 223.795 1537.46C224.32 1537.05 224.718 1536.51 224.988 1535.83C225.263 1535.16 225.4 1534.41 225.4 1533.6C225.4 1532.78 225.263 1532.03 224.988 1531.35C224.718 1530.67 224.32 1530.12 223.795 1529.71C223.269 1529.3 222.628 1529.09 221.87 1529.09C221.117 1529.09 220.476 1529.3 219.945 1529.71C219.42 1530.12 219.02 1530.67 218.745 1531.35C218.475 1532.03 218.34 1532.78 218.34 1533.6C218.34 1534.41 218.475 1535.16 218.745 1535.83C219.02 1536.51 219.42 1537.05 219.945 1537.46C220.471 1537.87 221.112 1538.07 221.87 1538.07ZM233.374 1539.23C232.479 1539.23 231.695 1538.99 231.023 1538.52C230.351 1538.04 229.825 1537.38 229.446 1536.54C229.072 1535.69 228.885 1534.7 228.885 1533.57C228.885 1532.45 229.072 1531.47 229.446 1530.63C229.825 1529.78 230.353 1529.12 231.03 1528.65C231.707 1528.18 232.496 1527.94 233.395 1527.94C234.058 1527.94 234.61 1528.06 235.05 1528.3C235.49 1528.53 235.843 1528.82 236.108 1529.16C236.373 1529.51 236.579 1529.85 236.726 1530.17H236.84V1524.45H238.111V1539H236.875V1536.98H236.726C236.579 1537.31 236.371 1537.65 236.101 1538C235.831 1538.34 235.474 1538.64 235.029 1538.87C234.588 1539.11 234.037 1539.23 233.374 1539.23ZM233.523 1538.07C234.229 1538.07 234.83 1537.88 235.327 1537.49C235.824 1537.11 236.203 1536.57 236.463 1535.9C236.729 1535.21 236.861 1534.43 236.861 1533.55C236.861 1532.68 236.731 1531.91 236.471 1531.24C236.21 1530.57 235.831 1530.05 235.334 1529.67C234.837 1529.28 234.233 1529.09 233.523 1529.09C232.794 1529.09 232.178 1529.29 231.676 1529.69C231.179 1530.08 230.801 1530.61 230.54 1531.29C230.284 1531.96 230.157 1532.71 230.157 1533.55C230.157 1534.4 230.287 1535.16 230.547 1535.85C230.808 1536.53 231.186 1537.07 231.684 1537.47C232.185 1537.87 232.799 1538.07 233.523 1538.07ZM244.759 1539.25C244.101 1539.25 243.499 1539.12 242.955 1538.87C242.41 1538.6 241.977 1538.23 241.655 1537.74C241.333 1537.25 241.172 1536.65 241.172 1535.95C241.172 1535.41 241.274 1534.96 241.478 1534.59C241.681 1534.22 241.97 1533.92 242.344 1533.68C242.718 1533.44 243.161 1533.26 243.672 1533.12C244.184 1532.98 244.747 1532.88 245.363 1532.8C245.973 1532.72 246.489 1532.66 246.911 1532.6C247.337 1532.54 247.661 1532.45 247.884 1532.33C248.106 1532.21 248.218 1532.01 248.218 1531.73V1531.48C248.218 1530.74 247.995 1530.15 247.55 1529.72C247.11 1529.29 246.475 1529.08 245.647 1529.08C244.861 1529.08 244.219 1529.25 243.722 1529.6C243.23 1529.94 242.884 1530.35 242.685 1530.82L241.485 1530.38C241.731 1529.79 242.072 1529.31 242.507 1528.96C242.943 1528.6 243.431 1528.34 243.971 1528.18C244.51 1528.02 245.057 1527.94 245.611 1527.94C246.028 1527.94 246.461 1528 246.911 1528.11C247.365 1528.21 247.787 1528.4 248.175 1528.67C248.563 1528.94 248.878 1529.31 249.12 1529.79C249.361 1530.26 249.482 1530.86 249.482 1531.59V1539H248.218V1537.27H248.14C247.988 1537.6 247.763 1537.91 247.465 1538.21C247.167 1538.51 246.792 1538.76 246.343 1538.96C245.893 1539.15 245.365 1539.25 244.759 1539.25ZM244.929 1538.09C245.602 1538.09 246.184 1537.94 246.676 1537.64C247.169 1537.35 247.548 1536.95 247.813 1536.46C248.083 1535.96 248.218 1535.41 248.218 1534.82V1533.24C248.123 1533.33 247.964 1533.41 247.742 1533.48C247.524 1533.55 247.271 1533.62 246.982 1533.67C246.698 1533.73 246.414 1533.77 246.13 1533.81C245.846 1533.85 245.59 1533.88 245.363 1533.91C244.747 1533.98 244.221 1534.1 243.786 1534.26C243.35 1534.42 243.016 1534.65 242.784 1534.93C242.552 1535.21 242.436 1535.57 242.436 1536.01C242.436 1536.67 242.673 1537.19 243.147 1537.55C243.62 1537.91 244.214 1538.09 244.929 1538.09ZM254.109 1524.45V1539H252.845V1524.45H254.109Z" fill="#151A30"/>
<path d="M986.757 1537.24L992 1532M997.243 1526.76L992 1532M992 1532L986.757 1526.76M992 1532L997.243 1537.24" stroke="#73768C" stroke-width="1.5" stroke-linecap="round" stroke-linejoin="round"/>
<rect width="960" height="688" transform="translate(60 1552)" fill="white"/>
<path d="M513.874 1894H512.465C512.382 1893.59 512.236 1893.24 512.028 1892.93C511.823 1892.62 511.573 1892.37 511.278 1892.16C510.986 1891.95 510.662 1891.79 510.306 1891.68C509.95 1891.58 509.579 1891.52 509.192 1891.52C508.488 1891.52 507.85 1891.7 507.278 1892.06C506.71 1892.41 506.257 1892.94 505.92 1893.63C505.586 1894.32 505.42 1895.17 505.42 1896.18C505.42 1897.19 505.586 1898.04 505.92 1898.73C506.257 1899.43 506.71 1899.95 507.278 1900.31C507.85 1900.66 508.488 1900.84 509.192 1900.84C509.579 1900.84 509.95 1900.79 510.306 1900.68C510.662 1900.58 510.986 1900.42 511.278 1900.21C511.573 1900 511.823 1899.74 512.028 1899.43C512.236 1899.12 512.382 1898.77 512.465 1898.36H513.874C513.768 1898.96 513.575 1899.49 513.295 1899.96C513.014 1900.43 512.666 1900.83 512.249 1901.16C511.833 1901.48 511.365 1901.73 510.846 1901.9C510.331 1902.07 509.78 1902.16 509.192 1902.16C508.2 1902.16 507.317 1901.92 506.545 1901.43C505.772 1900.95 505.164 1900.26 504.721 1899.36C504.278 1898.47 504.056 1897.41 504.056 1896.18C504.056 1894.95 504.278 1893.89 504.721 1893C505.164 1892.11 505.772 1891.42 506.545 1890.93C507.317 1890.45 508.2 1890.2 509.192 1890.2C509.78 1890.2 510.331 1890.29 510.846 1890.46C511.365 1890.63 511.833 1890.88 512.249 1891.21C512.666 1891.54 513.014 1891.93 513.295 1892.4C513.575 1892.87 513.768 1893.4 513.874 1894ZM519.515 1902.18C518.727 1902.18 518.036 1901.99 517.441 1901.62C516.85 1901.24 516.388 1900.72 516.055 1900.05C515.725 1899.37 515.56 1898.58 515.56 1897.68C515.56 1896.77 515.725 1895.98 516.055 1895.3C516.388 1894.62 516.85 1894.1 517.441 1893.72C518.036 1893.35 518.727 1893.16 519.515 1893.16C520.303 1893.16 520.992 1893.35 521.583 1893.72C522.178 1894.1 522.64 1894.62 522.969 1895.3C523.303 1895.98 523.469 1896.77 523.469 1897.68C523.469 1898.58 523.303 1899.37 522.969 1900.05C522.64 1900.72 522.178 1901.24 521.583 1901.62C520.992 1901.99 520.303 1902.18 519.515 1902.18ZM519.515 1900.98C520.113 1900.98 520.606 1900.82 520.992 1900.52C521.379 1900.21 521.665 1899.81 521.85 1899.31C522.036 1898.81 522.129 1898.27 522.129 1897.68C522.129 1897.1 522.036 1896.55 521.85 1896.05C521.665 1895.55 521.379 1895.14 520.992 1894.83C520.606 1894.52 520.113 1894.36 519.515 1894.36C518.916 1894.36 518.424 1894.52 518.038 1894.83C517.651 1895.14 517.365 1895.55 517.18 1896.05C516.994 1896.55 516.901 1897.1 516.901 1897.68C516.901 1898.27 516.994 1898.81 517.18 1899.31C517.365 1899.81 517.651 1900.21 518.038 1900.52C518.424 1900.82 518.916 1900.98 519.515 1900.98ZM526.857 1896.75V1902H525.516V1893.27H526.812V1894.64H526.925C527.13 1894.19 527.441 1893.84 527.857 1893.57C528.274 1893.3 528.812 1893.16 529.471 1893.16C530.062 1893.16 530.579 1893.28 531.022 1893.52C531.465 1893.76 531.81 1894.12 532.056 1894.61C532.302 1895.1 532.425 1895.71 532.425 1896.45V1902H531.085V1896.55C531.085 1895.86 530.906 1895.33 530.55 1894.94C530.194 1894.56 529.706 1894.36 529.085 1894.36C528.656 1894.36 528.274 1894.46 527.937 1894.64C527.603 1894.83 527.34 1895.1 527.147 1895.45C526.954 1895.81 526.857 1896.24 526.857 1896.75ZM538.671 1893.27V1894.41H534.148V1893.27H538.671ZM535.467 1891.18H536.808V1899.5C536.808 1899.88 536.862 1900.16 536.972 1900.35C537.086 1900.54 537.23 1900.66 537.404 1900.73C537.582 1900.79 537.77 1900.82 537.967 1900.82C538.114 1900.82 538.236 1900.81 538.33 1900.8C538.425 1900.78 538.501 1900.76 538.558 1900.75L538.83 1901.95C538.739 1901.99 538.612 1902.02 538.45 1902.06C538.287 1902.09 538.08 1902.11 537.83 1902.11C537.451 1902.11 537.08 1902.03 536.717 1901.87C536.357 1901.71 536.058 1901.46 535.819 1901.12C535.584 1900.79 535.467 1900.37 535.467 1899.86V1891.18ZM543.256 1902.2C542.703 1902.2 542.201 1902.1 541.751 1901.89C541.3 1901.68 540.942 1901.38 540.677 1900.98C540.412 1900.58 540.279 1900.09 540.279 1899.52C540.279 1899.02 540.378 1898.62 540.575 1898.31C540.772 1897.99 541.035 1897.75 541.364 1897.57C541.694 1897.39 542.058 1897.26 542.455 1897.17C542.857 1897.08 543.26 1897.01 543.665 1896.95C544.196 1896.89 544.626 1896.84 544.955 1896.8C545.289 1896.76 545.531 1896.7 545.683 1896.61C545.838 1896.53 545.915 1896.37 545.915 1896.16V1896.11C545.915 1895.55 545.762 1895.12 545.455 1894.81C545.152 1894.5 544.692 1894.34 544.075 1894.34C543.434 1894.34 542.933 1894.48 542.569 1894.76C542.205 1895.04 541.95 1895.34 541.802 1895.66L540.529 1895.2C540.756 1894.67 541.059 1894.26 541.438 1893.97C541.821 1893.67 542.237 1893.46 542.688 1893.34C543.143 1893.22 543.59 1893.16 544.029 1893.16C544.309 1893.16 544.631 1893.19 544.995 1893.26C545.362 1893.33 545.717 1893.46 546.058 1893.66C546.402 1893.87 546.688 1894.18 546.915 1894.59C547.143 1895 547.256 1895.56 547.256 1896.25V1902H545.915V1900.82H545.847C545.756 1901.01 545.605 1901.21 545.393 1901.43C545.181 1901.64 544.898 1901.83 544.546 1901.98C544.194 1902.13 543.764 1902.2 543.256 1902.2ZM543.461 1901C543.991 1901 544.438 1900.9 544.802 1900.69C545.169 1900.48 545.446 1900.21 545.631 1899.88C545.821 1899.55 545.915 1899.2 545.915 1898.84V1897.61C545.859 1897.68 545.734 1897.74 545.54 1897.8C545.351 1897.85 545.131 1897.9 544.881 1897.94C544.635 1897.98 544.395 1898.02 544.16 1898.05C543.929 1898.07 543.741 1898.09 543.597 1898.11C543.249 1898.16 542.923 1898.23 542.62 1898.34C542.321 1898.43 542.078 1898.58 541.893 1898.78C541.711 1898.98 541.62 1899.25 541.62 1899.59C541.62 1900.06 541.792 1900.41 542.137 1900.65C542.486 1900.88 542.927 1901 543.461 1901ZM549.704 1902V1893.27H551.045V1902H549.704ZM550.386 1891.82C550.124 1891.82 549.899 1891.73 549.71 1891.55C549.524 1891.37 549.431 1891.16 549.431 1890.91C549.431 1890.66 549.524 1890.45 549.71 1890.27C549.899 1890.09 550.124 1890 550.386 1890C550.647 1890 550.871 1890.09 551.056 1890.27C551.246 1890.45 551.34 1890.66 551.34 1890.91C551.34 1891.16 551.246 1891.37 551.056 1891.55C550.871 1891.73 550.647 1891.82 550.386 1891.82ZM554.842 1896.75V1902H553.501V1893.27H554.796V1894.64H554.91C555.114 1894.19 555.425 1893.84 555.842 1893.57C556.258 1893.3 556.796 1893.16 557.455 1893.16C558.046 1893.16 558.563 1893.28 559.006 1893.52C559.45 1893.76 559.794 1894.12 560.04 1894.61C560.287 1895.1 560.41 1895.71 560.41 1896.45V1902H559.069V1896.55C559.069 1895.86 558.891 1895.33 558.535 1894.94C558.179 1894.56 557.69 1894.36 557.069 1894.36C556.641 1894.36 556.258 1894.46 555.921 1894.64C555.588 1894.83 555.325 1895.1 555.131 1895.45C554.938 1895.81 554.842 1896.24 554.842 1896.75ZM566.519 1902.18C565.678 1902.18 564.953 1902 564.343 1901.62C563.737 1901.25 563.269 1900.73 562.94 1900.06C562.614 1899.38 562.451 1898.6 562.451 1897.7C562.451 1896.81 562.614 1896.02 562.94 1895.34C563.269 1894.66 563.728 1894.12 564.315 1893.74C564.906 1893.35 565.595 1893.16 566.383 1893.16C566.837 1893.16 567.286 1893.23 567.729 1893.39C568.173 1893.54 568.576 1893.78 568.94 1894.12C569.303 1894.46 569.593 1894.91 569.809 1895.47C570.025 1896.02 570.133 1896.71 570.133 1897.52V1898.09H563.406V1896.93H568.769C568.769 1896.44 568.671 1896 568.474 1895.61C568.281 1895.23 568.004 1894.92 567.644 1894.7C567.288 1894.48 566.868 1894.36 566.383 1894.36C565.849 1894.36 565.387 1894.5 564.996 1894.76C564.61 1895.02 564.313 1895.36 564.104 1895.78C563.896 1896.2 563.792 1896.66 563.792 1897.14V1897.91C563.792 1898.57 563.906 1899.13 564.133 1899.59C564.364 1900.04 564.684 1900.39 565.093 1900.62C565.502 1900.86 565.978 1900.98 566.519 1900.98C566.871 1900.98 567.19 1900.93 567.474 1900.83C567.762 1900.73 568.01 1900.58 568.218 1900.38C568.426 1900.17 568.587 1899.92 568.701 1899.61L569.996 1899.98C569.86 1900.42 569.631 1900.8 569.309 1901.14C568.987 1901.47 568.589 1901.72 568.116 1901.91C567.642 1902.09 567.11 1902.18 566.519 1902.18ZM572.173 1902V1893.27H573.468V1894.59H573.559C573.718 1894.16 574.006 1893.81 574.423 1893.54C574.839 1893.27 575.309 1893.14 575.832 1893.14C575.93 1893.14 576.053 1893.14 576.201 1893.14C576.349 1893.15 576.46 1893.15 576.536 1893.16V1894.52C576.491 1894.51 576.387 1894.49 576.224 1894.47C576.065 1894.45 575.896 1894.43 575.718 1894.43C575.294 1894.43 574.915 1894.52 574.582 1894.7C574.252 1894.87 573.991 1895.12 573.798 1895.43C573.608 1895.73 573.513 1896.08 573.513 1896.48V1902H572.173Z" fill="#151A30"/>
<path d="M60 2240H1020V2296C1020 2300.42 1016.42 2304 1012 2304H68C63.5817 2304 60 2300.42 60 2296V2240Z" fill="white"/>
<rect x="830" y="2256" width="85" height="32" rx="8" fill="#73768C"/>
<path d="M842.959 2276V2267.27H846.155C846.774 2267.27 847.287 2267.37 847.693 2267.58C848.099 2267.78 848.403 2268.06 848.605 2268.4C848.807 2268.75 848.908 2269.13 848.908 2269.57C848.908 2269.93 848.841 2270.24 848.707 2270.49C848.574 2270.73 848.395 2270.93 848.17 2271.08C847.949 2271.23 847.705 2271.34 847.438 2271.41V2271.49C847.727 2271.51 848.01 2271.6 848.286 2271.77C848.564 2271.94 848.794 2272.19 848.976 2272.5C849.158 2272.82 849.249 2273.2 849.249 2273.65C849.249 2274.1 849.143 2274.5 848.933 2274.85C848.726 2275.21 848.405 2275.49 847.97 2275.69C847.536 2275.9 846.98 2276 846.304 2276H842.959ZM844.276 2274.87H846.176C846.807 2274.87 847.259 2274.75 847.531 2274.5C847.804 2274.26 847.94 2273.95 847.94 2273.59C847.94 2273.31 847.871 2273.06 847.732 2272.83C847.592 2272.6 847.393 2272.42 847.135 2272.28C846.879 2272.14 846.575 2272.08 846.223 2272.08H844.276V2274.87ZM844.276 2271.05H846.04C846.335 2271.05 846.601 2270.99 846.837 2270.88C847.075 2270.76 847.264 2270.61 847.403 2270.4C847.545 2270.19 847.616 2269.95 847.616 2269.67C847.616 2269.31 847.49 2269 847.237 2268.76C846.984 2268.52 846.597 2268.39 846.074 2268.39H844.276V2271.05ZM856.423 2267.27H857.744V2273.01C857.744 2273.62 857.6 2274.16 857.313 2274.64C857.026 2275.11 856.623 2275.47 856.103 2275.74C855.583 2276.01 854.974 2276.14 854.275 2276.14C853.579 2276.14 852.971 2276.01 852.451 2275.74C851.931 2275.47 851.528 2275.11 851.241 2274.64C850.954 2274.16 850.81 2273.62 850.81 2273.01V2267.27H852.127V2272.91C852.127 2273.3 852.214 2273.65 852.387 2273.96C852.563 2274.27 852.812 2274.51 853.133 2274.68C853.454 2274.86 853.835 2274.94 854.275 2274.94C854.718 2274.94 855.1 2274.86 855.421 2274.68C855.745 2274.51 855.992 2274.27 856.163 2273.96C856.336 2273.65 856.423 2273.3 856.423 2272.91V2267.27ZM859.228 2268.41V2267.27H865.982V2268.41H863.259V2276H861.946V2268.41H859.228ZM867.044 2268.41V2267.27H873.798V2268.41H871.075V2276H869.763V2268.41H867.044ZM882.497 2271.64C882.497 2272.57 882.326 2273.37 881.985 2274.04C881.645 2274.71 881.177 2275.22 880.583 2275.58C879.993 2275.94 879.321 2276.12 878.568 2276.12C877.812 2276.12 877.137 2275.94 876.544 2275.58C875.953 2275.22 875.487 2274.71 875.146 2274.04C874.805 2273.37 874.635 2272.57 874.635 2271.64C874.635 2270.7 874.805 2269.9 875.146 2269.24C875.487 2268.57 875.953 2268.05 876.544 2267.69C877.137 2267.33 877.812 2267.15 878.568 2267.15C879.321 2267.15 879.993 2267.33 880.583 2267.69C881.177 2268.05 881.645 2268.57 881.985 2269.24C882.326 2269.9 882.497 2270.7 882.497 2271.64ZM881.193 2271.64C881.193 2270.93 881.078 2270.33 880.848 2269.84C880.62 2269.35 880.308 2268.98 879.91 2268.73C879.515 2268.48 879.068 2268.36 878.568 2268.36C878.065 2268.36 877.616 2268.48 877.221 2268.73C876.826 2268.98 876.514 2269.35 876.284 2269.84C876.056 2270.33 875.943 2270.93 875.943 2271.64C875.943 2272.35 876.056 2272.95 876.284 2273.43C876.514 2273.92 876.826 2274.29 877.221 2274.54C877.616 2274.79 878.065 2274.92 878.568 2274.92C879.068 2274.92 879.515 2274.79 879.91 2274.54C880.308 2274.29 880.62 2273.92 880.848 2273.43C881.078 2272.95 881.193 2272.35 881.193 2271.64ZM891.183 2267.27V2276H889.972L885.536 2269.6H885.455V2276H884.138V2267.27H885.357L889.798 2273.68H889.879V2267.27H891.183ZM896.16 2276V2275.05L899.113 2271.99C899.428 2271.65 899.688 2271.36 899.893 2271.11C900.1 2270.86 900.255 2270.62 900.357 2270.39C900.46 2270.16 900.511 2269.92 900.511 2269.67C900.511 2269.38 900.442 2269.13 900.306 2268.92C900.17 2268.7 899.984 2268.54 899.748 2268.43C899.512 2268.31 899.246 2268.25 898.951 2268.25C898.638 2268.25 898.366 2268.32 898.133 2268.44C897.9 2268.57 897.721 2268.75 897.596 2268.99C897.471 2269.22 897.408 2269.49 897.408 2269.8H896.151C896.151 2269.27 896.273 2268.81 896.518 2268.41C896.762 2268.01 897.097 2267.7 897.523 2267.49C897.95 2267.26 898.434 2267.15 898.977 2267.15C899.525 2267.15 900.008 2267.26 900.425 2267.48C900.846 2267.7 901.174 2267.99 901.41 2268.37C901.646 2268.74 901.763 2269.16 901.763 2269.63C901.763 2269.95 901.702 2270.27 901.58 2270.58C901.461 2270.89 901.252 2271.23 900.954 2271.62C900.656 2271.99 900.241 2272.45 899.71 2272.99L897.975 2274.81V2274.87H901.904V2276H896.16Z" fill="white"/>
<rect x="921" y="2256" width="83" height="32" rx="8" fill="#0E69F1"/>
<path d="M933.959 2276V2267.27H937.155C937.774 2267.27 938.287 2267.37 938.693 2267.58C939.099 2267.78 939.403 2268.06 939.605 2268.4C939.807 2268.75 939.908 2269.13 939.908 2269.57C939.908 2269.93 939.841 2270.24 939.707 2270.49C939.574 2270.73 939.395 2270.93 939.17 2271.08C938.949 2271.23 938.705 2271.34 938.438 2271.41V2271.49C938.727 2271.51 939.01 2271.6 939.286 2271.77C939.564 2271.94 939.794 2272.19 939.976 2272.5C940.158 2272.82 940.249 2273.2 940.249 2273.65C940.249 2274.1 940.143 2274.5 939.933 2274.85C939.726 2275.21 939.405 2275.49 938.97 2275.69C938.536 2275.9 937.98 2276 937.304 2276H933.959ZM935.276 2274.87H937.176C937.807 2274.87 938.259 2274.75 938.531 2274.5C938.804 2274.26 938.94 2273.95 938.94 2273.59C938.94 2273.31 938.871 2273.06 938.732 2272.83C938.592 2272.6 938.393 2272.42 938.135 2272.28C937.879 2272.14 937.575 2272.08 937.223 2272.08H935.276V2274.87ZM935.276 2271.05H937.04C937.335 2271.05 937.601 2270.99 937.837 2270.88C938.075 2270.76 938.264 2270.61 938.403 2270.4C938.545 2270.19 938.616 2269.95 938.616 2269.67C938.616 2269.31 938.49 2269 938.237 2268.76C937.984 2268.52 937.597 2268.39 937.074 2268.39H935.276V2271.05ZM947.423 2267.27H948.744V2273.01C948.744 2273.62 948.6 2274.16 948.313 2274.64C948.026 2275.11 947.623 2275.47 947.103 2275.74C946.583 2276.01 945.974 2276.14 945.275 2276.14C944.579 2276.14 943.971 2276.01 943.451 2275.74C942.931 2275.47 942.528 2275.11 942.241 2274.64C941.954 2274.16 941.81 2273.62 941.81 2273.01V2267.27H943.127V2272.91C943.127 2273.3 943.214 2273.65 943.387 2273.96C943.563 2274.27 943.812 2274.51 944.133 2274.68C944.454 2274.86 944.835 2274.94 945.275 2274.94C945.718 2274.94 946.1 2274.86 946.421 2274.68C946.745 2274.51 946.992 2274.27 947.163 2273.96C947.336 2273.65 947.423 2273.3 947.423 2272.91V2267.27ZM950.228 2268.41V2267.27H956.982V2268.41H954.259V2276H952.946V2268.41H950.228ZM958.044 2268.41V2267.27H964.798V2268.41H962.075V2276H960.763V2268.41H958.044ZM973.497 2271.64C973.497 2272.57 973.326 2273.37 972.985 2274.04C972.645 2274.71 972.177 2275.22 971.583 2275.58C970.993 2275.94 970.321 2276.12 969.568 2276.12C968.812 2276.12 968.137 2275.94 967.544 2275.58C966.953 2275.22 966.487 2274.71 966.146 2274.04C965.805 2273.37 965.635 2272.57 965.635 2271.64C965.635 2270.7 965.805 2269.9 966.146 2269.24C966.487 2268.57 966.953 2268.05 967.544 2267.69C968.137 2267.33 968.812 2267.15 969.568 2267.15C970.321 2267.15 970.993 2267.33 971.583 2267.69C972.177 2268.05 972.645 2268.57 972.985 2269.24C973.326 2269.9 973.497 2270.7 973.497 2271.64ZM972.193 2271.64C972.193 2270.93 972.078 2270.33 971.848 2269.84C971.62 2269.35 971.308 2268.98 970.91 2268.73C970.515 2268.48 970.068 2268.36 969.568 2268.36C969.065 2268.36 968.616 2268.48 968.221 2268.73C967.826 2268.98 967.514 2269.35 967.284 2269.84C967.056 2270.33 966.943 2270.93 966.943 2271.64C966.943 2272.35 967.056 2272.95 967.284 2273.43C967.514 2273.92 967.826 2274.29 968.221 2274.54C968.616 2274.79 969.065 2274.92 969.568 2274.92C970.068 2274.92 970.515 2274.79 970.91 2274.54C971.308 2274.29 971.62 2273.92 971.848 2273.43C972.078 2272.95 972.193 2272.35 972.193 2271.64ZM982.183 2267.27V2276H980.972L976.536 2269.6H976.455V2276H975.138V2267.27H976.357L980.798 2273.68H980.879V2267.27H982.183ZM990.471 2267.27V2276H989.15V2268.59H989.099L987.011 2269.96V2268.7L989.188 2267.27H990.471Z" fill="white"/>
</g>
<g filter="url(#filter1_d_676_484)">
<path d="M140 712C140 707.582 143.582 704 148 704H932C936.418 704 940 707.582 940 712V752H140V712Z" fill="white"/>
<path d="M157.051 725.648V724.455H167.598V725.648H162.989V739H161.661V725.648H157.051ZM170.339 739V728.091H171.611V739H170.339ZM170.986 726.216C170.725 726.216 170.503 726.128 170.318 725.953C170.134 725.773 170.041 725.558 170.041 725.307C170.041 725.056 170.134 724.843 170.318 724.668C170.503 724.488 170.725 724.398 170.986 724.398C171.246 724.398 171.469 724.488 171.653 724.668C171.838 724.843 171.93 725.056 171.93 725.307C171.93 725.558 171.838 725.773 171.653 725.953C171.469 726.128 171.246 726.216 170.986 726.216ZM179.251 728.091V729.192H174.045V728.091H179.251ZM175.672 725.477H176.943V736.152C176.943 736.607 177.021 736.964 177.177 737.224C177.333 737.48 177.537 737.662 177.788 737.771C178.039 737.875 178.306 737.928 178.591 737.928C178.756 737.928 178.898 737.918 179.017 737.899C179.135 737.875 179.239 737.852 179.329 737.828L179.599 738.972C179.476 739.019 179.324 739.062 179.145 739.099C178.965 739.142 178.742 739.163 178.477 739.163C178.013 739.163 177.565 739.062 177.135 738.858C176.708 738.654 176.358 738.351 176.083 737.949C175.809 737.546 175.672 737.047 175.672 736.45V725.477ZM183.621 724.455V739H182.357V724.455H183.621ZM191.376 739.227C190.358 739.227 189.478 738.991 188.734 738.517C187.991 738.039 187.416 737.378 187.009 736.536C186.606 735.688 186.405 734.713 186.405 733.609C186.405 732.511 186.606 731.536 187.009 730.683C187.416 729.826 187.977 729.156 188.692 728.673C189.411 728.186 190.242 727.942 191.185 727.942C191.777 727.942 192.347 728.051 192.896 728.268C193.446 728.482 193.938 728.811 194.374 729.256C194.814 729.696 195.162 730.252 195.418 730.925C195.673 731.592 195.801 732.383 195.801 733.297V733.922H187.278V732.807H194.509C194.509 732.106 194.366 731.476 194.082 730.918C193.803 730.354 193.412 729.909 192.911 729.582C192.413 729.256 191.838 729.092 191.185 729.092C190.493 729.092 189.885 729.277 189.359 729.646C188.834 730.016 188.422 730.503 188.124 731.109C187.83 731.715 187.681 732.378 187.676 733.098V733.766C187.676 734.632 187.825 735.39 188.124 736.038C188.427 736.682 188.855 737.182 189.409 737.537C189.963 737.892 190.619 738.07 191.376 738.07C191.893 738.07 192.345 737.989 192.733 737.828C193.126 737.667 193.455 737.452 193.72 737.182C193.99 736.907 194.194 736.607 194.331 736.28L195.531 736.67C195.366 737.13 195.093 737.554 194.714 737.942C194.34 738.33 193.872 738.643 193.308 738.879C192.75 739.111 192.106 739.227 191.376 739.227ZM208.452 739.227C207.51 739.227 206.676 738.988 205.952 738.51C205.232 738.032 204.669 737.371 204.262 736.528C203.855 735.681 203.651 734.703 203.651 733.595C203.651 732.478 203.855 731.495 204.262 730.648C204.669 729.795 205.232 729.133 205.952 728.659C206.676 728.181 207.51 727.942 208.452 727.942C209.394 727.942 210.225 728.181 210.945 728.659C211.665 729.137 212.228 729.8 212.635 730.648C213.047 731.495 213.253 732.478 213.253 733.595C213.253 734.703 213.05 735.681 212.642 736.528C212.235 737.371 211.669 738.032 210.945 738.51C210.225 738.988 209.394 739.227 208.452 739.227ZM208.452 738.07C209.21 738.07 209.851 737.866 210.377 737.459C210.902 737.052 211.3 736.509 211.57 735.832C211.845 735.155 211.982 734.41 211.982 733.595C211.982 732.781 211.845 732.033 211.57 731.351C211.3 730.669 210.902 730.122 210.377 729.71C209.851 729.298 209.21 729.092 208.452 729.092C207.699 729.092 207.058 729.298 206.527 729.71C206.002 730.122 205.602 730.669 205.327 731.351C205.057 732.033 204.922 732.781 204.922 733.595C204.922 734.41 205.057 735.155 205.327 735.832C205.602 736.509 206.002 737.052 206.527 737.459C207.053 737.866 207.694 738.07 208.452 738.07ZM220.517 728.091V729.192H215.155V728.091H220.517ZM216.831 739V726.493C216.831 725.906 216.966 725.411 217.236 725.009C217.51 724.606 217.868 724.301 218.308 724.092C218.749 723.884 219.215 723.78 219.707 723.78C220.039 723.78 220.313 723.808 220.531 723.865C220.754 723.917 220.929 723.969 221.057 724.021L220.688 725.129C220.593 725.101 220.477 725.068 220.339 725.03C220.202 724.992 220.029 724.973 219.821 724.973C219.272 724.973 218.848 725.127 218.55 725.435C218.251 725.742 218.102 726.183 218.102 726.756L218.095 739H216.831ZM228.665 739V728.091H229.894V729.767H230.007C230.225 729.204 230.587 728.761 231.094 728.439C231.605 728.112 232.219 727.949 232.934 727.949C233.686 727.949 234.304 728.126 234.787 728.482C235.275 728.832 235.64 729.315 235.881 729.93H235.973C236.22 729.324 236.62 728.844 237.174 728.489C237.732 728.129 238.409 727.949 239.205 727.949C240.218 727.949 241.018 728.268 241.605 728.908C242.193 729.542 242.486 730.47 242.486 731.692V739H241.222V731.692C241.222 730.83 241.002 730.184 240.561 729.753C240.121 729.322 239.541 729.107 238.821 729.107C237.988 729.107 237.346 729.362 236.897 729.874C236.447 730.385 236.222 731.034 236.222 731.82V739H234.929V731.578C234.929 730.839 234.723 730.243 234.311 729.788C233.9 729.334 233.319 729.107 232.571 729.107C232.069 729.107 231.617 729.23 231.215 729.476C230.817 729.722 230.502 730.065 230.27 730.506C230.043 730.941 229.929 731.443 229.929 732.011V739H228.665ZM250.244 739.227C249.226 739.227 248.345 738.991 247.602 738.517C246.858 738.039 246.283 737.378 245.876 736.536C245.473 735.688 245.272 734.713 245.272 733.609C245.272 732.511 245.473 731.536 245.876 730.683C246.283 729.826 246.844 729.156 247.559 728.673C248.279 728.186 249.11 727.942 250.052 727.942C250.644 727.942 251.214 728.051 251.763 728.268C252.313 728.482 252.805 728.811 253.241 729.256C253.681 729.696 254.029 730.252 254.285 730.925C254.54 731.592 254.668 732.383 254.668 733.297V733.922H246.146V732.807H253.376C253.376 732.106 253.234 731.476 252.95 730.918C252.67 730.354 252.28 729.909 251.778 729.582C251.281 729.256 250.705 729.092 250.052 729.092C249.361 729.092 248.752 729.277 248.227 729.646C247.701 730.016 247.289 730.503 246.991 731.109C246.697 731.715 246.548 732.378 246.543 733.098V733.766C246.543 734.632 246.692 735.39 246.991 736.038C247.294 736.682 247.722 737.182 248.276 737.537C248.83 737.892 249.486 738.07 250.244 738.07C250.76 738.07 251.212 737.989 251.6 737.828C251.993 737.667 252.322 737.452 252.587 737.182C252.857 736.907 253.061 736.607 253.198 736.28L254.398 736.67C254.233 737.13 253.96 737.554 253.582 737.942C253.208 738.33 252.739 738.643 252.175 738.879C251.617 739.111 250.973 739.227 250.244 739.227ZM261.382 739.227C260.487 739.227 259.703 738.991 259.031 738.517C258.359 738.044 257.833 737.383 257.454 736.536C257.08 735.688 256.893 734.701 256.893 733.574C256.893 732.452 257.08 731.469 257.454 730.626C257.833 729.779 258.361 729.121 259.038 728.652C259.715 728.179 260.503 727.942 261.403 727.942C262.066 727.942 262.618 728.06 263.058 728.297C263.498 728.529 263.851 728.818 264.116 729.163C264.381 729.509 264.587 729.845 264.734 730.172H264.848V724.455H266.119V739H264.883V736.976H264.734C264.587 737.307 264.379 737.648 264.109 737.999C263.839 738.344 263.482 738.635 263.037 738.872C262.596 739.109 262.045 739.227 261.382 739.227ZM261.531 738.07C262.236 738.07 262.838 737.878 263.335 737.494C263.832 737.106 264.211 736.573 264.471 735.896C264.736 735.214 264.869 734.433 264.869 733.553C264.869 732.681 264.739 731.912 264.478 731.244C264.218 730.572 263.839 730.046 263.342 729.668C262.845 729.284 262.241 729.092 261.531 729.092C260.802 729.092 260.186 729.291 259.684 729.689C259.187 730.082 258.808 730.615 258.548 731.287C258.292 731.959 258.164 732.714 258.164 733.553C258.164 734.4 258.295 735.165 258.555 735.847C258.815 736.528 259.194 737.071 259.691 737.473C260.193 737.871 260.806 738.07 261.531 738.07ZM269.734 739V728.091H271.005V739H269.734ZM270.38 726.216C270.12 726.216 269.897 726.128 269.713 725.953C269.528 725.773 269.436 725.558 269.436 725.307C269.436 725.056 269.528 724.843 269.713 724.668C269.897 724.488 270.12 724.398 270.38 724.398C270.641 724.398 270.863 724.488 271.048 724.668C271.233 724.843 271.325 725.056 271.325 725.307C271.325 725.558 271.233 725.773 271.048 725.953C270.863 726.128 270.641 726.216 270.38 726.216ZM281.281 734.831V728.091H282.545V739H281.281V737.189H281.181C280.925 737.748 280.521 738.214 279.967 738.588C279.413 738.957 278.736 739.142 277.935 739.142C277.239 739.142 276.621 738.991 276.082 738.688C275.542 738.38 275.118 737.93 274.81 737.338C274.503 736.746 274.349 736.019 274.349 735.158V728.091H275.613V735.08C275.613 735.932 275.864 736.618 276.366 737.139C276.868 737.655 277.512 737.913 278.298 737.913C278.79 737.913 279.263 737.795 279.718 737.558C280.173 737.321 280.547 736.976 280.84 736.521C281.134 736.062 281.281 735.499 281.281 734.831ZM285.892 739V728.091H287.12V729.767H287.234C287.452 729.204 287.814 728.761 288.321 728.439C288.832 728.112 289.445 727.949 290.16 727.949C290.913 727.949 291.531 728.126 292.014 728.482C292.502 728.832 292.866 729.315 293.108 729.93H293.2C293.446 729.324 293.846 728.844 294.4 728.489C294.959 728.129 295.636 727.949 296.431 727.949C297.445 727.949 298.245 728.268 298.832 728.908C299.419 729.542 299.713 730.47 299.713 731.692V739H298.449V731.692C298.449 730.83 298.228 730.184 297.788 729.753C297.348 729.322 296.768 729.107 296.048 729.107C295.215 729.107 294.573 729.362 294.123 729.874C293.673 730.385 293.449 731.034 293.449 731.82V739H292.156V731.578C292.156 730.839 291.95 730.243 291.538 729.788C291.126 729.334 290.546 729.107 289.798 729.107C289.296 729.107 288.844 729.23 288.441 729.476C288.044 729.722 287.729 730.065 287.497 730.506C287.27 730.941 287.156 731.443 287.156 732.011V739H285.892ZM308.685 739V728.091H309.913V729.767H310.027C310.245 729.204 310.607 728.761 311.114 728.439C311.625 728.112 312.238 727.949 312.953 727.949C313.706 727.949 314.324 728.126 314.807 728.482C315.295 728.832 315.659 729.315 315.901 729.93H315.993C316.239 729.324 316.639 728.844 317.193 728.489C317.752 728.129 318.429 727.949 319.224 727.949C320.238 727.949 321.038 728.268 321.625 728.908C322.212 729.542 322.506 730.47 322.506 731.692V739H321.241V731.692C321.241 730.83 321.021 730.184 320.581 729.753C320.141 729.322 319.561 729.107 318.841 729.107C318.008 729.107 317.366 729.362 316.916 729.874C316.466 730.385 316.241 731.034 316.241 731.82V739H314.949V731.578C314.949 730.839 314.743 730.243 314.331 729.788C313.919 729.334 313.339 729.107 312.591 729.107C312.089 729.107 311.637 729.23 311.234 729.476C310.837 729.722 310.522 730.065 310.29 730.506C310.063 730.941 309.949 731.443 309.949 732.011V739H308.685ZM330.093 739.227C329.15 739.227 328.317 738.988 327.593 738.51C326.873 738.032 326.31 737.371 325.902 736.528C325.495 735.681 325.292 734.703 325.292 733.595C325.292 732.478 325.495 731.495 325.902 730.648C326.31 729.795 326.873 729.133 327.593 728.659C328.317 728.181 329.15 727.942 330.093 727.942C331.035 727.942 331.866 728.181 332.586 728.659C333.305 729.137 333.869 729.8 334.276 730.648C334.688 731.495 334.894 732.478 334.894 733.595C334.894 734.703 334.69 735.681 334.283 736.528C333.876 737.371 333.31 738.032 332.586 738.51C331.866 738.988 331.035 739.227 330.093 739.227ZM330.093 738.07C330.85 738.07 331.492 737.866 332.017 737.459C332.543 737.052 332.941 736.509 333.211 735.832C333.485 735.155 333.623 734.41 333.623 733.595C333.623 732.781 333.485 732.033 333.211 731.351C332.941 730.669 332.543 730.122 332.017 729.71C331.492 729.298 330.85 729.092 330.093 729.092C329.34 729.092 328.698 729.298 328.168 729.71C327.642 730.122 327.242 730.669 326.968 731.351C326.698 732.033 326.563 732.781 326.563 733.595C326.563 734.41 326.698 735.155 326.968 735.832C327.242 736.509 327.642 737.052 328.168 737.459C328.694 737.866 329.335 738.07 330.093 738.07ZM341.597 739.227C340.702 739.227 339.918 738.991 339.246 738.517C338.573 738.044 338.048 737.383 337.669 736.536C337.295 735.688 337.108 734.701 337.108 733.574C337.108 732.452 337.295 731.469 337.669 730.626C338.048 729.779 338.576 729.121 339.253 728.652C339.93 728.179 340.718 727.942 341.618 727.942C342.281 727.942 342.832 728.06 343.273 728.297C343.713 728.529 344.066 728.818 344.331 729.163C344.596 729.509 344.802 729.845 344.949 730.172H345.062V724.455H346.334V739H345.098V736.976H344.949C344.802 737.307 344.594 737.648 344.324 737.999C344.054 738.344 343.696 738.635 343.251 738.872C342.811 739.109 342.259 739.227 341.597 739.227ZM341.746 738.07C342.451 738.07 343.053 737.878 343.55 737.494C344.047 737.106 344.426 736.573 344.686 735.896C344.951 735.214 345.084 734.433 345.084 733.553C345.084 732.681 344.954 731.912 344.693 731.244C344.433 730.572 344.054 730.046 343.557 729.668C343.06 729.284 342.456 729.092 341.746 729.092C341.017 729.092 340.401 729.291 339.899 729.689C339.402 730.082 339.023 730.615 338.763 731.287C338.507 731.959 338.379 732.714 338.379 733.553C338.379 734.4 338.509 735.165 338.77 735.847C339.03 736.528 339.409 737.071 339.906 737.473C340.408 737.871 341.021 738.07 341.746 738.07ZM352.982 739.249C352.323 739.249 351.722 739.121 351.178 738.865C350.633 738.605 350.2 738.231 349.878 737.743C349.556 737.25 349.395 736.654 349.395 735.953C349.395 735.413 349.497 734.959 349.7 734.589C349.904 734.22 350.193 733.917 350.567 733.68C350.941 733.444 351.384 733.257 351.895 733.119C352.406 732.982 352.97 732.875 353.585 732.8C354.196 732.724 354.712 732.658 355.134 732.601C355.56 732.544 355.884 732.454 356.107 732.331C356.329 732.208 356.44 732.009 356.44 731.734V731.479C356.44 730.735 356.218 730.151 355.773 729.724C355.332 729.294 354.698 729.078 353.869 729.078C353.083 729.078 352.442 729.251 351.945 729.597C351.452 729.942 351.107 730.349 350.908 730.818L349.707 730.385C349.954 729.788 350.295 729.312 350.73 728.957C351.166 728.598 351.653 728.339 352.193 728.183C352.733 728.022 353.28 727.942 353.834 727.942C354.25 727.942 354.684 727.996 355.134 728.105C355.588 728.214 356.009 728.403 356.398 728.673C356.786 728.938 357.101 729.31 357.342 729.788C357.584 730.262 357.705 730.863 357.705 731.592V739H356.44V737.274H356.362C356.211 737.596 355.986 737.909 355.688 738.212C355.389 738.515 355.015 738.763 354.565 738.957C354.116 739.152 353.588 739.249 352.982 739.249ZM353.152 738.091C353.824 738.091 354.407 737.942 354.899 737.643C355.392 737.345 355.77 736.95 356.036 736.457C356.305 735.96 356.44 735.413 356.44 734.817V733.24C356.346 733.33 356.187 733.411 355.964 733.482C355.747 733.553 355.493 733.616 355.205 733.673C354.92 733.725 354.636 733.77 354.352 733.808C354.068 733.846 353.812 733.879 353.585 733.908C352.97 733.983 352.444 734.102 352.009 734.263C351.573 734.424 351.239 734.646 351.007 734.93C350.775 735.21 350.659 735.57 350.659 736.01C350.659 736.673 350.896 737.187 351.369 737.551C351.843 737.911 352.437 738.091 353.152 738.091ZM362.332 724.455V739H361.067V724.455H362.332Z" fill="#151A30"/>
<path d="M906.757 737.243L912 732M917.243 726.757L912 732M912 732L906.757 726.757M912 732L917.243 737.243" stroke="#73768C" stroke-width="1.5" stroke-linecap="round" stroke-linejoin="round"/>
<rect width="800" height="528" transform="translate(140 752)" fill="white"/>
<path d="M513.874 1014H512.465C512.382 1013.59 512.236 1013.24 512.028 1012.93C511.823 1012.62 511.573 1012.37 511.278 1012.16C510.986 1011.95 510.662 1011.79 510.306 1011.68C509.95 1011.58 509.579 1011.52 509.192 1011.52C508.488 1011.52 507.85 1011.7 507.278 1012.06C506.71 1012.41 506.257 1012.94 505.92 1013.63C505.586 1014.32 505.42 1015.17 505.42 1016.18C505.42 1017.19 505.586 1018.04 505.92 1018.73C506.257 1019.43 506.71 1019.95 507.278 1020.31C507.85 1020.66 508.488 1020.84 509.192 1020.84C509.579 1020.84 509.95 1020.79 510.306 1020.68C510.662 1020.58 510.986 1020.42 511.278 1020.21C511.573 1020 511.823 1019.74 512.028 1019.43C512.236 1019.12 512.382 1018.77 512.465 1018.36H513.874C513.768 1018.96 513.575 1019.49 513.295 1019.96C513.014 1020.43 512.666 1020.83 512.249 1021.16C511.833 1021.48 511.365 1021.73 510.846 1021.9C510.331 1022.07 509.78 1022.16 509.192 1022.16C508.2 1022.16 507.317 1021.92 506.545 1021.43C505.772 1020.95 505.164 1020.26 504.721 1019.36C504.278 1018.47 504.056 1017.41 504.056 1016.18C504.056 1014.95 504.278 1013.89 504.721 1013C505.164 1012.11 505.772 1011.42 506.545 1010.93C507.317 1010.45 508.2 1010.2 509.192 1010.2C509.78 1010.2 510.331 1010.29 510.846 1010.46C511.365 1010.63 511.833 1010.88 512.249 1011.21C512.666 1011.54 513.014 1011.93 513.295 1012.4C513.575 1012.87 513.768 1013.4 513.874 1014ZM519.515 1022.18C518.727 1022.18 518.036 1021.99 517.441 1021.62C516.85 1021.24 516.388 1020.72 516.055 1020.05C515.725 1019.37 515.56 1018.58 515.56 1017.68C515.56 1016.77 515.725 1015.98 516.055 1015.3C516.388 1014.62 516.85 1014.1 517.441 1013.72C518.036 1013.35 518.727 1013.16 519.515 1013.16C520.303 1013.16 520.992 1013.35 521.583 1013.72C522.178 1014.1 522.64 1014.62 522.969 1015.3C523.303 1015.98 523.469 1016.77 523.469 1017.68C523.469 1018.58 523.303 1019.37 522.969 1020.05C522.64 1020.72 522.178 1021.24 521.583 1021.62C520.992 1021.99 520.303 1022.18 519.515 1022.18ZM519.515 1020.98C520.113 1020.98 520.606 1020.82 520.992 1020.52C521.379 1020.21 521.665 1019.81 521.85 1019.31C522.036 1018.81 522.129 1018.27 522.129 1017.68C522.129 1017.1 522.036 1016.55 521.85 1016.05C521.665 1015.55 521.379 1015.14 520.992 1014.83C520.606 1014.52 520.113 1014.36 519.515 1014.36C518.916 1014.36 518.424 1014.52 518.038 1014.83C517.651 1015.14 517.365 1015.55 517.18 1016.05C516.994 1016.55 516.901 1017.1 516.901 1017.68C516.901 1018.27 516.994 1018.81 517.18 1019.31C517.365 1019.81 517.651 1020.21 518.038 1020.52C518.424 1020.82 518.916 1020.98 519.515 1020.98ZM526.857 1016.75V1022H525.516V1013.27H526.812V1014.64H526.925C527.13 1014.19 527.441 1013.84 527.857 1013.57C528.274 1013.3 528.812 1013.16 529.471 1013.16C530.062 1013.16 530.579 1013.28 531.022 1013.52C531.465 1013.76 531.81 1014.12 532.056 1014.61C532.302 1015.1 532.425 1015.71 532.425 1016.45V1022H531.085V1016.55C531.085 1015.86 530.906 1015.33 530.55 1014.94C530.194 1014.56 529.706 1014.36 529.085 1014.36C528.656 1014.36 528.274 1014.46 527.937 1014.64C527.603 1014.83 527.34 1015.1 527.147 1015.45C526.954 1015.81 526.857 1016.24 526.857 1016.75ZM538.671 1013.27V1014.41H534.148V1013.27H538.671ZM535.467 1011.18H536.808V1019.5C536.808 1019.88 536.862 1020.16 536.972 1020.35C537.086 1020.54 537.23 1020.66 537.404 1020.73C537.582 1020.79 537.77 1020.82 537.967 1020.82C538.114 1020.82 538.236 1020.81 538.33 1020.8C538.425 1020.78 538.501 1020.76 538.558 1020.75L538.83 1021.95C538.739 1021.99 538.612 1022.02 538.45 1022.06C538.287 1022.09 538.08 1022.11 537.83 1022.11C537.451 1022.11 537.08 1022.03 536.717 1021.87C536.357 1021.71 536.058 1021.46 535.819 1021.12C535.584 1020.79 535.467 1020.37 535.467 1019.86V1011.18ZM543.256 1022.2C542.703 1022.2 542.201 1022.1 541.751 1021.89C541.3 1021.68 540.942 1021.38 540.677 1020.98C540.412 1020.58 540.279 1020.09 540.279 1019.52C540.279 1019.02 540.378 1018.62 540.575 1018.31C540.772 1017.99 541.035 1017.75 541.364 1017.57C541.694 1017.39 542.058 1017.26 542.455 1017.17C542.857 1017.08 543.26 1017.01 543.665 1016.95C544.196 1016.89 544.626 1016.84 544.955 1016.8C545.289 1016.76 545.531 1016.7 545.683 1016.61C545.838 1016.53 545.915 1016.37 545.915 1016.16V1016.11C545.915 1015.55 545.762 1015.12 545.455 1014.81C545.152 1014.5 544.692 1014.34 544.075 1014.34C543.434 1014.34 542.933 1014.48 542.569 1014.76C542.205 1015.04 541.95 1015.34 541.802 1015.66L540.529 1015.2C540.756 1014.67 541.059 1014.26 541.438 1013.97C541.821 1013.67 542.237 1013.46 542.688 1013.34C543.143 1013.22 543.59 1013.16 544.029 1013.16C544.309 1013.16 544.631 1013.19 544.995 1013.26C545.362 1013.33 545.717 1013.46 546.058 1013.66C546.402 1013.87 546.688 1014.18 546.915 1014.59C547.143 1015 547.256 1015.56 547.256 1016.25V1022H545.915V1020.82H545.847C545.756 1021.01 545.605 1021.21 545.393 1021.43C545.181 1021.64 544.898 1021.83 544.546 1021.98C544.194 1022.13 543.764 1022.2 543.256 1022.2ZM543.461 1021C543.991 1021 544.438 1020.9 544.802 1020.69C545.169 1020.48 545.446 1020.21 545.631 1019.88C545.821 1019.55 545.915 1019.2 545.915 1018.84V1017.61C545.859 1017.68 545.734 1017.74 545.54 1017.8C545.351 1017.85 545.131 1017.9 544.881 1017.94C544.635 1017.98 544.395 1018.02 544.16 1018.05C543.929 1018.07 543.741 1018.09 543.597 1018.11C543.249 1018.16 542.923 1018.23 542.62 1018.34C542.321 1018.43 542.078 1018.58 541.893 1018.78C541.711 1018.98 541.62 1019.25 541.62 1019.59C541.62 1020.06 541.792 1020.41 542.137 1020.65C542.486 1020.88 542.927 1021 543.461 1021ZM549.704 1022V1013.27H551.045V1022H549.704ZM550.386 1011.82C550.124 1011.82 549.899 1011.73 549.71 1011.55C549.524 1011.37 549.431 1011.16 549.431 1010.91C549.431 1010.66 549.524 1010.45 549.71 1010.27C549.899 1010.09 550.124 1010 550.386 1010C550.647 1010 550.871 1010.09 551.056 1010.27C551.246 1010.45 551.34 1010.66 551.34 1010.91C551.34 1011.16 551.246 1011.37 551.056 1011.55C550.871 1011.73 550.647 1011.82 550.386 1011.82ZM554.842 1016.75V1022H553.501V1013.27H554.796V1014.64H554.91C555.114 1014.19 555.425 1013.84 555.842 1013.57C556.258 1013.3 556.796 1013.16 557.455 1013.16C558.046 1013.16 558.563 1013.28 559.006 1013.52C559.45 1013.76 559.794 1014.12 560.04 1014.61C560.287 1015.1 560.41 1015.71 560.41 1016.45V1022H559.069V1016.55C559.069 1015.86 558.891 1015.33 558.535 1014.94C558.179 1014.56 557.69 1014.36 557.069 1014.36C556.641 1014.36 556.258 1014.46 555.921 1014.64C555.588 1014.83 555.325 1015.1 555.131 1015.45C554.938 1015.81 554.842 1016.24 554.842 1016.75ZM566.519 1022.18C565.678 1022.18 564.953 1022 564.343 1021.62C563.737 1021.25 563.269 1020.73 562.94 1020.06C562.614 1019.38 562.451 1018.6 562.451 1017.7C562.451 1016.81 562.614 1016.02 562.94 1015.34C563.269 1014.66 563.728 1014.12 564.315 1013.74C564.906 1013.35 565.595 1013.16 566.383 1013.16C566.837 1013.16 567.286 1013.23 567.729 1013.39C568.173 1013.54 568.576 1013.78 568.94 1014.12C569.303 1014.46 569.593 1014.91 569.809 1015.47C570.025 1016.02 570.133 1016.71 570.133 1017.52V1018.09H563.406V1016.93H568.769C568.769 1016.44 568.671 1016 568.474 1015.61C568.281 1015.23 568.004 1014.92 567.644 1014.7C567.288 1014.48 566.868 1014.36 566.383 1014.36C565.849 1014.36 565.387 1014.5 564.996 1014.76C564.61 1015.02 564.313 1015.36 564.104 1015.78C563.896 1016.2 563.792 1016.66 563.792 1017.14V1017.91C563.792 1018.57 563.906 1019.13 564.133 1019.59C564.364 1020.04 564.684 1020.39 565.093 1020.62C565.502 1020.86 565.978 1020.98 566.519 1020.98C566.871 1020.98 567.19 1020.93 567.474 1020.83C567.762 1020.73 568.01 1020.58 568.218 1020.38C568.426 1020.17 568.587 1019.92 568.701 1019.61L569.996 1019.98C569.86 1020.42 569.631 1020.8 569.309 1021.14C568.987 1021.47 568.589 1021.72 568.116 1021.91C567.642 1022.09 567.11 1022.18 566.519 1022.18ZM572.173 1022V1013.27H573.468V1014.59H573.559C573.718 1014.16 574.006 1013.81 574.423 1013.54C574.839 1013.27 575.309 1013.14 575.832 1013.14C575.93 1013.14 576.053 1013.14 576.201 1013.14C576.349 1013.15 576.46 1013.15 576.536 1013.16V1014.52C576.491 1014.51 576.387 1014.49 576.224 1014.47C576.065 1014.45 575.896 1014.43 575.718 1014.43C575.294 1014.43 574.915 1014.52 574.582 1014.7C574.252 1014.87 573.991 1015.12 573.798 1015.43C573.608 1015.73 573.513 1016.08 573.513 1016.48V1022H572.173Z" fill="#151A30"/>
<path d="M140 1280H940V1336C940 1340.42 936.418 1344 932 1344H148C143.582 1344 140 1340.42 140 1336V1280Z" fill="white"/>
<rect x="750" y="1296" width="85" height="32" rx="8" fill="#73768C"/>
<path d="M762.959 1316V1307.27H766.155C766.774 1307.27 767.287 1307.37 767.693 1307.58C768.099 1307.78 768.403 1308.06 768.605 1308.4C768.807 1308.75 768.908 1309.13 768.908 1309.57C768.908 1309.93 768.841 1310.24 768.707 1310.49C768.574 1310.73 768.395 1310.93 768.17 1311.08C767.949 1311.23 767.705 1311.34 767.438 1311.41V1311.49C767.727 1311.51 768.01 1311.6 768.286 1311.77C768.564 1311.94 768.794 1312.19 768.976 1312.5C769.158 1312.82 769.249 1313.2 769.249 1313.65C769.249 1314.1 769.143 1314.5 768.933 1314.85C768.726 1315.21 768.405 1315.49 767.97 1315.69C767.536 1315.9 766.98 1316 766.304 1316H762.959ZM764.276 1314.87H766.176C766.807 1314.87 767.259 1314.75 767.531 1314.5C767.804 1314.26 767.94 1313.95 767.94 1313.59C767.94 1313.31 767.871 1313.06 767.732 1312.83C767.592 1312.6 767.393 1312.42 767.135 1312.28C766.879 1312.14 766.575 1312.08 766.223 1312.08H764.276V1314.87ZM764.276 1311.05H766.04C766.335 1311.05 766.601 1310.99 766.837 1310.88C767.075 1310.76 767.264 1310.61 767.403 1310.4C767.545 1310.19 767.616 1309.95 767.616 1309.67C767.616 1309.31 767.49 1309 767.237 1308.76C766.984 1308.52 766.597 1308.39 766.074 1308.39H764.276V1311.05ZM776.423 1307.27H777.744V1313.01C777.744 1313.62 777.6 1314.16 777.313 1314.64C777.026 1315.11 776.623 1315.47 776.103 1315.74C775.583 1316.01 774.974 1316.14 774.275 1316.14C773.579 1316.14 772.971 1316.01 772.451 1315.74C771.931 1315.47 771.528 1315.11 771.241 1314.64C770.954 1314.16 770.81 1313.62 770.81 1313.01V1307.27H772.127V1312.91C772.127 1313.3 772.214 1313.65 772.387 1313.96C772.563 1314.27 772.812 1314.51 773.133 1314.68C773.454 1314.86 773.835 1314.94 774.275 1314.94C774.718 1314.94 775.1 1314.86 775.421 1314.68C775.745 1314.51 775.992 1314.27 776.163 1313.96C776.336 1313.65 776.423 1313.3 776.423 1312.91V1307.27ZM779.228 1308.41V1307.27H785.982V1308.41H783.259V1316H781.946V1308.41H779.228ZM787.044 1308.41V1307.27H793.798V1308.41H791.075V1316H789.763V1308.41H787.044ZM802.497 1311.64C802.497 1312.57 802.326 1313.37 801.985 1314.04C801.645 1314.71 801.177 1315.22 800.583 1315.58C799.993 1315.94 799.321 1316.12 798.568 1316.12C797.812 1316.12 797.137 1315.94 796.544 1315.58C795.953 1315.22 795.487 1314.71 795.146 1314.04C794.805 1313.37 794.635 1312.57 794.635 1311.64C794.635 1310.7 794.805 1309.9 795.146 1309.24C795.487 1308.57 795.953 1308.05 796.544 1307.69C797.137 1307.33 797.812 1307.15 798.568 1307.15C799.321 1307.15 799.993 1307.33 800.583 1307.69C801.177 1308.05 801.645 1308.57 801.985 1309.24C802.326 1309.9 802.497 1310.7 802.497 1311.64ZM801.193 1311.64C801.193 1310.93 801.078 1310.33 800.848 1309.84C800.62 1309.35 800.308 1308.98 799.91 1308.73C799.515 1308.48 799.068 1308.36 798.568 1308.36C798.065 1308.36 797.616 1308.48 797.221 1308.73C796.826 1308.98 796.514 1309.35 796.284 1309.84C796.056 1310.33 795.943 1310.93 795.943 1311.64C795.943 1312.35 796.056 1312.95 796.284 1313.43C796.514 1313.92 796.826 1314.29 797.221 1314.54C797.616 1314.79 798.065 1314.92 798.568 1314.92C799.068 1314.92 799.515 1314.79 799.91 1314.54C800.308 1314.29 800.62 1313.92 800.848 1313.43C801.078 1312.95 801.193 1312.35 801.193 1311.64ZM811.183 1307.27V1316H809.972L805.536 1309.6H805.455V1316H804.138V1307.27H805.357L809.798 1313.68H809.879V1307.27H811.183ZM816.16 1316V1315.05L819.113 1311.99C819.428 1311.65 819.688 1311.36 819.893 1311.11C820.1 1310.86 820.255 1310.62 820.357 1310.39C820.46 1310.16 820.511 1309.92 820.511 1309.67C820.511 1309.38 820.442 1309.13 820.306 1308.92C820.17 1308.7 819.984 1308.54 819.748 1308.43C819.512 1308.31 819.246 1308.25 818.951 1308.25C818.638 1308.25 818.366 1308.32 818.133 1308.44C817.9 1308.57 817.721 1308.75 817.596 1308.99C817.471 1309.22 817.408 1309.49 817.408 1309.8H816.151C816.151 1309.27 816.273 1308.81 816.518 1308.41C816.762 1308.01 817.097 1307.7 817.523 1307.49C817.95 1307.26 818.434 1307.15 818.977 1307.15C819.525 1307.15 820.008 1307.26 820.425 1307.48C820.846 1307.7 821.174 1307.99 821.41 1308.37C821.646 1308.74 821.763 1309.16 821.763 1309.63C821.763 1309.95 821.702 1310.27 821.58 1310.58C821.461 1310.89 821.252 1311.23 820.954 1311.62C820.656 1311.99 820.241 1312.45 819.71 1312.99L817.975 1314.81V1314.87H821.904V1316H816.16Z" fill="white"/>
<rect x="841" y="1296" width="83" height="32" rx="8" fill="#0E69F1"/>
<path d="M853.959 1316V1307.27H857.155C857.774 1307.27 858.287 1307.37 858.693 1307.58C859.099 1307.78 859.403 1308.06 859.605 1308.4C859.807 1308.75 859.908 1309.13 859.908 1309.57C859.908 1309.93 859.841 1310.24 859.707 1310.49C859.574 1310.73 859.395 1310.93 859.17 1311.08C858.949 1311.23 858.705 1311.34 858.438 1311.41V1311.49C858.727 1311.51 859.01 1311.6 859.286 1311.77C859.564 1311.94 859.794 1312.19 859.976 1312.5C860.158 1312.82 860.249 1313.2 860.249 1313.65C860.249 1314.1 860.143 1314.5 859.933 1314.85C859.726 1315.21 859.405 1315.49 858.97 1315.69C858.536 1315.9 857.98 1316 857.304 1316H853.959ZM855.276 1314.87H857.176C857.807 1314.87 858.259 1314.75 858.531 1314.5C858.804 1314.26 858.94 1313.95 858.94 1313.59C858.94 1313.31 858.871 1313.06 858.732 1312.83C858.592 1312.6 858.393 1312.42 858.135 1312.28C857.879 1312.14 857.575 1312.08 857.223 1312.08H855.276V1314.87ZM855.276 1311.05H857.04C857.335 1311.05 857.601 1310.99 857.837 1310.88C858.075 1310.76 858.264 1310.61 858.403 1310.4C858.545 1310.19 858.616 1309.95 858.616 1309.67C858.616 1309.31 858.49 1309 858.237 1308.76C857.984 1308.52 857.597 1308.39 857.074 1308.39H855.276V1311.05ZM867.423 1307.27H868.744V1313.01C868.744 1313.62 868.6 1314.16 868.313 1314.64C868.026 1315.11 867.623 1315.47 867.103 1315.74C866.583 1316.01 865.974 1316.14 865.275 1316.14C864.579 1316.14 863.971 1316.01 863.451 1315.74C862.931 1315.47 862.528 1315.11 862.241 1314.64C861.954 1314.16 861.81 1313.62 861.81 1313.01V1307.27H863.127V1312.91C863.127 1313.3 863.214 1313.65 863.387 1313.96C863.563 1314.27 863.812 1314.51 864.133 1314.68C864.454 1314.86 864.835 1314.94 865.275 1314.94C865.718 1314.94 866.1 1314.86 866.421 1314.68C866.745 1314.51 866.992 1314.27 867.163 1313.96C867.336 1313.65 867.423 1313.3 867.423 1312.91V1307.27ZM870.228 1308.41V1307.27H876.982V1308.41H874.259V1316H872.946V1308.41H870.228ZM878.044 1308.41V1307.27H884.798V1308.41H882.075V1316H880.763V1308.41H878.044ZM893.497 1311.64C893.497 1312.57 893.326 1313.37 892.985 1314.04C892.645 1314.71 892.177 1315.22 891.583 1315.58C890.993 1315.94 890.321 1316.12 889.568 1316.12C888.812 1316.12 888.137 1315.94 887.544 1315.58C886.953 1315.22 886.487 1314.71 886.146 1314.04C885.805 1313.37 885.635 1312.57 885.635 1311.64C885.635 1310.7 885.805 1309.9 886.146 1309.24C886.487 1308.57 886.953 1308.05 887.544 1307.69C888.137 1307.33 888.812 1307.15 889.568 1307.15C890.321 1307.15 890.993 1307.33 891.583 1307.69C892.177 1308.05 892.645 1308.57 892.985 1309.24C893.326 1309.9 893.497 1310.7 893.497 1311.64ZM892.193 1311.64C892.193 1310.93 892.078 1310.33 891.848 1309.84C891.62 1309.35 891.308 1308.98 890.91 1308.73C890.515 1308.48 890.068 1308.36 889.568 1308.36C889.065 1308.36 888.616 1308.48 888.221 1308.73C887.826 1308.98 887.514 1309.35 887.284 1309.84C887.056 1310.33 886.943 1310.93 886.943 1311.64C886.943 1312.35 887.056 1312.95 887.284 1313.43C887.514 1313.92 887.826 1314.29 888.221 1314.54C888.616 1314.79 889.065 1314.92 889.568 1314.92C890.068 1314.92 890.515 1314.79 890.91 1314.54C891.308 1314.29 891.62 1313.92 891.848 1313.43C892.078 1312.95 892.193 1312.35 892.193 1311.64ZM902.183 1307.27V1316H900.972L896.536 1309.6H896.455V1316H895.138V1307.27H896.357L900.798 1313.68H900.879V1307.27H902.183ZM910.471 1307.27V1316H909.15V1308.59H909.099L907.011 1309.96V1308.7L909.188 1307.27H910.471Z" fill="white"/>
</g>
<g filter="url(#filter2_d_676_484)">
<rect x="300" y="144" width="480" height="400" rx="8" fill="#E5E5E5" shape-rendering="crispEdges"/>
<path d="M300 152C300 147.582 303.582 144 308 144H772C776.418 144 780 147.582 780 152V192H300V152Z" fill="white"/>
<path d="M317.051 165.648V164.455H327.598V165.648H322.989V179H321.661V165.648H317.051ZM330.339 179V168.091H331.611V179H330.339ZM330.986 166.216C330.725 166.216 330.503 166.128 330.318 165.953C330.134 165.773 330.041 165.558 330.041 165.307C330.041 165.056 330.134 164.843 330.318 164.668C330.503 164.488 330.725 164.398 330.986 164.398C331.246 164.398 331.469 164.488 331.653 164.668C331.838 164.843 331.93 165.056 331.93 165.307C331.93 165.558 331.838 165.773 331.653 165.953C331.469 166.128 331.246 166.216 330.986 166.216ZM339.251 168.091V169.192H334.045V168.091H339.251ZM335.672 165.477H336.943V176.152C336.943 176.607 337.021 176.964 337.177 177.224C337.333 177.48 337.537 177.662 337.788 177.771C338.039 177.875 338.306 177.928 338.591 177.928C338.756 177.928 338.898 177.918 339.017 177.899C339.135 177.875 339.239 177.852 339.329 177.828L339.599 178.972C339.476 179.019 339.324 179.062 339.145 179.099C338.965 179.142 338.742 179.163 338.477 179.163C338.013 179.163 337.565 179.062 337.135 178.858C336.708 178.654 336.358 178.351 336.083 177.949C335.809 177.546 335.672 177.047 335.672 176.45V165.477ZM343.621 164.455V179H342.357V164.455H343.621ZM351.376 179.227C350.358 179.227 349.478 178.991 348.734 178.517C347.991 178.039 347.416 177.378 347.009 176.536C346.606 175.688 346.405 174.713 346.405 173.609C346.405 172.511 346.606 171.536 347.009 170.683C347.416 169.826 347.977 169.156 348.692 168.673C349.411 168.186 350.242 167.942 351.185 167.942C351.777 167.942 352.347 168.051 352.896 168.268C353.446 168.482 353.938 168.811 354.374 169.256C354.814 169.696 355.162 170.252 355.418 170.925C355.673 171.592 355.801 172.383 355.801 173.297V173.922H347.278V172.807H354.509C354.509 172.106 354.366 171.476 354.082 170.918C353.803 170.354 353.412 169.909 352.911 169.582C352.413 169.256 351.838 169.092 351.185 169.092C350.493 169.092 349.885 169.277 349.359 169.646C348.834 170.016 348.422 170.503 348.124 171.109C347.83 171.715 347.681 172.378 347.676 173.098V173.766C347.676 174.632 347.825 175.39 348.124 176.038C348.427 176.682 348.855 177.182 349.409 177.537C349.963 177.892 350.619 178.07 351.376 178.07C351.893 178.07 352.345 177.989 352.733 177.828C353.126 177.667 353.455 177.452 353.72 177.182C353.99 176.907 354.194 176.607 354.331 176.28L355.531 176.67C355.366 177.13 355.093 177.554 354.714 177.942C354.34 178.33 353.872 178.643 353.308 178.879C352.75 179.111 352.106 179.227 351.376 179.227ZM368.452 179.227C367.51 179.227 366.676 178.988 365.952 178.51C365.232 178.032 364.669 177.371 364.262 176.528C363.855 175.681 363.651 174.703 363.651 173.595C363.651 172.478 363.855 171.495 364.262 170.648C364.669 169.795 365.232 169.133 365.952 168.659C366.676 168.181 367.51 167.942 368.452 167.942C369.394 167.942 370.225 168.181 370.945 168.659C371.665 169.137 372.228 169.8 372.635 170.648C373.047 171.495 373.253 172.478 373.253 173.595C373.253 174.703 373.05 175.681 372.642 176.528C372.235 177.371 371.669 178.032 370.945 178.51C370.225 178.988 369.394 179.227 368.452 179.227ZM368.452 178.07C369.21 178.07 369.851 177.866 370.377 177.459C370.902 177.052 371.3 176.509 371.57 175.832C371.845 175.155 371.982 174.41 371.982 173.595C371.982 172.781 371.845 172.033 371.57 171.351C371.3 170.669 370.902 170.122 370.377 169.71C369.851 169.298 369.21 169.092 368.452 169.092C367.699 169.092 367.058 169.298 366.527 169.71C366.002 170.122 365.602 170.669 365.327 171.351C365.057 172.033 364.922 172.781 364.922 173.595C364.922 174.41 365.057 175.155 365.327 175.832C365.602 176.509 366.002 177.052 366.527 177.459C367.053 177.866 367.694 178.07 368.452 178.07ZM380.517 168.091V169.192H375.155V168.091H380.517ZM376.831 179V166.493C376.831 165.906 376.966 165.411 377.236 165.009C377.51 164.606 377.868 164.301 378.308 164.092C378.749 163.884 379.215 163.78 379.707 163.78C380.039 163.78 380.313 163.808 380.531 163.865C380.754 163.917 380.929 163.969 381.057 164.021L380.688 165.129C380.593 165.101 380.477 165.068 380.339 165.03C380.202 164.992 380.029 164.973 379.821 164.973C379.272 164.973 378.848 165.127 378.55 165.435C378.251 165.742 378.102 166.183 378.102 166.756L378.095 179H376.831ZM395.995 170.484L394.837 170.811C394.723 170.484 394.562 170.188 394.354 169.923C394.146 169.658 393.873 169.447 393.537 169.291C393.206 169.135 392.794 169.057 392.301 169.057C391.563 169.057 390.957 169.232 390.483 169.582C390.01 169.933 389.773 170.385 389.773 170.939C389.773 171.408 389.934 171.789 390.256 172.082C390.583 172.371 391.085 172.601 391.762 172.771L393.409 173.176C394.323 173.399 395.007 173.751 395.462 174.234C395.921 174.717 396.151 175.323 396.151 176.053C396.151 176.668 395.98 177.215 395.64 177.693C395.299 178.171 394.823 178.548 394.212 178.822C393.606 179.092 392.903 179.227 392.103 179.227C391.037 179.227 390.159 178.988 389.468 178.51C388.776 178.027 388.334 177.331 388.14 176.422L389.354 176.124C389.51 176.772 389.816 177.262 390.27 177.594C390.73 177.925 391.333 178.091 392.081 178.091C392.919 178.091 393.589 177.904 394.091 177.53C394.593 177.151 394.844 176.678 394.844 176.109C394.844 175.669 394.697 175.3 394.404 175.001C394.11 174.698 393.665 174.476 393.069 174.334L391.286 173.908C390.339 173.68 389.638 173.321 389.184 172.828C388.729 172.336 388.502 171.725 388.502 170.996C388.502 170.394 388.665 169.866 388.992 169.412C389.319 168.953 389.768 168.593 390.341 168.332C390.914 168.072 391.568 167.942 392.301 167.942C393.301 167.942 394.098 168.169 394.695 168.624C395.296 169.073 395.73 169.694 395.995 170.484ZM398.919 179V168.091H400.148V169.767H400.261C400.479 169.204 400.841 168.761 401.348 168.439C401.859 168.112 402.473 167.949 403.188 167.949C403.94 167.949 404.558 168.126 405.041 168.482C405.529 168.832 405.893 169.315 406.135 169.93H406.227C406.473 169.324 406.874 168.844 407.428 168.489C407.986 168.129 408.663 167.949 409.459 167.949C410.472 167.949 411.272 168.268 411.859 168.908C412.446 169.542 412.74 170.47 412.74 171.692V179H411.476V171.692C411.476 170.83 411.256 170.184 410.815 169.753C410.375 169.322 409.795 169.107 409.075 169.107C408.242 169.107 407.6 169.362 407.151 169.874C406.701 170.385 406.476 171.034 406.476 171.82V179H405.183V171.578C405.183 170.839 404.977 170.243 404.565 169.788C404.153 169.334 403.573 169.107 402.825 169.107C402.323 169.107 401.871 169.23 401.469 169.476C401.071 169.722 400.756 170.065 400.524 170.506C400.297 170.941 400.183 171.443 400.183 172.011V179H398.919ZM419.134 179.249C418.476 179.249 417.874 179.121 417.33 178.865C416.785 178.605 416.352 178.231 416.03 177.743C415.708 177.25 415.547 176.654 415.547 175.953C415.547 175.413 415.649 174.959 415.853 174.589C416.056 174.22 416.345 173.917 416.719 173.68C417.093 173.444 417.536 173.257 418.047 173.119C418.559 172.982 419.122 172.875 419.738 172.8C420.348 172.724 420.864 172.658 421.286 172.601C421.712 172.544 422.036 172.454 422.259 172.331C422.481 172.208 422.593 172.009 422.593 171.734V171.479C422.593 170.735 422.37 170.151 421.925 169.724C421.485 169.294 420.85 169.078 420.022 169.078C419.236 169.078 418.594 169.251 418.097 169.597C417.605 169.942 417.259 170.349 417.06 170.818L415.86 170.385C416.106 169.788 416.447 169.312 416.882 168.957C417.318 168.598 417.806 168.339 418.346 168.183C418.885 168.022 419.432 167.942 419.986 167.942C420.403 167.942 420.836 167.996 421.286 168.105C421.74 168.214 422.162 168.403 422.55 168.673C422.938 168.938 423.253 169.31 423.495 169.788C423.736 170.262 423.857 170.863 423.857 171.592V179H422.593V177.274H422.515C422.363 177.596 422.138 177.909 421.84 178.212C421.542 178.515 421.167 178.763 420.718 178.957C420.268 179.152 419.74 179.249 419.134 179.249ZM419.304 178.091C419.977 178.091 420.559 177.942 421.051 177.643C421.544 177.345 421.923 176.95 422.188 176.457C422.458 175.96 422.593 175.413 422.593 174.817V173.24C422.498 173.33 422.339 173.411 422.117 173.482C421.899 173.553 421.646 173.616 421.357 173.673C421.073 173.725 420.789 173.77 420.505 173.808C420.221 173.846 419.965 173.879 419.738 173.908C419.122 173.983 418.596 174.102 418.161 174.263C417.725 174.424 417.391 174.646 417.159 174.93C416.927 175.21 416.811 175.57 416.811 176.01C416.811 176.673 417.048 177.187 417.522 177.551C417.995 177.911 418.589 178.091 419.304 178.091ZM428.484 164.455V179H427.22V164.455H428.484ZM433.093 164.455V179H431.829V164.455H433.093ZM442.064 179V168.091H443.292V169.767H443.406C443.624 169.204 443.986 168.761 444.493 168.439C445.004 168.112 445.617 167.949 446.332 167.949C447.085 167.949 447.703 168.126 448.186 168.482C448.673 168.832 449.038 169.315 449.279 169.93H449.372C449.618 169.324 450.018 168.844 450.572 168.489C451.131 168.129 451.808 167.949 452.603 167.949C453.617 167.949 454.417 168.268 455.004 168.908C455.591 169.542 455.885 170.47 455.885 171.692V179H454.62V171.692C454.62 170.83 454.4 170.184 453.96 169.753C453.52 169.322 452.94 169.107 452.22 169.107C451.386 169.107 450.745 169.362 450.295 169.874C449.845 170.385 449.62 171.034 449.62 171.82V179H448.328V171.578C448.328 170.839 448.122 170.243 447.71 169.788C447.298 169.334 446.718 169.107 445.97 169.107C445.468 169.107 445.016 169.23 444.613 169.476C444.216 169.722 443.901 170.065 443.669 170.506C443.441 170.941 443.328 171.443 443.328 172.011V179H442.064ZM463.472 179.227C462.529 179.227 461.696 178.988 460.972 178.51C460.252 178.032 459.688 177.371 459.281 176.528C458.874 175.681 458.67 174.703 458.67 173.595C458.67 172.478 458.874 171.495 459.281 170.648C459.688 169.795 460.252 169.133 460.972 168.659C461.696 168.181 462.529 167.942 463.472 167.942C464.414 167.942 465.245 168.181 465.964 168.659C466.684 169.137 467.248 169.8 467.655 170.648C468.067 171.495 468.273 172.478 468.273 173.595C468.273 174.703 468.069 175.681 467.662 176.528C467.255 177.371 466.689 178.032 465.964 178.51C465.245 178.988 464.414 179.227 463.472 179.227ZM463.472 178.07C464.229 178.07 464.871 177.866 465.396 177.459C465.922 177.052 466.32 176.509 466.589 175.832C466.864 175.155 467.001 174.41 467.001 173.595C467.001 172.781 466.864 172.033 466.589 171.351C466.32 170.669 465.922 170.122 465.396 169.71C464.871 169.298 464.229 169.092 463.472 169.092C462.719 169.092 462.077 169.298 461.547 169.71C461.021 170.122 460.621 170.669 460.347 171.351C460.077 172.033 459.942 172.781 459.942 173.595C459.942 174.41 460.077 175.155 460.347 175.832C460.621 176.509 461.021 177.052 461.547 177.459C462.072 177.866 462.714 178.07 463.472 178.07ZM474.975 179.227C474.081 179.227 473.297 178.991 472.625 178.517C471.952 178.044 471.427 177.383 471.048 176.536C470.674 175.688 470.487 174.701 470.487 173.574C470.487 172.452 470.674 171.469 471.048 170.626C471.427 169.779 471.955 169.121 472.632 168.652C473.309 168.179 474.097 167.942 474.997 167.942C475.66 167.942 476.211 168.06 476.652 168.297C477.092 168.529 477.445 168.818 477.71 169.163C477.975 169.509 478.181 169.845 478.328 170.172H478.441V164.455H479.713V179H478.477V176.976H478.328C478.181 177.307 477.973 177.648 477.703 177.999C477.433 178.344 477.075 178.635 476.63 178.872C476.19 179.109 475.638 179.227 474.975 179.227ZM475.125 178.07C475.83 178.07 476.431 177.878 476.929 177.494C477.426 177.106 477.805 176.573 478.065 175.896C478.33 175.214 478.463 174.433 478.463 173.553C478.463 172.681 478.333 171.912 478.072 171.244C477.812 170.572 477.433 170.046 476.936 169.668C476.439 169.284 475.835 169.092 475.125 169.092C474.395 169.092 473.78 169.291 473.278 169.689C472.781 170.082 472.402 170.615 472.142 171.287C471.886 171.959 471.758 172.714 471.758 173.553C471.758 174.4 471.888 175.165 472.149 175.847C472.409 176.528 472.788 177.071 473.285 177.473C473.787 177.871 474.4 178.07 475.125 178.07ZM486.36 179.249C485.702 179.249 485.101 179.121 484.556 178.865C484.012 178.605 483.579 178.231 483.257 177.743C482.935 177.25 482.774 176.654 482.774 175.953C482.774 175.413 482.876 174.959 483.079 174.589C483.283 174.22 483.572 173.917 483.946 173.68C484.32 173.444 484.762 173.257 485.274 173.119C485.785 172.982 486.349 172.875 486.964 172.8C487.575 172.724 488.091 172.658 488.512 172.601C488.939 172.544 489.263 172.454 489.485 172.331C489.708 172.208 489.819 172.009 489.819 171.734V171.479C489.819 170.735 489.597 170.151 489.152 169.724C488.711 169.294 488.077 169.078 487.248 169.078C486.462 169.078 485.821 169.251 485.324 169.597C484.831 169.942 484.485 170.349 484.287 170.818L483.086 170.385C483.333 169.788 483.673 169.312 484.109 168.957C484.545 168.598 485.032 168.339 485.572 168.183C486.112 168.022 486.659 167.942 487.213 167.942C487.629 167.942 488.063 167.996 488.512 168.105C488.967 168.214 489.388 168.403 489.777 168.673C490.165 168.938 490.48 169.31 490.721 169.788C490.963 170.262 491.083 170.863 491.083 171.592V179H489.819V177.274H489.741C489.59 177.596 489.365 177.909 489.066 178.212C488.768 178.515 488.394 178.763 487.944 178.957C487.494 179.152 486.967 179.249 486.36 179.249ZM486.531 178.091C487.203 178.091 487.786 177.942 488.278 177.643C488.77 177.345 489.149 176.95 489.414 176.457C489.684 175.96 489.819 175.413 489.819 174.817V173.24C489.725 173.33 489.566 173.411 489.343 173.482C489.126 173.553 488.872 173.616 488.583 173.673C488.299 173.725 488.015 173.77 487.731 173.808C487.447 173.846 487.191 173.879 486.964 173.908C486.349 173.983 485.823 174.102 485.387 174.263C484.952 174.424 484.618 174.646 484.386 174.93C484.154 175.21 484.038 175.57 484.038 176.01C484.038 176.673 484.275 177.187 484.748 177.551C485.222 177.911 485.816 178.091 486.531 178.091ZM495.711 164.455V179H494.446V164.455H495.711Z" fill="#151A30"/>
<path d="M746.757 177.243L752 172M757.243 166.757L752 172M752 172L746.757 166.757M752 172L757.243 177.243" stroke="#73768C" stroke-width="1.5" stroke-linecap="round" stroke-linejoin="round"/>
<rect width="480" height="288" transform="translate(300 192)" fill="white"/>
<path d="M513.874 334H512.465C512.382 333.595 512.236 333.239 512.028 332.932C511.823 332.625 511.573 332.367 511.278 332.159C510.986 331.947 510.662 331.788 510.306 331.682C509.95 331.576 509.579 331.523 509.192 331.523C508.488 331.523 507.85 331.701 507.278 332.057C506.71 332.413 506.257 332.938 505.92 333.631C505.586 334.324 505.42 335.174 505.42 336.182C505.42 337.189 505.586 338.04 505.92 338.733C506.257 339.426 506.71 339.951 507.278 340.307C507.85 340.663 508.488 340.841 509.192 340.841C509.579 340.841 509.95 340.788 510.306 340.682C510.662 340.576 510.986 340.419 511.278 340.21C511.573 339.998 511.823 339.739 512.028 339.432C512.236 339.121 512.382 338.765 512.465 338.364H513.874C513.768 338.958 513.575 339.491 513.295 339.96C513.014 340.43 512.666 340.83 512.249 341.159C511.833 341.485 511.365 341.733 510.846 341.903C510.331 342.074 509.78 342.159 509.192 342.159C508.2 342.159 507.317 341.917 506.545 341.432C505.772 340.947 505.164 340.258 504.721 339.364C504.278 338.47 504.056 337.409 504.056 336.182C504.056 334.955 504.278 333.894 504.721 333C505.164 332.106 505.772 331.417 506.545 330.932C507.317 330.447 508.2 330.205 509.192 330.205C509.78 330.205 510.331 330.29 510.846 330.46C511.365 330.631 511.833 330.881 512.249 331.21C512.666 331.536 513.014 331.934 513.295 332.403C513.575 332.869 513.768 333.402 513.874 334ZM519.515 342.182C518.727 342.182 518.036 341.994 517.441 341.619C516.85 341.244 516.388 340.72 516.055 340.045C515.725 339.371 515.56 338.583 515.56 337.682C515.56 336.773 515.725 335.979 516.055 335.301C516.388 334.623 516.85 334.097 517.441 333.722C518.036 333.347 518.727 333.159 519.515 333.159C520.303 333.159 520.992 333.347 521.583 333.722C522.178 334.097 522.64 334.623 522.969 335.301C523.303 335.979 523.469 336.773 523.469 337.682C523.469 338.583 523.303 339.371 522.969 340.045C522.64 340.72 522.178 341.244 521.583 341.619C520.992 341.994 520.303 342.182 519.515 342.182ZM519.515 340.977C520.113 340.977 520.606 340.824 520.992 340.517C521.379 340.21 521.665 339.807 521.85 339.307C522.036 338.807 522.129 338.265 522.129 337.682C522.129 337.098 522.036 336.555 521.85 336.051C521.665 335.547 521.379 335.14 520.992 334.83C520.606 334.519 520.113 334.364 519.515 334.364C518.916 334.364 518.424 334.519 518.038 334.83C517.651 335.14 517.365 335.547 517.18 336.051C516.994 336.555 516.901 337.098 516.901 337.682C516.901 338.265 516.994 338.807 517.18 339.307C517.365 339.807 517.651 340.21 518.038 340.517C518.424 340.824 518.916 340.977 519.515 340.977ZM526.857 336.75V342H525.516V333.273H526.812V334.636H526.925C527.13 334.193 527.441 333.837 527.857 333.568C528.274 333.295 528.812 333.159 529.471 333.159C530.062 333.159 530.579 333.28 531.022 333.523C531.465 333.761 531.81 334.125 532.056 334.614C532.302 335.098 532.425 335.712 532.425 336.455V342H531.085V336.545C531.085 335.86 530.906 335.326 530.55 334.943C530.194 334.557 529.706 334.364 529.085 334.364C528.656 334.364 528.274 334.456 527.937 334.642C527.603 334.828 527.34 335.098 527.147 335.455C526.954 335.811 526.857 336.242 526.857 336.75ZM538.671 333.273V334.409H534.148V333.273H538.671ZM535.467 331.182H536.808V339.5C536.808 339.879 536.862 340.163 536.972 340.352C537.086 340.538 537.23 340.663 537.404 340.727C537.582 340.788 537.77 340.818 537.967 340.818C538.114 340.818 538.236 340.811 538.33 340.795C538.425 340.777 538.501 340.761 538.558 340.75L538.83 341.955C538.739 341.989 538.612 342.023 538.45 342.057C538.287 342.095 538.08 342.114 537.83 342.114C537.451 342.114 537.08 342.032 536.717 341.869C536.357 341.706 536.058 341.458 535.819 341.125C535.584 340.792 535.467 340.371 535.467 339.864V331.182ZM543.256 342.205C542.703 342.205 542.201 342.1 541.751 341.892C541.3 341.68 540.942 341.375 540.677 340.977C540.412 340.576 540.279 340.091 540.279 339.523C540.279 339.023 540.378 338.617 540.575 338.307C540.772 337.992 541.035 337.746 541.364 337.568C541.694 337.39 542.058 337.258 542.455 337.17C542.857 337.08 543.26 337.008 543.665 336.955C544.196 336.886 544.626 336.835 544.955 336.801C545.289 336.763 545.531 336.701 545.683 336.614C545.838 336.527 545.915 336.375 545.915 336.159V336.114C545.915 335.553 545.762 335.117 545.455 334.807C545.152 334.496 544.692 334.341 544.075 334.341C543.434 334.341 542.933 334.481 542.569 334.761C542.205 335.042 541.95 335.341 541.802 335.659L540.529 335.205C540.756 334.674 541.059 334.261 541.438 333.966C541.821 333.667 542.237 333.458 542.688 333.341C543.143 333.22 543.59 333.159 544.029 333.159C544.309 333.159 544.631 333.193 544.995 333.261C545.362 333.326 545.717 333.46 546.058 333.665C546.402 333.869 546.688 334.178 546.915 334.591C547.143 335.004 547.256 335.557 547.256 336.25V342H545.915V340.818H545.847C545.756 341.008 545.605 341.21 545.393 341.426C545.181 341.642 544.898 341.826 544.546 341.977C544.194 342.129 543.764 342.205 543.256 342.205ZM543.461 341C543.991 341 544.438 340.896 544.802 340.688C545.169 340.479 545.446 340.21 545.631 339.881C545.821 339.551 545.915 339.205 545.915 338.841V337.614C545.859 337.682 545.734 337.744 545.54 337.801C545.351 337.854 545.131 337.902 544.881 337.943C544.635 337.981 544.395 338.015 544.16 338.045C543.929 338.072 543.741 338.095 543.597 338.114C543.249 338.159 542.923 338.233 542.62 338.335C542.321 338.434 542.078 338.583 541.893 338.784C541.711 338.981 541.62 339.25 541.62 339.591C541.62 340.057 541.792 340.409 542.137 340.648C542.486 340.883 542.927 341 543.461 341ZM549.704 342V333.273H551.045V342H549.704ZM550.386 331.818C550.124 331.818 549.899 331.729 549.71 331.551C549.524 331.373 549.431 331.159 549.431 330.909C549.431 330.659 549.524 330.445 549.71 330.267C549.899 330.089 550.124 330 550.386 330C550.647 330 550.871 330.089 551.056 330.267C551.246 330.445 551.34 330.659 551.34 330.909C551.34 331.159 551.246 331.373 551.056 331.551C550.871 331.729 550.647 331.818 550.386 331.818ZM554.842 336.75V342H553.501V333.273H554.796V334.636H554.91C555.114 334.193 555.425 333.837 555.842 333.568C556.258 333.295 556.796 333.159 557.455 333.159C558.046 333.159 558.563 333.28 559.006 333.523C559.45 333.761 559.794 334.125 560.04 334.614C560.287 335.098 560.41 335.712 560.41 336.455V342H559.069V336.545C559.069 335.86 558.891 335.326 558.535 334.943C558.179 334.557 557.69 334.364 557.069 334.364C556.641 334.364 556.258 334.456 555.921 334.642C555.588 334.828 555.325 335.098 555.131 335.455C554.938 335.811 554.842 336.242 554.842 336.75ZM566.519 342.182C565.678 342.182 564.953 341.996 564.343 341.625C563.737 341.25 563.269 340.727 562.94 340.057C562.614 339.383 562.451 338.598 562.451 337.705C562.451 336.811 562.614 336.023 562.94 335.341C563.269 334.655 563.728 334.121 564.315 333.739C564.906 333.352 565.595 333.159 566.383 333.159C566.837 333.159 567.286 333.235 567.729 333.386C568.173 333.538 568.576 333.784 568.94 334.125C569.303 334.462 569.593 334.909 569.809 335.466C570.025 336.023 570.133 336.708 570.133 337.523V338.091H563.406V336.932H568.769C568.769 336.439 568.671 336 568.474 335.614C568.281 335.227 568.004 334.922 567.644 334.699C567.288 334.475 566.868 334.364 566.383 334.364C565.849 334.364 565.387 334.496 564.996 334.761C564.61 335.023 564.313 335.364 564.104 335.784C563.896 336.205 563.792 336.655 563.792 337.136V337.909C563.792 338.568 563.906 339.127 564.133 339.585C564.364 340.04 564.684 340.386 565.093 340.625C565.502 340.86 565.978 340.977 566.519 340.977C566.871 340.977 567.19 340.928 567.474 340.83C567.762 340.727 568.01 340.576 568.218 340.375C568.426 340.17 568.587 339.917 568.701 339.614L569.996 339.977C569.86 340.417 569.631 340.803 569.309 341.136C568.987 341.466 568.589 341.723 568.116 341.909C567.642 342.091 567.11 342.182 566.519 342.182ZM572.173 342V333.273H573.468V334.591H573.559C573.718 334.159 574.006 333.809 574.423 333.54C574.839 333.271 575.309 333.136 575.832 333.136C575.93 333.136 576.053 333.138 576.201 333.142C576.349 333.146 576.46 333.152 576.536 333.159V334.523C576.491 334.511 576.387 334.494 576.224 334.472C576.065 334.445 575.896 334.432 575.718 334.432C575.294 334.432 574.915 334.521 574.582 334.699C574.252 334.873 573.991 335.116 573.798 335.426C573.608 335.733 573.513 336.083 573.513 336.477V342H572.173Z" fill="#151A30"/>
<path d="M300 480H780V536C780 540.418 776.418 544 772 544H308C303.582 544 300 540.418 300 536V480Z" fill="white"/>
<rect x="590" y="496" width="85" height="32" rx="8" fill="#73768C"/>
<path d="M602.959 516V507.273H606.155C606.774 507.273 607.287 507.375 607.693 507.58C608.099 507.781 608.403 508.055 608.605 508.402C608.807 508.746 608.908 509.134 608.908 509.565C608.908 509.929 608.841 510.236 608.707 510.486C608.574 510.733 608.395 510.932 608.17 511.082C607.949 511.23 607.705 511.338 607.438 511.406V511.491C607.727 511.506 608.01 511.599 608.286 511.773C608.564 511.943 608.794 512.186 608.976 512.501C609.158 512.817 609.249 513.2 609.249 513.652C609.249 514.098 609.143 514.499 608.933 514.854C608.726 515.206 608.405 515.486 607.97 515.693C607.536 515.898 606.98 516 606.304 516H602.959ZM604.276 514.871H606.176C606.807 514.871 607.259 514.749 607.531 514.504C607.804 514.26 607.94 513.955 607.94 513.588C607.94 513.312 607.871 513.06 607.732 512.83C607.592 512.599 607.393 512.416 607.135 512.28C606.879 512.143 606.575 512.075 606.223 512.075H604.276V514.871ZM604.276 511.048H606.04C606.335 511.048 606.601 510.991 606.837 510.878C607.075 510.764 607.264 510.605 607.403 510.401C607.545 510.193 607.616 509.949 607.616 509.668C607.616 509.307 607.49 509.004 607.237 508.76C606.984 508.516 606.597 508.393 606.074 508.393H604.276V511.048ZM616.423 507.273H617.744V513.013C617.744 513.624 617.6 514.165 617.313 514.636C617.026 515.105 616.623 515.474 616.103 515.744C615.583 516.011 614.974 516.145 614.275 516.145C613.579 516.145 612.971 516.011 612.451 515.744C611.931 515.474 611.528 515.105 611.241 514.636C610.954 514.165 610.81 513.624 610.81 513.013V507.273H612.127V512.906C612.127 513.301 612.214 513.652 612.387 513.959C612.563 514.266 612.812 514.507 613.133 514.683C613.454 514.857 613.835 514.943 614.275 514.943C614.718 514.943 615.1 514.857 615.421 514.683C615.745 514.507 615.992 514.266 616.163 513.959C616.336 513.652 616.423 513.301 616.423 512.906V507.273ZM619.228 508.406V507.273H625.982V508.406H623.259V516H621.946V508.406H619.228ZM627.044 508.406V507.273H633.798V508.406H631.075V516H629.763V508.406H627.044ZM642.497 511.636C642.497 512.568 642.326 513.369 641.985 514.04C641.645 514.707 641.177 515.222 640.583 515.582C639.993 515.94 639.321 516.119 638.568 516.119C637.812 516.119 637.137 515.94 636.544 515.582C635.953 515.222 635.487 514.706 635.146 514.036C634.805 513.365 634.635 512.565 634.635 511.636C634.635 510.705 634.805 509.905 635.146 509.237C635.487 508.567 635.953 508.053 636.544 507.695C637.137 507.334 637.812 507.153 638.568 507.153C639.321 507.153 639.993 507.334 640.583 507.695C641.177 508.053 641.645 508.567 641.985 509.237C642.326 509.905 642.497 510.705 642.497 511.636ZM641.193 511.636C641.193 510.926 641.078 510.328 640.848 509.842C640.62 509.354 640.308 508.984 639.91 508.734C639.515 508.482 639.068 508.355 638.568 508.355C638.065 508.355 637.616 508.482 637.221 508.734C636.826 508.984 636.514 509.354 636.284 509.842C636.056 510.328 635.943 510.926 635.943 511.636C635.943 512.347 636.056 512.946 636.284 513.435C636.514 513.92 636.826 514.29 637.221 514.543C637.616 514.793 638.065 514.918 638.568 514.918C639.068 514.918 639.515 514.793 639.91 514.543C640.308 514.29 640.62 513.92 640.848 513.435C641.078 512.946 641.193 512.347 641.193 511.636ZM651.183 507.273V516H649.972L645.536 509.599H645.455V516H644.138V507.273H645.357L649.798 513.682H649.879V507.273H651.183ZM656.16 516V515.045L659.113 511.986C659.428 511.653 659.688 511.362 659.893 511.112C660.1 510.859 660.255 510.619 660.357 510.392C660.46 510.165 660.511 509.923 660.511 509.668C660.511 509.378 660.442 509.128 660.306 508.918C660.17 508.705 659.984 508.541 659.748 508.428C659.512 508.311 659.246 508.253 658.951 508.253C658.638 508.253 658.366 508.317 658.133 508.445C657.9 508.572 657.721 508.753 657.596 508.986C657.471 509.219 657.408 509.491 657.408 509.804H656.151C656.151 509.273 656.273 508.808 656.518 508.411C656.762 508.013 657.097 507.705 657.523 507.486C657.95 507.264 658.434 507.153 658.977 507.153C659.525 507.153 660.008 507.263 660.425 507.482C660.846 507.697 661.174 507.993 661.41 508.368C661.646 508.74 661.763 509.161 661.763 509.629C661.763 509.953 661.702 510.27 661.58 510.58C661.461 510.889 661.252 511.234 660.954 511.615C660.656 511.993 660.241 512.452 659.71 512.991L657.975 514.807V514.871H661.904V516H656.16Z" fill="white"/>
<rect x="681" y="496" width="83" height="32" rx="8" fill="#0E69F1"/>
<path d="M693.959 516V507.273H697.155C697.774 507.273 698.287 507.375 698.693 507.58C699.099 507.781 699.403 508.055 699.605 508.402C699.807 508.746 699.908 509.134 699.908 509.565C699.908 509.929 699.841 510.236 699.707 510.486C699.574 510.733 699.395 510.932 699.17 511.082C698.949 511.23 698.705 511.338 698.438 511.406V511.491C698.727 511.506 699.01 511.599 699.286 511.773C699.564 511.943 699.794 512.186 699.976 512.501C700.158 512.817 700.249 513.2 700.249 513.652C700.249 514.098 700.143 514.499 699.933 514.854C699.726 515.206 699.405 515.486 698.97 515.693C698.536 515.898 697.98 516 697.304 516H693.959ZM695.276 514.871H697.176C697.807 514.871 698.259 514.749 698.531 514.504C698.804 514.26 698.94 513.955 698.94 513.588C698.94 513.312 698.871 513.06 698.732 512.83C698.592 512.599 698.393 512.416 698.135 512.28C697.879 512.143 697.575 512.075 697.223 512.075H695.276V514.871ZM695.276 511.048H697.04C697.335 511.048 697.601 510.991 697.837 510.878C698.075 510.764 698.264 510.605 698.403 510.401C698.545 510.193 698.616 509.949 698.616 509.668C698.616 509.307 698.49 509.004 698.237 508.76C697.984 508.516 697.597 508.393 697.074 508.393H695.276V511.048ZM707.423 507.273H708.744V513.013C708.744 513.624 708.6 514.165 708.313 514.636C708.026 515.105 707.623 515.474 707.103 515.744C706.583 516.011 705.974 516.145 705.275 516.145C704.579 516.145 703.971 516.011 703.451 515.744C702.931 515.474 702.528 515.105 702.241 514.636C701.954 514.165 701.81 513.624 701.81 513.013V507.273H703.127V512.906C703.127 513.301 703.214 513.652 703.387 513.959C703.563 514.266 703.812 514.507 704.133 514.683C704.454 514.857 704.835 514.943 705.275 514.943C705.718 514.943 706.1 514.857 706.421 514.683C706.745 514.507 706.992 514.266 707.163 513.959C707.336 513.652 707.423 513.301 707.423 512.906V507.273ZM710.228 508.406V507.273H716.982V508.406H714.259V516H712.946V508.406H710.228ZM718.044 508.406V507.273H724.798V508.406H722.075V516H720.763V508.406H718.044ZM733.497 511.636C733.497 512.568 733.326 513.369 732.985 514.04C732.645 514.707 732.177 515.222 731.583 515.582C730.993 515.94 730.321 516.119 729.568 516.119C728.812 516.119 728.137 515.94 727.544 515.582C726.953 515.222 726.487 514.706 726.146 514.036C725.805 513.365 725.635 512.565 725.635 511.636C725.635 510.705 725.805 509.905 726.146 509.237C726.487 508.567 726.953 508.053 727.544 507.695C728.137 507.334 728.812 507.153 729.568 507.153C730.321 507.153 730.993 507.334 731.583 507.695C732.177 508.053 732.645 508.567 732.985 509.237C733.326 509.905 733.497 510.705 733.497 511.636ZM732.193 511.636C732.193 510.926 732.078 510.328 731.848 509.842C731.62 509.354 731.308 508.984 730.91 508.734C730.515 508.482 730.068 508.355 729.568 508.355C729.065 508.355 728.616 508.482 728.221 508.734C727.826 508.984 727.514 509.354 727.284 509.842C727.056 510.328 726.943 510.926 726.943 511.636C726.943 512.347 727.056 512.946 727.284 513.435C727.514 513.92 727.826 514.29 728.221 514.543C728.616 514.793 729.065 514.918 729.568 514.918C730.068 514.918 730.515 514.793 730.91 514.543C731.308 514.29 731.62 513.92 731.848 513.435C732.078 512.946 732.193 512.347 732.193 511.636ZM742.183 507.273V516H740.972L736.536 509.599H736.455V516H735.138V507.273H736.357L740.798 513.682H740.879V507.273H742.183ZM750.471 507.273V516H749.15V508.594H749.099L747.011 509.957V508.696L749.188 507.273H750.471Z" fill="white"/>
</g>
<path d="M43.9222 47.9091H46.9904L57.5444 73.25H57.8001L68.354 47.9091H71.4222V77H68.9222V53.5199H68.695L58.8796 77H56.4648L46.6495 53.5199H46.4222V77H43.9222V47.9091ZM87.1112 77.4545C85.2267 77.4545 83.56 76.9763 82.1112 76.0199C80.6718 75.0634 79.5449 73.7424 78.7305 72.0568C77.9161 70.3617 77.5089 68.4062 77.5089 66.1903C77.5089 63.9555 77.9161 61.9905 78.7305 60.2955C79.5449 58.5909 80.6718 57.2652 82.1112 56.3182C83.56 55.3617 85.2267 54.8835 87.1112 54.8835C88.9956 54.8835 90.6576 55.3617 92.0969 56.3182C93.5363 57.2746 94.6632 58.6004 95.4776 60.2955C96.3015 61.9905 96.7134 63.9555 96.7134 66.1903C96.7134 68.4062 96.3062 70.3617 95.4918 72.0568C94.6774 73.7424 93.5458 75.0634 92.0969 76.0199C90.6576 76.9763 88.9956 77.4545 87.1112 77.4545ZM87.1112 75.1392C88.6263 75.1392 89.9094 74.732 90.9606 73.9176C92.0117 73.1032 92.8072 72.0189 93.3469 70.6648C93.8962 69.3106 94.1708 67.8191 94.1708 66.1903C94.1708 64.5616 93.8962 63.0653 93.3469 61.7017C92.8072 60.3381 92.0117 59.2443 90.9606 58.4205C89.9094 57.5966 88.6263 57.1847 87.1112 57.1847C85.6055 57.1847 84.3223 57.5966 83.2617 58.4205C82.2106 59.2443 81.4104 60.3381 80.8612 61.7017C80.3214 63.0653 80.0515 64.5616 80.0515 66.1903C80.0515 67.8191 80.3214 69.3106 80.8612 70.6648C81.4104 72.0189 82.2106 73.1032 83.2617 73.9176C84.3129 74.732 85.596 75.1392 87.1112 75.1392ZM110.119 77.4545C108.329 77.4545 106.762 76.9811 105.417 76.0341C104.073 75.0871 103.021 73.7661 102.264 72.071C101.516 70.3759 101.142 68.4015 101.142 66.1477C101.142 63.9034 101.516 61.9384 102.264 60.2528C103.021 58.5578 104.077 57.2415 105.431 56.304C106.786 55.357 108.362 54.8835 110.162 54.8835C111.487 54.8835 112.591 55.1203 113.471 55.5938C114.352 56.0578 115.057 56.6354 115.588 57.3267C116.118 58.018 116.53 58.6903 116.824 59.3438H117.051V47.9091H119.593V77H117.122V72.9517H116.824C116.53 73.6146 116.113 74.2964 115.574 74.9972C115.034 75.6884 114.319 76.2708 113.429 76.7443C112.548 77.2178 111.445 77.4545 110.119 77.4545ZM110.417 75.1392C111.828 75.1392 113.031 74.7557 114.025 73.9886C115.02 73.2121 115.777 72.1468 116.298 70.7926C116.828 69.429 117.093 67.8665 117.093 66.1051C117.093 64.3627 116.833 62.8239 116.312 61.4886C115.791 60.1439 115.034 59.0928 114.039 58.3352C113.045 57.5682 111.838 57.1847 110.417 57.1847C108.959 57.1847 107.728 57.5824 106.724 58.3778C105.73 59.1638 104.972 60.2292 104.451 61.5739C103.94 62.9186 103.684 64.429 103.684 66.1051C103.684 67.8002 103.945 69.3295 104.466 70.6932C104.986 72.0568 105.744 73.1411 106.738 73.946C107.742 74.7415 108.968 75.1392 110.417 75.1392ZM132.889 77.4972C131.573 77.4972 130.37 77.2415 129.281 76.7301C128.192 76.2093 127.325 75.4612 126.681 74.4858C126.038 73.5009 125.716 72.3078 125.716 70.9062C125.716 69.8267 125.919 68.9176 126.326 68.179C126.734 67.4403 127.311 66.8343 128.059 66.3608C128.807 65.8873 129.693 65.5133 130.716 65.2386C131.738 64.964 132.865 64.7509 134.096 64.5994C135.318 64.4479 136.35 64.3153 137.193 64.2017C138.045 64.0881 138.694 63.9081 139.139 63.6619C139.584 63.4157 139.806 63.018 139.806 62.4688V61.9574C139.806 60.4706 139.361 59.3011 138.471 58.4489C137.591 57.5871 136.322 57.1562 134.664 57.1562C133.092 57.1562 131.809 57.5019 130.815 58.1932C129.83 58.8845 129.139 59.6989 128.741 60.6364L126.341 59.7699C126.833 58.5767 127.515 57.625 128.386 56.9148C129.257 56.1951 130.233 55.679 131.312 55.3665C132.392 55.0445 133.485 54.8835 134.593 54.8835C135.427 54.8835 136.293 54.9924 137.193 55.2102C138.102 55.428 138.945 55.8068 139.721 56.3466C140.498 56.8769 141.127 57.6203 141.61 58.5767C142.093 59.5237 142.335 60.7263 142.335 62.1847V77H139.806V73.5483H139.65C139.347 74.1922 138.897 74.8172 138.301 75.4233C137.704 76.0294 136.956 76.5265 136.056 76.9148C135.157 77.303 134.101 77.4972 132.889 77.4972ZM133.23 75.1818C134.574 75.1818 135.739 74.8835 136.724 74.2869C137.709 73.6903 138.467 72.8996 138.997 71.9148C139.537 70.9205 139.806 69.8267 139.806 68.6335V65.4801C139.617 65.66 139.3 65.821 138.855 65.9631C138.419 66.1051 137.913 66.233 137.335 66.3466C136.767 66.4508 136.199 66.5407 135.63 66.6165C135.062 66.6922 134.551 66.7585 134.096 66.8153C132.865 66.9669 131.814 67.2036 130.943 67.5256C130.072 67.8475 129.404 68.2926 128.94 68.8608C128.476 69.4195 128.244 70.1392 128.244 71.0199C128.244 72.3456 128.717 73.3731 129.664 74.1023C130.611 74.822 131.8 75.1818 133.23 75.1818ZM151.589 47.9091V77H149.061V47.9091H151.589Z" fill="#C4C8DC"/>
<defs>
<filter id="filter0_d_676_484" x="54" y="1502" width="972" height="812" filterUnits="userSpaceOnUse" color-interpolation-filters="sRGB">
<feFlood flood-opacity="0" result="BackgroundImageFix"/>
<feColorMatrix in="SourceAlpha" type="matrix" values="0 0 0 0 0 0 0 0 0 0 0 0 0 0 0 0 0 0 127 0" result="hardAlpha"/>
<feOffset dy="4"/>
<feGaussianBlur stdDeviation="3"/>
<feComposite in2="hardAlpha" operator="out"/>
<feColorMatrix type="matrix" values="0 0 0 0 0 0 0 0 0 0 0 0 0 0 0 0 0 0 0.1 0"/>
<feBlend mode="normal" in2="BackgroundImageFix" result="effect1_dropShadow_676_484"/>
<feBlend mode="normal" in="SourceGraphic" in2="effect1_dropShadow_676_484" result="shape"/>
</filter>
<filter id="filter1_d_676_484" x="134" y="702" width="812" height="652" filterUnits="userSpaceOnUse" color-interpolation-filters="sRGB">
<feFlood flood-opacity="0" result="BackgroundImageFix"/>
<feColorMatrix in="SourceAlpha" type="matrix" values="0 0 0 0 0 0 0 0 0 0 0 0 0 0 0 0 0 0 127 0" result="hardAlpha"/>
<feOffset dy="4"/>
<feGaussianBlur stdDeviation="3"/>
<feComposite in2="hardAlpha" operator="out"/>
<feColorMatrix type="matrix" values="0 0 0 0 0 0 0 0 0 0 0 0 0 0 0 0 0 0 0.1 0"/>
<feBlend mode="normal" in2="BackgroundImageFix" result="effect1_dropShadow_676_484"/>
<feBlend mode="normal" in="SourceGraphic" in2="effect1_dropShadow_676_484" result="shape"/>
</filter>
<filter id="filter2_d_676_484" x="294" y="142" width="492" height="412" filterUnits="userSpaceOnUse" color-interpolation-filters="sRGB">
<feFlood flood-opacity="0" result="BackgroundImageFix"/>
<feColorMatrix in="SourceAlpha" type="matrix" values="0 0 0 0 0 0 0 0 0 0 0 0 0 0 0 0 0 0 127 0" result="hardAlpha"/>
<feOffset dy="4"/>
<feGaussianBlur stdDeviation="3"/>
<feComposite in2="hardAlpha" operator="out"/>
<feColorMatrix type="matrix" values="0 0 0 0 0 0 0 0 0 0 0 0 0 0 0 0 0 0 0.1 0"/>
<feBlend mode="normal" in2="BackgroundImageFix" result="effect1_dropShadow_676_484"/>
<feBlend mode="normal" in="SourceGraphic" in2="effect1_dropShadow_676_484" result="shape"/>
</filter>
</defs>
</svg>
