<svg width="400" height="564" viewBox="0 0 400 564" fill="none" xmlns="http://www.w3.org/2000/svg">
<rect width="400" height="564" rx="16" fill="white"/>
<rect x="40.5" y="124.5" width="319" height="399" rx="4.5" stroke="#9747FF" stroke-dasharray="10 5"/>
<g clip-path="url(#clip0_119_191)">
<rect x="60.5" y="384.5" width="279" height="39" rx="7.5" fill="white" stroke="#73768C"/>
<path d="M316.917 406.917L319.833 409.833" stroke="#151A30" stroke-width="1.5" stroke-linecap="round" stroke-linejoin="round"/>
<path d="M308.167 403.167C308.167 405.928 310.405 408.167 313.167 408.167C314.55 408.167 315.802 407.605 316.707 406.697C317.609 405.793 318.167 404.545 318.167 403.167C318.167 400.405 315.928 398.167 313.167 398.167C310.405 398.167 308.167 400.405 308.167 403.167Z" stroke="#151A30" stroke-width="1.5" stroke-linecap="round" stroke-linejoin="round"/>
<path d="M76.7727 399.614V398.364H85.5V399.614H81.8409V410H80.4318V399.614H76.7727ZM87.3565 413.273C87.1293 413.273 86.9266 413.254 86.7486 413.216C86.5705 413.182 86.4474 413.148 86.3793 413.114L86.7202 411.932C87.0459 412.015 87.3338 412.045 87.5838 412.023C87.8338 412 88.0554 411.888 88.2486 411.688C88.4455 411.491 88.6255 411.17 88.7884 410.727L89.0384 410.045L85.8111 401.273H87.2656L89.6747 408.227H89.7656L92.1747 401.273H93.6293L89.9247 411.273C89.758 411.723 89.5516 412.097 89.3054 412.392C89.0592 412.691 88.7732 412.913 88.4474 413.057C88.1255 413.201 87.7618 413.273 87.3565 413.273ZM95.3991 413.273V401.273H96.6946V402.659H96.8537C96.9522 402.508 97.0885 402.314 97.2628 402.08C97.4408 401.841 97.6946 401.629 98.0241 401.443C98.3575 401.254 98.8082 401.159 99.3764 401.159C100.111 401.159 100.759 401.343 101.32 401.71C101.88 402.078 102.318 402.598 102.632 403.273C102.946 403.947 103.104 404.742 103.104 405.659C103.104 406.583 102.946 407.384 102.632 408.062C102.318 408.737 101.882 409.259 101.325 409.631C100.768 409.998 100.126 410.182 99.3991 410.182C98.8385 410.182 98.3897 410.089 98.0526 409.903C97.7154 409.714 97.456 409.5 97.2741 409.261C97.0923 409.019 96.9522 408.818 96.8537 408.659H96.7401V413.273H95.3991ZM96.7173 405.636C96.7173 406.295 96.8139 406.877 97.0071 407.381C97.2003 407.881 97.4825 408.273 97.8537 408.557C98.2249 408.837 98.6795 408.977 99.2173 408.977C99.7779 408.977 100.246 408.83 100.621 408.534C101 408.235 101.284 407.833 101.473 407.33C101.666 406.822 101.763 406.258 101.763 405.636C101.763 405.023 101.668 404.47 101.479 403.977C101.293 403.481 101.011 403.089 100.632 402.801C100.257 402.509 99.7855 402.364 99.2173 402.364C98.6719 402.364 98.2135 402.502 97.8423 402.778C97.4711 403.051 97.1908 403.434 97.0014 403.926C96.812 404.415 96.7173 404.985 96.7173 405.636ZM108.808 410.182C107.967 410.182 107.242 409.996 106.632 409.625C106.026 409.25 105.558 408.727 105.229 408.057C104.903 407.383 104.74 406.598 104.74 405.705C104.74 404.811 104.903 404.023 105.229 403.341C105.558 402.655 106.017 402.121 106.604 401.739C107.195 401.352 107.884 401.159 108.672 401.159C109.126 401.159 109.575 401.235 110.018 401.386C110.462 401.538 110.865 401.784 111.229 402.125C111.592 402.462 111.882 402.909 112.098 403.466C112.314 404.023 112.422 404.708 112.422 405.523V406.091H105.695V404.932H111.058C111.058 404.439 110.96 404 110.763 403.614C110.57 403.227 110.293 402.922 109.933 402.699C109.577 402.475 109.157 402.364 108.672 402.364C108.138 402.364 107.676 402.496 107.286 402.761C106.899 403.023 106.602 403.364 106.393 403.784C106.185 404.205 106.081 404.655 106.081 405.136V405.909C106.081 406.568 106.195 407.127 106.422 407.585C106.653 408.04 106.973 408.386 107.382 408.625C107.791 408.86 108.267 408.977 108.808 408.977C109.161 408.977 109.479 408.928 109.763 408.83C110.051 408.727 110.299 408.576 110.507 408.375C110.715 408.17 110.876 407.917 110.99 407.614L112.286 407.977C112.149 408.417 111.92 408.803 111.598 409.136C111.276 409.466 110.878 409.723 110.405 409.909C109.931 410.091 109.399 410.182 108.808 410.182ZM117.757 410.182C117.03 410.182 116.388 409.998 115.831 409.631C115.274 409.259 114.839 408.737 114.524 408.062C114.21 407.384 114.053 406.583 114.053 405.659C114.053 404.742 114.21 403.947 114.524 403.273C114.839 402.598 115.276 402.078 115.837 401.71C116.397 401.343 117.045 401.159 117.78 401.159C118.348 401.159 118.797 401.254 119.126 401.443C119.46 401.629 119.714 401.841 119.888 402.08C120.066 402.314 120.204 402.508 120.303 402.659H120.416V398.364H121.757V410H120.462V408.659H120.303C120.204 408.818 120.064 409.019 119.882 409.261C119.7 409.5 119.441 409.714 119.104 409.903C118.767 410.089 118.318 410.182 117.757 410.182ZM117.939 408.977C118.477 408.977 118.931 408.837 119.303 408.557C119.674 408.273 119.956 407.881 120.149 407.381C120.342 406.877 120.439 406.295 120.439 405.636C120.439 404.985 120.344 404.415 120.155 403.926C119.965 403.434 119.685 403.051 119.314 402.778C118.943 402.502 118.484 402.364 117.939 402.364C117.371 402.364 116.897 402.509 116.518 402.801C116.143 403.089 115.861 403.481 115.672 403.977C115.486 404.47 115.393 405.023 115.393 405.636C115.393 406.258 115.488 406.822 115.678 407.33C115.871 407.833 116.155 408.235 116.53 408.534C116.909 408.83 117.378 408.977 117.939 408.977ZM135.081 403.227L133.876 403.568C133.801 403.367 133.689 403.172 133.541 402.983C133.397 402.79 133.2 402.631 132.95 402.506C132.7 402.381 132.38 402.318 131.99 402.318C131.456 402.318 131.011 402.441 130.655 402.688C130.303 402.93 130.126 403.239 130.126 403.614C130.126 403.947 130.248 404.21 130.49 404.403C130.732 404.597 131.111 404.758 131.626 404.886L132.922 405.205C133.702 405.394 134.284 405.684 134.666 406.074C135.049 406.46 135.24 406.958 135.24 407.568C135.24 408.068 135.096 408.515 134.808 408.909C134.524 409.303 134.126 409.614 133.615 409.841C133.104 410.068 132.509 410.182 131.831 410.182C130.941 410.182 130.204 409.989 129.621 409.602C129.037 409.216 128.668 408.652 128.513 407.909L129.786 407.591C129.907 408.061 130.136 408.413 130.473 408.648C130.814 408.883 131.259 409 131.808 409C132.433 409 132.929 408.867 133.297 408.602C133.668 408.333 133.854 408.011 133.854 407.636C133.854 407.333 133.748 407.08 133.536 406.875C133.323 406.667 132.998 406.511 132.558 406.409L131.104 406.068C130.304 405.879 129.717 405.585 129.342 405.188C128.971 404.786 128.786 404.284 128.786 403.682C128.786 403.189 128.924 402.754 129.2 402.375C129.481 401.996 129.861 401.699 130.342 401.483C130.827 401.267 131.376 401.159 131.99 401.159C132.854 401.159 133.532 401.348 134.024 401.727C134.52 402.106 134.873 402.606 135.081 403.227ZM141.054 401.273V402.409H136.531V401.273H141.054ZM137.849 399.182H139.19V407.5C139.19 407.879 139.245 408.163 139.355 408.352C139.469 408.538 139.613 408.663 139.787 408.727C139.965 408.788 140.152 408.818 140.349 408.818C140.497 408.818 140.618 408.811 140.713 408.795C140.808 408.777 140.884 408.761 140.94 408.75L141.213 409.955C141.122 409.989 140.995 410.023 140.832 410.057C140.67 410.095 140.463 410.114 140.213 410.114C139.834 410.114 139.463 410.032 139.099 409.869C138.74 409.706 138.44 409.458 138.202 409.125C137.967 408.792 137.849 408.371 137.849 407.864V399.182ZM143.071 410V401.273H144.366V402.591H144.457C144.616 402.159 144.904 401.809 145.321 401.54C145.738 401.271 146.207 401.136 146.73 401.136C146.829 401.136 146.952 401.138 147.099 401.142C147.247 401.146 147.359 401.152 147.435 401.159V402.523C147.389 402.511 147.285 402.494 147.122 402.472C146.963 402.445 146.795 402.432 146.616 402.432C146.192 402.432 145.813 402.521 145.48 402.699C145.151 402.873 144.889 403.116 144.696 403.426C144.507 403.733 144.412 404.083 144.412 404.477V410H143.071ZM149.024 410V401.273H150.365V410H149.024ZM149.706 399.818C149.445 399.818 149.219 399.729 149.03 399.551C148.844 399.373 148.751 399.159 148.751 398.909C148.751 398.659 148.844 398.445 149.03 398.267C149.219 398.089 149.445 398 149.706 398C149.967 398 150.191 398.089 150.376 398.267C150.566 398.445 150.661 398.659 150.661 398.909C150.661 399.159 150.566 399.373 150.376 399.551C150.191 399.729 149.967 399.818 149.706 399.818ZM154.162 404.75V410H152.821V401.273H154.116V402.636H154.23C154.435 402.193 154.745 401.837 155.162 401.568C155.579 401.295 156.116 401.159 156.776 401.159C157.366 401.159 157.884 401.28 158.327 401.523C158.77 401.761 159.115 402.125 159.361 402.614C159.607 403.098 159.73 403.712 159.73 404.455V410H158.389V404.545C158.389 403.86 158.211 403.326 157.855 402.943C157.499 402.557 157.01 402.364 156.389 402.364C155.961 402.364 155.579 402.456 155.241 402.642C154.908 402.828 154.645 403.098 154.452 403.455C154.259 403.811 154.162 404.242 154.162 404.75ZM165.703 413.455C165.055 413.455 164.499 413.371 164.033 413.205C163.567 413.042 163.179 412.826 162.868 412.557C162.561 412.292 162.317 412.008 162.135 411.705L163.203 410.955C163.324 411.114 163.478 411.295 163.663 411.5C163.849 411.708 164.103 411.888 164.425 412.04C164.75 412.195 165.177 412.273 165.703 412.273C166.408 412.273 166.989 412.102 167.447 411.761C167.906 411.42 168.135 410.886 168.135 410.159V408.386H168.021C167.923 408.545 167.783 408.742 167.601 408.977C167.423 409.208 167.165 409.415 166.828 409.597C166.495 409.775 166.044 409.864 165.476 409.864C164.771 409.864 164.139 409.697 163.578 409.364C163.021 409.03 162.58 408.545 162.254 407.909C161.932 407.273 161.771 406.5 161.771 405.591C161.771 404.697 161.929 403.919 162.243 403.256C162.557 402.589 162.995 402.074 163.555 401.71C164.116 401.343 164.764 401.159 165.499 401.159C166.067 401.159 166.518 401.254 166.851 401.443C167.188 401.629 167.446 401.841 167.624 402.08C167.805 402.314 167.946 402.508 168.044 402.659H168.18V401.273H169.476V410.25C169.476 411 169.305 411.61 168.964 412.08C168.627 412.553 168.173 412.9 167.601 413.119C167.033 413.343 166.4 413.455 165.703 413.455ZM165.658 408.659C166.196 408.659 166.65 408.536 167.021 408.29C167.393 408.044 167.675 407.689 167.868 407.227C168.061 406.765 168.158 406.212 168.158 405.568C168.158 404.939 168.063 404.384 167.874 403.903C167.684 403.422 167.404 403.045 167.033 402.773C166.661 402.5 166.203 402.364 165.658 402.364C165.089 402.364 164.616 402.508 164.237 402.795C163.862 403.083 163.58 403.47 163.391 403.955C163.205 404.439 163.112 404.977 163.112 405.568C163.112 406.174 163.207 406.71 163.396 407.176C163.589 407.638 163.874 408.002 164.249 408.267C164.627 408.528 165.097 408.659 165.658 408.659Z" fill="#151A30"/>
</g>
<g clip-path="url(#clip1_119_191)">
<rect x="60.5" y="464.5" width="279" height="39" rx="7.5" fill="white" stroke="#ABADBA"/>
<path d="M316.917 486.917L319.833 489.833" stroke="#273058" stroke-width="1.5" stroke-linecap="round" stroke-linejoin="round"/>
<path d="M308.167 483.167C308.167 485.928 310.405 488.167 313.167 488.167C314.55 488.167 315.802 487.605 316.707 486.697C317.609 485.793 318.167 484.545 318.167 483.167C318.167 480.405 315.928 478.167 313.167 478.167C310.405 478.167 308.167 480.405 308.167 483.167Z" stroke="#273058" stroke-width="1.5" stroke-linecap="round" stroke-linejoin="round"/>
<path d="M76.7727 479.614V478.364H85.5V479.614H81.8409V490H80.4318V479.614H76.7727ZM87.3565 493.273C87.1293 493.273 86.9266 493.254 86.7486 493.216C86.5705 493.182 86.4474 493.148 86.3793 493.114L86.7202 491.932C87.0459 492.015 87.3338 492.045 87.5838 492.023C87.8338 492 88.0554 491.888 88.2486 491.688C88.4455 491.491 88.6255 491.17 88.7884 490.727L89.0384 490.045L85.8111 481.273H87.2656L89.6747 488.227H89.7656L92.1747 481.273H93.6293L89.9247 491.273C89.758 491.723 89.5516 492.097 89.3054 492.392C89.0592 492.691 88.7732 492.913 88.4474 493.057C88.1255 493.201 87.7618 493.273 87.3565 493.273ZM95.3991 493.273V481.273H96.6946V482.659H96.8537C96.9522 482.508 97.0885 482.314 97.2628 482.08C97.4408 481.841 97.6946 481.629 98.0241 481.443C98.3575 481.254 98.8082 481.159 99.3764 481.159C100.111 481.159 100.759 481.343 101.32 481.71C101.88 482.078 102.318 482.598 102.632 483.273C102.946 483.947 103.104 484.742 103.104 485.659C103.104 486.583 102.946 487.384 102.632 488.062C102.318 488.737 101.882 489.259 101.325 489.631C100.768 489.998 100.126 490.182 99.3991 490.182C98.8385 490.182 98.3897 490.089 98.0526 489.903C97.7154 489.714 97.456 489.5 97.2741 489.261C97.0923 489.019 96.9522 488.818 96.8537 488.659H96.7401V493.273H95.3991ZM96.7173 485.636C96.7173 486.295 96.8139 486.877 97.0071 487.381C97.2003 487.881 97.4825 488.273 97.8537 488.557C98.2249 488.837 98.6795 488.977 99.2173 488.977C99.7779 488.977 100.246 488.83 100.621 488.534C101 488.235 101.284 487.833 101.473 487.33C101.666 486.822 101.763 486.258 101.763 485.636C101.763 485.023 101.668 484.47 101.479 483.977C101.293 483.481 101.011 483.089 100.632 482.801C100.257 482.509 99.7855 482.364 99.2173 482.364C98.6719 482.364 98.2135 482.502 97.8423 482.778C97.4711 483.051 97.1908 483.434 97.0014 483.926C96.812 484.415 96.7173 484.985 96.7173 485.636ZM108.808 490.182C107.967 490.182 107.242 489.996 106.632 489.625C106.026 489.25 105.558 488.727 105.229 488.057C104.903 487.383 104.74 486.598 104.74 485.705C104.74 484.811 104.903 484.023 105.229 483.341C105.558 482.655 106.017 482.121 106.604 481.739C107.195 481.352 107.884 481.159 108.672 481.159C109.126 481.159 109.575 481.235 110.018 481.386C110.462 481.538 110.865 481.784 111.229 482.125C111.592 482.462 111.882 482.909 112.098 483.466C112.314 484.023 112.422 484.708 112.422 485.523V486.091H105.695V484.932H111.058C111.058 484.439 110.96 484 110.763 483.614C110.57 483.227 110.293 482.922 109.933 482.699C109.577 482.475 109.157 482.364 108.672 482.364C108.138 482.364 107.676 482.496 107.286 482.761C106.899 483.023 106.602 483.364 106.393 483.784C106.185 484.205 106.081 484.655 106.081 485.136V485.909C106.081 486.568 106.195 487.127 106.422 487.585C106.653 488.04 106.973 488.386 107.382 488.625C107.791 488.86 108.267 488.977 108.808 488.977C109.161 488.977 109.479 488.928 109.763 488.83C110.051 488.727 110.299 488.576 110.507 488.375C110.715 488.17 110.876 487.917 110.99 487.614L112.286 487.977C112.149 488.417 111.92 488.803 111.598 489.136C111.276 489.466 110.878 489.723 110.405 489.909C109.931 490.091 109.399 490.182 108.808 490.182ZM117.757 490.182C117.03 490.182 116.388 489.998 115.831 489.631C115.274 489.259 114.839 488.737 114.524 488.062C114.21 487.384 114.053 486.583 114.053 485.659C114.053 484.742 114.21 483.947 114.524 483.273C114.839 482.598 115.276 482.078 115.837 481.71C116.397 481.343 117.045 481.159 117.78 481.159C118.348 481.159 118.797 481.254 119.126 481.443C119.46 481.629 119.714 481.841 119.888 482.08C120.066 482.314 120.204 482.508 120.303 482.659H120.416V478.364H121.757V490H120.462V488.659H120.303C120.204 488.818 120.064 489.019 119.882 489.261C119.7 489.5 119.441 489.714 119.104 489.903C118.767 490.089 118.318 490.182 117.757 490.182ZM117.939 488.977C118.477 488.977 118.931 488.837 119.303 488.557C119.674 488.273 119.956 487.881 120.149 487.381C120.342 486.877 120.439 486.295 120.439 485.636C120.439 484.985 120.344 484.415 120.155 483.926C119.965 483.434 119.685 483.051 119.314 482.778C118.943 482.502 118.484 482.364 117.939 482.364C117.371 482.364 116.897 482.509 116.518 482.801C116.143 483.089 115.861 483.481 115.672 483.977C115.486 484.47 115.393 485.023 115.393 485.636C115.393 486.258 115.488 486.822 115.678 487.33C115.871 487.833 116.155 488.235 116.53 488.534C116.909 488.83 117.378 488.977 117.939 488.977ZM135.081 483.227L133.876 483.568C133.801 483.367 133.689 483.172 133.541 482.983C133.397 482.79 133.2 482.631 132.95 482.506C132.7 482.381 132.38 482.318 131.99 482.318C131.456 482.318 131.011 482.441 130.655 482.688C130.303 482.93 130.126 483.239 130.126 483.614C130.126 483.947 130.248 484.21 130.49 484.403C130.732 484.597 131.111 484.758 131.626 484.886L132.922 485.205C133.702 485.394 134.284 485.684 134.666 486.074C135.049 486.46 135.24 486.958 135.24 487.568C135.24 488.068 135.096 488.515 134.808 488.909C134.524 489.303 134.126 489.614 133.615 489.841C133.104 490.068 132.509 490.182 131.831 490.182C130.941 490.182 130.204 489.989 129.621 489.602C129.037 489.216 128.668 488.652 128.513 487.909L129.786 487.591C129.907 488.061 130.136 488.413 130.473 488.648C130.814 488.883 131.259 489 131.808 489C132.433 489 132.929 488.867 133.297 488.602C133.668 488.333 133.854 488.011 133.854 487.636C133.854 487.333 133.748 487.08 133.536 486.875C133.323 486.667 132.998 486.511 132.558 486.409L131.104 486.068C130.304 485.879 129.717 485.585 129.342 485.188C128.971 484.786 128.786 484.284 128.786 483.682C128.786 483.189 128.924 482.754 129.2 482.375C129.481 481.996 129.861 481.699 130.342 481.483C130.827 481.267 131.376 481.159 131.99 481.159C132.854 481.159 133.532 481.348 134.024 481.727C134.52 482.106 134.873 482.606 135.081 483.227ZM141.054 481.273V482.409H136.531V481.273H141.054ZM137.849 479.182H139.19V487.5C139.19 487.879 139.245 488.163 139.355 488.352C139.469 488.538 139.613 488.663 139.787 488.727C139.965 488.788 140.152 488.818 140.349 488.818C140.497 488.818 140.618 488.811 140.713 488.795C140.808 488.777 140.884 488.761 140.94 488.75L141.213 489.955C141.122 489.989 140.995 490.023 140.832 490.057C140.67 490.095 140.463 490.114 140.213 490.114C139.834 490.114 139.463 490.032 139.099 489.869C138.74 489.706 138.44 489.458 138.202 489.125C137.967 488.792 137.849 488.371 137.849 487.864V479.182ZM143.071 490V481.273H144.366V482.591H144.457C144.616 482.159 144.904 481.809 145.321 481.54C145.738 481.271 146.207 481.136 146.73 481.136C146.829 481.136 146.952 481.138 147.099 481.142C147.247 481.146 147.359 481.152 147.435 481.159V482.523C147.389 482.511 147.285 482.494 147.122 482.472C146.963 482.445 146.795 482.432 146.616 482.432C146.192 482.432 145.813 482.521 145.48 482.699C145.151 482.873 144.889 483.116 144.696 483.426C144.507 483.733 144.412 484.083 144.412 484.477V490H143.071ZM149.024 490V481.273H150.365V490H149.024ZM149.706 479.818C149.445 479.818 149.219 479.729 149.03 479.551C148.844 479.373 148.751 479.159 148.751 478.909C148.751 478.659 148.844 478.445 149.03 478.267C149.219 478.089 149.445 478 149.706 478C149.967 478 150.191 478.089 150.376 478.267C150.566 478.445 150.661 478.659 150.661 478.909C150.661 479.159 150.566 479.373 150.376 479.551C150.191 479.729 149.967 479.818 149.706 479.818ZM154.162 484.75V490H152.821V481.273H154.116V482.636H154.23C154.435 482.193 154.745 481.837 155.162 481.568C155.579 481.295 156.116 481.159 156.776 481.159C157.366 481.159 157.884 481.28 158.327 481.523C158.77 481.761 159.115 482.125 159.361 482.614C159.607 483.098 159.73 483.712 159.73 484.455V490H158.389V484.545C158.389 483.86 158.211 483.326 157.855 482.943C157.499 482.557 157.01 482.364 156.389 482.364C155.961 482.364 155.579 482.456 155.241 482.642C154.908 482.828 154.645 483.098 154.452 483.455C154.259 483.811 154.162 484.242 154.162 484.75ZM165.703 493.455C165.055 493.455 164.499 493.371 164.033 493.205C163.567 493.042 163.179 492.826 162.868 492.557C162.561 492.292 162.317 492.008 162.135 491.705L163.203 490.955C163.324 491.114 163.478 491.295 163.663 491.5C163.849 491.708 164.103 491.888 164.425 492.04C164.75 492.195 165.177 492.273 165.703 492.273C166.408 492.273 166.989 492.102 167.447 491.761C167.906 491.42 168.135 490.886 168.135 490.159V488.386H168.021C167.923 488.545 167.783 488.742 167.601 488.977C167.423 489.208 167.165 489.415 166.828 489.597C166.495 489.775 166.044 489.864 165.476 489.864C164.771 489.864 164.139 489.697 163.578 489.364C163.021 489.03 162.58 488.545 162.254 487.909C161.932 487.273 161.771 486.5 161.771 485.591C161.771 484.697 161.929 483.919 162.243 483.256C162.557 482.589 162.995 482.074 163.555 481.71C164.116 481.343 164.764 481.159 165.499 481.159C166.067 481.159 166.518 481.254 166.851 481.443C167.188 481.629 167.446 481.841 167.624 482.08C167.805 482.314 167.946 482.508 168.044 482.659H168.18V481.273H169.476V490.25C169.476 491 169.305 491.61 168.964 492.08C168.627 492.553 168.173 492.9 167.601 493.119C167.033 493.343 166.4 493.455 165.703 493.455ZM165.658 488.659C166.196 488.659 166.65 488.536 167.021 488.29C167.393 488.044 167.675 487.689 167.868 487.227C168.061 486.765 168.158 486.212 168.158 485.568C168.158 484.939 168.063 484.384 167.874 483.903C167.684 483.422 167.404 483.045 167.033 482.773C166.661 482.5 166.203 482.364 165.658 482.364C165.089 482.364 164.616 482.508 164.237 482.795C163.862 483.083 163.58 483.47 163.391 483.955C163.205 484.439 163.112 484.977 163.112 485.568C163.112 486.174 163.207 486.71 163.396 487.176C163.589 487.638 163.874 488.002 164.249 488.267C164.627 488.528 165.097 488.659 165.658 488.659Z" fill="#273058"/>
</g>
<g clip-path="url(#clip2_119_191)">
<rect x="60.5" y="304.5" width="279" height="39" rx="7.5" fill="white" stroke="#0E69F1"/>
<path d="M316.917 326.917L319.833 329.833" stroke="#0E69F1" stroke-width="1.5" stroke-linecap="round" stroke-linejoin="round"/>
<path d="M308.167 323.167C308.167 325.928 310.405 328.167 313.167 328.167C314.55 328.167 315.802 327.605 316.707 326.697C317.609 325.793 318.167 324.545 318.167 323.167C318.167 320.405 315.928 318.167 313.167 318.167C310.405 318.167 308.167 320.405 308.167 323.167Z" stroke="#0E69F1" stroke-width="1.5" stroke-linecap="round" stroke-linejoin="round"/>
<path d="M76.7727 319.614V318.364H85.5V319.614H81.8409V330H80.4318V319.614H76.7727ZM87.3565 333.273C87.1293 333.273 86.9266 333.254 86.7486 333.216C86.5705 333.182 86.4474 333.148 86.3793 333.114L86.7202 331.932C87.0459 332.015 87.3338 332.045 87.5838 332.023C87.8338 332 88.0554 331.888 88.2486 331.688C88.4455 331.491 88.6255 331.17 88.7884 330.727L89.0384 330.045L85.8111 321.273H87.2656L89.6747 328.227H89.7656L92.1747 321.273H93.6293L89.9247 331.273C89.758 331.723 89.5516 332.097 89.3054 332.392C89.0592 332.691 88.7732 332.913 88.4474 333.057C88.1255 333.201 87.7618 333.273 87.3565 333.273ZM95.3991 333.273V321.273H96.6946V322.659H96.8537C96.9522 322.508 97.0885 322.314 97.2628 322.08C97.4408 321.841 97.6946 321.629 98.0241 321.443C98.3575 321.254 98.8082 321.159 99.3764 321.159C100.111 321.159 100.759 321.343 101.32 321.71C101.88 322.078 102.318 322.598 102.632 323.273C102.946 323.947 103.104 324.742 103.104 325.659C103.104 326.583 102.946 327.384 102.632 328.062C102.318 328.737 101.882 329.259 101.325 329.631C100.768 329.998 100.126 330.182 99.3991 330.182C98.8385 330.182 98.3897 330.089 98.0526 329.903C97.7154 329.714 97.456 329.5 97.2741 329.261C97.0923 329.019 96.9522 328.818 96.8537 328.659H96.7401V333.273H95.3991ZM96.7173 325.636C96.7173 326.295 96.8139 326.877 97.0071 327.381C97.2003 327.881 97.4825 328.273 97.8537 328.557C98.2249 328.837 98.6795 328.977 99.2173 328.977C99.7779 328.977 100.246 328.83 100.621 328.534C101 328.235 101.284 327.833 101.473 327.33C101.666 326.822 101.763 326.258 101.763 325.636C101.763 325.023 101.668 324.47 101.479 323.977C101.293 323.481 101.011 323.089 100.632 322.801C100.257 322.509 99.7855 322.364 99.2173 322.364C98.6719 322.364 98.2135 322.502 97.8423 322.778C97.4711 323.051 97.1908 323.434 97.0014 323.926C96.812 324.415 96.7173 324.985 96.7173 325.636ZM105.149 330V321.273H106.49V330H105.149ZM105.831 319.818C105.57 319.818 105.344 319.729 105.155 319.551C104.969 319.373 104.876 319.159 104.876 318.909C104.876 318.659 104.969 318.445 105.155 318.267C105.344 318.089 105.57 318 105.831 318C106.092 318 106.316 318.089 106.501 318.267C106.691 318.445 106.786 318.659 106.786 318.909C106.786 319.159 106.691 319.373 106.501 319.551C106.316 319.729 106.092 319.818 105.831 319.818ZM110.287 324.75V330H108.946V321.273H110.241V322.636H110.355C110.56 322.193 110.87 321.837 111.287 321.568C111.704 321.295 112.241 321.159 112.901 321.159C113.491 321.159 114.009 321.28 114.452 321.523C114.895 321.761 115.24 322.125 115.486 322.614C115.732 323.098 115.855 323.712 115.855 324.455V330H114.514V324.545C114.514 323.86 114.336 323.326 113.98 322.943C113.624 322.557 113.135 322.364 112.514 322.364C112.086 322.364 111.704 322.456 111.366 322.642C111.033 322.828 110.77 323.098 110.577 323.455C110.384 323.811 110.287 324.242 110.287 324.75ZM121.828 333.455C121.18 333.455 120.624 333.371 120.158 333.205C119.692 333.042 119.304 332.826 118.993 332.557C118.686 332.292 118.442 332.008 118.26 331.705L119.328 330.955C119.449 331.114 119.603 331.295 119.788 331.5C119.974 331.708 120.228 331.888 120.55 332.04C120.875 332.195 121.302 332.273 121.828 332.273C122.533 332.273 123.114 332.102 123.572 331.761C124.031 331.42 124.26 330.886 124.26 330.159V328.386H124.146C124.048 328.545 123.908 328.742 123.726 328.977C123.548 329.208 123.29 329.415 122.953 329.597C122.62 329.775 122.169 329.864 121.601 329.864C120.896 329.864 120.264 329.697 119.703 329.364C119.146 329.03 118.705 328.545 118.379 327.909C118.057 327.273 117.896 326.5 117.896 325.591C117.896 324.697 118.054 323.919 118.368 323.256C118.682 322.589 119.12 322.074 119.68 321.71C120.241 321.343 120.889 321.159 121.624 321.159C122.192 321.159 122.643 321.254 122.976 321.443C123.313 321.629 123.571 321.841 123.749 322.08C123.93 322.314 124.071 322.508 124.169 322.659H124.305V321.273H125.601V330.25C125.601 331 125.43 331.61 125.089 332.08C124.752 332.553 124.298 332.9 123.726 333.119C123.158 333.343 122.525 333.455 121.828 333.455ZM121.783 328.659C122.321 328.659 122.775 328.536 123.146 328.29C123.518 328.044 123.8 327.689 123.993 327.227C124.186 326.765 124.283 326.212 124.283 325.568C124.283 324.939 124.188 324.384 123.999 323.903C123.809 323.422 123.529 323.045 123.158 322.773C122.786 322.5 122.328 322.364 121.783 322.364C121.214 322.364 120.741 322.508 120.362 322.795C119.987 323.083 119.705 323.47 119.516 323.955C119.33 324.439 119.237 324.977 119.237 325.568C119.237 326.174 119.332 326.71 119.521 327.176C119.714 327.638 119.999 328.002 120.374 328.267C120.752 328.528 121.222 328.659 121.783 328.659ZM138.737 323.227L137.533 323.568C137.457 323.367 137.345 323.172 137.197 322.983C137.054 322.79 136.857 322.631 136.607 322.506C136.357 322.381 136.036 322.318 135.646 322.318C135.112 322.318 134.667 322.441 134.311 322.688C133.959 322.93 133.783 323.239 133.783 323.614C133.783 323.947 133.904 324.21 134.146 324.403C134.389 324.597 134.768 324.758 135.283 324.886L136.578 325.205C137.358 325.394 137.94 325.684 138.322 326.074C138.705 326.46 138.896 326.958 138.896 327.568C138.896 328.068 138.752 328.515 138.464 328.909C138.18 329.303 137.783 329.614 137.271 329.841C136.76 330.068 136.165 330.182 135.487 330.182C134.597 330.182 133.86 329.989 133.277 329.602C132.694 329.216 132.324 328.652 132.169 327.909L133.442 327.591C133.563 328.061 133.792 328.413 134.129 328.648C134.47 328.883 134.915 329 135.464 329C136.089 329 136.586 328.867 136.953 328.602C137.324 328.333 137.51 328.011 137.51 327.636C137.51 327.333 137.404 327.08 137.192 326.875C136.98 326.667 136.654 326.511 136.214 326.409L134.76 326.068C133.961 325.879 133.374 325.585 132.999 325.188C132.627 324.786 132.442 324.284 132.442 323.682C132.442 323.189 132.58 322.754 132.857 322.375C133.137 321.996 133.518 321.699 133.999 321.483C134.483 321.267 135.033 321.159 135.646 321.159C136.51 321.159 137.188 321.348 137.68 321.727C138.177 322.106 138.529 322.606 138.737 323.227ZM144.71 321.273V322.409H140.188V321.273H144.71ZM141.506 319.182H142.847V327.5C142.847 327.879 142.902 328.163 143.011 328.352C143.125 328.538 143.269 328.663 143.443 328.727C143.621 328.788 143.809 328.818 144.006 328.818C144.153 328.818 144.275 328.811 144.369 328.795C144.464 328.777 144.54 328.761 144.597 328.75L144.869 329.955C144.778 329.989 144.652 330.023 144.489 330.057C144.326 330.095 144.119 330.114 143.869 330.114C143.491 330.114 143.119 330.032 142.756 329.869C142.396 329.706 142.097 329.458 141.858 329.125C141.623 328.792 141.506 328.371 141.506 327.864V319.182ZM146.727 330V321.273H148.023V322.591H148.114C148.273 322.159 148.561 321.809 148.977 321.54C149.394 321.271 149.864 321.136 150.386 321.136C150.485 321.136 150.608 321.138 150.756 321.142C150.903 321.146 151.015 321.152 151.091 321.159V322.523C151.045 322.511 150.941 322.494 150.778 322.472C150.619 322.445 150.451 322.432 150.273 322.432C149.848 322.432 149.47 322.521 149.136 322.699C148.807 322.873 148.545 323.116 148.352 323.426C148.163 323.733 148.068 324.083 148.068 324.477V330H146.727ZM152.68 330V321.273H154.021V330H152.68ZM153.362 319.818C153.101 319.818 152.875 319.729 152.686 319.551C152.5 319.373 152.408 319.159 152.408 318.909C152.408 318.659 152.5 318.445 152.686 318.267C152.875 318.089 153.101 318 153.362 318C153.624 318 153.847 318.089 154.033 318.267C154.222 318.445 154.317 318.659 154.317 318.909C154.317 319.159 154.222 319.373 154.033 319.551C153.847 319.729 153.624 319.818 153.362 319.818ZM157.818 324.75V330H156.477V321.273H157.773V322.636H157.886C158.091 322.193 158.402 321.837 158.818 321.568C159.235 321.295 159.773 321.159 160.432 321.159C161.023 321.159 161.54 321.28 161.983 321.523C162.426 321.761 162.771 322.125 163.017 322.614C163.263 323.098 163.386 323.712 163.386 324.455V330H162.045V324.545C162.045 323.86 161.867 323.326 161.511 322.943C161.155 322.557 160.667 322.364 160.045 322.364C159.617 322.364 159.235 322.456 158.898 322.642C158.564 322.828 158.301 323.098 158.108 323.455C157.915 323.811 157.818 324.242 157.818 324.75ZM169.359 333.455C168.712 333.455 168.155 333.371 167.689 333.205C167.223 333.042 166.835 332.826 166.524 332.557C166.217 332.292 165.973 332.008 165.791 331.705L166.859 330.955C166.981 331.114 167.134 331.295 167.32 331.5C167.505 331.708 167.759 331.888 168.081 332.04C168.407 332.195 168.833 332.273 169.359 332.273C170.064 332.273 170.645 332.102 171.104 331.761C171.562 331.42 171.791 330.886 171.791 330.159V328.386H171.678C171.579 328.545 171.439 328.742 171.257 328.977C171.079 329.208 170.821 329.415 170.484 329.597C170.151 329.775 169.7 329.864 169.132 329.864C168.428 329.864 167.795 329.697 167.234 329.364C166.678 329.03 166.236 328.545 165.911 327.909C165.589 327.273 165.428 326.5 165.428 325.591C165.428 324.697 165.585 323.919 165.899 323.256C166.214 322.589 166.651 322.074 167.212 321.71C167.772 321.343 168.42 321.159 169.155 321.159C169.723 321.159 170.174 321.254 170.507 321.443C170.844 321.629 171.102 321.841 171.28 322.08C171.462 322.314 171.602 322.508 171.7 322.659H171.837V321.273H173.132V330.25C173.132 331 172.962 331.61 172.621 332.08C172.284 332.553 171.829 332.9 171.257 333.119C170.689 333.343 170.056 333.455 169.359 333.455ZM169.314 328.659C169.852 328.659 170.306 328.536 170.678 328.29C171.049 328.044 171.331 327.689 171.524 327.227C171.717 326.765 171.814 326.212 171.814 325.568C171.814 324.939 171.719 324.384 171.53 323.903C171.34 323.422 171.06 323.045 170.689 322.773C170.318 322.5 169.859 322.364 169.314 322.364C168.746 322.364 168.272 322.508 167.893 322.795C167.518 323.083 167.236 323.47 167.047 323.955C166.861 324.439 166.768 324.977 166.768 325.568C166.768 326.174 166.863 326.71 167.053 327.176C167.246 327.638 167.53 328.002 167.905 328.267C168.284 328.528 168.753 328.659 169.314 328.659ZM177.541 314.614V333.75H176.405V314.614H177.541Z" fill="#151A30"/>
</g>
<g clip-path="url(#clip3_119_191)">
<rect width="280" height="40" transform="translate(60 224)" fill="#F9F9F9"/>
<rect x="60.5" y="224.5" width="279" height="39" rx="7.5" fill="#F9F9F9" stroke="#ABADBA"/>
<path d="M316.917 246.917L319.833 249.833" stroke="#151A30" stroke-width="1.5" stroke-linecap="round" stroke-linejoin="round"/>
<path d="M308.167 243.167C308.167 245.928 310.405 248.167 313.167 248.167C314.55 248.167 315.802 247.605 316.707 246.697C317.609 245.793 318.167 244.545 318.167 243.167C318.167 240.405 315.928 238.167 313.167 238.167C310.405 238.167 308.167 240.405 308.167 243.167Z" stroke="#151A30" stroke-width="1.5" stroke-linecap="round" stroke-linejoin="round"/>
<path d="M78.8182 238.364V250H77.4091V238.364H78.8182ZM82.6435 238.364V239.386C82.6435 239.697 82.5866 240.028 82.473 240.381C82.3632 240.729 82.2003 241.068 81.9844 241.398C81.7723 241.723 81.5147 242.008 81.2116 242.25L80.4844 241.659C80.723 241.318 80.9295 240.964 81.1037 240.597C81.2817 240.225 81.3707 239.83 81.3707 239.409V238.364H82.6435ZM84.071 250V241.273H85.3665V242.636H85.4801C85.6619 242.17 85.9555 241.809 86.3608 241.551C86.7661 241.29 87.2528 241.159 87.821 241.159C88.3968 241.159 88.8759 241.29 89.2585 241.551C89.6449 241.809 89.946 242.17 90.1619 242.636H90.2528C90.4763 242.186 90.8116 241.828 91.2585 241.562C91.7055 241.294 92.2415 241.159 92.8665 241.159C93.6468 241.159 94.285 241.403 94.7812 241.892C95.2775 242.377 95.5256 243.133 95.5256 244.159V250H94.1847V244.159C94.1847 243.515 94.0085 243.055 93.6562 242.778C93.304 242.502 92.8892 242.364 92.4119 242.364C91.7983 242.364 91.3229 242.549 90.9858 242.92C90.6487 243.288 90.4801 243.754 90.4801 244.318V250H89.1165V244.023C89.1165 243.527 88.9555 243.127 88.6335 242.824C88.3116 242.517 87.8968 242.364 87.3892 242.364C87.0407 242.364 86.715 242.456 86.4119 242.642C86.1127 242.828 85.8703 243.085 85.6847 243.415C85.5028 243.741 85.4119 244.117 85.4119 244.545V250H84.071ZM103.818 238.364V250H102.477V238.364H103.818ZM109.82 250.182C109.032 250.182 108.34 249.994 107.746 249.619C107.155 249.244 106.693 248.72 106.359 248.045C106.03 247.371 105.865 246.583 105.865 245.682C105.865 244.773 106.03 243.979 106.359 243.301C106.693 242.623 107.155 242.097 107.746 241.722C108.34 241.347 109.032 241.159 109.82 241.159C110.607 241.159 111.297 241.347 111.888 241.722C112.482 242.097 112.945 242.623 113.274 243.301C113.607 243.979 113.774 244.773 113.774 245.682C113.774 246.583 113.607 247.371 113.274 248.045C112.945 248.72 112.482 249.244 111.888 249.619C111.297 249.994 110.607 250.182 109.82 250.182ZM109.82 248.977C110.418 248.977 110.911 248.824 111.297 248.517C111.683 248.21 111.969 247.807 112.155 247.307C112.34 246.807 112.433 246.265 112.433 245.682C112.433 245.098 112.34 244.555 112.155 244.051C111.969 243.547 111.683 243.14 111.297 242.83C110.911 242.519 110.418 242.364 109.82 242.364C109.221 242.364 108.729 242.519 108.342 242.83C107.956 243.14 107.67 243.547 107.484 244.051C107.299 244.555 107.206 245.098 107.206 245.682C107.206 246.265 107.299 246.807 107.484 247.307C107.67 247.807 107.956 248.21 108.342 248.517C108.729 248.824 109.221 248.977 109.82 248.977ZM119.366 250.182C118.579 250.182 117.887 249.994 117.293 249.619C116.702 249.244 116.24 248.72 115.906 248.045C115.577 247.371 115.412 246.583 115.412 245.682C115.412 244.773 115.577 243.979 115.906 243.301C116.24 242.623 116.702 242.097 117.293 241.722C117.887 241.347 118.579 241.159 119.366 241.159C120.154 241.159 120.844 241.347 121.435 241.722C122.029 242.097 122.491 242.623 122.821 243.301C123.154 243.979 123.321 244.773 123.321 245.682C123.321 246.583 123.154 247.371 122.821 248.045C122.491 248.72 122.029 249.244 121.435 249.619C120.844 249.994 120.154 250.182 119.366 250.182ZM119.366 248.977C119.965 248.977 120.457 248.824 120.844 248.517C121.23 248.21 121.516 247.807 121.702 247.307C121.887 246.807 121.98 246.265 121.98 245.682C121.98 245.098 121.887 244.555 121.702 244.051C121.516 243.547 121.23 243.14 120.844 242.83C120.457 242.519 119.965 242.364 119.366 242.364C118.768 242.364 118.276 242.519 117.889 242.83C117.503 243.14 117.217 243.547 117.031 244.051C116.846 244.555 116.753 245.098 116.753 245.682C116.753 246.265 116.846 246.807 117.031 247.307C117.217 247.807 117.503 248.21 117.889 248.517C118.276 248.824 118.768 248.977 119.366 248.977ZM126.618 246.818L126.595 245.159H126.868L130.686 241.273H132.345L128.277 245.386H128.163L126.618 246.818ZM125.368 250V238.364H126.709V250H125.368ZM130.913 250L127.504 245.682L128.459 244.75L132.618 250H130.913ZM134.071 250V241.273H135.412V250H134.071ZM134.753 239.818C134.491 239.818 134.266 239.729 134.077 239.551C133.891 239.373 133.798 239.159 133.798 238.909C133.798 238.659 133.891 238.445 134.077 238.267C134.266 238.089 134.491 238 134.753 238C135.014 238 135.238 238.089 135.423 238.267C135.613 238.445 135.707 238.659 135.707 238.909C135.707 239.159 135.613 239.373 135.423 239.551C135.238 239.729 135.014 239.818 134.753 239.818ZM139.209 244.75V250H137.868V241.273H139.163V242.636H139.277C139.482 242.193 139.792 241.837 140.209 241.568C140.625 241.295 141.163 241.159 141.822 241.159C142.413 241.159 142.93 241.28 143.374 241.523C143.817 241.761 144.161 242.125 144.408 242.614C144.654 243.098 144.777 243.712 144.777 244.455V250H143.436V244.545C143.436 243.86 143.258 243.326 142.902 242.943C142.546 242.557 142.057 242.364 141.436 242.364C141.008 242.364 140.625 242.456 140.288 242.642C139.955 242.828 139.692 243.098 139.499 243.455C139.305 243.811 139.209 244.242 139.209 244.75ZM150.75 253.455C150.102 253.455 149.545 253.371 149.08 253.205C148.614 253.042 148.225 252.826 147.915 252.557C147.608 252.292 147.364 252.008 147.182 251.705L148.25 250.955C148.371 251.114 148.525 251.295 148.71 251.5C148.896 251.708 149.15 251.888 149.472 252.04C149.797 252.195 150.223 252.273 150.75 252.273C151.455 252.273 152.036 252.102 152.494 251.761C152.953 251.42 153.182 250.886 153.182 250.159V248.386H153.068C152.97 248.545 152.83 248.742 152.648 248.977C152.47 249.208 152.212 249.415 151.875 249.597C151.542 249.775 151.091 249.864 150.523 249.864C149.818 249.864 149.186 249.697 148.625 249.364C148.068 249.03 147.627 248.545 147.301 247.909C146.979 247.273 146.818 246.5 146.818 245.591C146.818 244.697 146.975 243.919 147.29 243.256C147.604 242.589 148.042 242.074 148.602 241.71C149.163 241.343 149.811 241.159 150.545 241.159C151.114 241.159 151.564 241.254 151.898 241.443C152.235 241.629 152.492 241.841 152.67 242.08C152.852 242.314 152.992 242.508 153.091 242.659H153.227V241.273H154.523V250.25C154.523 251 154.352 251.61 154.011 252.08C153.674 252.553 153.22 252.9 152.648 253.119C152.08 253.343 151.447 253.455 150.75 253.455ZM150.705 248.659C151.242 248.659 151.697 248.536 152.068 248.29C152.439 248.044 152.722 247.689 152.915 247.227C153.108 246.765 153.205 246.212 153.205 245.568C153.205 244.939 153.11 244.384 152.92 243.903C152.731 243.422 152.451 243.045 152.08 242.773C151.708 242.5 151.25 242.364 150.705 242.364C150.136 242.364 149.663 242.508 149.284 242.795C148.909 243.083 148.627 243.47 148.438 243.955C148.252 244.439 148.159 244.977 148.159 245.568C148.159 246.174 148.254 246.71 148.443 247.176C148.636 247.638 148.92 248.002 149.295 248.267C149.674 248.528 150.144 248.659 150.705 248.659ZM165.364 241.273V242.409H160.659V241.273H165.364ZM162.068 250V240.068C162.068 239.568 162.186 239.152 162.42 238.818C162.655 238.485 162.96 238.235 163.335 238.068C163.71 237.902 164.106 237.818 164.523 237.818C164.852 237.818 165.121 237.845 165.33 237.898C165.538 237.951 165.693 238 165.795 238.045L165.409 239.205C165.341 239.182 165.246 239.153 165.125 239.119C165.008 239.085 164.852 239.068 164.659 239.068C164.216 239.068 163.896 239.18 163.699 239.403C163.506 239.627 163.409 239.955 163.409 240.386V250H162.068ZM170.429 250.182C169.641 250.182 168.95 249.994 168.355 249.619C167.764 249.244 167.302 248.72 166.969 248.045C166.639 247.371 166.474 246.583 166.474 245.682C166.474 244.773 166.639 243.979 166.969 243.301C167.302 242.623 167.764 242.097 168.355 241.722C168.95 241.347 169.641 241.159 170.429 241.159C171.217 241.159 171.906 241.347 172.497 241.722C173.092 242.097 173.554 242.623 173.884 243.301C174.217 243.979 174.384 244.773 174.384 245.682C174.384 246.583 174.217 247.371 173.884 248.045C173.554 248.72 173.092 249.244 172.497 249.619C171.906 249.994 171.217 250.182 170.429 250.182ZM170.429 248.977C171.027 248.977 171.52 248.824 171.906 248.517C172.293 248.21 172.579 247.807 172.764 247.307C172.95 246.807 173.043 246.265 173.043 245.682C173.043 245.098 172.95 244.555 172.764 244.051C172.579 243.547 172.293 243.14 171.906 242.83C171.52 242.519 171.027 242.364 170.429 242.364C169.83 242.364 169.338 242.519 168.952 242.83C168.565 243.14 168.279 243.547 168.094 244.051C167.908 244.555 167.815 245.098 167.815 245.682C167.815 246.265 167.908 246.807 168.094 247.307C168.279 247.807 168.565 248.21 168.952 248.517C169.338 248.824 169.83 248.977 170.429 248.977ZM176.43 250V241.273H177.726V242.591H177.817C177.976 242.159 178.264 241.809 178.68 241.54C179.097 241.271 179.567 241.136 180.089 241.136C180.188 241.136 180.311 241.138 180.459 241.142C180.607 241.146 180.718 241.152 180.794 241.159V242.523C180.749 242.511 180.644 242.494 180.482 242.472C180.322 242.445 180.154 242.432 179.976 242.432C179.552 242.432 179.173 242.521 178.839 242.699C178.51 242.873 178.249 243.116 178.055 243.426C177.866 243.733 177.771 244.083 177.771 244.477V250H176.43ZM187.861 250.091C187.58 250.091 187.34 249.991 187.139 249.79C186.938 249.589 186.838 249.348 186.838 249.068C186.838 248.788 186.938 248.547 187.139 248.347C187.34 248.146 187.58 248.045 187.861 248.045C188.141 248.045 188.382 248.146 188.582 248.347C188.783 248.547 188.884 248.788 188.884 249.068C188.884 249.254 188.836 249.424 188.741 249.58C188.651 249.735 188.527 249.86 188.372 249.955C188.221 250.045 188.05 250.091 187.861 250.091ZM192.267 250.091C191.987 250.091 191.746 249.991 191.545 249.79C191.345 249.589 191.244 249.348 191.244 249.068C191.244 248.788 191.345 248.547 191.545 248.347C191.746 248.146 191.987 248.045 192.267 248.045C192.547 248.045 192.788 248.146 192.989 248.347C193.189 248.547 193.29 248.788 193.29 249.068C193.29 249.254 193.242 249.424 193.148 249.58C193.057 249.735 192.934 249.86 192.778 249.955C192.627 250.045 192.456 250.091 192.267 250.091ZM196.673 250.091C196.393 250.091 196.152 249.991 195.952 249.79C195.751 249.589 195.651 249.348 195.651 249.068C195.651 248.788 195.751 248.547 195.952 248.347C196.152 248.146 196.393 248.045 196.673 248.045C196.954 248.045 197.194 248.146 197.395 248.347C197.596 248.547 197.696 248.788 197.696 249.068C197.696 249.254 197.649 249.424 197.554 249.58C197.463 249.735 197.34 249.86 197.185 249.955C197.033 250.045 196.863 250.091 196.673 250.091Z" fill="#ABADBA"/>
</g>
<g clip-path="url(#clip4_119_191)">
<rect width="280" height="40" transform="translate(60 144)" fill="white"/>
<rect x="60.5" y="144.5" width="279" height="39" rx="7.5" fill="white" stroke="#73768C"/>
<path d="M316.917 166.917L319.833 169.833" stroke="#151A30" stroke-width="1.5" stroke-linecap="round" stroke-linejoin="round"/>
<path d="M308.167 163.167C308.167 165.928 310.405 168.167 313.167 168.167C314.55 168.167 315.802 167.605 316.707 166.697C317.609 165.793 318.167 164.545 318.167 163.167C318.167 160.405 315.928 158.167 313.167 158.167C310.405 158.167 308.167 160.405 308.167 163.167Z" stroke="#151A30" stroke-width="1.5" stroke-linecap="round" stroke-linejoin="round"/>
<path d="M78.8182 158.364V170H77.4091V158.364H78.8182ZM82.6435 158.364V159.386C82.6435 159.697 82.5866 160.028 82.473 160.381C82.3632 160.729 82.2003 161.068 81.9844 161.398C81.7723 161.723 81.5147 162.008 81.2116 162.25L80.4844 161.659C80.723 161.318 80.9295 160.964 81.1037 160.597C81.2817 160.225 81.3707 159.83 81.3707 159.409V158.364H82.6435ZM84.071 170V161.273H85.3665V162.636H85.4801C85.6619 162.17 85.9555 161.809 86.3608 161.551C86.7661 161.29 87.2528 161.159 87.821 161.159C88.3968 161.159 88.8759 161.29 89.2585 161.551C89.6449 161.809 89.946 162.17 90.1619 162.636H90.2528C90.4763 162.186 90.8116 161.828 91.2585 161.562C91.7055 161.294 92.2415 161.159 92.8665 161.159C93.6468 161.159 94.285 161.403 94.7812 161.892C95.2775 162.377 95.5256 163.133 95.5256 164.159V170H94.1847V164.159C94.1847 163.515 94.0085 163.055 93.6562 162.778C93.304 162.502 92.8892 162.364 92.4119 162.364C91.7983 162.364 91.3229 162.549 90.9858 162.92C90.6487 163.288 90.4801 163.754 90.4801 164.318V170H89.1165V164.023C89.1165 163.527 88.9555 163.127 88.6335 162.824C88.3116 162.517 87.8968 162.364 87.3892 162.364C87.0407 162.364 86.715 162.456 86.4119 162.642C86.1127 162.828 85.8703 163.085 85.6847 163.415C85.5028 163.741 85.4119 164.117 85.4119 164.545V170H84.071ZM103.818 158.364V170H102.477V158.364H103.818ZM109.82 170.182C109.032 170.182 108.34 169.994 107.746 169.619C107.155 169.244 106.693 168.72 106.359 168.045C106.03 167.371 105.865 166.583 105.865 165.682C105.865 164.773 106.03 163.979 106.359 163.301C106.693 162.623 107.155 162.097 107.746 161.722C108.34 161.347 109.032 161.159 109.82 161.159C110.607 161.159 111.297 161.347 111.888 161.722C112.482 162.097 112.945 162.623 113.274 163.301C113.607 163.979 113.774 164.773 113.774 165.682C113.774 166.583 113.607 167.371 113.274 168.045C112.945 168.72 112.482 169.244 111.888 169.619C111.297 169.994 110.607 170.182 109.82 170.182ZM109.82 168.977C110.418 168.977 110.911 168.824 111.297 168.517C111.683 168.21 111.969 167.807 112.155 167.307C112.34 166.807 112.433 166.265 112.433 165.682C112.433 165.098 112.34 164.555 112.155 164.051C111.969 163.547 111.683 163.14 111.297 162.83C110.911 162.519 110.418 162.364 109.82 162.364C109.221 162.364 108.729 162.519 108.342 162.83C107.956 163.14 107.67 163.547 107.484 164.051C107.299 164.555 107.206 165.098 107.206 165.682C107.206 166.265 107.299 166.807 107.484 167.307C107.67 167.807 107.956 168.21 108.342 168.517C108.729 168.824 109.221 168.977 109.82 168.977ZM119.366 170.182C118.579 170.182 117.887 169.994 117.293 169.619C116.702 169.244 116.24 168.72 115.906 168.045C115.577 167.371 115.412 166.583 115.412 165.682C115.412 164.773 115.577 163.979 115.906 163.301C116.24 162.623 116.702 162.097 117.293 161.722C117.887 161.347 118.579 161.159 119.366 161.159C120.154 161.159 120.844 161.347 121.435 161.722C122.029 162.097 122.491 162.623 122.821 163.301C123.154 163.979 123.321 164.773 123.321 165.682C123.321 166.583 123.154 167.371 122.821 168.045C122.491 168.72 122.029 169.244 121.435 169.619C120.844 169.994 120.154 170.182 119.366 170.182ZM119.366 168.977C119.965 168.977 120.457 168.824 120.844 168.517C121.23 168.21 121.516 167.807 121.702 167.307C121.887 166.807 121.98 166.265 121.98 165.682C121.98 165.098 121.887 164.555 121.702 164.051C121.516 163.547 121.23 163.14 120.844 162.83C120.457 162.519 119.965 162.364 119.366 162.364C118.768 162.364 118.276 162.519 117.889 162.83C117.503 163.14 117.217 163.547 117.031 164.051C116.846 164.555 116.753 165.098 116.753 165.682C116.753 166.265 116.846 166.807 117.031 167.307C117.217 167.807 117.503 168.21 117.889 168.517C118.276 168.824 118.768 168.977 119.366 168.977ZM126.618 166.818L126.595 165.159H126.868L130.686 161.273H132.345L128.277 165.386H128.163L126.618 166.818ZM125.368 170V158.364H126.709V170H125.368ZM130.913 170L127.504 165.682L128.459 164.75L132.618 170H130.913ZM134.071 170V161.273H135.412V170H134.071ZM134.753 159.818C134.491 159.818 134.266 159.729 134.077 159.551C133.891 159.373 133.798 159.159 133.798 158.909C133.798 158.659 133.891 158.445 134.077 158.267C134.266 158.089 134.491 158 134.753 158C135.014 158 135.238 158.089 135.423 158.267C135.613 158.445 135.707 158.659 135.707 158.909C135.707 159.159 135.613 159.373 135.423 159.551C135.238 159.729 135.014 159.818 134.753 159.818ZM139.209 164.75V170H137.868V161.273H139.163V162.636H139.277C139.482 162.193 139.792 161.837 140.209 161.568C140.625 161.295 141.163 161.159 141.822 161.159C142.413 161.159 142.93 161.28 143.374 161.523C143.817 161.761 144.161 162.125 144.408 162.614C144.654 163.098 144.777 163.712 144.777 164.455V170H143.436V164.545C143.436 163.86 143.258 163.326 142.902 162.943C142.546 162.557 142.057 162.364 141.436 162.364C141.008 162.364 140.625 162.456 140.288 162.642C139.955 162.828 139.692 163.098 139.499 163.455C139.305 163.811 139.209 164.242 139.209 164.75ZM150.75 173.455C150.102 173.455 149.545 173.371 149.08 173.205C148.614 173.042 148.225 172.826 147.915 172.557C147.608 172.292 147.364 172.008 147.182 171.705L148.25 170.955C148.371 171.114 148.525 171.295 148.71 171.5C148.896 171.708 149.15 171.888 149.472 172.04C149.797 172.195 150.223 172.273 150.75 172.273C151.455 172.273 152.036 172.102 152.494 171.761C152.953 171.42 153.182 170.886 153.182 170.159V168.386H153.068C152.97 168.545 152.83 168.742 152.648 168.977C152.47 169.208 152.212 169.415 151.875 169.597C151.542 169.775 151.091 169.864 150.523 169.864C149.818 169.864 149.186 169.697 148.625 169.364C148.068 169.03 147.627 168.545 147.301 167.909C146.979 167.273 146.818 166.5 146.818 165.591C146.818 164.697 146.975 163.919 147.29 163.256C147.604 162.589 148.042 162.074 148.602 161.71C149.163 161.343 149.811 161.159 150.545 161.159C151.114 161.159 151.564 161.254 151.898 161.443C152.235 161.629 152.492 161.841 152.67 162.08C152.852 162.314 152.992 162.508 153.091 162.659H153.227V161.273H154.523V170.25C154.523 171 154.352 171.61 154.011 172.08C153.674 172.553 153.22 172.9 152.648 173.119C152.08 173.343 151.447 173.455 150.75 173.455ZM150.705 168.659C151.242 168.659 151.697 168.536 152.068 168.29C152.439 168.044 152.722 167.689 152.915 167.227C153.108 166.765 153.205 166.212 153.205 165.568C153.205 164.939 153.11 164.384 152.92 163.903C152.731 163.422 152.451 163.045 152.08 162.773C151.708 162.5 151.25 162.364 150.705 162.364C150.136 162.364 149.663 162.508 149.284 162.795C148.909 163.083 148.627 163.47 148.438 163.955C148.252 164.439 148.159 164.977 148.159 165.568C148.159 166.174 148.254 166.71 148.443 167.176C148.636 167.638 148.92 168.002 149.295 168.267C149.674 168.528 150.144 168.659 150.705 168.659ZM165.364 161.273V162.409H160.659V161.273H165.364ZM162.068 170V160.068C162.068 159.568 162.186 159.152 162.42 158.818C162.655 158.485 162.96 158.235 163.335 158.068C163.71 157.902 164.106 157.818 164.523 157.818C164.852 157.818 165.121 157.845 165.33 157.898C165.538 157.951 165.693 158 165.795 158.045L165.409 159.205C165.341 159.182 165.246 159.153 165.125 159.119C165.008 159.085 164.852 159.068 164.659 159.068C164.216 159.068 163.896 159.18 163.699 159.403C163.506 159.627 163.409 159.955 163.409 160.386V170H162.068ZM170.429 170.182C169.641 170.182 168.95 169.994 168.355 169.619C167.764 169.244 167.302 168.72 166.969 168.045C166.639 167.371 166.474 166.583 166.474 165.682C166.474 164.773 166.639 163.979 166.969 163.301C167.302 162.623 167.764 162.097 168.355 161.722C168.95 161.347 169.641 161.159 170.429 161.159C171.217 161.159 171.906 161.347 172.497 161.722C173.092 162.097 173.554 162.623 173.884 163.301C174.217 163.979 174.384 164.773 174.384 165.682C174.384 166.583 174.217 167.371 173.884 168.045C173.554 168.72 173.092 169.244 172.497 169.619C171.906 169.994 171.217 170.182 170.429 170.182ZM170.429 168.977C171.027 168.977 171.52 168.824 171.906 168.517C172.293 168.21 172.579 167.807 172.764 167.307C172.95 166.807 173.043 166.265 173.043 165.682C173.043 165.098 172.95 164.555 172.764 164.051C172.579 163.547 172.293 163.14 171.906 162.83C171.52 162.519 171.027 162.364 170.429 162.364C169.83 162.364 169.338 162.519 168.952 162.83C168.565 163.14 168.279 163.547 168.094 164.051C167.908 164.555 167.815 165.098 167.815 165.682C167.815 166.265 167.908 166.807 168.094 167.307C168.279 167.807 168.565 168.21 168.952 168.517C169.338 168.824 169.83 168.977 170.429 168.977ZM176.43 170V161.273H177.726V162.591H177.817C177.976 162.159 178.264 161.809 178.68 161.54C179.097 161.271 179.567 161.136 180.089 161.136C180.188 161.136 180.311 161.138 180.459 161.142C180.607 161.146 180.718 161.152 180.794 161.159V162.523C180.749 162.511 180.644 162.494 180.482 162.472C180.322 162.445 180.154 162.432 179.976 162.432C179.552 162.432 179.173 162.521 178.839 162.699C178.51 162.873 178.249 163.116 178.055 163.426C177.866 163.733 177.771 164.083 177.771 164.477V170H176.43ZM187.861 170.091C187.58 170.091 187.34 169.991 187.139 169.79C186.938 169.589 186.838 169.348 186.838 169.068C186.838 168.788 186.938 168.547 187.139 168.347C187.34 168.146 187.58 168.045 187.861 168.045C188.141 168.045 188.382 168.146 188.582 168.347C188.783 168.547 188.884 168.788 188.884 169.068C188.884 169.254 188.836 169.424 188.741 169.58C188.651 169.735 188.527 169.86 188.372 169.955C188.221 170.045 188.05 170.091 187.861 170.091ZM192.267 170.091C191.987 170.091 191.746 169.991 191.545 169.79C191.345 169.589 191.244 169.348 191.244 169.068C191.244 168.788 191.345 168.547 191.545 168.347C191.746 168.146 191.987 168.045 192.267 168.045C192.547 168.045 192.788 168.146 192.989 168.347C193.189 168.547 193.29 168.788 193.29 169.068C193.29 169.254 193.242 169.424 193.148 169.58C193.057 169.735 192.934 169.86 192.778 169.955C192.627 170.045 192.456 170.091 192.267 170.091ZM196.673 170.091C196.393 170.091 196.152 169.991 195.952 169.79C195.751 169.589 195.651 169.348 195.651 169.068C195.651 168.788 195.751 168.547 195.952 168.347C196.152 168.146 196.393 168.045 196.673 168.045C196.954 168.045 197.194 168.146 197.395 168.347C197.596 168.547 197.696 168.788 197.696 169.068C197.696 169.254 197.649 169.424 197.554 169.58C197.463 169.735 197.34 169.86 197.185 169.955C197.033 170.045 196.863 170.091 196.673 170.091Z" fill="#73768C"/>
</g>
<path d="M59.9755 55.1818C59.8145 53.5625 59.0996 52.2746 57.8306 51.3182C56.5617 50.3617 54.966 49.8835 53.0437 49.8835C51.6895 49.8835 50.4963 50.1155 49.4641 50.5795C48.4414 51.0436 47.6365 51.6875 47.0494 52.5114C46.4717 53.3258 46.1829 54.2538 46.1829 55.2955C46.1829 56.0625 46.3486 56.7348 46.68 57.3125C47.0115 57.8902 47.4566 58.3873 48.0153 58.804C48.5835 59.2112 49.2085 59.5616 49.8903 59.8551C50.5816 60.1487 51.2776 60.3949 51.9783 60.5938L55.0465 61.4744C55.9746 61.7301 56.9026 62.0568 57.8306 62.4545C58.7586 62.8523 59.6062 63.3542 60.3732 63.9602C61.1497 64.5568 61.77 65.2907 62.234 66.1619C62.7075 67.0237 62.9442 68.0606 62.9442 69.2727C62.9442 70.8258 62.5418 72.2225 61.7369 73.4631C60.9319 74.7036 59.7766 75.6884 58.271 76.4176C56.7653 77.1373 54.9613 77.4972 52.859 77.4972C50.8799 77.4972 49.1611 77.1705 47.7028 76.517C46.2444 75.8542 45.0986 74.9403 44.2653 73.7756C43.4319 72.6108 42.9632 71.2614 42.859 69.7273H45.5863C45.681 70.8731 46.0598 71.8437 46.7227 72.6392C47.3855 73.4347 48.2473 74.0407 49.3079 74.4574C50.3685 74.8646 51.5522 75.0682 52.859 75.0682C54.3079 75.0682 55.5958 74.8267 56.7227 74.3438C57.859 73.8513 58.7492 73.1695 59.3931 72.2983C60.0465 71.4176 60.3732 70.3949 60.3732 69.2301C60.3732 68.2453 60.1175 67.4214 59.6062 66.7585C59.0948 66.0862 58.3799 65.5227 57.4613 65.0682C56.5522 64.6136 55.4963 64.2112 54.2937 63.8608L50.8136 62.8381C48.5314 62.1562 46.7605 61.214 45.5011 60.0114C44.2416 58.8087 43.6119 57.2746 43.6119 55.4091C43.6119 53.8466 44.0285 52.4735 44.8619 51.2898C45.7047 50.0966 46.841 49.1686 48.271 48.5057C49.7103 47.8333 51.3249 47.4972 53.1147 47.4972C54.9234 47.4972 56.5238 47.8286 57.9158 48.4915C59.3079 49.1544 60.4111 50.0682 61.2255 51.233C62.0494 52.3883 62.4897 53.7045 62.5465 55.1818H59.9755ZM77.6317 77.4545C75.5958 77.4545 73.8344 76.9811 72.3477 76.0341C70.8609 75.0777 69.7103 73.7566 68.896 72.071C68.091 70.3759 67.6886 68.4252 67.6886 66.2188C67.6886 64.0218 68.091 62.071 68.896 60.3665C69.7103 58.6525 70.8325 57.3125 72.2624 56.3466C73.7018 55.3712 75.3638 54.8835 77.2482 54.8835C78.4319 54.8835 79.573 55.1013 80.6715 55.5369C81.77 55.9631 82.7549 56.6212 83.6261 57.5114C84.5067 58.392 85.2028 59.5047 85.7141 60.8494C86.2255 62.1847 86.4812 63.7661 86.4812 65.5938V66.8438H69.4357V64.6136H83.896C83.896 63.2121 83.6119 61.9527 83.0437 60.8352C82.485 59.7083 81.7037 58.8182 80.6999 58.1648C79.7056 57.5114 78.555 57.1847 77.2482 57.1847C75.8656 57.1847 74.6488 57.554 73.5977 58.2926C72.5465 59.0312 71.7227 60.0066 71.1261 61.2188C70.5389 62.4309 70.2406 63.7566 70.2312 65.196V66.5312C70.2312 68.2642 70.5295 69.7794 71.1261 71.0767C71.7321 72.3646 72.5891 73.3636 73.6971 74.0739C74.805 74.7841 76.1166 75.1392 77.6317 75.1392C78.6639 75.1392 79.5683 74.9782 80.3448 74.6562C81.1308 74.3343 81.7889 73.9034 82.3192 73.3636C82.859 72.8144 83.2662 72.2131 83.5408 71.5597L85.9414 72.3409C85.61 73.2595 85.0655 74.107 84.3079 74.8835C83.5598 75.66 82.6223 76.285 81.4954 76.7585C80.378 77.2225 79.0901 77.4545 77.6317 77.4545ZM98.1467 77.4972C96.8304 77.4972 95.6277 77.2415 94.5387 76.7301C93.4497 76.2093 92.5832 75.4612 91.9393 74.4858C91.2953 73.5009 90.9734 72.3078 90.9734 70.9062C90.9734 69.8267 91.177 68.9176 91.5842 68.179C91.9914 67.4403 92.569 66.8343 93.3171 66.3608C94.0652 65.8873 94.9506 65.5133 95.9734 65.2386C96.9961 64.964 98.123 64.7509 99.354 64.5994C100.576 64.4479 101.608 64.3153 102.451 64.2017C103.303 64.0881 103.952 63.9081 104.397 63.6619C104.842 63.4157 105.064 63.018 105.064 62.4688V61.9574C105.064 60.4706 104.619 59.3011 103.729 58.4489C102.848 57.5871 101.579 57.1562 99.9222 57.1562C98.3503 57.1562 97.0671 57.5019 96.0728 58.1932C95.0879 58.8845 94.3967 59.6989 93.9989 60.6364L91.5984 59.7699C92.0908 58.5767 92.7726 57.625 93.6438 56.9148C94.515 56.1951 95.4904 55.679 96.57 55.3665C97.6495 55.0445 98.7433 54.8835 99.8512 54.8835C100.685 54.8835 101.551 54.9924 102.451 55.2102C103.36 55.428 104.203 55.8068 104.979 56.3466C105.756 56.8769 106.385 57.6203 106.868 58.5767C107.351 59.5237 107.593 60.7263 107.593 62.1847V77H105.064V73.5483H104.908C104.605 74.1922 104.155 74.8172 103.559 75.4233C102.962 76.0294 102.214 76.5265 101.314 76.9148C100.415 77.303 99.3588 77.4972 98.1467 77.4972ZM98.4876 75.1818C99.8323 75.1818 100.997 74.8835 101.982 74.2869C102.967 73.6903 103.724 72.8996 104.255 71.9148C104.794 70.9205 105.064 69.8267 105.064 68.6335V65.4801C104.875 65.66 104.558 65.821 104.113 65.9631C103.677 66.1051 103.17 66.233 102.593 66.3466C102.025 66.4508 101.456 66.5407 100.888 66.6165C100.32 66.6922 99.8086 66.7585 99.354 66.8153C98.123 66.9669 97.0719 67.2036 96.2006 67.5256C95.3294 67.8475 94.6618 68.2926 94.1978 68.8608C93.7338 69.4195 93.5018 70.1392 93.5018 71.0199C93.5018 72.3456 93.9753 73.3731 94.9222 74.1023C95.8692 74.822 97.0576 75.1818 98.4876 75.1818ZM114.319 77V55.1818H116.776V58.5341H116.961C117.396 57.4356 118.154 56.5502 119.233 55.8778C120.322 55.196 121.553 54.8551 122.926 54.8551C123.135 54.8551 123.367 54.8598 123.623 54.8693C123.878 54.8788 124.091 54.8883 124.262 54.8977V57.4688C124.148 57.4498 123.949 57.4214 123.665 57.3835C123.381 57.3456 123.073 57.3267 122.742 57.3267C121.605 57.3267 120.592 57.5682 119.702 58.0511C118.821 58.5246 118.125 59.1828 117.614 60.0256C117.103 60.8684 116.847 61.8295 116.847 62.9091V77H114.319ZM136.435 77.4545C134.484 77.4545 132.784 76.9669 131.336 75.9915C129.896 75.0161 128.779 73.6809 127.983 71.9858C127.188 70.2907 126.79 68.3589 126.79 66.1903C126.79 64.0028 127.193 62.0568 127.998 60.3523C128.812 58.6477 129.939 57.3125 131.378 56.3466C132.818 55.3712 134.489 54.8835 136.392 54.8835C137.851 54.8835 139.172 55.1676 140.355 55.7358C141.539 56.2945 142.515 57.0852 143.282 58.108C144.058 59.1212 144.546 60.3049 144.745 61.6591H142.188C141.923 60.428 141.283 59.3769 140.27 58.5057C139.266 57.625 137.988 57.1847 136.435 57.1847C135.043 57.1847 133.812 57.5634 132.742 58.321C131.672 59.0691 130.834 60.1155 130.228 61.4602C129.631 62.7955 129.333 64.3437 129.333 66.1051C129.333 67.8759 129.626 69.4432 130.213 70.8068C130.801 72.161 131.624 73.2216 132.685 73.9886C133.755 74.7557 135.005 75.1392 136.435 75.1392C137.401 75.1392 138.282 74.9593 139.077 74.5994C139.882 74.2301 140.554 73.7093 141.094 73.0369C141.643 72.3646 142.013 71.5644 142.202 70.6364H144.759C144.569 71.9527 144.101 73.1269 143.353 74.1591C142.614 75.1818 141.653 75.9867 140.469 76.5739C139.295 77.161 137.95 77.4545 136.435 77.4545ZM152.706 63.3636V77H150.178V47.9091H152.706V58.6051H152.934C153.445 57.4782 154.236 56.5786 155.306 55.9062C156.385 55.2339 157.749 54.8977 159.397 54.8977C160.874 54.8977 162.171 55.2008 163.289 55.8068C164.406 56.4129 165.277 57.3078 165.902 58.4915C166.527 59.6752 166.84 61.1335 166.84 62.8665V77H164.297V63.0227C164.297 61.2235 163.795 59.8078 162.792 58.7756C161.797 57.7339 160.453 57.2131 158.757 57.2131C157.593 57.2131 156.556 57.4593 155.647 57.9517C154.738 58.4441 154.018 59.1544 153.488 60.0824C152.967 61.0009 152.706 62.0947 152.706 63.3636ZM193.725 55.1818V57.3835H183.001V55.1818H193.725ZM186.353 77V51.9858C186.353 50.8116 186.623 49.822 187.163 49.017C187.712 48.2121 188.427 47.6013 189.308 47.1847C190.189 46.768 191.121 46.5597 192.106 46.5597C192.769 46.5597 193.318 46.6165 193.754 46.7301C194.199 46.8343 194.549 46.9384 194.805 47.0426L194.066 49.2585C193.877 49.2017 193.645 49.1354 193.37 49.0597C193.096 48.9839 192.75 48.946 192.333 48.946C191.235 48.946 190.387 49.2538 189.791 49.8693C189.194 50.4848 188.896 51.3655 188.896 52.5114L188.882 77H186.353ZM198.8 77V55.1818H201.343V77H198.8ZM200.093 51.4318C199.572 51.4318 199.127 51.2566 198.757 50.9062C198.388 50.5464 198.203 50.1155 198.203 49.6136C198.203 49.1117 198.388 48.6856 198.757 48.3352C199.127 47.9754 199.572 47.7955 200.093 47.7955C200.614 47.7955 201.059 47.9754 201.428 48.3352C201.797 48.6856 201.982 49.1117 201.982 49.6136C201.982 50.1155 201.797 50.5464 201.428 50.9062C201.059 51.2566 200.614 51.4318 200.093 51.4318ZM216.85 77.4545C214.815 77.4545 213.053 76.9811 211.566 76.0341C210.08 75.0777 208.929 73.7566 208.115 72.071C207.31 70.3759 206.907 68.4252 206.907 66.2188C206.907 64.0218 207.31 62.071 208.115 60.3665C208.929 58.6525 210.051 57.3125 211.481 56.3466C212.921 55.3712 214.583 54.8835 216.467 54.8835C217.651 54.8835 218.792 55.1013 219.89 55.5369C220.989 55.9631 221.974 56.6212 222.845 57.5114C223.725 58.392 224.422 59.5047 224.933 60.8494C225.444 62.1847 225.7 63.7661 225.7 65.5938V66.8438H208.654V64.6136H223.115C223.115 63.2121 222.831 61.9527 222.262 60.8352C221.704 59.7083 220.922 58.8182 219.919 58.1648C218.924 57.5114 217.774 57.1847 216.467 57.1847C215.084 57.1847 213.868 57.554 212.816 58.2926C211.765 59.0312 210.941 60.0066 210.345 61.2188C209.758 62.4309 209.459 63.7566 209.45 65.196V66.5312C209.45 68.2642 209.748 69.7794 210.345 71.0767C210.951 72.3646 211.808 73.3636 212.916 74.0739C214.024 74.7841 215.335 75.1392 216.85 75.1392C217.883 75.1392 218.787 74.9782 219.564 74.6562C220.35 74.3343 221.008 73.9034 221.538 73.3636C222.078 72.8144 222.485 72.2131 222.76 71.5597L225.16 72.3409C224.829 73.2595 224.284 74.107 223.527 74.8835C222.779 75.66 221.841 76.285 220.714 76.7585C219.597 77.2225 218.309 77.4545 216.85 77.4545ZM233.8 47.9091V77H231.272V47.9091H233.8ZM248.346 77.4545C246.556 77.4545 244.989 76.9811 243.644 76.0341C242.299 75.0871 241.248 73.7661 240.49 72.071C239.742 70.3759 239.368 68.4015 239.368 66.1477C239.368 63.9034 239.742 61.9384 240.49 60.2528C241.248 58.5578 242.304 57.2415 243.658 56.304C245.012 55.357 246.589 54.8835 248.388 54.8835C249.714 54.8835 250.817 55.1203 251.698 55.5938C252.578 56.0578 253.284 56.6354 253.814 57.3267C254.345 58.018 254.757 58.6903 255.05 59.3438H255.277V47.9091H257.82V77H255.348V72.9517H255.05C254.757 73.6146 254.34 74.2964 253.8 74.9972C253.26 75.6884 252.545 76.2708 251.655 76.7443C250.775 77.2178 249.671 77.4545 248.346 77.4545ZM248.644 75.1392C250.055 75.1392 251.257 74.7557 252.252 73.9886C253.246 73.2121 254.004 72.1468 254.525 70.7926C255.055 69.429 255.32 67.8665 255.32 66.1051C255.32 64.3627 255.06 62.8239 254.539 61.4886C254.018 60.1439 253.26 59.0928 252.266 58.3352C251.272 57.5682 250.064 57.1847 248.644 57.1847C247.185 57.1847 245.954 57.5824 244.951 58.3778C243.956 59.1638 243.199 60.2292 242.678 61.5739C242.167 62.9186 241.911 64.429 241.911 66.1051C241.911 67.8002 242.171 69.3295 242.692 70.6932C243.213 72.0568 243.971 73.1411 244.965 73.946C245.969 74.7415 247.195 75.1392 248.644 75.1392Z" fill="#C4C8DC"/>
<defs>
<clipPath id="clip0_119_191">
<rect width="280" height="40" fill="white" transform="translate(60 384)"/>
</clipPath>
<clipPath id="clip1_119_191">
<rect width="280" height="40" fill="white" transform="translate(60 464)"/>
</clipPath>
<clipPath id="clip2_119_191">
<rect width="280" height="40" fill="white" transform="translate(60 304)"/>
</clipPath>
<clipPath id="clip3_119_191">
<rect width="280" height="40" fill="white" transform="translate(60 224)"/>
</clipPath>
<clipPath id="clip4_119_191">
<rect width="280" height="40" fill="white" transform="translate(60 144)"/>
</clipPath>
</defs>
</svg>
