<svg width="400" height="562" viewBox="0 0 400 562" fill="none" xmlns="http://www.w3.org/2000/svg">
<rect width="400" height="562" rx="16" fill="white"/>
<rect x="40.5" y="124.5" width="319" height="397" rx="4.5" stroke="#9747FF" stroke-dasharray="10 5"/>
<g clip-path="url(#clip0_150_4307)">
<rect x="60.5" y="164.5" width="279" height="39" rx="7.5" fill="white" stroke="#73768C"/>
<path d="M309 181.5L314 186.5L319 181.5" stroke="#151A30" stroke-width="1.5" stroke-linecap="round" stroke-linejoin="round"/>
<path d="M78.8182 178.364V190H77.4091V178.364H78.8182ZM85.2571 181.273V182.409H80.7344V181.273H85.2571ZM82.0526 179.182H83.3935V187.5C83.3935 187.879 83.4484 188.163 83.5582 188.352C83.6719 188.538 83.8158 188.663 83.9901 188.727C84.1681 188.788 84.3556 188.818 84.5526 188.818C84.7003 188.818 84.8215 188.811 84.9162 188.795C85.0109 188.777 85.0866 188.761 85.1435 188.75L85.4162 189.955C85.3253 189.989 85.1984 190.023 85.0355 190.057C84.8726 190.095 84.6662 190.114 84.4162 190.114C84.0374 190.114 83.6662 190.032 83.3026 189.869C82.9427 189.706 82.6435 189.458 82.4048 189.125C82.17 188.792 82.0526 188.371 82.0526 187.864V179.182ZM90.8395 190.182C89.9986 190.182 89.2732 189.996 88.6634 189.625C88.0573 189.25 87.5895 188.727 87.2599 188.057C86.9342 187.383 86.7713 186.598 86.7713 185.705C86.7713 184.811 86.9342 184.023 87.2599 183.341C87.5895 182.655 88.0478 182.121 88.6349 181.739C89.2259 181.352 89.9152 181.159 90.7031 181.159C91.1577 181.159 91.6065 181.235 92.0497 181.386C92.4929 181.538 92.8963 181.784 93.2599 182.125C93.6236 182.462 93.9134 182.909 94.1293 183.466C94.3452 184.023 94.4531 184.708 94.4531 185.523V186.091H87.7259V184.932H93.0895C93.0895 184.439 92.991 184 92.794 183.614C92.6009 183.227 92.3243 182.922 91.9645 182.699C91.6084 182.475 91.188 182.364 90.7031 182.364C90.169 182.364 89.7069 182.496 89.3168 182.761C88.9304 183.023 88.633 183.364 88.4247 183.784C88.2164 184.205 88.1122 184.655 88.1122 185.136V185.909C88.1122 186.568 88.2259 187.127 88.4531 187.585C88.6842 188.04 89.0043 188.386 89.4134 188.625C89.8224 188.86 90.2978 188.977 90.8395 188.977C91.1918 188.977 91.5099 188.928 91.794 188.83C92.0819 188.727 92.33 188.576 92.5384 188.375C92.7467 188.17 92.9077 187.917 93.0213 187.614L94.3168 187.977C94.1804 188.417 93.9512 188.803 93.6293 189.136C93.3073 189.466 92.9096 189.723 92.4361 189.909C91.9626 190.091 91.4304 190.182 90.8395 190.182ZM96.4929 190V181.273H97.7884V182.636H97.902C98.0838 182.17 98.3774 181.809 98.7827 181.551C99.188 181.29 99.6747 181.159 100.243 181.159C100.819 181.159 101.298 181.29 101.68 181.551C102.067 181.809 102.368 182.17 102.584 182.636H102.675C102.898 182.186 103.233 181.828 103.68 181.562C104.127 181.294 104.663 181.159 105.288 181.159C106.069 181.159 106.707 181.403 107.203 181.892C107.699 182.377 107.947 183.133 107.947 184.159V190H106.607V184.159C106.607 183.515 106.43 183.055 106.078 182.778C105.726 182.502 105.311 182.364 104.834 182.364C104.22 182.364 103.745 182.549 103.408 182.92C103.071 183.288 102.902 183.754 102.902 184.318V190H101.538V184.023C101.538 183.527 101.377 183.127 101.055 182.824C100.733 182.517 100.319 182.364 99.8111 182.364C99.4626 182.364 99.1368 182.456 98.8338 182.642C98.5346 182.828 98.2921 183.085 98.1065 183.415C97.9247 183.741 97.8338 184.117 97.8338 184.545V190H96.4929ZM118.967 178.364V190H117.558V179.841H117.49L114.649 181.727V180.295L117.558 178.364H118.967Z" fill="#151A30"/>
<path d="M65.8295 149.455C65.7784 149.023 65.571 148.688 65.2074 148.449C64.8438 148.21 64.3977 148.091 63.8693 148.091C63.483 148.091 63.1449 148.153 62.8551 148.278C62.5682 148.403 62.3438 148.575 62.1818 148.794C62.0227 149.013 61.9432 149.261 61.9432 149.54C61.9432 149.773 61.9986 149.973 62.1094 150.141C62.223 150.305 62.3679 150.443 62.544 150.554C62.7202 150.662 62.9048 150.751 63.098 150.822C63.2912 150.891 63.4688 150.946 63.6307 150.989L64.517 151.227C64.7443 151.287 64.9972 151.369 65.2756 151.474C65.5568 151.58 65.8253 151.723 66.081 151.905C66.3395 152.084 66.5526 152.314 66.7202 152.595C66.8878 152.876 66.9716 153.222 66.9716 153.631C66.9716 154.102 66.848 154.528 66.6009 154.909C66.3565 155.29 65.9986 155.592 65.527 155.817C65.0582 156.041 64.4886 156.153 63.8182 156.153C63.1932 156.153 62.652 156.053 62.1946 155.851C61.7401 155.649 61.3821 155.368 61.1207 155.007C60.8622 154.646 60.7159 154.227 60.6818 153.75H61.7727C61.8011 154.08 61.9119 154.352 62.1051 154.568C62.3011 154.781 62.5483 154.94 62.8466 155.045C63.1477 155.148 63.4716 155.199 63.8182 155.199C64.2216 155.199 64.5838 155.134 64.9048 155.003C65.2259 154.869 65.4801 154.685 65.6676 154.449C65.8551 154.21 65.9489 153.932 65.9489 153.614C65.9489 153.324 65.8679 153.088 65.706 152.906C65.544 152.724 65.331 152.577 65.0668 152.463C64.8026 152.349 64.517 152.25 64.2102 152.165L63.1364 151.858C62.4545 151.662 61.9148 151.382 61.517 151.018C61.1193 150.655 60.9205 150.179 60.9205 149.591C60.9205 149.102 61.0526 148.676 61.3168 148.312C61.5838 147.946 61.9418 147.662 62.3906 147.46C62.8423 147.256 63.3466 147.153 63.9034 147.153C64.4659 147.153 64.9659 147.254 65.4034 147.456C65.8409 147.655 66.1875 147.928 66.4432 148.274C66.7017 148.621 66.8381 149.014 66.8523 149.455H65.8295ZM71.3171 156.136C70.6864 156.136 70.1424 155.997 69.685 155.719C69.2305 155.438 68.8796 155.045 68.6325 154.543C68.3881 154.037 68.266 153.449 68.266 152.778C68.266 152.108 68.3881 151.517 68.6325 151.006C68.8796 150.491 69.2234 150.091 69.6637 149.804C70.1069 149.514 70.6239 149.369 71.2148 149.369C71.5558 149.369 71.8924 149.426 72.2248 149.54C72.5572 149.653 72.8597 149.838 73.1325 150.094C73.4052 150.347 73.6225 150.682 73.7844 151.099C73.9464 151.517 74.0273 152.031 74.0273 152.642V153.068H68.9819V152.199H73.0046C73.0046 151.83 72.9308 151.5 72.783 151.21C72.6381 150.92 72.4308 150.692 72.1609 150.524C71.8938 150.357 71.5785 150.273 71.2148 150.273C70.8143 150.273 70.4677 150.372 70.1751 150.571C69.8853 150.767 69.6623 151.023 69.506 151.338C69.3498 151.653 69.2717 151.991 69.2717 152.352V152.932C69.2717 153.426 69.3569 153.845 69.5273 154.189C69.7006 154.53 69.9407 154.79 70.2475 154.969C70.5543 155.145 70.9109 155.233 71.3171 155.233C71.5813 155.233 71.82 155.196 72.033 155.122C72.2489 155.045 72.435 154.932 72.5913 154.781C72.7475 154.628 72.8683 154.437 72.9535 154.21L73.9251 154.483C73.8228 154.812 73.6509 155.102 73.4094 155.352C73.168 155.599 72.8697 155.793 72.5146 155.932C72.1594 156.068 71.7603 156.136 71.3171 156.136ZM76.5629 147.273V156H75.5572V147.273H76.5629ZM81.1491 156.136C80.5185 156.136 79.9744 155.997 79.517 155.719C79.0625 155.438 78.7116 155.045 78.4645 154.543C78.2202 154.037 78.098 153.449 78.098 152.778C78.098 152.108 78.2202 151.517 78.4645 151.006C78.7116 150.491 79.0554 150.091 79.4957 149.804C79.9389 149.514 80.456 149.369 81.0469 149.369C81.3878 149.369 81.7244 149.426 82.0568 149.54C82.3892 149.653 82.6918 149.838 82.9645 150.094C83.2372 150.347 83.4545 150.682 83.6165 151.099C83.7784 151.517 83.8594 152.031 83.8594 152.642V153.068H78.8139V152.199H82.8366C82.8366 151.83 82.7628 151.5 82.6151 151.21C82.4702 150.92 82.2628 150.692 81.9929 150.524C81.7259 150.357 81.4105 150.273 81.0469 150.273C80.6463 150.273 80.2997 150.372 80.0071 150.571C79.7173 150.767 79.4943 151.023 79.3381 151.338C79.1818 151.653 79.1037 151.991 79.1037 152.352V152.932C79.1037 153.426 79.1889 153.845 79.3594 154.189C79.5327 154.53 79.7727 154.79 80.0795 154.969C80.3864 155.145 80.7429 155.233 81.1491 155.233C81.4134 155.233 81.652 155.196 81.8651 155.122C82.081 155.045 82.267 154.932 82.4233 154.781C82.5795 154.628 82.7003 154.437 82.7855 154.21L83.7571 154.483C83.6548 154.812 83.483 155.102 83.2415 155.352C83 155.599 82.7017 155.793 82.3466 155.932C81.9915 156.068 81.5923 156.136 81.1491 156.136ZM88.0483 156.136C87.4347 156.136 86.9063 155.991 86.4631 155.702C86.0199 155.412 85.679 155.013 85.4403 154.504C85.2017 153.996 85.0824 153.415 85.0824 152.761C85.0824 152.097 85.2045 151.51 85.4489 151.001C85.696 150.49 86.0398 150.091 86.4801 149.804C86.9233 149.514 87.4403 149.369 88.0312 149.369C88.4915 149.369 88.9062 149.455 89.2756 149.625C89.6449 149.795 89.9474 150.034 90.1832 150.341C90.419 150.648 90.5653 151.006 90.6222 151.415H89.6165C89.5398 151.116 89.3693 150.852 89.1051 150.622C88.8438 150.389 88.4915 150.273 88.0483 150.273C87.6563 150.273 87.3125 150.375 87.017 150.58C86.7244 150.781 86.4957 151.067 86.331 151.436C86.169 151.803 86.0881 152.233 86.0881 152.727C86.0881 153.233 86.1676 153.673 86.3267 154.048C86.4886 154.423 86.7159 154.714 87.0085 154.922C87.304 155.129 87.6506 155.233 88.0483 155.233C88.3097 155.233 88.5469 155.188 88.7599 155.097C88.973 155.006 89.1534 154.875 89.3011 154.705C89.4489 154.534 89.554 154.33 89.6165 154.091H90.6222C90.5653 154.477 90.4247 154.825 90.2003 155.135C89.9787 155.442 89.6847 155.686 89.3182 155.868C88.9545 156.047 88.5313 156.136 88.0483 156.136ZM94.9389 149.455V150.307H91.5469V149.455H94.9389ZM92.5355 147.886H93.5412V154.125C93.5412 154.409 93.5824 154.622 93.6648 154.764C93.75 154.903 93.858 154.997 93.9886 155.045C94.1222 155.091 94.2628 155.114 94.4105 155.114C94.5213 155.114 94.6122 155.108 94.6832 155.097C94.7543 155.082 94.8111 155.071 94.8537 155.062L95.0582 155.966C94.9901 155.991 94.8949 156.017 94.7727 156.043C94.6506 156.071 94.4957 156.085 94.3082 156.085C94.0241 156.085 93.7457 156.024 93.473 155.902C93.2031 155.78 92.9787 155.594 92.7997 155.344C92.6236 155.094 92.5355 154.778 92.5355 154.398V147.886Z" fill="#73768C"/>
</g>
<g clip-path="url(#clip1_150_4307)">
<rect x="60.5" y="252.5" width="279" height="39" rx="7.5" fill="#F9F9F9" stroke="#ABADBA"/>
<path d="M78.8182 266.364V278H77.4091V266.364H78.8182ZM85.2571 269.273V270.409H80.7344V269.273H85.2571ZM82.0526 267.182H83.3935V275.5C83.3935 275.879 83.4484 276.163 83.5582 276.352C83.6719 276.538 83.8158 276.663 83.9901 276.727C84.1681 276.788 84.3556 276.818 84.5526 276.818C84.7003 276.818 84.8215 276.811 84.9162 276.795C85.0109 276.777 85.0866 276.761 85.1435 276.75L85.4162 277.955C85.3253 277.989 85.1984 278.023 85.0355 278.057C84.8726 278.095 84.6662 278.114 84.4162 278.114C84.0374 278.114 83.6662 278.032 83.3026 277.869C82.9427 277.706 82.6435 277.458 82.4048 277.125C82.17 276.792 82.0526 276.371 82.0526 275.864V267.182ZM90.8395 278.182C89.9986 278.182 89.2732 277.996 88.6634 277.625C88.0573 277.25 87.5895 276.727 87.2599 276.057C86.9342 275.383 86.7713 274.598 86.7713 273.705C86.7713 272.811 86.9342 272.023 87.2599 271.341C87.5895 270.655 88.0478 270.121 88.6349 269.739C89.2259 269.352 89.9152 269.159 90.7031 269.159C91.1577 269.159 91.6065 269.235 92.0497 269.386C92.4929 269.538 92.8963 269.784 93.2599 270.125C93.6236 270.462 93.9134 270.909 94.1293 271.466C94.3452 272.023 94.4531 272.708 94.4531 273.523V274.091H87.7259V272.932H93.0895C93.0895 272.439 92.991 272 92.794 271.614C92.6009 271.227 92.3243 270.922 91.9645 270.699C91.6084 270.475 91.188 270.364 90.7031 270.364C90.169 270.364 89.7069 270.496 89.3168 270.761C88.9304 271.023 88.633 271.364 88.4247 271.784C88.2164 272.205 88.1122 272.655 88.1122 273.136V273.909C88.1122 274.568 88.2259 275.127 88.4531 275.585C88.6842 276.04 89.0043 276.386 89.4134 276.625C89.8224 276.86 90.2978 276.977 90.8395 276.977C91.1918 276.977 91.5099 276.928 91.794 276.83C92.0819 276.727 92.33 276.576 92.5384 276.375C92.7467 276.17 92.9077 275.917 93.0213 275.614L94.3168 275.977C94.1804 276.417 93.9512 276.803 93.6293 277.136C93.3073 277.466 92.9096 277.723 92.4361 277.909C91.9626 278.091 91.4304 278.182 90.8395 278.182ZM96.4929 278V269.273H97.7884V270.636H97.902C98.0838 270.17 98.3774 269.809 98.7827 269.551C99.188 269.29 99.6747 269.159 100.243 269.159C100.819 269.159 101.298 269.29 101.68 269.551C102.067 269.809 102.368 270.17 102.584 270.636H102.675C102.898 270.186 103.233 269.828 103.68 269.562C104.127 269.294 104.663 269.159 105.288 269.159C106.069 269.159 106.707 269.403 107.203 269.892C107.699 270.377 107.947 271.133 107.947 272.159V278H106.607V272.159C106.607 271.515 106.43 271.055 106.078 270.778C105.726 270.502 105.311 270.364 104.834 270.364C104.22 270.364 103.745 270.549 103.408 270.92C103.071 271.288 102.902 271.754 102.902 272.318V278H101.538V272.023C101.538 271.527 101.377 271.127 101.055 270.824C100.733 270.517 100.319 270.364 99.8111 270.364C99.4626 270.364 99.1368 270.456 98.8338 270.642C98.5346 270.828 98.2921 271.085 98.1065 271.415C97.9247 271.741 97.8338 272.117 97.8338 272.545V278H96.4929ZM118.967 266.364V278H117.558V267.841H117.49L114.649 269.727V268.295L117.558 266.364H118.967Z" fill="#273058"/>
<path d="M65.8295 237.455C65.7784 237.023 65.571 236.688 65.2074 236.449C64.8438 236.21 64.3977 236.091 63.8693 236.091C63.483 236.091 63.1449 236.153 62.8551 236.278C62.5682 236.403 62.3438 236.575 62.1818 236.794C62.0227 237.013 61.9432 237.261 61.9432 237.54C61.9432 237.773 61.9986 237.973 62.1094 238.141C62.223 238.305 62.3679 238.443 62.544 238.554C62.7202 238.662 62.9048 238.751 63.098 238.822C63.2912 238.891 63.4688 238.946 63.6307 238.989L64.517 239.227C64.7443 239.287 64.9972 239.369 65.2756 239.474C65.5568 239.58 65.8253 239.723 66.081 239.905C66.3395 240.084 66.5526 240.314 66.7202 240.595C66.8878 240.876 66.9716 241.222 66.9716 241.631C66.9716 242.102 66.848 242.528 66.6009 242.909C66.3565 243.29 65.9986 243.592 65.527 243.817C65.0582 244.041 64.4886 244.153 63.8182 244.153C63.1932 244.153 62.652 244.053 62.1946 243.851C61.7401 243.649 61.3821 243.368 61.1207 243.007C60.8622 242.646 60.7159 242.227 60.6818 241.75H61.7727C61.8011 242.08 61.9119 242.352 62.1051 242.568C62.3011 242.781 62.5483 242.94 62.8466 243.045C63.1477 243.148 63.4716 243.199 63.8182 243.199C64.2216 243.199 64.5838 243.134 64.9048 243.003C65.2259 242.869 65.4801 242.685 65.6676 242.449C65.8551 242.21 65.9489 241.932 65.9489 241.614C65.9489 241.324 65.8679 241.088 65.706 240.906C65.544 240.724 65.331 240.577 65.0668 240.463C64.8026 240.349 64.517 240.25 64.2102 240.165L63.1364 239.858C62.4545 239.662 61.9148 239.382 61.517 239.018C61.1193 238.655 60.9205 238.179 60.9205 237.591C60.9205 237.102 61.0526 236.676 61.3168 236.312C61.5838 235.946 61.9418 235.662 62.3906 235.46C62.8423 235.256 63.3466 235.153 63.9034 235.153C64.4659 235.153 64.9659 235.254 65.4034 235.456C65.8409 235.655 66.1875 235.928 66.4432 236.274C66.7017 236.621 66.8381 237.014 66.8523 237.455H65.8295ZM71.3171 244.136C70.6864 244.136 70.1424 243.997 69.685 243.719C69.2305 243.438 68.8796 243.045 68.6325 242.543C68.3881 242.037 68.266 241.449 68.266 240.778C68.266 240.108 68.3881 239.517 68.6325 239.006C68.8796 238.491 69.2234 238.091 69.6637 237.804C70.1069 237.514 70.6239 237.369 71.2148 237.369C71.5558 237.369 71.8924 237.426 72.2248 237.54C72.5572 237.653 72.8597 237.838 73.1325 238.094C73.4052 238.347 73.6225 238.682 73.7844 239.099C73.9464 239.517 74.0273 240.031 74.0273 240.642V241.068H68.9819V240.199H73.0046C73.0046 239.83 72.9308 239.5 72.783 239.21C72.6381 238.92 72.4308 238.692 72.1609 238.524C71.8938 238.357 71.5785 238.273 71.2148 238.273C70.8143 238.273 70.4677 238.372 70.1751 238.571C69.8853 238.767 69.6623 239.023 69.506 239.338C69.3498 239.653 69.2717 239.991 69.2717 240.352V240.932C69.2717 241.426 69.3569 241.845 69.5273 242.189C69.7006 242.53 69.9407 242.79 70.2475 242.969C70.5543 243.145 70.9109 243.233 71.3171 243.233C71.5813 243.233 71.82 243.196 72.033 243.122C72.2489 243.045 72.435 242.932 72.5913 242.781C72.7475 242.628 72.8683 242.437 72.9535 242.21L73.9251 242.483C73.8228 242.812 73.6509 243.102 73.4094 243.352C73.168 243.599 72.8697 243.793 72.5146 243.932C72.1594 244.068 71.7603 244.136 71.3171 244.136ZM76.5629 235.273V244H75.5572V235.273H76.5629ZM81.1491 244.136C80.5185 244.136 79.9744 243.997 79.517 243.719C79.0625 243.438 78.7116 243.045 78.4645 242.543C78.2202 242.037 78.098 241.449 78.098 240.778C78.098 240.108 78.2202 239.517 78.4645 239.006C78.7116 238.491 79.0554 238.091 79.4957 237.804C79.9389 237.514 80.456 237.369 81.0469 237.369C81.3878 237.369 81.7244 237.426 82.0568 237.54C82.3892 237.653 82.6918 237.838 82.9645 238.094C83.2372 238.347 83.4545 238.682 83.6165 239.099C83.7784 239.517 83.8594 240.031 83.8594 240.642V241.068H78.8139V240.199H82.8366C82.8366 239.83 82.7628 239.5 82.6151 239.21C82.4702 238.92 82.2628 238.692 81.9929 238.524C81.7259 238.357 81.4105 238.273 81.0469 238.273C80.6463 238.273 80.2997 238.372 80.0071 238.571C79.7173 238.767 79.4943 239.023 79.3381 239.338C79.1818 239.653 79.1037 239.991 79.1037 240.352V240.932C79.1037 241.426 79.1889 241.845 79.3594 242.189C79.5327 242.53 79.7727 242.79 80.0795 242.969C80.3864 243.145 80.7429 243.233 81.1491 243.233C81.4134 243.233 81.652 243.196 81.8651 243.122C82.081 243.045 82.267 242.932 82.4233 242.781C82.5795 242.628 82.7003 242.437 82.7855 242.21L83.7571 242.483C83.6548 242.812 83.483 243.102 83.2415 243.352C83 243.599 82.7017 243.793 82.3466 243.932C81.9915 244.068 81.5923 244.136 81.1491 244.136ZM88.0483 244.136C87.4347 244.136 86.9063 243.991 86.4631 243.702C86.0199 243.412 85.679 243.013 85.4403 242.504C85.2017 241.996 85.0824 241.415 85.0824 240.761C85.0824 240.097 85.2045 239.51 85.4489 239.001C85.696 238.49 86.0398 238.091 86.4801 237.804C86.9233 237.514 87.4403 237.369 88.0312 237.369C88.4915 237.369 88.9062 237.455 89.2756 237.625C89.6449 237.795 89.9474 238.034 90.1832 238.341C90.419 238.648 90.5653 239.006 90.6222 239.415H89.6165C89.5398 239.116 89.3693 238.852 89.1051 238.622C88.8438 238.389 88.4915 238.273 88.0483 238.273C87.6563 238.273 87.3125 238.375 87.017 238.58C86.7244 238.781 86.4957 239.067 86.331 239.436C86.169 239.803 86.0881 240.233 86.0881 240.727C86.0881 241.233 86.1676 241.673 86.3267 242.048C86.4886 242.423 86.7159 242.714 87.0085 242.922C87.304 243.129 87.6506 243.233 88.0483 243.233C88.3097 243.233 88.5469 243.188 88.7599 243.097C88.973 243.006 89.1534 242.875 89.3011 242.705C89.4489 242.534 89.554 242.33 89.6165 242.091H90.6222C90.5653 242.477 90.4247 242.825 90.2003 243.135C89.9787 243.442 89.6847 243.686 89.3182 243.868C88.9545 244.047 88.5313 244.136 88.0483 244.136ZM94.9389 237.455V238.307H91.5469V237.455H94.9389ZM92.5355 235.886H93.5412V242.125C93.5412 242.409 93.5824 242.622 93.6648 242.764C93.75 242.903 93.858 242.997 93.9886 243.045C94.1222 243.091 94.2628 243.114 94.4105 243.114C94.5213 243.114 94.6122 243.108 94.6832 243.097C94.7543 243.082 94.8111 243.071 94.8537 243.062L95.0582 243.966C94.9901 243.991 94.8949 244.017 94.7727 244.043C94.6506 244.071 94.4957 244.085 94.3082 244.085C94.0241 244.085 93.7457 244.024 93.473 243.902C93.2031 243.78 92.9787 243.594 92.7997 243.344C92.6236 243.094 92.5355 242.778 92.5355 242.398V235.886Z" fill="#73768C"/>
<path d="M309 269.5L314 274.5L319 269.5" stroke="#273058" stroke-width="1.5" stroke-linecap="round" stroke-linejoin="round"/>
</g>
<g clip-path="url(#clip2_150_4307)">
<rect x="60.5" y="340.5" width="279" height="39" rx="7.5" fill="#F9F9F9" stroke="#0E69F1"/>
<path d="M78.8182 354.364V366H77.4091V354.364H78.8182ZM85.2571 357.273V358.409H80.7344V357.273H85.2571ZM82.0526 355.182H83.3935V363.5C83.3935 363.879 83.4484 364.163 83.5582 364.352C83.6719 364.538 83.8158 364.663 83.9901 364.727C84.1681 364.788 84.3556 364.818 84.5526 364.818C84.7003 364.818 84.8215 364.811 84.9162 364.795C85.0109 364.777 85.0866 364.761 85.1435 364.75L85.4162 365.955C85.3253 365.989 85.1984 366.023 85.0355 366.057C84.8726 366.095 84.6662 366.114 84.4162 366.114C84.0374 366.114 83.6662 366.032 83.3026 365.869C82.9427 365.706 82.6435 365.458 82.4048 365.125C82.17 364.792 82.0526 364.371 82.0526 363.864V355.182ZM90.8395 366.182C89.9986 366.182 89.2732 365.996 88.6634 365.625C88.0573 365.25 87.5895 364.727 87.2599 364.057C86.9342 363.383 86.7713 362.598 86.7713 361.705C86.7713 360.811 86.9342 360.023 87.2599 359.341C87.5895 358.655 88.0478 358.121 88.6349 357.739C89.2259 357.352 89.9152 357.159 90.7031 357.159C91.1577 357.159 91.6065 357.235 92.0497 357.386C92.4929 357.538 92.8963 357.784 93.2599 358.125C93.6236 358.462 93.9134 358.909 94.1293 359.466C94.3452 360.023 94.4531 360.708 94.4531 361.523V362.091H87.7259V360.932H93.0895C93.0895 360.439 92.991 360 92.794 359.614C92.6009 359.227 92.3243 358.922 91.9645 358.699C91.6084 358.475 91.188 358.364 90.7031 358.364C90.169 358.364 89.7069 358.496 89.3168 358.761C88.9304 359.023 88.633 359.364 88.4247 359.784C88.2164 360.205 88.1122 360.655 88.1122 361.136V361.909C88.1122 362.568 88.2259 363.127 88.4531 363.585C88.6842 364.04 89.0043 364.386 89.4134 364.625C89.8224 364.86 90.2978 364.977 90.8395 364.977C91.1918 364.977 91.5099 364.928 91.794 364.83C92.0819 364.727 92.33 364.576 92.5384 364.375C92.7467 364.17 92.9077 363.917 93.0213 363.614L94.3168 363.977C94.1804 364.417 93.9512 364.803 93.6293 365.136C93.3073 365.466 92.9096 365.723 92.4361 365.909C91.9626 366.091 91.4304 366.182 90.8395 366.182ZM96.4929 366V357.273H97.7884V358.636H97.902C98.0838 358.17 98.3774 357.809 98.7827 357.551C99.188 357.29 99.6747 357.159 100.243 357.159C100.819 357.159 101.298 357.29 101.68 357.551C102.067 357.809 102.368 358.17 102.584 358.636H102.675C102.898 358.186 103.233 357.828 103.68 357.562C104.127 357.294 104.663 357.159 105.288 357.159C106.069 357.159 106.707 357.403 107.203 357.892C107.699 358.377 107.947 359.133 107.947 360.159V366H106.607V360.159C106.607 359.515 106.43 359.055 106.078 358.778C105.726 358.502 105.311 358.364 104.834 358.364C104.22 358.364 103.745 358.549 103.408 358.92C103.071 359.288 102.902 359.754 102.902 360.318V366H101.538V360.023C101.538 359.527 101.377 359.127 101.055 358.824C100.733 358.517 100.319 358.364 99.8111 358.364C99.4626 358.364 99.1368 358.456 98.8338 358.642C98.5346 358.828 98.2921 359.085 98.1065 359.415C97.9247 359.741 97.8338 360.117 97.8338 360.545V366H96.4929ZM118.967 354.364V366H117.558V355.841H117.49L114.649 357.727V356.295L117.558 354.364H118.967Z" fill="#141B3D"/>
<path d="M65.8295 325.455C65.7784 325.023 65.571 324.688 65.2074 324.449C64.8438 324.21 64.3977 324.091 63.8693 324.091C63.483 324.091 63.1449 324.153 62.8551 324.278C62.5682 324.403 62.3438 324.575 62.1818 324.794C62.0227 325.013 61.9432 325.261 61.9432 325.54C61.9432 325.773 61.9986 325.973 62.1094 326.141C62.223 326.305 62.3679 326.443 62.544 326.554C62.7202 326.662 62.9048 326.751 63.098 326.822C63.2912 326.891 63.4688 326.946 63.6307 326.989L64.517 327.227C64.7443 327.287 64.9972 327.369 65.2756 327.474C65.5568 327.58 65.8253 327.723 66.081 327.905C66.3395 328.084 66.5526 328.314 66.7202 328.595C66.8878 328.876 66.9716 329.222 66.9716 329.631C66.9716 330.102 66.848 330.528 66.6009 330.909C66.3565 331.29 65.9986 331.592 65.527 331.817C65.0582 332.041 64.4886 332.153 63.8182 332.153C63.1932 332.153 62.652 332.053 62.1946 331.851C61.7401 331.649 61.3821 331.368 61.1207 331.007C60.8622 330.646 60.7159 330.227 60.6818 329.75H61.7727C61.8011 330.08 61.9119 330.352 62.1051 330.568C62.3011 330.781 62.5483 330.94 62.8466 331.045C63.1477 331.148 63.4716 331.199 63.8182 331.199C64.2216 331.199 64.5838 331.134 64.9048 331.003C65.2259 330.869 65.4801 330.685 65.6676 330.449C65.8551 330.21 65.9489 329.932 65.9489 329.614C65.9489 329.324 65.8679 329.088 65.706 328.906C65.544 328.724 65.331 328.577 65.0668 328.463C64.8026 328.349 64.517 328.25 64.2102 328.165L63.1364 327.858C62.4545 327.662 61.9148 327.382 61.517 327.018C61.1193 326.655 60.9205 326.179 60.9205 325.591C60.9205 325.102 61.0526 324.676 61.3168 324.312C61.5838 323.946 61.9418 323.662 62.3906 323.46C62.8423 323.256 63.3466 323.153 63.9034 323.153C64.4659 323.153 64.9659 323.254 65.4034 323.456C65.8409 323.655 66.1875 323.928 66.4432 324.274C66.7017 324.621 66.8381 325.014 66.8523 325.455H65.8295ZM71.3171 332.136C70.6864 332.136 70.1424 331.997 69.685 331.719C69.2305 331.438 68.8796 331.045 68.6325 330.543C68.3881 330.037 68.266 329.449 68.266 328.778C68.266 328.108 68.3881 327.517 68.6325 327.006C68.8796 326.491 69.2234 326.091 69.6637 325.804C70.1069 325.514 70.6239 325.369 71.2148 325.369C71.5558 325.369 71.8924 325.426 72.2248 325.54C72.5572 325.653 72.8597 325.838 73.1325 326.094C73.4052 326.347 73.6225 326.682 73.7844 327.099C73.9464 327.517 74.0273 328.031 74.0273 328.642V329.068H68.9819V328.199H73.0046C73.0046 327.83 72.9308 327.5 72.783 327.21C72.6381 326.92 72.4308 326.692 72.1609 326.524C71.8938 326.357 71.5785 326.273 71.2148 326.273C70.8143 326.273 70.4677 326.372 70.1751 326.571C69.8853 326.767 69.6623 327.023 69.506 327.338C69.3498 327.653 69.2717 327.991 69.2717 328.352V328.932C69.2717 329.426 69.3569 329.845 69.5273 330.189C69.7006 330.53 69.9407 330.79 70.2475 330.969C70.5543 331.145 70.9109 331.233 71.3171 331.233C71.5813 331.233 71.82 331.196 72.033 331.122C72.2489 331.045 72.435 330.932 72.5913 330.781C72.7475 330.628 72.8683 330.437 72.9535 330.21L73.9251 330.483C73.8228 330.812 73.6509 331.102 73.4094 331.352C73.168 331.599 72.8697 331.793 72.5146 331.932C72.1594 332.068 71.7603 332.136 71.3171 332.136ZM76.5629 323.273V332H75.5572V323.273H76.5629ZM81.1491 332.136C80.5185 332.136 79.9744 331.997 79.517 331.719C79.0625 331.438 78.7116 331.045 78.4645 330.543C78.2202 330.037 78.098 329.449 78.098 328.778C78.098 328.108 78.2202 327.517 78.4645 327.006C78.7116 326.491 79.0554 326.091 79.4957 325.804C79.9389 325.514 80.456 325.369 81.0469 325.369C81.3878 325.369 81.7244 325.426 82.0568 325.54C82.3892 325.653 82.6918 325.838 82.9645 326.094C83.2372 326.347 83.4545 326.682 83.6165 327.099C83.7784 327.517 83.8594 328.031 83.8594 328.642V329.068H78.8139V328.199H82.8366C82.8366 327.83 82.7628 327.5 82.6151 327.21C82.4702 326.92 82.2628 326.692 81.9929 326.524C81.7259 326.357 81.4105 326.273 81.0469 326.273C80.6463 326.273 80.2997 326.372 80.0071 326.571C79.7173 326.767 79.4943 327.023 79.3381 327.338C79.1818 327.653 79.1037 327.991 79.1037 328.352V328.932C79.1037 329.426 79.1889 329.845 79.3594 330.189C79.5327 330.53 79.7727 330.79 80.0795 330.969C80.3864 331.145 80.7429 331.233 81.1491 331.233C81.4134 331.233 81.652 331.196 81.8651 331.122C82.081 331.045 82.267 330.932 82.4233 330.781C82.5795 330.628 82.7003 330.437 82.7855 330.21L83.7571 330.483C83.6548 330.812 83.483 331.102 83.2415 331.352C83 331.599 82.7017 331.793 82.3466 331.932C81.9915 332.068 81.5923 332.136 81.1491 332.136ZM88.0483 332.136C87.4347 332.136 86.9063 331.991 86.4631 331.702C86.0199 331.412 85.679 331.013 85.4403 330.504C85.2017 329.996 85.0824 329.415 85.0824 328.761C85.0824 328.097 85.2045 327.51 85.4489 327.001C85.696 326.49 86.0398 326.091 86.4801 325.804C86.9233 325.514 87.4403 325.369 88.0312 325.369C88.4915 325.369 88.9062 325.455 89.2756 325.625C89.6449 325.795 89.9474 326.034 90.1832 326.341C90.419 326.648 90.5653 327.006 90.6222 327.415H89.6165C89.5398 327.116 89.3693 326.852 89.1051 326.622C88.8438 326.389 88.4915 326.273 88.0483 326.273C87.6563 326.273 87.3125 326.375 87.017 326.58C86.7244 326.781 86.4957 327.067 86.331 327.436C86.169 327.803 86.0881 328.233 86.0881 328.727C86.0881 329.233 86.1676 329.673 86.3267 330.048C86.4886 330.423 86.7159 330.714 87.0085 330.922C87.304 331.129 87.6506 331.233 88.0483 331.233C88.3097 331.233 88.5469 331.188 88.7599 331.097C88.973 331.006 89.1534 330.875 89.3011 330.705C89.4489 330.534 89.554 330.33 89.6165 330.091H90.6222C90.5653 330.477 90.4247 330.825 90.2003 331.135C89.9787 331.442 89.6847 331.686 89.3182 331.868C88.9545 332.047 88.5313 332.136 88.0483 332.136ZM94.9389 325.455V326.307H91.5469V325.455H94.9389ZM92.5355 323.886H93.5412V330.125C93.5412 330.409 93.5824 330.622 93.6648 330.764C93.75 330.903 93.858 330.997 93.9886 331.045C94.1222 331.091 94.2628 331.114 94.4105 331.114C94.5213 331.114 94.6122 331.108 94.6832 331.097C94.7543 331.082 94.8111 331.071 94.8537 331.062L95.0582 331.966C94.9901 331.991 94.8949 332.017 94.7727 332.043C94.6506 332.071 94.4957 332.085 94.3082 332.085C94.0241 332.085 93.7457 332.024 93.473 331.902C93.2031 331.78 92.9787 331.594 92.7997 331.344C92.6236 331.094 92.5355 330.778 92.5355 330.398V323.886Z" fill="#73768C"/>
<path d="M309 362.5L314 357.5L319 362.5" stroke="#151A30" stroke-width="1.5" stroke-linecap="round" stroke-linejoin="round"/>
</g>
<g filter="url(#filter0_d_150_4307)">
<g clip-path="url(#clip3_150_4307)">
<rect width="280" height="40" transform="translate(60 382)" fill="#E9E9E9"/>
<path d="M82.1136 397.273V406H81.0568V397.273H82.1136ZM86.9428 399.455V400.307H83.5508V399.455H86.9428ZM84.5394 397.886H85.5451V404.125C85.5451 404.409 85.5863 404.622 85.6687 404.764C85.7539 404.903 85.8619 404.997 85.9925 405.045C86.1261 405.091 86.2667 405.114 86.4144 405.114C86.5252 405.114 86.6161 405.108 86.6871 405.097C86.7582 405.082 86.815 405.071 86.8576 405.062L87.0621 405.966C86.994 405.991 86.8988 406.017 86.7766 406.043C86.6545 406.071 86.4996 406.085 86.3121 406.085C86.0281 406.085 85.7496 406.024 85.4769 405.902C85.207 405.78 84.9826 405.594 84.8036 405.344C84.6275 405.094 84.5394 404.778 84.5394 404.398V397.886ZM91.1296 406.136C90.4989 406.136 89.9549 405.997 89.4975 405.719C89.043 405.438 88.6921 405.045 88.445 404.543C88.2006 404.037 88.0785 403.449 88.0785 402.778C88.0785 402.108 88.2006 401.517 88.445 401.006C88.6921 400.491 89.0359 400.091 89.4762 399.804C89.9194 399.514 90.4364 399.369 91.0273 399.369C91.3683 399.369 91.7049 399.426 92.0373 399.54C92.3697 399.653 92.6722 399.838 92.945 400.094C93.2177 400.347 93.435 400.682 93.5969 401.099C93.7589 401.517 93.8398 402.031 93.8398 402.642V403.068H88.7944V402.199H92.8171C92.8171 401.83 92.7433 401.5 92.5955 401.21C92.4506 400.92 92.2433 400.692 91.9734 400.524C91.7063 400.357 91.391 400.273 91.0273 400.273C90.6268 400.273 90.2802 400.372 89.9876 400.571C89.6978 400.767 89.4748 401.023 89.3185 401.338C89.1623 401.653 89.0842 401.991 89.0842 402.352V402.932C89.0842 403.426 89.1694 403.845 89.3398 404.189C89.5131 404.53 89.7532 404.79 90.06 404.969C90.3668 405.145 90.7234 405.233 91.1296 405.233C91.3938 405.233 91.6325 405.196 91.8455 405.122C92.0614 405.045 92.2475 404.932 92.4038 404.781C92.56 404.628 92.6808 404.437 92.766 404.21L93.7376 404.483C93.6353 404.812 93.4634 405.102 93.2219 405.352C92.9805 405.599 92.6822 405.793 92.3271 405.932C91.9719 406.068 91.5728 406.136 91.1296 406.136ZM95.3697 406V399.455H96.3413V400.477H96.4265C96.5629 400.128 96.783 399.857 97.087 399.663C97.391 399.467 97.756 399.369 98.1822 399.369C98.614 399.369 98.9734 399.467 99.2603 399.663C99.5501 399.857 99.7759 400.128 99.9379 400.477H100.006C100.174 400.139 100.425 399.871 100.76 399.672C101.096 399.47 101.498 399.369 101.966 399.369C102.551 399.369 103.03 399.553 103.402 399.919C103.775 400.283 103.961 400.849 103.961 401.619V406H102.955V401.619C102.955 401.136 102.823 400.791 102.559 400.584C102.294 400.376 101.983 400.273 101.625 400.273C101.165 400.273 100.809 400.412 100.556 400.69C100.303 400.966 100.176 401.315 100.176 401.739V406H99.1538V401.517C99.1538 401.145 99.033 400.845 98.7915 400.618C98.5501 400.388 98.239 400.273 97.8583 400.273C97.5969 400.273 97.3526 400.342 97.1254 400.482C96.9009 400.621 96.7191 400.814 96.5799 401.061C96.4435 401.305 96.3754 401.588 96.3754 401.909V406H95.3697ZM112.225 397.273V406H111.169V398.381H111.118L108.987 399.795V398.722L111.169 397.273H112.225Z" fill="#141B3D"/>
<rect width="280" height="40" transform="translate(60 422)" fill="white"/>
<path d="M82.1136 437.273V446H81.0568V437.273H82.1136ZM86.9428 439.455V440.307H83.5508V439.455H86.9428ZM84.5394 437.886H85.5451V444.125C85.5451 444.409 85.5863 444.622 85.6687 444.764C85.7539 444.903 85.8619 444.997 85.9925 445.045C86.1261 445.091 86.2667 445.114 86.4144 445.114C86.5252 445.114 86.6161 445.108 86.6871 445.097C86.7582 445.082 86.815 445.071 86.8576 445.062L87.0621 445.966C86.994 445.991 86.8988 446.017 86.7766 446.043C86.6545 446.071 86.4996 446.085 86.3121 446.085C86.0281 446.085 85.7496 446.024 85.4769 445.902C85.207 445.78 84.9826 445.594 84.8036 445.344C84.6275 445.094 84.5394 444.778 84.5394 444.398V437.886ZM91.1296 446.136C90.4989 446.136 89.9549 445.997 89.4975 445.719C89.043 445.438 88.6921 445.045 88.445 444.543C88.2006 444.037 88.0785 443.449 88.0785 442.778C88.0785 442.108 88.2006 441.517 88.445 441.006C88.6921 440.491 89.0359 440.091 89.4762 439.804C89.9194 439.514 90.4364 439.369 91.0273 439.369C91.3683 439.369 91.7049 439.426 92.0373 439.54C92.3697 439.653 92.6722 439.838 92.945 440.094C93.2177 440.347 93.435 440.682 93.5969 441.099C93.7589 441.517 93.8398 442.031 93.8398 442.642V443.068H88.7944V442.199H92.8171C92.8171 441.83 92.7433 441.5 92.5955 441.21C92.4506 440.92 92.2433 440.692 91.9734 440.524C91.7063 440.357 91.391 440.273 91.0273 440.273C90.6268 440.273 90.2802 440.372 89.9876 440.571C89.6978 440.767 89.4748 441.023 89.3185 441.338C89.1623 441.653 89.0842 441.991 89.0842 442.352V442.932C89.0842 443.426 89.1694 443.845 89.3398 444.189C89.5131 444.53 89.7532 444.79 90.06 444.969C90.3668 445.145 90.7234 445.233 91.1296 445.233C91.3938 445.233 91.6325 445.196 91.8455 445.122C92.0614 445.045 92.2475 444.932 92.4038 444.781C92.56 444.628 92.6808 444.437 92.766 444.21L93.7376 444.483C93.6353 444.812 93.4634 445.102 93.2219 445.352C92.9805 445.599 92.6822 445.793 92.3271 445.932C91.9719 446.068 91.5728 446.136 91.1296 446.136ZM95.3697 446V439.455H96.3413V440.477H96.4265C96.5629 440.128 96.783 439.857 97.087 439.663C97.391 439.467 97.756 439.369 98.1822 439.369C98.614 439.369 98.9734 439.467 99.2603 439.663C99.5501 439.857 99.7759 440.128 99.9379 440.477H100.006C100.174 440.139 100.425 439.871 100.76 439.672C101.096 439.47 101.498 439.369 101.966 439.369C102.551 439.369 103.03 439.553 103.402 439.919C103.775 440.283 103.961 440.849 103.961 441.619V446H102.955V441.619C102.955 441.136 102.823 440.791 102.559 440.584C102.294 440.376 101.983 440.273 101.625 440.273C101.165 440.273 100.809 440.412 100.556 440.69C100.303 440.966 100.176 441.315 100.176 441.739V446H99.1538V441.517C99.1538 441.145 99.033 440.845 98.7915 440.618C98.5501 440.388 98.239 440.273 97.8583 440.273C97.5969 440.273 97.3526 440.342 97.1254 440.482C96.9009 440.621 96.7191 440.814 96.5799 441.061C96.4435 441.305 96.3754 441.588 96.3754 441.909V446H95.3697ZM109.157 446V445.233L112.038 442.08C112.376 441.71 112.654 441.389 112.873 441.116C113.092 440.841 113.254 440.582 113.359 440.341C113.467 440.097 113.521 439.841 113.521 439.574C113.521 439.267 113.447 439.001 113.299 438.777C113.154 438.553 112.956 438.379 112.703 438.257C112.45 438.135 112.166 438.074 111.85 438.074C111.515 438.074 111.223 438.143 110.973 438.283C110.725 438.419 110.534 438.611 110.397 438.858C110.264 439.105 110.197 439.395 110.197 439.727H109.191C109.191 439.216 109.309 438.767 109.545 438.381C109.781 437.994 110.102 437.693 110.508 437.477C110.917 437.261 111.376 437.153 111.885 437.153C112.396 437.153 112.849 437.261 113.244 437.477C113.639 437.693 113.949 437.984 114.173 438.351C114.397 438.717 114.51 439.125 114.51 439.574C114.51 439.895 114.451 440.209 114.335 440.516C114.221 440.82 114.022 441.159 113.738 441.534C113.457 441.906 113.066 442.361 112.566 442.898L110.606 444.994V445.062H114.663V446H109.157Z" fill="#151A30"/>
<rect width="280" height="40" transform="translate(60 462)" fill="white"/>
<path d="M82.1136 477.273V486H81.0568V477.273H82.1136ZM86.9428 479.455V480.307H83.5508V479.455H86.9428ZM84.5394 477.886H85.5451V484.125C85.5451 484.409 85.5863 484.622 85.6687 484.764C85.7539 484.903 85.8619 484.997 85.9925 485.045C86.1261 485.091 86.2667 485.114 86.4144 485.114C86.5252 485.114 86.6161 485.108 86.6871 485.097C86.7582 485.082 86.815 485.071 86.8576 485.062L87.0621 485.966C86.994 485.991 86.8988 486.017 86.7766 486.043C86.6545 486.071 86.4996 486.085 86.3121 486.085C86.0281 486.085 85.7496 486.024 85.4769 485.902C85.207 485.78 84.9826 485.594 84.8036 485.344C84.6275 485.094 84.5394 484.778 84.5394 484.398V477.886ZM91.1296 486.136C90.4989 486.136 89.9549 485.997 89.4975 485.719C89.043 485.438 88.6921 485.045 88.445 484.543C88.2006 484.037 88.0785 483.449 88.0785 482.778C88.0785 482.108 88.2006 481.517 88.445 481.006C88.6921 480.491 89.0359 480.091 89.4762 479.804C89.9194 479.514 90.4364 479.369 91.0273 479.369C91.3683 479.369 91.7049 479.426 92.0373 479.54C92.3697 479.653 92.6722 479.838 92.945 480.094C93.2177 480.347 93.435 480.682 93.5969 481.099C93.7589 481.517 93.8398 482.031 93.8398 482.642V483.068H88.7944V482.199H92.8171C92.8171 481.83 92.7433 481.5 92.5955 481.21C92.4506 480.92 92.2433 480.692 91.9734 480.524C91.7063 480.357 91.391 480.273 91.0273 480.273C90.6268 480.273 90.2802 480.372 89.9876 480.571C89.6978 480.767 89.4748 481.023 89.3185 481.338C89.1623 481.653 89.0842 481.991 89.0842 482.352V482.932C89.0842 483.426 89.1694 483.845 89.3398 484.189C89.5131 484.53 89.7532 484.79 90.06 484.969C90.3668 485.145 90.7234 485.233 91.1296 485.233C91.3938 485.233 91.6325 485.196 91.8455 485.122C92.0614 485.045 92.2475 484.932 92.4038 484.781C92.56 484.628 92.6808 484.437 92.766 484.21L93.7376 484.483C93.6353 484.812 93.4634 485.102 93.2219 485.352C92.9805 485.599 92.6822 485.793 92.3271 485.932C91.9719 486.068 91.5728 486.136 91.1296 486.136ZM95.3697 486V479.455H96.3413V480.477H96.4265C96.5629 480.128 96.783 479.857 97.087 479.663C97.391 479.467 97.756 479.369 98.1822 479.369C98.614 479.369 98.9734 479.467 99.2603 479.663C99.5501 479.857 99.7759 480.128 99.9379 480.477H100.006C100.174 480.139 100.425 479.871 100.76 479.672C101.096 479.47 101.498 479.369 101.966 479.369C102.551 479.369 103.03 479.553 103.402 479.919C103.775 480.283 103.961 480.849 103.961 481.619V486H102.955V481.619C102.955 481.136 102.823 480.791 102.559 480.584C102.294 480.376 101.983 480.273 101.625 480.273C101.165 480.273 100.809 480.412 100.556 480.69C100.303 480.966 100.176 481.315 100.176 481.739V486H99.1538V481.517C99.1538 481.145 99.033 480.845 98.7915 480.618C98.5501 480.388 98.239 480.273 97.8583 480.273C97.5969 480.273 97.3526 480.342 97.1254 480.482C96.9009 480.621 96.7191 480.814 96.5799 481.061C96.4435 481.305 96.3754 481.588 96.3754 481.909V486H95.3697ZM112.106 486.119C111.544 486.119 111.042 486.023 110.602 485.83C110.164 485.636 109.816 485.368 109.558 485.024C109.302 484.678 109.163 484.276 109.14 483.818H110.214C110.237 484.099 110.333 484.342 110.504 484.547C110.674 484.749 110.897 484.905 111.173 485.016C111.449 485.126 111.754 485.182 112.089 485.182C112.464 485.182 112.797 485.116 113.086 484.986C113.376 484.855 113.603 484.673 113.768 484.44C113.933 484.207 114.015 483.938 114.015 483.631C114.015 483.31 113.936 483.027 113.777 482.783C113.618 482.536 113.385 482.342 113.078 482.203C112.771 482.064 112.396 481.994 111.953 481.994H111.254V481.057H111.953C112.299 481.057 112.603 480.994 112.865 480.869C113.129 480.744 113.335 480.568 113.483 480.341C113.633 480.114 113.708 479.847 113.708 479.54C113.708 479.244 113.643 478.987 113.512 478.768C113.382 478.55 113.197 478.379 112.958 478.257C112.723 478.135 112.444 478.074 112.123 478.074C111.822 478.074 111.538 478.129 111.271 478.24C111.007 478.348 110.791 478.506 110.623 478.713C110.456 478.918 110.365 479.165 110.35 479.455H109.328C109.345 478.997 109.483 478.597 109.741 478.253C110 477.906 110.338 477.636 110.755 477.443C111.176 477.25 111.637 477.153 112.14 477.153C112.68 477.153 113.143 477.263 113.529 477.482C113.916 477.697 114.213 477.983 114.42 478.338C114.627 478.693 114.731 479.077 114.731 479.489C114.731 479.98 114.602 480.399 114.343 480.746C114.088 481.092 113.74 481.332 113.299 481.466V481.534C113.85 481.625 114.281 481.859 114.591 482.237C114.9 482.612 115.055 483.077 115.055 483.631C115.055 484.105 114.926 484.531 114.667 484.909C114.412 485.284 114.062 485.58 113.619 485.795C113.176 486.011 112.672 486.119 112.106 486.119Z" fill="#151A30"/>
</g>
</g>
<path d="M60.1005 55.1818C59.9395 53.5625 59.2246 52.2746 57.9556 51.3182C56.6867 50.3617 55.091 49.8835 53.1687 49.8835C51.8145 49.8835 50.6213 50.1155 49.5891 50.5795C48.5664 51.0436 47.7615 51.6875 47.1744 52.5114C46.5967 53.3258 46.3079 54.2538 46.3079 55.2955C46.3079 56.0625 46.4736 56.7348 46.805 57.3125C47.1365 57.8902 47.5816 58.3873 48.1403 58.804C48.7085 59.2112 49.3335 59.5616 50.0153 59.8551C50.7066 60.1487 51.4026 60.3949 52.1033 60.5938L55.1715 61.4744C56.0996 61.7301 57.0276 62.0568 57.9556 62.4545C58.8836 62.8523 59.7312 63.3542 60.4982 63.9602C61.2747 64.5568 61.895 65.2907 62.359 66.1619C62.8325 67.0237 63.0692 68.0606 63.0692 69.2727C63.0692 70.8258 62.6668 72.2225 61.8619 73.4631C61.0569 74.7036 59.9016 75.6884 58.396 76.4176C56.8903 77.1373 55.0863 77.4972 52.984 77.4972C51.0049 77.4972 49.2861 77.1705 47.8278 76.517C46.3694 75.8542 45.2236 74.9403 44.3903 73.7756C43.5569 72.6108 43.0882 71.2614 42.984 69.7273H45.7113C45.806 70.8731 46.1848 71.8437 46.8477 72.6392C47.5105 73.4347 48.3723 74.0407 49.4329 74.4574C50.4935 74.8646 51.6772 75.0682 52.984 75.0682C54.4329 75.0682 55.7208 74.8267 56.8477 74.3438C57.984 73.8513 58.8742 73.1695 59.5181 72.2983C60.1715 71.4176 60.4982 70.3949 60.4982 69.2301C60.4982 68.2453 60.2425 67.4214 59.7312 66.7585C59.2198 66.0862 58.5049 65.5227 57.5863 65.0682C56.6772 64.6136 55.6213 64.2112 54.4187 63.8608L50.9386 62.8381C48.6564 62.1562 46.8855 61.214 45.6261 60.0114C44.3666 58.8087 43.7369 57.2746 43.7369 55.4091C43.7369 53.8466 44.1535 52.4735 44.9869 51.2898C45.8297 50.0966 46.966 49.1686 48.396 48.5057C49.8353 47.8333 51.4499 47.4972 53.2397 47.4972C55.0484 47.4972 56.6488 47.8286 58.0408 48.4915C59.4329 49.1544 60.5361 50.0682 61.3505 51.233C62.1744 52.3883 62.6147 53.7045 62.6715 55.1818H60.1005ZM77.7567 77.4545C75.7208 77.4545 73.9594 76.9811 72.4727 76.0341C70.9859 75.0777 69.8353 73.7566 69.021 72.071C68.216 70.3759 67.8136 68.4252 67.8136 66.2188C67.8136 64.0218 68.216 62.071 69.021 60.3665C69.8353 58.6525 70.9575 57.3125 72.3874 56.3466C73.8268 55.3712 75.4888 54.8835 77.3732 54.8835C78.5569 54.8835 79.698 55.1013 80.7965 55.5369C81.895 55.9631 82.8799 56.6212 83.7511 57.5114C84.6317 58.392 85.3278 59.5047 85.8391 60.8494C86.3505 62.1847 86.6062 63.7661 86.6062 65.5938V66.8438H69.5607V64.6136H84.021C84.021 63.2121 83.7369 61.9527 83.1687 60.8352C82.61 59.7083 81.8287 58.8182 80.8249 58.1648C79.8306 57.5114 78.68 57.1847 77.3732 57.1847C75.9906 57.1847 74.7738 57.554 73.7227 58.2926C72.6715 59.0312 71.8477 60.0066 71.2511 61.2188C70.6639 62.4309 70.3656 63.7566 70.3562 65.196V66.5312C70.3562 68.2642 70.6545 69.7794 71.2511 71.0767C71.8571 72.3646 72.7141 73.3636 73.8221 74.0739C74.93 74.7841 76.2416 75.1392 77.7567 75.1392C78.7889 75.1392 79.6933 74.9782 80.4698 74.6562C81.2558 74.3343 81.9139 73.9034 82.4442 73.3636C82.984 72.8144 83.3912 72.2131 83.6658 71.5597L86.0664 72.3409C85.735 73.2595 85.1905 74.107 84.4329 74.8835C83.6848 75.66 82.7473 76.285 81.6204 76.7585C80.503 77.2225 79.2151 77.4545 77.7567 77.4545ZM94.7063 47.9091V77H92.1779V47.9091H94.7063ZM110.218 77.4545C108.182 77.4545 106.42 76.9811 104.934 76.0341C103.447 75.0777 102.296 73.7566 101.482 72.071C100.677 70.3759 100.275 68.4252 100.275 66.2188C100.275 64.0218 100.677 62.071 101.482 60.3665C102.296 58.6525 103.418 57.3125 104.848 56.3466C106.288 55.3712 107.95 54.8835 109.834 54.8835C111.018 54.8835 112.159 55.1013 113.257 55.5369C114.356 55.9631 115.341 56.6212 116.212 57.5114C117.093 58.392 117.789 59.5047 118.3 60.8494C118.811 62.1847 119.067 63.7661 119.067 65.5938V66.8438H102.022V64.6136H116.482C116.482 63.2121 116.198 61.9527 115.63 60.8352C115.071 59.7083 114.29 58.8182 113.286 58.1648C112.292 57.5114 111.141 57.1847 109.834 57.1847C108.452 57.1847 107.235 57.554 106.184 58.2926C105.132 59.0312 104.309 60.0066 103.712 61.2188C103.125 62.4309 102.827 63.7566 102.817 65.196V66.5312C102.817 68.2642 103.115 69.7794 103.712 71.0767C104.318 72.3646 105.175 73.3636 106.283 74.0739C107.391 74.7841 108.703 75.1392 110.218 75.1392C111.25 75.1392 112.154 74.9782 112.931 74.6562C113.717 74.3343 114.375 73.9034 114.905 73.3636C115.445 72.8144 115.852 72.2131 116.127 71.5597L118.527 72.3409C118.196 73.2595 117.651 74.107 116.894 74.8835C116.146 75.66 115.208 76.285 114.081 76.7585C112.964 77.2225 111.676 77.4545 110.218 77.4545ZM133.162 77.4545C131.211 77.4545 129.511 76.9669 128.062 75.9915C126.623 75.0161 125.505 73.6809 124.71 71.9858C123.914 70.2907 123.517 68.3589 123.517 66.1903C123.517 64.0028 123.919 62.0568 124.724 60.3523C125.538 58.6477 126.665 57.3125 128.105 56.3466C129.544 55.3712 131.216 54.8835 133.119 54.8835C134.577 54.8835 135.898 55.1676 137.082 55.7358C138.266 56.2945 139.241 57.0852 140.008 58.108C140.785 59.1212 141.272 60.3049 141.471 61.6591H138.914C138.649 60.428 138.01 59.3769 136.997 58.5057C135.993 57.625 134.715 57.1847 133.162 57.1847C131.77 57.1847 130.538 57.5634 129.468 58.321C128.398 59.0691 127.56 60.1155 126.954 61.4602C126.358 62.7955 126.059 64.3437 126.059 66.1051C126.059 67.8759 126.353 69.4432 126.94 70.8068C127.527 72.161 128.351 73.2216 129.412 73.9886C130.482 74.7557 131.732 75.1392 133.162 75.1392C134.127 75.1392 135.008 74.9593 135.804 74.5994C136.609 74.2301 137.281 73.7093 137.821 73.0369C138.37 72.3646 138.739 71.5644 138.929 70.6364H141.485C141.296 71.9527 140.827 73.1269 140.079 74.1591C139.341 75.1818 138.379 75.9867 137.196 76.5739C136.021 77.161 134.677 77.4545 133.162 77.4545ZM155.498 55.1818V57.3835H145.086V55.1818H155.498ZM148.339 49.9545H150.882V71.304C150.882 72.2131 151.038 72.928 151.35 73.4489C151.663 73.9602 152.07 74.3248 152.572 74.5426C153.074 74.7509 153.609 74.8551 154.177 74.8551C154.509 74.8551 154.793 74.8362 155.029 74.7983C155.266 74.7509 155.475 74.7036 155.654 74.6562L156.194 76.9432C155.948 77.0379 155.645 77.1231 155.285 77.1989C154.925 77.2841 154.48 77.3267 153.95 77.3267C153.022 77.3267 152.127 77.1231 151.265 76.7159C150.413 76.3087 149.712 75.7027 149.163 74.8977C148.614 74.0928 148.339 73.0938 148.339 71.9006V49.9545ZM169.486 77.4545C167.602 77.4545 165.935 76.9763 164.486 76.0199C163.047 75.0634 161.92 73.7424 161.105 72.0568C160.291 70.3617 159.884 68.4062 159.884 66.1903C159.884 63.9555 160.291 61.9905 161.105 60.2955C161.92 58.5909 163.047 57.2652 164.486 56.3182C165.935 55.3617 167.602 54.8835 169.486 54.8835C171.371 54.8835 173.033 55.3617 174.472 56.3182C175.911 57.2746 177.038 58.6004 177.853 60.2955C178.676 61.9905 179.088 63.9555 179.088 66.1903C179.088 68.4062 178.681 70.3617 177.867 72.0568C177.052 73.7424 175.921 75.0634 174.472 76.0199C173.033 76.9763 171.371 77.4545 169.486 77.4545ZM169.486 75.1392C171.001 75.1392 172.284 74.732 173.336 73.9176C174.387 73.1032 175.182 72.0189 175.722 70.6648C176.271 69.3106 176.546 67.8191 176.546 66.1903C176.546 64.5616 176.271 63.0653 175.722 61.7017C175.182 60.3381 174.387 59.2443 173.336 58.4205C172.284 57.5966 171.001 57.1847 169.486 57.1847C167.98 57.1847 166.697 57.5966 165.637 58.4205C164.586 59.2443 163.785 60.3381 163.236 61.7017C162.696 63.0653 162.426 64.5616 162.426 66.1903C162.426 67.8191 162.696 69.3106 163.236 70.6648C163.785 72.0189 164.586 73.1032 165.637 73.9176C166.688 74.732 167.971 75.1392 169.486 75.1392ZM184.639 77V55.1818H187.096V58.5341H187.281C187.717 57.4356 188.474 56.5502 189.554 55.8778C190.643 55.196 191.874 54.8551 193.247 54.8551C193.455 54.8551 193.687 54.8598 193.943 54.8693C194.199 54.8788 194.412 54.8883 194.582 54.8977V57.4688C194.468 57.4498 194.27 57.4214 193.985 57.3835C193.701 57.3456 193.394 57.3267 193.062 57.3267C191.926 57.3267 190.913 57.5682 190.022 58.0511C189.142 58.5246 188.446 59.1828 187.934 60.0256C187.423 60.8684 187.167 61.8295 187.167 62.9091V77H184.639Z" fill="#C4C8DC"/>
<defs>
<filter id="filter0_d_150_4307" x="54" y="380" width="292" height="132" filterUnits="userSpaceOnUse" color-interpolation-filters="sRGB">
<feFlood flood-opacity="0" result="BackgroundImageFix"/>
<feColorMatrix in="SourceAlpha" type="matrix" values="0 0 0 0 0 0 0 0 0 0 0 0 0 0 0 0 0 0 127 0" result="hardAlpha"/>
<feOffset dy="4"/>
<feGaussianBlur stdDeviation="3"/>
<feComposite in2="hardAlpha" operator="out"/>
<feColorMatrix type="matrix" values="0 0 0 0 0 0 0 0 0 0 0 0 0 0 0 0 0 0 0.1 0"/>
<feBlend mode="normal" in2="BackgroundImageFix" result="effect1_dropShadow_150_4307"/>
<feBlend mode="normal" in="SourceGraphic" in2="effect1_dropShadow_150_4307" result="shape"/>
</filter>
<clipPath id="clip0_150_4307">
<rect width="280" height="60" fill="white" transform="translate(60 144)"/>
</clipPath>
<clipPath id="clip1_150_4307">
<rect width="280" height="60" fill="white" transform="translate(60 232)"/>
</clipPath>
<clipPath id="clip2_150_4307">
<rect width="280" height="60" fill="white" transform="translate(60 320)"/>
</clipPath>
<clipPath id="clip3_150_4307">
<path d="M60 382H340V494C340 498.418 336.418 502 332 502H68C63.5817 502 60 498.418 60 494V382Z" fill="white"/>
</clipPath>
</defs>
</svg>
