<svg width="1708" height="1101" viewBox="0 0 1708 1101" fill="none" xmlns="http://www.w3.org/2000/svg">
<rect width="1708" height="1101" rx="16" fill="white"/>
<rect y="593" width="1708" height="508" fill="#151A30"/>
<rect x="795" y="981" width="80" height="80" rx="8" fill="#FFD0CC"/>
<rect x="675" y="981" width="80" height="80" rx="8" fill="#FFF3CC"/>
<rect x="555" y="981" width="80" height="80" rx="8" fill="#CEFEFD"/>
<rect x="435" y="981" width="80" height="80" rx="8" fill="#E7F5D6"/>
<rect x="315" y="981" width="80" height="80" rx="8" fill="#CEE9FE"/>
<path d="M1577 1018H1573.41V1006.36H1577.16C1578.29 1006.36 1579.25 1006.6 1580.06 1007.06C1580.86 1007.52 1581.48 1008.19 1581.9 1009.06C1582.33 1009.92 1582.55 1010.95 1582.55 1012.16C1582.55 1013.37 1582.33 1014.41 1581.9 1015.29C1581.47 1016.16 1580.84 1016.83 1580.01 1017.3C1579.19 1017.77 1578.18 1018 1577 1018ZM1574.82 1016.75H1576.91C1577.87 1016.75 1578.67 1016.56 1579.3 1016.19C1579.93 1015.82 1580.41 1015.29 1580.72 1014.61C1581.03 1013.92 1581.18 1013.11 1581.18 1012.16C1581.18 1011.22 1581.03 1010.41 1580.72 1009.73C1580.41 1009.05 1579.96 1008.53 1579.35 1008.16C1578.74 1007.8 1577.98 1007.61 1577.07 1007.61H1574.82V1016.75ZM1584.73 1018V1009.27H1586.07V1018H1584.73ZM1585.41 1007.82C1585.15 1007.82 1584.92 1007.73 1584.73 1007.55C1584.55 1007.37 1584.45 1007.16 1584.45 1006.91C1584.45 1006.66 1584.55 1006.45 1584.73 1006.27C1584.92 1006.09 1585.15 1006 1585.41 1006C1585.67 1006 1585.89 1006.09 1586.08 1006.27C1586.27 1006.45 1586.36 1006.66 1586.36 1006.91C1586.36 1007.16 1586.27 1007.37 1586.08 1007.55C1585.89 1007.73 1585.67 1007.82 1585.41 1007.82ZM1594.71 1011.23L1593.5 1011.57C1593.43 1011.37 1593.31 1011.17 1593.17 1010.98C1593.02 1010.79 1592.83 1010.63 1592.58 1010.51C1592.33 1010.38 1592.01 1010.32 1591.62 1010.32C1591.08 1010.32 1590.64 1010.44 1590.28 1010.69C1589.93 1010.93 1589.75 1011.24 1589.75 1011.61C1589.75 1011.95 1589.87 1012.21 1590.12 1012.4C1590.36 1012.6 1590.74 1012.76 1591.25 1012.89L1592.55 1013.2C1593.33 1013.39 1593.91 1013.68 1594.29 1014.07C1594.67 1014.46 1594.87 1014.96 1594.87 1015.57C1594.87 1016.07 1594.72 1016.52 1594.43 1016.91C1594.15 1017.3 1593.75 1017.61 1593.24 1017.84C1592.73 1018.07 1592.13 1018.18 1591.46 1018.18C1590.57 1018.18 1589.83 1017.99 1589.25 1017.6C1588.66 1017.22 1588.29 1016.65 1588.14 1015.91L1589.41 1015.59C1589.53 1016.06 1589.76 1016.41 1590.1 1016.65C1590.44 1016.88 1590.88 1017 1591.43 1017C1592.06 1017 1592.55 1016.87 1592.92 1016.6C1593.29 1016.33 1593.48 1016.01 1593.48 1015.64C1593.48 1015.33 1593.37 1015.08 1593.16 1014.88C1592.95 1014.67 1592.62 1014.51 1592.18 1014.41L1590.73 1014.07C1589.93 1013.88 1589.34 1013.59 1588.97 1013.19C1588.6 1012.79 1588.41 1012.28 1588.41 1011.68C1588.41 1011.19 1588.55 1010.75 1588.83 1010.38C1589.11 1010 1589.49 1009.7 1589.97 1009.48C1590.45 1009.27 1591 1009.16 1591.62 1009.16C1592.48 1009.16 1593.16 1009.35 1593.65 1009.73C1594.15 1010.11 1594.5 1010.61 1594.71 1011.23ZM1599.45 1018.2C1598.9 1018.2 1598.4 1018.1 1597.95 1017.89C1597.5 1017.68 1597.14 1017.38 1596.87 1016.98C1596.61 1016.58 1596.47 1016.09 1596.47 1015.52C1596.47 1015.02 1596.57 1014.62 1596.77 1014.31C1596.97 1013.99 1597.23 1013.75 1597.56 1013.57C1597.89 1013.39 1598.25 1013.26 1598.65 1013.17C1599.05 1013.08 1599.46 1013.01 1599.86 1012.95C1600.39 1012.89 1600.82 1012.84 1601.15 1012.8C1601.48 1012.76 1601.73 1012.7 1601.88 1012.61C1602.03 1012.53 1602.11 1012.37 1602.11 1012.16V1012.11C1602.11 1011.55 1601.96 1011.12 1601.65 1010.81C1601.35 1010.5 1600.89 1010.34 1600.27 1010.34C1599.63 1010.34 1599.13 1010.48 1598.76 1010.76C1598.4 1011.04 1598.14 1011.34 1598 1011.66L1596.72 1011.2C1596.95 1010.67 1597.25 1010.26 1597.63 1009.97C1598.02 1009.67 1598.43 1009.46 1598.88 1009.34C1599.34 1009.22 1599.79 1009.16 1600.22 1009.16C1600.5 1009.16 1600.83 1009.19 1601.19 1009.26C1601.56 1009.33 1601.91 1009.46 1602.25 1009.66C1602.6 1009.87 1602.88 1010.18 1603.11 1010.59C1603.34 1011 1603.45 1011.56 1603.45 1012.25V1018H1602.11V1016.82H1602.04C1601.95 1017.01 1601.8 1017.21 1601.59 1017.43C1601.38 1017.64 1601.09 1017.83 1600.74 1017.98C1600.39 1018.13 1599.96 1018.2 1599.45 1018.2ZM1599.66 1017C1600.19 1017 1600.63 1016.9 1601 1016.69C1601.36 1016.48 1601.64 1016.21 1601.83 1015.88C1602.02 1015.55 1602.11 1015.2 1602.11 1014.84V1013.61C1602.05 1013.68 1601.93 1013.74 1601.74 1013.8C1601.55 1013.85 1601.33 1013.9 1601.08 1013.94C1600.83 1013.98 1600.59 1014.02 1600.36 1014.05C1600.12 1014.07 1599.94 1014.09 1599.79 1014.11C1599.44 1014.16 1599.12 1014.23 1598.82 1014.34C1598.52 1014.43 1598.27 1014.58 1598.09 1014.78C1597.91 1014.98 1597.82 1015.25 1597.82 1015.59C1597.82 1016.06 1597.99 1016.41 1598.33 1016.65C1598.68 1016.88 1599.12 1017 1599.66 1017ZM1606.08 1018V1006.36H1607.42V1010.66H1607.54C1607.63 1010.51 1607.77 1010.31 1607.94 1010.08C1608.12 1009.84 1608.38 1009.63 1608.71 1009.44C1609.04 1009.25 1609.49 1009.16 1610.06 1009.16C1610.79 1009.16 1611.44 1009.34 1612 1009.71C1612.56 1010.08 1613 1010.6 1613.31 1011.27C1613.63 1011.95 1613.79 1012.74 1613.79 1013.66C1613.79 1014.58 1613.63 1015.38 1613.31 1016.06C1613 1016.74 1612.56 1017.26 1612.01 1017.63C1611.45 1018 1610.81 1018.18 1610.08 1018.18C1609.52 1018.18 1609.07 1018.09 1608.73 1017.9C1608.4 1017.71 1608.14 1017.5 1607.96 1017.26C1607.77 1017.02 1607.63 1016.82 1607.54 1016.66H1607.38V1018H1606.08ZM1607.4 1013.64C1607.4 1014.3 1607.5 1014.88 1607.69 1015.38C1607.88 1015.88 1608.16 1016.27 1608.54 1016.56C1608.91 1016.84 1609.36 1016.98 1609.9 1016.98C1610.46 1016.98 1610.93 1016.83 1611.3 1016.53C1611.68 1016.23 1611.97 1015.83 1612.15 1015.33C1612.35 1014.82 1612.44 1014.26 1612.44 1013.64C1612.44 1013.02 1612.35 1012.47 1612.16 1011.98C1611.97 1011.48 1611.69 1011.09 1611.31 1010.8C1610.94 1010.51 1610.47 1010.36 1609.9 1010.36C1609.35 1010.36 1608.9 1010.5 1608.52 1010.78C1608.15 1011.05 1607.87 1011.43 1607.68 1011.93C1607.49 1012.41 1607.4 1012.98 1607.4 1013.64ZM1617.18 1006.36V1018H1615.84V1006.36H1617.18ZM1623.29 1018.18C1622.45 1018.18 1621.73 1018 1621.12 1017.62C1620.51 1017.25 1620.04 1016.73 1619.71 1016.06C1619.39 1015.38 1619.22 1014.6 1619.22 1013.7C1619.22 1012.81 1619.39 1012.02 1619.71 1011.34C1620.04 1010.66 1620.5 1010.12 1621.09 1009.74C1621.68 1009.35 1622.37 1009.16 1623.16 1009.16C1623.61 1009.16 1624.06 1009.23 1624.5 1009.39C1624.95 1009.54 1625.35 1009.78 1625.71 1010.12C1626.08 1010.46 1626.37 1010.91 1626.58 1011.47C1626.8 1012.02 1626.91 1012.71 1626.91 1013.52V1014.09H1620.18V1012.93H1625.54C1625.54 1012.44 1625.44 1012 1625.25 1011.61C1625.05 1011.23 1624.78 1010.92 1624.42 1010.7C1624.06 1010.48 1623.64 1010.36 1623.16 1010.36C1622.62 1010.36 1622.16 1010.5 1621.77 1010.76C1621.38 1011.02 1621.09 1011.36 1620.88 1011.78C1620.67 1012.2 1620.57 1012.66 1620.57 1013.14V1013.91C1620.57 1014.57 1620.68 1015.13 1620.91 1015.59C1621.14 1016.04 1621.46 1016.39 1621.87 1016.62C1622.28 1016.86 1622.75 1016.98 1623.29 1016.98C1623.64 1016.98 1623.96 1016.93 1624.25 1016.83C1624.54 1016.73 1624.78 1016.58 1624.99 1016.38C1625.2 1016.17 1625.36 1015.92 1625.47 1015.61L1626.77 1015.98C1626.63 1016.42 1626.4 1016.8 1626.08 1017.14C1625.76 1017.47 1625.36 1017.72 1624.89 1017.91C1624.42 1018.09 1623.88 1018.18 1623.29 1018.18ZM1632.24 1018.18C1631.51 1018.18 1630.87 1018 1630.32 1017.63C1629.76 1017.26 1629.32 1016.74 1629.01 1016.06C1628.69 1015.38 1628.54 1014.58 1628.54 1013.66C1628.54 1012.74 1628.69 1011.95 1629.01 1011.27C1629.32 1010.6 1629.76 1010.08 1630.32 1009.71C1630.88 1009.34 1631.53 1009.16 1632.26 1009.16C1632.83 1009.16 1633.28 1009.25 1633.61 1009.44C1633.94 1009.63 1634.2 1009.84 1634.37 1010.08C1634.55 1010.31 1634.69 1010.51 1634.79 1010.66H1634.9V1006.36H1636.24V1018H1634.95V1016.66H1634.79C1634.69 1016.82 1634.55 1017.02 1634.37 1017.26C1634.18 1017.5 1633.93 1017.71 1633.59 1017.9C1633.25 1018.09 1632.8 1018.18 1632.24 1018.18ZM1632.42 1016.98C1632.96 1016.98 1633.42 1016.84 1633.79 1016.56C1634.16 1016.27 1634.44 1015.88 1634.63 1015.38C1634.83 1014.88 1634.92 1014.3 1634.92 1013.64C1634.92 1012.98 1634.83 1012.41 1634.64 1011.93C1634.45 1011.43 1634.17 1011.05 1633.8 1010.78C1633.43 1010.5 1632.97 1010.36 1632.42 1010.36C1631.86 1010.36 1631.38 1010.51 1631 1010.8C1630.63 1011.09 1630.35 1011.48 1630.16 1011.98C1629.97 1012.47 1629.88 1013.02 1629.88 1013.64C1629.88 1014.26 1629.97 1014.82 1630.16 1015.33C1630.36 1015.83 1630.64 1016.23 1631.01 1016.53C1631.39 1016.83 1631.86 1016.98 1632.42 1016.98Z" fill="white"/>
<rect x="795" y="865" width="80" height="80" rx="8" fill="#CC1100"/>
<rect x="675" y="865" width="80" height="80" rx="8" fill="#CC9C00"/>
<rect x="555" y="865" width="80" height="80" rx="8" fill="#0A8DCF"/>
<rect x="435" y="865" width="80" height="80" rx="8" fill="#6CA22A"/>
<rect x="315" y="865" width="80" height="80" rx="8" fill="#0A51CF"/>
<path d="M1573.89 902H1572.41L1576.68 890.364H1578.14L1582.41 902H1580.93L1577.45 892.205H1577.36L1573.89 902ZM1574.43 897.455H1580.39V898.705H1574.43V897.455ZM1587.59 902.182C1586.77 902.182 1586.06 901.989 1585.47 901.602C1584.88 901.216 1584.43 900.684 1584.11 900.006C1583.79 899.328 1583.63 898.553 1583.63 897.682C1583.63 896.795 1583.79 896.013 1584.12 895.335C1584.45 894.653 1584.91 894.121 1585.49 893.739C1586.09 893.352 1586.77 893.159 1587.56 893.159C1588.18 893.159 1588.73 893.273 1589.22 893.5C1589.71 893.727 1590.12 894.045 1590.43 894.455C1590.75 894.864 1590.94 895.341 1591.02 895.886H1589.68C1589.57 895.489 1589.35 895.136 1588.99 894.83C1588.65 894.519 1588.18 894.364 1587.59 894.364C1587.06 894.364 1586.6 894.5 1586.21 894.773C1585.82 895.042 1585.52 895.422 1585.3 895.915C1585.08 896.403 1584.97 896.977 1584.97 897.636C1584.97 898.311 1585.08 898.898 1585.29 899.398C1585.51 899.898 1585.81 900.286 1586.2 900.562C1586.59 900.839 1587.05 900.977 1587.59 900.977C1587.93 900.977 1588.25 900.917 1588.53 900.795C1588.82 900.674 1589.06 900.5 1589.26 900.273C1589.45 900.045 1589.59 899.773 1589.68 899.455H1591.02C1590.94 899.97 1590.75 900.434 1590.45 900.847C1590.16 901.256 1589.77 901.581 1589.28 901.824C1588.79 902.062 1588.23 902.182 1587.59 902.182ZM1596.77 893.273V894.409H1592.25V893.273H1596.77ZM1593.57 891.182H1594.91V899.5C1594.91 899.879 1594.96 900.163 1595.07 900.352C1595.19 900.538 1595.33 900.663 1595.51 900.727C1595.68 900.788 1595.87 900.818 1596.07 900.818C1596.22 900.818 1596.34 900.811 1596.43 900.795C1596.53 900.777 1596.6 900.761 1596.66 900.75L1596.93 901.955C1596.84 901.989 1596.71 902.023 1596.55 902.057C1596.39 902.095 1596.18 902.114 1595.93 902.114C1595.55 902.114 1595.18 902.032 1594.82 901.869C1594.46 901.706 1594.16 901.458 1593.92 901.125C1593.69 900.792 1593.57 900.371 1593.57 899.864V891.182ZM1598.79 902V893.273H1600.13V902H1598.79ZM1599.47 891.818C1599.21 891.818 1598.98 891.729 1598.8 891.551C1598.61 891.373 1598.52 891.159 1598.52 890.909C1598.52 890.659 1598.61 890.445 1598.8 890.267C1598.98 890.089 1599.21 890 1599.47 890C1599.73 890 1599.96 890.089 1600.14 890.267C1600.33 890.445 1600.43 890.659 1600.43 890.909C1600.43 891.159 1600.33 891.373 1600.14 891.551C1599.96 891.729 1599.73 891.818 1599.47 891.818ZM1609.72 893.273L1606.5 902H1605.13L1601.9 893.273H1603.36L1605.77 900.227H1605.86L1608.27 893.273H1609.72ZM1614.84 902.182C1614 902.182 1613.27 901.996 1612.66 901.625C1612.06 901.25 1611.59 900.727 1611.26 900.057C1610.93 899.383 1610.77 898.598 1610.77 897.705C1610.77 896.811 1610.93 896.023 1611.26 895.341C1611.59 894.655 1612.05 894.121 1612.63 893.739C1613.23 893.352 1613.92 893.159 1614.7 893.159C1615.16 893.159 1615.61 893.235 1616.05 893.386C1616.49 893.538 1616.9 893.784 1617.26 894.125C1617.62 894.462 1617.91 894.909 1618.13 895.466C1618.35 896.023 1618.45 896.708 1618.45 897.523V898.091H1611.73V896.932H1617.09C1617.09 896.439 1616.99 896 1616.79 895.614C1616.6 895.227 1616.32 894.922 1615.96 894.699C1615.61 894.475 1615.19 894.364 1614.7 894.364C1614.17 894.364 1613.71 894.496 1613.32 894.761C1612.93 895.023 1612.63 895.364 1612.42 895.784C1612.22 896.205 1612.11 896.655 1612.11 897.136V897.909C1612.11 898.568 1612.23 899.127 1612.45 899.585C1612.68 900.04 1613 900.386 1613.41 900.625C1613.82 900.86 1614.3 900.977 1614.84 900.977C1615.19 900.977 1615.51 900.928 1615.79 900.83C1616.08 900.727 1616.33 900.576 1616.54 900.375C1616.75 900.17 1616.91 899.917 1617.02 899.614L1618.32 899.977C1618.18 900.417 1617.95 900.803 1617.63 901.136C1617.31 901.466 1616.91 901.723 1616.44 901.909C1615.96 902.091 1615.43 902.182 1614.84 902.182Z" fill="white"/>
<rect x="795" y="633" width="80" height="80" rx="8" fill="#FF1500"/>
<rect x="675" y="749" width="80" height="80" rx="8" fill="#FFDB66"/>
<rect x="555" y="749" width="80" height="80" rx="8" fill="#48D4F6"/>
<rect x="435" y="749" width="80" height="80" rx="8" fill="#B7E085"/>
<rect x="315" y="749" width="80" height="80" rx="8" fill="#4895F6"/>
<path d="M1573.41 786V774.364H1574.82V779.545H1581.02V774.364H1582.43V786H1581.02V780.795H1574.82V786H1573.41ZM1588.62 786.182C1587.83 786.182 1587.14 785.994 1586.54 785.619C1585.95 785.244 1585.49 784.72 1585.16 784.045C1584.83 783.371 1584.66 782.583 1584.66 781.682C1584.66 780.773 1584.83 779.979 1585.16 779.301C1585.49 778.623 1585.95 778.097 1586.54 777.722C1587.14 777.347 1587.83 777.159 1588.62 777.159C1589.4 777.159 1590.09 777.347 1590.68 777.722C1591.28 778.097 1591.74 778.623 1592.07 779.301C1592.4 779.979 1592.57 780.773 1592.57 781.682C1592.57 782.583 1592.4 783.371 1592.07 784.045C1591.74 784.72 1591.28 785.244 1590.68 785.619C1590.09 785.994 1589.4 786.182 1588.62 786.182ZM1588.62 784.977C1589.21 784.977 1589.71 784.824 1590.09 784.517C1590.48 784.21 1590.77 783.807 1590.95 783.307C1591.14 782.807 1591.23 782.265 1591.23 781.682C1591.23 781.098 1591.14 780.555 1590.95 780.051C1590.77 779.547 1590.48 779.14 1590.09 778.83C1589.71 778.519 1589.21 778.364 1588.62 778.364C1588.02 778.364 1587.53 778.519 1587.14 778.83C1586.75 779.14 1586.47 779.547 1586.28 780.051C1586.1 780.555 1586 781.098 1586 781.682C1586 782.265 1586.1 782.807 1586.28 783.307C1586.47 783.807 1586.75 784.21 1587.14 784.517C1587.53 784.824 1588.02 784.977 1588.62 784.977ZM1601.44 777.273L1598.21 786H1596.85L1593.62 777.273H1595.08L1597.49 784.227H1597.58L1599.99 777.273H1601.44ZM1606.56 786.182C1605.72 786.182 1604.99 785.996 1604.38 785.625C1603.78 785.25 1603.31 784.727 1602.98 784.057C1602.65 783.383 1602.49 782.598 1602.49 781.705C1602.49 780.811 1602.65 780.023 1602.98 779.341C1603.31 778.655 1603.77 778.121 1604.35 777.739C1604.94 777.352 1605.63 777.159 1606.42 777.159C1606.88 777.159 1607.33 777.235 1607.77 777.386C1608.21 777.538 1608.62 777.784 1608.98 778.125C1609.34 778.462 1609.63 778.909 1609.85 779.466C1610.06 780.023 1610.17 780.708 1610.17 781.523V782.091H1603.44V780.932H1608.81C1608.81 780.439 1608.71 780 1608.51 779.614C1608.32 779.227 1608.04 778.922 1607.68 778.699C1607.33 778.475 1606.91 778.364 1606.42 778.364C1605.89 778.364 1605.43 778.496 1605.04 778.761C1604.65 779.023 1604.35 779.364 1604.14 779.784C1603.94 780.205 1603.83 780.655 1603.83 781.136V781.909C1603.83 782.568 1603.94 783.127 1604.17 783.585C1604.4 784.04 1604.72 784.386 1605.13 784.625C1605.54 784.86 1606.02 784.977 1606.56 784.977C1606.91 784.977 1607.23 784.928 1607.51 784.83C1607.8 784.727 1608.05 784.576 1608.26 784.375C1608.47 784.17 1608.63 783.917 1608.74 783.614L1610.04 783.977C1609.9 784.417 1609.67 784.803 1609.35 785.136C1609.03 785.466 1608.63 785.723 1608.15 785.909C1607.68 786.091 1607.15 786.182 1606.56 786.182ZM1612.21 786V777.273H1613.51V778.591H1613.6C1613.76 778.159 1614.04 777.809 1614.46 777.54C1614.88 777.271 1615.35 777.136 1615.87 777.136C1615.97 777.136 1616.09 777.138 1616.24 777.142C1616.39 777.146 1616.5 777.152 1616.58 777.159V778.523C1616.53 778.511 1616.43 778.494 1616.26 778.472C1616.1 778.445 1615.94 778.432 1615.76 778.432C1615.33 778.432 1614.95 778.521 1614.62 778.699C1614.29 778.873 1614.03 779.116 1613.84 779.426C1613.65 779.733 1613.55 780.083 1613.55 780.477V786H1612.21Z" fill="white"/>
<rect x="795" y="749" width="80" height="80" rx="8" fill="#FF7366"/>
<rect x="675" y="633" width="80" height="80" rx="8" fill="#FFC300"/>
<rect x="555" y="633" width="80" height="80" rx="8" fill="#0EB5F1"/>
<rect x="435" y="633" width="80" height="80" rx="8" fill="#87CB34"/>
<rect x="315" y="633" width="80" height="80" rx="8" fill="#0E69F1"/>
<path d="M1573.41 670V658.364H1577.34C1578.25 658.364 1579 658.519 1579.58 658.83C1580.16 659.136 1580.59 659.559 1580.88 660.097C1581.16 660.634 1581.3 661.246 1581.3 661.932C1581.3 662.617 1581.16 663.225 1580.88 663.756C1580.59 664.286 1580.16 664.703 1579.59 665.006C1579.01 665.305 1578.27 665.455 1577.36 665.455H1574.18V664.182H1577.32C1577.94 664.182 1578.44 664.091 1578.82 663.909C1579.2 663.727 1579.48 663.47 1579.65 663.136C1579.82 662.799 1579.91 662.398 1579.91 661.932C1579.91 661.466 1579.82 661.059 1579.65 660.71C1579.47 660.362 1579.2 660.093 1578.81 659.903C1578.43 659.71 1577.92 659.614 1577.3 659.614H1574.82V670H1573.41ZM1578.89 664.773L1581.75 670H1580.11L1577.3 664.773H1578.89ZM1587.03 670.182C1586.19 670.182 1585.46 669.996 1584.85 669.625C1584.24 669.25 1583.78 668.727 1583.45 668.057C1583.12 667.383 1582.96 666.598 1582.96 665.705C1582.96 664.811 1583.12 664.023 1583.45 663.341C1583.78 662.655 1584.24 662.121 1584.82 661.739C1585.41 661.352 1586.1 661.159 1586.89 661.159C1587.35 661.159 1587.79 661.235 1588.24 661.386C1588.68 661.538 1589.08 661.784 1589.45 662.125C1589.81 662.462 1590.1 662.909 1590.32 663.466C1590.53 664.023 1590.64 664.708 1590.64 665.523V666.091H1583.91V664.932H1589.28C1589.28 664.439 1589.18 664 1588.98 663.614C1588.79 663.227 1588.51 662.922 1588.15 662.699C1587.8 662.475 1587.38 662.364 1586.89 662.364C1586.36 662.364 1585.89 662.496 1585.5 662.761C1585.12 663.023 1584.82 663.364 1584.61 663.784C1584.4 664.205 1584.3 664.655 1584.3 665.136V665.909C1584.3 666.568 1584.41 667.127 1584.64 667.585C1584.87 668.04 1585.19 668.386 1585.6 668.625C1586.01 668.86 1586.49 668.977 1587.03 668.977C1587.38 668.977 1587.7 668.928 1587.98 668.83C1588.27 668.727 1588.52 668.576 1588.73 668.375C1588.93 668.17 1589.1 667.917 1589.21 667.614L1590.5 667.977C1590.37 668.417 1590.14 668.803 1589.82 669.136C1589.49 669.466 1589.1 669.723 1588.62 669.909C1588.15 670.091 1587.62 670.182 1587.03 670.182ZM1596.2 673.455C1595.56 673.455 1595 673.371 1594.53 673.205C1594.07 673.042 1593.68 672.826 1593.37 672.557C1593.06 672.292 1592.82 672.008 1592.63 671.705L1593.7 670.955C1593.82 671.114 1593.98 671.295 1594.16 671.5C1594.35 671.708 1594.6 671.888 1594.92 672.04C1595.25 672.195 1595.68 672.273 1596.2 672.273C1596.91 672.273 1597.49 672.102 1597.95 671.761C1598.41 671.42 1598.63 670.886 1598.63 670.159V668.386H1598.52C1598.42 668.545 1598.28 668.742 1598.1 668.977C1597.92 669.208 1597.67 669.415 1597.33 669.597C1596.99 669.775 1596.54 669.864 1595.98 669.864C1595.27 669.864 1594.64 669.697 1594.08 669.364C1593.52 669.03 1593.08 668.545 1592.75 667.909C1592.43 667.273 1592.27 666.5 1592.27 665.591C1592.27 664.697 1592.43 663.919 1592.74 663.256C1593.06 662.589 1593.49 662.074 1594.06 661.71C1594.62 661.343 1595.26 661.159 1596 661.159C1596.57 661.159 1597.02 661.254 1597.35 661.443C1597.69 661.629 1597.95 661.841 1598.12 662.08C1598.31 662.314 1598.45 662.508 1598.54 662.659H1598.68V661.273H1599.98V670.25C1599.98 671 1599.81 671.61 1599.46 672.08C1599.13 672.553 1598.67 672.9 1598.1 673.119C1597.53 673.343 1596.9 673.455 1596.2 673.455ZM1596.16 668.659C1596.7 668.659 1597.15 668.536 1597.52 668.29C1597.89 668.044 1598.17 667.689 1598.37 667.227C1598.56 666.765 1598.66 666.212 1598.66 665.568C1598.66 664.939 1598.56 664.384 1598.37 663.903C1598.18 663.422 1597.9 663.045 1597.53 662.773C1597.16 662.5 1596.7 662.364 1596.16 662.364C1595.59 662.364 1595.12 662.508 1594.74 662.795C1594.36 663.083 1594.08 663.47 1593.89 663.955C1593.71 664.439 1593.61 664.977 1593.61 665.568C1593.61 666.174 1593.71 666.71 1593.9 667.176C1594.09 667.638 1594.37 668.002 1594.75 668.267C1595.13 668.528 1595.6 668.659 1596.16 668.659ZM1607.93 666.432V661.273H1609.27V670H1607.93V668.523H1607.84C1607.63 668.966 1607.32 669.343 1606.88 669.653C1606.45 669.96 1605.91 670.114 1605.25 670.114C1604.7 670.114 1604.22 669.994 1603.79 669.756C1603.37 669.513 1603.04 669.15 1602.79 668.665C1602.55 668.176 1602.43 667.561 1602.43 666.818V661.273H1603.77V666.727C1603.77 667.364 1603.95 667.871 1604.31 668.25C1604.67 668.629 1605.12 668.818 1605.68 668.818C1606.01 668.818 1606.35 668.733 1606.7 668.562C1607.05 668.392 1607.34 668.131 1607.57 667.778C1607.81 667.426 1607.93 666.977 1607.93 666.432ZM1613.07 658.364V670H1611.73V658.364H1613.07ZM1618.09 670.205C1617.54 670.205 1617.04 670.1 1616.59 669.892C1616.14 669.68 1615.78 669.375 1615.51 668.977C1615.25 668.576 1615.12 668.091 1615.12 667.523C1615.12 667.023 1615.21 666.617 1615.41 666.307C1615.61 665.992 1615.87 665.746 1616.2 665.568C1616.53 665.39 1616.89 665.258 1617.29 665.17C1617.69 665.08 1618.1 665.008 1618.5 664.955C1619.03 664.886 1619.46 664.835 1619.79 664.801C1620.12 664.763 1620.37 664.701 1620.52 664.614C1620.67 664.527 1620.75 664.375 1620.75 664.159V664.114C1620.75 663.553 1620.6 663.117 1620.29 662.807C1619.99 662.496 1619.53 662.341 1618.91 662.341C1618.27 662.341 1617.77 662.481 1617.4 662.761C1617.04 663.042 1616.79 663.341 1616.64 663.659L1615.37 663.205C1615.59 662.674 1615.9 662.261 1616.27 661.966C1616.66 661.667 1617.07 661.458 1617.52 661.341C1617.98 661.22 1618.43 661.159 1618.87 661.159C1619.15 661.159 1619.47 661.193 1619.83 661.261C1620.2 661.326 1620.55 661.46 1620.89 661.665C1621.24 661.869 1621.52 662.178 1621.75 662.591C1621.98 663.004 1622.09 663.557 1622.09 664.25V670H1620.75V668.818H1620.68C1620.59 669.008 1620.44 669.21 1620.23 669.426C1620.02 669.642 1619.73 669.826 1619.38 669.977C1619.03 670.129 1618.6 670.205 1618.09 670.205ZM1618.3 669C1618.83 669 1619.27 668.896 1619.64 668.688C1620.01 668.479 1620.28 668.21 1620.47 667.881C1620.66 667.551 1620.75 667.205 1620.75 666.841V665.614C1620.69 665.682 1620.57 665.744 1620.38 665.801C1620.19 665.854 1619.97 665.902 1619.72 665.943C1619.47 665.981 1619.23 666.015 1619 666.045C1618.76 666.072 1618.58 666.095 1618.43 666.114C1618.08 666.159 1617.76 666.233 1617.46 666.335C1617.16 666.434 1616.91 666.583 1616.73 666.784C1616.55 666.981 1616.46 667.25 1616.46 667.591C1616.46 668.057 1616.63 668.409 1616.97 668.648C1617.32 668.883 1617.76 669 1618.3 669ZM1624.54 670V661.273H1625.84V662.591H1625.93C1626.09 662.159 1626.37 661.809 1626.79 661.54C1627.21 661.271 1627.68 661.136 1628.2 661.136C1628.3 661.136 1628.42 661.138 1628.57 661.142C1628.72 661.146 1628.83 661.152 1628.9 661.159V662.523C1628.86 662.511 1628.75 662.494 1628.59 662.472C1628.43 662.445 1628.26 662.432 1628.09 662.432C1627.66 662.432 1627.28 662.521 1626.95 662.699C1626.62 662.873 1626.36 663.116 1626.16 663.426C1625.98 663.733 1625.88 664.083 1625.88 664.477V670H1624.54Z" fill="white"/>
<path d="M49.9091 664H43.0909V640.727H50.3182C52.5379 640.727 54.4356 641.189 56.0114 642.114C57.5947 643.038 58.8068 644.364 59.6477 646.091C60.4886 647.818 60.9091 649.89 60.9091 652.307C60.9091 654.746 60.4773 656.841 59.6136 658.591C58.7576 660.333 57.5076 661.67 55.8636 662.602C54.2273 663.534 52.2424 664 49.9091 664ZM45.2159 662.091H49.7841C51.7841 662.091 53.4583 661.697 54.8068 660.909C56.1553 660.121 57.1667 658.996 57.8409 657.534C58.5152 656.072 58.8523 654.33 58.8523 652.307C58.8447 650.299 58.5114 648.572 57.8523 647.125C57.2008 645.678 56.2311 644.568 54.9432 643.795C53.6629 643.023 52.0795 642.636 50.1932 642.636H45.2159V662.091ZM70.5142 664.398C69.4612 664.398 68.4991 664.193 67.6278 663.784C66.7566 663.367 66.0634 662.769 65.5483 661.989C65.0331 661.201 64.7756 660.246 64.7756 659.125C64.7756 658.261 64.9384 657.534 65.2642 656.943C65.59 656.352 66.0521 655.867 66.6506 655.489C67.2491 655.11 67.9574 654.811 68.7756 654.591C69.5938 654.371 70.4953 654.201 71.4801 654.08C72.4574 653.958 73.2831 653.852 73.9574 653.761C74.6392 653.67 75.1581 653.527 75.5142 653.33C75.8703 653.133 76.0483 652.814 76.0483 652.375V651.966C76.0483 650.777 75.6922 649.841 74.9801 649.159C74.2756 648.47 73.2604 648.125 71.9347 648.125C70.6771 648.125 69.6506 648.402 68.8551 648.955C68.0672 649.508 67.5142 650.159 67.196 650.909L65.2756 650.216C65.6695 649.261 66.215 648.5 66.9119 647.932C67.6089 647.356 68.3892 646.943 69.2528 646.693C70.1165 646.436 70.9915 646.307 71.8778 646.307C72.5445 646.307 73.2377 646.394 73.9574 646.568C74.6847 646.742 75.3589 647.045 75.9801 647.477C76.6013 647.902 77.1051 648.496 77.4915 649.261C77.8778 650.019 78.071 650.981 78.071 652.148V664H76.0483V661.239H75.9233C75.6809 661.754 75.321 662.254 74.8438 662.739C74.3665 663.223 73.768 663.621 73.0483 663.932C72.3286 664.242 71.4839 664.398 70.5142 664.398ZM70.7869 662.545C71.8627 662.545 72.7945 662.307 73.5824 661.83C74.3703 661.352 74.9763 660.72 75.4006 659.932C75.8324 659.136 76.0483 658.261 76.0483 657.307V654.784C75.8968 654.928 75.643 655.057 75.2869 655.17C74.9384 655.284 74.5331 655.386 74.071 655.477C73.6165 655.561 73.1619 655.633 72.7074 655.693C72.2528 655.754 71.8438 655.807 71.4801 655.852C70.4953 655.973 69.6544 656.163 68.9574 656.42C68.2604 656.678 67.7263 657.034 67.3551 657.489C66.9839 657.936 66.7983 658.511 66.7983 659.216C66.7983 660.277 67.1771 661.098 67.9347 661.682C68.6922 662.258 69.643 662.545 70.7869 662.545ZM83.4517 664V646.545H85.4176V649.227H85.5653C85.9138 648.348 86.5199 647.64 87.3835 647.102C88.2547 646.557 89.2396 646.284 90.3381 646.284C90.5047 646.284 90.6903 646.288 90.8949 646.295C91.0994 646.303 91.2699 646.311 91.4062 646.318V648.375C91.3153 648.36 91.1563 648.337 90.929 648.307C90.7017 648.277 90.4555 648.261 90.1903 648.261C89.2813 648.261 88.4706 648.455 87.7585 648.841C87.054 649.22 86.4972 649.746 86.0881 650.42C85.679 651.095 85.4744 651.864 85.4744 652.727V664H83.4517ZM96.6989 657.409L96.6761 654.761H97.1307L105.312 646.545H107.869L99.7898 654.636L99.608 654.67L96.6989 657.409ZM94.858 664V640.727H96.8807V664H94.858ZM105.733 664L98.642 655.034L100.097 653.636L108.324 664H105.733ZM120.67 664V646.545H122.636V649.227H122.818C123.167 648.326 123.746 647.617 124.557 647.102C125.375 646.58 126.356 646.318 127.5 646.318C128.705 646.318 129.693 646.602 130.466 647.17C131.246 647.731 131.83 648.504 132.216 649.489H132.364C132.758 648.519 133.398 647.75 134.284 647.182C135.178 646.606 136.261 646.318 137.534 646.318C139.155 646.318 140.436 646.83 141.375 647.852C142.314 648.867 142.784 650.352 142.784 652.307V664H140.761V652.307C140.761 650.928 140.409 649.894 139.705 649.205C139 648.515 138.072 648.17 136.92 648.17C135.587 648.17 134.561 648.58 133.841 649.398C133.121 650.216 132.761 651.254 132.761 652.511V664H130.693V652.125C130.693 650.943 130.364 649.989 129.705 649.261C129.045 648.534 128.117 648.17 126.92 648.17C126.117 648.17 125.394 648.367 124.75 648.761C124.114 649.155 123.61 649.705 123.239 650.409C122.875 651.106 122.693 651.909 122.693 652.818V664H120.67ZM154.923 664.364C153.416 664.364 152.082 663.981 150.923 663.216C149.772 662.451 148.87 661.394 148.219 660.045C147.567 658.689 147.241 657.125 147.241 655.352C147.241 653.564 147.567 651.992 148.219 650.636C148.87 649.273 149.772 648.212 150.923 647.455C152.082 646.689 153.416 646.307 154.923 646.307C156.431 646.307 157.76 646.689 158.912 647.455C160.063 648.22 160.965 649.28 161.616 650.636C162.276 651.992 162.605 653.564 162.605 655.352C162.605 657.125 162.279 658.689 161.628 660.045C160.976 661.394 160.071 662.451 158.912 663.216C157.76 663.981 156.431 664.364 154.923 664.364ZM154.923 662.511C156.135 662.511 157.162 662.186 158.003 661.534C158.844 660.883 159.48 660.015 159.912 658.932C160.351 657.848 160.571 656.655 160.571 655.352C160.571 654.049 160.351 652.852 159.912 651.761C159.48 650.67 158.844 649.795 158.003 649.136C157.162 648.477 156.135 648.148 154.923 648.148C153.719 648.148 152.692 648.477 151.844 649.136C151.003 649.795 150.363 650.67 149.923 651.761C149.491 652.852 149.276 654.049 149.276 655.352C149.276 656.655 149.491 657.848 149.923 658.932C150.363 660.015 151.003 660.883 151.844 661.534C152.685 662.186 153.711 662.511 154.923 662.511ZM173.33 664.364C171.898 664.364 170.644 663.985 169.568 663.227C168.492 662.47 167.652 661.413 167.045 660.057C166.447 658.701 166.148 657.121 166.148 655.318C166.148 653.523 166.447 651.951 167.045 650.602C167.652 649.246 168.496 648.193 169.58 647.443C170.663 646.686 171.924 646.307 173.364 646.307C174.424 646.307 175.307 646.496 176.011 646.875C176.716 647.246 177.28 647.708 177.705 648.261C178.129 648.814 178.458 649.352 178.693 649.875H178.875V640.727H180.909V664H178.932V660.761H178.693C178.458 661.292 178.125 661.837 177.693 662.398C177.261 662.951 176.689 663.417 175.977 663.795C175.273 664.174 174.39 664.364 173.33 664.364ZM173.568 662.511C174.697 662.511 175.659 662.205 176.455 661.591C177.25 660.97 177.856 660.117 178.273 659.034C178.697 657.943 178.909 656.693 178.909 655.284C178.909 653.89 178.701 652.659 178.284 651.591C177.867 650.515 177.261 649.674 176.466 649.068C175.67 648.455 174.705 648.148 173.568 648.148C172.402 648.148 171.417 648.466 170.614 649.102C169.818 649.731 169.212 650.583 168.795 651.659C168.386 652.735 168.182 653.943 168.182 655.284C168.182 656.64 168.39 657.864 168.807 658.955C169.223 660.045 169.83 660.913 170.625 661.557C171.428 662.193 172.409 662.511 173.568 662.511ZM193.727 664.364C192.098 664.364 190.689 663.985 189.5 663.227C188.311 662.462 187.39 661.405 186.739 660.057C186.095 658.701 185.773 657.14 185.773 655.375C185.773 653.617 186.095 652.057 186.739 650.693C187.39 649.322 188.288 648.25 189.432 647.477C190.583 646.697 191.913 646.307 193.42 646.307C194.367 646.307 195.28 646.481 196.159 646.83C197.038 647.17 197.826 647.697 198.523 648.409C199.227 649.114 199.784 650.004 200.193 651.08C200.602 652.148 200.807 653.413 200.807 654.875V655.875H187.17V654.091H198.739C198.739 652.97 198.511 651.962 198.057 651.068C197.61 650.167 196.985 649.455 196.182 648.932C195.386 648.409 194.466 648.148 193.42 648.148C192.314 648.148 191.341 648.443 190.5 649.034C189.659 649.625 189 650.405 188.523 651.375C188.053 652.345 187.814 653.405 187.807 654.557V655.625C187.807 657.011 188.045 658.223 188.523 659.261C189.008 660.292 189.693 661.091 190.58 661.659C191.466 662.227 192.515 662.511 193.727 662.511C194.553 662.511 195.277 662.383 195.898 662.125C196.527 661.867 197.053 661.523 197.477 661.091C197.909 660.652 198.235 660.17 198.455 659.648L200.375 660.273C200.11 661.008 199.674 661.686 199.068 662.307C198.47 662.928 197.72 663.428 196.818 663.807C195.924 664.178 194.894 664.364 193.727 664.364Z" fill="white"/>
<rect x="795" y="473" width="80" height="80" rx="8" fill="#FFD0CC"/>
<rect x="915.5" y="473.5" width="79" height="79" rx="7.5" fill="white" stroke="#151A30"/>
<rect x="915" y="981" width="80" height="80" rx="8" fill="white"/>
<rect x="1035" y="473" width="80" height="80" rx="8" fill="#7580AE"/>
<rect x="1155" y="473" width="80" height="80" rx="8" fill="#E3E4E8"/>
<rect x="1395" y="124" width="80" height="80" rx="8" fill="#E3E4E8"/>
<rect x="1395" y="473" width="80" height="80" rx="8" fill="#F9F9FA"/>
<rect x="1395" y="981" width="80" height="80" rx="8" fill="#F9F9FA"/>
<rect x="1395" y="357" width="80" height="80" rx="8" fill="#D3D4D8"/>
<rect x="1395" y="865" width="80" height="80" rx="8" fill="#D3D4D8"/>
<rect x="1395" y="241" width="80" height="80" rx="8" fill="#F3F4F5"/>
<rect x="1395" y="749" width="80" height="80" rx="8" fill="#F3F4F5"/>
<rect x="1395" y="633" width="80" height="80" rx="8" fill="#E3E4E8"/>
<rect x="1155" y="981" width="80" height="80" rx="8" fill="#E3E4E8"/>
<rect x="1035" y="981" width="80" height="80" rx="8" fill="#7580AE"/>
<rect x="675" y="473" width="80" height="80" rx="8" fill="#FFF3CC"/>
<rect x="555" y="473" width="80" height="80" rx="8" fill="#CEFEFD"/>
<rect x="435" y="473" width="80" height="80" rx="8" fill="#E7F5D6"/>
<rect x="315" y="473" width="80" height="80" rx="8" fill="#CEE9FE"/>
<rect x="795" y="357" width="80" height="80" rx="8" fill="#CC1100"/>
<path d="M1577 510H1573.41V498.364H1577.16C1578.29 498.364 1579.25 498.597 1580.06 499.062C1580.86 499.525 1581.48 500.189 1581.9 501.057C1582.33 501.92 1582.55 502.955 1582.55 504.159C1582.55 505.371 1582.33 506.415 1581.9 507.29C1581.47 508.161 1580.84 508.831 1580.01 509.301C1579.19 509.767 1578.18 510 1577 510ZM1574.82 508.75H1576.91C1577.87 508.75 1578.67 508.564 1579.3 508.193C1579.93 507.822 1580.41 507.294 1580.72 506.608C1581.03 505.922 1581.18 505.106 1581.18 504.159C1581.18 503.22 1581.03 502.411 1580.72 501.733C1580.41 501.051 1579.96 500.528 1579.35 500.165C1578.74 499.797 1577.98 499.614 1577.07 499.614H1574.82V508.75ZM1584.73 510V501.273H1586.07V510H1584.73ZM1585.41 499.818C1585.15 499.818 1584.92 499.729 1584.73 499.551C1584.55 499.373 1584.45 499.159 1584.45 498.909C1584.45 498.659 1584.55 498.445 1584.73 498.267C1584.92 498.089 1585.15 498 1585.41 498C1585.67 498 1585.89 498.089 1586.08 498.267C1586.27 498.445 1586.36 498.659 1586.36 498.909C1586.36 499.159 1586.27 499.373 1586.08 499.551C1585.89 499.729 1585.67 499.818 1585.41 499.818ZM1594.71 503.227L1593.5 503.568C1593.43 503.367 1593.31 503.172 1593.17 502.983C1593.02 502.79 1592.83 502.631 1592.58 502.506C1592.33 502.381 1592.01 502.318 1591.62 502.318C1591.08 502.318 1590.64 502.441 1590.28 502.688C1589.93 502.93 1589.75 503.239 1589.75 503.614C1589.75 503.947 1589.87 504.21 1590.12 504.403C1590.36 504.597 1590.74 504.758 1591.25 504.886L1592.55 505.205C1593.33 505.394 1593.91 505.684 1594.29 506.074C1594.67 506.46 1594.87 506.958 1594.87 507.568C1594.87 508.068 1594.72 508.515 1594.43 508.909C1594.15 509.303 1593.75 509.614 1593.24 509.841C1592.73 510.068 1592.13 510.182 1591.46 510.182C1590.57 510.182 1589.83 509.989 1589.25 509.602C1588.66 509.216 1588.29 508.652 1588.14 507.909L1589.41 507.591C1589.53 508.061 1589.76 508.413 1590.1 508.648C1590.44 508.883 1590.88 509 1591.43 509C1592.06 509 1592.55 508.867 1592.92 508.602C1593.29 508.333 1593.48 508.011 1593.48 507.636C1593.48 507.333 1593.37 507.08 1593.16 506.875C1592.95 506.667 1592.62 506.511 1592.18 506.409L1590.73 506.068C1589.93 505.879 1589.34 505.585 1588.97 505.188C1588.6 504.786 1588.41 504.284 1588.41 503.682C1588.41 503.189 1588.55 502.754 1588.83 502.375C1589.11 501.996 1589.49 501.699 1589.97 501.483C1590.45 501.267 1591 501.159 1591.62 501.159C1592.48 501.159 1593.16 501.348 1593.65 501.727C1594.15 502.106 1594.5 502.606 1594.71 503.227ZM1599.45 510.205C1598.9 510.205 1598.4 510.1 1597.95 509.892C1597.5 509.68 1597.14 509.375 1596.87 508.977C1596.61 508.576 1596.47 508.091 1596.47 507.523C1596.47 507.023 1596.57 506.617 1596.77 506.307C1596.97 505.992 1597.23 505.746 1597.56 505.568C1597.89 505.39 1598.25 505.258 1598.65 505.17C1599.05 505.08 1599.46 505.008 1599.86 504.955C1600.39 504.886 1600.82 504.835 1601.15 504.801C1601.48 504.763 1601.73 504.701 1601.88 504.614C1602.03 504.527 1602.11 504.375 1602.11 504.159V504.114C1602.11 503.553 1601.96 503.117 1601.65 502.807C1601.35 502.496 1600.89 502.341 1600.27 502.341C1599.63 502.341 1599.13 502.481 1598.76 502.761C1598.4 503.042 1598.14 503.341 1598 503.659L1596.72 503.205C1596.95 502.674 1597.25 502.261 1597.63 501.966C1598.02 501.667 1598.43 501.458 1598.88 501.341C1599.34 501.22 1599.79 501.159 1600.22 501.159C1600.5 501.159 1600.83 501.193 1601.19 501.261C1601.56 501.326 1601.91 501.46 1602.25 501.665C1602.6 501.869 1602.88 502.178 1603.11 502.591C1603.34 503.004 1603.45 503.557 1603.45 504.25V510H1602.11V508.818H1602.04C1601.95 509.008 1601.8 509.21 1601.59 509.426C1601.38 509.642 1601.09 509.826 1600.74 509.977C1600.39 510.129 1599.96 510.205 1599.45 510.205ZM1599.66 509C1600.19 509 1600.63 508.896 1601 508.688C1601.36 508.479 1601.64 508.21 1601.83 507.881C1602.02 507.551 1602.11 507.205 1602.11 506.841V505.614C1602.05 505.682 1601.93 505.744 1601.74 505.801C1601.55 505.854 1601.33 505.902 1601.08 505.943C1600.83 505.981 1600.59 506.015 1600.36 506.045C1600.12 506.072 1599.94 506.095 1599.79 506.114C1599.44 506.159 1599.12 506.233 1598.82 506.335C1598.52 506.434 1598.27 506.583 1598.09 506.784C1597.91 506.981 1597.82 507.25 1597.82 507.591C1597.82 508.057 1597.99 508.409 1598.33 508.648C1598.68 508.883 1599.12 509 1599.66 509ZM1606.08 510V498.364H1607.42V502.659H1607.54C1607.63 502.508 1607.77 502.314 1607.94 502.08C1608.12 501.841 1608.38 501.629 1608.71 501.443C1609.04 501.254 1609.49 501.159 1610.06 501.159C1610.79 501.159 1611.44 501.343 1612 501.71C1612.56 502.078 1613 502.598 1613.31 503.273C1613.63 503.947 1613.79 504.742 1613.79 505.659C1613.79 506.583 1613.63 507.384 1613.31 508.062C1613 508.737 1612.56 509.259 1612.01 509.631C1611.45 509.998 1610.81 510.182 1610.08 510.182C1609.52 510.182 1609.07 510.089 1608.73 509.903C1608.4 509.714 1608.14 509.5 1607.96 509.261C1607.77 509.019 1607.63 508.818 1607.54 508.659H1607.38V510H1606.08ZM1607.4 505.636C1607.4 506.295 1607.5 506.877 1607.69 507.381C1607.88 507.881 1608.16 508.273 1608.54 508.557C1608.91 508.837 1609.36 508.977 1609.9 508.977C1610.46 508.977 1610.93 508.83 1611.3 508.534C1611.68 508.235 1611.97 507.833 1612.15 507.33C1612.35 506.822 1612.44 506.258 1612.44 505.636C1612.44 505.023 1612.35 504.47 1612.16 503.977C1611.97 503.481 1611.69 503.089 1611.31 502.801C1610.94 502.509 1610.47 502.364 1609.9 502.364C1609.35 502.364 1608.9 502.502 1608.52 502.778C1608.15 503.051 1607.87 503.434 1607.68 503.926C1607.49 504.415 1607.4 504.985 1607.4 505.636ZM1617.18 498.364V510H1615.84V498.364H1617.18ZM1623.29 510.182C1622.45 510.182 1621.73 509.996 1621.12 509.625C1620.51 509.25 1620.04 508.727 1619.71 508.057C1619.39 507.383 1619.22 506.598 1619.22 505.705C1619.22 504.811 1619.39 504.023 1619.71 503.341C1620.04 502.655 1620.5 502.121 1621.09 501.739C1621.68 501.352 1622.37 501.159 1623.16 501.159C1623.61 501.159 1624.06 501.235 1624.5 501.386C1624.95 501.538 1625.35 501.784 1625.71 502.125C1626.08 502.462 1626.37 502.909 1626.58 503.466C1626.8 504.023 1626.91 504.708 1626.91 505.523V506.091H1620.18V504.932H1625.54C1625.54 504.439 1625.44 504 1625.25 503.614C1625.05 503.227 1624.78 502.922 1624.42 502.699C1624.06 502.475 1623.64 502.364 1623.16 502.364C1622.62 502.364 1622.16 502.496 1621.77 502.761C1621.38 503.023 1621.09 503.364 1620.88 503.784C1620.67 504.205 1620.57 504.655 1620.57 505.136V505.909C1620.57 506.568 1620.68 507.127 1620.91 507.585C1621.14 508.04 1621.46 508.386 1621.87 508.625C1622.28 508.86 1622.75 508.977 1623.29 508.977C1623.64 508.977 1623.96 508.928 1624.25 508.83C1624.54 508.727 1624.78 508.576 1624.99 508.375C1625.2 508.17 1625.36 507.917 1625.47 507.614L1626.77 507.977C1626.63 508.417 1626.4 508.803 1626.08 509.136C1625.76 509.466 1625.36 509.723 1624.89 509.909C1624.42 510.091 1623.88 510.182 1623.29 510.182ZM1632.24 510.182C1631.51 510.182 1630.87 509.998 1630.32 509.631C1629.76 509.259 1629.32 508.737 1629.01 508.062C1628.69 507.384 1628.54 506.583 1628.54 505.659C1628.54 504.742 1628.69 503.947 1629.01 503.273C1629.32 502.598 1629.76 502.078 1630.32 501.71C1630.88 501.343 1631.53 501.159 1632.26 501.159C1632.83 501.159 1633.28 501.254 1633.61 501.443C1633.94 501.629 1634.2 501.841 1634.37 502.08C1634.55 502.314 1634.69 502.508 1634.79 502.659H1634.9V498.364H1636.24V510H1634.95V508.659H1634.79C1634.69 508.818 1634.55 509.019 1634.37 509.261C1634.18 509.5 1633.93 509.714 1633.59 509.903C1633.25 510.089 1632.8 510.182 1632.24 510.182ZM1632.42 508.977C1632.96 508.977 1633.42 508.837 1633.79 508.557C1634.16 508.273 1634.44 507.881 1634.63 507.381C1634.83 506.877 1634.92 506.295 1634.92 505.636C1634.92 504.985 1634.83 504.415 1634.64 503.926C1634.45 503.434 1634.17 503.051 1633.8 502.778C1633.43 502.502 1632.97 502.364 1632.42 502.364C1631.86 502.364 1631.38 502.509 1631 502.801C1630.63 503.089 1630.35 503.481 1630.16 503.977C1629.97 504.47 1629.88 505.023 1629.88 505.636C1629.88 506.258 1629.97 506.822 1630.16 507.33C1630.36 507.833 1630.64 508.235 1631.01 508.534C1631.39 508.83 1631.86 508.977 1632.42 508.977Z" fill="#151A30"/>
<rect x="915" y="357" width="80" height="80" rx="8" fill="#E9E9E9"/>
<rect x="915" y="865" width="80" height="80" rx="8" fill="#E9E9E9"/>
<rect x="1155" y="357" width="80" height="80" rx="8" fill="#5C5E70"/>
<rect x="1035" y="357" width="80" height="80" rx="8" fill="#141B3D"/>
<rect x="1155" y="865" width="80" height="80" rx="8" fill="#5C5E70"/>
<rect x="1035" y="865" width="80" height="80" rx="8" fill="#141B3D"/>
<rect x="675" y="357" width="80" height="80" rx="8" fill="#CC9C00"/>
<rect x="555" y="357" width="80" height="80" rx="8" fill="#0A8DCF"/>
<rect x="795" y="125" width="80" height="80" rx="8" fill="#FF1500"/>
<rect x="435" y="357" width="80" height="80" rx="8" fill="#6CA22A"/>
<rect x="915.5" y="125.5" width="79" height="79" rx="7.5" fill="white" stroke="#151A30"/>
<rect x="1155" y="125" width="80" height="80" rx="8" fill="#73768C"/>
<rect x="315" y="357" width="80" height="80" rx="8" fill="#0A51CF"/>
<rect x="1035" y="125" width="80" height="80" rx="8" fill="#151A30"/>
<rect x="1275" y="125" width="80" height="80" rx="8" fill="#828282"/>
<path d="M1573.89 394H1572.41L1576.68 382.364H1578.14L1582.41 394H1580.93L1577.45 384.205H1577.36L1573.89 394ZM1574.43 389.455H1580.39V390.705H1574.43V389.455ZM1587.59 394.182C1586.77 394.182 1586.06 393.989 1585.47 393.602C1584.88 393.216 1584.43 392.684 1584.11 392.006C1583.79 391.328 1583.63 390.553 1583.63 389.682C1583.63 388.795 1583.79 388.013 1584.12 387.335C1584.45 386.653 1584.91 386.121 1585.49 385.739C1586.09 385.352 1586.77 385.159 1587.56 385.159C1588.18 385.159 1588.73 385.273 1589.22 385.5C1589.71 385.727 1590.12 386.045 1590.43 386.455C1590.75 386.864 1590.94 387.341 1591.02 387.886H1589.68C1589.57 387.489 1589.35 387.136 1588.99 386.83C1588.65 386.519 1588.18 386.364 1587.59 386.364C1587.06 386.364 1586.6 386.5 1586.21 386.773C1585.82 387.042 1585.52 387.422 1585.3 387.915C1585.08 388.403 1584.97 388.977 1584.97 389.636C1584.97 390.311 1585.08 390.898 1585.29 391.398C1585.51 391.898 1585.81 392.286 1586.2 392.562C1586.59 392.839 1587.05 392.977 1587.59 392.977C1587.93 392.977 1588.25 392.917 1588.53 392.795C1588.82 392.674 1589.06 392.5 1589.26 392.273C1589.45 392.045 1589.59 391.773 1589.68 391.455H1591.02C1590.94 391.97 1590.75 392.434 1590.45 392.847C1590.16 393.256 1589.77 393.581 1589.28 393.824C1588.79 394.062 1588.23 394.182 1587.59 394.182ZM1596.77 385.273V386.409H1592.25V385.273H1596.77ZM1593.57 383.182H1594.91V391.5C1594.91 391.879 1594.96 392.163 1595.07 392.352C1595.19 392.538 1595.33 392.663 1595.51 392.727C1595.68 392.788 1595.87 392.818 1596.07 392.818C1596.22 392.818 1596.34 392.811 1596.43 392.795C1596.53 392.777 1596.6 392.761 1596.66 392.75L1596.93 393.955C1596.84 393.989 1596.71 394.023 1596.55 394.057C1596.39 394.095 1596.18 394.114 1595.93 394.114C1595.55 394.114 1595.18 394.032 1594.82 393.869C1594.46 393.706 1594.16 393.458 1593.92 393.125C1593.69 392.792 1593.57 392.371 1593.57 391.864V383.182ZM1598.79 394V385.273H1600.13V394H1598.79ZM1599.47 383.818C1599.21 383.818 1598.98 383.729 1598.8 383.551C1598.61 383.373 1598.52 383.159 1598.52 382.909C1598.52 382.659 1598.61 382.445 1598.8 382.267C1598.98 382.089 1599.21 382 1599.47 382C1599.73 382 1599.96 382.089 1600.14 382.267C1600.33 382.445 1600.43 382.659 1600.43 382.909C1600.43 383.159 1600.33 383.373 1600.14 383.551C1599.96 383.729 1599.73 383.818 1599.47 383.818ZM1609.72 385.273L1606.5 394H1605.13L1601.9 385.273H1603.36L1605.77 392.227H1605.86L1608.27 385.273H1609.72ZM1614.84 394.182C1614 394.182 1613.27 393.996 1612.66 393.625C1612.06 393.25 1611.59 392.727 1611.26 392.057C1610.93 391.383 1610.77 390.598 1610.77 389.705C1610.77 388.811 1610.93 388.023 1611.26 387.341C1611.59 386.655 1612.05 386.121 1612.63 385.739C1613.23 385.352 1613.92 385.159 1614.7 385.159C1615.16 385.159 1615.61 385.235 1616.05 385.386C1616.49 385.538 1616.9 385.784 1617.26 386.125C1617.62 386.462 1617.91 386.909 1618.13 387.466C1618.35 388.023 1618.45 388.708 1618.45 389.523V390.091H1611.73V388.932H1617.09C1617.09 388.439 1616.99 388 1616.79 387.614C1616.6 387.227 1616.32 386.922 1615.96 386.699C1615.61 386.475 1615.19 386.364 1614.7 386.364C1614.17 386.364 1613.71 386.496 1613.32 386.761C1612.93 387.023 1612.63 387.364 1612.42 387.784C1612.22 388.205 1612.11 388.655 1612.11 389.136V389.909C1612.11 390.568 1612.23 391.127 1612.45 391.585C1612.68 392.04 1613 392.386 1613.41 392.625C1613.82 392.86 1614.3 392.977 1614.84 392.977C1615.19 392.977 1615.51 392.928 1615.79 392.83C1616.08 392.727 1616.33 392.576 1616.54 392.375C1616.75 392.17 1616.91 391.917 1617.02 391.614L1618.32 391.977C1618.18 392.417 1617.95 392.803 1617.63 393.136C1617.31 393.466 1616.91 393.723 1616.44 393.909C1615.96 394.091 1615.43 394.182 1614.84 394.182Z" fill="#151A30"/>
<rect x="915" y="633" width="80" height="80" rx="8" fill="white"/>
<rect x="1275" y="633" width="80" height="80" rx="8" fill="#828282"/>
<rect x="1155" y="633" width="80" height="80" rx="8" fill="#73768C"/>
<rect x="1035.5" y="633.5" width="79" height="79" rx="7.5" fill="#151A30" stroke="white"/>
<rect x="675" y="241" width="80" height="80" rx="8" fill="#FFDB66"/>
<rect x="555" y="241" width="80" height="80" rx="8" fill="#48D4F6"/>
<rect x="795" y="241" width="80" height="80" rx="8" fill="#FF7366"/>
<rect x="435" y="241" width="80" height="80" rx="8" fill="#B7E085"/>
<rect x="315" y="241" width="80" height="80" rx="8" fill="#4895F6"/>
<path d="M1573.41 278V266.364H1574.82V271.545H1581.02V266.364H1582.43V278H1581.02V272.795H1574.82V278H1573.41ZM1588.62 278.182C1587.83 278.182 1587.14 277.994 1586.54 277.619C1585.95 277.244 1585.49 276.72 1585.16 276.045C1584.83 275.371 1584.66 274.583 1584.66 273.682C1584.66 272.773 1584.83 271.979 1585.16 271.301C1585.49 270.623 1585.95 270.097 1586.54 269.722C1587.14 269.347 1587.83 269.159 1588.62 269.159C1589.4 269.159 1590.09 269.347 1590.68 269.722C1591.28 270.097 1591.74 270.623 1592.07 271.301C1592.4 271.979 1592.57 272.773 1592.57 273.682C1592.57 274.583 1592.4 275.371 1592.07 276.045C1591.74 276.72 1591.28 277.244 1590.68 277.619C1590.09 277.994 1589.4 278.182 1588.62 278.182ZM1588.62 276.977C1589.21 276.977 1589.71 276.824 1590.09 276.517C1590.48 276.21 1590.77 275.807 1590.95 275.307C1591.14 274.807 1591.23 274.265 1591.23 273.682C1591.23 273.098 1591.14 272.555 1590.95 272.051C1590.77 271.547 1590.48 271.14 1590.09 270.83C1589.71 270.519 1589.21 270.364 1588.62 270.364C1588.02 270.364 1587.53 270.519 1587.14 270.83C1586.75 271.14 1586.47 271.547 1586.28 272.051C1586.1 272.555 1586 273.098 1586 273.682C1586 274.265 1586.1 274.807 1586.28 275.307C1586.47 275.807 1586.75 276.21 1587.14 276.517C1587.53 276.824 1588.02 276.977 1588.62 276.977ZM1601.44 269.273L1598.21 278H1596.85L1593.62 269.273H1595.08L1597.49 276.227H1597.58L1599.99 269.273H1601.44ZM1606.56 278.182C1605.72 278.182 1604.99 277.996 1604.38 277.625C1603.78 277.25 1603.31 276.727 1602.98 276.057C1602.65 275.383 1602.49 274.598 1602.49 273.705C1602.49 272.811 1602.65 272.023 1602.98 271.341C1603.31 270.655 1603.77 270.121 1604.35 269.739C1604.94 269.352 1605.63 269.159 1606.42 269.159C1606.88 269.159 1607.33 269.235 1607.77 269.386C1608.21 269.538 1608.62 269.784 1608.98 270.125C1609.34 270.462 1609.63 270.909 1609.85 271.466C1610.06 272.023 1610.17 272.708 1610.17 273.523V274.091H1603.44V272.932H1608.81C1608.81 272.439 1608.71 272 1608.51 271.614C1608.32 271.227 1608.04 270.922 1607.68 270.699C1607.33 270.475 1606.91 270.364 1606.42 270.364C1605.89 270.364 1605.43 270.496 1605.04 270.761C1604.65 271.023 1604.35 271.364 1604.14 271.784C1603.94 272.205 1603.83 272.655 1603.83 273.136V273.909C1603.83 274.568 1603.94 275.127 1604.17 275.585C1604.4 276.04 1604.72 276.386 1605.13 276.625C1605.54 276.86 1606.02 276.977 1606.56 276.977C1606.91 276.977 1607.23 276.928 1607.51 276.83C1607.8 276.727 1608.05 276.576 1608.26 276.375C1608.47 276.17 1608.63 275.917 1608.74 275.614L1610.04 275.977C1609.9 276.417 1609.67 276.803 1609.35 277.136C1609.03 277.466 1608.63 277.723 1608.15 277.909C1607.68 278.091 1607.15 278.182 1606.56 278.182ZM1612.21 278V269.273H1613.51V270.591H1613.6C1613.76 270.159 1614.04 269.809 1614.46 269.54C1614.88 269.271 1615.35 269.136 1615.87 269.136C1615.97 269.136 1616.09 269.138 1616.24 269.142C1616.39 269.146 1616.5 269.152 1616.58 269.159V270.523C1616.53 270.511 1616.43 270.494 1616.26 270.472C1616.1 270.445 1615.94 270.432 1615.76 270.432C1615.33 270.432 1614.95 270.521 1614.62 270.699C1614.29 270.873 1614.03 271.116 1613.84 271.426C1613.65 271.733 1613.55 272.083 1613.55 272.477V278H1612.21Z" fill="#151A30"/>
<rect x="675" y="125" width="80" height="80" rx="8" fill="#FFC300"/>
<rect x="555" y="125" width="80" height="80" rx="8" fill="#0EB5F1"/>
<rect x="435" y="125" width="80" height="80" rx="8" fill="#87CB34"/>
<rect x="315" y="125" width="80" height="80" rx="8" fill="#0E69F1"/>
<rect x="1155" y="241" width="80" height="80" rx="8" fill="#ABADBA"/>
<rect x="915" y="241" width="80" height="80" rx="8" fill="#F9F9F9"/>
<rect x="915" y="749" width="80" height="80" rx="8" fill="#F9F9F9"/>
<rect x="1035" y="241" width="80" height="80" rx="8" fill="#273058"/>
<rect x="1155" y="749" width="80" height="80" rx="8" fill="#ABADBA"/>
<rect x="1035" y="749" width="80" height="80" rx="8" fill="#273058"/>
<path d="M1573.41 162V150.364H1577.34C1578.25 150.364 1579 150.519 1579.58 150.83C1580.16 151.136 1580.59 151.559 1580.88 152.097C1581.16 152.634 1581.3 153.246 1581.3 153.932C1581.3 154.617 1581.16 155.225 1580.88 155.756C1580.59 156.286 1580.16 156.703 1579.59 157.006C1579.01 157.305 1578.27 157.455 1577.36 157.455H1574.18V156.182H1577.32C1577.94 156.182 1578.44 156.091 1578.82 155.909C1579.2 155.727 1579.48 155.47 1579.65 155.136C1579.82 154.799 1579.91 154.398 1579.91 153.932C1579.91 153.466 1579.82 153.059 1579.65 152.71C1579.47 152.362 1579.2 152.093 1578.81 151.903C1578.43 151.71 1577.92 151.614 1577.3 151.614H1574.82V162H1573.41ZM1578.89 156.773L1581.75 162H1580.11L1577.3 156.773H1578.89ZM1587.03 162.182C1586.19 162.182 1585.46 161.996 1584.85 161.625C1584.24 161.25 1583.78 160.727 1583.45 160.057C1583.12 159.383 1582.96 158.598 1582.96 157.705C1582.96 156.811 1583.12 156.023 1583.45 155.341C1583.78 154.655 1584.24 154.121 1584.82 153.739C1585.41 153.352 1586.1 153.159 1586.89 153.159C1587.35 153.159 1587.79 153.235 1588.24 153.386C1588.68 153.538 1589.08 153.784 1589.45 154.125C1589.81 154.462 1590.1 154.909 1590.32 155.466C1590.53 156.023 1590.64 156.708 1590.64 157.523V158.091H1583.91V156.932H1589.28C1589.28 156.439 1589.18 156 1588.98 155.614C1588.79 155.227 1588.51 154.922 1588.15 154.699C1587.8 154.475 1587.38 154.364 1586.89 154.364C1586.36 154.364 1585.89 154.496 1585.5 154.761C1585.12 155.023 1584.82 155.364 1584.61 155.784C1584.4 156.205 1584.3 156.655 1584.3 157.136V157.909C1584.3 158.568 1584.41 159.127 1584.64 159.585C1584.87 160.04 1585.19 160.386 1585.6 160.625C1586.01 160.86 1586.49 160.977 1587.03 160.977C1587.38 160.977 1587.7 160.928 1587.98 160.83C1588.27 160.727 1588.52 160.576 1588.73 160.375C1588.93 160.17 1589.1 159.917 1589.21 159.614L1590.5 159.977C1590.37 160.417 1590.14 160.803 1589.82 161.136C1589.49 161.466 1589.1 161.723 1588.62 161.909C1588.15 162.091 1587.62 162.182 1587.03 162.182ZM1596.2 165.455C1595.56 165.455 1595 165.371 1594.53 165.205C1594.07 165.042 1593.68 164.826 1593.37 164.557C1593.06 164.292 1592.82 164.008 1592.63 163.705L1593.7 162.955C1593.82 163.114 1593.98 163.295 1594.16 163.5C1594.35 163.708 1594.6 163.888 1594.92 164.04C1595.25 164.195 1595.68 164.273 1596.2 164.273C1596.91 164.273 1597.49 164.102 1597.95 163.761C1598.41 163.42 1598.63 162.886 1598.63 162.159V160.386H1598.52C1598.42 160.545 1598.28 160.742 1598.1 160.977C1597.92 161.208 1597.67 161.415 1597.33 161.597C1596.99 161.775 1596.54 161.864 1595.98 161.864C1595.27 161.864 1594.64 161.697 1594.08 161.364C1593.52 161.03 1593.08 160.545 1592.75 159.909C1592.43 159.273 1592.27 158.5 1592.27 157.591C1592.27 156.697 1592.43 155.919 1592.74 155.256C1593.06 154.589 1593.49 154.074 1594.06 153.71C1594.62 153.343 1595.26 153.159 1596 153.159C1596.57 153.159 1597.02 153.254 1597.35 153.443C1597.69 153.629 1597.95 153.841 1598.12 154.08C1598.31 154.314 1598.45 154.508 1598.54 154.659H1598.68V153.273H1599.98V162.25C1599.98 163 1599.81 163.61 1599.46 164.08C1599.13 164.553 1598.67 164.9 1598.1 165.119C1597.53 165.343 1596.9 165.455 1596.2 165.455ZM1596.16 160.659C1596.7 160.659 1597.15 160.536 1597.52 160.29C1597.89 160.044 1598.17 159.689 1598.37 159.227C1598.56 158.765 1598.66 158.212 1598.66 157.568C1598.66 156.939 1598.56 156.384 1598.37 155.903C1598.18 155.422 1597.9 155.045 1597.53 154.773C1597.16 154.5 1596.7 154.364 1596.16 154.364C1595.59 154.364 1595.12 154.508 1594.74 154.795C1594.36 155.083 1594.08 155.47 1593.89 155.955C1593.71 156.439 1593.61 156.977 1593.61 157.568C1593.61 158.174 1593.71 158.71 1593.9 159.176C1594.09 159.638 1594.37 160.002 1594.75 160.267C1595.13 160.528 1595.6 160.659 1596.16 160.659ZM1607.93 158.432V153.273H1609.27V162H1607.93V160.523H1607.84C1607.63 160.966 1607.32 161.343 1606.88 161.653C1606.45 161.96 1605.91 162.114 1605.25 162.114C1604.7 162.114 1604.22 161.994 1603.79 161.756C1603.37 161.513 1603.04 161.15 1602.79 160.665C1602.55 160.176 1602.43 159.561 1602.43 158.818V153.273H1603.77V158.727C1603.77 159.364 1603.95 159.871 1604.31 160.25C1604.67 160.629 1605.12 160.818 1605.68 160.818C1606.01 160.818 1606.35 160.733 1606.7 160.562C1607.05 160.392 1607.34 160.131 1607.57 159.778C1607.81 159.426 1607.93 158.977 1607.93 158.432ZM1613.07 150.364V162H1611.73V150.364H1613.07ZM1618.09 162.205C1617.54 162.205 1617.04 162.1 1616.59 161.892C1616.14 161.68 1615.78 161.375 1615.51 160.977C1615.25 160.576 1615.12 160.091 1615.12 159.523C1615.12 159.023 1615.21 158.617 1615.41 158.307C1615.61 157.992 1615.87 157.746 1616.2 157.568C1616.53 157.39 1616.89 157.258 1617.29 157.17C1617.69 157.08 1618.1 157.008 1618.5 156.955C1619.03 156.886 1619.46 156.835 1619.79 156.801C1620.12 156.763 1620.37 156.701 1620.52 156.614C1620.67 156.527 1620.75 156.375 1620.75 156.159V156.114C1620.75 155.553 1620.6 155.117 1620.29 154.807C1619.99 154.496 1619.53 154.341 1618.91 154.341C1618.27 154.341 1617.77 154.481 1617.4 154.761C1617.04 155.042 1616.79 155.341 1616.64 155.659L1615.37 155.205C1615.59 154.674 1615.9 154.261 1616.27 153.966C1616.66 153.667 1617.07 153.458 1617.52 153.341C1617.98 153.22 1618.43 153.159 1618.87 153.159C1619.15 153.159 1619.47 153.193 1619.83 153.261C1620.2 153.326 1620.55 153.46 1620.89 153.665C1621.24 153.869 1621.52 154.178 1621.75 154.591C1621.98 155.004 1622.09 155.557 1622.09 156.25V162H1620.75V160.818H1620.68C1620.59 161.008 1620.44 161.21 1620.23 161.426C1620.02 161.642 1619.73 161.826 1619.38 161.977C1619.03 162.129 1618.6 162.205 1618.09 162.205ZM1618.3 161C1618.83 161 1619.27 160.896 1619.64 160.688C1620.01 160.479 1620.28 160.21 1620.47 159.881C1620.66 159.551 1620.75 159.205 1620.75 158.841V157.614C1620.69 157.682 1620.57 157.744 1620.38 157.801C1620.19 157.854 1619.97 157.902 1619.72 157.943C1619.47 157.981 1619.23 158.015 1619 158.045C1618.76 158.072 1618.58 158.095 1618.43 158.114C1618.08 158.159 1617.76 158.233 1617.46 158.335C1617.16 158.434 1616.91 158.583 1616.73 158.784C1616.55 158.981 1616.46 159.25 1616.46 159.591C1616.46 160.057 1616.63 160.409 1616.97 160.648C1617.32 160.883 1617.76 161 1618.3 161ZM1624.54 162V153.273H1625.84V154.591H1625.93C1626.09 154.159 1626.37 153.809 1626.79 153.54C1627.21 153.271 1627.68 153.136 1628.2 153.136C1628.3 153.136 1628.42 153.138 1628.57 153.142C1628.72 153.146 1628.83 153.152 1628.9 153.159V154.523C1628.86 154.511 1628.75 154.494 1628.59 154.472C1628.43 154.445 1628.26 154.432 1628.09 154.432C1627.66 154.432 1627.28 154.521 1626.95 154.699C1626.62 154.873 1626.36 155.116 1626.16 155.426C1625.98 155.733 1625.88 156.083 1625.88 156.477V162H1624.54Z" fill="#151A30"/>
<path d="M43.0909 156V132.727H45.2159V154.091H56.3068V156H43.0909ZM60.6932 156V138.545H62.7273V156H60.6932ZM61.7273 135.545C61.3106 135.545 60.9545 135.405 60.6591 135.125C60.3636 134.837 60.2159 134.492 60.2159 134.091C60.2159 133.689 60.3636 133.348 60.6591 133.068C60.9545 132.78 61.3106 132.636 61.7273 132.636C62.1439 132.636 62.5 132.78 62.7955 133.068C63.0909 133.348 63.2386 133.689 63.2386 134.091C63.2386 134.492 63.0909 134.837 62.7955 135.125C62.5 135.405 62.1439 135.545 61.7273 135.545ZM74.7358 162.909C73.5464 162.909 72.5047 162.754 71.6108 162.443C70.7169 162.14 69.9631 161.723 69.3494 161.193C68.7358 160.663 68.2585 160.068 67.9176 159.409L69.5767 158.318C69.8267 158.758 70.16 159.189 70.5767 159.614C71.0009 160.038 71.5502 160.39 72.2244 160.67C72.9063 160.951 73.7434 161.091 74.7358 161.091C76.2813 161.091 77.5275 160.705 78.4744 159.932C79.429 159.159 79.9062 157.958 79.9062 156.33V152.398H79.7244C79.4896 152.928 79.1525 153.458 78.7131 153.989C78.2737 154.511 77.6979 154.947 76.9858 155.295C76.2813 155.644 75.4063 155.818 74.3608 155.818C72.9669 155.818 71.7282 155.473 70.6449 154.784C69.5691 154.095 68.7206 153.11 68.0994 151.83C67.4858 150.542 67.179 149.008 67.179 147.227C67.179 145.462 67.4782 143.909 68.0767 142.568C68.6828 141.227 69.5275 140.182 70.6108 139.432C71.6941 138.682 72.9555 138.307 74.3949 138.307C75.4631 138.307 76.3494 138.496 77.054 138.875C77.7585 139.246 78.3229 139.708 78.7472 140.261C79.179 140.814 79.5161 141.352 79.7585 141.875H79.9631V138.545H81.9403V156.455C81.9403 157.932 81.6259 159.148 80.9972 160.102C80.3684 161.057 79.5123 161.761 78.429 162.216C77.3456 162.678 76.1146 162.909 74.7358 162.909ZM74.5994 153.966C75.7206 153.966 76.679 153.697 77.4744 153.159C78.2699 152.614 78.8797 151.833 79.304 150.818C79.7282 149.803 79.9403 148.595 79.9403 147.193C79.9403 145.83 79.732 144.621 79.3153 143.568C78.8987 142.508 78.2926 141.674 77.4972 141.068C76.7093 140.455 75.7434 140.148 74.5994 140.148C73.4328 140.148 72.4479 140.462 71.6449 141.091C70.8419 141.72 70.2358 142.568 69.8267 143.636C69.4176 144.697 69.2131 145.883 69.2131 147.193C69.2131 148.527 69.4214 149.705 69.8381 150.727C70.2547 151.742 70.8646 152.538 71.6676 153.114C72.4706 153.682 73.4479 153.966 74.5994 153.966ZM89.3182 145.091V156H87.2955V132.727H89.3182V141.284H89.5C89.9091 140.383 90.5417 139.663 91.3977 139.125C92.2614 138.587 93.3523 138.318 94.6705 138.318C95.8523 138.318 96.8902 138.561 97.7841 139.045C98.678 139.53 99.375 140.246 99.875 141.193C100.375 142.14 100.625 143.307 100.625 144.693V156H98.5909V144.818C98.5909 143.379 98.1894 142.246 97.3864 141.42C96.5909 140.587 95.5152 140.17 94.1591 140.17C93.2273 140.17 92.3977 140.367 91.6705 140.761C90.9432 141.155 90.3674 141.723 89.9432 142.466C89.5265 143.201 89.3182 144.076 89.3182 145.091ZM112.827 138.545V140.307H104.497V138.545H112.827ZM107.099 134.364H109.134V151.443C109.134 152.17 109.259 152.742 109.509 153.159C109.759 153.568 110.084 153.86 110.486 154.034C110.887 154.201 111.315 154.284 111.77 154.284C112.035 154.284 112.262 154.269 112.452 154.239C112.641 154.201 112.808 154.163 112.952 154.125L113.384 155.955C113.187 156.03 112.944 156.098 112.656 156.159C112.368 156.227 112.012 156.261 111.588 156.261C110.846 156.261 110.13 156.098 109.44 155.773C108.759 155.447 108.198 154.962 107.759 154.318C107.319 153.674 107.099 152.875 107.099 151.92V134.364ZM126.42 156V138.545H128.386V141.227H128.568C128.917 140.326 129.496 139.617 130.307 139.102C131.125 138.58 132.106 138.318 133.25 138.318C134.455 138.318 135.443 138.602 136.216 139.17C136.996 139.731 137.58 140.504 137.966 141.489H138.114C138.508 140.519 139.148 139.75 140.034 139.182C140.928 138.606 142.011 138.318 143.284 138.318C144.905 138.318 146.186 138.83 147.125 139.852C148.064 140.867 148.534 142.352 148.534 144.307V156H146.511V144.307C146.511 142.928 146.159 141.894 145.455 141.205C144.75 140.515 143.822 140.17 142.67 140.17C141.337 140.17 140.311 140.58 139.591 141.398C138.871 142.216 138.511 143.254 138.511 144.511V156H136.443V144.125C136.443 142.943 136.114 141.989 135.455 141.261C134.795 140.534 133.867 140.17 132.67 140.17C131.867 140.17 131.144 140.367 130.5 140.761C129.864 141.155 129.36 141.705 128.989 142.409C128.625 143.106 128.443 143.909 128.443 144.818V156H126.42ZM160.673 156.364C159.166 156.364 157.832 155.981 156.673 155.216C155.522 154.451 154.62 153.394 153.969 152.045C153.317 150.689 152.991 149.125 152.991 147.352C152.991 145.564 153.317 143.992 153.969 142.636C154.62 141.273 155.522 140.212 156.673 139.455C157.832 138.689 159.166 138.307 160.673 138.307C162.181 138.307 163.51 138.689 164.662 139.455C165.813 140.22 166.715 141.28 167.366 142.636C168.026 143.992 168.355 145.564 168.355 147.352C168.355 149.125 168.029 150.689 167.378 152.045C166.726 153.394 165.821 154.451 164.662 155.216C163.51 155.981 162.181 156.364 160.673 156.364ZM160.673 154.511C161.885 154.511 162.912 154.186 163.753 153.534C164.594 152.883 165.23 152.015 165.662 150.932C166.101 149.848 166.321 148.655 166.321 147.352C166.321 146.049 166.101 144.852 165.662 143.761C165.23 142.67 164.594 141.795 163.753 141.136C162.912 140.477 161.885 140.148 160.673 140.148C159.469 140.148 158.442 140.477 157.594 141.136C156.753 141.795 156.113 142.67 155.673 143.761C155.241 144.852 155.026 146.049 155.026 147.352C155.026 148.655 155.241 149.848 155.673 150.932C156.113 152.015 156.753 152.883 157.594 153.534C158.435 154.186 159.461 154.511 160.673 154.511ZM179.08 156.364C177.648 156.364 176.394 155.985 175.318 155.227C174.242 154.47 173.402 153.413 172.795 152.057C172.197 150.701 171.898 149.121 171.898 147.318C171.898 145.523 172.197 143.951 172.795 142.602C173.402 141.246 174.246 140.193 175.33 139.443C176.413 138.686 177.674 138.307 179.114 138.307C180.174 138.307 181.057 138.496 181.761 138.875C182.466 139.246 183.03 139.708 183.455 140.261C183.879 140.814 184.208 141.352 184.443 141.875H184.625V132.727H186.659V156H184.682V152.761H184.443C184.208 153.292 183.875 153.837 183.443 154.398C183.011 154.951 182.439 155.417 181.727 155.795C181.023 156.174 180.14 156.364 179.08 156.364ZM179.318 154.511C180.447 154.511 181.409 154.205 182.205 153.591C183 152.97 183.606 152.117 184.023 151.034C184.447 149.943 184.659 148.693 184.659 147.284C184.659 145.89 184.451 144.659 184.034 143.591C183.617 142.515 183.011 141.674 182.216 141.068C181.42 140.455 180.455 140.148 179.318 140.148C178.152 140.148 177.167 140.466 176.364 141.102C175.568 141.731 174.962 142.583 174.545 143.659C174.136 144.735 173.932 145.943 173.932 147.284C173.932 148.64 174.14 149.864 174.557 150.955C174.973 152.045 175.58 152.913 176.375 153.557C177.178 154.193 178.159 154.511 179.318 154.511ZM199.477 156.364C197.848 156.364 196.439 155.985 195.25 155.227C194.061 154.462 193.14 153.405 192.489 152.057C191.845 150.701 191.523 149.14 191.523 147.375C191.523 145.617 191.845 144.057 192.489 142.693C193.14 141.322 194.038 140.25 195.182 139.477C196.333 138.697 197.663 138.307 199.17 138.307C200.117 138.307 201.03 138.481 201.909 138.83C202.788 139.17 203.576 139.697 204.273 140.409C204.977 141.114 205.534 142.004 205.943 143.08C206.352 144.148 206.557 145.413 206.557 146.875V147.875H192.92V146.091H204.489C204.489 144.97 204.261 143.962 203.807 143.068C203.36 142.167 202.735 141.455 201.932 140.932C201.136 140.409 200.216 140.148 199.17 140.148C198.064 140.148 197.091 140.443 196.25 141.034C195.409 141.625 194.75 142.405 194.273 143.375C193.803 144.345 193.564 145.405 193.557 146.557V147.625C193.557 149.011 193.795 150.223 194.273 151.261C194.758 152.292 195.443 153.091 196.33 153.659C197.216 154.227 198.265 154.511 199.477 154.511C200.303 154.511 201.027 154.383 201.648 154.125C202.277 153.867 202.803 153.523 203.227 153.091C203.659 152.652 203.985 152.17 204.205 151.648L206.125 152.273C205.86 153.008 205.424 153.686 204.818 154.307C204.22 154.928 203.47 155.428 202.568 155.807C201.674 156.178 200.644 156.364 199.477 156.364Z" fill="#151A30"/>
<path d="M66.6477 57H63.9773C63.7784 56.0057 63.4186 55.0871 62.8977 54.2443C62.3864 53.392 61.7424 52.6487 60.9659 52.0142C60.1894 51.3797 59.3087 50.8873 58.3239 50.5369C57.339 50.1866 56.2737 50.0114 55.1278 50.0114C53.2907 50.0114 51.6146 50.4896 50.0994 51.446C48.5938 52.4025 47.3864 53.8087 46.4773 55.6648C45.5777 57.5114 45.1278 59.7746 45.1278 62.4545C45.1278 65.1534 45.5777 67.4261 46.4773 69.2727C47.3864 71.1193 48.5938 72.5208 50.0994 73.4773C51.6146 74.4242 53.2907 74.8977 55.1278 74.8977C56.2737 74.8977 57.339 74.7225 58.3239 74.3722C59.3087 74.0218 60.1894 73.5341 60.9659 72.9091C61.7424 72.2746 62.3864 71.5312 62.8977 70.679C63.4186 69.8267 63.7784 68.9034 63.9773 67.9091H66.6477C66.411 69.2443 65.9659 70.4896 65.3125 71.6449C64.6686 72.7907 63.8447 73.7945 62.8409 74.6562C61.8466 75.518 60.7008 76.1903 59.4034 76.6733C58.1061 77.1562 56.6809 77.3977 55.1278 77.3977C52.6847 77.3977 50.5161 76.7869 48.6222 75.5653C46.7282 74.3343 45.2415 72.6013 44.1619 70.3665C43.0919 68.1316 42.5568 65.4943 42.5568 62.4545C42.5568 59.4148 43.0919 56.7775 44.1619 54.5426C45.2415 52.3078 46.7282 50.5795 48.6222 49.358C50.5161 48.1269 52.6847 47.5114 55.1278 47.5114C56.6809 47.5114 58.1061 47.7528 59.4034 48.2358C60.7008 48.7093 61.8466 49.3816 62.8409 50.2528C63.8447 51.1146 64.6686 52.1184 65.3125 53.2642C65.9659 54.41 66.411 55.6553 66.6477 57ZM80.8416 77.4545C78.9571 77.4545 77.2905 76.9763 75.8416 76.0199C74.4022 75.0634 73.2753 73.7424 72.4609 72.0568C71.6465 70.3617 71.2393 68.4062 71.2393 66.1903C71.2393 63.9555 71.6465 61.9905 72.4609 60.2955C73.2753 58.5909 74.4022 57.2652 75.8416 56.3182C77.2905 55.3617 78.9571 54.8835 80.8416 54.8835C82.7261 54.8835 84.388 55.3617 85.8274 56.3182C87.2668 57.2746 88.3937 58.6004 89.2081 60.2955C90.032 61.9905 90.4439 63.9555 90.4439 66.1903C90.4439 68.4062 90.0367 70.3617 89.2223 72.0568C88.4079 73.7424 87.2763 75.0634 85.8274 76.0199C84.388 76.9763 82.7261 77.4545 80.8416 77.4545ZM80.8416 75.1392C82.3568 75.1392 83.6399 74.732 84.6911 73.9176C85.7422 73.1032 86.5376 72.0189 87.0774 70.6648C87.6267 69.3106 87.9013 67.8191 87.9013 66.1903C87.9013 64.5616 87.6267 63.0653 87.0774 61.7017C86.5376 60.3381 85.7422 59.2443 84.6911 58.4205C83.6399 57.5966 82.3568 57.1847 80.8416 57.1847C79.3359 57.1847 78.0528 57.5966 76.9922 58.4205C75.9411 59.2443 75.1409 60.3381 74.5916 61.7017C74.0518 63.0653 73.782 64.5616 73.782 66.1903C73.782 67.8191 74.0518 69.3106 74.5916 70.6648C75.1409 72.0189 75.9411 73.1032 76.9922 73.9176C78.0433 74.732 79.3265 75.1392 80.8416 75.1392ZM98.5227 47.9091V77H95.9943V47.9091H98.5227ZM113.693 77.4545C111.809 77.4545 110.142 76.9763 108.693 76.0199C107.254 75.0634 106.127 73.7424 105.312 72.0568C104.498 70.3617 104.091 68.4062 104.091 66.1903C104.091 63.9555 104.498 61.9905 105.312 60.2955C106.127 58.5909 107.254 57.2652 108.693 56.3182C110.142 55.3617 111.809 54.8835 113.693 54.8835C115.578 54.8835 117.24 55.3617 118.679 56.3182C120.118 57.2746 121.245 58.6004 122.06 60.2955C122.884 61.9905 123.295 63.9555 123.295 66.1903C123.295 68.4062 122.888 70.3617 122.074 72.0568C121.259 73.7424 120.128 75.0634 118.679 76.0199C117.24 76.9763 115.578 77.4545 113.693 77.4545ZM113.693 75.1392C115.208 75.1392 116.491 74.732 117.543 73.9176C118.594 73.1032 119.389 72.0189 119.929 70.6648C120.478 69.3106 120.753 67.8191 120.753 66.1903C120.753 64.5616 120.478 63.0653 119.929 61.7017C119.389 60.3381 118.594 59.2443 117.543 58.4205C116.491 57.5966 115.208 57.1847 113.693 57.1847C112.188 57.1847 110.904 57.5966 109.844 58.4205C108.793 59.2443 107.992 60.3381 107.443 61.7017C106.903 63.0653 106.634 64.5616 106.634 66.1903C106.634 67.8191 106.903 69.3106 107.443 70.6648C107.992 72.0189 108.793 73.1032 109.844 73.9176C110.895 74.732 112.178 75.1392 113.693 75.1392ZM128.846 77V55.1818H131.303V58.5341H131.488C131.924 57.4356 132.681 56.5502 133.761 55.8778C134.85 55.196 136.081 54.8551 137.454 54.8551C137.662 54.8551 137.894 54.8598 138.15 54.8693C138.406 54.8788 138.619 54.8883 138.789 54.8977V57.4688C138.675 57.4498 138.477 57.4214 138.192 57.3835C137.908 57.3456 137.601 57.3267 137.269 57.3267C136.133 57.3267 135.12 57.5682 134.229 58.0511C133.349 58.5246 132.653 59.1828 132.141 60.0256C131.63 60.8684 131.374 61.8295 131.374 62.9091V77H128.846ZM157.763 59.9688L155.447 60.6222C155.22 59.9687 154.898 59.3769 154.482 58.8466C154.065 58.3163 153.52 57.8949 152.848 57.5824C152.185 57.2699 151.361 57.1136 150.376 57.1136C148.899 57.1136 147.687 57.464 146.74 58.1648C145.793 58.8655 145.32 59.7699 145.32 60.8778C145.32 61.8153 145.642 62.5777 146.286 63.1648C146.939 63.7424 147.943 64.2017 149.297 64.5426L152.592 65.3523C154.42 65.7973 155.788 66.5028 156.697 67.4688C157.616 68.4347 158.075 69.6468 158.075 71.1051C158.075 72.3362 157.734 73.4299 157.053 74.3864C156.371 75.3428 155.419 76.0956 154.197 76.6449C152.985 77.1847 151.579 77.4545 149.979 77.4545C147.848 77.4545 146.091 76.9763 144.709 76.0199C143.326 75.054 142.441 73.6619 142.053 71.8438L144.482 71.2472C144.794 72.5445 145.405 73.5246 146.314 74.1875C147.232 74.8504 148.44 75.1818 149.936 75.1818C151.612 75.1818 152.952 74.8078 153.956 74.0597C154.96 73.3021 155.462 72.3551 155.462 71.2188C155.462 70.3381 155.168 69.5994 154.581 69.0028C153.994 68.3968 153.104 67.9517 151.911 67.6676L148.345 66.8153C146.451 66.3608 145.05 65.6411 144.141 64.6562C143.232 63.6714 142.777 62.4498 142.777 60.9915C142.777 59.7888 143.104 58.733 143.757 57.8239C144.411 56.9053 145.31 56.1856 146.456 55.6648C147.602 55.1439 148.909 54.8835 150.376 54.8835C152.375 54.8835 153.97 55.3381 155.163 56.2472C156.366 57.1468 157.232 58.3873 157.763 59.9688Z" fill="#C4C8DC"/>
</svg>
