<svg width="636" height="488" viewBox="0 0 636 488" fill="none" xmlns="http://www.w3.org/2000/svg">
<rect width="636" height="488" rx="16" fill="white"/>
<rect x="40.5" y="124.5" width="555" height="323" rx="4.5" stroke="#9747FF" stroke-dasharray="10 5"/>
<g clip-path="url(#clip0_133_458)">
<rect x="60" y="184" width="282" height="1" fill="#E3E4E8"/>
<path d="M155.528 156.406V155.273H162.283V156.406H159.56V164H158.247V156.406H155.528ZM163.481 164H162.083L165.224 155.273H166.745L169.886 164H168.488L166.021 156.858H165.953L163.481 164ZM163.716 160.582H168.25V161.69H163.716V160.582ZM171.146 164V155.273H174.342C174.962 155.273 175.474 155.375 175.881 155.58C176.287 155.781 176.591 156.055 176.793 156.402C176.994 156.746 177.095 157.134 177.095 157.565C177.095 157.929 177.028 158.236 176.895 158.486C176.761 158.733 176.582 158.932 176.358 159.082C176.136 159.23 175.892 159.338 175.625 159.406V159.491C175.915 159.506 176.197 159.599 176.473 159.773C176.751 159.943 176.982 160.186 177.163 160.501C177.345 160.817 177.436 161.2 177.436 161.652C177.436 162.098 177.331 162.499 177.121 162.854C176.913 163.206 176.592 163.486 176.158 163.693C175.723 163.898 175.168 164 174.491 164H171.146ZM172.463 162.871H174.364C174.994 162.871 175.446 162.749 175.719 162.504C175.991 162.26 176.128 161.955 176.128 161.588C176.128 161.312 176.058 161.06 175.919 160.83C175.78 160.599 175.581 160.416 175.322 160.28C175.067 160.143 174.763 160.075 174.411 160.075H172.463V162.871ZM172.463 159.048H174.227C174.523 159.048 174.788 158.991 175.024 158.878C175.263 158.764 175.452 158.605 175.591 158.401C175.733 158.193 175.804 157.949 175.804 157.668C175.804 157.307 175.678 157.004 175.425 156.76C175.172 156.516 174.784 156.393 174.261 156.393H172.463V159.048ZM185.365 155.273V164H184.044V156.594H183.993L181.905 157.957V156.696L184.083 155.273H185.365Z" fill="#0E69F1"/>
<rect x="143" y="176" width="56" height="1" fill="#0E69F1"/>
<path d="M212.528 156.406V155.273H219.283V156.406H216.56V164H215.247V156.406H212.528ZM220.481 164H219.083L222.224 155.273H223.745L226.886 164H225.488L223.021 156.858H222.953L220.481 164ZM220.716 160.582H225.25V161.69H220.716V160.582ZM228.146 164V155.273H231.342C231.962 155.273 232.474 155.375 232.881 155.58C233.287 155.781 233.591 156.055 233.793 156.402C233.994 156.746 234.095 157.134 234.095 157.565C234.095 157.929 234.028 158.236 233.895 158.486C233.761 158.733 233.582 158.932 233.358 159.082C233.136 159.23 232.892 159.338 232.625 159.406V159.491C232.915 159.506 233.197 159.599 233.473 159.773C233.751 159.943 233.982 160.186 234.163 160.501C234.345 160.817 234.436 161.2 234.436 161.652C234.436 162.098 234.331 162.499 234.121 162.854C233.913 163.206 233.592 163.486 233.158 163.693C232.723 163.898 232.168 164 231.491 164H228.146ZM229.463 162.871H231.364C231.994 162.871 232.446 162.749 232.719 162.504C232.991 162.26 233.128 161.955 233.128 161.588C233.128 161.312 233.058 161.06 232.919 160.83C232.78 160.599 232.581 160.416 232.322 160.28C232.067 160.143 231.763 160.075 231.411 160.075H229.463V162.871ZM229.463 159.048H231.227C231.523 159.048 231.788 158.991 232.024 158.878C232.263 158.764 232.452 158.605 232.591 158.401C232.733 158.193 232.804 157.949 232.804 157.668C232.804 157.307 232.678 157.004 232.425 156.76C232.172 156.516 231.784 156.393 231.261 156.393H229.463V159.048ZM239.054 164V163.045L242.007 159.986C242.323 159.653 242.583 159.362 242.787 159.112C242.995 158.859 243.15 158.619 243.252 158.392C243.354 158.165 243.405 157.923 243.405 157.668C243.405 157.378 243.337 157.128 243.201 156.918C243.064 156.705 242.878 156.541 242.642 156.428C242.407 156.311 242.141 156.253 241.846 156.253C241.533 156.253 241.26 156.317 241.027 156.445C240.794 156.572 240.615 156.753 240.49 156.986C240.365 157.219 240.303 157.491 240.303 157.804H239.046C239.046 157.273 239.168 156.808 239.412 156.411C239.657 156.013 239.992 155.705 240.418 155.486C240.844 155.264 241.328 155.153 241.871 155.153C242.419 155.153 242.902 155.263 243.32 155.482C243.74 155.697 244.069 155.993 244.304 156.368C244.54 156.74 244.658 157.161 244.658 157.629C244.658 157.953 244.597 158.27 244.475 158.58C244.355 158.889 244.147 159.234 243.848 159.615C243.55 159.993 243.135 160.452 242.604 160.991L240.87 162.807V162.871H244.799V164H239.054Z" fill="#73768C"/>
</g>
<g clip-path="url(#clip1_133_458)">
<rect x="60" y="265" width="360" height="1" fill="#E3E4E8"/>
<path d="M165.028 237.406V236.273H171.783V237.406H169.06V245H167.747V237.406H165.028ZM172.981 245H171.583L174.724 236.273H176.245L179.386 245H177.988L175.521 237.858H175.453L172.981 245ZM173.216 241.582H177.75V242.69H173.216V241.582ZM180.646 245V236.273H183.842C184.462 236.273 184.974 236.375 185.381 236.58C185.787 236.781 186.091 237.055 186.293 237.402C186.494 237.746 186.595 238.134 186.595 238.565C186.595 238.929 186.528 239.236 186.395 239.486C186.261 239.733 186.082 239.932 185.858 240.082C185.636 240.23 185.392 240.338 185.125 240.406V240.491C185.415 240.506 185.697 240.599 185.973 240.773C186.251 240.943 186.482 241.186 186.663 241.501C186.845 241.817 186.936 242.2 186.936 242.652C186.936 243.098 186.831 243.499 186.621 243.854C186.413 244.206 186.092 244.486 185.658 244.693C185.223 244.898 184.668 245 183.991 245H180.646ZM181.963 243.871H183.864C184.494 243.871 184.946 243.749 185.219 243.504C185.491 243.26 185.628 242.955 185.628 242.588C185.628 242.312 185.558 242.06 185.419 241.83C185.28 241.599 185.081 241.416 184.822 241.28C184.567 241.143 184.263 241.075 183.911 241.075H181.963V243.871ZM181.963 240.048H183.727C184.023 240.048 184.288 239.991 184.524 239.878C184.763 239.764 184.952 239.605 185.091 239.401C185.233 239.193 185.304 238.949 185.304 238.668C185.304 238.307 185.178 238.004 184.925 237.76C184.672 237.516 184.284 237.393 183.761 237.393H181.963V240.048ZM194.865 236.273V245H193.544V237.594H193.493L191.405 238.957V237.696L193.583 236.273H194.865Z" fill="#0E69F1"/>
<rect x="152.5" y="257" width="56" height="1" fill="#0E69F1"/>
<path d="M222.028 237.406V236.273H228.783V237.406H226.06V245H224.747V237.406H222.028ZM229.981 245H228.583L231.724 236.273H233.245L236.386 245H234.988L232.521 237.858H232.453L229.981 245ZM230.216 241.582H234.75V242.69H230.216V241.582ZM237.646 245V236.273H240.842C241.462 236.273 241.974 236.375 242.381 236.58C242.787 236.781 243.091 237.055 243.293 237.402C243.494 237.746 243.595 238.134 243.595 238.565C243.595 238.929 243.528 239.236 243.395 239.486C243.261 239.733 243.082 239.932 242.858 240.082C242.636 240.23 242.392 240.338 242.125 240.406V240.491C242.415 240.506 242.697 240.599 242.973 240.773C243.251 240.943 243.482 241.186 243.663 241.501C243.845 241.817 243.936 242.2 243.936 242.652C243.936 243.098 243.831 243.499 243.621 243.854C243.413 244.206 243.092 244.486 242.658 244.693C242.223 244.898 241.668 245 240.991 245H237.646ZM238.963 243.871H240.864C241.494 243.871 241.946 243.749 242.219 243.504C242.491 243.26 242.628 242.955 242.628 242.588C242.628 242.312 242.558 242.06 242.419 241.83C242.28 241.599 242.081 241.416 241.822 241.28C241.567 241.143 241.263 241.075 240.911 241.075H238.963V243.871ZM238.963 240.048H240.727C241.023 240.048 241.288 239.991 241.524 239.878C241.763 239.764 241.952 239.605 242.091 239.401C242.233 239.193 242.304 238.949 242.304 238.668C242.304 238.307 242.178 238.004 241.925 237.76C241.672 237.516 241.284 237.393 240.761 237.393H238.963V240.048ZM248.554 245V244.045L251.507 240.986C251.823 240.653 252.083 240.362 252.287 240.112C252.495 239.859 252.65 239.619 252.752 239.392C252.854 239.165 252.905 238.923 252.905 238.668C252.905 238.378 252.837 238.128 252.701 237.918C252.564 237.705 252.378 237.541 252.142 237.428C251.907 237.311 251.641 237.253 251.346 237.253C251.033 237.253 250.76 237.317 250.527 237.445C250.294 237.572 250.115 237.753 249.99 237.986C249.865 238.219 249.803 238.491 249.803 238.804H248.546C248.546 238.273 248.668 237.808 248.912 237.411C249.157 237.013 249.492 236.705 249.918 236.486C250.344 236.264 250.828 236.153 251.371 236.153C251.919 236.153 252.402 236.263 252.82 236.482C253.24 236.697 253.569 236.993 253.804 237.368C254.04 237.74 254.158 238.161 254.158 238.629C254.158 238.953 254.097 239.27 253.975 239.58C253.855 239.889 253.647 240.234 253.348 240.615C253.05 240.993 252.635 241.452 252.104 241.991L250.37 243.807V243.871H254.299V245H248.554Z" fill="#73768C"/>
<path d="M281.028 237.406V236.273H287.783V237.406H285.06V245H283.747V237.406H281.028ZM288.981 245H287.583L290.724 236.273H292.245L295.386 245H293.988L291.521 237.858H291.453L288.981 245ZM289.216 241.582H293.75V242.69H289.216V241.582ZM296.646 245V236.273H299.842C300.462 236.273 300.974 236.375 301.381 236.58C301.787 236.781 302.091 237.055 302.293 237.402C302.494 237.746 302.595 238.134 302.595 238.565C302.595 238.929 302.528 239.236 302.395 239.486C302.261 239.733 302.082 239.932 301.858 240.082C301.636 240.23 301.392 240.338 301.125 240.406V240.491C301.415 240.506 301.697 240.599 301.973 240.773C302.251 240.943 302.482 241.186 302.663 241.501C302.845 241.817 302.936 242.2 302.936 242.652C302.936 243.098 302.831 243.499 302.621 243.854C302.413 244.206 302.092 244.486 301.658 244.693C301.223 244.898 300.668 245 299.991 245H296.646ZM297.963 243.871H299.864C300.494 243.871 300.946 243.749 301.219 243.504C301.491 243.26 301.628 242.955 301.628 242.588C301.628 242.312 301.558 242.06 301.419 241.83C301.28 241.599 301.081 241.416 300.822 241.28C300.567 241.143 300.263 241.075 299.911 241.075H297.963V243.871ZM297.963 240.048H299.727C300.023 240.048 300.288 239.991 300.524 239.878C300.763 239.764 300.952 239.605 301.091 239.401C301.233 239.193 301.304 238.949 301.304 238.668C301.304 238.307 301.178 238.004 300.925 237.76C300.672 237.516 300.284 237.393 299.761 237.393H297.963V240.048ZM310.593 245.119C310.007 245.119 309.485 245.018 309.025 244.817C308.567 244.615 308.205 244.335 307.938 243.977C307.674 243.616 307.532 243.199 307.512 242.724H308.85C308.867 242.983 308.953 243.207 309.11 243.398C309.269 243.585 309.476 243.73 309.732 243.832C309.988 243.935 310.272 243.986 310.584 243.986C310.928 243.986 311.232 243.926 311.496 243.807C311.763 243.687 311.972 243.521 312.123 243.308C312.273 243.092 312.348 242.844 312.348 242.562C312.348 242.27 312.273 242.013 312.123 241.791C311.975 241.567 311.757 241.391 311.471 241.263C311.186 241.135 310.843 241.071 310.439 241.071H309.702V239.997H310.439C310.763 239.997 311.047 239.939 311.292 239.822C311.539 239.706 311.732 239.544 311.871 239.337C312.01 239.126 312.08 238.881 312.08 238.599C312.08 238.33 312.019 238.095 311.897 237.896C311.777 237.695 311.607 237.537 311.385 237.423C311.167 237.31 310.908 237.253 310.61 237.253C310.326 237.253 310.06 237.305 309.813 237.411C309.569 237.513 309.37 237.661 309.216 237.854C309.063 238.044 308.98 238.273 308.969 238.54H307.695C307.709 238.068 307.848 237.653 308.113 237.295C308.38 236.937 308.732 236.658 309.169 236.456C309.607 236.254 310.093 236.153 310.627 236.153C311.186 236.153 311.669 236.263 312.076 236.482C312.485 236.697 312.8 236.986 313.022 237.347C313.246 237.707 313.357 238.102 313.354 238.531C313.357 239.02 313.221 239.435 312.945 239.776C312.672 240.116 312.309 240.345 311.854 240.462V240.53C312.434 240.618 312.882 240.848 313.201 241.22C313.522 241.592 313.681 242.054 313.678 242.605C313.681 243.085 313.547 243.516 313.277 243.896C313.01 244.277 312.645 244.577 312.182 244.795C311.719 245.011 311.189 245.119 310.593 245.119Z" fill="#73768C"/>
</g>
<g clip-path="url(#clip2_133_458)">
<rect x="60" y="346" width="438" height="1" fill="#E3E4E8"/>
<path d="M174.028 318.406V317.273H180.783V318.406H178.06V326H176.747V318.406H174.028ZM181.981 326H180.583L183.724 317.273H185.245L188.386 326H186.988L184.521 318.858H184.453L181.981 326ZM182.216 322.582H186.75V323.69H182.216V322.582ZM189.646 326V317.273H192.842C193.462 317.273 193.974 317.375 194.381 317.58C194.787 317.781 195.091 318.055 195.293 318.402C195.494 318.746 195.595 319.134 195.595 319.565C195.595 319.929 195.528 320.236 195.395 320.486C195.261 320.733 195.082 320.932 194.858 321.082C194.636 321.23 194.392 321.338 194.125 321.406V321.491C194.415 321.506 194.697 321.599 194.973 321.773C195.251 321.943 195.482 322.186 195.663 322.501C195.845 322.817 195.936 323.2 195.936 323.652C195.936 324.098 195.831 324.499 195.621 324.854C195.413 325.206 195.092 325.486 194.658 325.693C194.223 325.898 193.668 326 192.991 326H189.646ZM190.963 324.871H192.864C193.494 324.871 193.946 324.749 194.219 324.504C194.491 324.26 194.628 323.955 194.628 323.588C194.628 323.312 194.558 323.06 194.419 322.83C194.28 322.599 194.081 322.416 193.822 322.28C193.567 322.143 193.263 322.075 192.911 322.075H190.963V324.871ZM190.963 321.048H192.727C193.023 321.048 193.288 320.991 193.524 320.878C193.763 320.764 193.952 320.605 194.091 320.401C194.233 320.193 194.304 319.949 194.304 319.668C194.304 319.307 194.178 319.004 193.925 318.76C193.672 318.516 193.284 318.393 192.761 318.393H190.963V321.048ZM203.865 317.273V326H202.544V318.594H202.493L200.405 319.957V318.696L202.583 317.273H203.865Z" fill="#0E69F1"/>
<rect x="161.5" y="338" width="56" height="1" fill="#0E69F1"/>
<path d="M231.028 318.406V317.273H237.783V318.406H235.06V326H233.747V318.406H231.028ZM238.981 326H237.583L240.724 317.273H242.245L245.386 326H243.988L241.521 318.858H241.453L238.981 326ZM239.216 322.582H243.75V323.69H239.216V322.582ZM246.646 326V317.273H249.842C250.462 317.273 250.974 317.375 251.381 317.58C251.787 317.781 252.091 318.055 252.293 318.402C252.494 318.746 252.595 319.134 252.595 319.565C252.595 319.929 252.528 320.236 252.395 320.486C252.261 320.733 252.082 320.932 251.858 321.082C251.636 321.23 251.392 321.338 251.125 321.406V321.491C251.415 321.506 251.697 321.599 251.973 321.773C252.251 321.943 252.482 322.186 252.663 322.501C252.845 322.817 252.936 323.2 252.936 323.652C252.936 324.098 252.831 324.499 252.621 324.854C252.413 325.206 252.092 325.486 251.658 325.693C251.223 325.898 250.668 326 249.991 326H246.646ZM247.963 324.871H249.864C250.494 324.871 250.946 324.749 251.219 324.504C251.491 324.26 251.628 323.955 251.628 323.588C251.628 323.312 251.558 323.06 251.419 322.83C251.28 322.599 251.081 322.416 250.822 322.28C250.567 322.143 250.263 322.075 249.911 322.075H247.963V324.871ZM247.963 321.048H249.727C250.023 321.048 250.288 320.991 250.524 320.878C250.763 320.764 250.952 320.605 251.091 320.401C251.233 320.193 251.304 319.949 251.304 319.668C251.304 319.307 251.178 319.004 250.925 318.76C250.672 318.516 250.284 318.393 249.761 318.393H247.963V321.048ZM257.554 326V325.045L260.507 321.986C260.823 321.653 261.083 321.362 261.287 321.112C261.495 320.859 261.65 320.619 261.752 320.392C261.854 320.165 261.905 319.923 261.905 319.668C261.905 319.378 261.837 319.128 261.701 318.918C261.564 318.705 261.378 318.541 261.142 318.428C260.907 318.311 260.641 318.253 260.346 318.253C260.033 318.253 259.76 318.317 259.527 318.445C259.294 318.572 259.115 318.753 258.99 318.986C258.865 319.219 258.803 319.491 258.803 319.804H257.546C257.546 319.273 257.668 318.808 257.912 318.411C258.157 318.013 258.492 317.705 258.918 317.486C259.344 317.264 259.828 317.153 260.371 317.153C260.919 317.153 261.402 317.263 261.82 317.482C262.24 317.697 262.569 317.993 262.804 318.368C263.04 318.74 263.158 319.161 263.158 319.629C263.158 319.953 263.097 320.27 262.975 320.58C262.855 320.889 262.647 321.234 262.348 321.615C262.05 321.993 261.635 322.452 261.104 322.991L259.37 324.807V324.871H263.299V326H257.554Z" fill="#73768C"/>
<path d="M290.028 318.406V317.273H296.783V318.406H294.06V326H292.747V318.406H290.028ZM297.981 326H296.583L299.724 317.273H301.245L304.386 326H302.988L300.521 318.858H300.453L297.981 326ZM298.216 322.582H302.75V323.69H298.216V322.582ZM305.646 326V317.273H308.842C309.462 317.273 309.974 317.375 310.381 317.58C310.787 317.781 311.091 318.055 311.293 318.402C311.494 318.746 311.595 319.134 311.595 319.565C311.595 319.929 311.528 320.236 311.395 320.486C311.261 320.733 311.082 320.932 310.858 321.082C310.636 321.23 310.392 321.338 310.125 321.406V321.491C310.415 321.506 310.697 321.599 310.973 321.773C311.251 321.943 311.482 322.186 311.663 322.501C311.845 322.817 311.936 323.2 311.936 323.652C311.936 324.098 311.831 324.499 311.621 324.854C311.413 325.206 311.092 325.486 310.658 325.693C310.223 325.898 309.668 326 308.991 326H305.646ZM306.963 324.871H308.864C309.494 324.871 309.946 324.749 310.219 324.504C310.491 324.26 310.628 323.955 310.628 323.588C310.628 323.312 310.558 323.06 310.419 322.83C310.28 322.599 310.081 322.416 309.822 322.28C309.567 322.143 309.263 322.075 308.911 322.075H306.963V324.871ZM306.963 321.048H308.727C309.023 321.048 309.288 320.991 309.524 320.878C309.763 320.764 309.952 320.605 310.091 320.401C310.233 320.193 310.304 319.949 310.304 319.668C310.304 319.307 310.178 319.004 309.925 318.76C309.672 318.516 309.284 318.393 308.761 318.393H306.963V321.048ZM319.593 326.119C319.007 326.119 318.485 326.018 318.025 325.817C317.567 325.615 317.205 325.335 316.938 324.977C316.674 324.616 316.532 324.199 316.512 323.724H317.85C317.867 323.983 317.953 324.207 318.11 324.398C318.269 324.585 318.476 324.73 318.732 324.832C318.988 324.935 319.272 324.986 319.584 324.986C319.928 324.986 320.232 324.926 320.496 324.807C320.763 324.687 320.972 324.521 321.123 324.308C321.273 324.092 321.348 323.844 321.348 323.562C321.348 323.27 321.273 323.013 321.123 322.791C320.975 322.567 320.757 322.391 320.471 322.263C320.186 322.135 319.843 322.071 319.439 322.071H318.702V320.997H319.439C319.763 320.997 320.047 320.939 320.292 320.822C320.539 320.706 320.732 320.544 320.871 320.337C321.01 320.126 321.08 319.881 321.08 319.599C321.08 319.33 321.019 319.095 320.897 318.896C320.777 318.695 320.607 318.537 320.385 318.423C320.167 318.31 319.908 318.253 319.61 318.253C319.326 318.253 319.06 318.305 318.813 318.411C318.569 318.513 318.37 318.661 318.216 318.854C318.063 319.044 317.98 319.273 317.969 319.54H316.695C316.709 319.068 316.848 318.653 317.113 318.295C317.38 317.937 317.732 317.658 318.169 317.456C318.607 317.254 319.093 317.153 319.627 317.153C320.186 317.153 320.669 317.263 321.076 317.482C321.485 317.697 321.8 317.986 322.022 318.347C322.246 318.707 322.357 319.102 322.354 319.531C322.357 320.02 322.221 320.435 321.945 320.776C321.672 321.116 321.309 321.345 320.854 321.462V321.53C321.434 321.618 321.882 321.848 322.201 322.22C322.522 322.592 322.681 323.054 322.678 323.605C322.681 324.085 322.547 324.516 322.277 324.896C322.01 325.277 321.645 325.577 321.182 325.795C320.719 326.011 320.189 326.119 319.593 326.119Z" fill="#73768C"/>
<path d="M349.028 318.406V317.273H355.783V318.406H353.06V326H351.747V318.406H349.028ZM356.981 326H355.583L358.724 317.273H360.245L363.386 326H361.988L359.521 318.858H359.453L356.981 326ZM357.216 322.582H361.75V323.69H357.216V322.582ZM364.646 326V317.273H367.842C368.462 317.273 368.974 317.375 369.381 317.58C369.787 317.781 370.091 318.055 370.293 318.402C370.494 318.746 370.595 319.134 370.595 319.565C370.595 319.929 370.528 320.236 370.395 320.486C370.261 320.733 370.082 320.932 369.858 321.082C369.636 321.23 369.392 321.338 369.125 321.406V321.491C369.415 321.506 369.697 321.599 369.973 321.773C370.251 321.943 370.482 322.186 370.663 322.501C370.845 322.817 370.936 323.2 370.936 323.652C370.936 324.098 370.831 324.499 370.621 324.854C370.413 325.206 370.092 325.486 369.658 325.693C369.223 325.898 368.668 326 367.991 326H364.646ZM365.963 324.871H367.864C368.494 324.871 368.946 324.749 369.219 324.504C369.491 324.26 369.628 323.955 369.628 323.588C369.628 323.312 369.558 323.06 369.419 322.83C369.28 322.599 369.081 322.416 368.822 322.28C368.567 322.143 368.263 322.075 367.911 322.075H365.963V324.871ZM365.963 321.048H367.727C368.023 321.048 368.288 320.991 368.524 320.878C368.763 320.764 368.952 320.605 369.091 320.401C369.233 320.193 369.304 319.949 369.304 319.668C369.304 319.307 369.178 319.004 368.925 318.76C368.672 318.516 368.284 318.393 367.761 318.393H365.963V321.048ZM375.371 324.295V323.23L379.142 317.273H379.982V318.841H379.449L376.752 323.111V323.179H381.921V324.295H375.371ZM379.509 326V323.972L379.517 323.486V317.273H380.766V326H379.509Z" fill="#73768C"/>
</g>
<g clip-path="url(#clip3_133_458)">
<rect x="60" y="427" width="516" height="1" fill="#E3E4E8"/>
<path d="M183.528 399.406V398.273H190.283V399.406H187.56V407H186.247V399.406H183.528ZM191.481 407H190.083L193.224 398.273H194.745L197.886 407H196.488L194.021 399.858H193.953L191.481 407ZM191.716 403.582H196.25V404.69H191.716V403.582ZM199.146 407V398.273H202.342C202.962 398.273 203.474 398.375 203.881 398.58C204.287 398.781 204.591 399.055 204.793 399.402C204.994 399.746 205.095 400.134 205.095 400.565C205.095 400.929 205.028 401.236 204.895 401.486C204.761 401.733 204.582 401.932 204.358 402.082C204.136 402.23 203.892 402.338 203.625 402.406V402.491C203.915 402.506 204.197 402.599 204.473 402.773C204.751 402.943 204.982 403.186 205.163 403.501C205.345 403.817 205.436 404.2 205.436 404.652C205.436 405.098 205.331 405.499 205.121 405.854C204.913 406.206 204.592 406.486 204.158 406.693C203.723 406.898 203.168 407 202.491 407H199.146ZM200.463 405.871H202.364C202.994 405.871 203.446 405.749 203.719 405.504C203.991 405.26 204.128 404.955 204.128 404.588C204.128 404.312 204.058 404.06 203.919 403.83C203.78 403.599 203.581 403.416 203.322 403.28C203.067 403.143 202.763 403.075 202.411 403.075H200.463V405.871ZM200.463 402.048H202.227C202.523 402.048 202.788 401.991 203.024 401.878C203.263 401.764 203.452 401.605 203.591 401.401C203.733 401.193 203.804 400.949 203.804 400.668C203.804 400.307 203.678 400.004 203.425 399.76C203.172 399.516 202.784 399.393 202.261 399.393H200.463V402.048ZM213.365 398.273V407H212.044V399.594H211.993L209.905 400.957V399.696L212.083 398.273H213.365Z" fill="#0E69F1"/>
<rect x="171" y="419" width="56" height="1" fill="#0E69F1"/>
<path d="M240.528 399.406V398.273H247.283V399.406H244.56V407H243.247V399.406H240.528ZM248.481 407H247.083L250.224 398.273H251.745L254.886 407H253.488L251.021 399.858H250.953L248.481 407ZM248.716 403.582H253.25V404.69H248.716V403.582ZM256.146 407V398.273H259.342C259.962 398.273 260.474 398.375 260.881 398.58C261.287 398.781 261.591 399.055 261.793 399.402C261.994 399.746 262.095 400.134 262.095 400.565C262.095 400.929 262.028 401.236 261.895 401.486C261.761 401.733 261.582 401.932 261.358 402.082C261.136 402.23 260.892 402.338 260.625 402.406V402.491C260.915 402.506 261.197 402.599 261.473 402.773C261.751 402.943 261.982 403.186 262.163 403.501C262.345 403.817 262.436 404.2 262.436 404.652C262.436 405.098 262.331 405.499 262.121 405.854C261.913 406.206 261.592 406.486 261.158 406.693C260.723 406.898 260.168 407 259.491 407H256.146ZM257.463 405.871H259.364C259.994 405.871 260.446 405.749 260.719 405.504C260.991 405.26 261.128 404.955 261.128 404.588C261.128 404.312 261.058 404.06 260.919 403.83C260.78 403.599 260.581 403.416 260.322 403.28C260.067 403.143 259.763 403.075 259.411 403.075H257.463V405.871ZM257.463 402.048H259.227C259.523 402.048 259.788 401.991 260.024 401.878C260.263 401.764 260.452 401.605 260.591 401.401C260.733 401.193 260.804 400.949 260.804 400.668C260.804 400.307 260.678 400.004 260.425 399.76C260.172 399.516 259.784 399.393 259.261 399.393H257.463V402.048ZM267.054 407V406.045L270.007 402.986C270.323 402.653 270.583 402.362 270.787 402.112C270.995 401.859 271.15 401.619 271.252 401.392C271.354 401.165 271.405 400.923 271.405 400.668C271.405 400.378 271.337 400.128 271.201 399.918C271.064 399.705 270.878 399.541 270.642 399.428C270.407 399.311 270.141 399.253 269.846 399.253C269.533 399.253 269.26 399.317 269.027 399.445C268.794 399.572 268.615 399.753 268.49 399.986C268.365 400.219 268.303 400.491 268.303 400.804H267.046C267.046 400.273 267.168 399.808 267.412 399.411C267.657 399.013 267.992 398.705 268.418 398.486C268.844 398.264 269.328 398.153 269.871 398.153C270.419 398.153 270.902 398.263 271.32 398.482C271.74 398.697 272.069 398.993 272.304 399.368C272.54 399.74 272.658 400.161 272.658 400.629C272.658 400.953 272.597 401.27 272.475 401.58C272.355 401.889 272.147 402.234 271.848 402.615C271.55 402.993 271.135 403.452 270.604 403.991L268.87 405.807V405.871H272.799V407H267.054Z" fill="#73768C"/>
<path d="M299.528 399.406V398.273H306.283V399.406H303.56V407H302.247V399.406H299.528ZM307.481 407H306.083L309.224 398.273H310.745L313.886 407H312.488L310.021 399.858H309.953L307.481 407ZM307.716 403.582H312.25V404.69H307.716V403.582ZM315.146 407V398.273H318.342C318.962 398.273 319.474 398.375 319.881 398.58C320.287 398.781 320.591 399.055 320.793 399.402C320.994 399.746 321.095 400.134 321.095 400.565C321.095 400.929 321.028 401.236 320.895 401.486C320.761 401.733 320.582 401.932 320.358 402.082C320.136 402.23 319.892 402.338 319.625 402.406V402.491C319.915 402.506 320.197 402.599 320.473 402.773C320.751 402.943 320.982 403.186 321.163 403.501C321.345 403.817 321.436 404.2 321.436 404.652C321.436 405.098 321.331 405.499 321.121 405.854C320.913 406.206 320.592 406.486 320.158 406.693C319.723 406.898 319.168 407 318.491 407H315.146ZM316.463 405.871H318.364C318.994 405.871 319.446 405.749 319.719 405.504C319.991 405.26 320.128 404.955 320.128 404.588C320.128 404.312 320.058 404.06 319.919 403.83C319.78 403.599 319.581 403.416 319.322 403.28C319.067 403.143 318.763 403.075 318.411 403.075H316.463V405.871ZM316.463 402.048H318.227C318.523 402.048 318.788 401.991 319.024 401.878C319.263 401.764 319.452 401.605 319.591 401.401C319.733 401.193 319.804 400.949 319.804 400.668C319.804 400.307 319.678 400.004 319.425 399.76C319.172 399.516 318.784 399.393 318.261 399.393H316.463V402.048ZM329.093 407.119C328.507 407.119 327.985 407.018 327.525 406.817C327.067 406.615 326.705 406.335 326.438 405.977C326.174 405.616 326.032 405.199 326.012 404.724H327.35C327.367 404.983 327.453 405.207 327.61 405.398C327.769 405.585 327.976 405.73 328.232 405.832C328.488 405.935 328.772 405.986 329.084 405.986C329.428 405.986 329.732 405.926 329.996 405.807C330.263 405.687 330.472 405.521 330.623 405.308C330.773 405.092 330.848 404.844 330.848 404.562C330.848 404.27 330.773 404.013 330.623 403.791C330.475 403.567 330.257 403.391 329.971 403.263C329.686 403.135 329.343 403.071 328.939 403.071H328.202V401.997H328.939C329.263 401.997 329.547 401.939 329.792 401.822C330.039 401.706 330.232 401.544 330.371 401.337C330.51 401.126 330.58 400.881 330.58 400.599C330.58 400.33 330.519 400.095 330.397 399.896C330.277 399.695 330.107 399.537 329.885 399.423C329.667 399.31 329.408 399.253 329.11 399.253C328.826 399.253 328.56 399.305 328.313 399.411C328.069 399.513 327.87 399.661 327.716 399.854C327.563 400.044 327.48 400.273 327.469 400.54H326.195C326.209 400.068 326.348 399.653 326.613 399.295C326.88 398.937 327.232 398.658 327.669 398.456C328.107 398.254 328.593 398.153 329.127 398.153C329.686 398.153 330.169 398.263 330.576 398.482C330.985 398.697 331.3 398.986 331.522 399.347C331.746 399.707 331.857 400.102 331.854 400.531C331.857 401.02 331.721 401.435 331.445 401.776C331.172 402.116 330.809 402.345 330.354 402.462V402.53C330.934 402.618 331.382 402.848 331.701 403.22C332.022 403.592 332.181 404.054 332.178 404.605C332.181 405.085 332.047 405.516 331.777 405.896C331.51 406.277 331.145 406.577 330.682 406.795C330.219 407.011 329.689 407.119 329.093 407.119Z" fill="#73768C"/>
<path d="M358.528 399.406V398.273H365.283V399.406H362.56V407H361.247V399.406H358.528ZM366.481 407H365.083L368.224 398.273H369.745L372.886 407H371.488L369.021 399.858H368.953L366.481 407ZM366.716 403.582H371.25V404.69H366.716V403.582ZM374.146 407V398.273H377.342C377.962 398.273 378.474 398.375 378.881 398.58C379.287 398.781 379.591 399.055 379.793 399.402C379.994 399.746 380.095 400.134 380.095 400.565C380.095 400.929 380.028 401.236 379.895 401.486C379.761 401.733 379.582 401.932 379.358 402.082C379.136 402.23 378.892 402.338 378.625 402.406V402.491C378.915 402.506 379.197 402.599 379.473 402.773C379.751 402.943 379.982 403.186 380.163 403.501C380.345 403.817 380.436 404.2 380.436 404.652C380.436 405.098 380.331 405.499 380.121 405.854C379.913 406.206 379.592 406.486 379.158 406.693C378.723 406.898 378.168 407 377.491 407H374.146ZM375.463 405.871H377.364C377.994 405.871 378.446 405.749 378.719 405.504C378.991 405.26 379.128 404.955 379.128 404.588C379.128 404.312 379.058 404.06 378.919 403.83C378.78 403.599 378.581 403.416 378.322 403.28C378.067 403.143 377.763 403.075 377.411 403.075H375.463V405.871ZM375.463 402.048H377.227C377.523 402.048 377.788 401.991 378.024 401.878C378.263 401.764 378.452 401.605 378.591 401.401C378.733 401.193 378.804 400.949 378.804 400.668C378.804 400.307 378.678 400.004 378.425 399.76C378.172 399.516 377.784 399.393 377.261 399.393H375.463V402.048ZM384.871 405.295V404.23L388.642 398.273H389.482V399.841H388.949L386.252 404.111V404.179H391.421V405.295H384.871ZM389.009 407V404.972L389.017 404.486V398.273H390.266V407H389.009Z" fill="#73768C"/>
<path d="M418.528 399.406V398.273H425.283V399.406H422.56V407H421.247V399.406H418.528ZM426.481 407H425.083L428.224 398.273H429.745L432.886 407H431.488L429.021 399.858H428.953L426.481 407ZM426.716 403.582H431.25V404.69H426.716V403.582ZM434.146 407V398.273H437.342C437.962 398.273 438.474 398.375 438.881 398.58C439.287 398.781 439.591 399.055 439.793 399.402C439.994 399.746 440.095 400.134 440.095 400.565C440.095 400.929 440.028 401.236 439.895 401.486C439.761 401.733 439.582 401.932 439.358 402.082C439.136 402.23 438.892 402.338 438.625 402.406V402.491C438.915 402.506 439.197 402.599 439.473 402.773C439.751 402.943 439.982 403.186 440.163 403.501C440.345 403.817 440.436 404.2 440.436 404.652C440.436 405.098 440.331 405.499 440.121 405.854C439.913 406.206 439.592 406.486 439.158 406.693C438.723 406.898 438.168 407 437.491 407H434.146ZM435.463 405.871H437.364C437.994 405.871 438.446 405.749 438.719 405.504C438.991 405.26 439.128 404.955 439.128 404.588C439.128 404.312 439.058 404.06 438.919 403.83C438.78 403.599 438.581 403.416 438.322 403.28C438.067 403.143 437.763 403.075 437.411 403.075H435.463V405.871ZM435.463 402.048H437.227C437.523 402.048 437.788 401.991 438.024 401.878C438.263 401.764 438.452 401.605 438.591 401.401C438.733 401.193 438.804 400.949 438.804 400.668C438.804 400.307 438.678 400.004 438.425 399.76C438.172 399.516 437.784 399.393 437.261 399.393H435.463V402.048ZM447.935 407.119C447.401 407.119 446.921 407.017 446.495 406.812C446.071 406.605 445.733 406.321 445.48 405.96C445.228 405.599 445.093 405.188 445.076 404.724H446.354C446.385 405.099 446.551 405.408 446.853 405.649C447.154 405.891 447.515 406.011 447.935 406.011C448.27 406.011 448.567 405.935 448.826 405.781C449.087 405.625 449.292 405.411 449.439 405.138C449.59 404.865 449.665 404.554 449.665 404.205C449.665 403.849 449.588 403.533 449.435 403.254C449.282 402.976 449.07 402.757 448.8 402.598C448.533 402.439 448.226 402.358 447.88 402.355C447.615 402.355 447.35 402.401 447.083 402.491C446.816 402.582 446.6 402.702 446.435 402.849L445.229 402.67L445.719 398.273H450.517V399.402H446.814L446.537 401.844H446.588C446.759 401.679 446.985 401.541 447.266 401.43C447.55 401.32 447.854 401.264 448.178 401.264C448.709 401.264 449.182 401.391 449.597 401.643C450.015 401.896 450.343 402.241 450.581 402.679C450.823 403.114 450.942 403.614 450.939 404.179C450.942 404.744 450.814 405.249 450.556 405.692C450.3 406.135 449.945 406.484 449.49 406.74C449.039 406.993 448.52 407.119 447.935 407.119Z" fill="#73768C"/>
</g>
<path d="M43.3796 50.2955V47.9091H64.4734V50.2955H55.2546V77H52.5984V50.2955H43.3796ZM73.0529 77.4972C71.7366 77.4972 70.534 77.2415 69.445 76.7301C68.3559 76.2093 67.4895 75.4612 66.8455 74.4858C66.2016 73.5009 65.8796 72.3078 65.8796 70.9062C65.8796 69.8267 66.0832 68.9176 66.4904 68.179C66.8976 67.4403 67.4753 66.8343 68.2234 66.3608C68.9715 65.8873 69.8569 65.5133 70.8796 65.2386C71.9023 64.964 73.0292 64.7509 74.2603 64.5994C75.4819 64.4479 76.5141 64.3153 77.3569 64.2017C78.2092 64.0881 78.8578 63.9081 79.3029 63.6619C79.748 63.4157 79.9705 63.018 79.9705 62.4688V61.9574C79.9705 60.4706 79.5255 59.3011 78.6353 58.4489C77.7546 57.5871 76.4857 57.1562 74.8285 57.1562C73.2565 57.1562 71.9734 57.5019 70.979 58.1932C69.9942 58.8845 69.3029 59.6989 68.9052 60.6364L66.5046 59.7699C66.997 58.5767 67.6789 57.625 68.5501 56.9148C69.4213 56.1951 70.3967 55.679 71.4762 55.3665C72.5558 55.0445 73.6495 54.8835 74.7575 54.8835C75.5908 54.8835 76.4573 54.9924 77.3569 55.2102C78.266 55.428 79.1088 55.8068 79.8853 56.3466C80.6618 56.8769 81.2915 57.6203 81.7745 58.5767C82.2575 59.5237 82.4989 60.7263 82.4989 62.1847V77H79.9705V73.5483H79.8143C79.5112 74.1922 79.0614 74.8172 78.4648 75.4233C77.8683 76.0294 77.1201 76.5265 76.2205 76.9148C75.3209 77.303 74.265 77.4972 73.0529 77.4972ZM73.3938 75.1818C74.7385 75.1818 75.9033 74.8835 76.8881 74.2869C77.873 73.6903 78.6306 72.8996 79.1609 71.9148C79.7006 70.9205 79.9705 69.8267 79.9705 68.6335V65.4801C79.7811 65.66 79.4639 65.821 79.0188 65.9631C78.5832 66.1051 78.0766 66.233 77.4989 66.3466C76.9308 66.4508 76.3626 66.5407 75.7944 66.6165C75.2262 66.6922 74.7148 66.7585 74.2603 66.8153C73.0292 66.9669 71.9781 67.2036 71.1069 67.5256C70.2357 67.8475 69.5681 68.2926 69.104 68.8608C68.64 69.4195 68.408 70.1392 68.408 71.0199C68.408 72.3456 68.8815 73.3731 69.8285 74.1023C70.7754 74.822 71.9639 75.1818 73.3938 75.1818ZM89.7504 77V47.9091H92.293V59.3438H92.5202C92.8043 58.6903 93.2115 58.018 93.7418 57.3267C94.2816 56.6354 94.9871 56.0578 95.8583 55.5938C96.739 55.1203 97.8469 54.8835 99.1822 54.8835C100.972 54.8835 102.544 55.357 103.898 56.304C105.252 57.2415 106.308 58.5578 107.066 60.2528C107.823 61.9384 108.202 63.9034 108.202 66.1477C108.202 68.4015 107.823 70.3759 107.066 72.071C106.318 73.7661 105.266 75.0871 103.912 76.0341C102.568 76.9811 101.005 77.4545 99.2248 77.4545C97.899 77.4545 96.7911 77.2178 95.9009 76.7443C95.0202 76.2708 94.31 75.6884 93.7702 74.9972C93.2305 74.2964 92.8138 73.6146 92.5202 72.9517H92.2077V77H89.7504ZM92.2504 66.1051C92.2504 67.8665 92.5108 69.429 93.0316 70.7926C93.5619 72.1468 94.3195 73.2121 95.3043 73.9886C96.2987 74.7557 97.5013 75.1392 98.9123 75.1392C100.361 75.1392 101.587 74.7415 102.591 73.946C103.595 73.1411 104.357 72.0568 104.878 70.6932C105.399 69.3295 105.659 67.8002 105.659 66.1051C105.659 64.429 105.399 62.9186 104.878 61.5739C104.367 60.2292 103.609 59.1638 102.605 58.3778C101.602 57.5824 100.371 57.1847 98.9123 57.1847C97.4918 57.1847 96.2844 57.5682 95.2901 58.3352C94.3053 59.0928 93.5524 60.1439 93.0316 61.4886C92.5108 62.8239 92.2504 64.3627 92.2504 66.1051ZM125.532 77V47.9091H128.074V59.3438H128.301C128.586 58.6903 128.993 58.018 129.523 57.3267C130.063 56.6354 130.768 56.0578 131.64 55.5938C132.52 55.1203 133.628 54.8835 134.963 54.8835C136.753 54.8835 138.325 55.357 139.679 56.304C141.033 57.2415 142.089 58.5578 142.847 60.2528C143.605 61.9384 143.983 63.9034 143.983 66.1477C143.983 68.4015 143.605 70.3759 142.847 72.071C142.099 73.7661 141.048 75.0871 139.694 76.0341C138.349 76.9811 136.786 77.4545 135.006 77.4545C133.68 77.4545 132.572 77.2178 131.682 76.7443C130.801 76.2708 130.091 75.6884 129.551 74.9972C129.012 74.2964 128.595 73.6146 128.301 72.9517H127.989V77H125.532ZM128.032 66.1051C128.032 67.8665 128.292 69.429 128.813 70.7926C129.343 72.1468 130.101 73.2121 131.086 73.9886C132.08 74.7557 133.283 75.1392 134.694 75.1392C136.142 75.1392 137.369 74.7415 138.373 73.946C139.376 73.1411 140.139 72.0568 140.659 70.6932C141.18 69.3295 141.441 67.8002 141.441 66.1051C141.441 64.429 141.18 62.9186 140.659 61.5739C140.148 60.2292 139.391 59.1638 138.387 58.3778C137.383 57.5824 136.152 57.1847 134.694 57.1847C133.273 57.1847 132.066 57.5682 131.071 58.3352C130.087 59.0928 129.334 60.1439 128.813 61.4886C128.292 62.8239 128.032 64.3627 128.032 66.1051ZM155.631 77.4972C154.315 77.4972 153.112 77.2415 152.023 76.7301C150.934 76.2093 150.068 75.4612 149.424 74.4858C148.78 73.5009 148.458 72.3078 148.458 70.9062C148.458 69.8267 148.661 68.9176 149.069 68.179C149.476 67.4403 150.053 66.8343 150.801 66.3608C151.55 65.8873 152.435 65.5133 153.458 65.2386C154.48 64.964 155.607 64.7509 156.838 64.5994C158.06 64.4479 159.092 64.3153 159.935 64.2017C160.787 64.0881 161.436 63.9081 161.881 63.6619C162.326 63.4157 162.549 63.018 162.549 62.4688V61.9574C162.549 60.4706 162.104 59.3011 161.213 58.4489C160.333 57.5871 159.064 57.1562 157.407 57.1562C155.835 57.1562 154.551 57.5019 153.557 58.1932C152.572 58.8845 151.881 59.6989 151.483 60.6364L149.083 59.7699C149.575 58.5767 150.257 57.625 151.128 56.9148C151.999 56.1951 152.975 55.679 154.054 55.3665C155.134 55.0445 156.228 54.8835 157.336 54.8835C158.169 54.8835 159.035 54.9924 159.935 55.2102C160.844 55.428 161.687 55.8068 162.463 56.3466C163.24 56.8769 163.87 57.6203 164.353 58.5767C164.836 59.5237 165.077 60.7263 165.077 62.1847V77H162.549V73.5483H162.392C162.089 74.1922 161.64 74.8172 161.043 75.4233C160.446 76.0294 159.698 76.5265 158.799 76.9148C157.899 77.303 156.843 77.4972 155.631 77.4972ZM155.972 75.1818C157.317 75.1818 158.481 74.8835 159.466 74.2869C160.451 73.6903 161.209 72.8996 161.739 71.9148C162.279 70.9205 162.549 69.8267 162.549 68.6335V65.4801C162.359 65.66 162.042 65.821 161.597 65.9631C161.161 66.1051 160.655 66.233 160.077 66.3466C159.509 66.4508 158.941 66.5407 158.373 66.6165C157.804 66.6922 157.293 66.7585 156.838 66.8153C155.607 66.9669 154.556 67.2036 153.685 67.5256C152.814 67.8475 152.146 68.2926 151.682 68.8608C151.218 69.4195 150.986 70.1392 150.986 71.0199C150.986 72.3456 151.46 73.3731 152.407 74.1023C153.354 74.822 154.542 75.1818 155.972 75.1818ZM171.803 77V55.1818H174.26V58.5341H174.445C174.881 57.4356 175.638 56.5502 176.718 55.8778C177.807 55.196 179.038 54.8551 180.411 54.8551C180.619 54.8551 180.851 54.8598 181.107 54.8693C181.363 54.8788 181.576 54.8883 181.746 54.8977V57.4688C181.632 57.4498 181.434 57.4214 181.15 57.3835C180.865 57.3456 180.558 57.3267 180.226 57.3267C179.09 57.3267 178.077 57.5682 177.186 58.0511C176.306 58.5246 175.61 59.1828 175.098 60.0256C174.587 60.8684 174.331 61.8295 174.331 62.9091V77H171.803Z" fill="#C4C8DC"/>
<defs>
<clipPath id="clip0_133_458">
<rect width="282" height="41" fill="white" transform="translate(60 144)"/>
</clipPath>
<clipPath id="clip1_133_458">
<rect width="360" height="41" fill="white" transform="translate(60 225)"/>
</clipPath>
<clipPath id="clip2_133_458">
<rect width="438" height="41" fill="white" transform="translate(60 306)"/>
</clipPath>
<clipPath id="clip3_133_458">
<rect width="516" height="41" fill="white" transform="translate(60 387)"/>
</clipPath>
</defs>
</svg>
