<svg width="462" height="1273" viewBox="0 0 462 1273" fill="none" xmlns="http://www.w3.org/2000/svg">
<rect width="462" height="1273" rx="16" fill="white"/>
<rect x="40.5" y="124.5" width="381" height="1108" rx="4.5" stroke="#9747FF" stroke-dasharray="10 5"/>
<path d="M90.5284 156.406V155.273H97.2827V156.406H94.5597V164H93.2472V156.406H90.5284ZM98.4812 164H97.0835L100.224 155.273H101.745L104.886 164H103.488L101.021 156.858H100.953L98.4812 164ZM98.7156 160.582H103.25V161.69H98.7156V160.582ZM106.146 164V155.273H109.342C109.962 155.273 110.474 155.375 110.881 155.58C111.287 155.781 111.591 156.055 111.793 156.402C111.994 156.746 112.095 157.134 112.095 157.565C112.095 157.929 112.028 158.236 111.895 158.486C111.761 158.733 111.582 158.932 111.358 159.082C111.136 159.23 110.892 159.338 110.625 159.406V159.491C110.915 159.506 111.197 159.599 111.473 159.773C111.751 159.943 111.982 160.186 112.163 160.501C112.345 160.817 112.436 161.2 112.436 161.652C112.436 162.098 112.331 162.499 112.121 162.854C111.913 163.206 111.592 163.486 111.158 163.693C110.723 163.898 110.168 164 109.491 164H106.146ZM107.463 162.871H109.364C109.994 162.871 110.446 162.749 110.719 162.504C110.991 162.26 111.128 161.955 111.128 161.588C111.128 161.312 111.058 161.06 110.919 160.83C110.78 160.599 110.581 160.416 110.322 160.28C110.067 160.143 109.763 160.075 109.411 160.075H107.463V162.871ZM107.463 159.048H109.227C109.523 159.048 109.788 158.991 110.024 158.878C110.263 158.764 110.452 158.605 110.591 158.401C110.733 158.193 110.804 157.949 110.804 157.668C110.804 157.307 110.678 157.004 110.425 156.76C110.172 156.516 109.784 156.393 109.261 156.393H107.463V159.048ZM121.934 157.565C121.888 157.162 121.701 156.849 121.371 156.628C121.042 156.403 120.627 156.291 120.127 156.291C119.769 156.291 119.459 156.348 119.198 156.462C118.936 156.572 118.733 156.726 118.588 156.922C118.446 157.115 118.375 157.335 118.375 157.582C118.375 157.79 118.424 157.969 118.52 158.119C118.62 158.27 118.749 158.396 118.908 158.499C119.07 158.598 119.243 158.682 119.428 158.75C119.613 158.815 119.79 158.869 119.961 158.912L120.813 159.134C121.091 159.202 121.377 159.294 121.669 159.411C121.962 159.527 122.233 159.68 122.483 159.871C122.733 160.061 122.935 160.297 123.088 160.578C123.245 160.859 123.323 161.196 123.323 161.588C123.323 162.082 123.195 162.521 122.939 162.905C122.686 163.288 122.319 163.591 121.836 163.812C121.355 164.034 120.775 164.145 120.093 164.145C119.439 164.145 118.874 164.041 118.397 163.834C117.919 163.626 117.546 163.332 117.276 162.952C117.006 162.568 116.857 162.114 116.828 161.588H118.15C118.175 161.903 118.277 162.166 118.456 162.376C118.638 162.584 118.87 162.739 119.151 162.841C119.435 162.94 119.746 162.99 120.084 162.99C120.456 162.99 120.787 162.932 121.077 162.815C121.37 162.696 121.6 162.531 121.767 162.321C121.935 162.108 122.019 161.859 122.019 161.575C122.019 161.317 121.945 161.105 121.797 160.94C121.652 160.776 121.455 160.639 121.205 160.531C120.958 160.423 120.678 160.328 120.365 160.246L119.334 159.964C118.635 159.774 118.081 159.494 117.672 159.125C117.266 158.756 117.063 158.267 117.063 157.659C117.063 157.156 117.199 156.717 117.472 156.342C117.745 155.967 118.114 155.676 118.58 155.469C119.046 155.259 119.571 155.153 120.157 155.153C120.748 155.153 121.269 155.257 121.721 155.464C122.175 155.672 122.533 155.957 122.794 156.321C123.056 156.682 123.192 157.097 123.203 157.565H121.934ZM124.896 155.273H126.494L129.273 162.057H129.375L132.153 155.273H133.751V164H132.499V157.685H132.418L129.844 163.987H128.804L126.23 157.68H126.149V164H124.896V155.273ZM136.403 164H135.005L138.146 155.273H139.667L142.808 164H141.41L138.943 156.858H138.875L136.403 164ZM136.637 160.582H141.172V161.69H136.637V160.582ZM144.068 164V155.273H145.385V162.866H149.339V164H144.068ZM150.842 164V155.273H152.158V162.866H156.113V164H150.842Z" fill="#0E69F1"/>
<rect x="78" y="176" width="91" height="1" fill="#0E69F1"/>
<path d="M90.5284 972.406V971.273H97.2827V972.406H94.5597V980H93.2472V972.406H90.5284ZM98.4812 980H97.0835L100.224 971.273H101.745L104.886 980H103.488L101.021 972.858H100.953L98.4812 980ZM98.7156 976.582H103.25V977.69H98.7156V976.582ZM106.146 980V971.273H109.342C109.962 971.273 110.474 971.375 110.881 971.58C111.287 971.781 111.591 972.055 111.793 972.402C111.994 972.746 112.095 973.134 112.095 973.565C112.095 973.929 112.028 974.236 111.895 974.486C111.761 974.733 111.582 974.932 111.358 975.082C111.136 975.23 110.892 975.338 110.625 975.406V975.491C110.915 975.506 111.197 975.599 111.473 975.773C111.751 975.943 111.982 976.186 112.163 976.501C112.345 976.817 112.436 977.2 112.436 977.652C112.436 978.098 112.331 978.499 112.121 978.854C111.913 979.206 111.592 979.486 111.158 979.693C110.723 979.898 110.168 980 109.491 980H106.146ZM107.463 978.871H109.364C109.994 978.871 110.446 978.749 110.719 978.504C110.991 978.26 111.128 977.955 111.128 977.588C111.128 977.312 111.058 977.06 110.919 976.83C110.78 976.599 110.581 976.416 110.322 976.28C110.067 976.143 109.763 976.075 109.411 976.075H107.463V978.871ZM107.463 975.048H109.227C109.523 975.048 109.788 974.991 110.024 974.878C110.263 974.764 110.452 974.605 110.591 974.401C110.733 974.193 110.804 973.949 110.804 973.668C110.804 973.307 110.678 973.004 110.425 972.76C110.172 972.516 109.784 972.393 109.261 972.393H107.463V975.048ZM121.934 973.565C121.888 973.162 121.701 972.849 121.371 972.628C121.042 972.403 120.627 972.291 120.127 972.291C119.769 972.291 119.459 972.348 119.198 972.462C118.936 972.572 118.733 972.726 118.588 972.922C118.446 973.115 118.375 973.335 118.375 973.582C118.375 973.79 118.424 973.969 118.52 974.119C118.62 974.27 118.749 974.396 118.908 974.499C119.07 974.598 119.243 974.682 119.428 974.75C119.613 974.815 119.79 974.869 119.961 974.912L120.813 975.134C121.091 975.202 121.377 975.294 121.669 975.411C121.962 975.527 122.233 975.68 122.483 975.871C122.733 976.061 122.935 976.297 123.088 976.578C123.245 976.859 123.323 977.196 123.323 977.588C123.323 978.082 123.195 978.521 122.939 978.905C122.686 979.288 122.319 979.591 121.836 979.812C121.355 980.034 120.775 980.145 120.093 980.145C119.439 980.145 118.874 980.041 118.397 979.834C117.919 979.626 117.546 979.332 117.276 978.952C117.006 978.568 116.857 978.114 116.828 977.588H118.15C118.175 977.903 118.277 978.166 118.456 978.376C118.638 978.584 118.87 978.739 119.151 978.841C119.435 978.94 119.746 978.99 120.084 978.99C120.456 978.99 120.787 978.932 121.077 978.815C121.37 978.696 121.6 978.531 121.767 978.321C121.935 978.108 122.019 977.859 122.019 977.575C122.019 977.317 121.945 977.105 121.797 976.94C121.652 976.776 121.455 976.639 121.205 976.531C120.958 976.423 120.678 976.328 120.365 976.246L119.334 975.964C118.635 975.774 118.081 975.494 117.672 975.125C117.266 974.756 117.063 974.267 117.063 973.659C117.063 973.156 117.199 972.717 117.472 972.342C117.745 971.967 118.114 971.676 118.58 971.469C119.046 971.259 119.571 971.153 120.157 971.153C120.748 971.153 121.269 971.257 121.721 971.464C122.175 971.672 122.533 971.957 122.794 972.321C123.056 972.682 123.192 973.097 123.203 973.565H121.934ZM124.896 971.273H126.494L129.273 978.057H129.375L132.153 971.273H133.751V980H132.499V973.685H132.418L129.844 979.987H128.804L126.23 973.68H126.149V980H124.896V971.273ZM136.403 980H135.005L138.146 971.273H139.667L142.808 980H141.41L138.943 972.858H138.875L136.403 980ZM136.637 976.582H141.172V977.69H136.637V976.582ZM144.068 980V971.273H145.385V978.866H149.339V980H144.068ZM150.842 980V971.273H152.158V978.866H156.113V980H150.842Z" fill="#CEE9FE"/>
<rect x="78" y="992" width="91" height="1" fill="#CEE9FE"/>
<path d="M78 423C78 418.582 81.5817 415 86 415H161C165.418 415 169 418.582 169 423V447H78V423Z" fill="#F9F9F9"/>
<path d="M90.5284 427.406V426.273H97.2827V427.406H94.5597V435H93.2472V427.406H90.5284ZM98.4812 435H97.0835L100.224 426.273H101.745L104.886 435H103.488L101.021 427.858H100.953L98.4812 435ZM98.7156 431.582H103.25V432.69H98.7156V431.582ZM106.146 435V426.273H109.342C109.962 426.273 110.474 426.375 110.881 426.58C111.287 426.781 111.591 427.055 111.793 427.402C111.994 427.746 112.095 428.134 112.095 428.565C112.095 428.929 112.028 429.236 111.895 429.486C111.761 429.733 111.582 429.932 111.358 430.082C111.136 430.23 110.892 430.338 110.625 430.406V430.491C110.915 430.506 111.197 430.599 111.473 430.773C111.751 430.943 111.982 431.186 112.163 431.501C112.345 431.817 112.436 432.2 112.436 432.652C112.436 433.098 112.331 433.499 112.121 433.854C111.913 434.206 111.592 434.486 111.158 434.693C110.723 434.898 110.168 435 109.491 435H106.146ZM107.463 433.871H109.364C109.994 433.871 110.446 433.749 110.719 433.504C110.991 433.26 111.128 432.955 111.128 432.588C111.128 432.312 111.058 432.06 110.919 431.83C110.78 431.599 110.581 431.416 110.322 431.28C110.067 431.143 109.763 431.075 109.411 431.075H107.463V433.871ZM107.463 430.048H109.227C109.523 430.048 109.788 429.991 110.024 429.878C110.263 429.764 110.452 429.605 110.591 429.401C110.733 429.193 110.804 428.949 110.804 428.668C110.804 428.307 110.678 428.004 110.425 427.76C110.172 427.516 109.784 427.393 109.261 427.393H107.463V430.048ZM121.934 428.565C121.888 428.162 121.701 427.849 121.371 427.628C121.042 427.403 120.627 427.291 120.127 427.291C119.769 427.291 119.459 427.348 119.198 427.462C118.936 427.572 118.733 427.726 118.588 427.922C118.446 428.115 118.375 428.335 118.375 428.582C118.375 428.79 118.424 428.969 118.52 429.119C118.62 429.27 118.749 429.396 118.908 429.499C119.07 429.598 119.243 429.682 119.428 429.75C119.613 429.815 119.79 429.869 119.961 429.912L120.813 430.134C121.091 430.202 121.377 430.294 121.669 430.411C121.962 430.527 122.233 430.68 122.483 430.871C122.733 431.061 122.935 431.297 123.088 431.578C123.245 431.859 123.323 432.196 123.323 432.588C123.323 433.082 123.195 433.521 122.939 433.905C122.686 434.288 122.319 434.591 121.836 434.812C121.355 435.034 120.775 435.145 120.093 435.145C119.439 435.145 118.874 435.041 118.397 434.834C117.919 434.626 117.546 434.332 117.276 433.952C117.006 433.568 116.857 433.114 116.828 432.588H118.15C118.175 432.903 118.277 433.166 118.456 433.376C118.638 433.584 118.87 433.739 119.151 433.841C119.435 433.94 119.746 433.99 120.084 433.99C120.456 433.99 120.787 433.932 121.077 433.815C121.37 433.696 121.6 433.531 121.767 433.321C121.935 433.108 122.019 432.859 122.019 432.575C122.019 432.317 121.945 432.105 121.797 431.94C121.652 431.776 121.455 431.639 121.205 431.531C120.958 431.423 120.678 431.328 120.365 431.246L119.334 430.964C118.635 430.774 118.081 430.494 117.672 430.125C117.266 429.756 117.063 429.267 117.063 428.659C117.063 428.156 117.199 427.717 117.472 427.342C117.745 426.967 118.114 426.676 118.58 426.469C119.046 426.259 119.571 426.153 120.157 426.153C120.748 426.153 121.269 426.257 121.721 426.464C122.175 426.672 122.533 426.957 122.794 427.321C123.056 427.682 123.192 428.097 123.203 428.565H121.934ZM124.896 426.273H126.494L129.273 433.057H129.375L132.153 426.273H133.751V435H132.499V428.685H132.418L129.844 434.987H128.804L126.23 428.68H126.149V435H124.896V426.273ZM136.403 435H135.005L138.146 426.273H139.667L142.808 435H141.41L138.943 427.858H138.875L136.403 435ZM136.637 431.582H141.172V432.69H136.637V431.582ZM144.068 435V426.273H145.385V433.866H149.339V435H144.068ZM150.842 435V426.273H152.158V433.866H156.113V435H150.842Z" fill="#4895F6"/>
<rect x="78" y="447" width="91" height="1" fill="#4895F6"/>
<path d="M90.5284 699.406V698.273H97.2827V699.406H94.5597V707H93.2472V699.406H90.5284ZM98.4812 707H97.0835L100.224 698.273H101.745L104.886 707H103.488L101.021 699.858H100.953L98.4812 707ZM98.7156 703.582H103.25V704.69H98.7156V703.582ZM106.146 707V698.273H109.342C109.962 698.273 110.474 698.375 110.881 698.58C111.287 698.781 111.591 699.055 111.793 699.402C111.994 699.746 112.095 700.134 112.095 700.565C112.095 700.929 112.028 701.236 111.895 701.486C111.761 701.733 111.582 701.932 111.358 702.082C111.136 702.23 110.892 702.338 110.625 702.406V702.491C110.915 702.506 111.197 702.599 111.473 702.773C111.751 702.943 111.982 703.186 112.163 703.501C112.345 703.817 112.436 704.2 112.436 704.652C112.436 705.098 112.331 705.499 112.121 705.854C111.913 706.206 111.592 706.486 111.158 706.693C110.723 706.898 110.168 707 109.491 707H106.146ZM107.463 705.871H109.364C109.994 705.871 110.446 705.749 110.719 705.504C110.991 705.26 111.128 704.955 111.128 704.588C111.128 704.312 111.058 704.06 110.919 703.83C110.78 703.599 110.581 703.416 110.322 703.28C110.067 703.143 109.763 703.075 109.411 703.075H107.463V705.871ZM107.463 702.048H109.227C109.523 702.048 109.788 701.991 110.024 701.878C110.263 701.764 110.452 701.605 110.591 701.401C110.733 701.193 110.804 700.949 110.804 700.668C110.804 700.307 110.678 700.004 110.425 699.76C110.172 699.516 109.784 699.393 109.261 699.393H107.463V702.048ZM121.934 700.565C121.888 700.162 121.701 699.849 121.371 699.628C121.042 699.403 120.627 699.291 120.127 699.291C119.769 699.291 119.459 699.348 119.198 699.462C118.936 699.572 118.733 699.726 118.588 699.922C118.446 700.115 118.375 700.335 118.375 700.582C118.375 700.79 118.424 700.969 118.52 701.119C118.62 701.27 118.749 701.396 118.908 701.499C119.07 701.598 119.243 701.682 119.428 701.75C119.613 701.815 119.79 701.869 119.961 701.912L120.813 702.134C121.091 702.202 121.377 702.294 121.669 702.411C121.962 702.527 122.233 702.68 122.483 702.871C122.733 703.061 122.935 703.297 123.088 703.578C123.245 703.859 123.323 704.196 123.323 704.588C123.323 705.082 123.195 705.521 122.939 705.905C122.686 706.288 122.319 706.591 121.836 706.812C121.355 707.034 120.775 707.145 120.093 707.145C119.439 707.145 118.874 707.041 118.397 706.834C117.919 706.626 117.546 706.332 117.276 705.952C117.006 705.568 116.857 705.114 116.828 704.588H118.15C118.175 704.903 118.277 705.166 118.456 705.376C118.638 705.584 118.87 705.739 119.151 705.841C119.435 705.94 119.746 705.99 120.084 705.99C120.456 705.99 120.787 705.932 121.077 705.815C121.37 705.696 121.6 705.531 121.767 705.321C121.935 705.108 122.019 704.859 122.019 704.575C122.019 704.317 121.945 704.105 121.797 703.94C121.652 703.776 121.455 703.639 121.205 703.531C120.958 703.423 120.678 703.328 120.365 703.246L119.334 702.964C118.635 702.774 118.081 702.494 117.672 702.125C117.266 701.756 117.063 701.267 117.063 700.659C117.063 700.156 117.199 699.717 117.472 699.342C117.745 698.967 118.114 698.676 118.58 698.469C119.046 698.259 119.571 698.153 120.157 698.153C120.748 698.153 121.269 698.257 121.721 698.464C122.175 698.672 122.533 698.957 122.794 699.321C123.056 699.682 123.192 700.097 123.203 700.565H121.934ZM124.896 698.273H126.494L129.273 705.057H129.375L132.153 698.273H133.751V707H132.499V700.685H132.418L129.844 706.987H128.804L126.23 700.68H126.149V707H124.896V698.273ZM136.403 707H135.005L138.146 698.273H139.667L142.808 707H141.41L138.943 699.858H138.875L136.403 707ZM136.637 703.582H141.172V704.69H136.637V703.582ZM144.068 707V698.273H145.385V705.866H149.339V707H144.068ZM150.842 707V698.273H152.158V705.866H156.113V707H150.842Z" fill="#0A51CF"/>
<rect x="78" y="719" width="91" height="1" fill="#0A51CF"/>
<path d="M275.528 156.406V155.273H282.283V156.406H279.56V164H278.247V156.406H275.528ZM283.481 164H282.083L285.224 155.273H286.745L289.886 164H288.488L286.021 156.858H285.953L283.481 164ZM283.716 160.582H288.25V161.69H283.716V160.582ZM291.146 164V155.273H294.342C294.962 155.273 295.474 155.375 295.881 155.58C296.287 155.781 296.591 156.055 296.793 156.402C296.994 156.746 297.095 157.134 297.095 157.565C297.095 157.929 297.028 158.236 296.895 158.486C296.761 158.733 296.582 158.932 296.358 159.082C296.136 159.23 295.892 159.338 295.625 159.406V159.491C295.915 159.506 296.197 159.599 296.473 159.773C296.751 159.943 296.982 160.186 297.163 160.501C297.345 160.817 297.436 161.2 297.436 161.652C297.436 162.098 297.331 162.499 297.121 162.854C296.913 163.206 296.592 163.486 296.158 163.693C295.723 163.898 295.168 164 294.491 164H291.146ZM292.463 162.871H294.364C294.994 162.871 295.446 162.749 295.719 162.504C295.991 162.26 296.128 161.955 296.128 161.588C296.128 161.312 296.058 161.06 295.919 160.83C295.78 160.599 295.581 160.416 295.322 160.28C295.067 160.143 294.763 160.075 294.411 160.075H292.463V162.871ZM292.463 159.048H294.227C294.523 159.048 294.788 158.991 295.024 158.878C295.263 158.764 295.452 158.605 295.591 158.401C295.733 158.193 295.804 157.949 295.804 157.668C295.804 157.307 295.678 157.004 295.425 156.76C295.172 156.516 294.784 156.393 294.261 156.393H292.463V159.048ZM306.934 157.565C306.888 157.162 306.701 156.849 306.371 156.628C306.042 156.403 305.627 156.291 305.127 156.291C304.769 156.291 304.459 156.348 304.198 156.462C303.936 156.572 303.733 156.726 303.588 156.922C303.446 157.115 303.375 157.335 303.375 157.582C303.375 157.79 303.424 157.969 303.52 158.119C303.62 158.27 303.749 158.396 303.908 158.499C304.07 158.598 304.243 158.682 304.428 158.75C304.613 158.815 304.79 158.869 304.961 158.912L305.813 159.134C306.091 159.202 306.377 159.294 306.669 159.411C306.962 159.527 307.233 159.68 307.483 159.871C307.733 160.061 307.935 160.297 308.088 160.578C308.245 160.859 308.323 161.196 308.323 161.588C308.323 162.082 308.195 162.521 307.939 162.905C307.686 163.288 307.319 163.591 306.836 163.812C306.355 164.034 305.775 164.145 305.093 164.145C304.439 164.145 303.874 164.041 303.397 163.834C302.919 163.626 302.546 163.332 302.276 162.952C302.006 162.568 301.857 162.114 301.828 161.588H303.15C303.175 161.903 303.277 162.166 303.456 162.376C303.638 162.584 303.87 162.739 304.151 162.841C304.435 162.94 304.746 162.99 305.084 162.99C305.456 162.99 305.787 162.932 306.077 162.815C306.37 162.696 306.6 162.531 306.767 162.321C306.935 162.108 307.019 161.859 307.019 161.575C307.019 161.317 306.945 161.105 306.797 160.94C306.652 160.776 306.455 160.639 306.205 160.531C305.958 160.423 305.678 160.328 305.365 160.246L304.334 159.964C303.635 159.774 303.081 159.494 302.672 159.125C302.266 158.756 302.063 158.267 302.063 157.659C302.063 157.156 302.199 156.717 302.472 156.342C302.745 155.967 303.114 155.676 303.58 155.469C304.046 155.259 304.571 155.153 305.157 155.153C305.748 155.153 306.269 155.257 306.721 155.464C307.175 155.672 307.533 155.957 307.794 156.321C308.056 156.682 308.192 157.097 308.203 157.565H306.934ZM309.896 155.273H311.494L314.273 162.057H314.375L317.153 155.273H318.751V164H317.499V157.685H317.418L314.844 163.987H313.804L311.23 157.68H311.149V164H309.896V155.273ZM321.403 164H320.005L323.146 155.273H324.667L327.808 164H326.41L323.943 156.858H323.875L321.403 164ZM321.637 160.582H326.172V161.69H321.637V160.582ZM329.068 164V155.273H330.385V162.866H334.339V164H329.068ZM335.842 164V155.273H337.158V162.866H341.113V164H335.842Z" fill="#73768C"/>
<path d="M263 423C263 418.582 266.582 415 271 415H346C350.418 415 354 418.582 354 423V447H263V423Z" fill="#F9F9F9"/>
<path d="M275.528 427.406V426.273H282.283V427.406H279.56V435H278.247V427.406H275.528ZM283.481 435H282.083L285.224 426.273H286.745L289.886 435H288.488L286.021 427.858H285.953L283.481 435ZM283.716 431.582H288.25V432.69H283.716V431.582ZM291.146 435V426.273H294.342C294.962 426.273 295.474 426.375 295.881 426.58C296.287 426.781 296.591 427.055 296.793 427.402C296.994 427.746 297.095 428.134 297.095 428.565C297.095 428.929 297.028 429.236 296.895 429.486C296.761 429.733 296.582 429.932 296.358 430.082C296.136 430.23 295.892 430.338 295.625 430.406V430.491C295.915 430.506 296.197 430.599 296.473 430.773C296.751 430.943 296.982 431.186 297.163 431.501C297.345 431.817 297.436 432.2 297.436 432.652C297.436 433.098 297.331 433.499 297.121 433.854C296.913 434.206 296.592 434.486 296.158 434.693C295.723 434.898 295.168 435 294.491 435H291.146ZM292.463 433.871H294.364C294.994 433.871 295.446 433.749 295.719 433.504C295.991 433.26 296.128 432.955 296.128 432.588C296.128 432.312 296.058 432.06 295.919 431.83C295.78 431.599 295.581 431.416 295.322 431.28C295.067 431.143 294.763 431.075 294.411 431.075H292.463V433.871ZM292.463 430.048H294.227C294.523 430.048 294.788 429.991 295.024 429.878C295.263 429.764 295.452 429.605 295.591 429.401C295.733 429.193 295.804 428.949 295.804 428.668C295.804 428.307 295.678 428.004 295.425 427.76C295.172 427.516 294.784 427.393 294.261 427.393H292.463V430.048ZM306.934 428.565C306.888 428.162 306.701 427.849 306.371 427.628C306.042 427.403 305.627 427.291 305.127 427.291C304.769 427.291 304.459 427.348 304.198 427.462C303.936 427.572 303.733 427.726 303.588 427.922C303.446 428.115 303.375 428.335 303.375 428.582C303.375 428.79 303.424 428.969 303.52 429.119C303.62 429.27 303.749 429.396 303.908 429.499C304.07 429.598 304.243 429.682 304.428 429.75C304.613 429.815 304.79 429.869 304.961 429.912L305.813 430.134C306.091 430.202 306.377 430.294 306.669 430.411C306.962 430.527 307.233 430.68 307.483 430.871C307.733 431.061 307.935 431.297 308.088 431.578C308.245 431.859 308.323 432.196 308.323 432.588C308.323 433.082 308.195 433.521 307.939 433.905C307.686 434.288 307.319 434.591 306.836 434.812C306.355 435.034 305.775 435.145 305.093 435.145C304.439 435.145 303.874 435.041 303.397 434.834C302.919 434.626 302.546 434.332 302.276 433.952C302.006 433.568 301.857 433.114 301.828 432.588H303.15C303.175 432.903 303.277 433.166 303.456 433.376C303.638 433.584 303.87 433.739 304.151 433.841C304.435 433.94 304.746 433.99 305.084 433.99C305.456 433.99 305.787 433.932 306.077 433.815C306.37 433.696 306.6 433.531 306.767 433.321C306.935 433.108 307.019 432.859 307.019 432.575C307.019 432.317 306.945 432.105 306.797 431.94C306.652 431.776 306.455 431.639 306.205 431.531C305.958 431.423 305.678 431.328 305.365 431.246L304.334 430.964C303.635 430.774 303.081 430.494 302.672 430.125C302.266 429.756 302.063 429.267 302.063 428.659C302.063 428.156 302.199 427.717 302.472 427.342C302.745 426.967 303.114 426.676 303.58 426.469C304.046 426.259 304.571 426.153 305.157 426.153C305.748 426.153 306.269 426.257 306.721 426.464C307.175 426.672 307.533 426.957 307.794 427.321C308.056 427.682 308.192 428.097 308.203 428.565H306.934ZM309.896 426.273H311.494L314.273 433.057H314.375L317.153 426.273H318.751V435H317.499V428.685H317.418L314.844 434.987H313.804L311.23 428.68H311.149V435H309.896V426.273ZM321.403 435H320.005L323.146 426.273H324.667L327.808 435H326.41L323.943 427.858H323.875L321.403 435ZM321.637 431.582H326.172V432.69H321.637V431.582ZM329.068 435V426.273H330.385V433.866H334.339V435H329.068ZM335.842 435V426.273H337.158V433.866H341.113V435H335.842Z" fill="#ABADBA"/>
<path d="M275.528 972.406V971.273H282.283V972.406H279.56V980H278.247V972.406H275.528ZM283.481 980H282.083L285.224 971.273H286.745L289.886 980H288.488L286.021 972.858H285.953L283.481 980ZM283.716 976.582H288.25V977.69H283.716V976.582ZM291.146 980V971.273H294.342C294.962 971.273 295.474 971.375 295.881 971.58C296.287 971.781 296.591 972.055 296.793 972.402C296.994 972.746 297.095 973.134 297.095 973.565C297.095 973.929 297.028 974.236 296.895 974.486C296.761 974.733 296.582 974.932 296.358 975.082C296.136 975.23 295.892 975.338 295.625 975.406V975.491C295.915 975.506 296.197 975.599 296.473 975.773C296.751 975.943 296.982 976.186 297.163 976.501C297.345 976.817 297.436 977.2 297.436 977.652C297.436 978.098 297.331 978.499 297.121 978.854C296.913 979.206 296.592 979.486 296.158 979.693C295.723 979.898 295.168 980 294.491 980H291.146ZM292.463 978.871H294.364C294.994 978.871 295.446 978.749 295.719 978.504C295.991 978.26 296.128 977.955 296.128 977.588C296.128 977.312 296.058 977.06 295.919 976.83C295.78 976.599 295.581 976.416 295.322 976.28C295.067 976.143 294.763 976.075 294.411 976.075H292.463V978.871ZM292.463 975.048H294.227C294.523 975.048 294.788 974.991 295.024 974.878C295.263 974.764 295.452 974.605 295.591 974.401C295.733 974.193 295.804 973.949 295.804 973.668C295.804 973.307 295.678 973.004 295.425 972.76C295.172 972.516 294.784 972.393 294.261 972.393H292.463V975.048ZM306.934 973.565C306.888 973.162 306.701 972.849 306.371 972.628C306.042 972.403 305.627 972.291 305.127 972.291C304.769 972.291 304.459 972.348 304.198 972.462C303.936 972.572 303.733 972.726 303.588 972.922C303.446 973.115 303.375 973.335 303.375 973.582C303.375 973.79 303.424 973.969 303.52 974.119C303.62 974.27 303.749 974.396 303.908 974.499C304.07 974.598 304.243 974.682 304.428 974.75C304.613 974.815 304.79 974.869 304.961 974.912L305.813 975.134C306.091 975.202 306.377 975.294 306.669 975.411C306.962 975.527 307.233 975.68 307.483 975.871C307.733 976.061 307.935 976.297 308.088 976.578C308.245 976.859 308.323 977.196 308.323 977.588C308.323 978.082 308.195 978.521 307.939 978.905C307.686 979.288 307.319 979.591 306.836 979.812C306.355 980.034 305.775 980.145 305.093 980.145C304.439 980.145 303.874 980.041 303.397 979.834C302.919 979.626 302.546 979.332 302.276 978.952C302.006 978.568 301.857 978.114 301.828 977.588H303.15C303.175 977.903 303.277 978.166 303.456 978.376C303.638 978.584 303.87 978.739 304.151 978.841C304.435 978.94 304.746 978.99 305.084 978.99C305.456 978.99 305.787 978.932 306.077 978.815C306.37 978.696 306.6 978.531 306.767 978.321C306.935 978.108 307.019 977.859 307.019 977.575C307.019 977.317 306.945 977.105 306.797 976.94C306.652 976.776 306.455 976.639 306.205 976.531C305.958 976.423 305.678 976.328 305.365 976.246L304.334 975.964C303.635 975.774 303.081 975.494 302.672 975.125C302.266 974.756 302.063 974.267 302.063 973.659C302.063 973.156 302.199 972.717 302.472 972.342C302.745 971.967 303.114 971.676 303.58 971.469C304.046 971.259 304.571 971.153 305.157 971.153C305.748 971.153 306.269 971.257 306.721 971.464C307.175 971.672 307.533 971.957 307.794 972.321C308.056 972.682 308.192 973.097 308.203 973.565H306.934ZM309.896 971.273H311.494L314.273 978.057H314.375L317.153 971.273H318.751V980H317.499V973.685H317.418L314.844 979.987H313.804L311.23 973.68H311.149V980H309.896V971.273ZM321.403 980H320.005L323.146 971.273H324.667L327.808 980H326.41L323.943 972.858H323.875L321.403 980ZM321.637 976.582H326.172V977.69H321.637V976.582ZM329.068 980V971.273H330.385V978.866H334.339V980H329.068ZM335.842 980V971.273H337.158V978.866H341.113V980H335.842Z" fill="#E3E4E8"/>
<path d="M68 504C68 499.582 71.5817 496 76 496H193C197.418 496 201 499.582 201 504V540H68V504Z" fill="#F9F9F9"/>
<path d="M84.7045 513.875V512.364H93.7102V513.875H90.0795V524H88.3295V513.875H84.7045ZM95.3082 524H93.4446L97.6321 512.364H99.6605L103.848 524H101.984L98.6946 514.477H98.6037L95.3082 524ZM95.6207 519.443H101.666V520.92H95.6207V519.443ZM105.528 524V512.364H109.79C110.616 512.364 111.299 512.5 111.841 512.773C112.383 513.042 112.788 513.407 113.057 513.869C113.326 514.328 113.46 514.845 113.46 515.42C113.46 515.905 113.371 516.314 113.193 516.648C113.015 516.977 112.777 517.242 112.477 517.443C112.182 517.64 111.856 517.784 111.5 517.875V517.989C111.886 518.008 112.263 518.133 112.631 518.364C113.002 518.591 113.309 518.915 113.551 519.335C113.794 519.756 113.915 520.267 113.915 520.869C113.915 521.464 113.775 521.998 113.494 522.472C113.218 522.941 112.79 523.314 112.21 523.591C111.631 523.864 110.89 524 109.989 524H105.528ZM107.284 522.494H109.818C110.659 522.494 111.261 522.331 111.625 522.006C111.989 521.68 112.17 521.273 112.17 520.784C112.17 520.417 112.078 520.08 111.892 519.773C111.706 519.466 111.441 519.222 111.097 519.04C110.756 518.858 110.35 518.767 109.881 518.767H107.284V522.494ZM107.284 517.398H109.636C110.03 517.398 110.384 517.322 110.699 517.17C111.017 517.019 111.269 516.807 111.455 516.534C111.644 516.258 111.739 515.932 111.739 515.557C111.739 515.076 111.57 514.672 111.233 514.347C110.896 514.021 110.379 513.858 109.682 513.858H107.284V517.398ZM120.232 512.364H122.362L126.067 521.409H126.203L129.908 512.364H132.038V524H130.368V515.58H130.26L126.828 523.983H125.442L122.01 515.574H121.902V524H120.232V512.364ZM134.591 524V512.364H141.886V513.875H136.347V517.42H141.506V518.926H136.347V522.489H141.955V524H134.591ZM147.999 524H144.232V512.364H148.118C149.258 512.364 150.237 512.597 151.055 513.062C151.874 513.525 152.5 514.189 152.936 515.057C153.375 515.92 153.595 516.956 153.595 518.165C153.595 519.377 153.374 520.419 152.93 521.29C152.491 522.161 151.855 522.831 151.021 523.301C150.188 523.767 149.18 524 147.999 524ZM145.987 522.466H147.902C148.788 522.466 149.525 522.299 150.112 521.966C150.699 521.629 151.139 521.142 151.43 520.506C151.722 519.866 151.868 519.085 151.868 518.165C151.868 517.252 151.722 516.477 151.43 515.841C151.143 515.205 150.713 514.722 150.141 514.392C149.569 514.062 148.858 513.898 148.01 513.898H145.987V522.466ZM157.534 512.364V524H155.778V512.364H157.534ZM167.574 512.364H169.335V520.017C169.335 520.831 169.144 521.553 168.761 522.182C168.379 522.807 167.841 523.299 167.148 523.659C166.455 524.015 165.642 524.193 164.71 524.193C163.782 524.193 162.972 524.015 162.278 523.659C161.585 523.299 161.047 522.807 160.665 522.182C160.282 521.553 160.091 520.831 160.091 520.017V512.364H161.847V519.875C161.847 520.402 161.962 520.869 162.193 521.278C162.428 521.688 162.759 522.009 163.188 522.244C163.616 522.475 164.123 522.591 164.71 522.591C165.301 522.591 165.811 522.475 166.239 522.244C166.67 522.009 167 521.688 167.227 521.278C167.458 520.869 167.574 520.402 167.574 519.875V512.364ZM171.888 512.364H174.018L177.723 521.409H177.859L181.564 512.364H183.695V524H182.024V515.58H181.916L178.484 523.983H177.098L173.666 515.574H173.558V524H171.888V512.364Z" fill="#4895F6"/>
<rect x="68" y="540" width="133" height="1" fill="#4895F6"/>
<path d="M84.7045 242.875V241.364H93.7102V242.875H90.0795V253H88.3295V242.875H84.7045ZM95.3082 253H93.4446L97.6321 241.364H99.6605L103.848 253H101.984L98.6946 243.477H98.6037L95.3082 253ZM95.6207 248.443H101.666V249.92H95.6207V248.443ZM105.528 253V241.364H109.79C110.616 241.364 111.299 241.5 111.841 241.773C112.383 242.042 112.788 242.407 113.057 242.869C113.326 243.328 113.46 243.845 113.46 244.42C113.46 244.905 113.371 245.314 113.193 245.648C113.015 245.977 112.777 246.242 112.477 246.443C112.182 246.64 111.856 246.784 111.5 246.875V246.989C111.886 247.008 112.263 247.133 112.631 247.364C113.002 247.591 113.309 247.915 113.551 248.335C113.794 248.756 113.915 249.267 113.915 249.869C113.915 250.464 113.775 250.998 113.494 251.472C113.218 251.941 112.79 252.314 112.21 252.591C111.631 252.864 110.89 253 109.989 253H105.528ZM107.284 251.494H109.818C110.659 251.494 111.261 251.331 111.625 251.006C111.989 250.68 112.17 250.273 112.17 249.784C112.17 249.417 112.078 249.08 111.892 248.773C111.706 248.466 111.441 248.222 111.097 248.04C110.756 247.858 110.35 247.767 109.881 247.767H107.284V251.494ZM107.284 246.398H109.636C110.03 246.398 110.384 246.322 110.699 246.17C111.017 246.019 111.269 245.807 111.455 245.534C111.644 245.258 111.739 244.932 111.739 244.557C111.739 244.076 111.57 243.672 111.233 243.347C110.896 243.021 110.379 242.858 109.682 242.858H107.284V246.398ZM120.232 241.364H122.362L126.067 250.409H126.203L129.908 241.364H132.038V253H130.368V244.58H130.26L126.828 252.983H125.442L122.01 244.574H121.902V253H120.232V241.364ZM134.591 253V241.364H141.886V242.875H136.347V246.42H141.506V247.926H136.347V251.489H141.955V253H134.591ZM147.999 253H144.232V241.364H148.118C149.258 241.364 150.237 241.597 151.055 242.062C151.874 242.525 152.5 243.189 152.936 244.057C153.375 244.92 153.595 245.956 153.595 247.165C153.595 248.377 153.374 249.419 152.93 250.29C152.491 251.161 151.855 251.831 151.021 252.301C150.188 252.767 149.18 253 147.999 253ZM145.987 251.466H147.902C148.788 251.466 149.525 251.299 150.112 250.966C150.699 250.629 151.139 250.142 151.43 249.506C151.722 248.866 151.868 248.085 151.868 247.165C151.868 246.252 151.722 245.477 151.43 244.841C151.143 244.205 150.713 243.722 150.141 243.392C149.569 243.062 148.858 242.898 148.01 242.898H145.987V251.466ZM157.534 241.364V253H155.778V241.364H157.534ZM167.574 241.364H169.335V249.017C169.335 249.831 169.144 250.553 168.761 251.182C168.379 251.807 167.841 252.299 167.148 252.659C166.455 253.015 165.642 253.193 164.71 253.193C163.782 253.193 162.972 253.015 162.278 252.659C161.585 252.299 161.047 251.807 160.665 251.182C160.282 250.553 160.091 249.831 160.091 249.017V241.364H161.847V248.875C161.847 249.402 161.962 249.869 162.193 250.278C162.428 250.688 162.759 251.009 163.188 251.244C163.616 251.475 164.123 251.591 164.71 251.591C165.301 251.591 165.811 251.475 166.239 251.244C166.67 251.009 167 250.688 167.227 250.278C167.458 249.869 167.574 249.402 167.574 248.875V241.364ZM171.888 241.364H174.018L177.723 250.409H177.859L181.564 241.364H183.695V253H182.024V244.58H181.916L178.484 252.983H177.098L173.666 244.574H173.558V253H171.888V241.364Z" fill="#0E69F1"/>
<rect x="68" y="269" width="133" height="1" fill="#0E69F1"/>
<path d="M275.528 699.406V698.273H282.283V699.406H279.56V707H278.247V699.406H275.528ZM283.481 707H282.083L285.224 698.273H286.745L289.886 707H288.488L286.021 699.858H285.953L283.481 707ZM283.716 703.582H288.25V704.69H283.716V703.582ZM291.146 707V698.273H294.342C294.962 698.273 295.474 698.375 295.881 698.58C296.287 698.781 296.591 699.055 296.793 699.402C296.994 699.746 297.095 700.134 297.095 700.565C297.095 700.929 297.028 701.236 296.895 701.486C296.761 701.733 296.582 701.932 296.358 702.082C296.136 702.23 295.892 702.338 295.625 702.406V702.491C295.915 702.506 296.197 702.599 296.473 702.773C296.751 702.943 296.982 703.186 297.163 703.501C297.345 703.817 297.436 704.2 297.436 704.652C297.436 705.098 297.331 705.499 297.121 705.854C296.913 706.206 296.592 706.486 296.158 706.693C295.723 706.898 295.168 707 294.491 707H291.146ZM292.463 705.871H294.364C294.994 705.871 295.446 705.749 295.719 705.504C295.991 705.26 296.128 704.955 296.128 704.588C296.128 704.312 296.058 704.06 295.919 703.83C295.78 703.599 295.581 703.416 295.322 703.28C295.067 703.143 294.763 703.075 294.411 703.075H292.463V705.871ZM292.463 702.048H294.227C294.523 702.048 294.788 701.991 295.024 701.878C295.263 701.764 295.452 701.605 295.591 701.401C295.733 701.193 295.804 700.949 295.804 700.668C295.804 700.307 295.678 700.004 295.425 699.76C295.172 699.516 294.784 699.393 294.261 699.393H292.463V702.048ZM306.934 700.565C306.888 700.162 306.701 699.849 306.371 699.628C306.042 699.403 305.627 699.291 305.127 699.291C304.769 699.291 304.459 699.348 304.198 699.462C303.936 699.572 303.733 699.726 303.588 699.922C303.446 700.115 303.375 700.335 303.375 700.582C303.375 700.79 303.424 700.969 303.52 701.119C303.62 701.27 303.749 701.396 303.908 701.499C304.07 701.598 304.243 701.682 304.428 701.75C304.613 701.815 304.79 701.869 304.961 701.912L305.813 702.134C306.091 702.202 306.377 702.294 306.669 702.411C306.962 702.527 307.233 702.68 307.483 702.871C307.733 703.061 307.935 703.297 308.088 703.578C308.245 703.859 308.323 704.196 308.323 704.588C308.323 705.082 308.195 705.521 307.939 705.905C307.686 706.288 307.319 706.591 306.836 706.812C306.355 707.034 305.775 707.145 305.093 707.145C304.439 707.145 303.874 707.041 303.397 706.834C302.919 706.626 302.546 706.332 302.276 705.952C302.006 705.568 301.857 705.114 301.828 704.588H303.15C303.175 704.903 303.277 705.166 303.456 705.376C303.638 705.584 303.87 705.739 304.151 705.841C304.435 705.94 304.746 705.99 305.084 705.99C305.456 705.99 305.787 705.932 306.077 705.815C306.37 705.696 306.6 705.531 306.767 705.321C306.935 705.108 307.019 704.859 307.019 704.575C307.019 704.317 306.945 704.105 306.797 703.94C306.652 703.776 306.455 703.639 306.205 703.531C305.958 703.423 305.678 703.328 305.365 703.246L304.334 702.964C303.635 702.774 303.081 702.494 302.672 702.125C302.266 701.756 302.063 701.267 302.063 700.659C302.063 700.156 302.199 699.717 302.472 699.342C302.745 698.967 303.114 698.676 303.58 698.469C304.046 698.259 304.571 698.153 305.157 698.153C305.748 698.153 306.269 698.257 306.721 698.464C307.175 698.672 307.533 698.957 307.794 699.321C308.056 699.682 308.192 700.097 308.203 700.565H306.934ZM309.896 698.273H311.494L314.273 705.057H314.375L317.153 698.273H318.751V707H317.499V700.685H317.418L314.844 706.987H313.804L311.23 700.68H311.149V707H309.896V698.273ZM321.403 707H320.005L323.146 698.273H324.667L327.808 707H326.41L323.943 699.858H323.875L321.403 707ZM321.637 703.582H326.172V704.69H321.637V703.582ZM329.068 707V698.273H330.385V705.866H334.339V707H329.068ZM335.842 707V698.273H337.158V705.866H341.113V707H335.842Z" fill="#5C5E70"/>
<path d="M253 504C253 499.582 256.582 496 261 496H378C382.418 496 386 499.582 386 504V540H253V504Z" fill="#F9F9F9"/>
<path d="M269.705 513.875V512.364H278.71V513.875H275.08V524H273.33V513.875H269.705ZM280.308 524H278.445L282.632 512.364H284.661L288.848 524H286.984L283.695 514.477H283.604L280.308 524ZM280.621 519.443H286.666V520.92H280.621V519.443ZM290.528 524V512.364H294.79C295.616 512.364 296.299 512.5 296.841 512.773C297.383 513.042 297.788 513.407 298.057 513.869C298.326 514.328 298.46 514.845 298.46 515.42C298.46 515.905 298.371 516.314 298.193 516.648C298.015 516.977 297.777 517.242 297.477 517.443C297.182 517.64 296.856 517.784 296.5 517.875V517.989C296.886 518.008 297.263 518.133 297.631 518.364C298.002 518.591 298.309 518.915 298.551 519.335C298.794 519.756 298.915 520.267 298.915 520.869C298.915 521.464 298.775 521.998 298.494 522.472C298.218 522.941 297.79 523.314 297.21 523.591C296.631 523.864 295.89 524 294.989 524H290.528ZM292.284 522.494H294.818C295.659 522.494 296.261 522.331 296.625 522.006C296.989 521.68 297.17 521.273 297.17 520.784C297.17 520.417 297.078 520.08 296.892 519.773C296.706 519.466 296.441 519.222 296.097 519.04C295.756 518.858 295.35 518.767 294.881 518.767H292.284V522.494ZM292.284 517.398H294.636C295.03 517.398 295.384 517.322 295.699 517.17C296.017 517.019 296.269 516.807 296.455 516.534C296.644 516.258 296.739 515.932 296.739 515.557C296.739 515.076 296.57 514.672 296.233 514.347C295.896 514.021 295.379 513.858 294.682 513.858H292.284V517.398ZM305.232 512.364H307.362L311.067 521.409H311.203L314.908 512.364H317.038V524H315.368V515.58H315.26L311.828 523.983H310.442L307.01 515.574H306.902V524H305.232V512.364ZM319.591 524V512.364H326.886V513.875H321.347V517.42H326.506V518.926H321.347V522.489H326.955V524H319.591ZM332.999 524H329.232V512.364H333.118C334.258 512.364 335.237 512.597 336.055 513.062C336.874 513.525 337.5 514.189 337.936 515.057C338.375 515.92 338.595 516.956 338.595 518.165C338.595 519.377 338.374 520.419 337.93 521.29C337.491 522.161 336.855 522.831 336.021 523.301C335.188 523.767 334.18 524 332.999 524ZM330.987 522.466H332.902C333.788 522.466 334.525 522.299 335.112 521.966C335.699 521.629 336.139 521.142 336.43 520.506C336.722 519.866 336.868 519.085 336.868 518.165C336.868 517.252 336.722 516.477 336.43 515.841C336.143 515.205 335.713 514.722 335.141 514.392C334.569 514.062 333.858 513.898 333.01 513.898H330.987V522.466ZM342.534 512.364V524H340.778V512.364H342.534ZM352.574 512.364H354.335V520.017C354.335 520.831 354.144 521.553 353.761 522.182C353.379 522.807 352.841 523.299 352.148 523.659C351.455 524.015 350.642 524.193 349.71 524.193C348.782 524.193 347.972 524.015 347.278 523.659C346.585 523.299 346.047 522.807 345.665 522.182C345.282 521.553 345.091 520.831 345.091 520.017V512.364H346.847V519.875C346.847 520.402 346.962 520.869 347.193 521.278C347.428 521.688 347.759 522.009 348.188 522.244C348.616 522.475 349.123 522.591 349.71 522.591C350.301 522.591 350.811 522.475 351.239 522.244C351.67 522.009 352 521.688 352.227 521.278C352.458 520.869 352.574 520.402 352.574 519.875V512.364ZM356.888 512.364H359.018L362.723 521.409H362.859L366.564 512.364H368.695V524H367.024V515.58H366.916L363.484 523.983H362.098L358.666 515.574H358.558V524H356.888V512.364Z" fill="#ABADBA"/>
<path d="M84.7045 1058.88V1057.36H93.7102V1058.88H90.0795V1069H88.3295V1058.88H84.7045ZM95.3082 1069H93.4446L97.6321 1057.36H99.6605L103.848 1069H101.984L98.6946 1059.48H98.6037L95.3082 1069ZM95.6207 1064.44H101.666V1065.92H95.6207V1064.44ZM105.528 1069V1057.36H109.79C110.616 1057.36 111.299 1057.5 111.841 1057.77C112.383 1058.04 112.788 1058.41 113.057 1058.87C113.326 1059.33 113.46 1059.84 113.46 1060.42C113.46 1060.91 113.371 1061.31 113.193 1061.65C113.015 1061.98 112.777 1062.24 112.477 1062.44C112.182 1062.64 111.856 1062.78 111.5 1062.88V1062.99C111.886 1063.01 112.263 1063.13 112.631 1063.36C113.002 1063.59 113.309 1063.91 113.551 1064.34C113.794 1064.76 113.915 1065.27 113.915 1065.87C113.915 1066.46 113.775 1067 113.494 1067.47C113.218 1067.94 112.79 1068.31 112.21 1068.59C111.631 1068.86 110.89 1069 109.989 1069H105.528ZM107.284 1067.49H109.818C110.659 1067.49 111.261 1067.33 111.625 1067.01C111.989 1066.68 112.17 1066.27 112.17 1065.78C112.17 1065.42 112.078 1065.08 111.892 1064.77C111.706 1064.47 111.441 1064.22 111.097 1064.04C110.756 1063.86 110.35 1063.77 109.881 1063.77H107.284V1067.49ZM107.284 1062.4H109.636C110.03 1062.4 110.384 1062.32 110.699 1062.17C111.017 1062.02 111.269 1061.81 111.455 1061.53C111.644 1061.26 111.739 1060.93 111.739 1060.56C111.739 1060.08 111.57 1059.67 111.233 1059.35C110.896 1059.02 110.379 1058.86 109.682 1058.86H107.284V1062.4ZM120.232 1057.36H122.362L126.067 1066.41H126.203L129.908 1057.36H132.038V1069H130.368V1060.58H130.26L126.828 1068.98H125.442L122.01 1060.57H121.902V1069H120.232V1057.36ZM134.591 1069V1057.36H141.886V1058.88H136.347V1062.42H141.506V1063.93H136.347V1067.49H141.955V1069H134.591ZM147.999 1069H144.232V1057.36H148.118C149.258 1057.36 150.237 1057.6 151.055 1058.06C151.874 1058.52 152.5 1059.19 152.936 1060.06C153.375 1060.92 153.595 1061.96 153.595 1063.16C153.595 1064.38 153.374 1065.42 152.93 1066.29C152.491 1067.16 151.855 1067.83 151.021 1068.3C150.188 1068.77 149.18 1069 147.999 1069ZM145.987 1067.47H147.902C148.788 1067.47 149.525 1067.3 150.112 1066.97C150.699 1066.63 151.139 1066.14 151.43 1065.51C151.722 1064.87 151.868 1064.09 151.868 1063.16C151.868 1062.25 151.722 1061.48 151.43 1060.84C151.143 1060.2 150.713 1059.72 150.141 1059.39C149.569 1059.06 148.858 1058.9 148.01 1058.9H145.987V1067.47ZM157.534 1057.36V1069H155.778V1057.36H157.534ZM167.574 1057.36H169.335V1065.02C169.335 1065.83 169.144 1066.55 168.761 1067.18C168.379 1067.81 167.841 1068.3 167.148 1068.66C166.455 1069.02 165.642 1069.19 164.71 1069.19C163.782 1069.19 162.972 1069.02 162.278 1068.66C161.585 1068.3 161.047 1067.81 160.665 1067.18C160.282 1066.55 160.091 1065.83 160.091 1065.02V1057.36H161.847V1064.88C161.847 1065.4 161.962 1065.87 162.193 1066.28C162.428 1066.69 162.759 1067.01 163.188 1067.24C163.616 1067.48 164.123 1067.59 164.71 1067.59C165.301 1067.59 165.811 1067.48 166.239 1067.24C166.67 1067.01 167 1066.69 167.227 1066.28C167.458 1065.87 167.574 1065.4 167.574 1064.88V1057.36ZM171.888 1057.36H174.018L177.723 1066.41H177.859L181.564 1057.36H183.695V1069H182.024V1060.58H181.916L178.484 1068.98H177.098L173.666 1060.57H173.558V1069H171.888V1057.36Z" fill="#CEE9FE"/>
<rect x="68" y="1085" width="133" height="1" fill="#CEE9FE"/>
<path d="M269.705 242.875V241.364H278.71V242.875H275.08V253H273.33V242.875H269.705ZM280.308 253H278.445L282.632 241.364H284.661L288.848 253H286.984L283.695 243.477H283.604L280.308 253ZM280.621 248.443H286.666V249.92H280.621V248.443ZM290.528 253V241.364H294.79C295.616 241.364 296.299 241.5 296.841 241.773C297.383 242.042 297.788 242.407 298.057 242.869C298.326 243.328 298.46 243.845 298.46 244.42C298.46 244.905 298.371 245.314 298.193 245.648C298.015 245.977 297.777 246.242 297.477 246.443C297.182 246.64 296.856 246.784 296.5 246.875V246.989C296.886 247.008 297.263 247.133 297.631 247.364C298.002 247.591 298.309 247.915 298.551 248.335C298.794 248.756 298.915 249.267 298.915 249.869C298.915 250.464 298.775 250.998 298.494 251.472C298.218 251.941 297.79 252.314 297.21 252.591C296.631 252.864 295.89 253 294.989 253H290.528ZM292.284 251.494H294.818C295.659 251.494 296.261 251.331 296.625 251.006C296.989 250.68 297.17 250.273 297.17 249.784C297.17 249.417 297.078 249.08 296.892 248.773C296.706 248.466 296.441 248.222 296.097 248.04C295.756 247.858 295.35 247.767 294.881 247.767H292.284V251.494ZM292.284 246.398H294.636C295.03 246.398 295.384 246.322 295.699 246.17C296.017 246.019 296.269 245.807 296.455 245.534C296.644 245.258 296.739 244.932 296.739 244.557C296.739 244.076 296.57 243.672 296.233 243.347C295.896 243.021 295.379 242.858 294.682 242.858H292.284V246.398ZM305.232 241.364H307.362L311.067 250.409H311.203L314.908 241.364H317.038V253H315.368V244.58H315.26L311.828 252.983H310.442L307.01 244.574H306.902V253H305.232V241.364ZM319.591 253V241.364H326.886V242.875H321.347V246.42H326.506V247.926H321.347V251.489H326.955V253H319.591ZM332.999 253H329.232V241.364H333.118C334.258 241.364 335.237 241.597 336.055 242.062C336.874 242.525 337.5 243.189 337.936 244.057C338.375 244.92 338.595 245.956 338.595 247.165C338.595 248.377 338.374 249.419 337.93 250.29C337.491 251.161 336.855 251.831 336.021 252.301C335.188 252.767 334.18 253 332.999 253ZM330.987 251.466H332.902C333.788 251.466 334.525 251.299 335.112 250.966C335.699 250.629 336.139 250.142 336.43 249.506C336.722 248.866 336.868 248.085 336.868 247.165C336.868 246.252 336.722 245.477 336.43 244.841C336.143 244.205 335.713 243.722 335.141 243.392C334.569 243.062 333.858 242.898 333.01 242.898H330.987V251.466ZM342.534 241.364V253H340.778V241.364H342.534ZM352.574 241.364H354.335V249.017C354.335 249.831 354.144 250.553 353.761 251.182C353.379 251.807 352.841 252.299 352.148 252.659C351.455 253.015 350.642 253.193 349.71 253.193C348.782 253.193 347.972 253.015 347.278 252.659C346.585 252.299 346.047 251.807 345.665 251.182C345.282 250.553 345.091 249.831 345.091 249.017V241.364H346.847V248.875C346.847 249.402 346.962 249.869 347.193 250.278C347.428 250.688 347.759 251.009 348.188 251.244C348.616 251.475 349.123 251.591 349.71 251.591C350.301 251.591 350.811 251.475 351.239 251.244C351.67 251.009 352 250.688 352.227 250.278C352.458 249.869 352.574 249.402 352.574 248.875V241.364ZM356.888 241.364H359.018L362.723 250.409H362.859L366.564 241.364H368.695V253H367.024V244.58H366.916L363.484 252.983H362.098L358.666 244.574H358.558V253H356.888V241.364Z" fill="#73768C"/>
<path d="M60 597C60 592.582 63.5817 589 68 589H194C198.418 589 202 592.582 202 597V637H60V597Z" fill="#F9F9F9"/>
<path d="M76.8807 607.344V605.455H88.1378V607.344H83.5994V620H81.4119V607.344H76.8807ZM90.1353 620H87.8058L93.0401 605.455H95.5756L100.81 620H98.4805L94.3683 608.097H94.2546L90.1353 620ZM90.5259 614.304H98.0827V616.151H90.5259V614.304ZM102.911 620V605.455H108.237C109.269 605.455 110.124 605.625 110.801 605.966C111.478 606.302 111.985 606.759 112.321 607.337C112.657 607.91 112.825 608.556 112.825 609.276C112.825 609.882 112.714 610.393 112.491 610.81C112.269 611.222 111.971 611.553 111.597 611.804C111.227 612.05 110.82 612.23 110.375 612.344V612.486C110.858 612.509 111.329 612.666 111.788 612.955C112.252 613.239 112.636 613.643 112.939 614.169C113.242 614.695 113.393 615.334 113.393 616.087C113.393 616.83 113.218 617.498 112.868 618.089C112.522 618.677 111.987 619.143 111.263 619.489C110.538 619.83 109.613 620 108.486 620H102.911ZM105.105 618.118H108.273C109.324 618.118 110.077 617.914 110.531 617.507C110.986 617.1 111.213 616.591 111.213 615.98C111.213 615.521 111.097 615.099 110.865 614.716C110.633 614.332 110.302 614.027 109.871 613.8C109.445 613.572 108.938 613.459 108.351 613.459H105.105V618.118ZM105.105 611.747H108.045C108.538 611.747 108.981 611.652 109.374 611.463C109.771 611.274 110.086 611.009 110.318 610.668C110.555 610.322 110.673 609.915 110.673 609.446C110.673 608.845 110.463 608.34 110.041 607.933C109.62 607.526 108.973 607.322 108.102 607.322H105.105V611.747ZM121.289 620V605.455H123.484V618.111H130.075V620H121.289ZM134.549 620H132.22L137.454 605.455H139.99L145.224 620H142.895L138.782 608.097H138.669L134.549 620ZM134.94 614.304H142.497V616.151H134.94V614.304ZM147.325 620V605.455H152.509C153.636 605.455 154.571 605.649 155.315 606.037C156.063 606.425 156.621 606.963 156.991 607.649C157.36 608.331 157.545 609.119 157.545 610.014C157.545 610.904 157.358 611.688 156.984 612.365C156.614 613.037 156.056 613.561 155.308 613.935C154.564 614.309 153.629 614.496 152.502 614.496H148.575V612.607H152.303C153.013 612.607 153.591 612.505 154.036 612.301C154.486 612.098 154.815 611.802 155.023 611.413C155.232 611.025 155.336 610.559 155.336 610.014C155.336 609.465 155.229 608.989 155.016 608.587C154.808 608.184 154.479 607.876 154.029 607.663C153.584 607.446 152.999 607.337 152.275 607.337H149.519V620H147.325ZM154.505 613.438L158.099 620H155.599L152.076 613.438H154.505ZM170.059 610.05C169.922 609.619 169.737 609.233 169.505 608.892C169.278 608.546 169.005 608.253 168.688 608.011C168.371 607.765 168.009 607.578 167.602 607.45C167.199 607.322 166.756 607.259 166.273 607.259C165.454 607.259 164.716 607.469 164.058 607.891C163.399 608.312 162.879 608.93 162.495 609.744C162.116 610.554 161.927 611.546 161.927 612.72C161.927 613.899 162.119 614.896 162.502 615.71C162.886 616.525 163.411 617.143 164.079 617.564C164.746 617.985 165.506 618.196 166.359 618.196C167.149 618.196 167.838 618.035 168.425 617.713C169.017 617.391 169.474 616.937 169.796 616.349C170.123 615.758 170.286 615.062 170.286 614.261L170.854 614.368H166.692V612.557H172.41V614.212C172.41 615.433 172.149 616.494 171.629 617.393C171.112 618.288 170.397 618.98 169.484 619.467C168.575 619.955 167.533 620.199 166.359 620.199C165.042 620.199 163.887 619.896 162.893 619.29C161.903 618.684 161.131 617.824 160.577 616.712C160.023 615.594 159.746 614.268 159.746 612.734C159.746 611.574 159.907 610.533 160.229 609.609C160.551 608.686 161.004 607.902 161.586 607.259C162.173 606.61 162.862 606.115 163.653 605.774C164.448 605.429 165.317 605.256 166.259 605.256C167.045 605.256 167.777 605.372 168.454 605.604C169.136 605.836 169.742 606.165 170.272 606.591C170.807 607.017 171.25 607.524 171.6 608.111C171.951 608.693 172.187 609.339 172.31 610.05H170.059ZM175.196 620V605.455H184.315V607.344H177.39V611.776H183.839V613.658H177.39V618.111H184.4V620H175.196Z" fill="#4895F6"/>
<rect x="60" y="637" width="142" height="1" fill="#4895F6"/>
<path d="M76.8807 336.344V334.455H88.1378V336.344H83.5994V349H81.4119V336.344H76.8807ZM90.1353 349H87.8058L93.0401 334.455H95.5756L100.81 349H98.4805L94.3683 337.097H94.2546L90.1353 349ZM90.5259 343.304H98.0827V345.151H90.5259V343.304ZM102.911 349V334.455H108.237C109.269 334.455 110.124 334.625 110.801 334.966C111.478 335.302 111.985 335.759 112.321 336.337C112.657 336.91 112.825 337.556 112.825 338.276C112.825 338.882 112.714 339.393 112.491 339.81C112.269 340.222 111.971 340.553 111.597 340.804C111.227 341.05 110.82 341.23 110.375 341.344V341.486C110.858 341.509 111.329 341.666 111.788 341.955C112.252 342.239 112.636 342.643 112.939 343.169C113.242 343.695 113.393 344.334 113.393 345.087C113.393 345.83 113.218 346.498 112.868 347.089C112.522 347.677 111.987 348.143 111.263 348.489C110.538 348.83 109.613 349 108.486 349H102.911ZM105.105 347.118H108.273C109.324 347.118 110.077 346.914 110.531 346.507C110.986 346.1 111.213 345.591 111.213 344.98C111.213 344.521 111.097 344.099 110.865 343.716C110.633 343.332 110.302 343.027 109.871 342.8C109.445 342.572 108.938 342.459 108.351 342.459H105.105V347.118ZM105.105 340.747H108.045C108.538 340.747 108.981 340.652 109.374 340.463C109.771 340.274 110.086 340.009 110.318 339.668C110.555 339.322 110.673 338.915 110.673 338.446C110.673 337.845 110.463 337.34 110.041 336.933C109.62 336.526 108.973 336.322 108.102 336.322H105.105V340.747ZM121.289 349V334.455H123.484V347.111H130.075V349H121.289ZM134.549 349H132.22L137.454 334.455H139.99L145.224 349H142.895L138.782 337.097H138.669L134.549 349ZM134.94 343.304H142.497V345.151H134.94V343.304ZM147.325 349V334.455H152.509C153.636 334.455 154.571 334.649 155.315 335.037C156.063 335.425 156.621 335.963 156.991 336.649C157.36 337.331 157.545 338.119 157.545 339.014C157.545 339.904 157.358 340.688 156.984 341.365C156.614 342.037 156.056 342.561 155.308 342.935C154.564 343.309 153.629 343.496 152.502 343.496H148.575V341.607H152.303C153.013 341.607 153.591 341.505 154.036 341.301C154.486 341.098 154.815 340.802 155.023 340.413C155.232 340.025 155.336 339.559 155.336 339.014C155.336 338.465 155.229 337.989 155.016 337.587C154.808 337.184 154.479 336.876 154.029 336.663C153.584 336.446 152.999 336.337 152.275 336.337H149.519V349H147.325ZM154.505 342.438L158.099 349H155.599L152.076 342.438H154.505ZM170.059 339.05C169.922 338.619 169.737 338.233 169.505 337.892C169.278 337.546 169.005 337.253 168.688 337.011C168.371 336.765 168.009 336.578 167.602 336.45C167.199 336.322 166.756 336.259 166.273 336.259C165.454 336.259 164.716 336.469 164.058 336.891C163.399 337.312 162.879 337.93 162.495 338.744C162.116 339.554 161.927 340.546 161.927 341.72C161.927 342.899 162.119 343.896 162.502 344.71C162.886 345.525 163.411 346.143 164.079 346.564C164.746 346.985 165.506 347.196 166.359 347.196C167.149 347.196 167.838 347.035 168.425 346.713C169.017 346.391 169.474 345.937 169.796 345.349C170.123 344.758 170.286 344.062 170.286 343.261L170.854 343.368H166.692V341.557H172.41V343.212C172.41 344.433 172.149 345.494 171.629 346.393C171.112 347.288 170.397 347.98 169.484 348.467C168.575 348.955 167.533 349.199 166.359 349.199C165.042 349.199 163.887 348.896 162.893 348.29C161.903 347.684 161.131 346.824 160.577 345.712C160.023 344.594 159.746 343.268 159.746 341.734C159.746 340.574 159.907 339.533 160.229 338.609C160.551 337.686 161.004 336.902 161.586 336.259C162.173 335.61 162.862 335.115 163.653 334.774C164.448 334.429 165.317 334.256 166.259 334.256C167.045 334.256 167.777 334.372 168.454 334.604C169.136 334.836 169.742 335.165 170.272 335.591C170.807 336.017 171.25 336.524 171.6 337.111C171.951 337.693 172.187 338.339 172.31 339.05H170.059ZM175.196 349V334.455H184.315V336.344H177.39V340.776H183.839V342.658H177.39V347.111H184.4V349H175.196Z" fill="#0E69F1"/>
<rect x="60" y="366" width="142" height="1" fill="#0E69F1"/>
<path d="M84.7045 785.875V784.364H93.7102V785.875H90.0795V796H88.3295V785.875H84.7045ZM95.3082 796H93.4446L97.6321 784.364H99.6605L103.848 796H101.984L98.6946 786.477H98.6037L95.3082 796ZM95.6207 791.443H101.666V792.92H95.6207V791.443ZM105.528 796V784.364H109.79C110.616 784.364 111.299 784.5 111.841 784.773C112.383 785.042 112.788 785.407 113.057 785.869C113.326 786.328 113.46 786.845 113.46 787.42C113.46 787.905 113.371 788.314 113.193 788.648C113.015 788.977 112.777 789.242 112.477 789.443C112.182 789.64 111.856 789.784 111.5 789.875V789.989C111.886 790.008 112.263 790.133 112.631 790.364C113.002 790.591 113.309 790.915 113.551 791.335C113.794 791.756 113.915 792.267 113.915 792.869C113.915 793.464 113.775 793.998 113.494 794.472C113.218 794.941 112.79 795.314 112.21 795.591C111.631 795.864 110.89 796 109.989 796H105.528ZM107.284 794.494H109.818C110.659 794.494 111.261 794.331 111.625 794.006C111.989 793.68 112.17 793.273 112.17 792.784C112.17 792.417 112.078 792.08 111.892 791.773C111.706 791.466 111.441 791.222 111.097 791.04C110.756 790.858 110.35 790.767 109.881 790.767H107.284V794.494ZM107.284 789.398H109.636C110.03 789.398 110.384 789.322 110.699 789.17C111.017 789.019 111.269 788.807 111.455 788.534C111.644 788.258 111.739 787.932 111.739 787.557C111.739 787.076 111.57 786.672 111.233 786.347C110.896 786.021 110.379 785.858 109.682 785.858H107.284V789.398ZM120.232 784.364H122.362L126.067 793.409H126.203L129.908 784.364H132.038V796H130.368V787.58H130.26L126.828 795.983H125.442L122.01 787.574H121.902V796H120.232V784.364ZM134.591 796V784.364H141.886V785.875H136.347V789.42H141.506V790.926H136.347V794.489H141.955V796H134.591ZM147.999 796H144.232V784.364H148.118C149.258 784.364 150.237 784.597 151.055 785.062C151.874 785.525 152.5 786.189 152.936 787.057C153.375 787.92 153.595 788.956 153.595 790.165C153.595 791.377 153.374 792.419 152.93 793.29C152.491 794.161 151.855 794.831 151.021 795.301C150.188 795.767 149.18 796 147.999 796ZM145.987 794.466H147.902C148.788 794.466 149.525 794.299 150.112 793.966C150.699 793.629 151.139 793.142 151.43 792.506C151.722 791.866 151.868 791.085 151.868 790.165C151.868 789.252 151.722 788.477 151.43 787.841C151.143 787.205 150.713 786.722 150.141 786.392C149.569 786.062 148.858 785.898 148.01 785.898H145.987V794.466ZM157.534 784.364V796H155.778V784.364H157.534ZM167.574 784.364H169.335V792.017C169.335 792.831 169.144 793.553 168.761 794.182C168.379 794.807 167.841 795.299 167.148 795.659C166.455 796.015 165.642 796.193 164.71 796.193C163.782 796.193 162.972 796.015 162.278 795.659C161.585 795.299 161.047 794.807 160.665 794.182C160.282 793.553 160.091 792.831 160.091 792.017V784.364H161.847V791.875C161.847 792.402 161.962 792.869 162.193 793.278C162.428 793.688 162.759 794.009 163.188 794.244C163.616 794.475 164.123 794.591 164.71 794.591C165.301 794.591 165.811 794.475 166.239 794.244C166.67 794.009 167 793.688 167.227 793.278C167.458 792.869 167.574 792.402 167.574 791.875V784.364ZM171.888 784.364H174.018L177.723 793.409H177.859L181.564 784.364H183.695V796H182.024V787.58H181.916L178.484 795.983H177.098L173.666 787.574H173.558V796H171.888V784.364Z" fill="#0A51CF"/>
<rect x="68" y="812" width="133" height="1" fill="#0A51CF"/>
<path d="M269.705 1058.88V1057.36H278.71V1058.88H275.08V1069H273.33V1058.88H269.705ZM280.308 1069H278.445L282.632 1057.36H284.661L288.848 1069H286.984L283.695 1059.48H283.604L280.308 1069ZM280.621 1064.44H286.666V1065.92H280.621V1064.44ZM290.528 1069V1057.36H294.79C295.616 1057.36 296.299 1057.5 296.841 1057.77C297.383 1058.04 297.788 1058.41 298.057 1058.87C298.326 1059.33 298.46 1059.84 298.46 1060.42C298.46 1060.91 298.371 1061.31 298.193 1061.65C298.015 1061.98 297.777 1062.24 297.477 1062.44C297.182 1062.64 296.856 1062.78 296.5 1062.88V1062.99C296.886 1063.01 297.263 1063.13 297.631 1063.36C298.002 1063.59 298.309 1063.91 298.551 1064.34C298.794 1064.76 298.915 1065.27 298.915 1065.87C298.915 1066.46 298.775 1067 298.494 1067.47C298.218 1067.94 297.79 1068.31 297.21 1068.59C296.631 1068.86 295.89 1069 294.989 1069H290.528ZM292.284 1067.49H294.818C295.659 1067.49 296.261 1067.33 296.625 1067.01C296.989 1066.68 297.17 1066.27 297.17 1065.78C297.17 1065.42 297.078 1065.08 296.892 1064.77C296.706 1064.47 296.441 1064.22 296.097 1064.04C295.756 1063.86 295.35 1063.77 294.881 1063.77H292.284V1067.49ZM292.284 1062.4H294.636C295.03 1062.4 295.384 1062.32 295.699 1062.17C296.017 1062.02 296.269 1061.81 296.455 1061.53C296.644 1061.26 296.739 1060.93 296.739 1060.56C296.739 1060.08 296.57 1059.67 296.233 1059.35C295.896 1059.02 295.379 1058.86 294.682 1058.86H292.284V1062.4ZM305.232 1057.36H307.362L311.067 1066.41H311.203L314.908 1057.36H317.038V1069H315.368V1060.58H315.26L311.828 1068.98H310.442L307.01 1060.57H306.902V1069H305.232V1057.36ZM319.591 1069V1057.36H326.886V1058.88H321.347V1062.42H326.506V1063.93H321.347V1067.49H326.955V1069H319.591ZM332.999 1069H329.232V1057.36H333.118C334.258 1057.36 335.237 1057.6 336.055 1058.06C336.874 1058.52 337.5 1059.19 337.936 1060.06C338.375 1060.92 338.595 1061.96 338.595 1063.16C338.595 1064.38 338.374 1065.42 337.93 1066.29C337.491 1067.16 336.855 1067.83 336.021 1068.3C335.188 1068.77 334.18 1069 332.999 1069ZM330.987 1067.47H332.902C333.788 1067.47 334.525 1067.3 335.112 1066.97C335.699 1066.63 336.139 1066.14 336.43 1065.51C336.722 1064.87 336.868 1064.09 336.868 1063.16C336.868 1062.25 336.722 1061.48 336.43 1060.84C336.143 1060.2 335.713 1059.72 335.141 1059.39C334.569 1059.06 333.858 1058.9 333.01 1058.9H330.987V1067.47ZM342.534 1057.36V1069H340.778V1057.36H342.534ZM352.574 1057.36H354.335V1065.02C354.335 1065.83 354.144 1066.55 353.761 1067.18C353.379 1067.81 352.841 1068.3 352.148 1068.66C351.455 1069.02 350.642 1069.19 349.71 1069.19C348.782 1069.19 347.972 1069.02 347.278 1068.66C346.585 1068.3 346.047 1067.81 345.665 1067.18C345.282 1066.55 345.091 1065.83 345.091 1065.02V1057.36H346.847V1064.88C346.847 1065.4 346.962 1065.87 347.193 1066.28C347.428 1066.69 347.759 1067.01 348.188 1067.24C348.616 1067.48 349.123 1067.59 349.71 1067.59C350.301 1067.59 350.811 1067.48 351.239 1067.24C351.67 1067.01 352 1066.69 352.227 1066.28C352.458 1065.87 352.574 1065.4 352.574 1064.88V1057.36ZM356.888 1057.36H359.018L362.723 1066.41H362.859L366.564 1057.36H368.695V1069H367.024V1060.58H366.916L363.484 1068.98H362.098L358.666 1060.57H358.558V1069H356.888V1057.36Z" fill="#E3E4E8"/>
<path d="M261.881 336.344V334.455H273.138V336.344H268.599V349H266.412V336.344H261.881ZM275.135 349H272.806L278.04 334.455H280.576L285.81 349H283.48L279.368 337.097H279.255L275.135 349ZM275.526 343.304H283.083V345.151H275.526V343.304ZM287.911 349V334.455H293.237C294.269 334.455 295.124 334.625 295.801 334.966C296.478 335.302 296.985 335.759 297.321 336.337C297.657 336.91 297.825 337.556 297.825 338.276C297.825 338.882 297.714 339.393 297.491 339.81C297.269 340.222 296.971 340.553 296.597 340.804C296.227 341.05 295.82 341.23 295.375 341.344V341.486C295.858 341.509 296.329 341.666 296.788 341.955C297.252 342.239 297.636 342.643 297.939 343.169C298.242 343.695 298.393 344.334 298.393 345.087C298.393 345.83 298.218 346.498 297.868 347.089C297.522 347.677 296.987 348.143 296.263 348.489C295.538 348.83 294.613 349 293.486 349H287.911ZM290.105 347.118H293.273C294.324 347.118 295.077 346.914 295.531 346.507C295.986 346.1 296.213 345.591 296.213 344.98C296.213 344.521 296.097 344.099 295.865 343.716C295.633 343.332 295.302 343.027 294.871 342.8C294.445 342.572 293.938 342.459 293.351 342.459H290.105V347.118ZM290.105 340.747H293.045C293.538 340.747 293.981 340.652 294.374 340.463C294.771 340.274 295.086 340.009 295.318 339.668C295.555 339.322 295.673 338.915 295.673 338.446C295.673 337.845 295.463 337.34 295.041 336.933C294.62 336.526 293.973 336.322 293.102 336.322H290.105V340.747ZM306.289 349V334.455H308.484V347.111H315.075V349H306.289ZM319.549 349H317.22L322.454 334.455H324.99L330.224 349H327.895L323.782 337.097H323.669L319.549 349ZM319.94 343.304H327.497V345.151H319.94V343.304ZM332.325 349V334.455H337.509C338.636 334.455 339.571 334.649 340.315 335.037C341.063 335.425 341.621 335.963 341.991 336.649C342.36 337.331 342.545 338.119 342.545 339.014C342.545 339.904 342.358 340.688 341.984 341.365C341.614 342.037 341.056 342.561 340.308 342.935C339.564 343.309 338.629 343.496 337.502 343.496H333.575V341.607H337.303C338.013 341.607 338.591 341.505 339.036 341.301C339.486 341.098 339.815 340.802 340.023 340.413C340.232 340.025 340.336 339.559 340.336 339.014C340.336 338.465 340.229 337.989 340.016 337.587C339.808 337.184 339.479 336.876 339.029 336.663C338.584 336.446 337.999 336.337 337.275 336.337H334.519V349H332.325ZM339.505 342.438L343.099 349H340.599L337.076 342.438H339.505ZM355.059 339.05C354.922 338.619 354.737 338.233 354.505 337.892C354.278 337.546 354.005 337.253 353.688 337.011C353.371 336.765 353.009 336.578 352.602 336.45C352.199 336.322 351.756 336.259 351.273 336.259C350.454 336.259 349.716 336.469 349.058 336.891C348.399 337.312 347.879 337.93 347.495 338.744C347.116 339.554 346.927 340.546 346.927 341.72C346.927 342.899 347.119 343.896 347.502 344.71C347.886 345.525 348.411 346.143 349.079 346.564C349.746 346.985 350.506 347.196 351.359 347.196C352.149 347.196 352.838 347.035 353.425 346.713C354.017 346.391 354.474 345.937 354.796 345.349C355.123 344.758 355.286 344.062 355.286 343.261L355.854 343.368H351.692V341.557H357.41V343.212C357.41 344.433 357.149 345.494 356.629 346.393C356.112 347.288 355.397 347.98 354.484 348.467C353.575 348.955 352.533 349.199 351.359 349.199C350.042 349.199 348.887 348.896 347.893 348.29C346.903 347.684 346.131 346.824 345.577 345.712C345.023 344.594 344.746 343.268 344.746 341.734C344.746 340.574 344.907 339.533 345.229 338.609C345.551 337.686 346.004 336.902 346.586 336.259C347.173 335.61 347.862 335.115 348.653 334.774C349.448 334.429 350.317 334.256 351.259 334.256C352.045 334.256 352.777 334.372 353.454 334.604C354.136 334.836 354.742 335.165 355.272 335.591C355.807 336.017 356.25 336.524 356.6 337.111C356.951 337.693 357.187 338.339 357.31 339.05H355.059ZM360.196 349V334.455H369.315V336.344H362.39V340.776H368.839V342.658H362.39V347.111H369.4V349H360.196Z" fill="#73768C"/>
<path d="M245 597C245 592.582 248.582 589 253 589H379C383.418 589 387 592.582 387 597V637H245V597Z" fill="#F9F9F9"/>
<path d="M261.881 607.344V605.455H273.138V607.344H268.599V620H266.412V607.344H261.881ZM275.135 620H272.806L278.04 605.455H280.576L285.81 620H283.48L279.368 608.097H279.255L275.135 620ZM275.526 614.304H283.083V616.151H275.526V614.304ZM287.911 620V605.455H293.237C294.269 605.455 295.124 605.625 295.801 605.966C296.478 606.302 296.985 606.759 297.321 607.337C297.657 607.91 297.825 608.556 297.825 609.276C297.825 609.882 297.714 610.393 297.491 610.81C297.269 611.222 296.971 611.553 296.597 611.804C296.227 612.05 295.82 612.23 295.375 612.344V612.486C295.858 612.509 296.329 612.666 296.788 612.955C297.252 613.239 297.636 613.643 297.939 614.169C298.242 614.695 298.393 615.334 298.393 616.087C298.393 616.83 298.218 617.498 297.868 618.089C297.522 618.677 296.987 619.143 296.263 619.489C295.538 619.83 294.613 620 293.486 620H287.911ZM290.105 618.118H293.273C294.324 618.118 295.077 617.914 295.531 617.507C295.986 617.1 296.213 616.591 296.213 615.98C296.213 615.521 296.097 615.099 295.865 614.716C295.633 614.332 295.302 614.027 294.871 613.8C294.445 613.572 293.938 613.459 293.351 613.459H290.105V618.118ZM290.105 611.747H293.045C293.538 611.747 293.981 611.652 294.374 611.463C294.771 611.274 295.086 611.009 295.318 610.668C295.555 610.322 295.673 609.915 295.673 609.446C295.673 608.845 295.463 608.34 295.041 607.933C294.62 607.526 293.973 607.322 293.102 607.322H290.105V611.747ZM306.289 620V605.455H308.484V618.111H315.075V620H306.289ZM319.549 620H317.22L322.454 605.455H324.99L330.224 620H327.895L323.782 608.097H323.669L319.549 620ZM319.94 614.304H327.497V616.151H319.94V614.304ZM332.325 620V605.455H337.509C338.636 605.455 339.571 605.649 340.315 606.037C341.063 606.425 341.621 606.963 341.991 607.649C342.36 608.331 342.545 609.119 342.545 610.014C342.545 610.904 342.358 611.688 341.984 612.365C341.614 613.037 341.056 613.561 340.308 613.935C339.564 614.309 338.629 614.496 337.502 614.496H333.575V612.607H337.303C338.013 612.607 338.591 612.505 339.036 612.301C339.486 612.098 339.815 611.802 340.023 611.413C340.232 611.025 340.336 610.559 340.336 610.014C340.336 609.465 340.229 608.989 340.016 608.587C339.808 608.184 339.479 607.876 339.029 607.663C338.584 607.446 337.999 607.337 337.275 607.337H334.519V620H332.325ZM339.505 613.438L343.099 620H340.599L337.076 613.438H339.505ZM355.059 610.05C354.922 609.619 354.737 609.233 354.505 608.892C354.278 608.546 354.005 608.253 353.688 608.011C353.371 607.765 353.009 607.578 352.602 607.45C352.199 607.322 351.756 607.259 351.273 607.259C350.454 607.259 349.716 607.469 349.058 607.891C348.399 608.312 347.879 608.93 347.495 609.744C347.116 610.554 346.927 611.546 346.927 612.72C346.927 613.899 347.119 614.896 347.502 615.71C347.886 616.525 348.411 617.143 349.079 617.564C349.746 617.985 350.506 618.196 351.359 618.196C352.149 618.196 352.838 618.035 353.425 617.713C354.017 617.391 354.474 616.937 354.796 616.349C355.123 615.758 355.286 615.062 355.286 614.261L355.854 614.368H351.692V612.557H357.41V614.212C357.41 615.433 357.149 616.494 356.629 617.393C356.112 618.288 355.397 618.98 354.484 619.467C353.575 619.955 352.533 620.199 351.359 620.199C350.042 620.199 348.887 619.896 347.893 619.29C346.903 618.684 346.131 617.824 345.577 616.712C345.023 615.594 344.746 614.268 344.746 612.734C344.746 611.574 344.907 610.533 345.229 609.609C345.551 608.686 346.004 607.902 346.586 607.259C347.173 606.61 347.862 606.115 348.653 605.774C349.448 605.429 350.317 605.256 351.259 605.256C352.045 605.256 352.777 605.372 353.454 605.604C354.136 605.836 354.742 606.165 355.272 606.591C355.807 607.017 356.25 607.524 356.6 608.111C356.951 608.693 357.187 609.339 357.31 610.05H355.059ZM360.196 620V605.455H369.315V607.344H362.39V611.776H368.839V613.658H362.39V618.111H369.4V620H360.196Z" fill="#ABADBA"/>
<path d="M76.8807 1152.34V1150.45H88.1378V1152.34H83.5994V1165H81.4119V1152.34H76.8807ZM90.1353 1165H87.8058L93.0401 1150.45H95.5756L100.81 1165H98.4805L94.3683 1153.1H94.2546L90.1353 1165ZM90.5259 1159.3H98.0827V1161.15H90.5259V1159.3ZM102.911 1165V1150.45H108.237C109.269 1150.45 110.124 1150.62 110.801 1150.97C111.478 1151.3 111.985 1151.76 112.321 1152.34C112.657 1152.91 112.825 1153.56 112.825 1154.28C112.825 1154.88 112.714 1155.39 112.491 1155.81C112.269 1156.22 111.971 1156.55 111.597 1156.8C111.227 1157.05 110.82 1157.23 110.375 1157.34V1157.49C110.858 1157.51 111.329 1157.67 111.788 1157.95C112.252 1158.24 112.636 1158.64 112.939 1159.17C113.242 1159.69 113.393 1160.33 113.393 1161.09C113.393 1161.83 113.218 1162.5 112.868 1163.09C112.522 1163.68 111.987 1164.14 111.263 1164.49C110.538 1164.83 109.613 1165 108.486 1165H102.911ZM105.105 1163.12H108.273C109.324 1163.12 110.077 1162.91 110.531 1162.51C110.986 1162.1 111.213 1161.59 111.213 1160.98C111.213 1160.52 111.097 1160.1 110.865 1159.72C110.633 1159.33 110.302 1159.03 109.871 1158.8C109.445 1158.57 108.938 1158.46 108.351 1158.46H105.105V1163.12ZM105.105 1156.75H108.045C108.538 1156.75 108.981 1156.65 109.374 1156.46C109.771 1156.27 110.086 1156.01 110.318 1155.67C110.555 1155.32 110.673 1154.91 110.673 1154.45C110.673 1153.84 110.463 1153.34 110.041 1152.93C109.62 1152.53 108.973 1152.32 108.102 1152.32H105.105V1156.75ZM121.289 1165V1150.45H123.484V1163.11H130.075V1165H121.289ZM134.549 1165H132.22L137.454 1150.45H139.99L145.224 1165H142.895L138.782 1153.1H138.669L134.549 1165ZM134.94 1159.3H142.497V1161.15H134.94V1159.3ZM147.325 1165V1150.45H152.509C153.636 1150.45 154.571 1150.65 155.315 1151.04C156.063 1151.43 156.621 1151.96 156.991 1152.65C157.36 1153.33 157.545 1154.12 157.545 1155.01C157.545 1155.9 157.358 1156.69 156.984 1157.37C156.614 1158.04 156.056 1158.56 155.308 1158.93C154.564 1159.31 153.629 1159.5 152.502 1159.5H148.575V1157.61H152.303C153.013 1157.61 153.591 1157.5 154.036 1157.3C154.486 1157.1 154.815 1156.8 155.023 1156.41C155.232 1156.03 155.336 1155.56 155.336 1155.01C155.336 1154.46 155.229 1153.99 155.016 1153.59C154.808 1153.18 154.479 1152.88 154.029 1152.66C153.584 1152.45 152.999 1152.34 152.275 1152.34H149.519V1165H147.325ZM154.505 1158.44L158.099 1165H155.599L152.076 1158.44H154.505ZM170.059 1155.05C169.922 1154.62 169.737 1154.23 169.505 1153.89C169.278 1153.55 169.005 1153.25 168.688 1153.01C168.371 1152.77 168.009 1152.58 167.602 1152.45C167.199 1152.32 166.756 1152.26 166.273 1152.26C165.454 1152.26 164.716 1152.47 164.058 1152.89C163.399 1153.31 162.879 1153.93 162.495 1154.74C162.116 1155.55 161.927 1156.55 161.927 1157.72C161.927 1158.9 162.119 1159.9 162.502 1160.71C162.886 1161.52 163.411 1162.14 164.079 1162.56C164.746 1162.99 165.506 1163.2 166.359 1163.2C167.149 1163.2 167.838 1163.04 168.425 1162.71C169.017 1162.39 169.474 1161.94 169.796 1161.35C170.123 1160.76 170.286 1160.06 170.286 1159.26L170.854 1159.37H166.692V1157.56H172.41V1159.21C172.41 1160.43 172.149 1161.49 171.629 1162.39C171.112 1163.29 170.397 1163.98 169.484 1164.47C168.575 1164.96 167.533 1165.2 166.359 1165.2C165.042 1165.2 163.887 1164.9 162.893 1164.29C161.903 1163.68 161.131 1162.82 160.577 1161.71C160.023 1160.59 159.746 1159.27 159.746 1157.73C159.746 1156.57 159.907 1155.53 160.229 1154.61C160.551 1153.69 161.004 1152.9 161.586 1152.26C162.173 1151.61 162.862 1151.12 163.653 1150.77C164.448 1150.43 165.317 1150.26 166.259 1150.26C167.045 1150.26 167.777 1150.37 168.454 1150.6C169.136 1150.84 169.742 1151.16 170.272 1151.59C170.807 1152.02 171.25 1152.52 171.6 1153.11C171.951 1153.69 172.187 1154.34 172.31 1155.05H170.059ZM175.196 1165V1150.45H184.315V1152.34H177.39V1156.78H183.839V1158.66H177.39V1163.11H184.4V1165H175.196Z" fill="#CEE9FE"/>
<rect x="60" y="1182" width="142" height="1" fill="#CEE9FE"/>
<path d="M269.705 785.875V784.364H278.71V785.875H275.08V796H273.33V785.875H269.705ZM280.308 796H278.445L282.632 784.364H284.661L288.848 796H286.984L283.695 786.477H283.604L280.308 796ZM280.621 791.443H286.666V792.92H280.621V791.443ZM290.528 796V784.364H294.79C295.616 784.364 296.299 784.5 296.841 784.773C297.383 785.042 297.788 785.407 298.057 785.869C298.326 786.328 298.46 786.845 298.46 787.42C298.46 787.905 298.371 788.314 298.193 788.648C298.015 788.977 297.777 789.242 297.477 789.443C297.182 789.64 296.856 789.784 296.5 789.875V789.989C296.886 790.008 297.263 790.133 297.631 790.364C298.002 790.591 298.309 790.915 298.551 791.335C298.794 791.756 298.915 792.267 298.915 792.869C298.915 793.464 298.775 793.998 298.494 794.472C298.218 794.941 297.79 795.314 297.21 795.591C296.631 795.864 295.89 796 294.989 796H290.528ZM292.284 794.494H294.818C295.659 794.494 296.261 794.331 296.625 794.006C296.989 793.68 297.17 793.273 297.17 792.784C297.17 792.417 297.078 792.08 296.892 791.773C296.706 791.466 296.441 791.222 296.097 791.04C295.756 790.858 295.35 790.767 294.881 790.767H292.284V794.494ZM292.284 789.398H294.636C295.03 789.398 295.384 789.322 295.699 789.17C296.017 789.019 296.269 788.807 296.455 788.534C296.644 788.258 296.739 787.932 296.739 787.557C296.739 787.076 296.57 786.672 296.233 786.347C295.896 786.021 295.379 785.858 294.682 785.858H292.284V789.398ZM305.232 784.364H307.362L311.067 793.409H311.203L314.908 784.364H317.038V796H315.368V787.58H315.26L311.828 795.983H310.442L307.01 787.574H306.902V796H305.232V784.364ZM319.591 796V784.364H326.886V785.875H321.347V789.42H326.506V790.926H321.347V794.489H326.955V796H319.591ZM332.999 796H329.232V784.364H333.118C334.258 784.364 335.237 784.597 336.055 785.062C336.874 785.525 337.5 786.189 337.936 787.057C338.375 787.92 338.595 788.956 338.595 790.165C338.595 791.377 338.374 792.419 337.93 793.29C337.491 794.161 336.855 794.831 336.021 795.301C335.188 795.767 334.18 796 332.999 796ZM330.987 794.466H332.902C333.788 794.466 334.525 794.299 335.112 793.966C335.699 793.629 336.139 793.142 336.43 792.506C336.722 791.866 336.868 791.085 336.868 790.165C336.868 789.252 336.722 788.477 336.43 787.841C336.143 787.205 335.713 786.722 335.141 786.392C334.569 786.062 333.858 785.898 333.01 785.898H330.987V794.466ZM342.534 784.364V796H340.778V784.364H342.534ZM352.574 784.364H354.335V792.017C354.335 792.831 354.144 793.553 353.761 794.182C353.379 794.807 352.841 795.299 352.148 795.659C351.455 796.015 350.642 796.193 349.71 796.193C348.782 796.193 347.972 796.015 347.278 795.659C346.585 795.299 346.047 794.807 345.665 794.182C345.282 793.553 345.091 792.831 345.091 792.017V784.364H346.847V791.875C346.847 792.402 346.962 792.869 347.193 793.278C347.428 793.688 347.759 794.009 348.188 794.244C348.616 794.475 349.123 794.591 349.71 794.591C350.301 794.591 350.811 794.475 351.239 794.244C351.67 794.009 352 793.688 352.227 793.278C352.458 792.869 352.574 792.402 352.574 791.875V784.364ZM356.888 784.364H359.018L362.723 793.409H362.859L366.564 784.364H368.695V796H367.024V787.58H366.916L363.484 795.983H362.098L358.666 787.574H358.558V796H356.888V784.364Z" fill="#5C5E70"/>
<path d="M76.8807 879.344V877.455H88.1378V879.344H83.5994V892H81.4119V879.344H76.8807ZM90.1353 892H87.8058L93.0401 877.455H95.5756L100.81 892H98.4805L94.3683 880.097H94.2546L90.1353 892ZM90.5259 886.304H98.0827V888.151H90.5259V886.304ZM102.911 892V877.455H108.237C109.269 877.455 110.124 877.625 110.801 877.966C111.478 878.302 111.985 878.759 112.321 879.337C112.657 879.91 112.825 880.556 112.825 881.276C112.825 881.882 112.714 882.393 112.491 882.81C112.269 883.222 111.971 883.553 111.597 883.804C111.227 884.05 110.82 884.23 110.375 884.344V884.486C110.858 884.509 111.329 884.666 111.788 884.955C112.252 885.239 112.636 885.643 112.939 886.169C113.242 886.695 113.393 887.334 113.393 888.087C113.393 888.83 113.218 889.498 112.868 890.089C112.522 890.677 111.987 891.143 111.263 891.489C110.538 891.83 109.613 892 108.486 892H102.911ZM105.105 890.118H108.273C109.324 890.118 110.077 889.914 110.531 889.507C110.986 889.1 111.213 888.591 111.213 887.98C111.213 887.521 111.097 887.099 110.865 886.716C110.633 886.332 110.302 886.027 109.871 885.8C109.445 885.572 108.938 885.459 108.351 885.459H105.105V890.118ZM105.105 883.747H108.045C108.538 883.747 108.981 883.652 109.374 883.463C109.771 883.274 110.086 883.009 110.318 882.668C110.555 882.322 110.673 881.915 110.673 881.446C110.673 880.845 110.463 880.34 110.041 879.933C109.62 879.526 108.973 879.322 108.102 879.322H105.105V883.747ZM121.289 892V877.455H123.484V890.111H130.075V892H121.289ZM134.549 892H132.22L137.454 877.455H139.99L145.224 892H142.895L138.782 880.097H138.669L134.549 892ZM134.94 886.304H142.497V888.151H134.94V886.304ZM147.325 892V877.455H152.509C153.636 877.455 154.571 877.649 155.315 878.037C156.063 878.425 156.621 878.963 156.991 879.649C157.36 880.331 157.545 881.119 157.545 882.014C157.545 882.904 157.358 883.688 156.984 884.365C156.614 885.037 156.056 885.561 155.308 885.935C154.564 886.309 153.629 886.496 152.502 886.496H148.575V884.607H152.303C153.013 884.607 153.591 884.505 154.036 884.301C154.486 884.098 154.815 883.802 155.023 883.413C155.232 883.025 155.336 882.559 155.336 882.014C155.336 881.465 155.229 880.989 155.016 880.587C154.808 880.184 154.479 879.876 154.029 879.663C153.584 879.446 152.999 879.337 152.275 879.337H149.519V892H147.325ZM154.505 885.438L158.099 892H155.599L152.076 885.438H154.505ZM170.059 882.05C169.922 881.619 169.737 881.233 169.505 880.892C169.278 880.546 169.005 880.253 168.688 880.011C168.371 879.765 168.009 879.578 167.602 879.45C167.199 879.322 166.756 879.259 166.273 879.259C165.454 879.259 164.716 879.469 164.058 879.891C163.399 880.312 162.879 880.93 162.495 881.744C162.116 882.554 161.927 883.546 161.927 884.72C161.927 885.899 162.119 886.896 162.502 887.71C162.886 888.525 163.411 889.143 164.079 889.564C164.746 889.985 165.506 890.196 166.359 890.196C167.149 890.196 167.838 890.035 168.425 889.713C169.017 889.391 169.474 888.937 169.796 888.349C170.123 887.758 170.286 887.062 170.286 886.261L170.854 886.368H166.692V884.557H172.41V886.212C172.41 887.433 172.149 888.494 171.629 889.393C171.112 890.288 170.397 890.98 169.484 891.467C168.575 891.955 167.533 892.199 166.359 892.199C165.042 892.199 163.887 891.896 162.893 891.29C161.903 890.684 161.131 889.824 160.577 888.712C160.023 887.594 159.746 886.268 159.746 884.734C159.746 883.574 159.907 882.533 160.229 881.609C160.551 880.686 161.004 879.902 161.586 879.259C162.173 878.61 162.862 878.115 163.653 877.774C164.448 877.429 165.317 877.256 166.259 877.256C167.045 877.256 167.777 877.372 168.454 877.604C169.136 877.836 169.742 878.165 170.272 878.591C170.807 879.017 171.25 879.524 171.6 880.111C171.951 880.693 172.187 881.339 172.31 882.05H170.059ZM175.196 892V877.455H184.315V879.344H177.39V883.776H183.839V885.658H177.39V890.111H184.4V892H175.196Z" fill="#0A51CF"/>
<rect x="60" y="909" width="142" height="1" fill="#0A51CF"/>
<path d="M261.881 1152.34V1150.45H273.138V1152.34H268.599V1165H266.412V1152.34H261.881ZM275.135 1165H272.806L278.04 1150.45H280.576L285.81 1165H283.48L279.368 1153.1H279.255L275.135 1165ZM275.526 1159.3H283.083V1161.15H275.526V1159.3ZM287.911 1165V1150.45H293.237C294.269 1150.45 295.124 1150.62 295.801 1150.97C296.478 1151.3 296.985 1151.76 297.321 1152.34C297.657 1152.91 297.825 1153.56 297.825 1154.28C297.825 1154.88 297.714 1155.39 297.491 1155.81C297.269 1156.22 296.971 1156.55 296.597 1156.8C296.227 1157.05 295.82 1157.23 295.375 1157.34V1157.49C295.858 1157.51 296.329 1157.67 296.788 1157.95C297.252 1158.24 297.636 1158.64 297.939 1159.17C298.242 1159.69 298.393 1160.33 298.393 1161.09C298.393 1161.83 298.218 1162.5 297.868 1163.09C297.522 1163.68 296.987 1164.14 296.263 1164.49C295.538 1164.83 294.613 1165 293.486 1165H287.911ZM290.105 1163.12H293.273C294.324 1163.12 295.077 1162.91 295.531 1162.51C295.986 1162.1 296.213 1161.59 296.213 1160.98C296.213 1160.52 296.097 1160.1 295.865 1159.72C295.633 1159.33 295.302 1159.03 294.871 1158.8C294.445 1158.57 293.938 1158.46 293.351 1158.46H290.105V1163.12ZM290.105 1156.75H293.045C293.538 1156.75 293.981 1156.65 294.374 1156.46C294.771 1156.27 295.086 1156.01 295.318 1155.67C295.555 1155.32 295.673 1154.91 295.673 1154.45C295.673 1153.84 295.463 1153.34 295.041 1152.93C294.62 1152.53 293.973 1152.32 293.102 1152.32H290.105V1156.75ZM306.289 1165V1150.45H308.484V1163.11H315.075V1165H306.289ZM319.549 1165H317.22L322.454 1150.45H324.99L330.224 1165H327.895L323.782 1153.1H323.669L319.549 1165ZM319.94 1159.3H327.497V1161.15H319.94V1159.3ZM332.325 1165V1150.45H337.509C338.636 1150.45 339.571 1150.65 340.315 1151.04C341.063 1151.43 341.621 1151.96 341.991 1152.65C342.36 1153.33 342.545 1154.12 342.545 1155.01C342.545 1155.9 342.358 1156.69 341.984 1157.37C341.614 1158.04 341.056 1158.56 340.308 1158.93C339.564 1159.31 338.629 1159.5 337.502 1159.5H333.575V1157.61H337.303C338.013 1157.61 338.591 1157.5 339.036 1157.3C339.486 1157.1 339.815 1156.8 340.023 1156.41C340.232 1156.03 340.336 1155.56 340.336 1155.01C340.336 1154.46 340.229 1153.99 340.016 1153.59C339.808 1153.18 339.479 1152.88 339.029 1152.66C338.584 1152.45 337.999 1152.34 337.275 1152.34H334.519V1165H332.325ZM339.505 1158.44L343.099 1165H340.599L337.076 1158.44H339.505ZM355.059 1155.05C354.922 1154.62 354.737 1154.23 354.505 1153.89C354.278 1153.55 354.005 1153.25 353.688 1153.01C353.371 1152.77 353.009 1152.58 352.602 1152.45C352.199 1152.32 351.756 1152.26 351.273 1152.26C350.454 1152.26 349.716 1152.47 349.058 1152.89C348.399 1153.31 347.879 1153.93 347.495 1154.74C347.116 1155.55 346.927 1156.55 346.927 1157.72C346.927 1158.9 347.119 1159.9 347.502 1160.71C347.886 1161.52 348.411 1162.14 349.079 1162.56C349.746 1162.99 350.506 1163.2 351.359 1163.2C352.149 1163.2 352.838 1163.04 353.425 1162.71C354.017 1162.39 354.474 1161.94 354.796 1161.35C355.123 1160.76 355.286 1160.06 355.286 1159.26L355.854 1159.37H351.692V1157.56H357.41V1159.21C357.41 1160.43 357.149 1161.49 356.629 1162.39C356.112 1163.29 355.397 1163.98 354.484 1164.47C353.575 1164.96 352.533 1165.2 351.359 1165.2C350.042 1165.2 348.887 1164.9 347.893 1164.29C346.903 1163.68 346.131 1162.82 345.577 1161.71C345.023 1160.59 344.746 1159.27 344.746 1157.73C344.746 1156.57 344.907 1155.53 345.229 1154.61C345.551 1153.69 346.004 1152.9 346.586 1152.26C347.173 1151.61 347.862 1151.12 348.653 1150.77C349.448 1150.43 350.317 1150.26 351.259 1150.26C352.045 1150.26 352.777 1150.37 353.454 1150.6C354.136 1150.84 354.742 1151.16 355.272 1151.59C355.807 1152.02 356.25 1152.52 356.6 1153.11C356.951 1153.69 357.187 1154.34 357.31 1155.05H355.059ZM360.196 1165V1150.45H369.315V1152.34H362.39V1156.78H368.839V1158.66H362.39V1163.11H369.4V1165H360.196Z" fill="#E3E4E8"/>
<path d="M261.881 879.344V877.455H273.138V879.344H268.599V892H266.412V879.344H261.881ZM275.135 892H272.806L278.04 877.455H280.576L285.81 892H283.48L279.368 880.097H279.255L275.135 892ZM275.526 886.304H283.083V888.151H275.526V886.304ZM287.911 892V877.455H293.237C294.269 877.455 295.124 877.625 295.801 877.966C296.478 878.302 296.985 878.759 297.321 879.337C297.657 879.91 297.825 880.556 297.825 881.276C297.825 881.882 297.714 882.393 297.491 882.81C297.269 883.222 296.971 883.553 296.597 883.804C296.227 884.05 295.82 884.23 295.375 884.344V884.486C295.858 884.509 296.329 884.666 296.788 884.955C297.252 885.239 297.636 885.643 297.939 886.169C298.242 886.695 298.393 887.334 298.393 888.087C298.393 888.83 298.218 889.498 297.868 890.089C297.522 890.677 296.987 891.143 296.263 891.489C295.538 891.83 294.613 892 293.486 892H287.911ZM290.105 890.118H293.273C294.324 890.118 295.077 889.914 295.531 889.507C295.986 889.1 296.213 888.591 296.213 887.98C296.213 887.521 296.097 887.099 295.865 886.716C295.633 886.332 295.302 886.027 294.871 885.8C294.445 885.572 293.938 885.459 293.351 885.459H290.105V890.118ZM290.105 883.747H293.045C293.538 883.747 293.981 883.652 294.374 883.463C294.771 883.274 295.086 883.009 295.318 882.668C295.555 882.322 295.673 881.915 295.673 881.446C295.673 880.845 295.463 880.34 295.041 879.933C294.62 879.526 293.973 879.322 293.102 879.322H290.105V883.747ZM306.289 892V877.455H308.484V890.111H315.075V892H306.289ZM319.549 892H317.22L322.454 877.455H324.99L330.224 892H327.895L323.782 880.097H323.669L319.549 892ZM319.94 886.304H327.497V888.151H319.94V886.304ZM332.325 892V877.455H337.509C338.636 877.455 339.571 877.649 340.315 878.037C341.063 878.425 341.621 878.963 341.991 879.649C342.36 880.331 342.545 881.119 342.545 882.014C342.545 882.904 342.358 883.688 341.984 884.365C341.614 885.037 341.056 885.561 340.308 885.935C339.564 886.309 338.629 886.496 337.502 886.496H333.575V884.607H337.303C338.013 884.607 338.591 884.505 339.036 884.301C339.486 884.098 339.815 883.802 340.023 883.413C340.232 883.025 340.336 882.559 340.336 882.014C340.336 881.465 340.229 880.989 340.016 880.587C339.808 880.184 339.479 879.876 339.029 879.663C338.584 879.446 337.999 879.337 337.275 879.337H334.519V892H332.325ZM339.505 885.438L343.099 892H340.599L337.076 885.438H339.505ZM355.059 882.05C354.922 881.619 354.737 881.233 354.505 880.892C354.278 880.546 354.005 880.253 353.688 880.011C353.371 879.765 353.009 879.578 352.602 879.45C352.199 879.322 351.756 879.259 351.273 879.259C350.454 879.259 349.716 879.469 349.058 879.891C348.399 880.312 347.879 880.93 347.495 881.744C347.116 882.554 346.927 883.546 346.927 884.72C346.927 885.899 347.119 886.896 347.502 887.71C347.886 888.525 348.411 889.143 349.079 889.564C349.746 889.985 350.506 890.196 351.359 890.196C352.149 890.196 352.838 890.035 353.425 889.713C354.017 889.391 354.474 888.937 354.796 888.349C355.123 887.758 355.286 887.062 355.286 886.261L355.854 886.368H351.692V884.557H357.41V886.212C357.41 887.433 357.149 888.494 356.629 889.393C356.112 890.288 355.397 890.98 354.484 891.467C353.575 891.955 352.533 892.199 351.359 892.199C350.042 892.199 348.887 891.896 347.893 891.29C346.903 890.684 346.131 889.824 345.577 888.712C345.023 887.594 344.746 886.268 344.746 884.734C344.746 883.574 344.907 882.533 345.229 881.609C345.551 880.686 346.004 879.902 346.586 879.259C347.173 878.61 347.862 878.115 348.653 877.774C349.448 877.429 350.317 877.256 351.259 877.256C352.045 877.256 352.777 877.372 353.454 877.604C354.136 877.836 354.742 878.165 355.272 878.591C355.807 879.017 356.25 879.524 356.6 880.111C356.951 880.693 357.187 881.339 357.31 882.05H355.059ZM360.196 892V877.455H369.315V879.344H362.39V883.776H368.839V885.658H362.39V890.111H369.4V892H360.196Z" fill="#5C5E70"/>
<path d="M42.532 50.2955V47.9091H63.6257V50.2955H54.407V77H51.7507V50.2955H42.532ZM72.2053 77.4972C70.889 77.4972 69.6863 77.2415 68.5973 76.7301C67.5083 76.2093 66.6418 75.4612 65.9979 74.4858C65.3539 73.5009 65.032 72.3078 65.032 70.9062C65.032 69.8267 65.2356 68.9176 65.6428 68.179C66.05 67.4403 66.6276 66.8343 67.3757 66.3608C68.1238 65.8873 69.0092 65.5133 70.032 65.2386C71.0547 64.964 72.1816 64.7509 73.4126 64.5994C74.6342 64.4479 75.6664 64.3153 76.5092 64.2017C77.3615 64.0881 78.0102 63.9081 78.4553 63.6619C78.9003 63.4157 79.1229 63.018 79.1229 62.4688V61.9574C79.1229 60.4706 78.6778 59.3011 77.7876 58.4489C76.907 57.5871 75.638 57.1562 73.9808 57.1562C72.4089 57.1562 71.1257 57.5019 70.1314 58.1932C69.1465 58.8845 68.4553 59.6989 68.0575 60.6364L65.657 59.7699C66.1494 58.5767 66.8312 57.625 67.7024 56.9148C68.5736 56.1951 69.549 55.679 70.6286 55.3665C71.7081 55.0445 72.8018 54.8835 73.9098 54.8835C74.7431 54.8835 75.6096 54.9924 76.5092 55.2102C77.4183 55.428 78.2611 55.8068 79.0376 56.3466C79.8142 56.8769 80.4439 57.6203 80.9268 58.5767C81.4098 59.5237 81.6513 60.7263 81.6513 62.1847V77H79.1229V73.5483H78.9666C78.6636 74.1922 78.2138 74.8172 77.6172 75.4233C77.0206 76.0294 76.2725 76.5265 75.3729 76.9148C74.4732 77.303 73.4174 77.4972 72.2053 77.4972ZM72.5462 75.1818C73.8909 75.1818 75.0556 74.8835 76.0405 74.2869C77.0253 73.6903 77.7829 72.8996 78.3132 71.9148C78.853 70.9205 79.1229 69.8267 79.1229 68.6335V65.4801C78.9335 65.66 78.6162 65.821 78.1712 65.9631C77.7356 66.1051 77.2289 66.233 76.6513 66.3466C76.0831 66.4508 75.5149 66.5407 74.9467 66.6165C74.3786 66.6922 73.8672 66.7585 73.4126 66.8153C72.1816 66.9669 71.1304 67.2036 70.2592 67.5256C69.388 67.8475 68.7204 68.2926 68.2564 68.8608C67.7924 69.4195 67.5604 70.1392 67.5604 71.0199C67.5604 72.3456 68.0339 73.3731 68.9808 74.1023C69.9278 74.822 71.1162 75.1818 72.5462 75.1818ZM88.9027 77V47.9091H91.4453V59.3438H91.6726C91.9567 58.6903 92.3639 58.018 92.8942 57.3267C93.4339 56.6354 94.1394 56.0578 95.0107 55.5938C95.8913 55.1203 96.9993 54.8835 98.3345 54.8835C100.124 54.8835 101.696 55.357 103.05 56.304C104.405 57.2415 105.46 58.5578 106.218 60.2528C106.976 61.9384 107.354 63.9034 107.354 66.1477C107.354 68.4015 106.976 70.3759 106.218 72.071C105.47 73.7661 104.419 75.0871 103.065 76.0341C101.72 76.9811 100.157 77.4545 98.3771 77.4545C97.0514 77.4545 95.9434 77.2178 95.0533 76.7443C94.1726 76.2708 93.4624 75.6884 92.9226 74.9972C92.3828 74.2964 91.9661 73.6146 91.6726 72.9517H91.3601V77H88.9027ZM91.4027 66.1051C91.4027 67.8665 91.6631 69.429 92.1839 70.7926C92.7143 72.1468 93.4718 73.2121 94.4567 73.9886C95.451 74.7557 96.6536 75.1392 98.0646 75.1392C99.5135 75.1392 100.74 74.7415 101.744 73.946C102.747 73.1411 103.51 72.0568 104.031 70.6932C104.551 69.3295 104.812 67.8002 104.812 66.1051C104.812 64.429 104.551 62.9186 104.031 61.5739C103.519 60.2292 102.762 59.1638 101.758 58.3778C100.754 57.5824 99.523 57.1847 98.0646 57.1847C96.6442 57.1847 95.4368 57.5682 94.4425 58.3352C93.4576 59.0928 92.7048 60.1439 92.1839 61.4886C91.6631 62.8239 91.4027 64.3627 91.4027 66.1051Z" fill="#C4C8DC"/>
</svg>
