<svg width="400" height="1014" viewBox="0 0 400 1014" fill="none" xmlns="http://www.w3.org/2000/svg">
<rect width="400" height="1014" rx="16" fill="white"/>
<rect x="40.5" y="124.5" width="319" height="849" rx="4.5" stroke="#9747FF" stroke-dasharray="10 5"/>
<g clip-path="url(#clip0_119_242)">
<path d="M68 304.5H332C336.142 304.5 339.5 307.858 339.5 312V380C339.5 381.933 337.933 383.5 336 383.5H68C63.8579 383.5 60.5 380.142 60.5 376V312C60.5 307.858 63.8579 304.5 68 304.5Z" fill="#F9F9F9" stroke="#ABADBA"/>
<path d="M77.4091 330V318.364H81.3409C82.2538 318.364 83 318.528 83.5795 318.858C84.1629 319.184 84.5947 319.625 84.875 320.182C85.1553 320.739 85.2955 321.36 85.2955 322.045C85.2955 322.731 85.1553 323.354 84.875 323.915C84.5985 324.475 84.1705 324.922 83.5909 325.256C83.0114 325.585 82.2689 325.75 81.3636 325.75H78.5455V324.5H81.3182C81.9432 324.5 82.4451 324.392 82.8239 324.176C83.2027 323.96 83.4773 323.669 83.6477 323.301C83.822 322.93 83.9091 322.511 83.9091 322.045C83.9091 321.58 83.822 321.163 83.6477 320.795C83.4773 320.428 83.2008 320.14 82.8182 319.932C82.4356 319.72 81.928 319.614 81.2955 319.614H78.8182V330H77.4091ZM88.7244 318.364V330H87.3835V318.364H88.7244ZM93.7486 330.205C93.1955 330.205 92.6937 330.1 92.2429 329.892C91.7921 329.68 91.4342 329.375 91.169 328.977C90.9039 328.576 90.7713 328.091 90.7713 327.523C90.7713 327.023 90.8698 326.617 91.0668 326.307C91.2637 325.992 91.527 325.746 91.8565 325.568C92.1861 325.39 92.5497 325.258 92.9474 325.17C93.349 325.08 93.7524 325.008 94.1577 324.955C94.688 324.886 95.1179 324.835 95.4474 324.801C95.7808 324.763 96.0232 324.701 96.1747 324.614C96.33 324.527 96.4077 324.375 96.4077 324.159V324.114C96.4077 323.553 96.2543 323.117 95.9474 322.807C95.6444 322.496 95.1842 322.341 94.5668 322.341C93.9266 322.341 93.4247 322.481 93.0611 322.761C92.6974 323.042 92.4418 323.341 92.294 323.659L91.0213 323.205C91.2486 322.674 91.5516 322.261 91.9304 321.966C92.313 321.667 92.7296 321.458 93.1804 321.341C93.6349 321.22 94.0819 321.159 94.5213 321.159C94.8016 321.159 95.1236 321.193 95.4872 321.261C95.8546 321.326 96.2088 321.46 96.5497 321.665C96.8944 321.869 97.1804 322.178 97.4077 322.591C97.6349 323.004 97.7486 323.557 97.7486 324.25V330H96.4077V328.818H96.3395C96.2486 329.008 96.0971 329.21 95.8849 329.426C95.6728 329.642 95.3906 329.826 95.0384 329.977C94.6861 330.129 94.2562 330.205 93.7486 330.205ZM93.9531 329C94.4834 329 94.9304 328.896 95.294 328.688C95.6615 328.479 95.938 328.21 96.1236 327.881C96.313 327.551 96.4077 327.205 96.4077 326.841V325.614C96.3509 325.682 96.2259 325.744 96.0327 325.801C95.8433 325.854 95.6236 325.902 95.3736 325.943C95.1274 325.981 94.8868 326.015 94.652 326.045C94.4209 326.072 94.2334 326.095 94.0895 326.114C93.741 326.159 93.4152 326.233 93.1122 326.335C92.813 326.434 92.5705 326.583 92.3849 326.784C92.2031 326.981 92.1122 327.25 92.1122 327.591C92.1122 328.057 92.2846 328.409 92.6293 328.648C92.9777 328.883 93.419 329 93.9531 329ZM103.741 330.182C102.923 330.182 102.219 329.989 101.628 329.602C101.037 329.216 100.582 328.684 100.264 328.006C99.946 327.328 99.7869 326.553 99.7869 325.682C99.7869 324.795 99.9498 324.013 100.276 323.335C100.605 322.653 101.063 322.121 101.651 321.739C102.241 321.352 102.931 321.159 103.719 321.159C104.332 321.159 104.885 321.273 105.378 321.5C105.87 321.727 106.274 322.045 106.588 322.455C106.902 322.864 107.098 323.341 107.173 323.886H105.832C105.73 323.489 105.503 323.136 105.151 322.83C104.802 322.519 104.332 322.364 103.741 322.364C103.219 322.364 102.76 322.5 102.366 322.773C101.976 323.042 101.671 323.422 101.452 323.915C101.236 324.403 101.128 324.977 101.128 325.636C101.128 326.311 101.234 326.898 101.446 327.398C101.662 327.898 101.965 328.286 102.355 328.562C102.749 328.839 103.211 328.977 103.741 328.977C104.09 328.977 104.406 328.917 104.69 328.795C104.974 328.674 105.215 328.5 105.412 328.273C105.609 328.045 105.749 327.773 105.832 327.455H107.173C107.098 327.97 106.91 328.434 106.611 328.847C106.315 329.256 105.923 329.581 105.435 329.824C104.95 330.062 104.385 330.182 103.741 330.182ZM112.793 330.182C111.952 330.182 111.226 329.996 110.616 329.625C110.01 329.25 109.543 328.727 109.213 328.057C108.887 327.383 108.724 326.598 108.724 325.705C108.724 324.811 108.887 324.023 109.213 323.341C109.543 322.655 110.001 322.121 110.588 321.739C111.179 321.352 111.868 321.159 112.656 321.159C113.111 321.159 113.56 321.235 114.003 321.386C114.446 321.538 114.849 321.784 115.213 322.125C115.577 322.462 115.866 322.909 116.082 323.466C116.298 324.023 116.406 324.708 116.406 325.523V326.091H109.679V324.932H115.043C115.043 324.439 114.944 324 114.747 323.614C114.554 323.227 114.277 322.922 113.918 322.699C113.562 322.475 113.141 322.364 112.656 322.364C112.122 322.364 111.66 322.496 111.27 322.761C110.884 323.023 110.586 323.364 110.378 323.784C110.17 324.205 110.065 324.655 110.065 325.136V325.909C110.065 326.568 110.179 327.127 110.406 327.585C110.637 328.04 110.957 328.386 111.366 328.625C111.776 328.86 112.251 328.977 112.793 328.977C113.145 328.977 113.463 328.928 113.747 328.83C114.035 328.727 114.283 328.576 114.491 328.375C114.7 328.17 114.861 327.917 114.974 327.614L116.27 327.977C116.134 328.417 115.904 328.803 115.582 329.136C115.26 329.466 114.863 329.723 114.389 329.909C113.916 330.091 113.384 330.182 112.793 330.182ZM119.787 324.75V330H118.446V318.364H119.787V322.636H119.901C120.105 322.186 120.412 321.828 120.821 321.562C121.234 321.294 121.783 321.159 122.469 321.159C123.063 321.159 123.584 321.278 124.031 321.517C124.478 321.752 124.825 322.114 125.071 322.602C125.321 323.087 125.446 323.705 125.446 324.455V330H124.105V324.545C124.105 323.852 123.925 323.316 123.565 322.938C123.209 322.555 122.715 322.364 122.082 322.364C121.643 322.364 121.249 322.456 120.901 322.642C120.556 322.828 120.283 323.098 120.082 323.455C119.885 323.811 119.787 324.242 119.787 324.75ZM131.445 330.182C130.657 330.182 129.965 329.994 129.371 329.619C128.78 329.244 128.318 328.72 127.984 328.045C127.655 327.371 127.49 326.583 127.49 325.682C127.49 324.773 127.655 323.979 127.984 323.301C128.318 322.623 128.78 322.097 129.371 321.722C129.965 321.347 130.657 321.159 131.445 321.159C132.232 321.159 132.922 321.347 133.513 321.722C134.107 322.097 134.57 322.623 134.899 323.301C135.232 323.979 135.399 324.773 135.399 325.682C135.399 326.583 135.232 327.371 134.899 328.045C134.57 328.72 134.107 329.244 133.513 329.619C132.922 329.994 132.232 330.182 131.445 330.182ZM131.445 328.977C132.043 328.977 132.536 328.824 132.922 328.517C133.308 328.21 133.594 327.807 133.78 327.307C133.965 326.807 134.058 326.265 134.058 325.682C134.058 325.098 133.965 324.555 133.78 324.051C133.594 323.547 133.308 323.14 132.922 322.83C132.536 322.519 132.043 322.364 131.445 322.364C130.846 322.364 130.354 322.519 129.967 322.83C129.581 323.14 129.295 323.547 129.109 324.051C128.924 324.555 128.831 325.098 128.831 325.682C128.831 326.265 128.924 326.807 129.109 327.307C129.295 327.807 129.581 328.21 129.967 328.517C130.354 328.824 130.846 328.977 131.445 328.977ZM138.787 318.364V330H137.446V318.364H138.787ZM144.538 330.182C143.811 330.182 143.169 329.998 142.612 329.631C142.055 329.259 141.62 328.737 141.305 328.062C140.991 327.384 140.834 326.583 140.834 325.659C140.834 324.742 140.991 323.947 141.305 323.273C141.62 322.598 142.057 322.078 142.618 321.71C143.179 321.343 143.826 321.159 144.561 321.159C145.129 321.159 145.578 321.254 145.908 321.443C146.241 321.629 146.495 321.841 146.669 322.08C146.847 322.314 146.985 322.508 147.084 322.659H147.197V318.364H148.538V330H147.243V328.659H147.084C146.985 328.818 146.845 329.019 146.663 329.261C146.482 329.5 146.222 329.714 145.885 329.903C145.548 330.089 145.099 330.182 144.538 330.182ZM144.72 328.977C145.258 328.977 145.713 328.837 146.084 328.557C146.455 328.273 146.737 327.881 146.93 327.381C147.124 326.877 147.22 326.295 147.22 325.636C147.22 324.985 147.125 324.415 146.936 323.926C146.747 323.434 146.466 323.051 146.095 322.778C145.724 322.502 145.266 322.364 144.72 322.364C144.152 322.364 143.679 322.509 143.3 322.801C142.925 323.089 142.643 323.481 142.453 323.977C142.268 324.47 142.175 325.023 142.175 325.636C142.175 326.258 142.269 326.822 142.459 327.33C142.652 327.833 142.936 328.235 143.311 328.534C143.69 328.83 144.16 328.977 144.72 328.977ZM154.839 330.182C153.999 330.182 153.273 329.996 152.663 329.625C152.057 329.25 151.589 328.727 151.26 328.057C150.934 327.383 150.771 326.598 150.771 325.705C150.771 324.811 150.934 324.023 151.26 323.341C151.589 322.655 152.048 322.121 152.635 321.739C153.226 321.352 153.915 321.159 154.703 321.159C155.158 321.159 155.607 321.235 156.05 321.386C156.493 321.538 156.896 321.784 157.26 322.125C157.624 322.462 157.913 322.909 158.129 323.466C158.345 324.023 158.453 324.708 158.453 325.523V326.091H151.726V324.932H157.089C157.089 324.439 156.991 324 156.794 323.614C156.601 323.227 156.324 322.922 155.964 322.699C155.608 322.475 155.188 322.364 154.703 322.364C154.169 322.364 153.707 322.496 153.317 322.761C152.93 323.023 152.633 323.364 152.425 323.784C152.216 324.205 152.112 324.655 152.112 325.136V325.909C152.112 326.568 152.226 327.127 152.453 327.585C152.684 328.04 153.004 328.386 153.413 328.625C153.822 328.86 154.298 328.977 154.839 328.977C155.192 328.977 155.51 328.928 155.794 328.83C156.082 328.727 156.33 328.576 156.538 328.375C156.747 328.17 156.908 327.917 157.021 327.614L158.317 327.977C158.18 328.417 157.951 328.803 157.629 329.136C157.307 329.466 156.91 329.723 156.436 329.909C155.963 330.091 155.43 330.182 154.839 330.182ZM160.493 330V321.273H161.788V322.591H161.879C162.038 322.159 162.326 321.809 162.743 321.54C163.16 321.271 163.629 321.136 164.152 321.136C164.25 321.136 164.374 321.138 164.521 321.142C164.669 321.146 164.781 321.152 164.857 321.159V322.523C164.811 322.511 164.707 322.494 164.544 322.472C164.385 322.445 164.216 322.432 164.038 322.432C163.614 322.432 163.235 322.521 162.902 322.699C162.572 322.873 162.311 323.116 162.118 323.426C161.929 323.733 161.834 324.083 161.834 324.477V330H160.493Z" fill="#ABADBA"/>
<path d="M61.0568 296V287.273H62.1136V295.062H66.1705V296H61.0568ZM69.5966 296.153C69.1818 296.153 68.8054 296.075 68.4673 295.919C68.1293 295.76 67.8608 295.531 67.6619 295.233C67.4631 294.932 67.3636 294.568 67.3636 294.142C67.3636 293.767 67.4375 293.463 67.5852 293.23C67.733 292.994 67.9304 292.81 68.1776 292.676C68.4247 292.543 68.6974 292.443 68.9957 292.378C69.2969 292.31 69.5994 292.256 69.9034 292.216C70.3011 292.165 70.6236 292.126 70.8707 292.101C71.1207 292.072 71.3026 292.026 71.4162 291.96C71.5327 291.895 71.5909 291.781 71.5909 291.619V291.585C71.5909 291.165 71.4759 290.838 71.2457 290.605C71.0185 290.372 70.6733 290.256 70.2102 290.256C69.7301 290.256 69.3537 290.361 69.081 290.571C68.8082 290.781 68.6165 291.006 68.5057 291.244L67.5511 290.903C67.7216 290.506 67.9489 290.196 68.233 289.974C68.5199 289.75 68.8324 289.594 69.1705 289.506C69.5114 289.415 69.8466 289.369 70.1761 289.369C70.3864 289.369 70.6278 289.395 70.9006 289.446C71.1761 289.494 71.4418 289.595 71.6974 289.749C71.956 289.902 72.1705 290.134 72.3409 290.443C72.5114 290.753 72.5966 291.168 72.5966 291.688V296H71.5909V295.114H71.5398C71.4716 295.256 71.358 295.408 71.1989 295.57C71.0398 295.732 70.8281 295.869 70.5639 295.983C70.2997 296.097 69.9773 296.153 69.5966 296.153ZM69.75 295.25C70.1477 295.25 70.483 295.172 70.7557 295.016C71.0313 294.859 71.2386 294.658 71.3778 294.411C71.5199 294.163 71.5909 293.903 71.5909 293.631V292.71C71.5483 292.761 71.4545 292.808 71.3097 292.851C71.1676 292.891 71.0028 292.926 70.8153 292.957C70.6307 292.986 70.4503 293.011 70.2741 293.034C70.1009 293.054 69.9602 293.071 69.8523 293.085C69.5909 293.119 69.3466 293.175 69.1193 293.251C68.8949 293.325 68.7131 293.437 68.5739 293.588C68.4375 293.736 68.3693 293.937 68.3693 294.193C68.3693 294.543 68.4986 294.807 68.7571 294.986C69.0185 295.162 69.3494 295.25 69.75 295.25ZM74.5685 296V287.273H75.5742V290.494H75.6594C75.7333 290.381 75.8356 290.236 75.9663 290.06C76.0998 289.881 76.2901 289.722 76.5373 289.582C76.7873 289.44 77.1254 289.369 77.5515 289.369C78.1026 289.369 78.5884 289.507 79.0089 289.783C79.4293 290.058 79.7575 290.449 79.9933 290.955C80.229 291.46 80.3469 292.057 80.3469 292.744C80.3469 293.438 80.229 294.038 79.9933 294.547C79.7575 295.053 79.4308 295.445 79.0131 295.723C78.5955 295.999 78.114 296.136 77.5685 296.136C77.1481 296.136 76.8114 296.067 76.5586 295.928C76.3058 295.786 76.1112 295.625 75.9748 295.446C75.8384 295.264 75.7333 295.114 75.6594 294.994H75.5401V296H74.5685ZM75.5572 292.727C75.5572 293.222 75.6296 293.658 75.7745 294.036C75.9194 294.411 76.131 294.705 76.4094 294.918C76.6879 295.128 77.0288 295.233 77.4322 295.233C77.8526 295.233 78.2035 295.122 78.4847 294.901C78.7688 294.676 78.9819 294.375 79.1239 293.997C79.2688 293.616 79.3413 293.193 79.3413 292.727C79.3413 292.267 79.2702 291.852 79.1282 291.483C78.989 291.111 78.7773 290.817 78.4933 290.601C78.212 290.382 77.8583 290.273 77.4322 290.273C77.0231 290.273 76.6793 290.376 76.4009 290.584C76.1225 290.788 75.9123 291.075 75.7702 291.445C75.6282 291.811 75.5572 292.239 75.5572 292.727ZM84.6296 296.136C83.9989 296.136 83.4549 295.997 82.9975 295.719C82.543 295.438 82.1921 295.045 81.945 294.543C81.7006 294.037 81.5785 293.449 81.5785 292.778C81.5785 292.108 81.7006 291.517 81.945 291.006C82.1921 290.491 82.5359 290.091 82.9762 289.804C83.4194 289.514 83.9364 289.369 84.5273 289.369C84.8683 289.369 85.2049 289.426 85.5373 289.54C85.8697 289.653 86.1722 289.838 86.445 290.094C86.7177 290.347 86.935 290.682 87.0969 291.099C87.2589 291.517 87.3398 292.031 87.3398 292.642V293.068H82.2944V292.199H86.3171C86.3171 291.83 86.2433 291.5 86.0955 291.21C85.9506 290.92 85.7433 290.692 85.4734 290.524C85.2063 290.357 84.891 290.273 84.5273 290.273C84.1268 290.273 83.7802 290.372 83.4876 290.571C83.1978 290.767 82.9748 291.023 82.8185 291.338C82.6623 291.653 82.5842 291.991 82.5842 292.352V292.932C82.5842 293.426 82.6694 293.845 82.8398 294.189C83.0131 294.53 83.2532 294.79 83.56 294.969C83.8668 295.145 84.2234 295.233 84.6296 295.233C84.8938 295.233 85.1325 295.196 85.3455 295.122C85.5614 295.045 85.7475 294.932 85.9038 294.781C86.06 294.628 86.1808 294.437 86.266 294.21L87.2376 294.483C87.1353 294.812 86.9634 295.102 86.7219 295.352C86.4805 295.599 86.1822 295.793 85.8271 295.932C85.4719 296.068 85.0728 296.136 84.6296 296.136ZM89.8754 287.273V296H88.8697V287.273H89.8754Z" fill="#73768C"/>
<g clip-path="url(#clip1_119_242)">
<path d="M335 380L336 379" stroke="#73768C"/>
<path d="M332 380L336 376" stroke="#73768C"/>
<path d="M328 380L336 372" stroke="#73768C"/>
</g>
</g>
<g clip-path="url(#clip2_119_242)">
<path d="M68 444.5H332C336.142 444.5 339.5 447.858 339.5 452V520C339.5 521.933 337.933 523.5 336 523.5H68C63.8579 523.5 60.5 520.142 60.5 516V452C60.5 447.858 63.8579 444.5 68 444.5Z" fill="white" stroke="#0E69F1"/>
<path d="M76.7727 459.614V458.364H85.5V459.614H81.8409V470H80.4318V459.614H76.7727ZM87.3565 473.273C87.1293 473.273 86.9266 473.254 86.7486 473.216C86.5705 473.182 86.4474 473.148 86.3793 473.114L86.7202 471.932C87.0459 472.015 87.3338 472.045 87.5838 472.023C87.8338 472 88.0554 471.888 88.2486 471.688C88.4455 471.491 88.6255 471.17 88.7884 470.727L89.0384 470.045L85.8111 461.273H87.2656L89.6747 468.227H89.7656L92.1747 461.273H93.6293L89.9247 471.273C89.758 471.723 89.5516 472.097 89.3054 472.392C89.0592 472.691 88.7732 472.913 88.4474 473.057C88.1255 473.201 87.7618 473.273 87.3565 473.273ZM95.3991 473.273V461.273H96.6946V462.659H96.8537C96.9522 462.508 97.0885 462.314 97.2628 462.08C97.4408 461.841 97.6946 461.629 98.0241 461.443C98.3575 461.254 98.8082 461.159 99.3764 461.159C100.111 461.159 100.759 461.343 101.32 461.71C101.88 462.078 102.318 462.598 102.632 463.273C102.946 463.947 103.104 464.742 103.104 465.659C103.104 466.583 102.946 467.384 102.632 468.062C102.318 468.737 101.882 469.259 101.325 469.631C100.768 469.998 100.126 470.182 99.3991 470.182C98.8385 470.182 98.3897 470.089 98.0526 469.903C97.7154 469.714 97.456 469.5 97.2741 469.261C97.0923 469.019 96.9522 468.818 96.8537 468.659H96.7401V473.273H95.3991ZM96.7173 465.636C96.7173 466.295 96.8139 466.877 97.0071 467.381C97.2003 467.881 97.4825 468.273 97.8537 468.557C98.2249 468.837 98.6795 468.977 99.2173 468.977C99.7779 468.977 100.246 468.83 100.621 468.534C101 468.235 101.284 467.833 101.473 467.33C101.666 466.822 101.763 466.258 101.763 465.636C101.763 465.023 101.668 464.47 101.479 463.977C101.293 463.481 101.011 463.089 100.632 462.801C100.257 462.509 99.7855 462.364 99.2173 462.364C98.6719 462.364 98.2135 462.502 97.8423 462.778C97.4711 463.051 97.1908 463.434 97.0014 463.926C96.812 464.415 96.7173 464.985 96.7173 465.636ZM105.149 470V461.273H106.49V470H105.149ZM105.831 459.818C105.57 459.818 105.344 459.729 105.155 459.551C104.969 459.373 104.876 459.159 104.876 458.909C104.876 458.659 104.969 458.445 105.155 458.267C105.344 458.089 105.57 458 105.831 458C106.092 458 106.316 458.089 106.501 458.267C106.691 458.445 106.786 458.659 106.786 458.909C106.786 459.159 106.691 459.373 106.501 459.551C106.316 459.729 106.092 459.818 105.831 459.818ZM110.287 464.75V470H108.946V461.273H110.241V462.636H110.355C110.56 462.193 110.87 461.837 111.287 461.568C111.704 461.295 112.241 461.159 112.901 461.159C113.491 461.159 114.009 461.28 114.452 461.523C114.895 461.761 115.24 462.125 115.486 462.614C115.732 463.098 115.855 463.712 115.855 464.455V470H114.514V464.545C114.514 463.86 114.336 463.326 113.98 462.943C113.624 462.557 113.135 462.364 112.514 462.364C112.086 462.364 111.704 462.456 111.366 462.642C111.033 462.828 110.77 463.098 110.577 463.455C110.384 463.811 110.287 464.242 110.287 464.75ZM121.828 473.455C121.18 473.455 120.624 473.371 120.158 473.205C119.692 473.042 119.304 472.826 118.993 472.557C118.686 472.292 118.442 472.008 118.26 471.705L119.328 470.955C119.449 471.114 119.603 471.295 119.788 471.5C119.974 471.708 120.228 471.888 120.55 472.04C120.875 472.195 121.302 472.273 121.828 472.273C122.533 472.273 123.114 472.102 123.572 471.761C124.031 471.42 124.26 470.886 124.26 470.159V468.386H124.146C124.048 468.545 123.908 468.742 123.726 468.977C123.548 469.208 123.29 469.415 122.953 469.597C122.62 469.775 122.169 469.864 121.601 469.864C120.896 469.864 120.264 469.697 119.703 469.364C119.146 469.03 118.705 468.545 118.379 467.909C118.057 467.273 117.896 466.5 117.896 465.591C117.896 464.697 118.054 463.919 118.368 463.256C118.682 462.589 119.12 462.074 119.68 461.71C120.241 461.343 120.889 461.159 121.624 461.159C122.192 461.159 122.643 461.254 122.976 461.443C123.313 461.629 123.571 461.841 123.749 462.08C123.93 462.314 124.071 462.508 124.169 462.659H124.305V461.273H125.601V470.25C125.601 471 125.43 471.61 125.089 472.08C124.752 472.553 124.298 472.9 123.726 473.119C123.158 473.343 122.525 473.455 121.828 473.455ZM121.783 468.659C122.321 468.659 122.775 468.536 123.146 468.29C123.518 468.044 123.8 467.689 123.993 467.227C124.186 466.765 124.283 466.212 124.283 465.568C124.283 464.939 124.188 464.384 123.999 463.903C123.809 463.422 123.529 463.045 123.158 462.773C122.786 462.5 122.328 462.364 121.783 462.364C121.214 462.364 120.741 462.508 120.362 462.795C119.987 463.083 119.705 463.47 119.516 463.955C119.33 464.439 119.237 464.977 119.237 465.568C119.237 466.174 119.332 466.71 119.521 467.176C119.714 467.638 119.999 468.002 120.374 468.267C120.752 468.528 121.222 468.659 121.783 468.659ZM136.351 461.273V462.409H131.828V461.273H136.351ZM133.146 459.182H134.487V467.5C134.487 467.879 134.542 468.163 134.652 468.352C134.766 468.538 134.91 468.663 135.084 468.727C135.262 468.788 135.449 468.818 135.646 468.818C135.794 468.818 135.915 468.811 136.01 468.795C136.105 468.777 136.18 468.761 136.237 468.75L136.51 469.955C136.419 469.989 136.292 470.023 136.129 470.057C135.966 470.095 135.76 470.114 135.51 470.114C135.131 470.114 134.76 470.032 134.396 469.869C134.036 469.706 133.737 469.458 133.499 469.125C133.264 468.792 133.146 468.371 133.146 467.864V459.182ZM141.933 470.182C141.092 470.182 140.367 469.996 139.757 469.625C139.151 469.25 138.683 468.727 138.354 468.057C138.028 467.383 137.865 466.598 137.865 465.705C137.865 464.811 138.028 464.023 138.354 463.341C138.683 462.655 139.142 462.121 139.729 461.739C140.32 461.352 141.009 461.159 141.797 461.159C142.251 461.159 142.7 461.235 143.143 461.386C143.587 461.538 143.99 461.784 144.354 462.125C144.717 462.462 145.007 462.909 145.223 463.466C145.439 464.023 145.547 464.708 145.547 465.523V466.091H138.82V464.932H144.183C144.183 464.439 144.085 464 143.888 463.614C143.695 463.227 143.418 462.922 143.058 462.699C142.702 462.475 142.282 462.364 141.797 462.364C141.263 462.364 140.801 462.496 140.411 462.761C140.024 463.023 139.727 463.364 139.518 463.784C139.31 464.205 139.206 464.655 139.206 465.136V465.909C139.206 466.568 139.32 467.127 139.547 467.585C139.778 468.04 140.098 468.386 140.507 468.625C140.916 468.86 141.392 468.977 141.933 468.977C142.286 468.977 142.604 468.928 142.888 468.83C143.176 468.727 143.424 468.576 143.632 468.375C143.84 468.17 144.001 467.917 144.115 467.614L145.411 467.977C145.274 468.417 145.045 468.803 144.723 469.136C144.401 469.466 144.003 469.723 143.53 469.909C143.056 470.091 142.524 470.182 141.933 470.182ZM148.352 461.273L150.443 464.841L152.534 461.273H154.08L151.261 465.636L154.08 470H152.534L150.443 466.614L148.352 470H146.807L149.58 465.636L146.807 461.273H148.352ZM159.788 461.273V462.409H155.266V461.273H159.788ZM156.584 459.182H157.925V467.5C157.925 467.879 157.98 468.163 158.089 468.352C158.203 468.538 158.347 468.663 158.521 468.727C158.699 468.788 158.887 468.818 159.084 468.818C159.232 468.818 159.353 468.811 159.447 468.795C159.542 468.777 159.618 468.761 159.675 468.75L159.947 469.955C159.857 469.989 159.73 470.023 159.567 470.057C159.404 470.095 159.197 470.114 158.947 470.114C158.569 470.114 158.197 470.032 157.834 469.869C157.474 469.706 157.175 469.458 156.936 469.125C156.701 468.792 156.584 468.371 156.584 467.864V459.182ZM163.947 454.614V473.75H162.811V454.614H163.947Z" fill="#151A30"/>
<path d="M61.0568 436V427.273H62.1136V435.062H66.1705V436H61.0568ZM69.5966 436.153C69.1818 436.153 68.8054 436.075 68.4673 435.919C68.1293 435.76 67.8608 435.531 67.6619 435.233C67.4631 434.932 67.3636 434.568 67.3636 434.142C67.3636 433.767 67.4375 433.463 67.5852 433.23C67.733 432.994 67.9304 432.81 68.1776 432.676C68.4247 432.543 68.6974 432.443 68.9957 432.378C69.2969 432.31 69.5994 432.256 69.9034 432.216C70.3011 432.165 70.6236 432.126 70.8707 432.101C71.1207 432.072 71.3026 432.026 71.4162 431.96C71.5327 431.895 71.5909 431.781 71.5909 431.619V431.585C71.5909 431.165 71.4759 430.838 71.2457 430.605C71.0185 430.372 70.6733 430.256 70.2102 430.256C69.7301 430.256 69.3537 430.361 69.081 430.571C68.8082 430.781 68.6165 431.006 68.5057 431.244L67.5511 430.903C67.7216 430.506 67.9489 430.196 68.233 429.974C68.5199 429.75 68.8324 429.594 69.1705 429.506C69.5114 429.415 69.8466 429.369 70.1761 429.369C70.3864 429.369 70.6278 429.395 70.9006 429.446C71.1761 429.494 71.4418 429.595 71.6974 429.749C71.956 429.902 72.1705 430.134 72.3409 430.443C72.5114 430.753 72.5966 431.168 72.5966 431.688V436H71.5909V435.114H71.5398C71.4716 435.256 71.358 435.408 71.1989 435.57C71.0398 435.732 70.8281 435.869 70.5639 435.983C70.2997 436.097 69.9773 436.153 69.5966 436.153ZM69.75 435.25C70.1477 435.25 70.483 435.172 70.7557 435.016C71.0313 434.859 71.2386 434.658 71.3778 434.411C71.5199 434.163 71.5909 433.903 71.5909 433.631V432.71C71.5483 432.761 71.4545 432.808 71.3097 432.851C71.1676 432.891 71.0028 432.926 70.8153 432.957C70.6307 432.986 70.4503 433.011 70.2741 433.034C70.1009 433.054 69.9602 433.071 69.8523 433.085C69.5909 433.119 69.3466 433.175 69.1193 433.251C68.8949 433.325 68.7131 433.437 68.5739 433.588C68.4375 433.736 68.3693 433.937 68.3693 434.193C68.3693 434.543 68.4986 434.807 68.7571 434.986C69.0185 435.162 69.3494 435.25 69.75 435.25ZM74.5685 436V427.273H75.5742V430.494H75.6594C75.7333 430.381 75.8356 430.236 75.9663 430.06C76.0998 429.881 76.2901 429.722 76.5373 429.582C76.7873 429.44 77.1254 429.369 77.5515 429.369C78.1026 429.369 78.5884 429.507 79.0089 429.783C79.4293 430.058 79.7575 430.449 79.9933 430.955C80.229 431.46 80.3469 432.057 80.3469 432.744C80.3469 433.438 80.229 434.038 79.9933 434.547C79.7575 435.053 79.4308 435.445 79.0131 435.723C78.5955 435.999 78.114 436.136 77.5685 436.136C77.1481 436.136 76.8114 436.067 76.5586 435.928C76.3058 435.786 76.1112 435.625 75.9748 435.446C75.8384 435.264 75.7333 435.114 75.6594 434.994H75.5401V436H74.5685ZM75.5572 432.727C75.5572 433.222 75.6296 433.658 75.7745 434.036C75.9194 434.411 76.131 434.705 76.4094 434.918C76.6879 435.128 77.0288 435.233 77.4322 435.233C77.8526 435.233 78.2035 435.122 78.4847 434.901C78.7688 434.676 78.9819 434.375 79.1239 433.997C79.2688 433.616 79.3413 433.193 79.3413 432.727C79.3413 432.267 79.2702 431.852 79.1282 431.483C78.989 431.111 78.7773 430.817 78.4933 430.601C78.212 430.382 77.8583 430.273 77.4322 430.273C77.0231 430.273 76.6793 430.376 76.4009 430.584C76.1225 430.788 75.9123 431.075 75.7702 431.445C75.6282 431.811 75.5572 432.239 75.5572 432.727ZM84.6296 436.136C83.9989 436.136 83.4549 435.997 82.9975 435.719C82.543 435.438 82.1921 435.045 81.945 434.543C81.7006 434.037 81.5785 433.449 81.5785 432.778C81.5785 432.108 81.7006 431.517 81.945 431.006C82.1921 430.491 82.5359 430.091 82.9762 429.804C83.4194 429.514 83.9364 429.369 84.5273 429.369C84.8683 429.369 85.2049 429.426 85.5373 429.54C85.8697 429.653 86.1722 429.838 86.445 430.094C86.7177 430.347 86.935 430.682 87.0969 431.099C87.2589 431.517 87.3398 432.031 87.3398 432.642V433.068H82.2944V432.199H86.3171C86.3171 431.83 86.2433 431.5 86.0955 431.21C85.9506 430.92 85.7433 430.692 85.4734 430.524C85.2063 430.357 84.891 430.273 84.5273 430.273C84.1268 430.273 83.7802 430.372 83.4876 430.571C83.1978 430.767 82.9748 431.023 82.8185 431.338C82.6623 431.653 82.5842 431.991 82.5842 432.352V432.932C82.5842 433.426 82.6694 433.845 82.8398 434.189C83.0131 434.53 83.2532 434.79 83.56 434.969C83.8668 435.145 84.2234 435.233 84.6296 435.233C84.8938 435.233 85.1325 435.196 85.3455 435.122C85.5614 435.045 85.7475 434.932 85.9038 434.781C86.06 434.628 86.1808 434.437 86.266 434.21L87.2376 434.483C87.1353 434.812 86.9634 435.102 86.7219 435.352C86.4805 435.599 86.1822 435.793 85.8271 435.932C85.4719 436.068 85.0728 436.136 84.6296 436.136ZM89.8754 427.273V436H88.8697V427.273H89.8754Z" fill="#73768C"/>
<g clip-path="url(#clip3_119_242)">
<path d="M335 520L336 519" stroke="#73768C"/>
<path d="M332 520L336 516" stroke="#73768C"/>
<path d="M328 520L336 512" stroke="#73768C"/>
</g>
</g>
<g clip-path="url(#clip4_119_242)">
<path d="M68 584.5H332C336.142 584.5 339.5 587.858 339.5 592V660C339.5 661.933 337.933 663.5 336 663.5H68C63.8579 663.5 60.5 660.142 60.5 656V592C60.5 587.858 63.8579 584.5 68 584.5Z" fill="white" stroke="#73768C"/>
<path d="M76.7727 599.614V598.364H85.5V599.614H81.8409V610H80.4318V599.614H76.7727ZM87.3565 613.273C87.1293 613.273 86.9266 613.254 86.7486 613.216C86.5705 613.182 86.4474 613.148 86.3793 613.114L86.7202 611.932C87.0459 612.015 87.3338 612.045 87.5838 612.023C87.8338 612 88.0554 611.888 88.2486 611.688C88.4455 611.491 88.6255 611.17 88.7884 610.727L89.0384 610.045L85.8111 601.273H87.2656L89.6747 608.227H89.7656L92.1747 601.273H93.6293L89.9247 611.273C89.758 611.723 89.5516 612.097 89.3054 612.392C89.0592 612.691 88.7732 612.913 88.4474 613.057C88.1255 613.201 87.7618 613.273 87.3565 613.273ZM95.3991 613.273V601.273H96.6946V602.659H96.8537C96.9522 602.508 97.0885 602.314 97.2628 602.08C97.4408 601.841 97.6946 601.629 98.0241 601.443C98.3575 601.254 98.8082 601.159 99.3764 601.159C100.111 601.159 100.759 601.343 101.32 601.71C101.88 602.078 102.318 602.598 102.632 603.273C102.946 603.947 103.104 604.742 103.104 605.659C103.104 606.583 102.946 607.384 102.632 608.062C102.318 608.737 101.882 609.259 101.325 609.631C100.768 609.998 100.126 610.182 99.3991 610.182C98.8385 610.182 98.3897 610.089 98.0526 609.903C97.7154 609.714 97.456 609.5 97.2741 609.261C97.0923 609.019 96.9522 608.818 96.8537 608.659H96.7401V613.273H95.3991ZM96.7173 605.636C96.7173 606.295 96.8139 606.877 97.0071 607.381C97.2003 607.881 97.4825 608.273 97.8537 608.557C98.2249 608.837 98.6795 608.977 99.2173 608.977C99.7779 608.977 100.246 608.83 100.621 608.534C101 608.235 101.284 607.833 101.473 607.33C101.666 606.822 101.763 606.258 101.763 605.636C101.763 605.023 101.668 604.47 101.479 603.977C101.293 603.481 101.011 603.089 100.632 602.801C100.257 602.509 99.7855 602.364 99.2173 602.364C98.6719 602.364 98.2135 602.502 97.8423 602.778C97.4711 603.051 97.1908 603.434 97.0014 603.926C96.812 604.415 96.7173 604.985 96.7173 605.636ZM108.808 610.182C107.967 610.182 107.242 609.996 106.632 609.625C106.026 609.25 105.558 608.727 105.229 608.057C104.903 607.383 104.74 606.598 104.74 605.705C104.74 604.811 104.903 604.023 105.229 603.341C105.558 602.655 106.017 602.121 106.604 601.739C107.195 601.352 107.884 601.159 108.672 601.159C109.126 601.159 109.575 601.235 110.018 601.386C110.462 601.538 110.865 601.784 111.229 602.125C111.592 602.462 111.882 602.909 112.098 603.466C112.314 604.023 112.422 604.708 112.422 605.523V606.091H105.695V604.932H111.058C111.058 604.439 110.96 604 110.763 603.614C110.57 603.227 110.293 602.922 109.933 602.699C109.577 602.475 109.157 602.364 108.672 602.364C108.138 602.364 107.676 602.496 107.286 602.761C106.899 603.023 106.602 603.364 106.393 603.784C106.185 604.205 106.081 604.655 106.081 605.136V605.909C106.081 606.568 106.195 607.127 106.422 607.585C106.653 608.04 106.973 608.386 107.382 608.625C107.791 608.86 108.267 608.977 108.808 608.977C109.161 608.977 109.479 608.928 109.763 608.83C110.051 608.727 110.299 608.576 110.507 608.375C110.715 608.17 110.876 607.917 110.99 607.614L112.286 607.977C112.149 608.417 111.92 608.803 111.598 609.136C111.276 609.466 110.878 609.723 110.405 609.909C109.931 610.091 109.399 610.182 108.808 610.182ZM117.757 610.182C117.03 610.182 116.388 609.998 115.831 609.631C115.274 609.259 114.839 608.737 114.524 608.062C114.21 607.384 114.053 606.583 114.053 605.659C114.053 604.742 114.21 603.947 114.524 603.273C114.839 602.598 115.276 602.078 115.837 601.71C116.397 601.343 117.045 601.159 117.78 601.159C118.348 601.159 118.797 601.254 119.126 601.443C119.46 601.629 119.714 601.841 119.888 602.08C120.066 602.314 120.204 602.508 120.303 602.659H120.416V598.364H121.757V610H120.462V608.659H120.303C120.204 608.818 120.064 609.019 119.882 609.261C119.7 609.5 119.441 609.714 119.104 609.903C118.767 610.089 118.318 610.182 117.757 610.182ZM117.939 608.977C118.477 608.977 118.931 608.837 119.303 608.557C119.674 608.273 119.956 607.881 120.149 607.381C120.342 606.877 120.439 606.295 120.439 605.636C120.439 604.985 120.344 604.415 120.155 603.926C119.965 603.434 119.685 603.051 119.314 602.778C118.943 602.502 118.484 602.364 117.939 602.364C117.371 602.364 116.897 602.509 116.518 602.801C116.143 603.089 115.861 603.481 115.672 603.977C115.486 604.47 115.393 605.023 115.393 605.636C115.393 606.258 115.488 606.822 115.678 607.33C115.871 607.833 116.155 608.235 116.53 608.534C116.909 608.83 117.378 608.977 117.939 608.977ZM132.695 601.273V602.409H128.172V601.273H132.695ZM129.49 599.182H130.831V607.5C130.831 607.879 130.886 608.163 130.996 608.352C131.109 608.538 131.253 608.663 131.428 608.727C131.606 608.788 131.793 608.818 131.99 608.818C132.138 608.818 132.259 608.811 132.354 608.795C132.448 608.777 132.524 608.761 132.581 608.75L132.854 609.955C132.763 609.989 132.636 610.023 132.473 610.057C132.31 610.095 132.104 610.114 131.854 610.114C131.475 610.114 131.104 610.032 130.74 609.869C130.38 609.706 130.081 609.458 129.842 609.125C129.607 608.792 129.49 608.371 129.49 607.864V599.182ZM138.277 610.182C137.436 610.182 136.711 609.996 136.101 609.625C135.495 609.25 135.027 608.727 134.697 608.057C134.372 607.383 134.209 606.598 134.209 605.705C134.209 604.811 134.372 604.023 134.697 603.341C135.027 602.655 135.485 602.121 136.072 601.739C136.663 601.352 137.353 601.159 138.141 601.159C138.595 601.159 139.044 601.235 139.487 601.386C139.93 601.538 140.334 601.784 140.697 602.125C141.061 602.462 141.351 602.909 141.567 603.466C141.783 604.023 141.891 604.708 141.891 605.523V606.091H135.163V604.932H140.527C140.527 604.439 140.429 604 140.232 603.614C140.038 603.227 139.762 602.922 139.402 602.699C139.046 602.475 138.625 602.364 138.141 602.364C137.607 602.364 137.144 602.496 136.754 602.761C136.368 603.023 136.071 603.364 135.862 603.784C135.654 604.205 135.55 604.655 135.55 605.136V605.909C135.55 606.568 135.663 607.127 135.891 607.585C136.122 608.04 136.442 608.386 136.851 608.625C137.26 608.86 137.735 608.977 138.277 608.977C138.629 608.977 138.947 608.928 139.232 608.83C139.519 608.727 139.768 608.576 139.976 608.375C140.184 608.17 140.345 607.917 140.459 607.614L141.754 607.977C141.618 608.417 141.389 608.803 141.067 609.136C140.745 609.466 140.347 609.723 139.874 609.909C139.4 610.091 138.868 610.182 138.277 610.182ZM144.696 601.273L146.787 604.841L148.878 601.273H150.423L147.605 605.636L150.423 610H148.878L146.787 606.614L144.696 610H143.151L145.923 605.636L143.151 601.273H144.696ZM156.132 601.273V602.409H151.609V601.273H156.132ZM152.928 599.182H154.268V607.5C154.268 607.879 154.323 608.163 154.433 608.352C154.547 608.538 154.691 608.663 154.865 608.727C155.043 608.788 155.231 608.818 155.428 608.818C155.575 608.818 155.696 608.811 155.791 608.795C155.886 608.777 155.962 608.761 156.018 608.75L156.291 609.955C156.2 609.989 156.073 610.023 155.911 610.057C155.748 610.095 155.541 610.114 155.291 610.114C154.912 610.114 154.541 610.032 154.178 609.869C153.818 609.706 153.518 609.458 153.28 609.125C153.045 608.792 152.928 608.371 152.928 607.864V599.182ZM159.126 610.091C158.846 610.091 158.606 609.991 158.405 609.79C158.204 609.589 158.104 609.348 158.104 609.068C158.104 608.788 158.204 608.547 158.405 608.347C158.606 608.146 158.846 608.045 159.126 608.045C159.407 608.045 159.647 608.146 159.848 608.347C160.049 608.547 160.149 608.788 160.149 609.068C160.149 609.254 160.102 609.424 160.007 609.58C159.916 609.735 159.793 609.86 159.638 609.955C159.486 610.045 159.316 610.091 159.126 610.091Z" fill="#151A30"/>
<path d="M61.0568 576V567.273H62.1136V575.062H66.1705V576H61.0568ZM69.5966 576.153C69.1818 576.153 68.8054 576.075 68.4673 575.919C68.1293 575.76 67.8608 575.531 67.6619 575.233C67.4631 574.932 67.3636 574.568 67.3636 574.142C67.3636 573.767 67.4375 573.463 67.5852 573.23C67.733 572.994 67.9304 572.81 68.1776 572.676C68.4247 572.543 68.6974 572.443 68.9957 572.378C69.2969 572.31 69.5994 572.256 69.9034 572.216C70.3011 572.165 70.6236 572.126 70.8707 572.101C71.1207 572.072 71.3026 572.026 71.4162 571.96C71.5327 571.895 71.5909 571.781 71.5909 571.619V571.585C71.5909 571.165 71.4759 570.838 71.2457 570.605C71.0185 570.372 70.6733 570.256 70.2102 570.256C69.7301 570.256 69.3537 570.361 69.081 570.571C68.8082 570.781 68.6165 571.006 68.5057 571.244L67.5511 570.903C67.7216 570.506 67.9489 570.196 68.233 569.974C68.5199 569.75 68.8324 569.594 69.1705 569.506C69.5114 569.415 69.8466 569.369 70.1761 569.369C70.3864 569.369 70.6278 569.395 70.9006 569.446C71.1761 569.494 71.4418 569.595 71.6974 569.749C71.956 569.902 72.1705 570.134 72.3409 570.443C72.5114 570.753 72.5966 571.168 72.5966 571.688V576H71.5909V575.114H71.5398C71.4716 575.256 71.358 575.408 71.1989 575.57C71.0398 575.732 70.8281 575.869 70.5639 575.983C70.2997 576.097 69.9773 576.153 69.5966 576.153ZM69.75 575.25C70.1477 575.25 70.483 575.172 70.7557 575.016C71.0313 574.859 71.2386 574.658 71.3778 574.411C71.5199 574.163 71.5909 573.903 71.5909 573.631V572.71C71.5483 572.761 71.4545 572.808 71.3097 572.851C71.1676 572.891 71.0028 572.926 70.8153 572.957C70.6307 572.986 70.4503 573.011 70.2741 573.034C70.1009 573.054 69.9602 573.071 69.8523 573.085C69.5909 573.119 69.3466 573.175 69.1193 573.251C68.8949 573.325 68.7131 573.437 68.5739 573.588C68.4375 573.736 68.3693 573.937 68.3693 574.193C68.3693 574.543 68.4986 574.807 68.7571 574.986C69.0185 575.162 69.3494 575.25 69.75 575.25ZM74.5685 576V567.273H75.5742V570.494H75.6594C75.7333 570.381 75.8356 570.236 75.9663 570.06C76.0998 569.881 76.2901 569.722 76.5373 569.582C76.7873 569.44 77.1254 569.369 77.5515 569.369C78.1026 569.369 78.5884 569.507 79.0089 569.783C79.4293 570.058 79.7575 570.449 79.9933 570.955C80.229 571.46 80.3469 572.057 80.3469 572.744C80.3469 573.438 80.229 574.038 79.9933 574.547C79.7575 575.053 79.4308 575.445 79.0131 575.723C78.5955 575.999 78.114 576.136 77.5685 576.136C77.1481 576.136 76.8114 576.067 76.5586 575.928C76.3058 575.786 76.1112 575.625 75.9748 575.446C75.8384 575.264 75.7333 575.114 75.6594 574.994H75.5401V576H74.5685ZM75.5572 572.727C75.5572 573.222 75.6296 573.658 75.7745 574.036C75.9194 574.411 76.131 574.705 76.4094 574.918C76.6879 575.128 77.0288 575.233 77.4322 575.233C77.8526 575.233 78.2035 575.122 78.4847 574.901C78.7688 574.676 78.9819 574.375 79.1239 573.997C79.2688 573.616 79.3413 573.193 79.3413 572.727C79.3413 572.267 79.2702 571.852 79.1282 571.483C78.989 571.111 78.7773 570.817 78.4933 570.601C78.212 570.382 77.8583 570.273 77.4322 570.273C77.0231 570.273 76.6793 570.376 76.4009 570.584C76.1225 570.788 75.9123 571.075 75.7702 571.445C75.6282 571.811 75.5572 572.239 75.5572 572.727ZM84.6296 576.136C83.9989 576.136 83.4549 575.997 82.9975 575.719C82.543 575.438 82.1921 575.045 81.945 574.543C81.7006 574.037 81.5785 573.449 81.5785 572.778C81.5785 572.108 81.7006 571.517 81.945 571.006C82.1921 570.491 82.5359 570.091 82.9762 569.804C83.4194 569.514 83.9364 569.369 84.5273 569.369C84.8683 569.369 85.2049 569.426 85.5373 569.54C85.8697 569.653 86.1722 569.838 86.445 570.094C86.7177 570.347 86.935 570.682 87.0969 571.099C87.2589 571.517 87.3398 572.031 87.3398 572.642V573.068H82.2944V572.199H86.3171C86.3171 571.83 86.2433 571.5 86.0955 571.21C85.9506 570.92 85.7433 570.692 85.4734 570.524C85.2063 570.357 84.891 570.273 84.5273 570.273C84.1268 570.273 83.7802 570.372 83.4876 570.571C83.1978 570.767 82.9748 571.023 82.8185 571.338C82.6623 571.653 82.5842 571.991 82.5842 572.352V572.932C82.5842 573.426 82.6694 573.845 82.8398 574.189C83.0131 574.53 83.2532 574.79 83.56 574.969C83.8668 575.145 84.2234 575.233 84.6296 575.233C84.8938 575.233 85.1325 575.196 85.3455 575.122C85.5614 575.045 85.7475 574.932 85.9038 574.781C86.06 574.628 86.1808 574.437 86.266 574.21L87.2376 574.483C87.1353 574.812 86.9634 575.102 86.7219 575.352C86.4805 575.599 86.1822 575.793 85.8271 575.932C85.4719 576.068 85.0728 576.136 84.6296 576.136ZM89.8754 567.273V576H88.8697V567.273H89.8754Z" fill="#73768C"/>
<g clip-path="url(#clip5_119_242)">
<path d="M335 660L336 659" stroke="#73768C"/>
<path d="M332 660L336 656" stroke="#73768C"/>
<path d="M328 660L336 652" stroke="#73768C"/>
</g>
</g>
<g clip-path="url(#clip6_119_242)">
<path d="M68 864.5H332C336.142 864.5 339.5 867.858 339.5 872V940C339.5 941.933 337.933 943.5 336 943.5H68C63.8579 943.5 60.5 940.142 60.5 936V872C60.5 867.858 63.8579 864.5 68 864.5Z" fill="white" stroke="#E3E4E8"/>
<path d="M76.7727 879.614V878.364H85.5V879.614H81.8409V890H80.4318V879.614H76.7727ZM87.3565 893.273C87.1293 893.273 86.9266 893.254 86.7486 893.216C86.5705 893.182 86.4474 893.148 86.3793 893.114L86.7202 891.932C87.0459 892.015 87.3338 892.045 87.5838 892.023C87.8338 892 88.0554 891.888 88.2486 891.688C88.4455 891.491 88.6255 891.17 88.7884 890.727L89.0384 890.045L85.8111 881.273H87.2656L89.6747 888.227H89.7656L92.1747 881.273H93.6293L89.9247 891.273C89.758 891.723 89.5516 892.097 89.3054 892.392C89.0592 892.691 88.7732 892.913 88.4474 893.057C88.1255 893.201 87.7618 893.273 87.3565 893.273ZM95.3991 893.273V881.273H96.6946V882.659H96.8537C96.9522 882.508 97.0885 882.314 97.2628 882.08C97.4408 881.841 97.6946 881.629 98.0241 881.443C98.3575 881.254 98.8082 881.159 99.3764 881.159C100.111 881.159 100.759 881.343 101.32 881.71C101.88 882.078 102.318 882.598 102.632 883.273C102.946 883.947 103.104 884.742 103.104 885.659C103.104 886.583 102.946 887.384 102.632 888.062C102.318 888.737 101.882 889.259 101.325 889.631C100.768 889.998 100.126 890.182 99.3991 890.182C98.8385 890.182 98.3897 890.089 98.0526 889.903C97.7154 889.714 97.456 889.5 97.2741 889.261C97.0923 889.019 96.9522 888.818 96.8537 888.659H96.7401V893.273H95.3991ZM96.7173 885.636C96.7173 886.295 96.8139 886.877 97.0071 887.381C97.2003 887.881 97.4825 888.273 97.8537 888.557C98.2249 888.837 98.6795 888.977 99.2173 888.977C99.7779 888.977 100.246 888.83 100.621 888.534C101 888.235 101.284 887.833 101.473 887.33C101.666 886.822 101.763 886.258 101.763 885.636C101.763 885.023 101.668 884.47 101.479 883.977C101.293 883.481 101.011 883.089 100.632 882.801C100.257 882.509 99.7855 882.364 99.2173 882.364C98.6719 882.364 98.2135 882.502 97.8423 882.778C97.4711 883.051 97.1908 883.434 97.0014 883.926C96.812 884.415 96.7173 884.985 96.7173 885.636ZM108.808 890.182C107.967 890.182 107.242 889.996 106.632 889.625C106.026 889.25 105.558 888.727 105.229 888.057C104.903 887.383 104.74 886.598 104.74 885.705C104.74 884.811 104.903 884.023 105.229 883.341C105.558 882.655 106.017 882.121 106.604 881.739C107.195 881.352 107.884 881.159 108.672 881.159C109.126 881.159 109.575 881.235 110.018 881.386C110.462 881.538 110.865 881.784 111.229 882.125C111.592 882.462 111.882 882.909 112.098 883.466C112.314 884.023 112.422 884.708 112.422 885.523V886.091H105.695V884.932H111.058C111.058 884.439 110.96 884 110.763 883.614C110.57 883.227 110.293 882.922 109.933 882.699C109.577 882.475 109.157 882.364 108.672 882.364C108.138 882.364 107.676 882.496 107.286 882.761C106.899 883.023 106.602 883.364 106.393 883.784C106.185 884.205 106.081 884.655 106.081 885.136V885.909C106.081 886.568 106.195 887.127 106.422 887.585C106.653 888.04 106.973 888.386 107.382 888.625C107.791 888.86 108.267 888.977 108.808 888.977C109.161 888.977 109.479 888.928 109.763 888.83C110.051 888.727 110.299 888.576 110.507 888.375C110.715 888.17 110.876 887.917 110.99 887.614L112.286 887.977C112.149 888.417 111.92 888.803 111.598 889.136C111.276 889.466 110.878 889.723 110.405 889.909C109.931 890.091 109.399 890.182 108.808 890.182ZM117.757 890.182C117.03 890.182 116.388 889.998 115.831 889.631C115.274 889.259 114.839 888.737 114.524 888.062C114.21 887.384 114.053 886.583 114.053 885.659C114.053 884.742 114.21 883.947 114.524 883.273C114.839 882.598 115.276 882.078 115.837 881.71C116.397 881.343 117.045 881.159 117.78 881.159C118.348 881.159 118.797 881.254 119.126 881.443C119.46 881.629 119.714 881.841 119.888 882.08C120.066 882.314 120.204 882.508 120.303 882.659H120.416V878.364H121.757V890H120.462V888.659H120.303C120.204 888.818 120.064 889.019 119.882 889.261C119.7 889.5 119.441 889.714 119.104 889.903C118.767 890.089 118.318 890.182 117.757 890.182ZM117.939 888.977C118.477 888.977 118.931 888.837 119.303 888.557C119.674 888.273 119.956 887.881 120.149 887.381C120.342 886.877 120.439 886.295 120.439 885.636C120.439 884.985 120.344 884.415 120.155 883.926C119.965 883.434 119.685 883.051 119.314 882.778C118.943 882.502 118.484 882.364 117.939 882.364C117.371 882.364 116.897 882.509 116.518 882.801C116.143 883.089 115.861 883.481 115.672 883.977C115.486 884.47 115.393 885.023 115.393 885.636C115.393 886.258 115.488 886.822 115.678 887.33C115.871 887.833 116.155 888.235 116.53 888.534C116.909 888.83 117.378 888.977 117.939 888.977ZM132.695 881.273V882.409H128.172V881.273H132.695ZM129.49 879.182H130.831V887.5C130.831 887.879 130.886 888.163 130.996 888.352C131.109 888.538 131.253 888.663 131.428 888.727C131.606 888.788 131.793 888.818 131.99 888.818C132.138 888.818 132.259 888.811 132.354 888.795C132.448 888.777 132.524 888.761 132.581 888.75L132.854 889.955C132.763 889.989 132.636 890.023 132.473 890.057C132.31 890.095 132.104 890.114 131.854 890.114C131.475 890.114 131.104 890.032 130.74 889.869C130.38 889.706 130.081 889.458 129.842 889.125C129.607 888.792 129.49 888.371 129.49 887.864V879.182ZM138.277 890.182C137.436 890.182 136.711 889.996 136.101 889.625C135.495 889.25 135.027 888.727 134.697 888.057C134.372 887.383 134.209 886.598 134.209 885.705C134.209 884.811 134.372 884.023 134.697 883.341C135.027 882.655 135.485 882.121 136.072 881.739C136.663 881.352 137.353 881.159 138.141 881.159C138.595 881.159 139.044 881.235 139.487 881.386C139.93 881.538 140.334 881.784 140.697 882.125C141.061 882.462 141.351 882.909 141.567 883.466C141.783 884.023 141.891 884.708 141.891 885.523V886.091H135.163V884.932H140.527C140.527 884.439 140.429 884 140.232 883.614C140.038 883.227 139.762 882.922 139.402 882.699C139.046 882.475 138.625 882.364 138.141 882.364C137.607 882.364 137.144 882.496 136.754 882.761C136.368 883.023 136.071 883.364 135.862 883.784C135.654 884.205 135.55 884.655 135.55 885.136V885.909C135.55 886.568 135.663 887.127 135.891 887.585C136.122 888.04 136.442 888.386 136.851 888.625C137.26 888.86 137.735 888.977 138.277 888.977C138.629 888.977 138.947 888.928 139.232 888.83C139.519 888.727 139.768 888.576 139.976 888.375C140.184 888.17 140.345 887.917 140.459 887.614L141.754 887.977C141.618 888.417 141.389 888.803 141.067 889.136C140.745 889.466 140.347 889.723 139.874 889.909C139.4 890.091 138.868 890.182 138.277 890.182ZM144.696 881.273L146.787 884.841L148.878 881.273H150.423L147.605 885.636L150.423 890H148.878L146.787 886.614L144.696 890H143.151L145.923 885.636L143.151 881.273H144.696ZM156.132 881.273V882.409H151.609V881.273H156.132ZM152.928 879.182H154.268V887.5C154.268 887.879 154.323 888.163 154.433 888.352C154.547 888.538 154.691 888.663 154.865 888.727C155.043 888.788 155.231 888.818 155.428 888.818C155.575 888.818 155.696 888.811 155.791 888.795C155.886 888.777 155.962 888.761 156.018 888.75L156.291 889.955C156.2 889.989 156.073 890.023 155.911 890.057C155.748 890.095 155.541 890.114 155.291 890.114C154.912 890.114 154.541 890.032 154.178 889.869C153.818 889.706 153.518 889.458 153.28 889.125C153.045 888.792 152.928 888.371 152.928 887.864V879.182ZM159.126 890.091C158.846 890.091 158.606 889.991 158.405 889.79C158.204 889.589 158.104 889.348 158.104 889.068C158.104 888.788 158.204 888.547 158.405 888.347C158.606 888.146 158.846 888.045 159.126 888.045C159.407 888.045 159.647 888.146 159.848 888.347C160.049 888.547 160.149 888.788 160.149 889.068C160.149 889.254 160.102 889.424 160.007 889.58C159.916 889.735 159.793 889.86 159.638 889.955C159.486 890.045 159.316 890.091 159.126 890.091Z" fill="#7580AE"/>
<path d="M61.0568 856V847.273H62.1136V855.062H66.1705V856H61.0568ZM69.5966 856.153C69.1818 856.153 68.8054 856.075 68.4673 855.919C68.1293 855.76 67.8608 855.531 67.6619 855.233C67.4631 854.932 67.3636 854.568 67.3636 854.142C67.3636 853.767 67.4375 853.463 67.5852 853.23C67.733 852.994 67.9304 852.81 68.1776 852.676C68.4247 852.543 68.6974 852.443 68.9957 852.378C69.2969 852.31 69.5994 852.256 69.9034 852.216C70.3011 852.165 70.6236 852.126 70.8707 852.101C71.1207 852.072 71.3026 852.026 71.4162 851.96C71.5327 851.895 71.5909 851.781 71.5909 851.619V851.585C71.5909 851.165 71.4759 850.838 71.2457 850.605C71.0185 850.372 70.6733 850.256 70.2102 850.256C69.7301 850.256 69.3537 850.361 69.081 850.571C68.8082 850.781 68.6165 851.006 68.5057 851.244L67.5511 850.903C67.7216 850.506 67.9489 850.196 68.233 849.974C68.5199 849.75 68.8324 849.594 69.1705 849.506C69.5114 849.415 69.8466 849.369 70.1761 849.369C70.3864 849.369 70.6278 849.395 70.9006 849.446C71.1761 849.494 71.4418 849.595 71.6974 849.749C71.956 849.902 72.1705 850.134 72.3409 850.443C72.5114 850.753 72.5966 851.168 72.5966 851.688V856H71.5909V855.114H71.5398C71.4716 855.256 71.358 855.408 71.1989 855.57C71.0398 855.732 70.8281 855.869 70.5639 855.983C70.2997 856.097 69.9773 856.153 69.5966 856.153ZM69.75 855.25C70.1477 855.25 70.483 855.172 70.7557 855.016C71.0313 854.859 71.2386 854.658 71.3778 854.411C71.5199 854.163 71.5909 853.903 71.5909 853.631V852.71C71.5483 852.761 71.4545 852.808 71.3097 852.851C71.1676 852.891 71.0028 852.926 70.8153 852.957C70.6307 852.986 70.4503 853.011 70.2741 853.034C70.1009 853.054 69.9602 853.071 69.8523 853.085C69.5909 853.119 69.3466 853.175 69.1193 853.251C68.8949 853.325 68.7131 853.437 68.5739 853.588C68.4375 853.736 68.3693 853.937 68.3693 854.193C68.3693 854.543 68.4986 854.807 68.7571 854.986C69.0185 855.162 69.3494 855.25 69.75 855.25ZM74.5685 856V847.273H75.5742V850.494H75.6594C75.7333 850.381 75.8356 850.236 75.9663 850.06C76.0998 849.881 76.2901 849.722 76.5373 849.582C76.7873 849.44 77.1254 849.369 77.5515 849.369C78.1026 849.369 78.5884 849.507 79.0089 849.783C79.4293 850.058 79.7575 850.449 79.9933 850.955C80.229 851.46 80.3469 852.057 80.3469 852.744C80.3469 853.438 80.229 854.038 79.9933 854.547C79.7575 855.053 79.4308 855.445 79.0131 855.723C78.5955 855.999 78.114 856.136 77.5685 856.136C77.1481 856.136 76.8114 856.067 76.5586 855.928C76.3058 855.786 76.1112 855.625 75.9748 855.446C75.8384 855.264 75.7333 855.114 75.6594 854.994H75.5401V856H74.5685ZM75.5572 852.727C75.5572 853.222 75.6296 853.658 75.7745 854.036C75.9194 854.411 76.131 854.705 76.4094 854.918C76.6879 855.128 77.0288 855.233 77.4322 855.233C77.8526 855.233 78.2035 855.122 78.4847 854.901C78.7688 854.676 78.9819 854.375 79.1239 853.997C79.2688 853.616 79.3413 853.193 79.3413 852.727C79.3413 852.267 79.2702 851.852 79.1282 851.483C78.989 851.111 78.7773 850.817 78.4933 850.601C78.212 850.382 77.8583 850.273 77.4322 850.273C77.0231 850.273 76.6793 850.376 76.4009 850.584C76.1225 850.788 75.9123 851.075 75.7702 851.445C75.6282 851.811 75.5572 852.239 75.5572 852.727ZM84.6296 856.136C83.9989 856.136 83.4549 855.997 82.9975 855.719C82.543 855.438 82.1921 855.045 81.945 854.543C81.7006 854.037 81.5785 853.449 81.5785 852.778C81.5785 852.108 81.7006 851.517 81.945 851.006C82.1921 850.491 82.5359 850.091 82.9762 849.804C83.4194 849.514 83.9364 849.369 84.5273 849.369C84.8683 849.369 85.2049 849.426 85.5373 849.54C85.8697 849.653 86.1722 849.838 86.445 850.094C86.7177 850.347 86.935 850.682 87.0969 851.099C87.2589 851.517 87.3398 852.031 87.3398 852.642V853.068H82.2944V852.199H86.3171C86.3171 851.83 86.2433 851.5 86.0955 851.21C85.9506 850.92 85.7433 850.692 85.4734 850.524C85.2063 850.357 84.891 850.273 84.5273 850.273C84.1268 850.273 83.7802 850.372 83.4876 850.571C83.1978 850.767 82.9748 851.023 82.8185 851.338C82.6623 851.653 82.5842 851.991 82.5842 852.352V852.932C82.5842 853.426 82.6694 853.845 82.8398 854.189C83.0131 854.53 83.2532 854.79 83.56 854.969C83.8668 855.145 84.2234 855.233 84.6296 855.233C84.8938 855.233 85.1325 855.196 85.3455 855.122C85.5614 855.045 85.7475 854.932 85.9038 854.781C86.06 854.628 86.1808 854.437 86.266 854.21L87.2376 854.483C87.1353 854.812 86.9634 855.102 86.7219 855.352C86.4805 855.599 86.1822 855.793 85.8271 855.932C85.4719 856.068 85.0728 856.136 84.6296 856.136ZM89.8754 847.273V856H88.8697V847.273H89.8754Z" fill="#E3E4E8"/>
<g clip-path="url(#clip7_119_242)">
<path d="M335 940L336 939" stroke="#E3E4E8"/>
<path d="M332 940L336 936" stroke="#E3E4E8"/>
<path d="M328 940L336 932" stroke="#E3E4E8"/>
</g>
</g>
<g clip-path="url(#clip8_119_242)">
<path d="M68 164.5H332C336.142 164.5 339.5 167.858 339.5 172V240C339.5 241.933 337.933 243.5 336 243.5H68C63.8579 243.5 60.5 240.142 60.5 236V172C60.5 167.858 63.8579 164.5 68 164.5Z" fill="white" stroke="#73768C"/>
<path d="M77.4091 190V178.364H81.3409C82.2538 178.364 83 178.528 83.5795 178.858C84.1629 179.184 84.5947 179.625 84.875 180.182C85.1553 180.739 85.2955 181.36 85.2955 182.045C85.2955 182.731 85.1553 183.354 84.875 183.915C84.5985 184.475 84.1705 184.922 83.5909 185.256C83.0114 185.585 82.2689 185.75 81.3636 185.75H78.5455V184.5H81.3182C81.9432 184.5 82.4451 184.392 82.8239 184.176C83.2027 183.96 83.4773 183.669 83.6477 183.301C83.822 182.93 83.9091 182.511 83.9091 182.045C83.9091 181.58 83.822 181.163 83.6477 180.795C83.4773 180.428 83.2008 180.14 82.8182 179.932C82.4356 179.72 81.928 179.614 81.2955 179.614H78.8182V190H77.4091ZM88.7244 178.364V190H87.3835V178.364H88.7244ZM93.7486 190.205C93.1955 190.205 92.6937 190.1 92.2429 189.892C91.7921 189.68 91.4342 189.375 91.169 188.977C90.9039 188.576 90.7713 188.091 90.7713 187.523C90.7713 187.023 90.8698 186.617 91.0668 186.307C91.2637 185.992 91.527 185.746 91.8565 185.568C92.1861 185.39 92.5497 185.258 92.9474 185.17C93.349 185.08 93.7524 185.008 94.1577 184.955C94.688 184.886 95.1179 184.835 95.4474 184.801C95.7808 184.763 96.0232 184.701 96.1747 184.614C96.33 184.527 96.4077 184.375 96.4077 184.159V184.114C96.4077 183.553 96.2543 183.117 95.9474 182.807C95.6444 182.496 95.1842 182.341 94.5668 182.341C93.9266 182.341 93.4247 182.481 93.0611 182.761C92.6974 183.042 92.4418 183.341 92.294 183.659L91.0213 183.205C91.2486 182.674 91.5516 182.261 91.9304 181.966C92.313 181.667 92.7296 181.458 93.1804 181.341C93.6349 181.22 94.0819 181.159 94.5213 181.159C94.8016 181.159 95.1236 181.193 95.4872 181.261C95.8546 181.326 96.2088 181.46 96.5497 181.665C96.8944 181.869 97.1804 182.178 97.4077 182.591C97.6349 183.004 97.7486 183.557 97.7486 184.25V190H96.4077V188.818H96.3395C96.2486 189.008 96.0971 189.21 95.8849 189.426C95.6728 189.642 95.3906 189.826 95.0384 189.977C94.6861 190.129 94.2562 190.205 93.7486 190.205ZM93.9531 189C94.4834 189 94.9304 188.896 95.294 188.688C95.6615 188.479 95.938 188.21 96.1236 187.881C96.313 187.551 96.4077 187.205 96.4077 186.841V185.614C96.3509 185.682 96.2259 185.744 96.0327 185.801C95.8433 185.854 95.6236 185.902 95.3736 185.943C95.1274 185.981 94.8868 186.015 94.652 186.045C94.4209 186.072 94.2334 186.095 94.0895 186.114C93.741 186.159 93.4152 186.233 93.1122 186.335C92.813 186.434 92.5705 186.583 92.3849 186.784C92.2031 186.981 92.1122 187.25 92.1122 187.591C92.1122 188.057 92.2846 188.409 92.6293 188.648C92.9777 188.883 93.419 189 93.9531 189ZM103.741 190.182C102.923 190.182 102.219 189.989 101.628 189.602C101.037 189.216 100.582 188.684 100.264 188.006C99.946 187.328 99.7869 186.553 99.7869 185.682C99.7869 184.795 99.9498 184.013 100.276 183.335C100.605 182.653 101.063 182.121 101.651 181.739C102.241 181.352 102.931 181.159 103.719 181.159C104.332 181.159 104.885 181.273 105.378 181.5C105.87 181.727 106.274 182.045 106.588 182.455C106.902 182.864 107.098 183.341 107.173 183.886H105.832C105.73 183.489 105.503 183.136 105.151 182.83C104.802 182.519 104.332 182.364 103.741 182.364C103.219 182.364 102.76 182.5 102.366 182.773C101.976 183.042 101.671 183.422 101.452 183.915C101.236 184.403 101.128 184.977 101.128 185.636C101.128 186.311 101.234 186.898 101.446 187.398C101.662 187.898 101.965 188.286 102.355 188.562C102.749 188.839 103.211 188.977 103.741 188.977C104.09 188.977 104.406 188.917 104.69 188.795C104.974 188.674 105.215 188.5 105.412 188.273C105.609 188.045 105.749 187.773 105.832 187.455H107.173C107.098 187.97 106.91 188.434 106.611 188.847C106.315 189.256 105.923 189.581 105.435 189.824C104.95 190.062 104.385 190.182 103.741 190.182ZM112.793 190.182C111.952 190.182 111.226 189.996 110.616 189.625C110.01 189.25 109.543 188.727 109.213 188.057C108.887 187.383 108.724 186.598 108.724 185.705C108.724 184.811 108.887 184.023 109.213 183.341C109.543 182.655 110.001 182.121 110.588 181.739C111.179 181.352 111.868 181.159 112.656 181.159C113.111 181.159 113.56 181.235 114.003 181.386C114.446 181.538 114.849 181.784 115.213 182.125C115.577 182.462 115.866 182.909 116.082 183.466C116.298 184.023 116.406 184.708 116.406 185.523V186.091H109.679V184.932H115.043C115.043 184.439 114.944 184 114.747 183.614C114.554 183.227 114.277 182.922 113.918 182.699C113.562 182.475 113.141 182.364 112.656 182.364C112.122 182.364 111.66 182.496 111.27 182.761C110.884 183.023 110.586 183.364 110.378 183.784C110.17 184.205 110.065 184.655 110.065 185.136V185.909C110.065 186.568 110.179 187.127 110.406 187.585C110.637 188.04 110.957 188.386 111.366 188.625C111.776 188.86 112.251 188.977 112.793 188.977C113.145 188.977 113.463 188.928 113.747 188.83C114.035 188.727 114.283 188.576 114.491 188.375C114.7 188.17 114.861 187.917 114.974 187.614L116.27 187.977C116.134 188.417 115.904 188.803 115.582 189.136C115.26 189.466 114.863 189.723 114.389 189.909C113.916 190.091 113.384 190.182 112.793 190.182ZM119.787 184.75V190H118.446V178.364H119.787V182.636H119.901C120.105 182.186 120.412 181.828 120.821 181.562C121.234 181.294 121.783 181.159 122.469 181.159C123.063 181.159 123.584 181.278 124.031 181.517C124.478 181.752 124.825 182.114 125.071 182.602C125.321 183.087 125.446 183.705 125.446 184.455V190H124.105V184.545C124.105 183.852 123.925 183.316 123.565 182.938C123.209 182.555 122.715 182.364 122.082 182.364C121.643 182.364 121.249 182.456 120.901 182.642C120.556 182.828 120.283 183.098 120.082 183.455C119.885 183.811 119.787 184.242 119.787 184.75ZM131.445 190.182C130.657 190.182 129.965 189.994 129.371 189.619C128.78 189.244 128.318 188.72 127.984 188.045C127.655 187.371 127.49 186.583 127.49 185.682C127.49 184.773 127.655 183.979 127.984 183.301C128.318 182.623 128.78 182.097 129.371 181.722C129.965 181.347 130.657 181.159 131.445 181.159C132.232 181.159 132.922 181.347 133.513 181.722C134.107 182.097 134.57 182.623 134.899 183.301C135.232 183.979 135.399 184.773 135.399 185.682C135.399 186.583 135.232 187.371 134.899 188.045C134.57 188.72 134.107 189.244 133.513 189.619C132.922 189.994 132.232 190.182 131.445 190.182ZM131.445 188.977C132.043 188.977 132.536 188.824 132.922 188.517C133.308 188.21 133.594 187.807 133.78 187.307C133.965 186.807 134.058 186.265 134.058 185.682C134.058 185.098 133.965 184.555 133.78 184.051C133.594 183.547 133.308 183.14 132.922 182.83C132.536 182.519 132.043 182.364 131.445 182.364C130.846 182.364 130.354 182.519 129.967 182.83C129.581 183.14 129.295 183.547 129.109 184.051C128.924 184.555 128.831 185.098 128.831 185.682C128.831 186.265 128.924 186.807 129.109 187.307C129.295 187.807 129.581 188.21 129.967 188.517C130.354 188.824 130.846 188.977 131.445 188.977ZM138.787 178.364V190H137.446V178.364H138.787ZM144.538 190.182C143.811 190.182 143.169 189.998 142.612 189.631C142.055 189.259 141.62 188.737 141.305 188.062C140.991 187.384 140.834 186.583 140.834 185.659C140.834 184.742 140.991 183.947 141.305 183.273C141.62 182.598 142.057 182.078 142.618 181.71C143.179 181.343 143.826 181.159 144.561 181.159C145.129 181.159 145.578 181.254 145.908 181.443C146.241 181.629 146.495 181.841 146.669 182.08C146.847 182.314 146.985 182.508 147.084 182.659H147.197V178.364H148.538V190H147.243V188.659H147.084C146.985 188.818 146.845 189.019 146.663 189.261C146.482 189.5 146.222 189.714 145.885 189.903C145.548 190.089 145.099 190.182 144.538 190.182ZM144.72 188.977C145.258 188.977 145.713 188.837 146.084 188.557C146.455 188.273 146.737 187.881 146.93 187.381C147.124 186.877 147.22 186.295 147.22 185.636C147.22 184.985 147.125 184.415 146.936 183.926C146.747 183.434 146.466 183.051 146.095 182.778C145.724 182.502 145.266 182.364 144.72 182.364C144.152 182.364 143.679 182.509 143.3 182.801C142.925 183.089 142.643 183.481 142.453 183.977C142.268 184.47 142.175 185.023 142.175 185.636C142.175 186.258 142.269 186.822 142.459 187.33C142.652 187.833 142.936 188.235 143.311 188.534C143.69 188.83 144.16 188.977 144.72 188.977ZM154.839 190.182C153.999 190.182 153.273 189.996 152.663 189.625C152.057 189.25 151.589 188.727 151.26 188.057C150.934 187.383 150.771 186.598 150.771 185.705C150.771 184.811 150.934 184.023 151.26 183.341C151.589 182.655 152.048 182.121 152.635 181.739C153.226 181.352 153.915 181.159 154.703 181.159C155.158 181.159 155.607 181.235 156.05 181.386C156.493 181.538 156.896 181.784 157.26 182.125C157.624 182.462 157.913 182.909 158.129 183.466C158.345 184.023 158.453 184.708 158.453 185.523V186.091H151.726V184.932H157.089C157.089 184.439 156.991 184 156.794 183.614C156.601 183.227 156.324 182.922 155.964 182.699C155.608 182.475 155.188 182.364 154.703 182.364C154.169 182.364 153.707 182.496 153.317 182.761C152.93 183.023 152.633 183.364 152.425 183.784C152.216 184.205 152.112 184.655 152.112 185.136V185.909C152.112 186.568 152.226 187.127 152.453 187.585C152.684 188.04 153.004 188.386 153.413 188.625C153.822 188.86 154.298 188.977 154.839 188.977C155.192 188.977 155.51 188.928 155.794 188.83C156.082 188.727 156.33 188.576 156.538 188.375C156.747 188.17 156.908 187.917 157.021 187.614L158.317 187.977C158.18 188.417 157.951 188.803 157.629 189.136C157.307 189.466 156.91 189.723 156.436 189.909C155.963 190.091 155.43 190.182 154.839 190.182ZM160.493 190V181.273H161.788V182.591H161.879C162.038 182.159 162.326 181.809 162.743 181.54C163.16 181.271 163.629 181.136 164.152 181.136C164.25 181.136 164.374 181.138 164.521 181.142C164.669 181.146 164.781 181.152 164.857 181.159V182.523C164.811 182.511 164.707 182.494 164.544 182.472C164.385 182.445 164.216 182.432 164.038 182.432C163.614 182.432 163.235 182.521 162.902 182.699C162.572 182.873 162.311 183.116 162.118 183.426C161.929 183.733 161.834 184.083 161.834 184.477V190H160.493Z" fill="#73768C"/>
<path d="M61.0568 156V147.273H62.1136V155.062H66.1705V156H61.0568ZM69.5966 156.153C69.1818 156.153 68.8054 156.075 68.4673 155.919C68.1293 155.76 67.8608 155.531 67.6619 155.233C67.4631 154.932 67.3636 154.568 67.3636 154.142C67.3636 153.767 67.4375 153.463 67.5852 153.23C67.733 152.994 67.9304 152.81 68.1776 152.676C68.4247 152.543 68.6974 152.443 68.9957 152.378C69.2969 152.31 69.5994 152.256 69.9034 152.216C70.3011 152.165 70.6236 152.126 70.8707 152.101C71.1207 152.072 71.3026 152.026 71.4162 151.96C71.5327 151.895 71.5909 151.781 71.5909 151.619V151.585C71.5909 151.165 71.4759 150.838 71.2457 150.605C71.0185 150.372 70.6733 150.256 70.2102 150.256C69.7301 150.256 69.3537 150.361 69.081 150.571C68.8082 150.781 68.6165 151.006 68.5057 151.244L67.5511 150.903C67.7216 150.506 67.9489 150.196 68.233 149.974C68.5199 149.75 68.8324 149.594 69.1705 149.506C69.5114 149.415 69.8466 149.369 70.1761 149.369C70.3864 149.369 70.6278 149.395 70.9006 149.446C71.1761 149.494 71.4418 149.595 71.6974 149.749C71.956 149.902 72.1705 150.134 72.3409 150.443C72.5114 150.753 72.5966 151.168 72.5966 151.688V156H71.5909V155.114H71.5398C71.4716 155.256 71.358 155.408 71.1989 155.57C71.0398 155.732 70.8281 155.869 70.5639 155.983C70.2997 156.097 69.9773 156.153 69.5966 156.153ZM69.75 155.25C70.1477 155.25 70.483 155.172 70.7557 155.016C71.0313 154.859 71.2386 154.658 71.3778 154.411C71.5199 154.163 71.5909 153.903 71.5909 153.631V152.71C71.5483 152.761 71.4545 152.808 71.3097 152.851C71.1676 152.891 71.0028 152.926 70.8153 152.957C70.6307 152.986 70.4503 153.011 70.2741 153.034C70.1009 153.054 69.9602 153.071 69.8523 153.085C69.5909 153.119 69.3466 153.175 69.1193 153.251C68.8949 153.325 68.7131 153.437 68.5739 153.588C68.4375 153.736 68.3693 153.937 68.3693 154.193C68.3693 154.543 68.4986 154.807 68.7571 154.986C69.0185 155.162 69.3494 155.25 69.75 155.25ZM74.5685 156V147.273H75.5742V150.494H75.6594C75.7333 150.381 75.8356 150.236 75.9663 150.06C76.0998 149.881 76.2901 149.722 76.5373 149.582C76.7873 149.44 77.1254 149.369 77.5515 149.369C78.1026 149.369 78.5884 149.507 79.0089 149.783C79.4293 150.058 79.7575 150.449 79.9933 150.955C80.229 151.46 80.3469 152.057 80.3469 152.744C80.3469 153.438 80.229 154.038 79.9933 154.547C79.7575 155.053 79.4308 155.445 79.0131 155.723C78.5955 155.999 78.114 156.136 77.5685 156.136C77.1481 156.136 76.8114 156.067 76.5586 155.928C76.3058 155.786 76.1112 155.625 75.9748 155.446C75.8384 155.264 75.7333 155.114 75.6594 154.994H75.5401V156H74.5685ZM75.5572 152.727C75.5572 153.222 75.6296 153.658 75.7745 154.036C75.9194 154.411 76.131 154.705 76.4094 154.918C76.6879 155.128 77.0288 155.233 77.4322 155.233C77.8526 155.233 78.2035 155.122 78.4847 154.901C78.7688 154.676 78.9819 154.375 79.1239 153.997C79.2688 153.616 79.3413 153.193 79.3413 152.727C79.3413 152.267 79.2702 151.852 79.1282 151.483C78.989 151.111 78.7773 150.817 78.4933 150.601C78.212 150.382 77.8583 150.273 77.4322 150.273C77.0231 150.273 76.6793 150.376 76.4009 150.584C76.1225 150.788 75.9123 151.075 75.7702 151.445C75.6282 151.811 75.5572 152.239 75.5572 152.727ZM84.6296 156.136C83.9989 156.136 83.4549 155.997 82.9975 155.719C82.543 155.438 82.1921 155.045 81.945 154.543C81.7006 154.037 81.5785 153.449 81.5785 152.778C81.5785 152.108 81.7006 151.517 81.945 151.006C82.1921 150.491 82.5359 150.091 82.9762 149.804C83.4194 149.514 83.9364 149.369 84.5273 149.369C84.8683 149.369 85.2049 149.426 85.5373 149.54C85.8697 149.653 86.1722 149.838 86.445 150.094C86.7177 150.347 86.935 150.682 87.0969 151.099C87.2589 151.517 87.3398 152.031 87.3398 152.642V153.068H82.2944V152.199H86.3171C86.3171 151.83 86.2433 151.5 86.0955 151.21C85.9506 150.92 85.7433 150.692 85.4734 150.524C85.2063 150.357 84.891 150.273 84.5273 150.273C84.1268 150.273 83.7802 150.372 83.4876 150.571C83.1978 150.767 82.9748 151.023 82.8185 151.338C82.6623 151.653 82.5842 151.991 82.5842 152.352V152.932C82.5842 153.426 82.6694 153.845 82.8398 154.189C83.0131 154.53 83.2532 154.79 83.56 154.969C83.8668 155.145 84.2234 155.233 84.6296 155.233C84.8938 155.233 85.1325 155.196 85.3455 155.122C85.5614 155.045 85.7475 154.932 85.9038 154.781C86.06 154.628 86.1808 154.437 86.266 154.21L87.2376 154.483C87.1353 154.812 86.9634 155.102 86.7219 155.352C86.4805 155.599 86.1822 155.793 85.8271 155.932C85.4719 156.068 85.0728 156.136 84.6296 156.136ZM89.8754 147.273V156H88.8697V147.273H89.8754Z" fill="#73768C"/>
<g clip-path="url(#clip9_119_242)">
<path d="M335 240L336 239" stroke="#73768C"/>
<path d="M332 240L336 236" stroke="#73768C"/>
<path d="M328 240L336 232" stroke="#73768C"/>
</g>
</g>
<g clip-path="url(#clip10_119_242)">
<path d="M68 724.5H332C336.142 724.5 339.5 727.858 339.5 732V800C339.5 801.933 337.933 803.5 336 803.5H68C63.8579 803.5 60.5 800.142 60.5 796V732C60.5 727.858 63.8579 724.5 68 724.5Z" fill="white" stroke="#E3E4E8"/>
<path d="M77.4091 750V738.364H81.3409C82.2538 738.364 83 738.528 83.5795 738.858C84.1629 739.184 84.5947 739.625 84.875 740.182C85.1553 740.739 85.2955 741.36 85.2955 742.045C85.2955 742.731 85.1553 743.354 84.875 743.915C84.5985 744.475 84.1705 744.922 83.5909 745.256C83.0114 745.585 82.2689 745.75 81.3636 745.75H78.5455V744.5H81.3182C81.9432 744.5 82.4451 744.392 82.8239 744.176C83.2027 743.96 83.4773 743.669 83.6477 743.301C83.822 742.93 83.9091 742.511 83.9091 742.045C83.9091 741.58 83.822 741.163 83.6477 740.795C83.4773 740.428 83.2008 740.14 82.8182 739.932C82.4356 739.72 81.928 739.614 81.2955 739.614H78.8182V750H77.4091ZM88.7244 738.364V750H87.3835V738.364H88.7244ZM93.7486 750.205C93.1955 750.205 92.6937 750.1 92.2429 749.892C91.7921 749.68 91.4342 749.375 91.169 748.977C90.9039 748.576 90.7713 748.091 90.7713 747.523C90.7713 747.023 90.8698 746.617 91.0668 746.307C91.2637 745.992 91.527 745.746 91.8565 745.568C92.1861 745.39 92.5497 745.258 92.9474 745.17C93.349 745.08 93.7524 745.008 94.1577 744.955C94.688 744.886 95.1179 744.835 95.4474 744.801C95.7808 744.763 96.0232 744.701 96.1747 744.614C96.33 744.527 96.4077 744.375 96.4077 744.159V744.114C96.4077 743.553 96.2543 743.117 95.9474 742.807C95.6444 742.496 95.1842 742.341 94.5668 742.341C93.9266 742.341 93.4247 742.481 93.0611 742.761C92.6974 743.042 92.4418 743.341 92.294 743.659L91.0213 743.205C91.2486 742.674 91.5516 742.261 91.9304 741.966C92.313 741.667 92.7296 741.458 93.1804 741.341C93.6349 741.22 94.0819 741.159 94.5213 741.159C94.8016 741.159 95.1236 741.193 95.4872 741.261C95.8546 741.326 96.2088 741.46 96.5497 741.665C96.8944 741.869 97.1804 742.178 97.4077 742.591C97.6349 743.004 97.7486 743.557 97.7486 744.25V750H96.4077V748.818H96.3395C96.2486 749.008 96.0971 749.21 95.8849 749.426C95.6728 749.642 95.3906 749.826 95.0384 749.977C94.6861 750.129 94.2562 750.205 93.7486 750.205ZM93.9531 749C94.4834 749 94.9304 748.896 95.294 748.688C95.6615 748.479 95.938 748.21 96.1236 747.881C96.313 747.551 96.4077 747.205 96.4077 746.841V745.614C96.3509 745.682 96.2259 745.744 96.0327 745.801C95.8433 745.854 95.6236 745.902 95.3736 745.943C95.1274 745.981 94.8868 746.015 94.652 746.045C94.4209 746.072 94.2334 746.095 94.0895 746.114C93.741 746.159 93.4152 746.233 93.1122 746.335C92.813 746.434 92.5705 746.583 92.3849 746.784C92.2031 746.981 92.1122 747.25 92.1122 747.591C92.1122 748.057 92.2846 748.409 92.6293 748.648C92.9777 748.883 93.419 749 93.9531 749ZM103.741 750.182C102.923 750.182 102.219 749.989 101.628 749.602C101.037 749.216 100.582 748.684 100.264 748.006C99.946 747.328 99.7869 746.553 99.7869 745.682C99.7869 744.795 99.9498 744.013 100.276 743.335C100.605 742.653 101.063 742.121 101.651 741.739C102.241 741.352 102.931 741.159 103.719 741.159C104.332 741.159 104.885 741.273 105.378 741.5C105.87 741.727 106.274 742.045 106.588 742.455C106.902 742.864 107.098 743.341 107.173 743.886H105.832C105.73 743.489 105.503 743.136 105.151 742.83C104.802 742.519 104.332 742.364 103.741 742.364C103.219 742.364 102.76 742.5 102.366 742.773C101.976 743.042 101.671 743.422 101.452 743.915C101.236 744.403 101.128 744.977 101.128 745.636C101.128 746.311 101.234 746.898 101.446 747.398C101.662 747.898 101.965 748.286 102.355 748.562C102.749 748.839 103.211 748.977 103.741 748.977C104.09 748.977 104.406 748.917 104.69 748.795C104.974 748.674 105.215 748.5 105.412 748.273C105.609 748.045 105.749 747.773 105.832 747.455H107.173C107.098 747.97 106.91 748.434 106.611 748.847C106.315 749.256 105.923 749.581 105.435 749.824C104.95 750.062 104.385 750.182 103.741 750.182ZM112.793 750.182C111.952 750.182 111.226 749.996 110.616 749.625C110.01 749.25 109.543 748.727 109.213 748.057C108.887 747.383 108.724 746.598 108.724 745.705C108.724 744.811 108.887 744.023 109.213 743.341C109.543 742.655 110.001 742.121 110.588 741.739C111.179 741.352 111.868 741.159 112.656 741.159C113.111 741.159 113.56 741.235 114.003 741.386C114.446 741.538 114.849 741.784 115.213 742.125C115.577 742.462 115.866 742.909 116.082 743.466C116.298 744.023 116.406 744.708 116.406 745.523V746.091H109.679V744.932H115.043C115.043 744.439 114.944 744 114.747 743.614C114.554 743.227 114.277 742.922 113.918 742.699C113.562 742.475 113.141 742.364 112.656 742.364C112.122 742.364 111.66 742.496 111.27 742.761C110.884 743.023 110.586 743.364 110.378 743.784C110.17 744.205 110.065 744.655 110.065 745.136V745.909C110.065 746.568 110.179 747.127 110.406 747.585C110.637 748.04 110.957 748.386 111.366 748.625C111.776 748.86 112.251 748.977 112.793 748.977C113.145 748.977 113.463 748.928 113.747 748.83C114.035 748.727 114.283 748.576 114.491 748.375C114.7 748.17 114.861 747.917 114.974 747.614L116.27 747.977C116.134 748.417 115.904 748.803 115.582 749.136C115.26 749.466 114.863 749.723 114.389 749.909C113.916 750.091 113.384 750.182 112.793 750.182ZM119.787 744.75V750H118.446V738.364H119.787V742.636H119.901C120.105 742.186 120.412 741.828 120.821 741.562C121.234 741.294 121.783 741.159 122.469 741.159C123.063 741.159 123.584 741.278 124.031 741.517C124.478 741.752 124.825 742.114 125.071 742.602C125.321 743.087 125.446 743.705 125.446 744.455V750H124.105V744.545C124.105 743.852 123.925 743.316 123.565 742.938C123.209 742.555 122.715 742.364 122.082 742.364C121.643 742.364 121.249 742.456 120.901 742.642C120.556 742.828 120.283 743.098 120.082 743.455C119.885 743.811 119.787 744.242 119.787 744.75ZM131.445 750.182C130.657 750.182 129.965 749.994 129.371 749.619C128.78 749.244 128.318 748.72 127.984 748.045C127.655 747.371 127.49 746.583 127.49 745.682C127.49 744.773 127.655 743.979 127.984 743.301C128.318 742.623 128.78 742.097 129.371 741.722C129.965 741.347 130.657 741.159 131.445 741.159C132.232 741.159 132.922 741.347 133.513 741.722C134.107 742.097 134.57 742.623 134.899 743.301C135.232 743.979 135.399 744.773 135.399 745.682C135.399 746.583 135.232 747.371 134.899 748.045C134.57 748.72 134.107 749.244 133.513 749.619C132.922 749.994 132.232 750.182 131.445 750.182ZM131.445 748.977C132.043 748.977 132.536 748.824 132.922 748.517C133.308 748.21 133.594 747.807 133.78 747.307C133.965 746.807 134.058 746.265 134.058 745.682C134.058 745.098 133.965 744.555 133.78 744.051C133.594 743.547 133.308 743.14 132.922 742.83C132.536 742.519 132.043 742.364 131.445 742.364C130.846 742.364 130.354 742.519 129.967 742.83C129.581 743.14 129.295 743.547 129.109 744.051C128.924 744.555 128.831 745.098 128.831 745.682C128.831 746.265 128.924 746.807 129.109 747.307C129.295 747.807 129.581 748.21 129.967 748.517C130.354 748.824 130.846 748.977 131.445 748.977ZM138.787 738.364V750H137.446V738.364H138.787ZM144.538 750.182C143.811 750.182 143.169 749.998 142.612 749.631C142.055 749.259 141.62 748.737 141.305 748.062C140.991 747.384 140.834 746.583 140.834 745.659C140.834 744.742 140.991 743.947 141.305 743.273C141.62 742.598 142.057 742.078 142.618 741.71C143.179 741.343 143.826 741.159 144.561 741.159C145.129 741.159 145.578 741.254 145.908 741.443C146.241 741.629 146.495 741.841 146.669 742.08C146.847 742.314 146.985 742.508 147.084 742.659H147.197V738.364H148.538V750H147.243V748.659H147.084C146.985 748.818 146.845 749.019 146.663 749.261C146.482 749.5 146.222 749.714 145.885 749.903C145.548 750.089 145.099 750.182 144.538 750.182ZM144.72 748.977C145.258 748.977 145.713 748.837 146.084 748.557C146.455 748.273 146.737 747.881 146.93 747.381C147.124 746.877 147.22 746.295 147.22 745.636C147.22 744.985 147.125 744.415 146.936 743.926C146.747 743.434 146.466 743.051 146.095 742.778C145.724 742.502 145.266 742.364 144.72 742.364C144.152 742.364 143.679 742.509 143.3 742.801C142.925 743.089 142.643 743.481 142.453 743.977C142.268 744.47 142.175 745.023 142.175 745.636C142.175 746.258 142.269 746.822 142.459 747.33C142.652 747.833 142.936 748.235 143.311 748.534C143.69 748.83 144.16 748.977 144.72 748.977ZM154.839 750.182C153.999 750.182 153.273 749.996 152.663 749.625C152.057 749.25 151.589 748.727 151.26 748.057C150.934 747.383 150.771 746.598 150.771 745.705C150.771 744.811 150.934 744.023 151.26 743.341C151.589 742.655 152.048 742.121 152.635 741.739C153.226 741.352 153.915 741.159 154.703 741.159C155.158 741.159 155.607 741.235 156.05 741.386C156.493 741.538 156.896 741.784 157.26 742.125C157.624 742.462 157.913 742.909 158.129 743.466C158.345 744.023 158.453 744.708 158.453 745.523V746.091H151.726V744.932H157.089C157.089 744.439 156.991 744 156.794 743.614C156.601 743.227 156.324 742.922 155.964 742.699C155.608 742.475 155.188 742.364 154.703 742.364C154.169 742.364 153.707 742.496 153.317 742.761C152.93 743.023 152.633 743.364 152.425 743.784C152.216 744.205 152.112 744.655 152.112 745.136V745.909C152.112 746.568 152.226 747.127 152.453 747.585C152.684 748.04 153.004 748.386 153.413 748.625C153.822 748.86 154.298 748.977 154.839 748.977C155.192 748.977 155.51 748.928 155.794 748.83C156.082 748.727 156.33 748.576 156.538 748.375C156.747 748.17 156.908 747.917 157.021 747.614L158.317 747.977C158.18 748.417 157.951 748.803 157.629 749.136C157.307 749.466 156.91 749.723 156.436 749.909C155.963 750.091 155.43 750.182 154.839 750.182ZM160.493 750V741.273H161.788V742.591H161.879C162.038 742.159 162.326 741.809 162.743 741.54C163.16 741.271 163.629 741.136 164.152 741.136C164.25 741.136 164.374 741.138 164.521 741.142C164.669 741.146 164.781 741.152 164.857 741.159V742.523C164.811 742.511 164.707 742.494 164.544 742.472C164.385 742.445 164.216 742.432 164.038 742.432C163.614 742.432 163.235 742.521 162.902 742.699C162.572 742.873 162.311 743.116 162.118 743.426C161.929 743.733 161.834 744.083 161.834 744.477V750H160.493Z" fill="#E3E4E8"/>
<path d="M61.0568 716V707.273H62.1136V715.062H66.1705V716H61.0568ZM69.5966 716.153C69.1818 716.153 68.8054 716.075 68.4673 715.919C68.1293 715.76 67.8608 715.531 67.6619 715.233C67.4631 714.932 67.3636 714.568 67.3636 714.142C67.3636 713.767 67.4375 713.463 67.5852 713.23C67.733 712.994 67.9304 712.81 68.1776 712.676C68.4247 712.543 68.6974 712.443 68.9957 712.378C69.2969 712.31 69.5994 712.256 69.9034 712.216C70.3011 712.165 70.6236 712.126 70.8707 712.101C71.1207 712.072 71.3026 712.026 71.4162 711.96C71.5327 711.895 71.5909 711.781 71.5909 711.619V711.585C71.5909 711.165 71.4759 710.838 71.2457 710.605C71.0185 710.372 70.6733 710.256 70.2102 710.256C69.7301 710.256 69.3537 710.361 69.081 710.571C68.8082 710.781 68.6165 711.006 68.5057 711.244L67.5511 710.903C67.7216 710.506 67.9489 710.196 68.233 709.974C68.5199 709.75 68.8324 709.594 69.1705 709.506C69.5114 709.415 69.8466 709.369 70.1761 709.369C70.3864 709.369 70.6278 709.395 70.9006 709.446C71.1761 709.494 71.4418 709.595 71.6974 709.749C71.956 709.902 72.1705 710.134 72.3409 710.443C72.5114 710.753 72.5966 711.168 72.5966 711.688V716H71.5909V715.114H71.5398C71.4716 715.256 71.358 715.408 71.1989 715.57C71.0398 715.732 70.8281 715.869 70.5639 715.983C70.2997 716.097 69.9773 716.153 69.5966 716.153ZM69.75 715.25C70.1477 715.25 70.483 715.172 70.7557 715.016C71.0313 714.859 71.2386 714.658 71.3778 714.411C71.5199 714.163 71.5909 713.903 71.5909 713.631V712.71C71.5483 712.761 71.4545 712.808 71.3097 712.851C71.1676 712.891 71.0028 712.926 70.8153 712.957C70.6307 712.986 70.4503 713.011 70.2741 713.034C70.1009 713.054 69.9602 713.071 69.8523 713.085C69.5909 713.119 69.3466 713.175 69.1193 713.251C68.8949 713.325 68.7131 713.437 68.5739 713.588C68.4375 713.736 68.3693 713.937 68.3693 714.193C68.3693 714.543 68.4986 714.807 68.7571 714.986C69.0185 715.162 69.3494 715.25 69.75 715.25ZM74.5685 716V707.273H75.5742V710.494H75.6594C75.7333 710.381 75.8356 710.236 75.9663 710.06C76.0998 709.881 76.2901 709.722 76.5373 709.582C76.7873 709.44 77.1254 709.369 77.5515 709.369C78.1026 709.369 78.5884 709.507 79.0089 709.783C79.4293 710.058 79.7575 710.449 79.9933 710.955C80.229 711.46 80.3469 712.057 80.3469 712.744C80.3469 713.438 80.229 714.038 79.9933 714.547C79.7575 715.053 79.4308 715.445 79.0131 715.723C78.5955 715.999 78.114 716.136 77.5685 716.136C77.1481 716.136 76.8114 716.067 76.5586 715.928C76.3058 715.786 76.1112 715.625 75.9748 715.446C75.8384 715.264 75.7333 715.114 75.6594 714.994H75.5401V716H74.5685ZM75.5572 712.727C75.5572 713.222 75.6296 713.658 75.7745 714.036C75.9194 714.411 76.131 714.705 76.4094 714.918C76.6879 715.128 77.0288 715.233 77.4322 715.233C77.8526 715.233 78.2035 715.122 78.4847 714.901C78.7688 714.676 78.9819 714.375 79.1239 713.997C79.2688 713.616 79.3413 713.193 79.3413 712.727C79.3413 712.267 79.2702 711.852 79.1282 711.483C78.989 711.111 78.7773 710.817 78.4933 710.601C78.212 710.382 77.8583 710.273 77.4322 710.273C77.0231 710.273 76.6793 710.376 76.4009 710.584C76.1225 710.788 75.9123 711.075 75.7702 711.445C75.6282 711.811 75.5572 712.239 75.5572 712.727ZM84.6296 716.136C83.9989 716.136 83.4549 715.997 82.9975 715.719C82.543 715.438 82.1921 715.045 81.945 714.543C81.7006 714.037 81.5785 713.449 81.5785 712.778C81.5785 712.108 81.7006 711.517 81.945 711.006C82.1921 710.491 82.5359 710.091 82.9762 709.804C83.4194 709.514 83.9364 709.369 84.5273 709.369C84.8683 709.369 85.2049 709.426 85.5373 709.54C85.8697 709.653 86.1722 709.838 86.445 710.094C86.7177 710.347 86.935 710.682 87.0969 711.099C87.2589 711.517 87.3398 712.031 87.3398 712.642V713.068H82.2944V712.199H86.3171C86.3171 711.83 86.2433 711.5 86.0955 711.21C85.9506 710.92 85.7433 710.692 85.4734 710.524C85.2063 710.357 84.891 710.273 84.5273 710.273C84.1268 710.273 83.7802 710.372 83.4876 710.571C83.1978 710.767 82.9748 711.023 82.8185 711.338C82.6623 711.653 82.5842 711.991 82.5842 712.352V712.932C82.5842 713.426 82.6694 713.845 82.8398 714.189C83.0131 714.53 83.2532 714.79 83.56 714.969C83.8668 715.145 84.2234 715.233 84.6296 715.233C84.8938 715.233 85.1325 715.196 85.3455 715.122C85.5614 715.045 85.7475 714.932 85.9038 714.781C86.06 714.628 86.1808 714.437 86.266 714.21L87.2376 714.483C87.1353 714.812 86.9634 715.102 86.7219 715.352C86.4805 715.599 86.1822 715.793 85.8271 715.932C85.4719 716.068 85.0728 716.136 84.6296 716.136ZM89.8754 707.273V716H88.8697V707.273H89.8754Z" fill="#7580AE"/>
<g clip-path="url(#clip11_119_242)">
<path d="M335 800L336 799" stroke="#E3E4E8"/>
<path d="M332 800L336 796" stroke="#E3E4E8"/>
<path d="M328 800L336 792" stroke="#E3E4E8"/>
</g>
</g>
<path d="M42.196 50.2955V47.9091H63.2898V50.2955H54.071V77H51.4148V50.2955H42.196ZM74.4013 77.4545C72.3653 77.4545 70.6039 76.9811 69.1172 76.0341C67.6304 75.0777 66.4799 73.7566 65.6655 72.071C64.8606 70.3759 64.4581 68.4252 64.4581 66.2188C64.4581 64.0218 64.8606 62.071 65.6655 60.3665C66.4799 58.6525 67.602 57.3125 69.032 56.3466C70.4714 55.3712 72.1333 54.8835 74.0178 54.8835C75.2015 54.8835 76.3426 55.1013 77.4411 55.5369C78.5395 55.9631 79.5244 56.6212 80.3956 57.5114C81.2763 58.392 81.9723 59.5047 82.4837 60.8494C82.995 62.1847 83.2507 63.7661 83.2507 65.5938V66.8438H66.2053V64.6136H80.6655C80.6655 63.2121 80.3814 61.9527 79.8132 60.8352C79.2545 59.7083 78.4732 58.8182 77.4695 58.1648C76.4751 57.5114 75.3246 57.1847 74.0178 57.1847C72.6352 57.1847 71.4183 57.554 70.3672 58.2926C69.3161 59.0312 68.4922 60.0066 67.8956 61.2188C67.3085 62.4309 67.0102 63.7566 67.0007 65.196V66.5312C67.0007 68.2642 67.299 69.7794 67.8956 71.0767C68.5017 72.3646 69.3587 73.3636 70.4666 74.0739C71.5746 74.7841 72.8861 75.1392 74.4013 75.1392C75.4335 75.1392 76.3378 74.9782 77.1143 74.6562C77.9003 74.3343 78.5585 73.9034 79.0888 73.3636C79.6286 72.8144 80.0357 72.2131 80.3104 71.5597L82.7109 72.3409C82.3795 73.2595 81.835 74.107 81.0774 74.8835C80.3293 75.66 79.3918 76.285 78.2649 76.7585C77.1475 77.2225 75.8596 77.4545 74.4013 77.4545ZM89.799 55.1818L95.424 64.4858L101.049 55.1818H103.989L96.9723 66.0909L103.989 77H101.049L95.424 67.9943L89.799 77H86.8729L93.8047 66.0909L86.8729 55.1818H89.799ZM117.885 55.1818V57.3835H107.473V55.1818H117.885ZM110.726 49.9545H113.268V71.304C113.268 72.2131 113.425 72.928 113.737 73.4489C114.05 73.9602 114.457 74.3248 114.959 74.5426C115.461 74.7509 115.996 74.8551 116.564 74.8551C116.895 74.8551 117.179 74.8362 117.416 74.7983C117.653 74.7509 117.861 74.7036 118.041 74.6562L118.581 76.9432C118.335 77.0379 118.032 77.1231 117.672 77.1989C117.312 77.2841 116.867 77.3267 116.337 77.3267C115.409 77.3267 114.514 77.1231 113.652 76.7159C112.8 76.3087 112.099 75.7027 111.55 74.8977C111 74.0928 110.726 73.0938 110.726 71.9006V49.9545ZM140.971 77.4972C139.655 77.4972 138.452 77.2415 137.363 76.7301C136.274 76.2093 135.407 75.4612 134.763 74.4858C134.12 73.5009 133.798 72.3078 133.798 70.9062C133.798 69.8267 134.001 68.9176 134.408 68.179C134.816 67.4403 135.393 66.8343 136.141 66.3608C136.889 65.8873 137.775 65.5133 138.798 65.2386C139.82 64.964 140.947 64.7509 142.178 64.5994C143.4 64.4479 144.432 64.3153 145.275 64.2017C146.127 64.0881 146.776 63.9081 147.221 63.6619C147.666 63.4157 147.888 63.018 147.888 62.4688V61.9574C147.888 60.4706 147.443 59.3011 146.553 58.4489C145.673 57.5871 144.404 57.1562 142.746 57.1562C141.174 57.1562 139.891 57.5019 138.897 58.1932C137.912 58.8845 137.221 59.6989 136.823 60.6364L134.423 59.7699C134.915 58.5767 135.597 57.625 136.468 56.9148C137.339 56.1951 138.315 55.679 139.394 55.3665C140.474 55.0445 141.567 54.8835 142.675 54.8835C143.509 54.8835 144.375 54.9924 145.275 55.2102C146.184 55.428 147.027 55.8068 147.803 56.3466C148.58 56.8769 149.21 57.6203 149.692 58.5767C150.175 59.5237 150.417 60.7263 150.417 62.1847V77H147.888V73.5483H147.732C147.429 74.1922 146.979 74.8172 146.383 75.4233C145.786 76.0294 145.038 76.5265 144.138 76.9148C143.239 77.303 142.183 77.4972 140.971 77.4972ZM141.312 75.1818C142.656 75.1818 143.821 74.8835 144.806 74.2869C145.791 73.6903 146.549 72.8996 147.079 71.9148C147.619 70.9205 147.888 69.8267 147.888 68.6335V65.4801C147.699 65.66 147.382 65.821 146.937 65.9631C146.501 66.1051 145.995 66.233 145.417 66.3466C144.849 66.4508 144.281 66.5407 143.712 66.6165C143.144 66.6922 142.633 66.7585 142.178 66.8153C140.947 66.9669 139.896 67.2036 139.025 67.5256C138.154 67.8475 137.486 68.2926 137.022 68.8608C136.558 69.4195 136.326 70.1392 136.326 71.0199C136.326 72.3456 136.799 73.3731 137.746 74.1023C138.693 74.822 139.882 75.1818 141.312 75.1818ZM157.143 77V55.1818H159.6V58.5341H159.785C160.22 57.4356 160.978 56.5502 162.058 55.8778C163.147 55.196 164.378 54.8551 165.751 54.8551C165.959 54.8551 166.191 54.8598 166.447 54.8693C166.702 54.8788 166.915 54.8883 167.086 54.8977V57.4688C166.972 57.4498 166.773 57.4214 166.489 57.3835C166.205 57.3456 165.897 57.3267 165.566 57.3267C164.43 57.3267 163.416 57.5682 162.526 58.0511C161.646 58.5246 160.95 59.1828 160.438 60.0256C159.927 60.8684 159.671 61.8295 159.671 62.9091V77H157.143ZM179.558 77.4545C177.522 77.4545 175.76 76.9811 174.273 76.0341C172.787 75.0777 171.636 73.7566 170.822 72.071C170.017 70.3759 169.614 68.4252 169.614 66.2188C169.614 64.0218 170.017 62.071 170.822 60.3665C171.636 58.6525 172.758 57.3125 174.188 56.3466C175.628 55.3712 177.29 54.8835 179.174 54.8835C180.358 54.8835 181.499 55.1013 182.597 55.5369C183.696 55.9631 184.681 56.6212 185.552 57.5114C186.433 58.392 187.129 59.5047 187.64 60.8494C188.151 62.1847 188.407 63.7661 188.407 65.5938V66.8438H171.362V64.6136H185.822C185.822 63.2121 185.538 61.9527 184.969 60.8352C184.411 59.7083 183.629 58.8182 182.626 58.1648C181.631 57.5114 180.481 57.1847 179.174 57.1847C177.791 57.1847 176.575 57.554 175.523 58.2926C174.472 59.0312 173.648 60.0066 173.052 61.2188C172.465 62.4309 172.166 63.7566 172.157 65.196V66.5312C172.157 68.2642 172.455 69.7794 173.052 71.0767C173.658 72.3646 174.515 73.3636 175.623 74.0739C176.731 74.7841 178.042 75.1392 179.558 75.1392C180.59 75.1392 181.494 74.9782 182.271 74.6562C183.057 74.3343 183.715 73.9034 184.245 73.3636C184.785 72.8144 185.192 72.2131 185.467 71.5597L187.867 72.3409C187.536 73.2595 186.991 74.107 186.234 74.8835C185.486 75.66 184.548 76.285 183.421 76.7585C182.304 77.2225 181.016 77.4545 179.558 77.4545ZM200.072 77.4972C198.756 77.4972 197.554 77.2415 196.464 76.7301C195.375 76.2093 194.509 75.4612 193.865 74.4858C193.221 73.5009 192.899 72.3078 192.899 70.9062C192.899 69.8267 193.103 68.9176 193.51 68.179C193.917 67.4403 194.495 66.8343 195.243 66.3608C195.991 65.8873 196.876 65.5133 197.899 65.2386C198.922 64.964 200.049 64.7509 201.28 64.5994C202.501 64.4479 203.534 64.3153 204.376 64.2017C205.229 64.0881 205.877 63.9081 206.322 63.6619C206.768 63.4157 206.99 63.018 206.99 62.4688V61.9574C206.99 60.4706 206.545 59.3011 205.655 58.4489C204.774 57.5871 203.505 57.1562 201.848 57.1562C200.276 57.1562 198.993 57.5019 197.999 58.1932C197.014 58.8845 196.322 59.6989 195.925 60.6364L193.524 59.7699C194.017 58.5767 194.698 57.625 195.57 56.9148C196.441 56.1951 197.416 55.679 198.496 55.3665C199.575 55.0445 200.669 54.8835 201.777 54.8835C202.61 54.8835 203.477 54.9924 204.376 55.2102C205.286 55.428 206.128 55.8068 206.905 56.3466C207.681 56.8769 208.311 57.6203 208.794 58.5767C209.277 59.5237 209.518 60.7263 209.518 62.1847V77H206.99V73.5483H206.834C206.531 74.1922 206.081 74.8172 205.484 75.4233C204.888 76.0294 204.14 76.5265 203.24 76.9148C202.34 77.303 201.285 77.4972 200.072 77.4972ZM200.413 75.1818C201.758 75.1818 202.923 74.8835 203.908 74.2869C204.893 73.6903 205.65 72.8996 206.18 71.9148C206.72 70.9205 206.99 69.8267 206.99 68.6335V65.4801C206.801 65.66 206.483 65.821 206.038 65.9631C205.603 66.1051 205.096 66.233 204.518 66.3466C203.95 66.4508 203.382 66.5407 202.814 66.6165C202.246 66.6922 201.734 66.7585 201.28 66.8153C200.049 66.9669 198.998 67.2036 198.126 67.5256C197.255 67.8475 196.588 68.2926 196.124 68.8608C195.66 69.4195 195.428 70.1392 195.428 71.0199C195.428 72.3456 195.901 73.3731 196.848 74.1023C197.795 74.822 198.983 75.1818 200.413 75.1818Z" fill="#C4C8DC"/>
<defs>
<clipPath id="clip0_119_242">
<rect width="280" height="100" fill="white" transform="translate(60 284)"/>
</clipPath>
<clipPath id="clip1_119_242">
<rect width="8" height="8" fill="white" transform="translate(328 372)"/>
</clipPath>
<clipPath id="clip2_119_242">
<rect width="280" height="100" fill="white" transform="translate(60 424)"/>
</clipPath>
<clipPath id="clip3_119_242">
<rect width="8" height="8" fill="white" transform="translate(328 512)"/>
</clipPath>
<clipPath id="clip4_119_242">
<rect width="280" height="100" fill="white" transform="translate(60 564)"/>
</clipPath>
<clipPath id="clip5_119_242">
<rect width="8" height="8" fill="white" transform="translate(328 652)"/>
</clipPath>
<clipPath id="clip6_119_242">
<rect width="280" height="100" fill="white" transform="translate(60 844)"/>
</clipPath>
<clipPath id="clip7_119_242">
<rect width="8" height="8" fill="white" transform="translate(328 932)"/>
</clipPath>
<clipPath id="clip8_119_242">
<rect width="280" height="100" fill="white" transform="translate(60 144)"/>
</clipPath>
<clipPath id="clip9_119_242">
<rect width="8" height="8" fill="white" transform="translate(328 232)"/>
</clipPath>
<clipPath id="clip10_119_242">
<rect width="280" height="100" fill="white" transform="translate(60 704)"/>
</clipPath>
<clipPath id="clip11_119_242">
<rect width="8" height="8" fill="white" transform="translate(328 792)"/>
</clipPath>
</defs>
</svg>
