<svg width="246" height="360" viewBox="0 0 246 360" fill="none" xmlns="http://www.w3.org/2000/svg">
<rect width="246" height="360" rx="16" fill="white"/>
<rect x="40.5" y="124.5" width="165" height="195" rx="4.5" stroke="#9747FF" stroke-dasharray="10 5"/>
<path d="M60 146C60 144.895 60.8954 144 62 144H180C184.418 144 188 147.582 188 152V160C188 164.418 184.418 168 180 168H68C63.5817 168 60 164.418 60 160V146Z" fill="#73768C"/>
<path d="M68.483 153.509V152.727H73.9375V153.509H71.6506V160H70.7699V153.509H68.483ZM76.608 160.114C76.1155 160.114 75.6835 159.996 75.3118 159.762C74.9425 159.528 74.6536 159.2 74.4453 158.778C74.2393 158.357 74.1364 157.865 74.1364 157.301C74.1364 156.733 74.2393 156.237 74.4453 155.813C74.6536 155.389 74.9425 155.06 75.3118 154.826C75.6835 154.592 76.1155 154.474 76.608 154.474C77.1004 154.474 77.5313 154.592 77.9006 154.826C78.2723 155.06 78.5611 155.389 78.767 155.813C78.9754 156.237 79.0795 156.733 79.0795 157.301C79.0795 157.865 78.9754 158.357 78.767 158.778C78.5611 159.2 78.2723 159.528 77.9006 159.762C77.5313 159.996 77.1004 160.114 76.608 160.114ZM76.608 159.361C76.982 159.361 77.2898 159.265 77.5312 159.073C77.7727 158.881 77.9515 158.629 78.0675 158.317C78.1835 158.004 78.2415 157.666 78.2415 157.301C78.2415 156.937 78.1835 156.597 78.0675 156.282C77.9515 155.967 77.7727 155.713 77.5312 155.518C77.2898 155.324 76.982 155.227 76.608 155.227C76.2339 155.227 75.9261 155.324 75.6847 155.518C75.4432 155.713 75.2644 155.967 75.1484 156.282C75.0324 156.597 74.9744 156.937 74.9744 157.301C74.9744 157.666 75.0324 158.004 75.1484 158.317C75.2644 158.629 75.4432 158.881 75.6847 159.073C75.9261 159.265 76.2339 159.361 76.608 159.361ZM82.5748 160.114C82.0823 160.114 81.6503 159.996 81.2786 159.762C80.9093 159.528 80.6204 159.2 80.4121 158.778C80.2061 158.357 80.1032 157.865 80.1032 157.301C80.1032 156.733 80.2061 156.237 80.4121 155.813C80.6204 155.389 80.9093 155.06 81.2786 154.826C81.6503 154.592 82.0823 154.474 82.5748 154.474C83.0672 154.474 83.498 154.592 83.8674 154.826C84.2391 155.06 84.5279 155.389 84.7338 155.813C84.9422 156.237 85.0463 156.733 85.0463 157.301C85.0463 157.865 84.9422 158.357 84.7338 158.778C84.5279 159.2 84.2391 159.528 83.8674 159.762C83.498 159.996 83.0672 160.114 82.5748 160.114ZM82.5748 159.361C82.9488 159.361 83.2566 159.265 83.498 159.073C83.7395 158.881 83.9183 158.629 84.0343 158.317C84.1503 158.004 84.2083 157.666 84.2083 157.301C84.2083 156.937 84.1503 156.597 84.0343 156.282C83.9183 155.967 83.7395 155.713 83.498 155.518C83.2566 155.324 82.9488 155.227 82.5748 155.227C82.2007 155.227 81.8929 155.324 81.6515 155.518C81.41 155.713 81.2312 155.967 81.1152 156.282C80.9992 156.597 80.9412 156.937 80.9412 157.301C80.9412 157.666 80.9992 158.004 81.1152 158.317C81.2312 158.629 81.41 158.881 81.6515 159.073C81.8929 159.265 82.2007 159.361 82.5748 159.361ZM87.1637 152.727V160H86.3256V152.727H87.1637ZM91.0708 154.545V155.256H88.2441V154.545H91.0708ZM89.068 153.239H89.9061V158.438C89.9061 158.674 89.9404 158.852 90.0091 158.97C90.0801 159.086 90.17 159.164 90.2789 159.205C90.3902 159.242 90.5074 159.261 90.6305 159.261C90.7228 159.261 90.7986 159.257 90.8578 159.247C90.917 159.235 90.9643 159.226 90.9998 159.219L91.1703 159.972C91.1135 159.993 91.0342 160.014 90.9324 160.036C90.8306 160.059 90.7015 160.071 90.5453 160.071C90.3085 160.071 90.0765 160.02 89.8493 159.918C89.6243 159.817 89.4373 159.661 89.2882 159.453C89.1414 159.245 89.068 158.982 89.068 158.665V153.239ZM92.3315 160V154.545H93.1696V160H92.3315ZM92.7576 153.636C92.5943 153.636 92.4534 153.581 92.335 153.469C92.219 153.358 92.161 153.224 92.161 153.068C92.161 152.912 92.219 152.778 92.335 152.667C92.4534 152.556 92.5943 152.5 92.7576 152.5C92.921 152.5 93.0607 152.556 93.1767 152.667C93.295 152.778 93.3542 152.912 93.3542 153.068C93.3542 153.224 93.295 153.358 93.1767 153.469C93.0607 153.581 92.921 153.636 92.7576 153.636ZM94.7045 162.045V154.545H95.5142V155.412H95.6136C95.6752 155.317 95.7604 155.196 95.8693 155.05C95.9806 154.901 96.1392 154.768 96.3452 154.652C96.5535 154.534 96.8352 154.474 97.1903 154.474C97.6496 154.474 98.0545 154.589 98.4048 154.819C98.7552 155.049 99.0286 155.374 99.2251 155.795C99.4216 156.217 99.5199 156.714 99.5199 157.287C99.5199 157.865 99.4216 158.365 99.2251 158.789C99.0286 159.21 98.7564 159.537 98.4084 159.769C98.0604 159.999 97.6591 160.114 97.2045 160.114C96.8542 160.114 96.5736 160.056 96.3629 159.94C96.1522 159.821 95.9901 159.687 95.8764 159.538C95.7628 159.387 95.6752 159.261 95.6136 159.162H95.5426V162.045H94.7045ZM95.5284 157.273C95.5284 157.685 95.5888 158.048 95.7095 158.363C95.8303 158.675 96.0066 158.92 96.2386 159.098C96.4706 159.273 96.7547 159.361 97.0909 159.361C97.4413 159.361 97.7337 159.268 97.968 159.084C98.2048 158.897 98.3823 158.646 98.5007 158.331C98.6214 158.014 98.6818 157.661 98.6818 157.273C98.6818 156.889 98.6226 156.544 98.5043 156.236C98.3883 155.926 98.2119 155.681 97.9751 155.501C97.7408 155.318 97.446 155.227 97.0909 155.227C96.75 155.227 96.4635 155.314 96.2315 155.487C95.9995 155.657 95.8243 155.896 95.706 156.204C95.5876 156.509 95.5284 156.866 95.5284 157.273ZM105.983 154.545V155.256H103.156V154.545H105.983ZM103.98 153.239H104.818V158.438C104.818 158.674 104.853 158.852 104.921 158.97C104.992 159.086 105.082 159.164 105.191 159.205C105.302 159.242 105.42 159.261 105.543 159.261C105.635 159.261 105.711 159.257 105.77 159.247C105.829 159.235 105.876 159.226 105.912 159.219L106.082 159.972C106.026 159.993 105.946 160.014 105.844 160.036C105.743 160.059 105.614 160.071 105.457 160.071C105.221 160.071 104.989 160.02 104.761 159.918C104.536 159.817 104.349 159.661 104.2 159.453C104.054 159.245 103.98 158.982 103.98 158.665V153.239ZM109.472 160.114C108.946 160.114 108.493 159.998 108.112 159.766C107.733 159.531 107.441 159.205 107.235 158.786C107.031 158.364 106.929 157.874 106.929 157.315C106.929 156.757 107.031 156.264 107.235 155.838C107.441 155.41 107.727 155.076 108.094 154.837C108.463 154.595 108.894 154.474 109.387 154.474C109.671 154.474 109.951 154.522 110.228 154.616C110.505 154.711 110.757 154.865 110.985 155.078C111.212 155.289 111.393 155.568 111.528 155.916C111.663 156.264 111.73 156.693 111.73 157.202V157.557H107.526V156.832H110.878C110.878 156.525 110.817 156.25 110.694 156.009C110.573 155.767 110.4 155.576 110.175 155.437C109.953 155.297 109.69 155.227 109.387 155.227C109.053 155.227 108.764 155.31 108.52 155.476C108.279 155.639 108.093 155.852 107.963 156.115C107.833 156.378 107.767 156.66 107.767 156.96V157.443C107.767 157.855 107.838 158.204 107.98 158.491C108.125 158.775 108.325 158.991 108.581 159.141C108.836 159.287 109.133 159.361 109.472 159.361C109.692 159.361 109.891 159.33 110.069 159.268C110.248 159.205 110.404 159.11 110.534 158.984C110.664 158.857 110.765 158.698 110.836 158.509L111.645 158.736C111.56 159.01 111.417 159.252 111.216 159.46C111.014 159.666 110.766 159.827 110.47 159.943C110.174 160.057 109.841 160.114 109.472 160.114ZM113.484 154.545L114.791 156.776L116.097 154.545H117.063L115.302 157.273L117.063 160H116.097L114.791 157.884L113.484 160H112.518L114.251 157.273L112.518 154.545H113.484ZM120.631 154.545V155.256H117.805V154.545H120.631ZM118.629 153.239H119.467V158.438C119.467 158.674 119.501 158.852 119.57 158.97C119.641 159.086 119.731 159.164 119.839 159.205C119.951 159.242 120.068 159.261 120.191 159.261C120.283 159.261 120.359 159.257 120.418 159.247C120.478 159.235 120.525 159.226 120.56 159.219L120.731 159.972C120.674 159.993 120.595 160.014 120.493 160.036C120.391 160.059 120.262 160.071 120.106 160.071C119.869 160.071 119.637 160.02 119.41 159.918C119.185 159.817 118.998 159.661 118.849 159.453C118.702 159.245 118.629 158.982 118.629 158.665V153.239ZM127.134 154.545V155.256H124.193V154.545H127.134ZM125.074 160V153.793C125.074 153.48 125.147 153.22 125.294 153.011C125.441 152.803 125.631 152.647 125.866 152.543C126.1 152.438 126.348 152.386 126.608 152.386C126.814 152.386 126.982 152.403 127.112 152.436C127.242 152.469 127.339 152.5 127.403 152.528L127.162 153.253C127.119 153.239 127.06 153.221 126.984 153.2C126.911 153.178 126.814 153.168 126.693 153.168C126.416 153.168 126.216 153.237 126.093 153.377C125.972 153.517 125.912 153.722 125.912 153.991V160H125.074ZM130.299 160.114C129.807 160.114 129.375 159.996 129.003 159.762C128.634 159.528 128.345 159.2 128.137 158.778C127.931 158.357 127.828 157.865 127.828 157.301C127.828 156.733 127.931 156.237 128.137 155.813C128.345 155.389 128.634 155.06 129.003 154.826C129.375 154.592 129.807 154.474 130.299 154.474C130.792 154.474 131.223 154.592 131.592 154.826C131.964 155.06 132.252 155.389 132.458 155.813C132.667 156.237 132.771 156.733 132.771 157.301C132.771 157.865 132.667 158.357 132.458 158.778C132.252 159.2 131.964 159.528 131.592 159.762C131.223 159.996 130.792 160.114 130.299 160.114ZM130.299 159.361C130.673 159.361 130.981 159.265 131.223 159.073C131.464 158.881 131.643 158.629 131.759 158.317C131.875 158.004 131.933 157.666 131.933 157.301C131.933 156.937 131.875 156.597 131.759 156.282C131.643 155.967 131.464 155.713 131.223 155.518C130.981 155.324 130.673 155.227 130.299 155.227C129.925 155.227 129.618 155.324 129.376 155.518C129.135 155.713 128.956 155.967 128.84 156.282C128.724 156.597 128.666 156.937 128.666 157.301C128.666 157.666 128.724 158.004 128.84 158.317C128.956 158.629 129.135 158.881 129.376 159.073C129.618 159.265 129.925 159.361 130.299 159.361ZM134.05 160V154.545H134.86V155.369H134.917C135.016 155.099 135.196 154.88 135.456 154.712C135.717 154.544 136.01 154.46 136.337 154.46C136.399 154.46 136.476 154.461 136.568 154.464C136.66 154.466 136.73 154.47 136.778 154.474V155.327C136.749 155.32 136.684 155.309 136.582 155.295C136.483 155.278 136.377 155.27 136.266 155.27C136.001 155.27 135.764 155.326 135.556 155.437C135.35 155.546 135.187 155.697 135.066 155.891C134.948 156.083 134.888 156.302 134.888 156.548V160H134.05ZM142.87 160.114C142.345 160.114 141.891 159.998 141.51 159.766C141.132 159.531 140.839 159.205 140.633 158.786C140.43 158.364 140.328 157.874 140.328 157.315C140.328 156.757 140.43 156.264 140.633 155.838C140.839 155.41 141.126 155.076 141.493 154.837C141.862 154.595 142.293 154.474 142.785 154.474C143.069 154.474 143.35 154.522 143.627 154.616C143.904 154.711 144.156 154.865 144.383 155.078C144.61 155.289 144.792 155.568 144.926 155.916C145.061 156.264 145.129 156.693 145.129 157.202V157.557H140.924V156.832H144.277C144.277 156.525 144.215 156.25 144.092 156.009C143.971 155.767 143.798 155.576 143.574 155.437C143.351 155.297 143.088 155.227 142.785 155.227C142.451 155.227 142.163 155.31 141.919 155.476C141.677 155.639 141.491 155.852 141.361 156.115C141.231 156.378 141.166 156.66 141.166 156.96V157.443C141.166 157.855 141.237 158.204 141.379 158.491C141.523 158.775 141.723 158.991 141.979 159.141C142.235 159.287 142.532 159.361 142.87 159.361C143.091 159.361 143.289 159.33 143.467 159.268C143.647 159.205 143.802 159.11 143.932 158.984C144.062 158.857 144.163 158.698 144.234 158.509L145.044 158.736C144.958 159.01 144.815 159.252 144.614 159.46C144.413 159.666 144.164 159.827 143.868 159.943C143.572 160.057 143.24 160.114 142.87 160.114ZM146.882 154.545L148.189 156.776L149.496 154.545H150.462L148.7 157.273L150.462 160H149.496L148.189 157.884L146.882 160H145.916L147.649 157.273L145.916 154.545H146.882ZM153.263 160.128C152.917 160.128 152.603 160.063 152.322 159.933C152.04 159.8 151.816 159.609 151.651 159.361C151.485 159.11 151.402 158.807 151.402 158.452C151.402 158.139 151.464 157.886 151.587 157.692C151.71 157.495 151.874 157.341 152.08 157.23C152.286 157.119 152.513 157.036 152.762 156.982C153.013 156.925 153.265 156.88 153.518 156.847C153.85 156.804 154.119 156.772 154.325 156.751C154.533 156.727 154.684 156.688 154.779 156.634C154.876 156.579 154.925 156.484 154.925 156.349V156.321C154.925 155.971 154.829 155.698 154.637 155.504C154.448 155.31 154.16 155.213 153.774 155.213C153.374 155.213 153.06 155.301 152.833 155.476C152.606 155.651 152.446 155.838 152.354 156.037L151.558 155.753C151.7 155.421 151.89 155.163 152.126 154.979C152.366 154.792 152.626 154.661 152.908 154.588C153.192 154.512 153.471 154.474 153.746 154.474C153.921 154.474 154.122 154.496 154.349 154.538C154.579 154.579 154.8 154.663 155.013 154.79C155.229 154.918 155.408 155.111 155.55 155.369C155.692 155.627 155.763 155.973 155.763 156.406V160H154.925V159.261H154.882C154.825 159.38 154.731 159.506 154.598 159.641C154.465 159.776 154.289 159.891 154.069 159.986C153.849 160.08 153.58 160.128 153.263 160.128ZM153.391 159.375C153.722 159.375 154.001 159.31 154.229 159.18C154.458 159.049 154.631 158.881 154.747 158.675C154.866 158.469 154.925 158.253 154.925 158.026V157.259C154.889 157.301 154.811 157.34 154.69 157.376C154.572 157.409 154.435 157.438 154.278 157.464C154.125 157.488 153.974 157.509 153.827 157.528C153.683 157.545 153.566 157.559 153.476 157.571C153.258 157.599 153.054 157.646 152.865 157.71C152.678 157.771 152.527 157.865 152.411 157.99C152.297 158.113 152.24 158.281 152.24 158.494C152.24 158.786 152.348 159.006 152.563 159.155C152.781 159.302 153.057 159.375 153.391 159.375ZM157.292 160V154.545H158.102V155.398H158.173C158.287 155.107 158.47 154.88 158.724 154.719C158.977 154.556 159.281 154.474 159.636 154.474C159.996 154.474 160.296 154.556 160.535 154.719C160.776 154.88 160.964 155.107 161.099 155.398H161.156C161.296 155.116 161.505 154.892 161.785 154.727C162.064 154.558 162.399 154.474 162.79 154.474C163.277 154.474 163.676 154.627 163.986 154.933C164.296 155.236 164.452 155.708 164.452 156.349V160H163.613V156.349C163.613 155.947 163.503 155.659 163.283 155.487C163.063 155.314 162.804 155.227 162.506 155.227C162.122 155.227 161.825 155.343 161.614 155.575C161.403 155.805 161.298 156.096 161.298 156.449V160H160.446V156.264C160.446 155.954 160.345 155.704 160.144 155.515C159.943 155.323 159.684 155.227 159.366 155.227C159.148 155.227 158.945 155.285 158.756 155.401C158.568 155.517 158.417 155.678 158.301 155.884C158.187 156.088 158.131 156.323 158.131 156.591V160H157.292ZM165.984 162.045V154.545H166.794V155.412H166.893C166.954 155.317 167.04 155.196 167.149 155.05C167.26 154.901 167.419 154.768 167.624 154.652C167.833 154.534 168.115 154.474 168.47 154.474C168.929 154.474 169.334 154.589 169.684 154.819C170.035 155.049 170.308 155.374 170.504 155.795C170.701 156.217 170.799 156.714 170.799 157.287C170.799 157.865 170.701 158.365 170.504 158.789C170.308 159.21 170.036 159.537 169.688 159.769C169.34 159.999 168.938 160.114 168.484 160.114C168.133 160.114 167.853 160.056 167.642 159.94C167.432 159.821 167.269 159.687 167.156 159.538C167.042 159.387 166.954 159.261 166.893 159.162H166.822V162.045H165.984ZM166.808 157.273C166.808 157.685 166.868 158.048 166.989 158.363C167.11 158.675 167.286 158.92 167.518 159.098C167.75 159.273 168.034 159.361 168.37 159.361C168.721 159.361 169.013 159.268 169.247 159.084C169.484 158.897 169.662 158.646 169.78 158.331C169.901 158.014 169.961 157.661 169.961 157.273C169.961 156.889 169.902 156.544 169.784 156.236C169.668 155.926 169.491 155.681 169.254 155.501C169.02 155.318 168.725 155.227 168.37 155.227C168.029 155.227 167.743 155.314 167.511 155.487C167.279 155.657 167.104 155.896 166.985 156.204C166.867 156.509 166.808 156.866 166.808 157.273ZM172.916 152.727V160H172.078V152.727H172.916ZM176.738 160.114C176.212 160.114 175.759 159.998 175.377 159.766C174.999 159.531 174.706 159.205 174.5 158.786C174.297 158.364 174.195 157.874 174.195 157.315C174.195 156.757 174.297 156.264 174.5 155.838C174.706 155.41 174.993 155.076 175.36 154.837C175.729 154.595 176.16 154.474 176.652 154.474C176.936 154.474 177.217 154.522 177.494 154.616C177.771 154.711 178.023 154.865 178.25 155.078C178.478 155.289 178.659 155.568 178.794 155.916C178.929 156.264 178.996 156.693 178.996 157.202V157.557H174.792V156.832H178.144C178.144 156.525 178.082 156.25 177.959 156.009C177.838 155.767 177.666 155.576 177.441 155.437C177.218 155.297 176.955 155.227 176.652 155.227C176.319 155.227 176.03 155.31 175.786 155.476C175.544 155.639 175.359 155.852 175.228 156.115C175.098 156.378 175.033 156.66 175.033 156.96V157.443C175.033 157.855 175.104 158.204 175.246 158.491C175.391 158.775 175.591 158.991 175.846 159.141C176.102 159.287 176.399 159.361 176.738 159.361C176.958 159.361 177.157 159.33 177.334 159.268C177.514 159.205 177.669 159.11 177.799 158.984C177.93 158.857 178.03 158.698 178.101 158.509L178.911 158.736C178.826 159.01 178.682 159.252 178.481 159.46C178.28 159.666 178.031 159.827 177.735 159.943C177.44 160.057 177.107 160.114 176.738 160.114Z" fill="white"/>
<path d="M60 196C60 191.582 63.5817 188 68 188H186C187.105 188 188 188.895 188 190V204C188 208.418 184.418 212 180 212H68C63.5817 212 60 208.418 60 204V196Z" fill="#73768C"/>
<path d="M68.483 197.509V196.727H73.9375V197.509H71.6506V204H70.7699V197.509H68.483ZM76.608 204.114C76.1155 204.114 75.6835 203.996 75.3118 203.762C74.9425 203.528 74.6536 203.2 74.4453 202.778C74.2393 202.357 74.1364 201.865 74.1364 201.301C74.1364 200.733 74.2393 200.237 74.4453 199.813C74.6536 199.389 74.9425 199.06 75.3118 198.826C75.6835 198.592 76.1155 198.474 76.608 198.474C77.1004 198.474 77.5313 198.592 77.9006 198.826C78.2723 199.06 78.5611 199.389 78.767 199.813C78.9754 200.237 79.0795 200.733 79.0795 201.301C79.0795 201.865 78.9754 202.357 78.767 202.778C78.5611 203.2 78.2723 203.528 77.9006 203.762C77.5313 203.996 77.1004 204.114 76.608 204.114ZM76.608 203.361C76.982 203.361 77.2898 203.265 77.5312 203.073C77.7727 202.881 77.9515 202.629 78.0675 202.317C78.1835 202.004 78.2415 201.666 78.2415 201.301C78.2415 200.937 78.1835 200.597 78.0675 200.282C77.9515 199.967 77.7727 199.713 77.5312 199.518C77.2898 199.324 76.982 199.227 76.608 199.227C76.2339 199.227 75.9261 199.324 75.6847 199.518C75.4432 199.713 75.2644 199.967 75.1484 200.282C75.0324 200.597 74.9744 200.937 74.9744 201.301C74.9744 201.666 75.0324 202.004 75.1484 202.317C75.2644 202.629 75.4432 202.881 75.6847 203.073C75.9261 203.265 76.2339 203.361 76.608 203.361ZM82.5748 204.114C82.0823 204.114 81.6503 203.996 81.2786 203.762C80.9093 203.528 80.6204 203.2 80.4121 202.778C80.2061 202.357 80.1032 201.865 80.1032 201.301C80.1032 200.733 80.2061 200.237 80.4121 199.813C80.6204 199.389 80.9093 199.06 81.2786 198.826C81.6503 198.592 82.0823 198.474 82.5748 198.474C83.0672 198.474 83.498 198.592 83.8674 198.826C84.2391 199.06 84.5279 199.389 84.7338 199.813C84.9422 200.237 85.0463 200.733 85.0463 201.301C85.0463 201.865 84.9422 202.357 84.7338 202.778C84.5279 203.2 84.2391 203.528 83.8674 203.762C83.498 203.996 83.0672 204.114 82.5748 204.114ZM82.5748 203.361C82.9488 203.361 83.2566 203.265 83.498 203.073C83.7395 202.881 83.9183 202.629 84.0343 202.317C84.1503 202.004 84.2083 201.666 84.2083 201.301C84.2083 200.937 84.1503 200.597 84.0343 200.282C83.9183 199.967 83.7395 199.713 83.498 199.518C83.2566 199.324 82.9488 199.227 82.5748 199.227C82.2007 199.227 81.8929 199.324 81.6515 199.518C81.41 199.713 81.2312 199.967 81.1152 200.282C80.9992 200.597 80.9412 200.937 80.9412 201.301C80.9412 201.666 80.9992 202.004 81.1152 202.317C81.2312 202.629 81.41 202.881 81.6515 203.073C81.8929 203.265 82.2007 203.361 82.5748 203.361ZM87.1637 196.727V204H86.3256V196.727H87.1637ZM91.0708 198.545V199.256H88.2441V198.545H91.0708ZM89.068 197.239H89.9061V202.438C89.9061 202.674 89.9404 202.852 90.0091 202.97C90.0801 203.086 90.17 203.164 90.2789 203.205C90.3902 203.242 90.5074 203.261 90.6305 203.261C90.7228 203.261 90.7986 203.257 90.8578 203.247C90.917 203.235 90.9643 203.226 90.9998 203.219L91.1703 203.972C91.1135 203.993 91.0342 204.014 90.9324 204.036C90.8306 204.059 90.7015 204.071 90.5453 204.071C90.3085 204.071 90.0765 204.02 89.8493 203.918C89.6243 203.817 89.4373 203.661 89.2882 203.453C89.1414 203.245 89.068 202.982 89.068 202.665V197.239ZM92.3315 204V198.545H93.1696V204H92.3315ZM92.7576 197.636C92.5943 197.636 92.4534 197.581 92.335 197.469C92.219 197.358 92.161 197.224 92.161 197.068C92.161 196.912 92.219 196.778 92.335 196.667C92.4534 196.556 92.5943 196.5 92.7576 196.5C92.921 196.5 93.0607 196.556 93.1767 196.667C93.295 196.778 93.3542 196.912 93.3542 197.068C93.3542 197.224 93.295 197.358 93.1767 197.469C93.0607 197.581 92.921 197.636 92.7576 197.636ZM94.7045 206.045V198.545H95.5142V199.412H95.6136C95.6752 199.317 95.7604 199.196 95.8693 199.05C95.9806 198.901 96.1392 198.768 96.3452 198.652C96.5535 198.534 96.8352 198.474 97.1903 198.474C97.6496 198.474 98.0545 198.589 98.4048 198.819C98.7552 199.049 99.0286 199.374 99.2251 199.795C99.4216 200.217 99.5199 200.714 99.5199 201.287C99.5199 201.865 99.4216 202.365 99.2251 202.789C99.0286 203.21 98.7564 203.537 98.4084 203.769C98.0604 203.999 97.6591 204.114 97.2045 204.114C96.8542 204.114 96.5736 204.056 96.3629 203.94C96.1522 203.821 95.9901 203.687 95.8764 203.538C95.7628 203.387 95.6752 203.261 95.6136 203.162H95.5426V206.045H94.7045ZM95.5284 201.273C95.5284 201.685 95.5888 202.048 95.7095 202.363C95.8303 202.675 96.0066 202.92 96.2386 203.098C96.4706 203.273 96.7547 203.361 97.0909 203.361C97.4413 203.361 97.7337 203.268 97.968 203.084C98.2048 202.897 98.3823 202.646 98.5007 202.331C98.6214 202.014 98.6818 201.661 98.6818 201.273C98.6818 200.889 98.6226 200.544 98.5043 200.236C98.3883 199.926 98.2119 199.681 97.9751 199.501C97.7408 199.318 97.446 199.227 97.0909 199.227C96.75 199.227 96.4635 199.314 96.2315 199.487C95.9995 199.657 95.8243 199.896 95.706 200.204C95.5876 200.509 95.5284 200.866 95.5284 201.273ZM105.983 198.545V199.256H103.156V198.545H105.983ZM103.98 197.239H104.818V202.438C104.818 202.674 104.853 202.852 104.921 202.97C104.992 203.086 105.082 203.164 105.191 203.205C105.302 203.242 105.42 203.261 105.543 203.261C105.635 203.261 105.711 203.257 105.77 203.247C105.829 203.235 105.876 203.226 105.912 203.219L106.082 203.972C106.026 203.993 105.946 204.014 105.844 204.036C105.743 204.059 105.614 204.071 105.457 204.071C105.221 204.071 104.989 204.02 104.761 203.918C104.536 203.817 104.349 203.661 104.2 203.453C104.054 203.245 103.98 202.982 103.98 202.665V197.239ZM109.472 204.114C108.946 204.114 108.493 203.998 108.112 203.766C107.733 203.531 107.441 203.205 107.235 202.786C107.031 202.364 106.929 201.874 106.929 201.315C106.929 200.757 107.031 200.264 107.235 199.838C107.441 199.41 107.727 199.076 108.094 198.837C108.463 198.595 108.894 198.474 109.387 198.474C109.671 198.474 109.951 198.522 110.228 198.616C110.505 198.711 110.757 198.865 110.985 199.078C111.212 199.289 111.393 199.568 111.528 199.916C111.663 200.264 111.73 200.693 111.73 201.202V201.557H107.526V200.832H110.878C110.878 200.525 110.817 200.25 110.694 200.009C110.573 199.767 110.4 199.576 110.175 199.437C109.953 199.297 109.69 199.227 109.387 199.227C109.053 199.227 108.764 199.31 108.52 199.476C108.279 199.639 108.093 199.852 107.963 200.115C107.833 200.378 107.767 200.66 107.767 200.96V201.443C107.767 201.855 107.838 202.204 107.98 202.491C108.125 202.775 108.325 202.991 108.581 203.141C108.836 203.287 109.133 203.361 109.472 203.361C109.692 203.361 109.891 203.33 110.069 203.268C110.248 203.205 110.404 203.11 110.534 202.984C110.664 202.857 110.765 202.698 110.836 202.509L111.645 202.736C111.56 203.01 111.417 203.252 111.216 203.46C111.014 203.666 110.766 203.827 110.47 203.943C110.174 204.057 109.841 204.114 109.472 204.114ZM113.484 198.545L114.791 200.776L116.097 198.545H117.063L115.302 201.273L117.063 204H116.097L114.791 201.884L113.484 204H112.518L114.251 201.273L112.518 198.545H113.484ZM120.631 198.545V199.256H117.805V198.545H120.631ZM118.629 197.239H119.467V202.438C119.467 202.674 119.501 202.852 119.57 202.97C119.641 203.086 119.731 203.164 119.839 203.205C119.951 203.242 120.068 203.261 120.191 203.261C120.283 203.261 120.359 203.257 120.418 203.247C120.478 203.235 120.525 203.226 120.56 203.219L120.731 203.972C120.674 203.993 120.595 204.014 120.493 204.036C120.391 204.059 120.262 204.071 120.106 204.071C119.869 204.071 119.637 204.02 119.41 203.918C119.185 203.817 118.998 203.661 118.849 203.453C118.702 203.245 118.629 202.982 118.629 202.665V197.239ZM127.134 198.545V199.256H124.193V198.545H127.134ZM125.074 204V197.793C125.074 197.48 125.147 197.22 125.294 197.011C125.441 196.803 125.631 196.647 125.866 196.543C126.1 196.438 126.348 196.386 126.608 196.386C126.814 196.386 126.982 196.403 127.112 196.436C127.242 196.469 127.339 196.5 127.403 196.528L127.162 197.253C127.119 197.239 127.06 197.221 126.984 197.2C126.911 197.178 126.814 197.168 126.693 197.168C126.416 197.168 126.216 197.237 126.093 197.377C125.972 197.517 125.912 197.722 125.912 197.991V204H125.074ZM130.299 204.114C129.807 204.114 129.375 203.996 129.003 203.762C128.634 203.528 128.345 203.2 128.137 202.778C127.931 202.357 127.828 201.865 127.828 201.301C127.828 200.733 127.931 200.237 128.137 199.813C128.345 199.389 128.634 199.06 129.003 198.826C129.375 198.592 129.807 198.474 130.299 198.474C130.792 198.474 131.223 198.592 131.592 198.826C131.964 199.06 132.252 199.389 132.458 199.813C132.667 200.237 132.771 200.733 132.771 201.301C132.771 201.865 132.667 202.357 132.458 202.778C132.252 203.2 131.964 203.528 131.592 203.762C131.223 203.996 130.792 204.114 130.299 204.114ZM130.299 203.361C130.673 203.361 130.981 203.265 131.223 203.073C131.464 202.881 131.643 202.629 131.759 202.317C131.875 202.004 131.933 201.666 131.933 201.301C131.933 200.937 131.875 200.597 131.759 200.282C131.643 199.967 131.464 199.713 131.223 199.518C130.981 199.324 130.673 199.227 130.299 199.227C129.925 199.227 129.618 199.324 129.376 199.518C129.135 199.713 128.956 199.967 128.84 200.282C128.724 200.597 128.666 200.937 128.666 201.301C128.666 201.666 128.724 202.004 128.84 202.317C128.956 202.629 129.135 202.881 129.376 203.073C129.618 203.265 129.925 203.361 130.299 203.361ZM134.05 204V198.545H134.86V199.369H134.917C135.016 199.099 135.196 198.88 135.456 198.712C135.717 198.544 136.01 198.46 136.337 198.46C136.399 198.46 136.476 198.461 136.568 198.464C136.66 198.466 136.73 198.47 136.778 198.474V199.327C136.749 199.32 136.684 199.309 136.582 199.295C136.483 199.278 136.377 199.27 136.266 199.27C136.001 199.27 135.764 199.326 135.556 199.437C135.35 199.546 135.187 199.697 135.066 199.891C134.948 200.083 134.888 200.302 134.888 200.548V204H134.05ZM142.87 204.114C142.345 204.114 141.891 203.998 141.51 203.766C141.132 203.531 140.839 203.205 140.633 202.786C140.43 202.364 140.328 201.874 140.328 201.315C140.328 200.757 140.43 200.264 140.633 199.838C140.839 199.41 141.126 199.076 141.493 198.837C141.862 198.595 142.293 198.474 142.785 198.474C143.069 198.474 143.35 198.522 143.627 198.616C143.904 198.711 144.156 198.865 144.383 199.078C144.61 199.289 144.792 199.568 144.926 199.916C145.061 200.264 145.129 200.693 145.129 201.202V201.557H140.924V200.832H144.277C144.277 200.525 144.215 200.25 144.092 200.009C143.971 199.767 143.798 199.576 143.574 199.437C143.351 199.297 143.088 199.227 142.785 199.227C142.451 199.227 142.163 199.31 141.919 199.476C141.677 199.639 141.491 199.852 141.361 200.115C141.231 200.378 141.166 200.66 141.166 200.96V201.443C141.166 201.855 141.237 202.204 141.379 202.491C141.523 202.775 141.723 202.991 141.979 203.141C142.235 203.287 142.532 203.361 142.87 203.361C143.091 203.361 143.289 203.33 143.467 203.268C143.647 203.205 143.802 203.11 143.932 202.984C144.062 202.857 144.163 202.698 144.234 202.509L145.044 202.736C144.958 203.01 144.815 203.252 144.614 203.46C144.413 203.666 144.164 203.827 143.868 203.943C143.572 204.057 143.24 204.114 142.87 204.114ZM146.882 198.545L148.189 200.776L149.496 198.545H150.462L148.7 201.273L150.462 204H149.496L148.189 201.884L146.882 204H145.916L147.649 201.273L145.916 198.545H146.882ZM153.263 204.128C152.917 204.128 152.603 204.063 152.322 203.933C152.04 203.8 151.816 203.609 151.651 203.361C151.485 203.11 151.402 202.807 151.402 202.452C151.402 202.139 151.464 201.886 151.587 201.692C151.71 201.495 151.874 201.341 152.08 201.23C152.286 201.119 152.513 201.036 152.762 200.982C153.013 200.925 153.265 200.88 153.518 200.847C153.85 200.804 154.119 200.772 154.325 200.751C154.533 200.727 154.684 200.688 154.779 200.634C154.876 200.579 154.925 200.484 154.925 200.349V200.321C154.925 199.971 154.829 199.698 154.637 199.504C154.448 199.31 154.16 199.213 153.774 199.213C153.374 199.213 153.06 199.301 152.833 199.476C152.606 199.651 152.446 199.838 152.354 200.037L151.558 199.753C151.7 199.421 151.89 199.163 152.126 198.979C152.366 198.792 152.626 198.661 152.908 198.588C153.192 198.512 153.471 198.474 153.746 198.474C153.921 198.474 154.122 198.496 154.349 198.538C154.579 198.579 154.8 198.663 155.013 198.79C155.229 198.918 155.408 199.111 155.55 199.369C155.692 199.627 155.763 199.973 155.763 200.406V204H154.925V203.261H154.882C154.825 203.38 154.731 203.506 154.598 203.641C154.465 203.776 154.289 203.891 154.069 203.986C153.849 204.08 153.58 204.128 153.263 204.128ZM153.391 203.375C153.722 203.375 154.001 203.31 154.229 203.18C154.458 203.049 154.631 202.881 154.747 202.675C154.866 202.469 154.925 202.253 154.925 202.026V201.259C154.889 201.301 154.811 201.34 154.69 201.376C154.572 201.409 154.435 201.438 154.278 201.464C154.125 201.488 153.974 201.509 153.827 201.528C153.683 201.545 153.566 201.559 153.476 201.571C153.258 201.599 153.054 201.646 152.865 201.71C152.678 201.771 152.527 201.865 152.411 201.99C152.297 202.113 152.24 202.281 152.24 202.494C152.24 202.786 152.348 203.006 152.563 203.155C152.781 203.302 153.057 203.375 153.391 203.375ZM157.292 204V198.545H158.102V199.398H158.173C158.287 199.107 158.47 198.88 158.724 198.719C158.977 198.556 159.281 198.474 159.636 198.474C159.996 198.474 160.296 198.556 160.535 198.719C160.776 198.88 160.964 199.107 161.099 199.398H161.156C161.296 199.116 161.505 198.892 161.785 198.727C162.064 198.558 162.399 198.474 162.79 198.474C163.277 198.474 163.676 198.627 163.986 198.933C164.296 199.236 164.452 199.708 164.452 200.349V204H163.613V200.349C163.613 199.947 163.503 199.659 163.283 199.487C163.063 199.314 162.804 199.227 162.506 199.227C162.122 199.227 161.825 199.343 161.614 199.575C161.403 199.805 161.298 200.096 161.298 200.449V204H160.446V200.264C160.446 199.954 160.345 199.704 160.144 199.515C159.943 199.323 159.684 199.227 159.366 199.227C159.148 199.227 158.945 199.285 158.756 199.401C158.568 199.517 158.417 199.678 158.301 199.884C158.187 200.088 158.131 200.323 158.131 200.591V204H157.292ZM165.984 206.045V198.545H166.794V199.412H166.893C166.954 199.317 167.04 199.196 167.149 199.05C167.26 198.901 167.419 198.768 167.624 198.652C167.833 198.534 168.115 198.474 168.47 198.474C168.929 198.474 169.334 198.589 169.684 198.819C170.035 199.049 170.308 199.374 170.504 199.795C170.701 200.217 170.799 200.714 170.799 201.287C170.799 201.865 170.701 202.365 170.504 202.789C170.308 203.21 170.036 203.537 169.688 203.769C169.34 203.999 168.938 204.114 168.484 204.114C168.133 204.114 167.853 204.056 167.642 203.94C167.432 203.821 167.269 203.687 167.156 203.538C167.042 203.387 166.954 203.261 166.893 203.162H166.822V206.045H165.984ZM166.808 201.273C166.808 201.685 166.868 202.048 166.989 202.363C167.11 202.675 167.286 202.92 167.518 203.098C167.75 203.273 168.034 203.361 168.37 203.361C168.721 203.361 169.013 203.268 169.247 203.084C169.484 202.897 169.662 202.646 169.78 202.331C169.901 202.014 169.961 201.661 169.961 201.273C169.961 200.889 169.902 200.544 169.784 200.236C169.668 199.926 169.491 199.681 169.254 199.501C169.02 199.318 168.725 199.227 168.37 199.227C168.029 199.227 167.743 199.314 167.511 199.487C167.279 199.657 167.104 199.896 166.985 200.204C166.867 200.509 166.808 200.866 166.808 201.273ZM172.916 196.727V204H172.078V196.727H172.916ZM176.738 204.114C176.212 204.114 175.759 203.998 175.377 203.766C174.999 203.531 174.706 203.205 174.5 202.786C174.297 202.364 174.195 201.874 174.195 201.315C174.195 200.757 174.297 200.264 174.5 199.838C174.706 199.41 174.993 199.076 175.36 198.837C175.729 198.595 176.16 198.474 176.652 198.474C176.936 198.474 177.217 198.522 177.494 198.616C177.771 198.711 178.023 198.865 178.25 199.078C178.478 199.289 178.659 199.568 178.794 199.916C178.929 200.264 178.996 200.693 178.996 201.202V201.557H174.792V200.832H178.144C178.144 200.525 178.082 200.25 177.959 200.009C177.838 199.767 177.666 199.576 177.441 199.437C177.218 199.297 176.955 199.227 176.652 199.227C176.319 199.227 176.03 199.31 175.786 199.476C175.544 199.639 175.359 199.852 175.228 200.115C175.098 200.378 175.033 200.66 175.033 200.96V201.443C175.033 201.855 175.104 202.204 175.246 202.491C175.391 202.775 175.591 202.991 175.846 203.141C176.102 203.287 176.399 203.361 176.738 203.361C176.958 203.361 177.157 203.33 177.334 203.268C177.514 203.205 177.669 203.11 177.799 202.984C177.93 202.857 178.03 202.698 178.101 202.509L178.911 202.736C178.826 203.01 178.682 203.252 178.481 203.46C178.28 203.666 178.031 203.827 177.735 203.943C177.44 204.057 177.107 204.114 176.738 204.114Z" fill="white"/>
<path d="M60 240C60 235.582 63.5817 232 68 232H180C184.418 232 188 235.582 188 240V254C188 255.105 187.105 256 186 256H68C63.5817 256 60 252.418 60 248V240Z" fill="#73768C"/>
<path d="M68.483 241.509V240.727H73.9375V241.509H71.6506V248H70.7699V241.509H68.483ZM76.608 248.114C76.1155 248.114 75.6835 247.996 75.3118 247.762C74.9425 247.528 74.6536 247.2 74.4453 246.778C74.2393 246.357 74.1364 245.865 74.1364 245.301C74.1364 244.733 74.2393 244.237 74.4453 243.813C74.6536 243.389 74.9425 243.06 75.3118 242.826C75.6835 242.592 76.1155 242.474 76.608 242.474C77.1004 242.474 77.5313 242.592 77.9006 242.826C78.2723 243.06 78.5611 243.389 78.767 243.813C78.9754 244.237 79.0795 244.733 79.0795 245.301C79.0795 245.865 78.9754 246.357 78.767 246.778C78.5611 247.2 78.2723 247.528 77.9006 247.762C77.5313 247.996 77.1004 248.114 76.608 248.114ZM76.608 247.361C76.982 247.361 77.2898 247.265 77.5312 247.073C77.7727 246.881 77.9515 246.629 78.0675 246.317C78.1835 246.004 78.2415 245.666 78.2415 245.301C78.2415 244.937 78.1835 244.597 78.0675 244.282C77.9515 243.967 77.7727 243.713 77.5312 243.518C77.2898 243.324 76.982 243.227 76.608 243.227C76.2339 243.227 75.9261 243.324 75.6847 243.518C75.4432 243.713 75.2644 243.967 75.1484 244.282C75.0324 244.597 74.9744 244.937 74.9744 245.301C74.9744 245.666 75.0324 246.004 75.1484 246.317C75.2644 246.629 75.4432 246.881 75.6847 247.073C75.9261 247.265 76.2339 247.361 76.608 247.361ZM82.5748 248.114C82.0823 248.114 81.6503 247.996 81.2786 247.762C80.9093 247.528 80.6204 247.2 80.4121 246.778C80.2061 246.357 80.1032 245.865 80.1032 245.301C80.1032 244.733 80.2061 244.237 80.4121 243.813C80.6204 243.389 80.9093 243.06 81.2786 242.826C81.6503 242.592 82.0823 242.474 82.5748 242.474C83.0672 242.474 83.498 242.592 83.8674 242.826C84.2391 243.06 84.5279 243.389 84.7338 243.813C84.9422 244.237 85.0463 244.733 85.0463 245.301C85.0463 245.865 84.9422 246.357 84.7338 246.778C84.5279 247.2 84.2391 247.528 83.8674 247.762C83.498 247.996 83.0672 248.114 82.5748 248.114ZM82.5748 247.361C82.9488 247.361 83.2566 247.265 83.498 247.073C83.7395 246.881 83.9183 246.629 84.0343 246.317C84.1503 246.004 84.2083 245.666 84.2083 245.301C84.2083 244.937 84.1503 244.597 84.0343 244.282C83.9183 243.967 83.7395 243.713 83.498 243.518C83.2566 243.324 82.9488 243.227 82.5748 243.227C82.2007 243.227 81.8929 243.324 81.6515 243.518C81.41 243.713 81.2312 243.967 81.1152 244.282C80.9992 244.597 80.9412 244.937 80.9412 245.301C80.9412 245.666 80.9992 246.004 81.1152 246.317C81.2312 246.629 81.41 246.881 81.6515 247.073C81.8929 247.265 82.2007 247.361 82.5748 247.361ZM87.1637 240.727V248H86.3256V240.727H87.1637ZM91.0708 242.545V243.256H88.2441V242.545H91.0708ZM89.068 241.239H89.9061V246.438C89.9061 246.674 89.9404 246.852 90.0091 246.97C90.0801 247.086 90.17 247.164 90.2789 247.205C90.3902 247.242 90.5074 247.261 90.6305 247.261C90.7228 247.261 90.7986 247.257 90.8578 247.247C90.917 247.235 90.9643 247.226 90.9998 247.219L91.1703 247.972C91.1135 247.993 91.0342 248.014 90.9324 248.036C90.8306 248.059 90.7015 248.071 90.5453 248.071C90.3085 248.071 90.0765 248.02 89.8493 247.918C89.6243 247.817 89.4373 247.661 89.2882 247.453C89.1414 247.245 89.068 246.982 89.068 246.665V241.239ZM92.3315 248V242.545H93.1696V248H92.3315ZM92.7576 241.636C92.5943 241.636 92.4534 241.581 92.335 241.469C92.219 241.358 92.161 241.224 92.161 241.068C92.161 240.912 92.219 240.778 92.335 240.667C92.4534 240.556 92.5943 240.5 92.7576 240.5C92.921 240.5 93.0607 240.556 93.1767 240.667C93.295 240.778 93.3542 240.912 93.3542 241.068C93.3542 241.224 93.295 241.358 93.1767 241.469C93.0607 241.581 92.921 241.636 92.7576 241.636ZM94.7045 250.045V242.545H95.5142V243.412H95.6136C95.6752 243.317 95.7604 243.196 95.8693 243.05C95.9806 242.901 96.1392 242.768 96.3452 242.652C96.5535 242.534 96.8352 242.474 97.1903 242.474C97.6496 242.474 98.0545 242.589 98.4048 242.819C98.7552 243.049 99.0286 243.374 99.2251 243.795C99.4216 244.217 99.5199 244.714 99.5199 245.287C99.5199 245.865 99.4216 246.365 99.2251 246.789C99.0286 247.21 98.7564 247.537 98.4084 247.769C98.0604 247.999 97.6591 248.114 97.2045 248.114C96.8542 248.114 96.5736 248.056 96.3629 247.94C96.1522 247.821 95.9901 247.687 95.8764 247.538C95.7628 247.387 95.6752 247.261 95.6136 247.162H95.5426V250.045H94.7045ZM95.5284 245.273C95.5284 245.685 95.5888 246.048 95.7095 246.363C95.8303 246.675 96.0066 246.92 96.2386 247.098C96.4706 247.273 96.7547 247.361 97.0909 247.361C97.4413 247.361 97.7337 247.268 97.968 247.084C98.2048 246.897 98.3823 246.646 98.5007 246.331C98.6214 246.014 98.6818 245.661 98.6818 245.273C98.6818 244.889 98.6226 244.544 98.5043 244.236C98.3883 243.926 98.2119 243.681 97.9751 243.501C97.7408 243.318 97.446 243.227 97.0909 243.227C96.75 243.227 96.4635 243.314 96.2315 243.487C95.9995 243.657 95.8243 243.896 95.706 244.204C95.5876 244.509 95.5284 244.866 95.5284 245.273ZM105.983 242.545V243.256H103.156V242.545H105.983ZM103.98 241.239H104.818V246.438C104.818 246.674 104.853 246.852 104.921 246.97C104.992 247.086 105.082 247.164 105.191 247.205C105.302 247.242 105.42 247.261 105.543 247.261C105.635 247.261 105.711 247.257 105.77 247.247C105.829 247.235 105.876 247.226 105.912 247.219L106.082 247.972C106.026 247.993 105.946 248.014 105.844 248.036C105.743 248.059 105.614 248.071 105.457 248.071C105.221 248.071 104.989 248.02 104.761 247.918C104.536 247.817 104.349 247.661 104.2 247.453C104.054 247.245 103.98 246.982 103.98 246.665V241.239ZM109.472 248.114C108.946 248.114 108.493 247.998 108.112 247.766C107.733 247.531 107.441 247.205 107.235 246.786C107.031 246.364 106.929 245.874 106.929 245.315C106.929 244.757 107.031 244.264 107.235 243.838C107.441 243.41 107.727 243.076 108.094 242.837C108.463 242.595 108.894 242.474 109.387 242.474C109.671 242.474 109.951 242.522 110.228 242.616C110.505 242.711 110.757 242.865 110.985 243.078C111.212 243.289 111.393 243.568 111.528 243.916C111.663 244.264 111.73 244.693 111.73 245.202V245.557H107.526V244.832H110.878C110.878 244.525 110.817 244.25 110.694 244.009C110.573 243.767 110.4 243.576 110.175 243.437C109.953 243.297 109.69 243.227 109.387 243.227C109.053 243.227 108.764 243.31 108.52 243.476C108.279 243.639 108.093 243.852 107.963 244.115C107.833 244.378 107.767 244.66 107.767 244.96V245.443C107.767 245.855 107.838 246.204 107.98 246.491C108.125 246.775 108.325 246.991 108.581 247.141C108.836 247.287 109.133 247.361 109.472 247.361C109.692 247.361 109.891 247.33 110.069 247.268C110.248 247.205 110.404 247.11 110.534 246.984C110.664 246.857 110.765 246.698 110.836 246.509L111.645 246.736C111.56 247.01 111.417 247.252 111.216 247.46C111.014 247.666 110.766 247.827 110.47 247.943C110.174 248.057 109.841 248.114 109.472 248.114ZM113.484 242.545L114.791 244.776L116.097 242.545H117.063L115.302 245.273L117.063 248H116.097L114.791 245.884L113.484 248H112.518L114.251 245.273L112.518 242.545H113.484ZM120.631 242.545V243.256H117.805V242.545H120.631ZM118.629 241.239H119.467V246.438C119.467 246.674 119.501 246.852 119.57 246.97C119.641 247.086 119.731 247.164 119.839 247.205C119.951 247.242 120.068 247.261 120.191 247.261C120.283 247.261 120.359 247.257 120.418 247.247C120.478 247.235 120.525 247.226 120.56 247.219L120.731 247.972C120.674 247.993 120.595 248.014 120.493 248.036C120.391 248.059 120.262 248.071 120.106 248.071C119.869 248.071 119.637 248.02 119.41 247.918C119.185 247.817 118.998 247.661 118.849 247.453C118.702 247.245 118.629 246.982 118.629 246.665V241.239ZM127.134 242.545V243.256H124.193V242.545H127.134ZM125.074 248V241.793C125.074 241.48 125.147 241.22 125.294 241.011C125.441 240.803 125.631 240.647 125.866 240.543C126.1 240.438 126.348 240.386 126.608 240.386C126.814 240.386 126.982 240.403 127.112 240.436C127.242 240.469 127.339 240.5 127.403 240.528L127.162 241.253C127.119 241.239 127.06 241.221 126.984 241.2C126.911 241.178 126.814 241.168 126.693 241.168C126.416 241.168 126.216 241.237 126.093 241.377C125.972 241.517 125.912 241.722 125.912 241.991V248H125.074ZM130.299 248.114C129.807 248.114 129.375 247.996 129.003 247.762C128.634 247.528 128.345 247.2 128.137 246.778C127.931 246.357 127.828 245.865 127.828 245.301C127.828 244.733 127.931 244.237 128.137 243.813C128.345 243.389 128.634 243.06 129.003 242.826C129.375 242.592 129.807 242.474 130.299 242.474C130.792 242.474 131.223 242.592 131.592 242.826C131.964 243.06 132.252 243.389 132.458 243.813C132.667 244.237 132.771 244.733 132.771 245.301C132.771 245.865 132.667 246.357 132.458 246.778C132.252 247.2 131.964 247.528 131.592 247.762C131.223 247.996 130.792 248.114 130.299 248.114ZM130.299 247.361C130.673 247.361 130.981 247.265 131.223 247.073C131.464 246.881 131.643 246.629 131.759 246.317C131.875 246.004 131.933 245.666 131.933 245.301C131.933 244.937 131.875 244.597 131.759 244.282C131.643 243.967 131.464 243.713 131.223 243.518C130.981 243.324 130.673 243.227 130.299 243.227C129.925 243.227 129.618 243.324 129.376 243.518C129.135 243.713 128.956 243.967 128.84 244.282C128.724 244.597 128.666 244.937 128.666 245.301C128.666 245.666 128.724 246.004 128.84 246.317C128.956 246.629 129.135 246.881 129.376 247.073C129.618 247.265 129.925 247.361 130.299 247.361ZM134.05 248V242.545H134.86V243.369H134.917C135.016 243.099 135.196 242.88 135.456 242.712C135.717 242.544 136.01 242.46 136.337 242.46C136.399 242.46 136.476 242.461 136.568 242.464C136.66 242.466 136.73 242.47 136.778 242.474V243.327C136.749 243.32 136.684 243.309 136.582 243.295C136.483 243.278 136.377 243.27 136.266 243.27C136.001 243.27 135.764 243.326 135.556 243.437C135.35 243.546 135.187 243.697 135.066 243.891C134.948 244.083 134.888 244.302 134.888 244.548V248H134.05ZM142.87 248.114C142.345 248.114 141.891 247.998 141.51 247.766C141.132 247.531 140.839 247.205 140.633 246.786C140.43 246.364 140.328 245.874 140.328 245.315C140.328 244.757 140.43 244.264 140.633 243.838C140.839 243.41 141.126 243.076 141.493 242.837C141.862 242.595 142.293 242.474 142.785 242.474C143.069 242.474 143.35 242.522 143.627 242.616C143.904 242.711 144.156 242.865 144.383 243.078C144.61 243.289 144.792 243.568 144.926 243.916C145.061 244.264 145.129 244.693 145.129 245.202V245.557H140.924V244.832H144.277C144.277 244.525 144.215 244.25 144.092 244.009C143.971 243.767 143.798 243.576 143.574 243.437C143.351 243.297 143.088 243.227 142.785 243.227C142.451 243.227 142.163 243.31 141.919 243.476C141.677 243.639 141.491 243.852 141.361 244.115C141.231 244.378 141.166 244.66 141.166 244.96V245.443C141.166 245.855 141.237 246.204 141.379 246.491C141.523 246.775 141.723 246.991 141.979 247.141C142.235 247.287 142.532 247.361 142.87 247.361C143.091 247.361 143.289 247.33 143.467 247.268C143.647 247.205 143.802 247.11 143.932 246.984C144.062 246.857 144.163 246.698 144.234 246.509L145.044 246.736C144.958 247.01 144.815 247.252 144.614 247.46C144.413 247.666 144.164 247.827 143.868 247.943C143.572 248.057 143.24 248.114 142.87 248.114ZM146.882 242.545L148.189 244.776L149.496 242.545H150.462L148.7 245.273L150.462 248H149.496L148.189 245.884L146.882 248H145.916L147.649 245.273L145.916 242.545H146.882ZM153.263 248.128C152.917 248.128 152.603 248.063 152.322 247.933C152.04 247.8 151.816 247.609 151.651 247.361C151.485 247.11 151.402 246.807 151.402 246.452C151.402 246.139 151.464 245.886 151.587 245.692C151.71 245.495 151.874 245.341 152.08 245.23C152.286 245.119 152.513 245.036 152.762 244.982C153.013 244.925 153.265 244.88 153.518 244.847C153.85 244.804 154.119 244.772 154.325 244.751C154.533 244.727 154.684 244.688 154.779 244.634C154.876 244.579 154.925 244.484 154.925 244.349V244.321C154.925 243.971 154.829 243.698 154.637 243.504C154.448 243.31 154.16 243.213 153.774 243.213C153.374 243.213 153.06 243.301 152.833 243.476C152.606 243.651 152.446 243.838 152.354 244.037L151.558 243.753C151.7 243.421 151.89 243.163 152.126 242.979C152.366 242.792 152.626 242.661 152.908 242.588C153.192 242.512 153.471 242.474 153.746 242.474C153.921 242.474 154.122 242.496 154.349 242.538C154.579 242.579 154.8 242.663 155.013 242.79C155.229 242.918 155.408 243.111 155.55 243.369C155.692 243.627 155.763 243.973 155.763 244.406V248H154.925V247.261H154.882C154.825 247.38 154.731 247.506 154.598 247.641C154.465 247.776 154.289 247.891 154.069 247.986C153.849 248.08 153.58 248.128 153.263 248.128ZM153.391 247.375C153.722 247.375 154.001 247.31 154.229 247.18C154.458 247.049 154.631 246.881 154.747 246.675C154.866 246.469 154.925 246.253 154.925 246.026V245.259C154.889 245.301 154.811 245.34 154.69 245.376C154.572 245.409 154.435 245.438 154.278 245.464C154.125 245.488 153.974 245.509 153.827 245.528C153.683 245.545 153.566 245.559 153.476 245.571C153.258 245.599 153.054 245.646 152.865 245.71C152.678 245.771 152.527 245.865 152.411 245.99C152.297 246.113 152.24 246.281 152.24 246.494C152.24 246.786 152.348 247.006 152.563 247.155C152.781 247.302 153.057 247.375 153.391 247.375ZM157.292 248V242.545H158.102V243.398H158.173C158.287 243.107 158.47 242.88 158.724 242.719C158.977 242.556 159.281 242.474 159.636 242.474C159.996 242.474 160.296 242.556 160.535 242.719C160.776 242.88 160.964 243.107 161.099 243.398H161.156C161.296 243.116 161.505 242.892 161.785 242.727C162.064 242.558 162.399 242.474 162.79 242.474C163.277 242.474 163.676 242.627 163.986 242.933C164.296 243.236 164.452 243.708 164.452 244.349V248H163.613V244.349C163.613 243.947 163.503 243.659 163.283 243.487C163.063 243.314 162.804 243.227 162.506 243.227C162.122 243.227 161.825 243.343 161.614 243.575C161.403 243.805 161.298 244.096 161.298 244.449V248H160.446V244.264C160.446 243.954 160.345 243.704 160.144 243.515C159.943 243.323 159.684 243.227 159.366 243.227C159.148 243.227 158.945 243.285 158.756 243.401C158.568 243.517 158.417 243.678 158.301 243.884C158.187 244.088 158.131 244.323 158.131 244.591V248H157.292ZM165.984 250.045V242.545H166.794V243.412H166.893C166.954 243.317 167.04 243.196 167.149 243.05C167.26 242.901 167.419 242.768 167.624 242.652C167.833 242.534 168.115 242.474 168.47 242.474C168.929 242.474 169.334 242.589 169.684 242.819C170.035 243.049 170.308 243.374 170.504 243.795C170.701 244.217 170.799 244.714 170.799 245.287C170.799 245.865 170.701 246.365 170.504 246.789C170.308 247.21 170.036 247.537 169.688 247.769C169.34 247.999 168.938 248.114 168.484 248.114C168.133 248.114 167.853 248.056 167.642 247.94C167.432 247.821 167.269 247.687 167.156 247.538C167.042 247.387 166.954 247.261 166.893 247.162H166.822V250.045H165.984ZM166.808 245.273C166.808 245.685 166.868 246.048 166.989 246.363C167.11 246.675 167.286 246.92 167.518 247.098C167.75 247.273 168.034 247.361 168.37 247.361C168.721 247.361 169.013 247.268 169.247 247.084C169.484 246.897 169.662 246.646 169.78 246.331C169.901 246.014 169.961 245.661 169.961 245.273C169.961 244.889 169.902 244.544 169.784 244.236C169.668 243.926 169.491 243.681 169.254 243.501C169.02 243.318 168.725 243.227 168.37 243.227C168.029 243.227 167.743 243.314 167.511 243.487C167.279 243.657 167.104 243.896 166.985 244.204C166.867 244.509 166.808 244.866 166.808 245.273ZM172.916 240.727V248H172.078V240.727H172.916ZM176.738 248.114C176.212 248.114 175.759 247.998 175.377 247.766C174.999 247.531 174.706 247.205 174.5 246.786C174.297 246.364 174.195 245.874 174.195 245.315C174.195 244.757 174.297 244.264 174.5 243.838C174.706 243.41 174.993 243.076 175.36 242.837C175.729 242.595 176.16 242.474 176.652 242.474C176.936 242.474 177.217 242.522 177.494 242.616C177.771 242.711 178.023 242.865 178.25 243.078C178.478 243.289 178.659 243.568 178.794 243.916C178.929 244.264 178.996 244.693 178.996 245.202V245.557H174.792V244.832H178.144C178.144 244.525 178.082 244.25 177.959 244.009C177.838 243.767 177.666 243.576 177.441 243.437C177.218 243.297 176.955 243.227 176.652 243.227C176.319 243.227 176.03 243.31 175.786 243.476C175.544 243.639 175.359 243.852 175.228 244.115C175.098 244.378 175.033 244.66 175.033 244.96V245.443C175.033 245.855 175.104 246.204 175.246 246.491C175.391 246.775 175.591 246.991 175.846 247.141C176.102 247.287 176.399 247.361 176.738 247.361C176.958 247.361 177.157 247.33 177.334 247.268C177.514 247.205 177.669 247.11 177.799 246.984C177.93 246.857 178.03 246.698 178.101 246.509L178.911 246.736C178.826 247.01 178.682 247.252 178.481 247.46C178.28 247.666 178.031 247.827 177.735 247.943C177.44 248.057 177.107 248.114 176.738 248.114Z" fill="white"/>
<path d="M60 284C60 279.582 63.5817 276 68 276H180C184.418 276 188 279.582 188 284V292C188 296.418 184.418 300 180 300H62C60.8954 300 60 299.105 60 298V284Z" fill="#73768C"/>
<path d="M68.483 285.509V284.727H73.9375V285.509H71.6506V292H70.7699V285.509H68.483ZM76.608 292.114C76.1155 292.114 75.6835 291.996 75.3118 291.762C74.9425 291.528 74.6536 291.2 74.4453 290.778C74.2393 290.357 74.1364 289.865 74.1364 289.301C74.1364 288.733 74.2393 288.237 74.4453 287.813C74.6536 287.389 74.9425 287.06 75.3118 286.826C75.6835 286.592 76.1155 286.474 76.608 286.474C77.1004 286.474 77.5313 286.592 77.9006 286.826C78.2723 287.06 78.5611 287.389 78.767 287.813C78.9754 288.237 79.0795 288.733 79.0795 289.301C79.0795 289.865 78.9754 290.357 78.767 290.778C78.5611 291.2 78.2723 291.528 77.9006 291.762C77.5313 291.996 77.1004 292.114 76.608 292.114ZM76.608 291.361C76.982 291.361 77.2898 291.265 77.5312 291.073C77.7727 290.881 77.9515 290.629 78.0675 290.317C78.1835 290.004 78.2415 289.666 78.2415 289.301C78.2415 288.937 78.1835 288.597 78.0675 288.282C77.9515 287.967 77.7727 287.713 77.5312 287.518C77.2898 287.324 76.982 287.227 76.608 287.227C76.2339 287.227 75.9261 287.324 75.6847 287.518C75.4432 287.713 75.2644 287.967 75.1484 288.282C75.0324 288.597 74.9744 288.937 74.9744 289.301C74.9744 289.666 75.0324 290.004 75.1484 290.317C75.2644 290.629 75.4432 290.881 75.6847 291.073C75.9261 291.265 76.2339 291.361 76.608 291.361ZM82.5748 292.114C82.0823 292.114 81.6503 291.996 81.2786 291.762C80.9093 291.528 80.6204 291.2 80.4121 290.778C80.2061 290.357 80.1032 289.865 80.1032 289.301C80.1032 288.733 80.2061 288.237 80.4121 287.813C80.6204 287.389 80.9093 287.06 81.2786 286.826C81.6503 286.592 82.0823 286.474 82.5748 286.474C83.0672 286.474 83.498 286.592 83.8674 286.826C84.2391 287.06 84.5279 287.389 84.7338 287.813C84.9422 288.237 85.0463 288.733 85.0463 289.301C85.0463 289.865 84.9422 290.357 84.7338 290.778C84.5279 291.2 84.2391 291.528 83.8674 291.762C83.498 291.996 83.0672 292.114 82.5748 292.114ZM82.5748 291.361C82.9488 291.361 83.2566 291.265 83.498 291.073C83.7395 290.881 83.9183 290.629 84.0343 290.317C84.1503 290.004 84.2083 289.666 84.2083 289.301C84.2083 288.937 84.1503 288.597 84.0343 288.282C83.9183 287.967 83.7395 287.713 83.498 287.518C83.2566 287.324 82.9488 287.227 82.5748 287.227C82.2007 287.227 81.8929 287.324 81.6515 287.518C81.41 287.713 81.2312 287.967 81.1152 288.282C80.9992 288.597 80.9412 288.937 80.9412 289.301C80.9412 289.666 80.9992 290.004 81.1152 290.317C81.2312 290.629 81.41 290.881 81.6515 291.073C81.8929 291.265 82.2007 291.361 82.5748 291.361ZM87.1637 284.727V292H86.3256V284.727H87.1637ZM91.0708 286.545V287.256H88.2441V286.545H91.0708ZM89.068 285.239H89.9061V290.438C89.9061 290.674 89.9404 290.852 90.0091 290.97C90.0801 291.086 90.17 291.164 90.2789 291.205C90.3902 291.242 90.5074 291.261 90.6305 291.261C90.7228 291.261 90.7986 291.257 90.8578 291.247C90.917 291.235 90.9643 291.226 90.9998 291.219L91.1703 291.972C91.1135 291.993 91.0342 292.014 90.9324 292.036C90.8306 292.059 90.7015 292.071 90.5453 292.071C90.3085 292.071 90.0765 292.02 89.8493 291.918C89.6243 291.817 89.4373 291.661 89.2882 291.453C89.1414 291.245 89.068 290.982 89.068 290.665V285.239ZM92.3315 292V286.545H93.1696V292H92.3315ZM92.7576 285.636C92.5943 285.636 92.4534 285.581 92.335 285.469C92.219 285.358 92.161 285.224 92.161 285.068C92.161 284.912 92.219 284.778 92.335 284.667C92.4534 284.556 92.5943 284.5 92.7576 284.5C92.921 284.5 93.0607 284.556 93.1767 284.667C93.295 284.778 93.3542 284.912 93.3542 285.068C93.3542 285.224 93.295 285.358 93.1767 285.469C93.0607 285.581 92.921 285.636 92.7576 285.636ZM94.7045 294.045V286.545H95.5142V287.412H95.6136C95.6752 287.317 95.7604 287.196 95.8693 287.05C95.9806 286.901 96.1392 286.768 96.3452 286.652C96.5535 286.534 96.8352 286.474 97.1903 286.474C97.6496 286.474 98.0545 286.589 98.4048 286.819C98.7552 287.049 99.0286 287.374 99.2251 287.795C99.4216 288.217 99.5199 288.714 99.5199 289.287C99.5199 289.865 99.4216 290.365 99.2251 290.789C99.0286 291.21 98.7564 291.537 98.4084 291.769C98.0604 291.999 97.6591 292.114 97.2045 292.114C96.8542 292.114 96.5736 292.056 96.3629 291.94C96.1522 291.821 95.9901 291.687 95.8764 291.538C95.7628 291.387 95.6752 291.261 95.6136 291.162H95.5426V294.045H94.7045ZM95.5284 289.273C95.5284 289.685 95.5888 290.048 95.7095 290.363C95.8303 290.675 96.0066 290.92 96.2386 291.098C96.4706 291.273 96.7547 291.361 97.0909 291.361C97.4413 291.361 97.7337 291.268 97.968 291.084C98.2048 290.897 98.3823 290.646 98.5007 290.331C98.6214 290.014 98.6818 289.661 98.6818 289.273C98.6818 288.889 98.6226 288.544 98.5043 288.236C98.3883 287.926 98.2119 287.681 97.9751 287.501C97.7408 287.318 97.446 287.227 97.0909 287.227C96.75 287.227 96.4635 287.314 96.2315 287.487C95.9995 287.657 95.8243 287.896 95.706 288.204C95.5876 288.509 95.5284 288.866 95.5284 289.273ZM105.983 286.545V287.256H103.156V286.545H105.983ZM103.98 285.239H104.818V290.438C104.818 290.674 104.853 290.852 104.921 290.97C104.992 291.086 105.082 291.164 105.191 291.205C105.302 291.242 105.42 291.261 105.543 291.261C105.635 291.261 105.711 291.257 105.77 291.247C105.829 291.235 105.876 291.226 105.912 291.219L106.082 291.972C106.026 291.993 105.946 292.014 105.844 292.036C105.743 292.059 105.614 292.071 105.457 292.071C105.221 292.071 104.989 292.02 104.761 291.918C104.536 291.817 104.349 291.661 104.2 291.453C104.054 291.245 103.98 290.982 103.98 290.665V285.239ZM109.472 292.114C108.946 292.114 108.493 291.998 108.112 291.766C107.733 291.531 107.441 291.205 107.235 290.786C107.031 290.364 106.929 289.874 106.929 289.315C106.929 288.757 107.031 288.264 107.235 287.838C107.441 287.41 107.727 287.076 108.094 286.837C108.463 286.595 108.894 286.474 109.387 286.474C109.671 286.474 109.951 286.522 110.228 286.616C110.505 286.711 110.757 286.865 110.985 287.078C111.212 287.289 111.393 287.568 111.528 287.916C111.663 288.264 111.73 288.693 111.73 289.202V289.557H107.526V288.832H110.878C110.878 288.525 110.817 288.25 110.694 288.009C110.573 287.767 110.4 287.576 110.175 287.437C109.953 287.297 109.69 287.227 109.387 287.227C109.053 287.227 108.764 287.31 108.52 287.476C108.279 287.639 108.093 287.852 107.963 288.115C107.833 288.378 107.767 288.66 107.767 288.96V289.443C107.767 289.855 107.838 290.204 107.98 290.491C108.125 290.775 108.325 290.991 108.581 291.141C108.836 291.287 109.133 291.361 109.472 291.361C109.692 291.361 109.891 291.33 110.069 291.268C110.248 291.205 110.404 291.11 110.534 290.984C110.664 290.857 110.765 290.698 110.836 290.509L111.645 290.736C111.56 291.01 111.417 291.252 111.216 291.46C111.014 291.666 110.766 291.827 110.47 291.943C110.174 292.057 109.841 292.114 109.472 292.114ZM113.484 286.545L114.791 288.776L116.097 286.545H117.063L115.302 289.273L117.063 292H116.097L114.791 289.884L113.484 292H112.518L114.251 289.273L112.518 286.545H113.484ZM120.631 286.545V287.256H117.805V286.545H120.631ZM118.629 285.239H119.467V290.438C119.467 290.674 119.501 290.852 119.57 290.97C119.641 291.086 119.731 291.164 119.839 291.205C119.951 291.242 120.068 291.261 120.191 291.261C120.283 291.261 120.359 291.257 120.418 291.247C120.478 291.235 120.525 291.226 120.56 291.219L120.731 291.972C120.674 291.993 120.595 292.014 120.493 292.036C120.391 292.059 120.262 292.071 120.106 292.071C119.869 292.071 119.637 292.02 119.41 291.918C119.185 291.817 118.998 291.661 118.849 291.453C118.702 291.245 118.629 290.982 118.629 290.665V285.239ZM127.134 286.545V287.256H124.193V286.545H127.134ZM125.074 292V285.793C125.074 285.48 125.147 285.22 125.294 285.011C125.441 284.803 125.631 284.647 125.866 284.543C126.1 284.438 126.348 284.386 126.608 284.386C126.814 284.386 126.982 284.403 127.112 284.436C127.242 284.469 127.339 284.5 127.403 284.528L127.162 285.253C127.119 285.239 127.06 285.221 126.984 285.2C126.911 285.178 126.814 285.168 126.693 285.168C126.416 285.168 126.216 285.237 126.093 285.377C125.972 285.517 125.912 285.722 125.912 285.991V292H125.074ZM130.299 292.114C129.807 292.114 129.375 291.996 129.003 291.762C128.634 291.528 128.345 291.2 128.137 290.778C127.931 290.357 127.828 289.865 127.828 289.301C127.828 288.733 127.931 288.237 128.137 287.813C128.345 287.389 128.634 287.06 129.003 286.826C129.375 286.592 129.807 286.474 130.299 286.474C130.792 286.474 131.223 286.592 131.592 286.826C131.964 287.06 132.252 287.389 132.458 287.813C132.667 288.237 132.771 288.733 132.771 289.301C132.771 289.865 132.667 290.357 132.458 290.778C132.252 291.2 131.964 291.528 131.592 291.762C131.223 291.996 130.792 292.114 130.299 292.114ZM130.299 291.361C130.673 291.361 130.981 291.265 131.223 291.073C131.464 290.881 131.643 290.629 131.759 290.317C131.875 290.004 131.933 289.666 131.933 289.301C131.933 288.937 131.875 288.597 131.759 288.282C131.643 287.967 131.464 287.713 131.223 287.518C130.981 287.324 130.673 287.227 130.299 287.227C129.925 287.227 129.618 287.324 129.376 287.518C129.135 287.713 128.956 287.967 128.84 288.282C128.724 288.597 128.666 288.937 128.666 289.301C128.666 289.666 128.724 290.004 128.84 290.317C128.956 290.629 129.135 290.881 129.376 291.073C129.618 291.265 129.925 291.361 130.299 291.361ZM134.05 292V286.545H134.86V287.369H134.917C135.016 287.099 135.196 286.88 135.456 286.712C135.717 286.544 136.01 286.46 136.337 286.46C136.399 286.46 136.476 286.461 136.568 286.464C136.66 286.466 136.73 286.47 136.778 286.474V287.327C136.749 287.32 136.684 287.309 136.582 287.295C136.483 287.278 136.377 287.27 136.266 287.27C136.001 287.27 135.764 287.326 135.556 287.437C135.35 287.546 135.187 287.697 135.066 287.891C134.948 288.083 134.888 288.302 134.888 288.548V292H134.05ZM142.87 292.114C142.345 292.114 141.891 291.998 141.51 291.766C141.132 291.531 140.839 291.205 140.633 290.786C140.43 290.364 140.328 289.874 140.328 289.315C140.328 288.757 140.43 288.264 140.633 287.838C140.839 287.41 141.126 287.076 141.493 286.837C141.862 286.595 142.293 286.474 142.785 286.474C143.069 286.474 143.35 286.522 143.627 286.616C143.904 286.711 144.156 286.865 144.383 287.078C144.61 287.289 144.792 287.568 144.926 287.916C145.061 288.264 145.129 288.693 145.129 289.202V289.557H140.924V288.832H144.277C144.277 288.525 144.215 288.25 144.092 288.009C143.971 287.767 143.798 287.576 143.574 287.437C143.351 287.297 143.088 287.227 142.785 287.227C142.451 287.227 142.163 287.31 141.919 287.476C141.677 287.639 141.491 287.852 141.361 288.115C141.231 288.378 141.166 288.66 141.166 288.96V289.443C141.166 289.855 141.237 290.204 141.379 290.491C141.523 290.775 141.723 290.991 141.979 291.141C142.235 291.287 142.532 291.361 142.87 291.361C143.091 291.361 143.289 291.33 143.467 291.268C143.647 291.205 143.802 291.11 143.932 290.984C144.062 290.857 144.163 290.698 144.234 290.509L145.044 290.736C144.958 291.01 144.815 291.252 144.614 291.46C144.413 291.666 144.164 291.827 143.868 291.943C143.572 292.057 143.24 292.114 142.87 292.114ZM146.882 286.545L148.189 288.776L149.496 286.545H150.462L148.7 289.273L150.462 292H149.496L148.189 289.884L146.882 292H145.916L147.649 289.273L145.916 286.545H146.882ZM153.263 292.128C152.917 292.128 152.603 292.063 152.322 291.933C152.04 291.8 151.816 291.609 151.651 291.361C151.485 291.11 151.402 290.807 151.402 290.452C151.402 290.139 151.464 289.886 151.587 289.692C151.71 289.495 151.874 289.341 152.08 289.23C152.286 289.119 152.513 289.036 152.762 288.982C153.013 288.925 153.265 288.88 153.518 288.847C153.85 288.804 154.119 288.772 154.325 288.751C154.533 288.727 154.684 288.688 154.779 288.634C154.876 288.579 154.925 288.484 154.925 288.349V288.321C154.925 287.971 154.829 287.698 154.637 287.504C154.448 287.31 154.16 287.213 153.774 287.213C153.374 287.213 153.06 287.301 152.833 287.476C152.606 287.651 152.446 287.838 152.354 288.037L151.558 287.753C151.7 287.421 151.89 287.163 152.126 286.979C152.366 286.792 152.626 286.661 152.908 286.588C153.192 286.512 153.471 286.474 153.746 286.474C153.921 286.474 154.122 286.496 154.349 286.538C154.579 286.579 154.8 286.663 155.013 286.79C155.229 286.918 155.408 287.111 155.55 287.369C155.692 287.627 155.763 287.973 155.763 288.406V292H154.925V291.261H154.882C154.825 291.38 154.731 291.506 154.598 291.641C154.465 291.776 154.289 291.891 154.069 291.986C153.849 292.08 153.58 292.128 153.263 292.128ZM153.391 291.375C153.722 291.375 154.001 291.31 154.229 291.18C154.458 291.049 154.631 290.881 154.747 290.675C154.866 290.469 154.925 290.253 154.925 290.026V289.259C154.889 289.301 154.811 289.34 154.69 289.376C154.572 289.409 154.435 289.438 154.278 289.464C154.125 289.488 153.974 289.509 153.827 289.528C153.683 289.545 153.566 289.559 153.476 289.571C153.258 289.599 153.054 289.646 152.865 289.71C152.678 289.771 152.527 289.865 152.411 289.99C152.297 290.113 152.24 290.281 152.24 290.494C152.24 290.786 152.348 291.006 152.563 291.155C152.781 291.302 153.057 291.375 153.391 291.375ZM157.292 292V286.545H158.102V287.398H158.173C158.287 287.107 158.47 286.88 158.724 286.719C158.977 286.556 159.281 286.474 159.636 286.474C159.996 286.474 160.296 286.556 160.535 286.719C160.776 286.88 160.964 287.107 161.099 287.398H161.156C161.296 287.116 161.505 286.892 161.785 286.727C162.064 286.558 162.399 286.474 162.79 286.474C163.277 286.474 163.676 286.627 163.986 286.933C164.296 287.236 164.452 287.708 164.452 288.349V292H163.613V288.349C163.613 287.947 163.503 287.659 163.283 287.487C163.063 287.314 162.804 287.227 162.506 287.227C162.122 287.227 161.825 287.343 161.614 287.575C161.403 287.805 161.298 288.096 161.298 288.449V292H160.446V288.264C160.446 287.954 160.345 287.704 160.144 287.515C159.943 287.323 159.684 287.227 159.366 287.227C159.148 287.227 158.945 287.285 158.756 287.401C158.568 287.517 158.417 287.678 158.301 287.884C158.187 288.088 158.131 288.323 158.131 288.591V292H157.292ZM165.984 294.045V286.545H166.794V287.412H166.893C166.954 287.317 167.04 287.196 167.149 287.05C167.26 286.901 167.419 286.768 167.624 286.652C167.833 286.534 168.115 286.474 168.47 286.474C168.929 286.474 169.334 286.589 169.684 286.819C170.035 287.049 170.308 287.374 170.504 287.795C170.701 288.217 170.799 288.714 170.799 289.287C170.799 289.865 170.701 290.365 170.504 290.789C170.308 291.21 170.036 291.537 169.688 291.769C169.34 291.999 168.938 292.114 168.484 292.114C168.133 292.114 167.853 292.056 167.642 291.94C167.432 291.821 167.269 291.687 167.156 291.538C167.042 291.387 166.954 291.261 166.893 291.162H166.822V294.045H165.984ZM166.808 289.273C166.808 289.685 166.868 290.048 166.989 290.363C167.11 290.675 167.286 290.92 167.518 291.098C167.75 291.273 168.034 291.361 168.37 291.361C168.721 291.361 169.013 291.268 169.247 291.084C169.484 290.897 169.662 290.646 169.78 290.331C169.901 290.014 169.961 289.661 169.961 289.273C169.961 288.889 169.902 288.544 169.784 288.236C169.668 287.926 169.491 287.681 169.254 287.501C169.02 287.318 168.725 287.227 168.37 287.227C168.029 287.227 167.743 287.314 167.511 287.487C167.279 287.657 167.104 287.896 166.985 288.204C166.867 288.509 166.808 288.866 166.808 289.273ZM172.916 284.727V292H172.078V284.727H172.916ZM176.738 292.114C176.212 292.114 175.759 291.998 175.377 291.766C174.999 291.531 174.706 291.205 174.5 290.786C174.297 290.364 174.195 289.874 174.195 289.315C174.195 288.757 174.297 288.264 174.5 287.838C174.706 287.41 174.993 287.076 175.36 286.837C175.729 286.595 176.16 286.474 176.652 286.474C176.936 286.474 177.217 286.522 177.494 286.616C177.771 286.711 178.023 286.865 178.25 287.078C178.478 287.289 178.659 287.568 178.794 287.916C178.929 288.264 178.996 288.693 178.996 289.202V289.557H174.792V288.832H178.144C178.144 288.525 178.082 288.25 177.959 288.009C177.838 287.767 177.666 287.576 177.441 287.437C177.218 287.297 176.955 287.227 176.652 287.227C176.319 287.227 176.03 287.31 175.786 287.476C175.544 287.639 175.359 287.852 175.228 288.115C175.098 288.378 175.033 288.66 175.033 288.96V289.443C175.033 289.855 175.104 290.204 175.246 290.491C175.391 290.775 175.591 290.991 175.846 291.141C176.102 291.287 176.399 291.361 176.738 291.361C176.958 291.361 177.157 291.33 177.334 291.268C177.514 291.205 177.669 291.11 177.799 290.984C177.93 290.857 178.03 290.698 178.101 290.509L178.911 290.736C178.826 291.01 178.682 291.252 178.481 291.46C178.28 291.666 178.031 291.827 177.735 291.943C177.44 292.057 177.107 292.114 176.738 292.114Z" fill="white"/>
<path d="M42.2429 50.2955V47.9091H63.3366V50.2955H54.1179V77H51.4616V50.2955H42.2429ZM74.1072 77.4545C72.2228 77.4545 70.5561 76.9763 69.1072 76.0199C67.6679 75.0634 66.541 73.7424 65.7266 72.0568C64.9122 70.3617 64.505 68.4062 64.505 66.1903C64.505 63.9555 64.9122 61.9905 65.7266 60.2955C66.541 58.5909 67.6679 57.2652 69.1072 56.3182C70.5561 55.3617 72.2228 54.8835 74.1072 54.8835C75.9917 54.8835 77.6536 55.3617 79.093 56.3182C80.5324 57.2746 81.6593 58.6004 82.4737 60.2955C83.2976 61.9905 83.7095 63.9555 83.7095 66.1903C83.7095 68.4062 83.3023 70.3617 82.4879 72.0568C81.6735 73.7424 80.5419 75.0634 79.093 76.0199C77.6536 76.9763 75.9917 77.4545 74.1072 77.4545ZM74.1072 75.1392C75.6224 75.1392 76.9055 74.732 77.9567 73.9176C79.0078 73.1032 79.8033 72.0189 80.343 70.6648C80.8923 69.3106 81.1669 67.8191 81.1669 66.1903C81.1669 64.5616 80.8923 63.0653 80.343 61.7017C79.8033 60.3381 79.0078 59.2443 77.9567 58.4205C76.9055 57.5966 75.6224 57.1847 74.1072 57.1847C72.6016 57.1847 71.3184 57.5966 70.2578 58.4205C69.2067 59.2443 68.4065 60.3381 67.8572 61.7017C67.3175 63.0653 67.0476 64.5616 67.0476 66.1903C67.0476 67.8191 67.3175 69.3106 67.8572 70.6648C68.4065 72.0189 69.2067 73.1032 70.2578 73.9176C71.3089 74.732 72.5921 75.1392 74.1072 75.1392ZM97.7401 77.4545C95.8556 77.4545 94.1889 76.9763 92.7401 76.0199C91.3007 75.0634 90.1738 73.7424 89.3594 72.0568C88.545 70.3617 88.1378 68.4062 88.1378 66.1903C88.1378 63.9555 88.545 61.9905 89.3594 60.2955C90.1738 58.5909 91.3007 57.2652 92.7401 56.3182C94.1889 55.3617 95.8556 54.8835 97.7401 54.8835C99.6245 54.8835 101.286 55.3617 102.726 56.3182C104.165 57.2746 105.292 58.6004 106.107 60.2955C106.93 61.9905 107.342 63.9555 107.342 66.1903C107.342 68.4062 106.935 70.3617 106.121 72.0568C105.306 73.7424 104.175 75.0634 102.726 76.0199C101.286 76.9763 99.6245 77.4545 97.7401 77.4545ZM97.7401 75.1392C99.2552 75.1392 100.538 74.732 101.589 73.9176C102.641 73.1032 103.436 72.0189 103.976 70.6648C104.525 69.3106 104.8 67.8191 104.8 66.1903C104.8 64.5616 104.525 63.0653 103.976 61.7017C103.436 60.3381 102.641 59.2443 101.589 58.4205C100.538 57.5966 99.2552 57.1847 97.7401 57.1847C96.2344 57.1847 94.9512 57.5966 93.8906 58.4205C92.8395 59.2443 92.0393 60.3381 91.4901 61.7017C90.9503 63.0653 90.6804 64.5616 90.6804 66.1903C90.6804 67.8191 90.9503 69.3106 91.4901 70.6648C92.0393 72.0189 92.8395 73.1032 93.8906 73.9176C94.9418 74.732 96.2249 75.1392 97.7401 75.1392ZM115.421 47.9091V77H112.893V47.9091H115.421ZM130.705 55.1818V57.3835H120.293V55.1818H130.705ZM123.546 49.9545H126.089V71.304C126.089 72.2131 126.245 72.928 126.558 73.4489C126.87 73.9602 127.277 74.3248 127.779 74.5426C128.281 74.7509 128.816 74.8551 129.384 74.8551C129.716 74.8551 130 74.8362 130.237 74.7983C130.473 74.7509 130.682 74.7036 130.862 74.6562L131.401 76.9432C131.155 77.0379 130.852 77.1231 130.492 77.1989C130.132 77.2841 129.687 77.3267 129.157 77.3267C128.229 77.3267 127.334 77.1231 126.472 76.7159C125.62 76.3087 124.919 75.7027 124.37 74.8977C123.821 74.0928 123.546 73.0938 123.546 71.9006V49.9545ZM136.476 77V55.1818H139.018V77H136.476ZM137.768 51.4318C137.248 51.4318 136.803 51.2566 136.433 50.9062C136.064 50.5464 135.879 50.1155 135.879 49.6136C135.879 49.1117 136.064 48.6856 136.433 48.3352C136.803 47.9754 137.248 47.7955 137.768 47.7955C138.289 47.7955 138.734 47.9754 139.104 48.3352C139.473 48.6856 139.658 49.1117 139.658 49.6136C139.658 50.1155 139.473 50.5464 139.104 50.9062C138.734 51.2566 138.289 51.4318 137.768 51.4318ZM145.705 85.1818V55.1818H148.163V59.3438H148.461C148.764 58.6903 149.181 58.0227 149.711 57.3409C150.241 56.6496 150.942 56.0672 151.813 55.5938C152.694 55.1203 153.802 54.8835 155.137 54.8835C156.936 54.8835 158.508 55.357 159.853 56.304C161.207 57.2415 162.258 58.5578 163.006 60.2528C163.764 61.9384 164.143 63.9034 164.143 66.1477C164.143 68.4015 163.764 70.3759 163.006 72.071C162.258 73.7661 161.207 75.0871 159.853 76.0341C158.508 76.9811 156.946 77.4545 155.165 77.4545C153.849 77.4545 152.746 77.2178 151.856 76.7443C150.975 76.2708 150.26 75.6884 149.711 74.9972C149.171 74.2964 148.754 73.6146 148.461 72.9517H148.234V85.1818H145.705ZM148.205 66.1051C148.205 67.8665 148.466 69.429 148.987 70.7926C149.517 72.1468 150.274 73.2121 151.259 73.9886C152.254 74.7557 153.456 75.1392 154.867 75.1392C156.316 75.1392 157.538 74.7415 158.532 73.946C159.536 73.1411 160.298 72.0568 160.819 70.6932C161.349 69.3295 161.614 67.8002 161.614 66.1051C161.614 64.429 161.354 62.9186 160.833 61.5739C160.322 60.2292 159.564 59.1638 158.56 58.3778C157.557 57.5824 156.326 57.1847 154.867 57.1847C153.447 57.1847 152.239 57.5682 151.245 58.3352C150.251 59.0928 149.493 60.1439 148.972 61.4886C148.461 62.8239 148.205 64.3627 148.205 66.1051ZM184.349 59.9688L182.033 60.6222C181.806 59.9687 181.484 59.3769 181.067 58.8466C180.651 58.3163 180.106 57.8949 179.434 57.5824C178.771 57.2699 177.947 57.1136 176.962 57.1136C175.485 57.1136 174.273 57.464 173.326 58.1648C172.379 58.8655 171.906 59.7699 171.906 60.8778C171.906 61.8153 172.228 62.5777 172.871 63.1648C173.525 63.7424 174.529 64.2017 175.883 64.5426L179.178 65.3523C181.006 65.7973 182.374 66.5028 183.283 67.4688C184.202 68.4347 184.661 69.6468 184.661 71.1051C184.661 72.3362 184.32 73.4299 183.638 74.3864C182.957 75.3428 182.005 76.0956 180.783 76.6449C179.571 77.1847 178.165 77.4545 176.565 77.4545C174.434 77.4545 172.677 76.9763 171.295 76.0199C169.912 75.054 169.027 73.6619 168.638 71.8438L171.067 71.2472C171.38 72.5445 171.991 73.5246 172.9 74.1875C173.818 74.8504 175.026 75.1818 176.522 75.1818C178.198 75.1818 179.538 74.8078 180.542 74.0597C181.546 73.3021 182.048 72.3551 182.048 71.2188C182.048 70.3381 181.754 69.5994 181.167 69.0028C180.58 68.3968 179.69 67.9517 178.496 67.6676L174.931 66.8153C173.037 66.3608 171.636 65.6411 170.727 64.6562C169.817 63.6714 169.363 62.4498 169.363 60.9915C169.363 59.7888 169.69 58.733 170.343 57.8239C170.996 56.9053 171.896 56.1856 173.042 55.6648C174.188 55.1439 175.495 54.8835 176.962 54.8835C178.96 54.8835 180.556 55.3381 181.749 56.2472C182.952 57.1468 183.818 58.3873 184.349 59.9688Z" fill="#C4C8DC"/>
</svg>
